<svg id="Layer_1" data-name="Layer 1" xmlns="http://www.w3.org/2000/svg" viewBox="0 0 1065 1476.4"><defs><style>.cls-1{fill:#80332a;}.cls-2{fill:#3c3c3c;}.cls-3{fill:#c10000;}.cls-4{fill:#2d2d2d;}.cls-5{fill:#fff;}.cls-6{fill:#e5dbdb;}.cls-7,.cls-8{fill:none;stroke:#a8a8a8;stroke-linecap:round;stroke-linejoin:round;stroke-width:3px;}.cls-8{stroke-dasharray:0.25 9.87;}</style></defs><title>CCSF</title><polygon class="cls-1" points="115.07 426.2 81.04 395.99 20.07 426.2 96.07 470.91 115.07 470.91 115.07 426.2"/><path class="cls-1" d="M677.74,845.25H567.19A202.41,202.41,0,0,0,557.6,907v1.18h43.2Z"/><path class="cls-2" d="M802.65,704.59H970v-1778l-875-1v2198L123.81,1153,95,1186.54v300.92l875,1v-147.3H802.65c-111.77,0-202.38-90.61-202.38-202.39v-60l75.8-62.89h-75.8V907C600.27,795.2,690.88,704.59,802.65,704.59Z"/><g id="Previous_bg" data-name="Previous bg"><rect class="cls-3" x="95.92" y="782.36" width="581.29" height="62.89"/><rect class="cls-4" x="95.92" y="953" width="580.55" height="62.89"/><path class="cls-3" d="M677.74,782.36v62.89H503.58c-62.67,0-98.46-62.89-98.46-62.89Z"/><path class="cls-4" d="M676.47,953v62.9H403.21c-62.67,0-98.45-62.9-98.45-62.9Z"/><path class="cls-5" d="M675.1,1123.65v62.89H95v-62.89Z"/><path class="cls-2" d="M856,818h-2.77l-.72,3.42h-1.46l.72-3.42h-3.3l-.72,3.42h-1.46L847,818h-1.58V816.5h1.89l.59-2.87h-2.48v-1.45h2.79l.72-3.44h1.46l-.72,3.44H853l.72-3.44h1.46l-.72,3.44H856v1.45h-1.88l-.59,2.87H856Zm-3.33-4.33h-3.3l-.59,2.87h3.29Z"/><path class="cls-2" d="M864.42,815.36a1.32,1.32,0,0,1-.32.9,1,1,0,0,1-.82.36.89.89,0,0,1-.61-.21.72.72,0,0,1-.23-.55,1.77,1.77,0,0,1,.07-.46,1.46,1.46,0,0,0,.08-.43.57.57,0,0,0-.28-.56,1.09,1.09,0,0,0-.54-.14,1.85,1.85,0,0,0-1.44.84,6.3,6.3,0,0,0-1.06,2,6,6,0,0,0-.39,1.87c0,.53.13.87.38,1a1.55,1.55,0,0,0,.79.22,2.51,2.51,0,0,0,1.44-.43,4.73,4.73,0,0,0,1.1-1h.95a6.19,6.19,0,0,1-1.75,1.7,4.45,4.45,0,0,1-2.52.76,2.75,2.75,0,0,1-1.89-.61,2.12,2.12,0,0,1-.66-1.64,5.16,5.16,0,0,1,.7-2.51,5.91,5.91,0,0,1,2-2.12,4.82,4.82,0,0,1,2.76-.83,2.86,2.86,0,0,1,1,.15,2.12,2.12,0,0,1,.72.41,1.69,1.69,0,0,1,.45.59A1.64,1.64,0,0,1,864.42,815.36Z"/><path class="cls-2" d="M872.66,815.36a1.31,1.31,0,0,1-.31.9,1,1,0,0,1-.82.36.85.85,0,0,1-.61-.21.69.69,0,0,1-.24-.55,2.34,2.34,0,0,1,.07-.46,1.2,1.2,0,0,0,.08-.43.58.58,0,0,0-.27-.56,1.15,1.15,0,0,0-.55-.14,1.88,1.88,0,0,0-1.44.84,6.51,6.51,0,0,0-1.06,2,6,6,0,0,0-.39,1.87c0,.53.13.87.38,1a1.55,1.55,0,0,0,.79.22,2.51,2.51,0,0,0,1.44-.43,4.54,4.54,0,0,0,1.1-1h.95a6.06,6.06,0,0,1-1.75,1.7,4.44,4.44,0,0,1-2.51.76,2.72,2.72,0,0,1-1.89-.61A2.1,2.1,0,0,1,865,819a5.27,5.27,0,0,1,.7-2.51,5.85,5.85,0,0,1,2-2.12,4.82,4.82,0,0,1,2.76-.83,2.91,2.91,0,0,1,1,.15,2.17,2.17,0,0,1,.71.41,1.69,1.69,0,0,1,.45.59A1.64,1.64,0,0,1,872.66,815.36Z"/><path class="cls-2" d="M881.79,812.07a13,13,0,0,1-.31,2.49,16.32,16.32,0,0,1-1,3.07,7.7,7.7,0,0,1-1.75,2.57,3.58,3.58,0,0,1-2.56,1,2.09,2.09,0,0,1-2.05-1,4.39,4.39,0,0,1-.5-2.07,13.15,13.15,0,0,1,.49-3.09,14.12,14.12,0,0,1,1.47-3.61,6,6,0,0,1,.83-1.1,4.32,4.32,0,0,1,1.21-.89,3.52,3.52,0,0,1,1.65-.37,2.38,2.38,0,0,1,1.34.34,2.16,2.16,0,0,1,.77.85,3.43,3.43,0,0,1,.33.94A5.79,5.79,0,0,1,881.79,812.07Zm-1.64-1.21a1.08,1.08,0,0,0-.23-.69.78.78,0,0,0-.65-.28,1.3,1.3,0,0,0-1,.48,3.68,3.68,0,0,0-.62.91,26.66,26.66,0,0,0-1,2.66c-.4,1.19-.74,2.31-1,3.37a10.63,10.63,0,0,0-.42,2.09,1.73,1.73,0,0,0,.18.71.79.79,0,0,0,.8.4c.65,0,1.19-.52,1.61-1.56.16-.39.38-1,.66-1.87s.55-1.71.81-2.56.46-1.62.63-2.31A7.35,7.35,0,0,0,880.15,810.86Z"/><path class="cls-2" d="M890.79,812.07a13,13,0,0,1-.31,2.49,16.32,16.32,0,0,1-1,3.07,7.7,7.7,0,0,1-1.75,2.57,3.58,3.58,0,0,1-2.56,1,2.09,2.09,0,0,1-2.05-1,4.39,4.39,0,0,1-.5-2.07,13.15,13.15,0,0,1,.49-3.09,14.12,14.12,0,0,1,1.47-3.61,6,6,0,0,1,.83-1.1,4.32,4.32,0,0,1,1.21-.89,3.52,3.52,0,0,1,1.65-.37,2.38,2.38,0,0,1,1.34.34,2.16,2.16,0,0,1,.77.85,3.43,3.43,0,0,1,.33.94A5.79,5.79,0,0,1,890.79,812.07Zm-1.64-1.21a1.08,1.08,0,0,0-.23-.69.78.78,0,0,0-.65-.28,1.3,1.3,0,0,0-1,.48,3.68,3.68,0,0,0-.62.91,26.66,26.66,0,0,0-1,2.66c-.4,1.19-.74,2.31-1,3.37a10.63,10.63,0,0,0-.42,2.09,1.73,1.73,0,0,0,.18.71.79.79,0,0,0,.8.4c.65,0,1.19-.52,1.61-1.56.16-.39.38-1,.66-1.87s.55-1.71.81-2.56.46-1.62.63-2.31A7.35,7.35,0,0,0,889.15,810.86Z"/><path class="cls-2" d="M899.79,812.07a13,13,0,0,1-.31,2.49,16.32,16.32,0,0,1-1,3.07,7.7,7.7,0,0,1-1.75,2.57,3.58,3.58,0,0,1-2.56,1,2.09,2.09,0,0,1-2.05-1,4.39,4.39,0,0,1-.5-2.07,13.15,13.15,0,0,1,.49-3.09,14.12,14.12,0,0,1,1.47-3.61,6,6,0,0,1,.83-1.1,4.32,4.32,0,0,1,1.21-.89,3.52,3.52,0,0,1,1.65-.37,2.38,2.38,0,0,1,1.34.34,2.16,2.16,0,0,1,.77.85,3.43,3.43,0,0,1,.33.94A5.79,5.79,0,0,1,899.79,812.07Zm-1.64-1.21a1.08,1.08,0,0,0-.23-.69.78.78,0,0,0-.65-.28,1.3,1.3,0,0,0-1,.48,3.68,3.68,0,0,0-.62.91,26.66,26.66,0,0,0-1,2.66c-.4,1.19-.74,2.31-1,3.37a10.63,10.63,0,0,0-.42,2.09,1.73,1.73,0,0,0,.18.71.79.79,0,0,0,.8.4c.65,0,1.19-.52,1.61-1.56.16-.39.38-1,.66-1.87s.55-1.71.81-2.56.46-1.62.63-2.31A7.35,7.35,0,0,0,898.15,810.86Z"/><path class="cls-2" d="M908.79,812.07a13,13,0,0,1-.31,2.49,16.32,16.32,0,0,1-1,3.07,7.7,7.7,0,0,1-1.75,2.57,3.58,3.58,0,0,1-2.56,1,2.09,2.09,0,0,1-2.05-1,4.39,4.39,0,0,1-.5-2.07,13.15,13.15,0,0,1,.49-3.09,14.12,14.12,0,0,1,1.47-3.61,6,6,0,0,1,.83-1.1,4.32,4.32,0,0,1,1.21-.89,3.52,3.52,0,0,1,1.65-.37,2.38,2.38,0,0,1,1.34.34,2.16,2.16,0,0,1,.77.85,3.43,3.43,0,0,1,.33.94A5.79,5.79,0,0,1,908.79,812.07Zm-1.64-1.21a1.08,1.08,0,0,0-.23-.69.78.78,0,0,0-.65-.28,1.3,1.3,0,0,0-1,.48,3.68,3.68,0,0,0-.62.91,26.66,26.66,0,0,0-1,2.66c-.4,1.19-.74,2.31-1,3.37a10.63,10.63,0,0,0-.42,2.09,1.73,1.73,0,0,0,.18.71.79.79,0,0,0,.8.4c.65,0,1.19-.52,1.61-1.56.16-.39.38-1,.66-1.87s.55-1.71.81-2.56.46-1.62.63-2.31A7.35,7.35,0,0,0,907.15,810.86Z"/><path class="cls-2" d="M856,887.19h-2.77l-.72,3.42h-1.46l.72-3.42h-3.3l-.72,3.42h-1.46l.72-3.42h-1.58v-1.46h1.89l.59-2.87h-2.48v-1.45h2.79l.72-3.44h1.46l-.72,3.44H853l.72-3.44h1.46l-.72,3.44H856v1.45h-1.88l-.59,2.87H856Zm-3.33-4.33h-3.3l-.59,2.87h3.29Z"/><path class="cls-2" d="M865.25,880.94a3.5,3.5,0,0,1-.23,1.16,2.93,2.93,0,0,1-1,1.24,4.39,4.39,0,0,1-2.15.79,3,3,0,0,1,1.47.82,2.39,2.39,0,0,1,.59,1.75,3.76,3.76,0,0,1-.47,1.73,4,4,0,0,1-1.38,1.47,3.72,3.72,0,0,1-2.08.58,3.58,3.58,0,0,1-1.52-.33,2.66,2.66,0,0,1-1.14-1,2.62,2.62,0,0,1-.43-1.5,3.47,3.47,0,0,1,1.32-2.77,4,4,0,0,1,2.57-.77,2,2,0,0,1-1.94-2.16,3.65,3.65,0,0,1,.23-1.23,4,4,0,0,1,.69-1.18,3.57,3.57,0,0,1,1.13-.86,3.64,3.64,0,0,1,1.55-.32,2.61,2.61,0,0,1,2.12.81A2.71,2.71,0,0,1,865.25,880.94Zm-3.14,4.63c0-.71-.34-1.06-1-1.06a1.47,1.47,0,0,0-1.4.91c-.09.2-.25.7-.49,1.51a7,7,0,0,0-.36,1.72,1,1,0,0,0,.29.78,1.06,1.06,0,0,0,.77.28,1.5,1.5,0,0,0,1.4-1.06,10,10,0,0,0,.58-1.68A6.67,6.67,0,0,0,862.11,885.57Zm1.32-5.56a1,1,0,0,0-.07-.35.79.79,0,0,0-.26-.35.79.79,0,0,0-.51-.15,1.07,1.07,0,0,0-.89.36,4.07,4.07,0,0,0-.59,1.44l-.37,1.44a2.59,2.59,0,0,0,0,.51,1,1,0,0,0,.19.57.72.72,0,0,0,.63.27c.58,0,1-.37,1.29-1.1a6.84,6.84,0,0,0,.24-.77c.1-.36.19-.73.27-1.1A4.54,4.54,0,0,0,863.43,880Z"/><path class="cls-2" d="M874.66,888.1a6.29,6.29,0,0,1-.57.95,4.24,4.24,0,0,1-.7.76,3.35,3.35,0,0,1-.78.49,2.06,2.06,0,0,1-.81.17c-.62,0-1-.19-1.18-.56a3,3,0,0,1-.26-1.33,9.27,9.27,0,0,1-1.39,1.36,2.52,2.52,0,0,1-1.57.53,1.31,1.31,0,0,1-.86-.29,1.67,1.67,0,0,1-.5-.77,3.19,3.19,0,0,1-.16-1,6,6,0,0,1,.6-2.5,6.45,6.45,0,0,1,1.65-2.22,3.4,3.4,0,0,1,2.25-.89,1.52,1.52,0,0,1,.87.22,1.16,1.16,0,0,1,.43.49,3.94,3.94,0,0,1,.21.61l.32-1.1h1.94l-1.63,5.36a4,4,0,0,0-.18.7.3.3,0,0,0,.08.2.23.23,0,0,0,.17.07c.38,0,.79-.4,1.22-1.21Zm-3.27-3.51a1.51,1.51,0,0,0-.17-.73.6.6,0,0,0-.59-.31,1.69,1.69,0,0,0-1.28.76,6.11,6.11,0,0,0-1,1.84A5.42,5.42,0,0,0,868,888c0,.71.22,1.06.66,1.06a1.49,1.49,0,0,0,1-.42,4.93,4.93,0,0,0,.9-1.14,6.73,6.73,0,0,0,.66-1.49A4.66,4.66,0,0,0,871.39,884.59Z"/><path class="cls-2" d="M883.91,880.37a2,2,0,0,1-.69,1.47,6.09,6.09,0,0,1-1.47,1.09c-.53.28-1,.54-1.57.77a2.81,2.81,0,0,1,1.52.5,2.17,2.17,0,0,1,.7,1.91,4,4,0,0,1-.41,1.79,4.29,4.29,0,0,1-1.12,1.38,5.17,5.17,0,0,1-1.59.89,5.41,5.41,0,0,1-1.83.31,3.66,3.66,0,0,1-1.36-.24,2.31,2.31,0,0,1-.94-.65,1.29,1.29,0,0,1-.33-.82.92.92,0,0,1,.24-.65.79.79,0,0,1,.62-.26.87.87,0,0,1,.69.25,2.26,2.26,0,0,1,.38.69,1.93,1.93,0,0,0,.36.65.79.79,0,0,0,.64.26,1.61,1.61,0,0,0,1.17-.52,4.48,4.48,0,0,0,.87-1.3,9,9,0,0,0,.53-1.53,4.94,4.94,0,0,0,.19-1.17,1.39,1.39,0,0,0-.18-.64.62.62,0,0,0-.59-.35,1.73,1.73,0,0,0-.87.39l-.28.22a.42.42,0,0,1-.24.11.33.33,0,0,1-.22-.1.39.39,0,0,1-.13-.33.44.44,0,0,1,.19-.33,8.56,8.56,0,0,1,.77-.48,15,15,0,0,0,2.48-1.68,2.1,2.1,0,0,0,.74-1.6,1.3,1.3,0,0,0-.35-.85,1.26,1.26,0,0,0-1-.39,1.44,1.44,0,0,0-1,.39,1.28,1.28,0,0,0-.41,1,1.15,1.15,0,0,0,0,.31,1.39,1.39,0,0,1,0,.23c0,.06-.15.19-.46.4a1.94,1.94,0,0,1-.53.31c-.08,0-.18-.12-.31-.37a1.68,1.68,0,0,1-.2-.78,2,2,0,0,1,.77-1.56,3.29,3.29,0,0,1,2.24-.67,3.54,3.54,0,0,1,2.13.57A1.71,1.71,0,0,1,883.91,880.37Z"/><path class="cls-2" d="M892.91,880.37a2,2,0,0,1-.69,1.47,6.09,6.09,0,0,1-1.47,1.09c-.53.28-1,.54-1.57.77a2.81,2.81,0,0,1,1.52.5,2.17,2.17,0,0,1,.7,1.91,4,4,0,0,1-.41,1.79,4.29,4.29,0,0,1-1.12,1.38,5.17,5.17,0,0,1-1.59.89,5.41,5.41,0,0,1-1.83.31,3.66,3.66,0,0,1-1.36-.24,2.31,2.31,0,0,1-.94-.65,1.29,1.29,0,0,1-.33-.82.92.92,0,0,1,.24-.65.79.79,0,0,1,.62-.26.87.87,0,0,1,.69.25,2.26,2.26,0,0,1,.38.69,1.93,1.93,0,0,0,.36.65.79.79,0,0,0,.64.26,1.61,1.61,0,0,0,1.17-.52,4.48,4.48,0,0,0,.87-1.3,9,9,0,0,0,.53-1.53,4.94,4.94,0,0,0,.19-1.17,1.39,1.39,0,0,0-.18-.64.62.62,0,0,0-.59-.35,1.73,1.73,0,0,0-.87.39l-.28.22a.42.42,0,0,1-.24.11.33.33,0,0,1-.22-.1.39.39,0,0,1-.13-.33.44.44,0,0,1,.19-.33,8.56,8.56,0,0,1,.77-.48,15,15,0,0,0,2.48-1.68,2.1,2.1,0,0,0,.74-1.6,1.3,1.3,0,0,0-.35-.85,1.26,1.26,0,0,0-1-.39,1.44,1.44,0,0,0-1,.39,1.28,1.28,0,0,0-.41,1,1.15,1.15,0,0,0,0,.31,1.39,1.39,0,0,1,0,.23c0,.06-.15.19-.46.4a1.94,1.94,0,0,1-.53.31c-.08,0-.18-.12-.31-.37a1.68,1.68,0,0,1-.2-.78,2,2,0,0,1,.77-1.56,3.29,3.29,0,0,1,2.24-.67,3.54,3.54,0,0,1,2.13.57A1.71,1.71,0,0,1,892.91,880.37Z"/><path class="cls-2" d="M901.73,881a4.11,4.11,0,0,1-.43,1.84,6.68,6.68,0,0,1-1.26,1.69,15.72,15.72,0,0,1-1.71,1.49q-.89.68-3.48,2.53h4.83l-.71,2.22h-.8a.68.68,0,0,0,.07-.27c0-.19-.15-.28-.43-.28H893l.36-1.19c.43-.36.78-.67,1-.91l1-.93,1.22-1.16c.4-.39.78-.78,1.13-1.15a8.49,8.49,0,0,0,1.36-2,4.39,4.39,0,0,0,.55-2,2.13,2.13,0,0,0-.18-.88,1.36,1.36,0,0,0-.54-.62,1.91,1.91,0,0,0-2,.14,1.13,1.13,0,0,0-.37.82,1.48,1.48,0,0,0,.52,1l.13.14a.2.2,0,0,1,.07.11c0,.06-.09.14-.26.24l-.59.34a.72.72,0,0,1-.36.11c-.16,0-.36-.16-.59-.47a1.74,1.74,0,0,1-.34-1.06,2.07,2.07,0,0,1,.37-1.16,2.66,2.66,0,0,1,1.11-.9,4,4,0,0,1,1.75-.34,3.74,3.74,0,0,1,2.51.74A2.37,2.37,0,0,1,901.73,881Z"/><path class="cls-2" d="M911.22,888.1a6.29,6.29,0,0,1-.57.95,4.29,4.29,0,0,1-.71.76,3.11,3.11,0,0,1-.77.49,2.15,2.15,0,0,1-.82.17c-.61,0-1-.19-1.18-.56a3.19,3.19,0,0,1-.26-1.33,9.27,9.27,0,0,1-1.39,1.36,2.49,2.49,0,0,1-1.56.53,1.3,1.3,0,0,1-.86-.29,1.69,1.69,0,0,1-.51-.77,3.19,3.19,0,0,1-.16-1,5.91,5.91,0,0,1,.61-2.5,6.43,6.43,0,0,1,1.64-2.22,3.44,3.44,0,0,1,2.25-.89,1.47,1.47,0,0,1,.87.22,1.16,1.16,0,0,1,.43.49,3.94,3.94,0,0,1,.21.61l.33-1.1h1.94l-1.64,5.36a4.54,4.54,0,0,0-.17.7.29.29,0,0,0,.07.2.23.23,0,0,0,.17.07c.38,0,.79-.4,1.23-1.21Zm-3.28-3.51a1.64,1.64,0,0,0-.16-.73.61.61,0,0,0-.6-.31,1.71,1.71,0,0,0-1.28.76,6.33,6.33,0,0,0-1,1.84,5.69,5.69,0,0,0-.38,1.81c0,.71.22,1.06.67,1.06a1.46,1.46,0,0,0,.95-.42,4.45,4.45,0,0,0,.9-1.14,7.27,7.27,0,0,0,.67-1.49A5,5,0,0,0,907.94,884.59Z"/><path class="cls-2" d="M856,985.62h-2.77l-.72,3.42h-1.46l.72-3.42h-3.3l-.72,3.42h-1.46l.72-3.42h-1.58v-1.46h1.89l.59-2.87h-2.48v-1.45h2.79l.72-3.44h1.46l-.72,3.44H853l.72-3.44h1.46l-.72,3.44H856v1.45h-1.88l-.59,2.87H856Zm-3.33-4.33h-3.3l-.59,2.87h3.29Z"/><path class="cls-2" d="M865.17,979.42a4.11,4.11,0,0,1-.42,1.84,6.57,6.57,0,0,1-1.26,1.69,18.27,18.27,0,0,1-1.72,1.5c-.58.44-1.74,1.29-3.47,2.52h4.82l-.7,2.23h-.81a.61.61,0,0,0,.07-.28c0-.18-.14-.28-.43-.28h-4.82l.36-1.18,1.05-.92,1-.93c.42-.38.83-.77,1.23-1.16s.78-.78,1.13-1.15a8.81,8.81,0,0,0,1.36-2,4.47,4.47,0,0,0,.54-2,2.13,2.13,0,0,0-.18-.88,1.39,1.39,0,0,0-.53-.62,1.63,1.63,0,0,0-.89-.23,1.6,1.6,0,0,0-1.15.37,1.13,1.13,0,0,0-.37.82,1.51,1.51,0,0,0,.51,1l.14.15s.07.08.07.11-.09.13-.26.23l-.6.35a.65.65,0,0,1-.36.1c-.16,0-.35-.16-.58-.47a1.75,1.75,0,0,1-.35-1.06,2.09,2.09,0,0,1,.37-1.15,2.52,2.52,0,0,1,1.11-.9,4.12,4.12,0,0,1,1.76-.35,3.76,3.76,0,0,1,2.51.74A2.36,2.36,0,0,1,865.17,979.42Z"/><path class="cls-2" d="M876.19,976.51l-3.12,10.12a4.06,4.06,0,0,0-.19.88c0,.2.1.31.29.31a1,1,0,0,0,.62-.33,3.78,3.78,0,0,0,.64-.88h.84a4.84,4.84,0,0,1-.54.92,4.12,4.12,0,0,1-1,1,2.3,2.3,0,0,1-1.35.42c-1,0-1.52-.55-1.52-1.64v-.11a.49.49,0,0,0,0-.12,6.2,6.2,0,0,1-.84.88,4.29,4.29,0,0,1-1.11.71,3.06,3.06,0,0,1-1.24.28,1.74,1.74,0,0,1-1.44-.61,2.25,2.25,0,0,1-.51-1.52,5.27,5.27,0,0,1,.4-2,6.52,6.52,0,0,1,1.06-1.8,5.31,5.31,0,0,1,1.58-1.3,3.78,3.78,0,0,1,1.86-.49,2,2,0,0,1,1.11.26,2.87,2.87,0,0,1,.64.66l1-3.43a2.38,2.38,0,0,0,.18-.65.4.4,0,0,0-.15-.35.86.86,0,0,0-.38-.13l-.69,0,.21-.81,1.41,0c.34,0,.61,0,.83-.05l.75-.13Zm-4.29,6.67a1.5,1.5,0,0,0-.29-.94,1,1,0,0,0-.79-.37,2,2,0,0,0-1.46.77,5.9,5.9,0,0,0-1.12,1.85,5.29,5.29,0,0,0-.42,1.9,1.07,1.07,0,0,0,.29.85,1,1,0,0,0,.68.27,1.88,1.88,0,0,0,1.16-.43,4.27,4.27,0,0,0,1-1.12,5.73,5.73,0,0,0,.68-1.41A4.2,4.2,0,0,0,871.9,983.18Z"/><path class="cls-2" d="M884.49,979.42a4,4,0,0,1-.43,1.84,6.3,6.3,0,0,1-1.25,1.69,18.27,18.27,0,0,1-1.72,1.5c-.59.44-1.74,1.29-3.47,2.52h4.82l-.7,2.23h-.81a.61.61,0,0,0,.07-.28c0-.18-.14-.28-.43-.28h-4.82l.36-1.18,1-.92,1-.93c.42-.38.82-.77,1.23-1.16s.77-.78,1.13-1.15a9.16,9.16,0,0,0,1.36-2,4.47,4.47,0,0,0,.54-2,2.13,2.13,0,0,0-.18-.88,1.46,1.46,0,0,0-.53-.62,1.66,1.66,0,0,0-.89-.23,1.6,1.6,0,0,0-1.15.37,1.14,1.14,0,0,0-.38.82,1.52,1.52,0,0,0,.52,1l.14.15s.06.08.06.11-.08.13-.25.23l-.6.35a.7.7,0,0,1-.36.1c-.16,0-.35-.16-.58-.47a1.69,1.69,0,0,1-.35-1.06,2,2,0,0,1,.37-1.15,2.52,2.52,0,0,1,1.11-.9,4.08,4.08,0,0,1,1.75-.35,3.77,3.77,0,0,1,2.52.74A2.36,2.36,0,0,1,884.49,979.42Z"/><path class="cls-2" d="M895.51,976.51l-3.12,10.12a4.06,4.06,0,0,0-.19.88c0,.2.09.31.29.31a.93.93,0,0,0,.61-.33,3.53,3.53,0,0,0,.65-.88h.84a4.48,4.48,0,0,1-.55.92,3.91,3.91,0,0,1-1,1,2.3,2.3,0,0,1-1.35.42c-1,0-1.52-.55-1.52-1.64v-.11s0-.08,0-.12a6.82,6.82,0,0,1-.84.88,4.29,4.29,0,0,1-1.11.71,3.06,3.06,0,0,1-1.24.28,1.77,1.77,0,0,1-1.45-.61,2.3,2.3,0,0,1-.5-1.52,5.46,5.46,0,0,1,.39-2,6.55,6.55,0,0,1,1.07-1.8,5.4,5.4,0,0,1,1.57-1.3,3.81,3.81,0,0,1,1.87-.49,2,2,0,0,1,1.11.26,2.87,2.87,0,0,1,.64.66l1-3.43a2.17,2.17,0,0,0,.19-.65.4.4,0,0,0-.15-.35.86.86,0,0,0-.38-.13l-.69,0,.21-.81,1.4,0c.34,0,.62,0,.84-.05l.75-.13Zm-4.29,6.67a1.45,1.45,0,0,0-.3-.94,1,1,0,0,0-.78-.37,2,2,0,0,0-1.46.77,5.9,5.9,0,0,0-1.12,1.85,5.29,5.29,0,0,0-.42,1.9,1.07,1.07,0,0,0,.29.85,1,1,0,0,0,.68.27,1.9,1.9,0,0,0,1.16-.43,4.27,4.27,0,0,0,1-1.12,5.73,5.73,0,0,0,.68-1.41A4.2,4.2,0,0,0,891.22,983.18Z"/><path class="cls-2" d="M903.81,979.42a4,4,0,0,1-.43,1.84,6.3,6.3,0,0,1-1.25,1.69,18.27,18.27,0,0,1-1.72,1.5c-.59.44-1.75,1.29-3.47,2.52h4.82l-.7,2.23h-.81a.61.61,0,0,0,.07-.28c0-.18-.14-.28-.43-.28h-4.83l.36-1.18c.44-.37.79-.68,1.05-.92l1-.93,1.22-1.16c.41-.39.78-.78,1.13-1.15a8.85,8.85,0,0,0,1.37-2,4.47,4.47,0,0,0,.54-2,2.13,2.13,0,0,0-.18-.88,1.42,1.42,0,0,0-.54-.62,1.6,1.6,0,0,0-.88-.23A1.63,1.63,0,0,0,899,978a1.17,1.17,0,0,0-.37.82,1.48,1.48,0,0,0,.52,1l.14.15s.06.08.06.11-.08.13-.25.23l-.6.35a.7.7,0,0,1-.36.1c-.16,0-.35-.16-.58-.47a1.69,1.69,0,0,1-.35-1.06,2,2,0,0,1,.37-1.15,2.52,2.52,0,0,1,1.11-.9,4.08,4.08,0,0,1,1.75-.35,3.77,3.77,0,0,1,2.52.74A2.39,2.39,0,0,1,903.81,979.42Z"/><path class="cls-2" d="M914.83,976.51l-3.12,10.12a4.06,4.06,0,0,0-.19.88c0,.2.09.31.29.31a1,1,0,0,0,.61-.33,3.51,3.51,0,0,0,.64-.88h.85a4.48,4.48,0,0,1-.55.92,3.91,3.91,0,0,1-1,1,2.3,2.3,0,0,1-1.35.42c-1,0-1.52-.55-1.52-1.64V987a6.1,6.1,0,0,1-.83.88,4.65,4.65,0,0,1-1.11.71,3.07,3.07,0,0,1-1.25.28,1.76,1.76,0,0,1-1.44-.61,2.3,2.3,0,0,1-.5-1.52,5.46,5.46,0,0,1,.39-2,6.55,6.55,0,0,1,1.07-1.8,5.4,5.4,0,0,1,1.57-1.3,3.81,3.81,0,0,1,1.87-.49,1.92,1.92,0,0,1,1.1.26,2.91,2.91,0,0,1,.65.66l1-3.43a2.17,2.17,0,0,0,.19-.65.4.4,0,0,0-.15-.35.86.86,0,0,0-.38-.13l-.69,0,.21-.81,1.4,0c.34,0,.62,0,.83-.05s.47-.07.75-.13Zm-4.29,6.67a1.45,1.45,0,0,0-.3-.94,1,1,0,0,0-.78-.37,2,2,0,0,0-1.46.77,5.9,5.9,0,0,0-1.12,1.85,5.12,5.12,0,0,0-.43,1.9,1.1,1.1,0,0,0,.29.85,1,1,0,0,0,.69.27,1.85,1.85,0,0,0,1.15-.43,4.48,4.48,0,0,0,1-1.12,6.11,6.11,0,0,0,.68-1.41A4.2,4.2,0,0,0,910.54,983.18Z"/><path class="cls-2" d="M856,1054.85h-2.77l-.72,3.42h-1.46l.72-3.42h-3.3l-.72,3.42h-1.46l.72-3.42h-1.58v-1.46h1.89l.59-2.86h-2.48v-1.46h2.79l.72-3.44h1.46l-.72,3.44H853l.72-3.44h1.46l-.72,3.44H856v1.46h-1.88l-.59,2.86H856Zm-3.33-4.32h-3.3l-.59,2.86h3.29Z"/><path class="cls-2" d="M865.36,1048a2,2,0,0,1-.69,1.47,6.69,6.69,0,0,1-1.48,1.1c-.52.28-1,.53-1.56.76a2.93,2.93,0,0,1,1.52.5,2.21,2.21,0,0,1,.69,1.91,3.83,3.83,0,0,1-.41,1.79,4.4,4.4,0,0,1-1.11,1.39,5.08,5.08,0,0,1-1.6.88,5.41,5.41,0,0,1-1.82.32,3.71,3.71,0,0,1-1.37-.25,2.25,2.25,0,0,1-.93-.65,1.27,1.27,0,0,1-.33-.82.93.93,0,0,1,.24-.65.79.79,0,0,1,.62-.26.84.84,0,0,1,.69.26,2,2,0,0,1,.37.69,2.43,2.43,0,0,0,.36.64.78.78,0,0,0,.65.26,1.58,1.58,0,0,0,1.16-.52,4.11,4.11,0,0,0,.87-1.3,8.25,8.25,0,0,0,.54-1.53,5.52,5.52,0,0,0,.19-1.17,1.44,1.44,0,0,0-.19-.64.61.61,0,0,0-.59-.35,1.75,1.75,0,0,0-.87.4l-.27.21a.39.39,0,0,1-.25.11.38.38,0,0,1-.22-.1.43.43,0,0,1,.07-.66,6.31,6.31,0,0,1,.77-.48,15.5,15.5,0,0,0,2.48-1.68,2.1,2.1,0,0,0,.74-1.6,1.22,1.22,0,0,0-.36-.84,1.24,1.24,0,0,0-1-.4,1.46,1.46,0,0,0-1,.39,1.34,1.34,0,0,0-.36,1.28.92.92,0,0,1,0,.22c0,.06-.15.2-.45.4a2.37,2.37,0,0,1-.53.32c-.08,0-.19-.13-.32-.38a1.65,1.65,0,0,1-.19-.77,2.06,2.06,0,0,1,.76-1.57,3.36,3.36,0,0,1,2.25-.67,3.49,3.49,0,0,1,2.12.57A1.71,1.71,0,0,1,865.36,1048Z"/><path class="cls-2" d="M873.42,1052.26a1.31,1.31,0,0,1-.32.89,1,1,0,0,1-.82.36.89.89,0,0,1-.61-.21.71.71,0,0,1-.23-.54,1.78,1.78,0,0,1,.07-.47,1.46,1.46,0,0,0,.08-.43.57.57,0,0,0-.28-.56,1.21,1.21,0,0,0-.54-.14,1.85,1.85,0,0,0-1.44.84,6.53,6.53,0,0,0-1.06,2,6.1,6.1,0,0,0-.39,1.87c0,.54.13.88.38,1a1.55,1.55,0,0,0,.79.22,2.58,2.58,0,0,0,1.44-.42,5.24,5.24,0,0,0,1.1-1h.95a6.3,6.3,0,0,1-1.75,1.69,4.38,4.38,0,0,1-2.52.76,2.7,2.7,0,0,1-1.89-.61,2.11,2.11,0,0,1-.66-1.64,5.19,5.19,0,0,1,.7-2.51,5.91,5.91,0,0,1,2-2.12,4.89,4.89,0,0,1,2.76-.83,2.86,2.86,0,0,1,1,.15,2.3,2.3,0,0,1,.72.41,1.69,1.69,0,0,1,.45.59A1.65,1.65,0,0,1,873.42,1052.26Z"/><path class="cls-2" d="M882.6,1048a2.06,2.06,0,0,1-.68,1.47,6.69,6.69,0,0,1-1.48,1.1c-.53.28-1.05.53-1.57.76a2.9,2.9,0,0,1,1.52.5,2.18,2.18,0,0,1,.7,1.91,4,4,0,0,1-.41,1.79,4.43,4.43,0,0,1-1.12,1.39,5.15,5.15,0,0,1-1.59.88,5.42,5.42,0,0,1-1.83.32,3.66,3.66,0,0,1-1.36-.25,2.22,2.22,0,0,1-.94-.65,1.27,1.27,0,0,1-.33-.82.93.93,0,0,1,.24-.65,1,1,0,0,1,1.31,0,2,2,0,0,1,.38.69,2,2,0,0,0,.36.64.76.76,0,0,0,.64.26,1.61,1.61,0,0,0,1.17-.52,4.48,4.48,0,0,0,.87-1.3A9,9,0,0,0,879,1054a4.94,4.94,0,0,0,.19-1.17,1.42,1.42,0,0,0-.18-.64.62.62,0,0,0-.59-.35,1.68,1.68,0,0,0-.87.4l-.28.21a.37.37,0,0,1-.24.11.33.33,0,0,1-.22-.1.42.42,0,0,1-.13-.33.44.44,0,0,1,.19-.33,8.56,8.56,0,0,1,.77-.48,15,15,0,0,0,2.48-1.68,2.1,2.1,0,0,0,.74-1.6,1.28,1.28,0,0,0-1.33-1.24,1.44,1.44,0,0,0-1,.39,1.28,1.28,0,0,0-.41,1,2,2,0,0,0,0,.32,1.16,1.16,0,0,1,.05.22c0,.06-.15.2-.46.4a2.15,2.15,0,0,1-.53.32c-.08,0-.18-.13-.31-.38a1.67,1.67,0,0,1-.2-.77,2,2,0,0,1,.77-1.57,3.35,3.35,0,0,1,2.24-.67,3.54,3.54,0,0,1,2.13.57A1.73,1.73,0,0,1,882.6,1048Z"/><path class="cls-2" d="M890.66,1052.26a1.31,1.31,0,0,1-.31.89,1,1,0,0,1-.82.36.85.85,0,0,1-.61-.21.68.68,0,0,1-.24-.54,2.33,2.33,0,0,1,.07-.47,1.2,1.2,0,0,0,.08-.43.59.59,0,0,0-.27-.56,1.28,1.28,0,0,0-.55-.14,1.88,1.88,0,0,0-1.44.84,6.75,6.75,0,0,0-1.06,2,6.1,6.1,0,0,0-.39,1.87c0,.54.13.88.38,1a1.55,1.55,0,0,0,.79.22,2.58,2.58,0,0,0,1.44-.42,5,5,0,0,0,1.1-1h.95a6.16,6.16,0,0,1-1.75,1.69,4.37,4.37,0,0,1-2.51.76,2.67,2.67,0,0,1-1.89-.61,2.08,2.08,0,0,1-.67-1.64,5.31,5.31,0,0,1,.7-2.51,5.85,5.85,0,0,1,2-2.12,4.89,4.89,0,0,1,2.76-.83,2.91,2.91,0,0,1,1,.15,2.36,2.36,0,0,1,.71.41,1.69,1.69,0,0,1,.45.59A1.65,1.65,0,0,1,890.66,1052.26Z"/><path class="cls-2" d="M899.84,1048a2,2,0,0,1-.68,1.47,6.69,6.69,0,0,1-1.48,1.1c-.52.28-1,.53-1.56.76a2.86,2.86,0,0,1,1.51.5,2.18,2.18,0,0,1,.7,1.91,3.83,3.83,0,0,1-.41,1.79,4.43,4.43,0,0,1-1.12,1.39,5.15,5.15,0,0,1-1.59.88,5.42,5.42,0,0,1-1.83.32,3.7,3.7,0,0,1-1.36-.25,2.25,2.25,0,0,1-.93-.65,1.27,1.27,0,0,1-.33-.82,1,1,0,0,1,.23-.65.83.83,0,0,1,.63-.26.84.84,0,0,1,.69.26,2,2,0,0,1,.37.69,2.43,2.43,0,0,0,.36.64.78.78,0,0,0,.64.26,1.58,1.58,0,0,0,1.17-.52,4.11,4.11,0,0,0,.87-1.3,8.25,8.25,0,0,0,.54-1.53,5.38,5.38,0,0,0,.18-1.17,1.42,1.42,0,0,0-.18-.64.61.61,0,0,0-.59-.35,1.68,1.68,0,0,0-.87.4l-.27.21a.41.41,0,0,1-.25.11.35.35,0,0,1-.22-.1.43.43,0,0,1,.07-.66,6.31,6.31,0,0,1,.77-.48,15.5,15.5,0,0,0,2.48-1.68,2.09,2.09,0,0,0,.73-1.6,1.21,1.21,0,0,0-.35-.84,1.24,1.24,0,0,0-1-.4,1.46,1.46,0,0,0-1,.39,1.28,1.28,0,0,0-.41,1,1.32,1.32,0,0,0,0,.32.92.92,0,0,1,0,.22c0,.06-.15.2-.45.4a2.37,2.37,0,0,1-.53.32c-.08,0-.19-.13-.32-.38a1.65,1.65,0,0,1-.19-.77,2,2,0,0,1,.76-1.57,3.35,3.35,0,0,1,2.24-.67,3.5,3.5,0,0,1,2.13.57A1.7,1.7,0,0,1,899.84,1048Z"/><path class="cls-2" d="M907.9,1052.26a1.31,1.31,0,0,1-.31.89,1,1,0,0,1-.82.36.87.87,0,0,1-.61-.21.68.68,0,0,1-.23-.54,1.78,1.78,0,0,1,.07-.47,1.46,1.46,0,0,0,.08-.43.59.59,0,0,0-.28-.56,1.27,1.27,0,0,0-.54-.14,1.85,1.85,0,0,0-1.44.84,6.53,6.53,0,0,0-1.06,2,6.1,6.1,0,0,0-.39,1.87c0,.54.13.88.38,1a1.52,1.52,0,0,0,.79.22,2.63,2.63,0,0,0,1.44-.42,5.24,5.24,0,0,0,1.1-1H907a6.3,6.3,0,0,1-1.75,1.69,4.38,4.38,0,0,1-2.52.76,2.7,2.7,0,0,1-1.89-.61,2.11,2.11,0,0,1-.66-1.64,5.19,5.19,0,0,1,.7-2.51,5.91,5.91,0,0,1,2-2.12,4.89,4.89,0,0,1,2.76-.83,2.86,2.86,0,0,1,1,.15,2.3,2.3,0,0,1,.72.41,1.55,1.55,0,0,1,.44.59A1.65,1.65,0,0,1,907.9,1052.26Z"/><path class="cls-2" d="M856,1152.07h-2.77l-.72,3.42h-1.46l.72-3.42h-3.3l-.72,3.42h-1.46l.72-3.42h-1.58v-1.46h1.89l.59-2.86h-2.48v-1.45h2.79l.72-3.45h1.46l-.72,3.45H853l.72-3.45h1.46l-.72,3.45H856v1.45h-1.88l-.59,2.86H856Zm-3.33-4.32h-3.3l-.59,2.86h3.29Z"/><path class="cls-2" d="M865.17,1144.26a.91.91,0,0,1-.25.65.82.82,0,0,1-.63.27.66.66,0,0,1-.56-.24,2.68,2.68,0,0,1-.35-.77,1.06,1.06,0,0,0-.16-.32.41.41,0,0,0-.3-.11.37.37,0,0,0-.34.19,2,2,0,0,0-.21.5l-1.06,3.47h1.47l-.25.81h-1.48l-1.53,5a29.2,29.2,0,0,1-1.1,3.07,5.55,5.55,0,0,1-1.38,1.92,3.2,3.2,0,0,1-2.25.81,2.35,2.35,0,0,1-1.5-.43,1.21,1.21,0,0,1-.54-1,1,1,0,0,1,.29-.71.94.94,0,0,1,.72-.3c.36,0,.6.09.71.28a1.85,1.85,0,0,1,.21.75c0,.39.2.59.51.59a.85.85,0,0,0,.74-.49,7.3,7.3,0,0,0,.59-1.53l2.45-8h-1.55l.25-.81h1.54l.17-.57a14.12,14.12,0,0,1,.76-2.08,4.53,4.53,0,0,1,1.22-1.59,3,3,0,0,1,2-.69,2.57,2.57,0,0,1,.87.15,1.63,1.63,0,0,1,.66.44A1.08,1.08,0,0,1,865.17,1144.26Z"/><path class="cls-2" d="M872.65,1144.26a.91.91,0,0,1-.25.65.8.8,0,0,1-.63.27.66.66,0,0,1-.56-.24,2.68,2.68,0,0,1-.35-.77,1.06,1.06,0,0,0-.16-.32.41.41,0,0,0-.3-.11.37.37,0,0,0-.34.19,2,2,0,0,0-.21.5l-1.06,3.47h1.47l-.25.81h-1.48l-1.53,5a29.2,29.2,0,0,1-1.1,3.07,5.3,5.3,0,0,1-1.38,1.92,3.2,3.2,0,0,1-2.25.81,2.35,2.35,0,0,1-1.5-.43,1.21,1.21,0,0,1-.54-1,1,1,0,0,1,.29-.71.94.94,0,0,1,.73-.3.75.75,0,0,1,.7.28,1.85,1.85,0,0,1,.21.75c0,.39.2.59.51.59a.85.85,0,0,0,.74-.49,7.3,7.3,0,0,0,.59-1.53l2.45-8H864.9l.25-.81h1.54l.17-.57a14.12,14.12,0,0,1,.76-2.08,4.53,4.53,0,0,1,1.22-1.59,3,3,0,0,1,2-.69,2.57,2.57,0,0,1,.87.15,1.63,1.63,0,0,1,.66.44A1.08,1.08,0,0,1,872.65,1144.26Z"/><path class="cls-2" d="M880.13,1144.26a.91.91,0,0,1-.25.65.8.8,0,0,1-.62.27.67.67,0,0,1-.57-.24,3,3,0,0,1-.35-.77.87.87,0,0,0-.16-.32.41.41,0,0,0-.3-.11.37.37,0,0,0-.34.19,2,2,0,0,0-.21.5l-1.06,3.47h1.47l-.25.81H876l-1.53,5a29.2,29.2,0,0,1-1.1,3.07,5.3,5.3,0,0,1-1.38,1.92,3.2,3.2,0,0,1-2.25.81,2.35,2.35,0,0,1-1.5-.43,1.19,1.19,0,0,1-.53-1,1,1,0,0,1,.28-.71.94.94,0,0,1,.73-.3.75.75,0,0,1,.7.28,1.85,1.85,0,0,1,.21.75c0,.39.21.59.51.59a.84.84,0,0,0,.74-.49,7.3,7.3,0,0,0,.59-1.53l2.45-8h-1.55l.25-.81h1.55l.16-.57a14.12,14.12,0,0,1,.76-2.08,4.53,4.53,0,0,1,1.22-1.59,3.05,3.05,0,0,1,2-.69,2.57,2.57,0,0,1,.87.15,1.63,1.63,0,0,1,.66.44A1.08,1.08,0,0,1,880.13,1144.26Z"/><path class="cls-2" d="M887.62,1144.26a1,1,0,0,1-.25.65.83.83,0,0,1-.63.27.67.67,0,0,1-.57-.24,3,3,0,0,1-.35-.77.87.87,0,0,0-.16-.32.38.38,0,0,0-.29-.11.38.38,0,0,0-.35.19,2,2,0,0,0-.21.5l-1.06,3.47h1.48l-.26.81h-1.48l-1.53,5a32.07,32.07,0,0,1-1.09,3.07,5.55,5.55,0,0,1-1.38,1.92,3.24,3.24,0,0,1-2.25.81,2.38,2.38,0,0,1-1.51-.43,1.22,1.22,0,0,1-.53-1,1,1,0,0,1,.28-.71,1,1,0,0,1,.73-.3c.36,0,.59.09.7.28a1.85,1.85,0,0,1,.21.75c0,.39.21.59.51.59a.84.84,0,0,0,.74-.49,7.3,7.3,0,0,0,.59-1.53l2.45-8h-1.55l.25-.81h1.55l.16-.57a14.12,14.12,0,0,1,.76-2.08,4.56,4.56,0,0,1,1.23-1.59,3,3,0,0,1,2-.69,2.49,2.49,0,0,1,.87.15,1.51,1.51,0,0,1,.66.44A1.09,1.09,0,0,1,887.62,1144.26Z"/><path class="cls-2" d="M895.1,1144.26a1,1,0,0,1-.25.65.83.83,0,0,1-.63.27.63.63,0,0,1-.56-.24,2.65,2.65,0,0,1-.36-.77.87.87,0,0,0-.16-.32.43.43,0,0,0-.64.08,2,2,0,0,0-.21.5l-1.06,3.47h1.48l-.26.81H891l-1.53,5a31.68,31.68,0,0,1-1.1,3.07,5.55,5.55,0,0,1-1.38,1.92,3.2,3.2,0,0,1-2.25.81,2.4,2.4,0,0,1-1.51-.43,1.22,1.22,0,0,1-.53-1,1,1,0,0,1,.28-.71,1,1,0,0,1,.73-.3c.36,0,.59.09.7.28a1.85,1.85,0,0,1,.21.75c0,.39.21.59.51.59a.84.84,0,0,0,.74-.49,7.3,7.3,0,0,0,.59-1.53l2.45-8h-1.54l.24-.81h1.55l.17-.57a14.16,14.16,0,0,1,.75-2.08,4.68,4.68,0,0,1,1.23-1.59,3,3,0,0,1,2-.69,2.49,2.49,0,0,1,.87.15,1.51,1.51,0,0,1,.66.44A1,1,0,0,1,895.1,1144.26Z"/><path class="cls-2" d="M902.58,1144.26a.91.91,0,0,1-.25.65.83.83,0,0,1-.63.27.63.63,0,0,1-.56-.24,2.43,2.43,0,0,1-.35-.77.88.88,0,0,0-.17-.32.37.37,0,0,0-.29-.11.39.39,0,0,0-.35.19,1.68,1.68,0,0,0-.2.5l-1.07,3.47h1.48l-.26.81h-1.47l-1.53,5a31.68,31.68,0,0,1-1.1,3.07,5.55,5.55,0,0,1-1.38,1.92,3.2,3.2,0,0,1-2.25.81,2.4,2.4,0,0,1-1.51-.43,1.22,1.22,0,0,1-.53-1,1,1,0,0,1,.28-.71,1,1,0,0,1,.73-.3c.36,0,.59.09.7.28a1.58,1.58,0,0,1,.21.75c0,.39.21.59.51.59a.84.84,0,0,0,.74-.49,6.78,6.78,0,0,0,.59-1.53l2.45-8h-1.54l.24-.81h1.55l.17-.57a15.42,15.42,0,0,1,.75-2.08,4.68,4.68,0,0,1,1.23-1.59,3,3,0,0,1,2-.69,2.49,2.49,0,0,1,.87.15,1.51,1.51,0,0,1,.66.44A1,1,0,0,1,902.58,1144.26Z"/><path class="cls-2" d="M856,1221.3h-2.77l-.72,3.42h-1.46l.72-3.42h-3.3l-.72,3.42h-1.46l.72-3.42h-1.58v-1.46h1.89l.59-2.86h-2.48v-1.45h2.79l.72-3.45h1.46l-.72,3.45H853l.72-3.45h1.46l-.72,3.45H856V1217h-1.88l-.59,2.86H856Zm-3.33-4.32h-3.3l-.59,2.86h3.29Z"/><path class="cls-2" d="M864.78,1213.49a1,1,0,0,1-.25.65.83.83,0,0,1-.63.27.67.67,0,0,1-.57-.24,3,3,0,0,1-.35-.77.87.87,0,0,0-.16-.32.38.38,0,0,0-.29-.11.38.38,0,0,0-.35.19,2,2,0,0,0-.21.5l-1.06,3.47h1.48l-.26.81h-1.48l-1.52,5c-.41,1.3-.78,2.32-1.1,3.07a5.55,5.55,0,0,1-1.38,1.92,3.24,3.24,0,0,1-2.25.81,2.32,2.32,0,0,1-1.51-.43,1.22,1.22,0,0,1-.53-1,1,1,0,0,1,.28-.71,1,1,0,0,1,.73-.3c.36,0,.59.09.7.28a1.85,1.85,0,0,1,.21.75c0,.4.21.59.51.59a.84.84,0,0,0,.74-.49,7.3,7.3,0,0,0,.59-1.53l2.45-8H857l.25-.81h1.55l.16-.56a13.85,13.85,0,0,1,.76-2.09,4.56,4.56,0,0,1,1.23-1.59,3,3,0,0,1,2-.69,2.49,2.49,0,0,1,.87.15,1.51,1.51,0,0,1,.66.44A1.09,1.09,0,0,1,864.78,1213.49Z"/><path class="cls-2" d="M870.74,1215.41a13.16,13.16,0,0,1-.32,2.5,16.18,16.18,0,0,1-1,3.06,7.67,7.67,0,0,1-1.76,2.58,3.57,3.57,0,0,1-2.55,1,2.11,2.11,0,0,1-2.06-1,4.51,4.51,0,0,1-.5-2.06,13.14,13.14,0,0,1,.49-3.1,13.9,13.9,0,0,1,1.47-3.6,6.11,6.11,0,0,1,.83-1.1,4.34,4.34,0,0,1,1.21-.9,3.7,3.7,0,0,1,1.65-.36,2.44,2.44,0,0,1,1.34.33,2.23,2.23,0,0,1,.77.85,2.92,2.92,0,0,1,.33,1A5.91,5.91,0,0,1,870.74,1215.41Zm-1.65-1.2a1,1,0,0,0-.23-.69.79.79,0,0,0-.65-.29,1.32,1.32,0,0,0-1,.49,3.33,3.33,0,0,0-.61.9,24.8,24.8,0,0,0-1,2.66c-.39,1.19-.73,2.32-1,3.38a10.12,10.12,0,0,0-.43,2.08,1.84,1.84,0,0,0,.19.72.76.76,0,0,0,.79.4q1,0,1.62-1.56c.15-.39.37-1,.66-1.87s.54-1.72.8-2.57.47-1.62.64-2.3A7,7,0,0,0,869.09,1214.21Z"/><path class="cls-2" d="M879,1218.33a1.94,1.94,0,0,1-.22.83,3.4,3.4,0,0,1-.8,1,5.28,5.28,0,0,1-1.67.93,10.8,10.8,0,0,1-2.73.56h-.21a3.14,3.14,0,0,0-.07.65,1.21,1.21,0,0,0,.31.94,1.29,1.29,0,0,0,.91.28,3.35,3.35,0,0,0,2.52-1.42H878a6.43,6.43,0,0,1-1.65,1.65,4.29,4.29,0,0,1-2.63.82,2.94,2.94,0,0,1-1.81-.57,1.94,1.94,0,0,1-.75-1.66,5.1,5.1,0,0,1,.75-2.62,6,6,0,0,1,2-2.06,5.27,5.27,0,0,1,2.81-.8,2.83,2.83,0,0,1,1.75.42A1.28,1.28,0,0,1,879,1218.33Zm-1.85,0a.77.77,0,0,0-.21-.53.66.66,0,0,0-.55-.25,1.75,1.75,0,0,0-1.13.43,4,4,0,0,0-.87,1,7.41,7.41,0,0,0-.57,1.17c-.15.4-.24.65-.28.74a6,6,0,0,0,2.7-1A2,2,0,0,0,877.13,1218.3Z"/><path class="cls-2" d="M889,1213.88a.73.73,0,0,1-.18.52.61.61,0,0,1-.51.21.77.77,0,0,1-.42-.13,2,2,0,0,1-.44-.49,3,3,0,0,0-.48-.61.75.75,0,0,0-.47-.13,1.67,1.67,0,0,0-1.24.79,13.27,13.27,0,0,0-1.48,2.69,3.49,3.49,0,0,1,1.32-.31,2.25,2.25,0,0,1,1,.21,2.12,2.12,0,0,1,.76.57,2.78,2.78,0,0,1,.49.88,3.48,3.48,0,0,1,.17,1.1,6.14,6.14,0,0,1-.29,1.8,6,6,0,0,1-.89,1.76,4.52,4.52,0,0,1-1.47,1.35,4,4,0,0,1-2,.51,2.46,2.46,0,0,1-1.49-.43,2.39,2.39,0,0,1-.81-1.08,3.66,3.66,0,0,1-.25-1.34,10.77,10.77,0,0,1,.38-2.34,14,14,0,0,1,1.22-3.17,9,9,0,0,1,2-2.66,4.49,4.49,0,0,1,3.12-1.08,2.1,2.1,0,0,1,1.58.46A1.43,1.43,0,0,1,889,1213.88Zm-3.24,4.23a1.07,1.07,0,0,0-.24-.66.92.92,0,0,0-.78-.32,1.28,1.28,0,0,0-1,.49,5.16,5.16,0,0,0-.8,1.45,12.3,12.3,0,0,0-1,3.64,1.23,1.23,0,0,0,.26.83.89.89,0,0,0,.72.3,1.18,1.18,0,0,0,.89-.34,2,2,0,0,0,.44-.58c.11-.22.29-.67.55-1.34s.49-1.35.71-2A6,6,0,0,0,885.75,1218.11Z"/><path class="cls-2" d="M896.43,1218.33a2.1,2.1,0,0,1-.22.83,3.29,3.29,0,0,1-.81,1,5.17,5.17,0,0,1-1.67.93,10.62,10.62,0,0,1-2.73.56h-.21a4,4,0,0,0-.07.65,1.25,1.25,0,0,0,.31.94,1.31,1.31,0,0,0,.91.28,3.38,3.38,0,0,0,2.53-1.42h.93a6.77,6.77,0,0,1-1.65,1.65,4.29,4.29,0,0,1-2.63.82,2.9,2.9,0,0,1-1.81-.57,1.94,1.94,0,0,1-.75-1.66,5.1,5.1,0,0,1,.75-2.62,5.83,5.83,0,0,1,2-2.06,5.24,5.24,0,0,1,2.81-.8,2.81,2.81,0,0,1,1.74.42A1.27,1.27,0,0,1,896.43,1218.33Zm-1.86,0a.81.81,0,0,0-.2-.53.67.67,0,0,0-.55-.25,1.75,1.75,0,0,0-1.13.43,3.67,3.67,0,0,0-.87,1,7.48,7.48,0,0,0-.58,1.17c-.14.4-.24.65-.27.74a5.92,5.92,0,0,0,2.69-1A2,2,0,0,0,894.57,1218.3Z"/><path class="cls-2" d="M906.44,1213.88a.73.73,0,0,1-.18.52.64.64,0,0,1-.51.21.75.75,0,0,1-.42-.13,1.83,1.83,0,0,1-.44-.49,3,3,0,0,0-.48-.61.81.81,0,0,0-.48-.13,1.68,1.68,0,0,0-1.24.79,13.34,13.34,0,0,0-1.47,2.69,3.49,3.49,0,0,1,1.31-.31,2.19,2.19,0,0,1,1,.21,2.15,2.15,0,0,1,.77.57,2.58,2.58,0,0,1,.48.88,3.21,3.21,0,0,1,.17,1.1,5.83,5.83,0,0,1-.29,1.8,5.93,5.93,0,0,1-.88,1.76,4.55,4.55,0,0,1-1.48,1.35,3.93,3.93,0,0,1-2,.51,2.44,2.44,0,0,1-1.49-.43,2.39,2.39,0,0,1-.81-1.08,3.66,3.66,0,0,1-.25-1.34,10.63,10.63,0,0,1,.37-2.34,14.52,14.52,0,0,1,1.23-3.17,9.19,9.19,0,0,1,2-2.66,4.49,4.49,0,0,1,3.12-1.08,2.07,2.07,0,0,1,1.58.46A1.4,1.4,0,0,1,906.44,1213.88Zm-3.25,4.23a1.13,1.13,0,0,0-.23-.66.93.93,0,0,0-.79-.32,1.31,1.31,0,0,0-1,.49,5.17,5.17,0,0,0-.79,1.45,12,12,0,0,0-1,3.64,1.23,1.23,0,0,0,.25.83.89.89,0,0,0,.72.3,1.18,1.18,0,0,0,.9-.34,2,2,0,0,0,.43-.58c.11-.22.3-.67.56-1.34s.49-1.35.7-2A5.53,5.53,0,0,0,903.19,1218.11Z"/><path class="cls-5" d="M921.26,218.54V223c0,2.22-1,3.87-3.19,3.87a2.87,2.87,0,0,1-2.81-2.19h0a3.06,3.06,0,0,1-3.17,2.75c-2.28,0-3.54-2-3.54-4.48v-4.38ZM910,220.27v2.54c0,1,.36,2.75,2.16,2.75,1.51,0,2.27-1.06,2.27-2.73v-2.56Zm5.94,0v2.36c0,1.31.52,2.38,1.91,2.38a1.81,1.81,0,0,0,1.87-2v-2.72Z"/><path class="cls-5" d="M917,229.47v1.62h-1.31v0a2.9,2.9,0,0,1,1.53,2.56,2.36,2.36,0,0,1-.11.72l-1.75-.07a2.83,2.83,0,0,0,.13-.79c0-1.59-.86-2.45-2.74-2.45h-4.28v-1.62Z"/><path class="cls-5" d="M916,236.16a5.07,5.07,0,0,1,1.26,3.39c0,2.52-1.37,3.56-2.85,3.56h-4.35a11.82,11.82,0,0,0-1.55.08v-1.45c.43,0,.86-.05,1.29-.05v0a3.27,3.27,0,0,1-1.51-3c0-1.59.9-3,2.56-3,2.19,0,2.95,2.11,2.95,4.7v1.19h.36a1.84,1.84,0,0,0,1.8-2,3.52,3.52,0,0,0-1-2.43Zm-3.39,4.58c0-1.53-.27-3.41-1.64-3.41-1,0-1.38.72-1.38,1.84a2.3,2.3,0,0,0,2.48,2.43h.54Z"/><path class="cls-5" d="M917,245.47v1.62h-1.31v0a3,3,0,0,1,1.53,2.81A2.94,2.94,0,0,1,914,253h-5.49v-1.62h5c1.6,0,2.2-.92,2.2-1.94,0-1.35-.87-2.38-2.85-2.38h-4.39v-1.62Z"/><path class="cls-5" d="M908.51,264v-1.62h1.22v0a3.63,3.63,0,0,1-1.44-3,4.49,4.49,0,0,1,9,0,3.56,3.56,0,0,1-1.44,3v0h6.3V264Zm4.27-1.62a2.81,2.81,0,1,0-3-2.81A2.74,2.74,0,0,0,912.78,262.41Z"/><path class="cls-5" d="M917,266.6v1.62h-8.53V266.6Zm4.25.81a1.19,1.19,0,1,1-1.19-1.19A1.2,1.2,0,0,1,921.29,267.41Z"/><path class="cls-5" d="M917,270.8v1.62h-1.31v0a3,3,0,0,1,1.53,2.81,3,3,0,0,1-3.26,3.1h-5.49v-1.62h5c1.6,0,2.2-.92,2.2-1.95,0-1.35-.87-2.37-2.85-2.37h-4.39V270.8Z"/><path class="cls-5" d="M908.58,289.36a4.32,4.32,0,0,1-4.39-4.67,5.72,5.72,0,0,1,1.53-4.17l1.37,1.09a4,4,0,0,0-1.39,3.05c0,2.41,1.51,3.08,2.95,3.08h1.26v-.06a3.37,3.37,0,0,1-1.51-2.95,4.43,4.43,0,0,1,8.86,0,3.64,3.64,0,0,1-1.44,3v0H917v1.62Zm4.2-7.24a2.81,2.81,0,1,0,0,5.62,2.81,2.81,0,1,0,0-5.62Z"/><g id="Logo"><path class="cls-5" d="M255.75,607a73.84,73.84,0,1,1,73.83,73.83A73.83,73.83,0,0,1,255.75,607m2.53,0a71.32,71.32,0,1,0,20.89-50.42A71.07,71.07,0,0,0,258.28,607"/><path class="cls-5" d="M276,607.12a53.71,53.71,0,1,1,53.71,53.71A53.71,53.71,0,0,1,276,607.12m2,0a51.67,51.67,0,1,0,15.14-36.55A51.54,51.54,0,0,0,278,607.12"/><path class="cls-5" d="M276.19,630.66a6.14,6.14,0,0,1-7.89,3,5.82,5.82,0,0,1,.3-10.77,5.83,5.83,0,0,1,4.53,0,5.6,5.6,0,0,1,3.08,3.32,5.69,5.69,0,0,1,0,4.42m-7.4,1.14a10.77,10.77,0,0,0,3-.77,8,8,0,0,0,3.4-2.14,2.37,2.37,0,0,0,.48-2.45c-.45-1.16-1.44-1.69-3-1.59a10.81,10.81,0,0,0-3,.76,11,11,0,0,0-2.75,1.45c-1.19,1-1.57,2-1.13,3.16s1.43,1.67,3,1.58"/><path class="cls-5" d="M268.85,636.87a2.51,2.51,0,0,0,.67.76,1,1,0,0,0,1.06-.08l6.87-4a1,1,0,0,0,.6-.86,2.55,2.55,0,0,0-.33-1l.36-.21,4.65,8.05-2.87,1.65-.19-.34a3.69,3.69,0,0,0,1.34-2,4.24,4.24,0,0,0-.8-2.61c-.24-.41-.44-.65-.6-.71a.8.8,0,0,0-.63.13l-3.28,1.9c.43.77.89,1.2,1.38,1.28a4.36,4.36,0,0,0,2-.32l.21.36-4.8,2.77-.21-.36a3.72,3.72,0,0,0,1.34-1.55,2.23,2.23,0,0,0-.39-1.89l-3.3,1.91c-.44.25-.64.54-.61.86a3.26,3.26,0,0,0,.51,1.27l-.36.21-2.94-5.11Z"/><path class="cls-5" d="M279.91,647.74l.32.35a5.07,5.07,0,0,0-1.14,2.73,2.76,2.76,0,0,0,.72,2,1.77,1.77,0,0,0,2.67.31,1.6,1.6,0,0,0,.57-1.16,5.91,5.91,0,0,0-.27-1.49l-.31-1.13a7,7,0,0,1-.32-2.67,2.88,2.88,0,0,1,1-1.74,3.43,3.43,0,0,1,2.23-.87,3.12,3.12,0,0,1,2.51,1.23,5.4,5.4,0,0,1,.95,1.46,6.12,6.12,0,0,0,.43.88c.12.14.24.2.36.17a1.13,1.13,0,0,0,.42-.15l.32.36-2.65,2.39-.3-.34a4.94,4.94,0,0,0,.83-2.26,2.57,2.57,0,0,0-.65-2.07,1.77,1.77,0,0,0-1.2-.65,1.5,1.5,0,0,0-1.13.38,1.45,1.45,0,0,0-.57,1.11,10.64,10.64,0,0,0,.46,2.22l.35,1.31a4.74,4.74,0,0,1,.19,1.56,3.14,3.14,0,0,1-1.08,2.18,3.54,3.54,0,0,1-2.38.85,3.91,3.91,0,0,1-2.88-1.56,6,6,0,0,1-.6-.8,7.13,7.13,0,0,1-.45-.92l-.12-.32c0-.07-.07-.13-.1-.19a.56.56,0,0,0-.1-.14.38.38,0,0,0-.35-.16,1.36,1.36,0,0,0-.41.16l-.32-.35Z"/><path class="cls-5" d="M283,656.61a1.22,1.22,0,0,0,1.08.16,7.06,7.06,0,0,0,1.37-.67l8.39-4.83.36.28-2.42,9a11.17,11.17,0,0,0-.42,2,1,1,0,0,0,.43.84l-.26.33-4.17-3.26.25-.33a3.86,3.86,0,0,0,.91.54c.18,0,.35,0,.52-.26a1.93,1.93,0,0,0,.26-.54c.06-.15.11-.34.18-.57l.28-1-2.9-2.27-1.15.72a3.64,3.64,0,0,0-.74.59.58.58,0,0,0,.06.7,3.72,3.72,0,0,0,.6.59l-.25.33-2.64-2.07Zm7,1.07,1.1-4-.11-.09-3.51,2.08Z"/><path class="cls-5" d="M292.53,664.05a1.56,1.56,0,0,0,1.2.24,1.42,1.42,0,0,0,.69-.72l3.64-6.85a12.9,12.9,0,0,0-.36-1.3.88.88,0,0,0-.33-.4l.19-.37,3.07,1.64,1.76,8.68.07,0,2.26-4.25a1.8,1.8,0,0,0,.28-1.19,1.66,1.66,0,0,0-.86-.94l.19-.37,3.11,1.65-.19.37a2.23,2.23,0,0,0-1.07-.18c-.22,0-.45.28-.68.73L301,669.35l-.41-.21L298.31,658l-.1-.06-3,5.68a2.13,2.13,0,0,0-.32,1c0,.4.35.77.94,1.11l-.2.37-3.28-1.74Z"/><path class="cls-5" d="M310.13,672.17a2.34,2.34,0,0,0,1,0,1,1,0,0,0,.64-.84l1.65-7.76a1,1,0,0,0-.23-1,2.7,2.7,0,0,0-.95-.41l.08-.4,9.1,1.93-.7,3.23-.39-.08a3.69,3.69,0,0,0-.55-2.31,4.26,4.26,0,0,0-2.48-1.15,1.59,1.59,0,0,0-.92,0,.76.76,0,0,0-.32.56l-.79,3.71a2.14,2.14,0,0,0,1.87-.18,4.19,4.19,0,0,0,1.08-1.68l.41.09-1.15,5.42-.41-.09a3.92,3.92,0,0,0-.25-2,2.34,2.34,0,0,0-1.67-1l-.8,3.73c-.09.5,0,.84.24,1a3.25,3.25,0,0,0,1.29.46l-.09.41L310,672.58Z"/><path class="cls-5" d="M322.2,674.44a1.92,1.92,0,0,0,1.15-.3,1.65,1.65,0,0,0,.32-1.17l.13-7.25a1.63,1.63,0,0,0-.34-1.24,2.23,2.23,0,0,0-1.08-.28v-.42l5.27.09a8.53,8.53,0,0,1,2.65.39,2.54,2.54,0,0,1,1.93,2.54,2.49,2.49,0,0,1-1.07,2.09,4,4,0,0,1-1.68.7l3.4,4.73a.7.7,0,0,0,.28.25,1.18,1.18,0,0,0,.38.09v.39l-3.42-.06-3.73-5.19h0l-.05,3.21a1.19,1.19,0,0,0,1.41,1.52V675l-5.54-.1Zm6.5-5.58c.46-.28.71-.93.73-2a3.69,3.69,0,0,0-.24-1.51,1.69,1.69,0,0,0-1.64-1,1.47,1.47,0,0,0-.87.15.68.68,0,0,0-.22.54l-.06,4.16a4.57,4.57,0,0,0,2.3-.41"/><path class="cls-5" d="M334.67,674.58a1.23,1.23,0,0,0,.86-.68,8.12,8.12,0,0,0,.44-1.46l2.19-9.43.45-.07,5,7.93a11.9,11.9,0,0,0,1.2,1.7,1,1,0,0,0,.92.27l.06.41-5.24.83-.06-.42a3.62,3.62,0,0,0,1-.29c.16-.1.21-.28.17-.56a1.89,1.89,0,0,0-.22-.56c-.07-.14-.18-.32-.3-.52l-.57-.92-3.63.58c-.13.68-.22,1.12-.26,1.33a3.51,3.51,0,0,0-.07.94c0,.23.22.37.55.43a3.21,3.21,0,0,0,.85,0l.06.41-3.31.52Zm5.54-4.37-2.15-3.5-.14,0-.86,4Z"/><path class="cls-5" d="M346.91,672.52c.57-.22.9-.45,1-.72a1.51,1.51,0,0,0-.06-1l-2.53-7.33c-.65-.37-1.06-.58-1.2-.64a1,1,0,0,0-.52,0l-.13-.39,3.28-1.13,7.56,4.64.07,0-1.56-4.55a1.85,1.85,0,0,0-.68-1,1.74,1.74,0,0,0-1.28,0l-.13-.39,3.32-1.14.14.39a2.54,2.54,0,0,0-.87.66,1.3,1.3,0,0,0,.07,1l3.15,9.13-.43.15-9.67-5.94-.11,0,2.09,6.08a2.14,2.14,0,0,0,.55.94,1.59,1.59,0,0,0,1.45.08l.13.39-3.5,1.21Z"/><path class="cls-5" d="M361,654.85a10,10,0,0,0,1.2-.26.56.56,0,0,0,.31-.46,1.12,1.12,0,0,0,0-.55l.39-.23,1.92,3.32-.36.21a8.62,8.62,0,0,0-2-1.1,3.38,3.38,0,0,0-2.92.15,2.39,2.39,0,0,0-1.31,2.4,10.87,10.87,0,0,0,3.1,5.95,2.83,2.83,0,0,0,3.51.43,4.19,4.19,0,0,0,1.68-1.78,8.94,8.94,0,0,0,.63-1.87l.61.11a9.1,9.1,0,0,1-.68,2.18,5.12,5.12,0,0,1-2.06,2.19,6,6,0,0,1-4.25.78,5.42,5.42,0,0,1-3.71-2.81,5.7,5.7,0,0,1-.66-4.61,5.55,5.55,0,0,1,2.68-3.34,5.69,5.69,0,0,1,2-.71"/><path class="cls-5" d="M370.85,660.52a2.65,2.65,0,0,0,.66-.77,1,1,0,0,0-.25-1.08l-5.1-6.08a1,1,0,0,0-1-.44,2.76,2.76,0,0,0-.9.52l-.27-.32,4.39-3.68.27.32a3.19,3.19,0,0,0-.7.81,1,1,0,0,0,.26,1.06l5.1,6.08a1,1,0,0,0,.89.46,2.41,2.41,0,0,0,1-.56l.27.31-4.39,3.69Z"/><path class="cls-5" d="M374.78,652.59l.31-.36a5,5,0,0,0,2.85.8,2.77,2.77,0,0,0,1.93-1,1.85,1.85,0,0,0,.59-1.55,1.92,1.92,0,0,0-.6-1.14,1.59,1.59,0,0,0-1.22-.42,6.17,6.17,0,0,0-1.45.45l-1.08.44a7.06,7.06,0,0,1-2.61.64,2.91,2.91,0,0,1-1.86-.76,3.5,3.5,0,0,1-1.13-2.11,3.13,3.13,0,0,1,.91-2.64,5.46,5.46,0,0,1,1.33-1.12,5.58,5.58,0,0,0,.83-.54.38.38,0,0,0,.12-.38,1.3,1.3,0,0,0-.19-.4l.31-.36,2.7,2.34-.3.34a5.09,5.09,0,0,0-2.35-.55,2.57,2.57,0,0,0-2,.9,1.77,1.77,0,0,0-.5,1.27,1.63,1.63,0,0,0,1.68,1.51,10.5,10.5,0,0,0,2.15-.72l1.26-.51a4.8,4.8,0,0,1,1.52-.39,3.18,3.18,0,0,1,2.3.81,3.53,3.53,0,0,1,1.13,2.26,3.92,3.92,0,0,1-1.2,3,4.66,4.66,0,0,1-.72.68,5.48,5.48,0,0,1-.85.57l-.31.15-.17.13a.77.77,0,0,0-.13.12.39.39,0,0,0-.12.36,2.25,2.25,0,0,0,.21.4l-.31.35Z"/><path class="cls-5" d="M379.1,634.87a11.56,11.56,0,0,0,.91-.82.65.65,0,0,0,.05-.56,1.1,1.1,0,0,0-.33-.45l.24-.4,3.31,1.91-.2.37a8.53,8.53,0,0,0-2.31.06,3.41,3.41,0,0,0-2.46,1.59,2.39,2.39,0,0,0,.07,2.73,10.55,10.55,0,0,0,5.67,3.6,2.81,2.81,0,0,0,3.25-1.37,4.3,4.3,0,0,0,.57-2.39,10.05,10.05,0,0,0-.4-1.93l.59-.22a9.06,9.06,0,0,1,.5,2.24,5.11,5.11,0,0,1-.7,2.92,5.89,5.89,0,0,1-3.27,2.8,5.42,5.42,0,0,1-4.63-.57,5.71,5.71,0,0,1-2.88-3.67,5.64,5.64,0,0,1,.65-4.24,6,6,0,0,1,1.37-1.6"/><path class="cls-5" d="M385.39,623.19a5.59,5.59,0,0,1,4.54-.14A5.82,5.82,0,1,1,386,634a5.8,5.8,0,0,1-3.42-3,5.54,5.54,0,0,1-.14-4.52,5.61,5.61,0,0,1,2.91-3.33m6.33,4a10.66,10.66,0,0,0-2.78-1.41,7.94,7.94,0,0,0-4-.61,2.4,2.4,0,0,0-2,1.53c-.42,1.17,0,2.22,1.22,3.16a10.84,10.84,0,0,0,2.74,1.38,10.59,10.59,0,0,0,3,.71c1.53.07,2.5-.47,2.93-1.64a2.62,2.62,0,0,0-1.19-3.12"/><path class="cls-5" d="M274.73,567.11a7.17,7.17,0,0,0,.95-.79.63.63,0,0,0,.07-.55,1.43,1.43,0,0,0-.31-.47l.24-.38,3.25,2-.22.35a9.44,9.44,0,0,0-2.31,0,3.34,3.34,0,0,0-2.5,1.51,2.38,2.38,0,0,0,0,2.73,8.9,8.9,0,0,0,2.86,2.61,8.77,8.77,0,0,0,2.68,1.19,2.82,2.82,0,0,0,3.3-1.27,4.22,4.22,0,0,0,.65-2.36,8.68,8.68,0,0,0-.33-1.94l.6-.2a9.41,9.41,0,0,1,.42,2.25,5,5,0,0,1-.8,2.9,5.94,5.94,0,0,1-3.38,2.68,5.41,5.41,0,0,1-4.6-.73,5.76,5.76,0,0,1-2.75-3.77,5.57,5.57,0,0,1,.81-4.21,6.28,6.28,0,0,1,1.41-1.56"/><path class="cls-5" d="M285.94,569.85a2.32,2.32,0,0,0,.56-.85,1,1,0,0,0-.38-1l-5.81-5.42a1,1,0,0,0-1-.31,2.63,2.63,0,0,0-.84.62l-.3-.28,3.9-4.19.3.28a3,3,0,0,0-.58.9,1,1,0,0,0,.38,1L288,566a1,1,0,0,0,.93.34,2.28,2.28,0,0,0,1-.68l.3.28-3.91,4.19Z"/><path class="cls-5" d="M283.72,556.89l7.78-6.07,2.05,2.59-.37.3a3,3,0,0,0-2.53-1.08,3.94,3.94,0,0,0-1.67.84l5.31,6.8c.36.47.7.73,1,.75a2,2,0,0,0,1.22-.58l.26.33-4.61,3.6-.25-.33a1.94,1.94,0,0,0,.82-1,1.63,1.63,0,0,0-.49-1.14l-5.31-6.8a4.18,4.18,0,0,0-1.22,1.43,2.8,2.8,0,0,0,.43,2.71l-.37.29Z"/><path class="cls-5" d="M297.59,547.44l.19.37a5.72,5.72,0,0,0-.91.61.32.32,0,0,0-.06.41,1.3,1.3,0,0,0,.15.2l.4.33,3.71,2.52h0l.25-3.36a5.65,5.65,0,0,0,0-.74,2.45,2.45,0,0,0-.14-.9.56.56,0,0,0-.57-.35,3.81,3.81,0,0,0-1,.33l-.19-.37,3.21-1.64.19.37a2.68,2.68,0,0,0-.48.44,1.24,1.24,0,0,0-.24.63l-.47,6,1.37,2.68c.28.56.56.87.83.93a2.05,2.05,0,0,0,1.2-.28l.18.37-5,2.58-.2-.37a1.87,1.87,0,0,0,.94-.83,1.64,1.64,0,0,0-.27-1.19L299.61,554l-5.13-3.48a1.78,1.78,0,0,0-1-.35,1.6,1.6,0,0,0-.59.14l-.19-.37Z"/><path class="cls-5" d="M318.6,540.54a10.45,10.45,0,0,0,1.23.13.66.66,0,0,0,.44-.34,1.18,1.18,0,0,0,.12-.54l.44-.1.81,3.75-.42.09a8.59,8.59,0,0,0-1.58-1.67,3.37,3.37,0,0,0-2.83-.76,2.39,2.39,0,0,0-2,1.87,8.88,8.88,0,0,0,.12,3.87,8.64,8.64,0,0,0,1,2.75,2.84,2.84,0,0,0,3.2,1.5,4.2,4.2,0,0,0,2.15-1.18,8.83,8.83,0,0,0,1.17-1.58l.56.29a8.92,8.92,0,0,1-1.33,1.87,5.08,5.08,0,0,1-2.64,1.43,6,6,0,0,1-4.28-.56,5.42,5.42,0,0,1-2.66-3.82,5.67,5.67,0,0,1,.8-4.59,5.57,5.57,0,0,1,3.59-2.35,5.88,5.88,0,0,1,2.1-.06"/><path class="cls-5" d="M333.59,540.76a5.67,5.67,0,0,1,1.76,4.2,5.63,5.63,0,0,1-5.71,5.92,5.63,5.63,0,0,1-5.92-5.63,5.76,5.76,0,0,1,1.55-4.26,5.58,5.58,0,0,1,4.17-1.75,5.69,5.69,0,0,1,4.15,1.52m-1.46,7.34a11.09,11.09,0,0,0,.32-3.09,8,8,0,0,0-.86-3.93,2.37,2.37,0,0,0-2.15-1.29c-1.23,0-2.07.77-2.5,2.26a10.62,10.62,0,0,0-.31,3.06,10.48,10.48,0,0,0,.42,3.08,2.62,2.62,0,0,0,2.59,2.14c1.22,0,2.05-.76,2.49-2.23"/><path class="cls-5" d="M335.8,550.28a2.4,2.4,0,0,0,1,0,1,1,0,0,0,.67-.87l1.51-7.79a1,1,0,0,0-.27-1,2.65,2.65,0,0,0-.93-.38l.08-.41,5.62,1.1-.08.41a2.52,2.52,0,0,0-1.35,0c-.25.12-.44.5-.56,1.14l-1.48,7.6a.79.79,0,0,0,.14.76,2.27,2.27,0,0,0,1.06.38,4.44,4.44,0,0,0,2.56-.16,5.1,5.1,0,0,0,2.18-2.16l.47.09L345,552.5l-9.31-1.82Z"/><path class="cls-5" d="M346.61,552.49a2.5,2.5,0,0,0,1,.2,1,1,0,0,0,.81-.72l3-7.36a1,1,0,0,0-.07-1.07,2.57,2.57,0,0,0-.85-.54l.16-.39,5.31,2.14-.15.39a2.58,2.58,0,0,0-1.34-.24c-.26.07-.52.41-.77,1l-2.9,7.19a.79.79,0,0,0,0,.77,2.36,2.36,0,0,0,1,.58,4.39,4.39,0,0,0,2.55.32,5.06,5.06,0,0,0,2.55-1.7l.45.18-2,3.19-8.79-3.55Z"/><path class="cls-5" d="M356.49,557.07l.23-.34a2.56,2.56,0,0,0,.94.38,1,1,0,0,0,.9-.56l4.33-6.66a1,1,0,0,0,.12-1.06,2.79,2.79,0,0,0-.72-.7l.23-.34,7.92,5.14-1.8,2.77-.34-.22a3.6,3.6,0,0,0,.3-2.4,4.81,4.81,0,0,0-2-2,1.91,1.91,0,0,0-.89-.39c-.17,0-.34.15-.51.41l-2.06,3.18a2.54,2.54,0,0,0,1.86.61,3.94,3.94,0,0,0,1.69-1.19l.34.22-3,4.64-.35-.22a3.55,3.55,0,0,0,.47-2,2.57,2.57,0,0,0-1.31-1.54l-2.17,3.33a.78.78,0,0,0-.15.73,2,2,0,0,0,.81.76,4.87,4.87,0,0,0,2.48.89,5,5,0,0,0,2.72-1l.38.25-2.41,2.5Z"/><path class="cls-5" d="M373.69,557.43a5.78,5.78,0,0,1,5.2,3.61,5.24,5.24,0,0,0,.58,1.18.51.51,0,0,0,.42.18,1.34,1.34,0,0,0,.59-.19l.31.34-2.8,2.61-.28-.3a8.47,8.47,0,0,0,.61-2.23,3.35,3.35,0,0,0-.81-2.81,2.4,2.4,0,0,0-2.57-.75,8.3,8.3,0,0,0-3.34,2.1,9.65,9.65,0,0,0-2.21,3,2.57,2.57,0,0,0,.61,3,1.81,1.81,0,0,0,1.28.74,1.23,1.23,0,0,0,.7-.37l1.26-1.18a1,1,0,0,0,.4-1,3.22,3.22,0,0,0-.7-1l.31-.29,3.83,4.11-.31.29a1.55,1.55,0,0,0-1-.59,1.78,1.78,0,0,0-1,.58l-1.52,1.43a7.45,7.45,0,0,1-1.69-.83,10.12,10.12,0,0,1-2.1-1.76,5.86,5.86,0,0,1,4.28-9.88"/><path class="cls-5" d="M374.44,571.81l.35-.22a2.17,2.17,0,0,0,.69.74,1,1,0,0,0,1.06-.12l6.73-4.2a1,1,0,0,0,.56-.91,2.45,2.45,0,0,0-.35-.94l.35-.22,5,8L386,575.7l-.21-.34a3.53,3.53,0,0,0,1.27-2.05,4.59,4.59,0,0,0-.95-2.62,1.72,1.72,0,0,0-.63-.72.74.74,0,0,0-.64.15l-3.21,2c.48.8,1,1.24,1.43,1.34a4,4,0,0,0,2-.37l.23.35-4.7,2.94-.23-.36a3.49,3.49,0,0,0,1.3-1.65,2.65,2.65,0,0,0-.54-2l-3.37,2.1c-.3.19-.45.39-.45.61a2.05,2.05,0,0,0,.41,1,4.93,4.93,0,0,0,1.88,1.85,5.09,5.09,0,0,0,2.87.28l.23.39-3.24,1.24Z"/><polygon class="cls-5" points="288.96 583.35 289.75 583.75 289.19 584.84 293.09 586.84 292.59 587.82 288.69 585.82 288.13 586.91 287.36 586.51 288.96 583.35"/><polygon class="cls-5" points="292.64 581.44 290.87 580.29 291.47 579.37 295.88 582.23 295.29 583.15 293.32 581.88 292.63 582.93 294.6 584.21 294 585.13 289.59 582.28 290.18 581.35 291.95 582.5 292.64 581.44"/><polygon class="cls-5" points="296.55 581.33 292.45 578.04 294.24 575.8 294.87 576.31 293.76 577.69 294.78 578.5 295.8 577.23 296.43 577.73 295.41 579 296.61 579.97 297.75 578.54 298.38 579.04 296.55 581.33"/><polygon class="cls-5" points="298.83 571.11 299.44 571.74 298.55 572.59 301.58 575.76 300.78 576.52 297.75 573.35 296.87 574.19 296.27 573.56 298.83 571.11"/><path class="cls-5" d="M303.83,573.82l-.86.67-3.25-4.14,1.6-1.25a1.2,1.2,0,0,1,1.82.33,1.13,1.13,0,0,1,0,1.61h0a.93.93,0,0,1,1.38.23,7.38,7.38,0,0,0,1.06,1.14l-.85.67a2.42,2.42,0,0,1-.72-.74c-.39-.49-.67-.94-1.33-.42l-.23.17ZM302,571.46l.38-.29c.35-.27.17-.7,0-1s-.59-.41-.87-.2l-.38.3Z"/><path class="cls-5" d="M306.55,565.57l2,3.16a1.57,1.57,0,0,1-.66,2.32,1.55,1.55,0,0,1-2.38-.42l-2-3.16.93-.58,1.94,3.1c.35.55.72.61,1.06.4s.42-.64.11-1.13l-1.94-3.1Z"/><polygon class="cls-5" points="310.77 563.43 311.16 564.21 310.06 564.75 312 568.68 311.02 569.17 309.08 565.24 307.98 565.78 307.59 565 310.77 563.43"/><polygon class="cls-5" points="314.85 564.08 314.11 562.11 315.15 561.72 317 566.65 315.96 567.03 315.14 564.84 313.96 565.28 314.78 567.47 313.75 567.86 311.91 562.94 312.94 562.55 313.68 564.52 314.85 564.08"/><path class="cls-5" d="M321.21,565.63c-1.34.28-1.75-.45-1.89-1.35l1.08-.23c.1.49.22.9.81.77a.53.53,0,0,0,.41-.7c-.2-.93-2.37-.52-2.7-2-.17-.81.07-1.53,1.38-1.81,1.05-.22,1.67.14,1.83,1.23l-1.05.22c-.08-.38-.23-.76-.66-.67a.51.51,0,0,0-.44.67c.21,1,2.35.42,2.7,2,.28,1.33-.66,1.7-1.47,1.88"/><polygon class="cls-5" points="325.97 561.61 325.75 559.52 326.84 559.4 327.39 564.63 326.3 564.75 326.06 562.42 324.8 562.55 325.05 564.88 323.95 565 323.4 559.77 324.49 559.65 324.72 561.74 325.97 561.61"/><path class="cls-5" d="M328.12,564.57l1.49-5.25h1.45l1.4,5.27H331.3l-.28-1.17h-1.5l-.31,1.17Zm2.15-4.23h0l-.51,2.27h1.05Z"/><polygon class="cls-5" points="333.14 564.68 333.67 559.45 334.77 559.57 334.33 563.92 335.96 564.09 335.87 564.96 333.14 564.68"/><polygon class="cls-5" points="336.53 565.08 337.49 559.91 338.57 560.11 337.77 564.42 339.39 564.72 339.22 565.58 336.53 565.08"/><polygon class="cls-5" points="341.58 566.13 343.33 561.18 345.01 561.77 344.58 565.42 344.6 565.42 346.62 562.34 348.23 562.92 346.47 567.87 345.46 567.51 346.82 563.69 346.81 563.68 344.49 567.17 343.5 566.82 343.96 562.67 343.95 562.67 342.59 566.49 341.58 566.13"/><path class="cls-5" d="M347.07,568.16l3.68-4,1.29.65-1.11,5.34-1-.52.26-1.17-1.33-.68-.8.9Zm3.81-2.83h0l-1.48,1.8.93.47Z"/><polygon class="cls-5" points="356.33 567.35 357.34 568.01 354.83 569.19 354.49 572.42 353.45 571.75 353.86 568.8 353.85 568.79 352.38 571.05 351.46 570.46 354.32 566.04 355.24 566.64 354.01 568.53 354.03 568.54 356.33 567.35"/><polygon class="cls-5" points="355.02 572.84 358.3 568.73 360.54 570.52 360.04 571.15 358.66 570.05 357.85 571.06 359.12 572.08 358.62 572.71 357.34 571.7 356.39 572.89 357.82 574.03 357.31 574.67 355.02 572.84"/><polygon class="cls-5" points="361.25 575.91 362.81 572.55 363.63 573.42 362.56 575.52 364.75 574.6 365.53 575.41 362.02 576.71 360.69 577.97 359.94 577.17 361.25 575.91"/><path class="cls-5" d="M364.2,577.92c1.1-.85,2.16-1.65,3.26-.21s.05,2.24-1.06,3.09-2.16,1.65-3.26.21,0-2.25,1.06-3.09m1.52,2c1.07-.83,1.49-1.24,1.11-1.73s-.89-.2-1.95.61-1.49,1.24-1.12,1.73.89.2,2-.61"/><path class="cls-5" d="M371.24,583.6l-3.19,1.92a1.56,1.56,0,0,1-2.31-.69,1.54,1.54,0,0,1,.46-2.37l3.19-1.92.57.94-3.13,1.88c-.55.34-.63.71-.42,1s.63.43,1.13.13l3.13-1.88Z"/><polygon class="cls-5" points="367.99 588.84 372.82 586.77 373.9 589.28 373.15 589.6 372.51 588.1 371.27 588.63 371.88 590.06 371.14 590.38 370.53 588.95 368.42 589.85 367.99 588.84"/><path class="cls-5" d="M369.64,593l-.34-1,5-1.62.63,1.93a1.2,1.2,0,0,1-.93,1.59,1.14,1.14,0,0,1-1.53-.53h0a.94.94,0,0,1-.69,1.22,7.32,7.32,0,0,0-1.43.6l-.34-1a2.41,2.41,0,0,1,.94-.42c.59-.19,1.12-.31.86-1.11l-.09-.27Zm2.84-.92.15.47c.14.41.59.39.91.29.48-.15.59-.41.48-.75l-.15-.46Z"/><polygon class="cls-5" points="370.55 596.03 375.69 594.89 376.31 597.7 375.51 597.87 375.13 596.15 373.87 596.42 374.22 598.02 373.43 598.19 373.08 596.6 371.58 596.93 371.97 598.72 371.19 598.89 370.55 596.03"/><polygon class="cls-5" points="371.33 599.76 376.54 599.1 376.91 601.94 376.11 602.04 375.88 600.29 374.6 600.45 374.81 602.07 374 602.17 373.8 600.56 372.27 600.75 372.5 602.57 371.7 602.67 371.33 599.76"/><path class="cls-5" d="M348.88,589.43v-4.11h3.66v0H353v4.11Zm.91-.91h2.29v-2.29h-2.29Z"/><path class="cls-5" d="M343.42,589.44v-4.12h3.65v0h.45v4.12Zm.9-.92h2.3v-2.29h-2.3Z"/><path class="cls-5" d="M332.52,589.44v-4.12h3.66v0h.45v4.12Zm.9-.92h2.3v-2.29h-2.3Z"/><path class="cls-5" d="M338,589.44v-4.12h3.66v0h.45v4.12Zm.91-.92h2.29v-2.29h-2.29Z"/><path class="cls-5" d="M359.36,579.5H307.63l-12.18,17.87H281.29v4.72h1.42a49.54,49.54,0,0,0-.28,5.19A47.48,47.48,0,0,0,330,654.82h0a46.93,46.93,0,0,0,27.38-8.65l.24-.17V584.17h1.76Zm-72.05,46,18.84-27.61h44.79v1.34H307.32L290,624.6l.13.29A43.45,43.45,0,0,0,304,642.24l.16.11,30.09,0v1.7H301.69a46.61,46.61,0,0,1-14.38-18.53m44.18-33.24v1.48h-1v.57h0v-.57H312.6v.57h0v-.57h-1.15V592.3Zm-17.65-1.14a8.38,8.38,0,0,1,15.46,0Zm-.68,3.76h16.73v1.88H313.16Zm35.28,54.68h-7.51v-2.69H338v-2.84h-2.68v-2.83h-2.82v-2.85h-1.61V605.78h1.71V602h-22.3v3.75H312v32.61h-1.74v2.82h-5.8a42.18,42.18,0,0,1-13.19-16.5l16.63-24.3h40.52Zm-40.63-1.55h32v1.55H310.92c-1.06-.48-2.1-1-3.11-1.55m29.07-2.84v1.7H305.83c-.88-.53-1.74-1.1-2.58-1.7Zm-9.49-39.43h2.39v32.61h-2.39Zm-8.2,32.61h-2.5V605.78h2.5Zm1.14-32.61h2.39v32.61h-2.39Zm3.53,0h2.39v32.61h-2.39Zm-12.41-2.61h20v1.48h-20Zm4.1,35.22h-2.39V605.78h2.39Zm15.83,1.13v1.72l-20,0v-1.7ZM330,653.68a46.23,46.23,0,0,1-16.28-2.94h32.66A46.4,46.4,0,0,1,330,653.68m26.5-8.27a45.77,45.77,0,0,1-6.89,4v-49h2.5V596.8H331v-1.88h1.59v-3.76h-2.1a9.51,9.51,0,0,0-17.89,0h-2.31v3.76H312v1.88h-6.47l-18.77,27.49a46.4,46.4,0,0,1-3.21-17,49.53,49.53,0,0,1,.29-5.19h13.77l12.42-17.92h46.42ZM358.23,583H309.45L297,601H282.42V598.5h13.63l12.17-17.86h50Z"/></g><path class="cls-3" d="M387.67,248.12H122.77s25.45-44.71,70-44.71H457.67S432.22,248.12,387.67,248.12Z"/><path class="cls-3" d="M477.12,337.55h-427s25.45-44.71,70-44.71h427S521.67,337.55,477.12,337.55Z"/><path class="cls-4" d="M972.85,381.48h-415s25.45,44.72,70,44.72H925.42S1017.4,381.48,972.85,381.48Z"/><path class="cls-3" d="M20.07,426.2H574.13s-25.45-44.72-70-44.72H20.07Z"/><path class="cls-3" d="M389.28,158.61H215.55s25.44-44.71,70-44.71H459.28S433.83,158.61,389.28,158.61Z"/><path class="cls-5" d="M557.57,426.2h147.5s-25.44-44.72-70-44.72H487.58S513,426.2,557.57,426.2Z"/><path class="cls-1" d="M425.07,381.48h62.51s-25.44-44.71-70-44.71H355.08S380.52,381.48,425.07,381.48Z"/><path class="cls-1" d="M360.07,292.84h97s-25.45-44.72-70-44.72h-97S315.53,292.84,360.07,292.84Z"/><path class="cls-1" d="M320.07,203.33H469.24s-25.45-44.71-70-44.71H250.08S275.52,203.33,320.07,203.33Z"/><path class="cls-4" d="M585.62,203.41H498.48s25.45,44.71,70,44.71h87.13S630.16,203.41,585.62,203.41Z"/><path class="cls-4" d="M662.56,292.84H478.15s25.45,44.71,70,44.71H732.56S707.11,292.84,662.56,292.84Z"/><path class="cls-4" d="M820.65,470.13H636.23s25.45,44.71,70,44.71H890.64S865.19,470.13,820.65,470.13Z"/><path class="cls-4" d="M799.29,559.56H691.76s25.45,44.71,70,44.71H869.28S843.84,559.56,799.29,559.56Z"/><path class="cls-4" d="M502.7,113.9h-115s25.44,44.71,70,44.71h115S547.24,113.9,502.7,113.9Z"/><path class="cls-5" d="M389.29,248.12h205.5s-25.44-44.71-70-44.71H319.3S344.74,248.12,389.29,248.12Z"/><path class="cls-5" d="M401.35,158.61H534s-25.44-44.71-70-44.71H331.36S356.8,158.61,401.35,158.61Z"/><path class="cls-5" d="M863.59,470.13h91.66s-25.44,44.71-70,44.71H793.6S819,470.13,863.59,470.13Z"/><path class="cls-6" d="M947.57,381.48h49.72s-25.45,44.72-70,44.72H877.58S903,381.48,947.57,381.48Z"/><path class="cls-5" d="M425.07,337.55H648.86s-25.45-44.71-70-44.71H355.08S380.52,337.55,425.07,337.55Z"/><path class="cls-5" d="M654.53,514.84h85.54s-25.44-44.71-70-44.71H584.54S610,514.84,654.53,514.84Z"/><path class="cls-4" d="M964.49,514.84H825.15c44.54,0,70,44.72,70,44.72h139.34S1009,514.84,964.49,514.84Z"/><path class="cls-6" d="M825.15,514.84H739.6s25.45,44.72,70,44.72h85.54S869.69,514.84,825.15,514.84Z"/><path class="cls-6" d="M605.94,1186.54a201.06,201.06,0,0,0,16.28,44l52.47-44Z"/><line class="cls-7" x1="691.76" y1="817.21" x2="691.89" y2="817.21"/><line class="cls-8" x1="701.76" y1="817.21" x2="818.28" y2="817.21"/><line class="cls-7" x1="823.22" y1="817.21" x2="823.34" y2="817.21"/><line class="cls-7" x1="691.76" y1="984.45" x2="691.89" y2="984.45"/><line class="cls-8" x1="701.76" y1="984.45" x2="818.28" y2="984.45"/><line class="cls-7" x1="823.22" y1="984.45" x2="823.34" y2="984.45"/><line class="cls-7" x1="691.76" y1="1151.69" x2="691.89" y2="1151.69"/><line class="cls-8" x1="701.76" y1="1151.69" x2="818.28" y2="1151.69"/><line class="cls-7" x1="823.22" y1="1151.69" x2="823.34" y2="1151.69"/></g></svg>