<svg id="Layer_1" data-name="Layer 1" xmlns="http://www.w3.org/2000/svg" viewBox="0 0 1065 1666.97"><defs><style>.cls-1{fill:#e5dbdb;}.cls-2{font-size:18px;fill:#3c3c3c;font-family:AvenirLTStd-Medium, Avenir LT Std;font-weight:500;}.cls-3{letter-spacing:-0.02em;}.cls-4{fill:#63332a;}.cls-5{fill:#80332a;}.cls-11,.cls-6{fill:none;}.cls-6{stroke:#80332a;stroke-linecap:round;stroke-linejoin:round;stroke-width:3px;stroke-dasharray:0.25 10;}.cls-10,.cls-7{fill:#fff;}.cls-11,.cls-7,.cls-8{stroke:#000;}.cls-10,.cls-11,.cls-7,.cls-8{stroke-miterlimit:10;}.cls-8{fill:#ddd;}.cls-9{font-size:7.97px;}.cls-12,.cls-9{font-family:AvenirLTStd-Black, Avenir LT Std;font-weight:800;}.cls-10{stroke:#231f20;}.cls-12{font-size:14.29px;}.cls-13{fill-rule:evenodd;}</style></defs><title>CCSF</title><g id="Previous_bg" data-name="Previous bg"><path class="cls-1" d="M970.92,20h-875V1467.8c349.86-35.66,469-362.09,812.89-362.09h62.11Z"/><text class="cls-2" transform="translate(908.51 246.34) rotate(90)">Wi<tspan class="cls-3" x="21.64" y="0">r</tspan><tspan x="27.97" y="0">eframe Round 2</tspan></text><path class="cls-1" d="M970.92-647.7H908.81c-343.85,0-463,326.44-812.89,362.09l-.92.1.92,367.63h875V-647.7Z"/><path class="cls-4" d="M970,73.43V10.54H843.4C780.74,10.54,745,73.43,745,73.43Z"/><path class="cls-4" d="M20,73.43v62.9H646.49c62.67,0,98.46-62.9,98.46-62.9Z"/><polygon class="cls-5" points="20 136.32 95.92 136.32 95.92 200 20 136.32"/></g><g id="Competitor"><g id="Competitor_1" data-name="Competitor 1"><line class="cls-6" x1="295" y1="1427.05" x2="295" y2="1664.28"/><line class="cls-6" x1="390" y1="1427.05" x2="390" y2="1664.28"/><line class="cls-6" x1="485" y1="1427.05" x2="485" y2="1664.28"/><line class="cls-6" x1="580" y1="1427.05" x2="580" y2="1664.28"/><line class="cls-6" x1="675" y1="1427.05" x2="675" y2="1664.28"/><line class="cls-6" x1="770" y1="1427.05" x2="770" y2="1664.28"/></g></g><g id="homepage"><rect class="cls-7" x="210.03" y="248.23" width="644.94" height="1246.26"/><rect class="cls-7" x="241.76" y="942.27" width="172.96" height="135.99"/><rect class="cls-8" x="272.42" y="995.94" width="111.63" height="8.58"/><rect class="cls-8" x="272.42" y="1012.67" width="111.63" height="8.58"/><text class="cls-9" transform="translate(288.2 975.72)">Prospective Students</text><polygon class="cls-8" points="337.11 1046.54 328.24 1055.41 319.37 1046.54 337.11 1046.54"/><rect class="cls-7" x="656.5" y="942.27" width="172.96" height="135.99"/><rect class="cls-8" x="687.16" y="995.94" width="111.63" height="8.58"/><rect class="cls-8" x="687.16" y="1012.67" width="111.63" height="8.58"/><text class="cls-9" transform="translate(731.33 975.72)">About</text><polygon class="cls-8" points="751.85 1046.54 742.98 1055.41 734.1 1046.54 751.85 1046.54"/><rect class="cls-7" x="449.13" y="942.27" width="172.96" height="135.99"/><rect class="cls-8" x="479.79" y="995.94" width="111.63" height="8.58"/><rect class="cls-8" x="479.79" y="1012.67" width="111.63" height="8.58"/><text class="cls-9" transform="translate(503.39 975.72)">Current Students</text><polygon class="cls-8" points="544.48 1046.54 535.61 1055.41 526.74 1046.54 544.48 1046.54"/><rect class="cls-10" x="210.03" y="272.12" width="644.94" height="391.25"/><rect class="cls-7" x="690.98" y="481.92" width="163.99" height="405.48"/><rect class="cls-8" x="210.03" y="248.23" width="644.94" height="23.89"/><rect class="cls-11" x="829.19" y="248.23" width="25.78" height="23.89"/><circle class="cls-8" cx="268.17" cy="436.11" r="26.41"/><text class="cls-12" transform="translate(324.02 419.95)">City College of San Francisco</text><text class="cls-9" transform="translate(709.03 505.66)">Spring 19 Important Dates</text><text class="cls-9" transform="translate(704.36 263.29)">Employee Services</text><text class="cls-9" transform="translate(600.8 263.29)">Web4</text><text class="cls-9" transform="translate(652.62 263.29)">Canvas</text><text class="cls-9" transform="translate(241.76 698.63)">Latest News</text><path class="cls-13" d="M848.24,264.7l-3.81-3a5.26,5.26,0,0,0,.91-2.88,4.86,4.86,0,1,0-4.86,4.85,4.82,4.82,0,0,0,2.9-1l3.43,3.44a1,1,0,0,0,1.43-1.42Zm-7.73-2.43A3.47,3.47,0,1,1,844,258.8,3.47,3.47,0,0,1,840.51,262.27Z"/><rect x="800.31" y="253.88" width="8.29" height="8.29"/><rect class="cls-7" x="805.57" y="259.14" width="8.29" height="8.29"/><rect class="cls-8" x="324.18" y="436.16" width="252.28" height="8.58"/><rect class="cls-8" x="324.18" y="452.81" width="252.28" height="8.58"/><rect class="cls-8" x="709.03" y="527.45" width="40.02" height="40.02"/><rect class="cls-8" x="761.63" y="527.45" width="69.18" height="8.58"/><rect class="cls-8" x="761.63" y="543.17" width="69.18" height="8.58"/><rect class="cls-8" x="709.03" y="595.7" width="40.02" height="40.02"/><rect class="cls-8" x="761.63" y="595.7" width="69.18" height="8.58"/><rect class="cls-8" x="761.63" y="611.42" width="69.18" height="8.58"/><rect class="cls-8" x="709.03" y="663.95" width="40.02" height="40.02"/><rect class="cls-8" x="761.63" y="663.95" width="69.18" height="8.58"/><rect class="cls-8" x="761.63" y="679.67" width="69.18" height="8.58"/><rect class="cls-8" x="709.03" y="734.87" width="40.02" height="40.02"/><rect class="cls-8" x="761.63" y="734.87" width="69.18" height="8.58"/><rect class="cls-8" x="761.63" y="750.59" width="69.18" height="8.58"/><rect class="cls-8" x="709.03" y="805.78" width="40.02" height="40.02"/><rect class="cls-8" x="761.63" y="805.78" width="69.18" height="8.58"/><rect class="cls-8" x="761.63" y="821.51" width="69.18" height="8.58"/><polygon class="cls-8" points="782.59 863.35 773.72 872.22 764.85 863.35 782.59 863.35"/><rect class="cls-8" x="241.76" y="723.03" width="380.32" height="164.37"/><polygon class="cls-8" points="640.21 796.91 649.09 805.78 640.21 814.66 640.21 796.91"/><rect class="cls-8" x="210.03" y="1136.95" width="644.94" height="357.54"/><text class="cls-9" transform="translate(241.76 1201.96)">Public Information</text><rect class="cls-8" x="241.76" y="1229.49" width="111.63" height="8.58"/><text class="cls-9" transform="translate(558.65 1201.96)">Support CCSF</text><rect class="cls-8" x="558.65" y="1229.49" width="270.8" height="8.58"/><rect class="cls-8" x="558.65" y="1249.21" width="270.8" height="8.58"/><rect class="cls-8" x="558.65" y="1277.51" width="67.7" height="19.73"/><rect class="cls-8" x="241.76" y="1249.21" width="111.63" height="8.58"/><rect class="cls-8" x="241.76" y="1268.94" width="111.63" height="8.58"/><rect class="cls-8" x="241.76" y="1288.66" width="111.63" height="8.58"/><rect class="cls-8" x="241.76" y="1308.39" width="111.63" height="8.58"/><rect class="cls-8" x="295.13" y="1398.39" width="58.27" height="8.58"/><rect class="cls-8" x="295.13" y="1414.1" width="58.27" height="8.58"/><rect class="cls-8" x="241.76" y="1442.19" width="184.82" height="8.58"/><rect class="cls-8" x="241.76" y="1457.9" width="184.82" height="8.58"/><rect class="cls-8" x="667.86" y="1457.9" width="46.21" height="8.58"/><rect class="cls-8" x="725.55" y="1457.9" width="46.21" height="8.58"/><rect class="cls-8" x="783.25" y="1457.9" width="46.21" height="8.58"/><rect class="cls-8" x="610.16" y="1457.9" width="46.21" height="8.58"/><rect class="cls-8" x="370.77" y="1229.49" width="111.63" height="8.58"/><rect class="cls-8" x="370.77" y="1308.39" width="111.63" height="8.58"/><rect class="cls-8" x="370.77" y="1249.21" width="111.63" height="8.58"/><rect class="cls-8" x="370.77" y="1268.94" width="111.63" height="8.58"/><rect class="cls-8" x="370.77" y="1288.66" width="111.63" height="8.58"/><text class="cls-9" transform="translate(584.54 1290.58)">CTA</text><circle class="cls-8" cx="259.28" cy="1410.53" r="17.52"/><circle class="cls-8" cx="820.7" cy="1436.81" r="8.76"/><circle class="cls-8" cx="791.9" cy="1436.81" r="8.76"/><circle class="cls-8" cx="763.11" cy="1436.81" r="8.76"/><circle class="cls-8" cx="734.31" cy="1436.81" r="8.76"/><rect class="cls-8" x="324.18" y="506.07" width="67.7" height="19.73"/><text class="cls-9" transform="translate(342.25 519.14)">Register</text><rect class="cls-8" x="412.23" y="506.07" width="93.03" height="19.73"/><text class="cls-9" transform="translate(430.23 519.14)">Class Schedule</text></g></svg>