<svg id="Layer_1" data-name="Layer 1" xmlns="http://www.w3.org/2000/svg" xmlns:xlink="http://www.w3.org/1999/xlink" viewBox="0 0 1065 2000"><defs><style>.cls-1,.cls-17,.cls-18,.cls-19,.cls-31,.cls-33{fill:none;}.cls-2{fill:#2d2d2d;}.cls-3{fill:#63332a;}.cls-4{fill:#83332a;}.cls-5,.cls-6{font-size:24px;}.cls-12,.cls-13,.cls-20,.cls-21,.cls-25,.cls-34,.cls-5,.cls-7{fill:#fff;}.cls-13,.cls-5,.cls-6{font-family:Baskerville-SemiBoldItalic, Baskerville;font-weight:600;font-style:italic;}.cls-27,.cls-6{fill:#acacac;}.cls-7{font-size:18px;font-family:AvenirLTStd-Medium, Avenir LT Std;font-weight:500;}.cls-8{letter-spacing:-0.02em;}.cls-9{letter-spacing:0em;}.cls-10{fill:#c50000;}.cls-11,.cls-32{fill:#3c3c3c;}.cls-12,.cls-17,.cls-18,.cls-19,.cls-31,.cls-32,.cls-33,.cls-34{stroke:#fff;}.cls-12{stroke-miterlimit:10;}.cls-13,.cls-21,.cls-25{font-size:20px;}.cls-14{letter-spacing:-0.04em;}.cls-15{letter-spacing:0em;}.cls-16{letter-spacing:-0.01em;}.cls-17,.cls-18,.cls-19,.cls-33{stroke-linecap:round;}.cls-17,.cls-18,.cls-19,.cls-31,.cls-32,.cls-33,.cls-34{stroke-linejoin:round;}.cls-17,.cls-18,.cls-19{stroke-width:3px;}.cls-18{stroke-dasharray:0.24 9.78;}.cls-19{stroke-dasharray:0.25 10;}.cls-21,.cls-25{font-family:AvenirLTStd-Black, Avenir LT Std;font-weight:800;}.cls-22{letter-spacing:-0.02em;}.cls-23{letter-spacing:-0.02em;}.cls-24{letter-spacing:0em;}.cls-25{letter-spacing:-0.11em;}.cls-26{letter-spacing:0em;}.cls-28{clip-path:url(#clip-path);}.cls-29{fill:#818080;}.cls-30{letter-spacing:0em;}.cls-31,.cls-32,.cls-33,.cls-34{stroke-width:2px;}</style><clipPath id="clip-path"><path class="cls-1" d="M908.81,3291.69h62.11V2030.27h-875L95,2748.16C445.57,2783.33,564.66,3291.69,908.81,3291.69Z"/></clipPath></defs><title>CCSF_Panel</title><g id="Previous_bg" data-name="Previous bg"><polygon class="cls-2" points="301.6 1637.94 301.6 1700.84 131.41 1700.84 56.41 1637.94 301.6 1637.94"/><polygon class="cls-2" points="301.6 872.13 301.6 935.02 131.41 935.02 56.41 872.13 301.6 872.13"/><polygon class="cls-3" points="766.7 1643.51 766.7 1580.61 936.89 1580.61 1011.89 1643.51 766.7 1643.51"/><rect class="cls-4" x="95.92" y="12.69" width="875" height="1956.09"/><text class="cls-5" transform="translate(861.82 265.17)">35.4%</text><text class="cls-6" transform="translate(575.35 306.66)">12.9%</text><text class="cls-6" transform="translate(455.41 389.51)">3.2%</text><text class="cls-6" transform="translate(699.56 348.16)">22.5%</text><text class="cls-7" transform="translate(908.51 725.37) rotate(90)">User Resea<tspan class="cls-8" x="90.68" y="0">r</tspan><tspan class="cls-9" x="97.02" y="0">ch</tspan></text><path class="cls-10" d="M297.22,1643.51v-62.9h502.1c62.67,0,98.46,62.9,98.46,62.9Z"/><path class="cls-3" d="M325.41,1579.69v-62.9H672.84c62.67,0,98.46,62.9,98.46,62.9Z"/><path class="cls-2" d="M336.3,1516.79V1453.9H565.78c62.67,0,98.46,62.89,98.46,62.89Z"/><path class="cls-11" d="M118.52,1372H56.41v266H95.35v380.86H970.92V1871.51C590,1871.51,475,1372,118.52,1372Z"/><path class="cls-4" d="M760,1643.59H606.94l364,139.83v88.09l41,0V1643.59Z"/><path class="cls-3" d="M56.41,810.19v61.94h197.2c61.72,0,97-61.94,97-61.94Z"/><path class="cls-12" d="M809.88,810.19V748.25H448.17c-61.71,0-97,61.94-97,61.94Z"/><text class="cls-13" transform="translate(554.44 586.03)">a<tspan class="cls-14" x="10.62" y="0">f</tspan><tspan x="15.93" y="0">fordable</tspan><tspan x="0.52" y="30">accessible</tspan><tspan x="24.87" y="60">diverse</tspan><tspan x="19.79" y="90">e</tspan><tspan class="cls-14" x="29.17" y="90">f</tspan><tspan x="34.48" y="90">ficient</tspan><tspan class="cls-15" x="22.18" y="120">r</tspan><tspan x="30.9" y="120">eliable</tspan></text><text class="cls-5" transform="translate(238.58 223.01)">Registration<tspan x="0" y="41.25">Scheduling</tspan><tspan class="cls-16" x="0" y="82.5">W</tspan><tspan x="21.82" y="82.5">eb4</tspan><tspan x="0" y="123.75">Canvas</tspan><tspan x="0" y="165">Fees</tspan></text><text class="cls-13" transform="translate(243.44 930.91)">1990s<tspan x="0" y="30">cold</tspan><tspan x="0" y="60">impacted</tspan><tspan x="0" y="90">lower class</tspan><tspan x="0" y="120">old</tspan></text><line class="cls-17" x1="680.09" y1="550.71" x2="680.09" y2="550.83"/><line class="cls-18" x1="680.09" y1="560.62" x2="680.09" y2="746.23"/><line class="cls-17" x1="680.09" y1="751.12" x2="680.09" y2="751.25"/><line class="cls-19" x1="210" y1="174.81" x2="210" y2="429.61"/><line class="cls-19" x1="205.38" y1="863.13" x2="205.38" y2="1077.32"/><path class="cls-4" d="M685.2,782.81v17H675v-17H660.16v-9.26H675V757.24H685.2v16.31H700v9.26Z"/><path class="cls-20" d="M210.5,845.79H185.45v-9.26h39.87v9.26Z"/><text class="cls-21" transform="translate(216.77 1281.69)">A<tspan class="cls-22" x="14.82" y="0">r</tspan><tspan x="22.6" y="0">eas for </tspan><tspan x="-16.31" y="26">imp</tspan><tspan class="cls-23" x="18.89" y="26">r</tspan><tspan class="cls-24" x="26.67" y="26">ovement</tspan></text><text class="cls-25" transform="translate(205.38 147.14)">T<tspan class="cls-26" x="9.26" y="0">op Uses</tspan></text><text class="cls-21" transform="translate(753.36 1723.18)">A<tspan class="cls-22" x="14.82" y="0">r</tspan><tspan x="22.6" y="0">eas worth</tspan><tspan x="20.33" y="26">keeping</tspan></text><rect class="cls-27" x="402.11" y="375.5" width="40.5" height="14.01"/><rect class="cls-27" x="402.11" y="334.15" width="283.3" height="14.01"/><rect class="cls-27" x="402.11" y="292.95" width="161.79" height="13.71"/><rect class="cls-20" x="402.11" y="251.76" width="445.1" height="13.4"/><rect class="cls-27" x="402.11" y="210.26" width="323.59" height="13.71"/><text class="cls-6" transform="translate(741.66 224.01)">25.8%</text><g class="cls-28"><path class="cls-29" d="M545.46,2790.72H545v-3.87h-1.37v-.44h3.24v.44h-1.37v3.87m3.31.07a1.51,1.51,0,0,1-1.14-.44,1.75,1.75,0,0,1-.41-1.22,1.86,1.86,0,0,1,.38-1.24,1.28,1.28,0,0,1,1-.47,1.22,1.22,0,0,1,1,.4,1.55,1.55,0,0,1,.36,1.06v.32h-2.23a1.24,1.24,0,0,0,.29.86,1,1,0,0,0,.76.3,2.69,2.69,0,0,0,1-.22v.44a2.54,2.54,0,0,1-.49.16,2.87,2.87,0,0,1-.55.05m-.13-2.95a.83.83,0,0,0-.63.25,1.11,1.11,0,0,0-.27.7h1.69a1.1,1.1,0,0,0-.2-.7.72.72,0,0,0-.59-.25m4.23,2a.83.83,0,0,1-.33.7,1.56,1.56,0,0,1-.95.25,2,2,0,0,1-1-.21v-.45a2,2,0,0,0,.5.18,1.84,1.84,0,0,0,.51.07,1.16,1.16,0,0,0,.59-.12.41.41,0,0,0,.21-.38.4.4,0,0,0-.16-.32,2.7,2.7,0,0,0-.64-.31,4.74,4.74,0,0,1-.65-.3,1.06,1.06,0,0,1-.28-.28.8.8,0,0,1-.09-.39.74.74,0,0,1,.32-.62,1.53,1.53,0,0,1,.88-.24,2.51,2.51,0,0,1,1,.22l-.18.4a2.41,2.41,0,0,0-.89-.2,1,1,0,0,0-.52.11.33.33,0,0,0-.18.3.36.36,0,0,0,.07.22,1.37,1.37,0,0,0,.21.18,5.7,5.7,0,0,0,.57.23,1.93,1.93,0,0,1,.78.43.78.78,0,0,1,.2.53m1.84.54.25,0,.19,0v.38l-.23.06-.28,0q-.93,0-.93-1v-1.93h-.47v-.24l.47-.21.2-.68h.28v.75h.94v.38h-.94v1.9a.67.67,0,0,0,.14.45.46.46,0,0,0,.38.16m1.58.34h-.49v-3.23h.49v3.23m-.53-4.11a.37.37,0,0,1,.08-.25.31.31,0,0,1,.21-.07.24.24,0,0,1,.2.08.3.3,0,0,1,.09.24.3.3,0,0,1-.09.25.28.28,0,0,1-.2.08.32.32,0,0,1-.21-.08.34.34,0,0,1-.08-.25m3.78,4.11v-2.09a.85.85,0,0,0-.18-.59.72.72,0,0,0-.56-.2.92.92,0,0,0-.75.28,1.37,1.37,0,0,0-.23.9v1.7h-.49v-3.23h.4l.08.44h0a1.08,1.08,0,0,1,.42-.37,1.34,1.34,0,0,1,.61-.14,1.23,1.23,0,0,1,.88.29,1.19,1.19,0,0,1,.3.9v2.11h-.5m4.14-3.23v.31l-.6.07a.76.76,0,0,1,.15.27,1,1,0,0,1-.26,1.13,1.29,1.29,0,0,1-.89.29,1.12,1.12,0,0,1-.27,0,.5.5,0,0,0-.31.42.21.21,0,0,0,.11.2.8.8,0,0,0,.37.06h.58a1.23,1.23,0,0,1,.8.22.77.77,0,0,1,.28.65.91.91,0,0,1-.43.82,2.25,2.25,0,0,1-1.25.28,1.69,1.69,0,0,1-1-.24.75.75,0,0,1-.35-.67.8.8,0,0,1,.19-.51,1,1,0,0,1,.53-.29.48.48,0,0,1-.21-.17.5.5,0,0,1-.08-.27.57.57,0,0,1,.09-.32,1,1,0,0,1,.3-.25,1,1,0,0,1-.41-.35,1.1,1.1,0,0,1-.15-.57,1,1,0,0,1,.32-.82,1.25,1.25,0,0,1,.9-.3,1.39,1.39,0,0,1,.46.07h1.11m-2.57,3.78a.45.45,0,0,0,.22.4,1.18,1.18,0,0,0,.63.13,1.82,1.82,0,0,0,.92-.18.57.57,0,0,0,.29-.5.39.39,0,0,0-.16-.36,1.21,1.21,0,0,0-.61-.11h-.59a.81.81,0,0,0-.52.16.59.59,0,0,0-.18.46m.26-2.75a.67.67,0,0,0,.19.52.77.77,0,0,0,.54.18.63.63,0,0,0,.72-.7.65.65,0,0,0-.73-.73.65.65,0,0,0-.72.73M467.58,1173.21a.69.69,0,0,0,.2.52.78.78,0,0,0,.53.17.63.63,0,0,0,.72-.7.64.64,0,0,0-.72-.73.73.73,0,0,0-.54.19.76.76,0,0,0-.19.55M568,2789.84a.81.81,0,0,1-.33.7,1.54,1.54,0,0,1-.95.25,2,2,0,0,1-1-.21v-.45a2.3,2.3,0,0,0,.5.18,1.91,1.91,0,0,0,.52.07,1.18,1.18,0,0,0,.59-.12.42.42,0,0,0,0-.7,2.34,2.34,0,0,0-.64-.31,4.49,4.49,0,0,1-.64-.3,1.06,1.06,0,0,1-.28-.28.8.8,0,0,1-.09-.39.72.72,0,0,1,.32-.62,1.51,1.51,0,0,1,.88-.24,2.51,2.51,0,0,1,1,.22l-.19.4a2.36,2.36,0,0,0-.88-.2,1,1,0,0,0-.52.11.33.33,0,0,0-.18.3.36.36,0,0,0,.07.22.8.8,0,0,0,.21.18,5.7,5.7,0,0,0,.57.23,2.08,2.08,0,0,1,.78.43.77.77,0,0,1,.19.53m2.17.95a1.51,1.51,0,0,1-1.13-.44,1.71,1.71,0,0,1-.42-1.22,1.86,1.86,0,0,1,.39-1.24,1.27,1.27,0,0,1,1-.47,1.25,1.25,0,0,1,1,.4,1.59,1.59,0,0,1,.35,1.06v.32h-2.23a1.29,1.29,0,0,0,.29.86,1,1,0,0,0,.77.3,2.69,2.69,0,0,0,1-.22v.44a2.78,2.78,0,0,1-.49.16,3,3,0,0,1-.56.05m-.13-2.95a.86.86,0,0,0-.63.25,1.23,1.23,0,0,0-.27.7h1.69a1,1,0,0,0-.2-.7.71.71,0,0,0-.59-.25m3.63-.42a2.34,2.34,0,0,1,.39,0l-.08.46a2.5,2.5,0,0,0-.35,0,.83.83,0,0,0-.67.32,1.11,1.11,0,0,0-.28.79v1.73h-.49v-3.23h.4l.06.6h0a1.29,1.29,0,0,1,.43-.49,1,1,0,0,1,.56-.18m1.69,3.3-1.23-3.23h.53l.69,1.92c.16.45.25.74.29.87h0c0-.1.09-.32.2-.64l.78-2.15h.53l-1.23,3.23h-.58m2.81,0h-.49v-3.23h.49v3.23m-.53-4.11a.37.37,0,0,1,.08-.25.3.3,0,0,1,.21-.07.26.26,0,0,1,.2.08.33.33,0,0,1,.08.24.34.34,0,0,1-.08.25.3.3,0,0,1-.2.08.3.3,0,0,1-.21-.08.34.34,0,0,1-.08-.25m2.86,4.18a1.41,1.41,0,0,1-1.09-.43,1.78,1.78,0,0,1-.39-1.23,1.8,1.8,0,0,1,.4-1.25,1.4,1.4,0,0,1,1.11-.46,2.59,2.59,0,0,1,.47,0,1.63,1.63,0,0,1,.36.13l-.15.42a1.3,1.3,0,0,0-.35-.11,1.48,1.48,0,0,0-.34,0c-.66,0-1,.41-1,1.25a1.49,1.49,0,0,0,.24.91.84.84,0,0,0,.71.33,2.18,2.18,0,0,0,.83-.18v.43a1.69,1.69,0,0,1-.82.18m3,0a1.51,1.51,0,0,1-1.14-.44,1.75,1.75,0,0,1-.41-1.22,1.86,1.86,0,0,1,.38-1.24,1.3,1.3,0,0,1,1-.47,1.22,1.22,0,0,1,1,.4,1.55,1.55,0,0,1,.36,1.06v.32H582.4a1.29,1.29,0,0,0,.29.86,1,1,0,0,0,.76.3,2.73,2.73,0,0,0,1-.22v.44a2.87,2.87,0,0,1-.5.16,2.79,2.79,0,0,1-.55.05m-.13-2.95a.84.84,0,0,0-.63.25,1.17,1.17,0,0,0-.27.7h1.69a1.1,1.1,0,0,0-.2-.7.72.72,0,0,0-.59-.25m4.23,2a.83.83,0,0,1-.33.7,1.56,1.56,0,0,1-1,.25,2,2,0,0,1-1-.21v-.45a2.13,2.13,0,0,0,.5.18,1.84,1.84,0,0,0,.51.07,1.16,1.16,0,0,0,.59-.12.41.41,0,0,0,.21-.38.43.43,0,0,0-.16-.32,2.7,2.7,0,0,0-.64-.31,4,4,0,0,1-.64-.3,1.11,1.11,0,0,1-.29-.28.8.8,0,0,1-.09-.39.74.74,0,0,1,.32-.62,1.54,1.54,0,0,1,.89-.24,2.5,2.5,0,0,1,1,.22l-.18.4a2.4,2.4,0,0,0-.88-.2,1.07,1.07,0,0,0-.53.11.32.32,0,0,0-.17.3.43.43,0,0,0,.06.22,1.37,1.37,0,0,0,.21.18,5.21,5.21,0,0,0,.58.23,2,2,0,0,1,.77.43.78.78,0,0,1,.2.53m3.82-2h-.82v2.85h-.49v-2.85h-.58v-.22l.58-.18v-.18c0-.8.34-1.19,1-1.19a2.08,2.08,0,0,1,.6.1l-.13.39a1.54,1.54,0,0,0-.47-.09.5.5,0,0,0-.42.19,1.1,1.1,0,0,0-.13.59v.21h.82v.38m3.39,1.23a1.81,1.81,0,0,1-.4,1.24,1.4,1.4,0,0,1-1.11.45,1.44,1.44,0,0,1-.77-.21,1.4,1.4,0,0,1-.52-.58,2.09,2.09,0,0,1-.18-.9,1.71,1.71,0,0,1,.4-1.22,1.52,1.52,0,0,1,2.18,0,1.81,1.81,0,0,1,.4,1.22m-2.47,0a1.58,1.58,0,0,0,.25,1,1,1,0,0,0,1.46,0,1.91,1.91,0,0,0,0-1.89.9.9,0,0,0-.74-.32.85.85,0,0,0-.72.32,1.5,1.5,0,0,0-.25.94m4.8-1.68a2.11,2.11,0,0,1,.38,0l-.07.46a2.5,2.5,0,0,0-.35,0,.86.86,0,0,0-.68.32,1.15,1.15,0,0,0-.27.79v1.73h-.49v-3.23h.4l.06.6h0a1.29,1.29,0,0,1,.43-.49.91.91,0,0,1,.56-.18"/></g></g><g id="Persona"><text class="cls-13" transform="translate(210.59 1490.72)">Navigation</text><text class="cls-13" transform="translate(231.01 1681.16)">Visual<tspan x="-17.08" y="24">Hiera</tspan><tspan class="cls-30" x="33.78" y="24">r</tspan><tspan x="42.49" y="24">chy</tspan></text><text class="cls-13" transform="translate(219.95 1884.8)">Relevant<tspan x="4.28" y="24">Content</tspan></text><polygon class="cls-31" points="274.23 1407.26 250.7 1388.66 249.85 1418.64 258.4 1410.8 262.96 1420.58 267.29 1418.56 262.73 1408.78 274.23 1407.26"/><path class="cls-31" d="M297.59,1425a11.6,11.6,0,0,1-11.35,11.85H273.41l-14,20.31-14.12-20.31H232.63A11.6,11.6,0,0,1,221.28,1425v-46.53a11.61,11.61,0,0,1,11.35-11.85h53.61a11.61,11.61,0,0,1,11.35,11.85Z"/><rect class="cls-31" x="252.07" y="1604.25" width="9.77" height="9.77" rx="3.09"/><rect class="cls-31" x="266.33" y="1591.25" width="14" height="14" rx="3.09"/><rect class="cls-31" x="242.69" y="1580.17" width="19.15" height="19.15" rx="3.09"/><path class="cls-31" d="M297.59,1617.79a11.61,11.61,0,0,1-11.35,11.85H273.41l-14,20.31-14.12-20.31H232.63a11.61,11.61,0,0,1-11.35-11.85v-46.54a11.61,11.61,0,0,1,11.35-11.85h53.61a11.61,11.61,0,0,1,11.35,11.85Z"/><circle class="cls-31" cx="259.86" cy="1797.39" r="22.17"/><circle class="cls-31" cx="259.86" cy="1797.39" r="13.22"/><line class="cls-32" x1="282.03" y1="1819.56" x2="259.86" y2="1797.39"/><polyline class="cls-33" points="265.6 1797.39 259.86 1797.39 259.86 1803.29"/><path class="cls-31" d="M297.59,1820.2a11.6,11.6,0,0,1-11.35,11.85H273.41l-14,20.31-14.12-20.31H232.63a11.6,11.6,0,0,1-11.35-11.85v-46.53a11.61,11.61,0,0,1,11.35-11.85h53.61a11.61,11.61,0,0,1,11.35,11.85Z"/><text class="cls-13" transform="translate(753.31 1126.49)">Photography</text><text class="cls-13" transform="translate(779.72 1310.8)">Quick<tspan x="1.98" y="24">Links</tspan></text><text class="cls-13" transform="translate(789.19 1510.11)">Red</text><path class="cls-31" d="M768.65,1188A11.61,11.61,0,0,1,780,1176.12h12.84l14-20.31,14.11,20.31h12.69A11.61,11.61,0,0,1,845,1188v46.53a11.6,11.6,0,0,1-11.35,11.85H780a11.6,11.6,0,0,1-11.35-11.85Z"/><circle class="cls-31" cx="806.44" cy="1212.05" r="9.59"/><circle class="cls-31" cx="806.44" cy="1212.05" r="4.36"/><circle class="cls-31" cx="819.83" cy="1199.18" r="2.05"/><rect class="cls-31" x="786.6" y="1192.2" width="39.69" height="39.69" rx="4.82"/><path class="cls-31" d="M768.65,1566.59A11.61,11.61,0,0,1,780,1554.74h12.84l14-20.31,14.11,20.31h12.69A11.61,11.61,0,0,1,845,1566.59v46.54A11.61,11.61,0,0,1,833.61,1625H780a11.61,11.61,0,0,1-11.35-11.85Z"/><path class="cls-31" d="M818.9,1583.4l4.43-4.43a3.85,3.85,0,0,0,0-5.44h0a3.85,3.85,0,0,0-5.44,0l-4.43,4.43-3.08-3.07-3.42,3.43,11.58,11.58,3.43-3.43Z"/><path class="cls-31" d="M796.86,1604.55l-5,2.31a1.44,1.44,0,0,1-1.62-.29h0A1.44,1.44,0,0,1,790,1605l2.31-5a10.74,10.74,0,0,1,2.09-3L810,1581.39l5.44,5.44-15.63,15.62A10.38,10.38,0,0,1,796.86,1604.55Z"/><path class="cls-34" d="M790.28,1606.57h0a1.44,1.44,0,0,0,1.62.29l5-2.31a10.38,10.38,0,0,0,3-2.1l9.75-9.75-10.55-.32L794.4,1597a10.74,10.74,0,0,0-2.09,3l-2.31,5a1.44,1.44,0,0,0,.28,1.61"/><path class="cls-31" d="M768.65,1390.66A11.61,11.61,0,0,1,780,1378.81h12.84l14-20.31,14.11,20.31h12.69A11.61,11.61,0,0,1,845,1390.66v46.54a11.61,11.61,0,0,1-11.35,11.85H780a11.61,11.61,0,0,1-11.35-11.85Z"/><path class="cls-33" d="M807.74,1416.11a6.09,6.09,0,0,1-8.6,0l-9.35-9.35a6.09,6.09,0,0,1,0-8.6l1.91-1.91a6.08,6.08,0,0,1,8.59,0l7.14,7.14"/><path class="cls-33" d="M805.72,1410.28a6.09,6.09,0,0,1,8.6,0l9.35,9.35a6.07,6.07,0,0,1,0,8.6l-1.91,1.9a6.06,6.06,0,0,1-8.59,0l-7.32-7.31"/></g></svg>