<svg id="Layer_1" data-name="Layer 1" xmlns="http://www.w3.org/2000/svg" xmlns:xlink="http://www.w3.org/1999/xlink" viewBox="0 0 1065 874.47"><defs><style>.cls-1,.cls-10,.cls-12,.cls-6{fill:none;}.cls-2{fill:#2d2d2d;}.cls-3{fill:#63332a;}.cls-4{fill:#80332a;}.cls-11,.cls-5{fill:#3c3c3c;}.cls-10,.cls-11,.cls-12,.cls-13,.cls-6{stroke:#fff;stroke-linejoin:round;}.cls-12,.cls-6{stroke-linecap:round;}.cls-6{stroke-width:3px;stroke-dasharray:0.25 10;}.cls-13,.cls-7{fill:#fff;}.cls-8{clip-path:url(#clip-path);}.cls-9{fill:gray;}.cls-10,.cls-11,.cls-12,.cls-13{stroke-width:2px;}</style><clipPath id="clip-path"><path class="cls-1" d="M908.81,2135.88h62.11V874.47h-875L95,1592.35C445.57,1627.52,564.66,2135.88,908.81,2135.88Z"/></clipPath></defs><title>CCSF</title><g id="Previous_bg" data-name="Previous bg"><polygon class="cls-2" points="301.6 482.08 301.6 544.98 131.41 544.98 56.41 482.15 56.41 474.53 301.6 482.08"/><polygon class="cls-3" points="766.7 487.78 766.7 424.88 936.89 424.88 1011.89 487.78 1011.89 500.27 766.7 487.78"/><path class="cls-4" d="M970.92,487.78V-1176.65h-875V813h875V715.7l41,0V487.78Z"/><path class="cls-5" d="M118.52,216.14H56.41v266H95.35v397.5H970.92V715.7C590,715.7,475,216.14,118.52,216.14Z"/><line class="cls-6" x1="205.38" y1="-292.68" x2="205.38" y2="79.35"/><line class="cls-6" x1="532.5" y1="-60.35" x2="532.5" y2="804.88"/><path class="cls-7" d="M294.45,128.41H297l6.16,14.16h-3.52l-1.22-3H293l-1.18,3h-3.44Zm1.2,4.12-1.72,4.4h3.46Z"/><path class="cls-7" d="M304.61,128.41h5.48c2.9,0,5.34,1,5.34,4.3a3.65,3.65,0,0,1-3.06,3.88l3.6,6h-3.74l-3-5.66h-1.54v5.66h-3.12Zm3.12,5.86h1.84c1.14,0,2.62,0,2.62-1.58s-1.28-1.64-2.42-1.64h-2Z"/><path class="cls-7" d="M317.69,128.41h9.62v2.88h-6.5v2.64H327v2.88h-6.14v2.88h6.86v2.88h-10Z"/><path class="cls-7" d="M334.83,128.41h2.58l6.16,14.16h-3.52l-1.22-3h-5.5l-1.18,3h-3.44Zm1.2,4.12-1.72,4.4h3.46Z"/><path class="cls-7" d="M352,131.87a3,3,0,0,0-2.26-.94c-.88,0-2.1.4-2.1,1.46,0,2.58,6.52.92,6.52,5.88,0,3.16-2.54,4.66-5.46,4.66a6.72,6.72,0,0,1-4.76-1.78l2.22-2.44a3.47,3.47,0,0,0,2.72,1.34c1,0,2.16-.48,2.16-1.48,0-2.6-6.64-1.2-6.64-5.92,0-3,2.62-4.6,5.4-4.6a6.4,6.4,0,0,1,4.34,1.48Z"/><path class="cls-7" d="M362.51,128.41H372v2.88h-6.38v2.88h5.9v2.88h-5.9v5.52h-3.12Z"/><path class="cls-7" d="M381.13,128.05c4.42,0,7.64,2.9,7.64,7.44s-3.22,7.44-7.64,7.44-7.64-2.9-7.64-7.44S376.71,128.05,381.13,128.05Zm0,12a4.56,4.56,0,1,0-4.4-4.56A4.27,4.27,0,0,0,381.13,140.05Z"/><path class="cls-7" d="M390.89,128.41h5.48c2.9,0,5.34,1,5.34,4.3a3.65,3.65,0,0,1-3.06,3.88l3.6,6h-3.74l-3-5.66H394v5.66h-3.12Zm3.12,5.86h1.84c1.14,0,2.62,0,2.62-1.58s-1.28-1.64-2.42-1.64h-2Z"/><path class="cls-7" d="M273.27,154.41h3.12v14.16h-3.12Z"/><path class="cls-7" d="M279.23,154.41H284l3.26,9.24h0l3.28-9.24h4.7v14.16h-3.12V157.71h0l-3.72,10.86H286l-3.58-10.86h0v10.86h-3.12Z"/><path class="cls-7" d="M298.11,154.41h5.26c2.94,0,5.38.94,5.38,4.3s-2.26,4.34-5.24,4.34h-2.28v5.52h-3.12Zm3.12,6h2.08c1.1,0,2.2-.38,2.2-1.7s-1.48-1.66-2.68-1.66h-1.6Z"/><path class="cls-7" d="M310.71,154.41h5.48c2.9,0,5.34,1,5.34,4.3a3.65,3.65,0,0,1-3.06,3.88l3.6,6h-3.74l-3-5.66h-1.54v5.66h-3.12Zm3.12,5.86h1.84c1.14,0,2.62,0,2.62-1.58s-1.28-1.64-2.42-1.64h-2Z"/><path class="cls-7" d="M330.55,154.05c4.42,0,7.64,2.9,7.64,7.44s-3.22,7.44-7.64,7.44-7.64-2.9-7.64-7.44S326.13,154.05,330.55,154.05Zm0,12a4.56,4.56,0,1,0-4.4-4.56A4.27,4.27,0,0,0,330.55,166.05Z"/><path class="cls-7" d="M338.91,154.41h3.56l3.5,9.28h0l3.56-9.28h3.34l-5.84,14.16h-2.5Z"/><path class="cls-7" d="M354.51,154.41h9.62v2.88h-6.5v2.64h6.14v2.88h-6.14v2.88h6.86v2.88h-10Z"/><path class="cls-7" d="M367,154.41h4.72l3.26,9.24h0l3.28-9.24H383v14.16h-3.12V157.71h0l-3.72,10.86h-2.38l-3.58-10.86h0v10.86H367Z"/><path class="cls-7" d="M386,154.41h9.62v2.88h-6.5v2.64h6.14v2.88h-6.14v2.88H396v2.88H386Z"/><path class="cls-7" d="M398.47,154.41h4.24l6,9.84h0v-9.84h3.12v14.16h-4.08l-6.18-10.08h0v10.08h-3.12Z"/><path class="cls-7" d="M417.51,157.17h-4v-2.76h11.2v2.76h-4v11.4h-3.12Z"/><path class="cls-7" d="M654.27,756.59h2.58L663,770.75h-3.52l-1.22-3h-5.5l-1.18,3h-3.44Zm1.2,4.12-1.72,4.4h3.46Z"/><path class="cls-7" d="M664.43,756.59h5.48c2.9,0,5.34,1,5.34,4.3a3.65,3.65,0,0,1-3.06,3.88l3.6,6h-3.74l-3-5.66h-1.54v5.66h-3.12Zm3.12,5.86h1.84c1.14,0,2.62,0,2.62-1.58s-1.28-1.64-2.42-1.64h-2Z"/><path class="cls-7" d="M677.51,756.59h9.62v2.88h-6.5v2.64h6.14V765h-6.14v2.88h6.86v2.88h-10Z"/><path class="cls-7" d="M694.65,756.59h2.58l6.16,14.16h-3.52l-1.22-3h-5.5l-1.18,3h-3.44Zm1.2,4.12-1.72,4.4h3.46Z"/><path class="cls-7" d="M711.81,760.05a3,3,0,0,0-2.26-.94c-.88,0-2.1.4-2.1,1.46,0,2.58,6.52.92,6.52,5.88,0,3.16-2.54,4.66-5.46,4.66a6.72,6.72,0,0,1-4.76-1.78l2.22-2.44a3.47,3.47,0,0,0,2.72,1.34c1,0,2.16-.48,2.16-1.48,0-2.6-6.64-1.2-6.64-5.92,0-3,2.62-4.6,5.4-4.6a6.4,6.4,0,0,1,4.34,1.48Z"/><path class="cls-7" d="M720.73,756.59h3.4l2.26,9.08h0l3-9.08h2.9l2.94,9.32h0l2.38-9.32h3.16l-4.14,14.16h-2.78l-3.12-9.8h0l-3.12,9.8h-2.68Z"/><path class="cls-7" d="M749.09,756.23c4.42,0,7.64,2.9,7.64,7.44s-3.22,7.44-7.64,7.44-7.64-2.9-7.64-7.44S744.67,756.23,749.09,756.23Zm0,12a4.56,4.56,0,1,0-4.4-4.56A4.27,4.27,0,0,0,749.09,768.23Z"/><path class="cls-7" d="M758.85,756.59h5.48c2.9,0,5.34,1,5.34,4.3a3.65,3.65,0,0,1-3.06,3.88l3.6,6h-3.74l-3-5.66H762v5.66h-3.12Zm3.12,5.86h1.84c1.14,0,2.62,0,2.62-1.58s-1.28-1.64-2.42-1.64h-2Z"/><path class="cls-7" d="M774.19,759.35h-4v-2.76h11.2v2.76h-4v11.4h-3.12Z"/><path class="cls-7" d="M782.93,756.59h3.12v5.28h6.06v-5.28h3.12v14.16h-3.12v-6.12h-6.06v6.12h-3.12Z"/><path class="cls-7" d="M679,782.59h3.12v5.88l5.5-5.88h4.08l-6.3,6.58,6.84,7.58h-4.36L682.09,790v6.72H679Z"/><path class="cls-7" d="M693.41,782.59H703v2.88h-6.5v2.64h6.14V791h-6.14v2.88h6.86v2.88h-10Z"/><path class="cls-7" d="M706,782.59h9.62v2.88h-6.5v2.64h6.14V791h-6.14v2.88H716v2.88H706Z"/><path class="cls-7" d="M718.49,782.59h5.26c2.94,0,5.38.94,5.38,4.3s-2.26,4.34-5.24,4.34h-2.28v5.52h-3.12Zm3.12,6h2.08c1.1,0,2.2-.38,2.2-1.7s-1.48-1.66-2.68-1.66h-1.6Z"/><path class="cls-7" d="M731.05,782.59h3.12v14.16h-3.12Z"/><path class="cls-7" d="M737,782.59h4.24l6,9.84h0v-9.84h3.12v14.16h-4.08l-6.18-10.08h0v10.08H737Z"/><path class="cls-7" d="M766.13,795.75a12.7,12.7,0,0,1-5.94,1.36c-4.42,0-7.64-2.9-7.64-7.44s3.22-7.44,7.64-7.44a8,8,0,0,1,5.64,1.82l-2.2,2.4a4.36,4.36,0,0,0-3.44-1.34,4.56,4.56,0,0,0,0,9.12,6.11,6.11,0,0,0,2.94-.7v-2.3h-2.54v-2.88h5.54Z"/><g class="cls-8"><path class="cls-9" d="M545.46,1634.92H545V1631h-1.37v-.44h3.24v.44h-1.37v3.88m3.31.06a1.51,1.51,0,0,1-1.14-.44,1.73,1.73,0,0,1-.41-1.22,1.86,1.86,0,0,1,.38-1.24,1.28,1.28,0,0,1,1-.47,1.2,1.2,0,0,1,1,.41,1.53,1.53,0,0,1,.36,1.06v.31h-2.23a1.22,1.22,0,0,0,.29.86,1,1,0,0,0,.76.3,2.69,2.69,0,0,0,1-.22v.44a2.54,2.54,0,0,1-.49.16,2.87,2.87,0,0,1-.55,0m-.13-3a.8.8,0,0,0-.63.26,1.06,1.06,0,0,0-.27.7h1.69a1.11,1.11,0,0,0-.2-.71.75.75,0,0,0-.59-.25m4.23,2a.83.83,0,0,1-.33.7,1.56,1.56,0,0,1-.95.25,2,2,0,0,1-1-.21v-.45a2,2,0,0,0,.5.18,1.84,1.84,0,0,0,.51.07,1.16,1.16,0,0,0,.59-.12.43.43,0,0,0,0-.7,2.7,2.7,0,0,0-.64-.31,3.77,3.77,0,0,1-.65-.3.93.93,0,0,1-.28-.28.79.79,0,0,1-.09-.38.75.75,0,0,1,.32-.63,1.53,1.53,0,0,1,.88-.24,2.51,2.51,0,0,1,1,.22l-.18.4a2.41,2.41,0,0,0-.89-.2,1,1,0,0,0-.52.11.33.33,0,0,0-.18.3.32.32,0,0,0,.07.22,1,1,0,0,0,.21.18l.57.24a2.07,2.07,0,0,1,.78.42.78.78,0,0,1,.2.53m1.84.54.25,0,.19,0v.37l-.23.06-.28,0q-.93,0-.93-1v-1.93h-.47v-.24l.47-.21.2-.68h.28v.75h.94v.38h-.94V1634a.64.64,0,0,0,.14.44.46.46,0,0,0,.38.16m1.58.35h-.49v-3.24h.49v3.24m-.53-4.11a.38.38,0,0,1,.08-.26.38.38,0,0,1,.21-.07.28.28,0,0,1,.2.08.3.3,0,0,1,.09.25.3.3,0,0,1-.09.24.28.28,0,0,1-.2.08.32.32,0,0,1-.21-.08.33.33,0,0,1-.08-.24m3.78,4.11v-2.1a.85.85,0,0,0-.18-.59.72.72,0,0,0-.56-.2.92.92,0,0,0-.75.28,1.38,1.38,0,0,0-.23.91v1.7h-.49v-3.24h.4l.08.44h0a1.08,1.08,0,0,1,.42-.37,1.48,1.48,0,0,1,.61-.14,1.23,1.23,0,0,1,.88.29,1.2,1.2,0,0,1,.3.91v2.11h-.5m4.14-3.24v.31l-.6.07a.76.76,0,0,1,.15.27,1,1,0,0,1-.26,1.13,1.24,1.24,0,0,1-.89.29l-.27,0a.48.48,0,0,0-.31.42.2.2,0,0,0,.11.19.8.8,0,0,0,.37.06h.58a1.23,1.23,0,0,1,.8.23.75.75,0,0,1,.28.64.94.94,0,0,1-.43.83,2.34,2.34,0,0,1-1.25.27,1.77,1.77,0,0,1-1-.23.77.77,0,0,1-.35-.67.81.81,0,0,1,.19-.52.88.88,0,0,1,.53-.28.6.6,0,0,1-.21-.18.5.5,0,0,1-.08-.27.57.57,0,0,1,.09-.32,1.11,1.11,0,0,1,.3-.25,1,1,0,0,1-.41-.35,1.1,1.1,0,0,1-.15-.57,1,1,0,0,1,.32-.82,1.3,1.3,0,0,1,.9-.3,1.7,1.7,0,0,1,.46.07h1.11m-2.57,3.79a.43.43,0,0,0,.22.39,1.18,1.18,0,0,0,.63.13,1.72,1.72,0,0,0,.92-.18.57.57,0,0,0,.29-.5.39.39,0,0,0-.16-.36,1.24,1.24,0,0,0-.61-.1h-.59a.75.75,0,0,0-.52.16.56.56,0,0,0-.18.46m.26-2.75a.64.64,0,0,0,.19.51.77.77,0,0,0,.54.18.63.63,0,0,0,.72-.7.65.65,0,0,0-.73-.73.69.69,0,0,0-.53.19.71.71,0,0,0-.19.55M467.58,17.4a.67.67,0,0,0,.2.52.78.78,0,0,0,.53.17.63.63,0,0,0,.72-.7.64.64,0,0,0-.72-.72.72.72,0,0,0-.54.18.76.76,0,0,0-.19.55M568,1634a.81.81,0,0,1-.33.7,1.54,1.54,0,0,1-.95.25,2,2,0,0,1-1-.21v-.45a2.3,2.3,0,0,0,.5.18,1.91,1.91,0,0,0,.52.07,1.18,1.18,0,0,0,.59-.12.4.4,0,0,0,.21-.38.41.41,0,0,0-.17-.32,2.34,2.34,0,0,0-.64-.31,3.59,3.59,0,0,1-.64-.3.93.93,0,0,1-.28-.28.79.79,0,0,1-.09-.38.72.72,0,0,1,.32-.63,1.51,1.51,0,0,1,.88-.24,2.51,2.51,0,0,1,1,.22l-.19.4a2.36,2.36,0,0,0-.88-.2,1,1,0,0,0-.52.11.33.33,0,0,0-.18.3.32.32,0,0,0,.07.22.65.65,0,0,0,.21.18l.57.24a2.25,2.25,0,0,1,.78.42.77.77,0,0,1,.19.53m2.17,1a1.51,1.51,0,0,1-1.13-.44,1.69,1.69,0,0,1-.42-1.22,1.86,1.86,0,0,1,.39-1.24,1.27,1.27,0,0,1,1-.47,1.22,1.22,0,0,1,1,.41,1.57,1.57,0,0,1,.35,1.06v.31h-2.23a1.27,1.27,0,0,0,.29.86,1,1,0,0,0,.77.3,2.69,2.69,0,0,0,1-.22v.44a2.78,2.78,0,0,1-.49.16,3,3,0,0,1-.56,0m-.13-3a.83.83,0,0,0-.63.26,1.18,1.18,0,0,0-.27.7h1.69a1.06,1.06,0,0,0-.2-.71.74.74,0,0,0-.59-.25m3.63-.42a1.6,1.6,0,0,1,.39.05l-.08.46a1.63,1.63,0,0,0-.35,0,.83.83,0,0,0-.67.32,1.12,1.12,0,0,0-.28.79v1.74h-.49v-3.24h.4l.06.6h0a1.29,1.29,0,0,1,.43-.49,1,1,0,0,1,.56-.18m1.69,3.31-1.23-3.24h.53l.69,1.93c.16.44.25.73.29.86h0c0-.1.09-.31.2-.64l.78-2.15h.53l-1.23,3.24h-.58m2.81,0h-.49v-3.24h.49v3.24m-.53-4.11a.38.38,0,0,1,.08-.26.35.35,0,0,1,.21-.07.3.3,0,0,1,.2.08.34.34,0,0,1,.08.25.33.33,0,0,1-.08.24.3.3,0,0,1-.2.08.3.3,0,0,1-.21-.08.33.33,0,0,1-.08-.24m2.86,4.17a1.38,1.38,0,0,1-1.09-.43,1.78,1.78,0,0,1-.39-1.23,1.82,1.82,0,0,1,.4-1.25,1.4,1.4,0,0,1,1.11-.46,2.63,2.63,0,0,1,.47.06,1.67,1.67,0,0,1,.36.12l-.15.42a1.3,1.3,0,0,0-.35-.11,1.48,1.48,0,0,0-.34,0c-.66,0-1,.42-1,1.25a1.49,1.49,0,0,0,.24.91.81.81,0,0,0,.71.33,2.18,2.18,0,0,0,.83-.18v.43a1.69,1.69,0,0,1-.82.18m3,0a1.51,1.51,0,0,1-1.14-.44,1.73,1.73,0,0,1-.41-1.22,1.86,1.86,0,0,1,.38-1.24,1.3,1.3,0,0,1,1-.47,1.2,1.2,0,0,1,1,.41,1.53,1.53,0,0,1,.36,1.06v.31H582.4a1.27,1.27,0,0,0,.29.86,1,1,0,0,0,.76.3,2.73,2.73,0,0,0,1-.22v.44a2.87,2.87,0,0,1-.5.16,2.79,2.79,0,0,1-.55,0m-.13-3a.81.81,0,0,0-.63.26,1.12,1.12,0,0,0-.27.7h1.69a1.11,1.11,0,0,0-.2-.71.75.75,0,0,0-.59-.25m4.23,2a.83.83,0,0,1-.33.7,1.56,1.56,0,0,1-1,.25,2,2,0,0,1-1-.21v-.45a2.13,2.13,0,0,0,.5.18,1.84,1.84,0,0,0,.51.07,1.16,1.16,0,0,0,.59-.12.4.4,0,0,0,.21-.38.43.43,0,0,0-.16-.32,2.7,2.7,0,0,0-.64-.31,3.27,3.27,0,0,1-.64-.3,1,1,0,0,1-.29-.28.79.79,0,0,1-.09-.38.75.75,0,0,1,.32-.63,1.54,1.54,0,0,1,.89-.24,2.5,2.5,0,0,1,1,.22l-.18.4a2.4,2.4,0,0,0-.88-.2,1.07,1.07,0,0,0-.53.11.32.32,0,0,0-.17.3.38.38,0,0,0,.06.22,1,1,0,0,0,.21.18c.1.05.29.13.58.24a2.09,2.09,0,0,1,.77.42.78.78,0,0,1,.2.53m3.82-2h-.82v2.86h-.49v-2.86h-.58v-.22l.58-.17v-.19c0-.8.34-1.19,1-1.19a2.08,2.08,0,0,1,.6.1l-.13.39a1.54,1.54,0,0,0-.47-.09.5.5,0,0,0-.42.19,1.1,1.1,0,0,0-.13.59v.21h.82v.38m3.39,1.24a1.85,1.85,0,0,1-.4,1.24,1.58,1.58,0,0,1-1.88.23,1.4,1.4,0,0,1-.52-.58,2,2,0,0,1-.18-.89,1.74,1.74,0,0,1,.4-1.23,1.52,1.52,0,0,1,2.18,0,1.82,1.82,0,0,1,.4,1.23m-2.47,0a1.63,1.63,0,0,0,.25,1,1,1,0,0,0,1.46,0,1.63,1.63,0,0,0,.25-1,1.55,1.55,0,0,0-.25-.94.88.88,0,0,0-.74-.33.85.85,0,0,0-.72.32,1.52,1.52,0,0,0-.25,1m4.8-1.69a1.46,1.46,0,0,1,.38.05l-.07.46a1.63,1.63,0,0,0-.35,0,.86.86,0,0,0-.68.32,1.17,1.17,0,0,0-.27.79v1.74h-.49v-3.24h.4l.06.6h0a1.29,1.29,0,0,1,.43-.49,1,1,0,0,1,.56-.18"/></g><line class="cls-6" x1="70.4" y1="153.65" x2="995.49" y2="-291.22"/></g><g id="Persona"><path class="cls-7" d="M316.84,337l-.24.8a2,2,0,0,0-1.12.42,3.58,3.58,0,0,0-.79,1.59L311.86,349h-1.11l-4-8.93-1.85,6.09a3.48,3.48,0,0,0-.19.9.84.84,0,0,0,.46.82,2.17,2.17,0,0,0,1,.23l-.25.8h-4l.25-.8a1.67,1.67,0,0,0,1.19-.72,5.54,5.54,0,0,0,.66-1.52l2.14-7.05-.19-.33a1.34,1.34,0,0,0-.55-.58,3.12,3.12,0,0,0-1-.11l.25-.8h3.24l4,8.87,1.72-5.6c0-.12.08-.27.14-.45s.1-.34.14-.5a1.71,1.71,0,0,0,.06-.43,1.06,1.06,0,0,0-.33-.74,1.59,1.59,0,0,0-1.16-.35l.25-.8Z"/><path class="cls-7" d="M324.34,346.8a5.83,5.83,0,0,1-.57.95,4.24,4.24,0,0,1-.7.76,3,3,0,0,1-.78.49,2.06,2.06,0,0,1-.81.17c-.62,0-1-.19-1.18-.56a3,3,0,0,1-.26-1.33,8.8,8.8,0,0,1-1.39,1.36,2.52,2.52,0,0,1-1.57.53,1.31,1.31,0,0,1-.86-.29,1.62,1.62,0,0,1-.5-.77,3.13,3.13,0,0,1-.17-1,6.11,6.11,0,0,1,.61-2.51,6.32,6.32,0,0,1,1.65-2.21,3.36,3.36,0,0,1,2.24-.9,1.47,1.47,0,0,1,.87.22,1.18,1.18,0,0,1,.44.49,4.34,4.34,0,0,1,.21.61l.32-1.1h1.94L322.2,347a3.76,3.76,0,0,0-.18.71.27.27,0,0,0,.08.19.25.25,0,0,0,.17.08c.38,0,.79-.41,1.22-1.22Zm-3.27-3.5a1.53,1.53,0,0,0-.17-.74.6.6,0,0,0-.59-.31A1.72,1.72,0,0,0,319,343a6.11,6.11,0,0,0-1,1.84,5.47,5.47,0,0,0-.38,1.81c0,.71.22,1.07.66,1.07a1.45,1.45,0,0,0,1-.43,4.54,4.54,0,0,0,.9-1.14,6.73,6.73,0,0,0,.66-1.49A4.6,4.6,0,0,0,321.07,343.3Z"/><path class="cls-7" d="M333.61,342.81a5.25,5.25,0,0,1-.5,2.09,8.48,8.48,0,0,1-1.36,2.1,7.28,7.28,0,0,1-1.91,1.57,4.3,4.3,0,0,1-2.12.6,2.65,2.65,0,0,1-1-.18,1.7,1.7,0,0,1-1.11-1.69,2.5,2.5,0,0,1,.42-1.43,7,7,0,0,1,1.23-1.32,10.49,10.49,0,0,0,1-.88,3.54,3.54,0,0,0,.55-.8,2.22,2.22,0,0,1-1.31.46,1.92,1.92,0,0,1-.92-.27,1,1,0,0,0-.45-.16c-.27,0-.45.18-.54.52h-.74c.4-1.31,1-2,1.8-2a2.1,2.1,0,0,1,1.28.58,1.83,1.83,0,0,0,.35.24.53.53,0,0,0,.24.06q.39,0,.51-.48c.06-.27.18-.4.36-.4a.41.41,0,0,1,.32.13.51.51,0,0,1,.11.34,2.26,2.26,0,0,1-.25,1,12.79,12.79,0,0,1-.67,1.16,13.87,13.87,0,0,0-1,1.76,2.92,2.92,0,0,0-.27,1.12.85.85,0,0,0,.34.76,1.34,1.34,0,0,0,.76.23,2.63,2.63,0,0,0,1.65-.63,5.41,5.41,0,0,0,1.27-1.51,3.27,3.27,0,0,0,.48-1.53,4,4,0,0,0-.14-.95,2.83,2.83,0,0,1-.13-.81,1,1,0,0,1,.26-.81.78.78,0,0,1,.55-.24.76.76,0,0,1,.66.37A1.7,1.7,0,0,1,333.61,342.81Z"/><path class="cls-7" d="M339.38,346.8a5.92,5.92,0,0,1-1.07,1.57,2.39,2.39,0,0,1-1.83.8,1.5,1.5,0,0,1-1.11-.37,1.19,1.19,0,0,1-.37-.86,4.54,4.54,0,0,1,.33-1.42l1.13-3.1a1.74,1.74,0,0,0,.17-.57.29.29,0,0,0-.08-.18.25.25,0,0,0-.17-.08c-.2,0-.42.16-.66.47a4.71,4.71,0,0,0-.53.84h-.77a4.37,4.37,0,0,1,1.35-1.8,2.67,2.67,0,0,1,1.65-.64,1.54,1.54,0,0,1,1,.29.89.89,0,0,1,.39.76,2.84,2.84,0,0,1-.2,1l-1.37,3.68a2,2,0,0,0-.14.62.3.3,0,0,0,.09.2.21.21,0,0,0,.18.1.79.79,0,0,0,.54-.28,4.88,4.88,0,0,0,.7-1Zm.65-8.88a1.07,1.07,0,0,1-.34.81,1.06,1.06,0,0,1-.79.34,1.08,1.08,0,0,1-.82-.34,1.14,1.14,0,0,1,1.39-1.79,1.09,1.09,0,0,1,.56,1Z"/><path class="cls-7" d="M348.81,342.15a.43.43,0,0,1-.19.41.65.65,0,0,1-.36.12.78.78,0,0,1-.46-.16.43.43,0,0,0-.26-.1.37.37,0,0,0-.34.24,4.07,4.07,0,0,1,.27.56,1.94,1.94,0,0,1,.1.69,2.66,2.66,0,0,1-.15.83,2.61,2.61,0,0,1-.57.9,3,3,0,0,1-1.19.74,5.4,5.4,0,0,1-1.93.3,3.87,3.87,0,0,0-1.47.19.61.61,0,0,0-.37.57.35.35,0,0,0,.13.28,1.32,1.32,0,0,0,.4.22c.18.06.5.16,1,.28l1.35.39q2.37.67,2.37,2.19a2,2,0,0,1-.45,1.23,3.33,3.33,0,0,1-1.5.93,8.81,8.81,0,0,1-2.78.37,11.18,11.18,0,0,1-1.6-.14,4.67,4.67,0,0,1-1.67-.58,1.53,1.53,0,0,1-.57-2.06A1.51,1.51,0,0,1,339,350a1,1,0,0,1,.55-.18.61.61,0,0,1,.28.06.18.18,0,0,1,.11.17.76.76,0,0,1-.17.35,1.08,1.08,0,0,0,.65,1.83,6.51,6.51,0,0,0,2,.29,4.84,4.84,0,0,0,2-.33c.49-.22.74-.52.74-.88a.59.59,0,0,0-.15-.43,1.58,1.58,0,0,0-.57-.32c-.28-.11-.79-.28-1.53-.52a15.73,15.73,0,0,1-1.56-.58,2.37,2.37,0,0,1-.83-.6,1.36,1.36,0,0,1-.28-.85,1.43,1.43,0,0,1,.63-1.21,3.35,3.35,0,0,1,1.5-.6,2,2,0,0,1-1-.81,2.17,2.17,0,0,1-.33-1.13,2.39,2.39,0,0,1,.44-1.37,3.21,3.21,0,0,1,1.24-1.05,4,4,0,0,1,1.82-.41,3.22,3.22,0,0,1,2.25.7,4.33,4.33,0,0,1,.61-.51,1.44,1.44,0,0,1,.75-.19.81.81,0,0,1,.55.18A.66.66,0,0,1,348.81,342.15Zm-3.14,1a1.19,1.19,0,0,0-.12-.54.87.87,0,0,0-.35-.39.94.94,0,0,0-.53-.15,1.25,1.25,0,0,0-1,.48,3.3,3.3,0,0,0-.62,1.14,3.71,3.71,0,0,0-.22,1.17,1.09,1.09,0,0,0,.26.79,1,1,0,0,0,.7.25,1.48,1.48,0,0,0,1.36-.95A4,4,0,0,0,345.67,343.19Z"/><path class="cls-7" d="M357.91,346.8a5.83,5.83,0,0,1-.57.95,4.29,4.29,0,0,1-.71.76,2.84,2.84,0,0,1-.77.49,2.08,2.08,0,0,1-.82.17c-.61,0-1-.19-1.18-.56a3.19,3.19,0,0,1-.26-1.33,8.8,8.8,0,0,1-1.39,1.36,2.47,2.47,0,0,1-1.56.53,1.3,1.3,0,0,1-.86-.29,1.63,1.63,0,0,1-.51-.77,3.13,3.13,0,0,1-.16-1,6,6,0,0,1,.61-2.51,6.3,6.3,0,0,1,1.64-2.21,3.4,3.4,0,0,1,2.25-.9,1.47,1.47,0,0,1,.87.22,1.25,1.25,0,0,1,.44.49,6.25,6.25,0,0,1,.2.61l.33-1.1h1.94L355.76,347a4.29,4.29,0,0,0-.17.71.26.26,0,0,0,.07.19.25.25,0,0,0,.17.08c.39,0,.79-.41,1.23-1.22Zm-3.28-3.5a1.53,1.53,0,0,0-.16-.74.61.61,0,0,0-.59-.31,1.72,1.72,0,0,0-1.28.76,6.12,6.12,0,0,0-1,1.84,5.74,5.74,0,0,0-.38,1.81c0,.71.22,1.07.67,1.07a1.43,1.43,0,0,0,.95-.43,4.13,4.13,0,0,0,.9-1.14,7.27,7.27,0,0,0,.67-1.49A4.9,4.9,0,0,0,354.63,343.3Z"/><path class="cls-7" d="M364.34,341.72l-.24.8h-1.75L361,346.87a2.5,2.5,0,0,0-.15.67.52.52,0,0,0,.12.34.41.41,0,0,0,.31.16,1.14,1.14,0,0,0,.9-.5,6.62,6.62,0,0,0,.69-1.08h.83a5.56,5.56,0,0,1-1.11,1.7,3.41,3.41,0,0,1-1.16.81,3,3,0,0,1-1,.2,1.56,1.56,0,0,1-1.18-.44,1.61,1.61,0,0,1-.42-1.17,5.16,5.16,0,0,1,.26-1.36l1.14-3.68h-1.64l.26-.8h1.63l.81-2.68h2.09l-.81,2.68Z"/><path class="cls-7" d="M369.39,346.8a6.17,6.17,0,0,1-1.07,1.57,2.39,2.39,0,0,1-1.83.8,1.5,1.5,0,0,1-1.11-.37,1.15,1.15,0,0,1-.37-.86,4.54,4.54,0,0,1,.33-1.42l1.13-3.1a2.05,2.05,0,0,0,.17-.57.29.29,0,0,0-.08-.18.27.27,0,0,0-.18-.08c-.2,0-.42.16-.65.47a4.2,4.2,0,0,0-.53.84h-.78a4.54,4.54,0,0,1,1.35-1.8,2.69,2.69,0,0,1,1.66-.64,1.56,1.56,0,0,1,1,.29.88.88,0,0,1,.38.76,2.82,2.82,0,0,1-.19,1l-1.37,3.68a1.72,1.72,0,0,0-.14.62.34.34,0,0,0,.08.2.24.24,0,0,0,.18.1.79.79,0,0,0,.55-.28,5.29,5.29,0,0,0,.7-1Zm.65-8.88a1.16,1.16,0,0,1-1.14,1.15,1.14,1.14,0,0,1-1.15-1.15,1.11,1.11,0,0,1,.33-.8,1.19,1.19,0,0,1,1.4-.18,1.21,1.21,0,0,1,.41.4A1.11,1.11,0,0,1,370,337.92Z"/><path class="cls-7" d="M378.56,344.55a4.47,4.47,0,0,1-.34,1.72,4.68,4.68,0,0,1-1,1.49,4.81,4.81,0,0,1-1.54,1,5,5,0,0,1-1.93.37,3.86,3.86,0,0,1-1.81-.4,3,3,0,0,1-1.22-1.13,3.21,3.21,0,0,1-.43-1.64,4.25,4.25,0,0,1,.65-2.24,4.87,4.87,0,0,1,1.78-1.68,4.92,4.92,0,0,1,2.42-.62,3.76,3.76,0,0,1,1.86.43,2.88,2.88,0,0,1,1.18,1.14A3.1,3.1,0,0,1,378.56,344.55Zm-2.08-.6a2.15,2.15,0,0,0-.35-1.29,1.19,1.19,0,0,0-1-.46,1.67,1.67,0,0,0-1.18.49,4.08,4.08,0,0,0-.86,1.24,7.77,7.77,0,0,0-.52,1.49,5.59,5.59,0,0,0-.17,1.3,2.06,2.06,0,0,0,.34,1.23,1.12,1.12,0,0,0,1,.48,1.8,1.8,0,0,0,1.23-.48,3.91,3.91,0,0,0,.88-1.23,7.07,7.07,0,0,0,.51-1.51A6.28,6.28,0,0,0,376.48,344Z"/><path class="cls-7" d="M389.61,346.61a6.67,6.67,0,0,1-.68,1,4.31,4.31,0,0,1-1.09,1,2.5,2.5,0,0,1-1.39.43,1.55,1.55,0,0,1-1-.32,1,1,0,0,1-.38-.83,3.76,3.76,0,0,1,.22-1.1l.64-2.12a4.9,4.9,0,0,0,.27-1.19.56.56,0,0,0-.11-.35.41.41,0,0,0-.33-.16c-.32,0-.71.27-1.16.8a12.27,12.27,0,0,0-1.4,2.16,19.13,19.13,0,0,0-1.22,3h-2.09l1.59-5.15a6.43,6.43,0,0,0,.21-.89.49.49,0,0,0-.06-.22.2.2,0,0,0-.2-.11.86.86,0,0,0-.65.43,4.55,4.55,0,0,0-.53.94h-.74a4.78,4.78,0,0,1,1-1.69,2.27,2.27,0,0,1,1.76-.76,1.32,1.32,0,0,1,1,.37,1.17,1.17,0,0,1,.33.78,4.12,4.12,0,0,1-.09.7c-.07.31-.14.6-.22.87l-.31.9a17.17,17.17,0,0,1,2.05-2.65,2.93,2.93,0,0,1,2.13-1,1.18,1.18,0,0,1,1,.39,1.33,1.33,0,0,1,.31.85,5,5,0,0,1-.21,1.06l-.93,3.06a3.76,3.76,0,0,0-.15.8.26.26,0,0,0,.05.17.19.19,0,0,0,.16.08,1.07,1.07,0,0,0,.62-.35,3.39,3.39,0,0,0,.71-.91Z"/><path class="cls-7" d="M334.43,527.43l-.18.81a2.59,2.59,0,0,0-1.4.4,4.71,4.71,0,0,0-1.32,1.44l-6.23,9.49h-1.67l.32-10.32q0-.68-.24-.84a1.41,1.41,0,0,0-.78-.17l.25-.81h4.73l-.25.81a3.18,3.18,0,0,0-.75.07.87.87,0,0,0-.5.32,1.18,1.18,0,0,0-.21.71l-.23,7.71,4.66-7.2a1.57,1.57,0,0,0,.3-.79c0-.37-.13-.59-.4-.68a3.26,3.26,0,0,0-1-.14l.24-.81Z"/><path class="cls-7" d="M336.94,537.24a5.66,5.66,0,0,1-1.07,1.56,2.33,2.33,0,0,1-1.83.8,1.5,1.5,0,0,1-1.1-.36,1.16,1.16,0,0,1-.37-.87,4.65,4.65,0,0,1,.32-1.41l1.14-3.1a2,2,0,0,0,.16-.58.21.21,0,0,0-.08-.17.25.25,0,0,0-.17-.08c-.2,0-.42.15-.66.47a5.32,5.32,0,0,0-.53.83H332a4.5,4.5,0,0,1,1.35-1.8,2.71,2.71,0,0,1,1.65-.63,1.59,1.59,0,0,1,1,.28.92.92,0,0,1,.38.76,3,3,0,0,1-.19,1l-1.38,3.69a1.91,1.91,0,0,0-.14.61.32.32,0,0,0,.09.21.24.24,0,0,0,.18.1.81.81,0,0,0,.54-.28,5.55,5.55,0,0,0,.71-1Zm.65-8.89a1.14,1.14,0,0,1-.33.82,1.13,1.13,0,0,1-1.62,0,1.14,1.14,0,0,1-.33-.82,1.14,1.14,0,0,1,1.15-1.13,1.17,1.17,0,0,1,.58.15,1.24,1.24,0,0,1,.41.41A1.2,1.2,0,0,1,337.59,528.35Z"/><path class="cls-7" d="M345.33,533.39a.92.92,0,0,1-.24.63.84.84,0,0,1-.66.28.86.86,0,0,1-.49-.13.81.81,0,0,1-.29-.34c-.06-.15-.15-.36-.25-.65a.94.94,0,0,0-.27-.47,1.11,1.11,0,0,0-.7-.16,1.51,1.51,0,0,0-.82.23.72.72,0,0,0-.37.63.94.94,0,0,0,.15.5,2.21,2.21,0,0,0,.37.45,8.67,8.67,0,0,0,.67.59,9.27,9.27,0,0,1,1.25,1.19,1.84,1.84,0,0,1,.39,1.2,2,2,0,0,1-.33,1.09,2.32,2.32,0,0,1-1.11.85,5.06,5.06,0,0,1-2,.32,3.65,3.65,0,0,1-2.43-.63,1.76,1.76,0,0,1-.7-1.24,1,1,0,0,1,.27-.69.92.92,0,0,1,.72-.3c.6,0,.94.38,1,1.15a1.63,1.63,0,0,0,.27.78,1.1,1.1,0,0,0,.9.28,1.49,1.49,0,0,0,1-.3.92.92,0,0,0,.38-.76.94.94,0,0,0-.13-.48,2.16,2.16,0,0,0-.53-.58c-.47-.4-.86-.75-1.17-1.06a4,4,0,0,1-.7-.88,1.74,1.74,0,0,1-.24-.88,1.85,1.85,0,0,1,.27-.9,2.32,2.32,0,0,1,1-.85,4.86,4.86,0,0,1,2.05-.36A5.2,5.2,0,0,1,344,532a2.54,2.54,0,0,1,.84.37,1.31,1.31,0,0,1,.4.47A1.19,1.19,0,0,1,345.33,533.39Z"/><path class="cls-7" d="M355.65,537.13a6.34,6.34,0,0,1-1,1.67,2.29,2.29,0,0,1-1.85.8,1.19,1.19,0,0,1-1-.38,1.43,1.43,0,0,1-.29-.9,2.4,2.4,0,0,1,.08-.58c0-.24.13-.51.21-.8l.29-1a16,16,0,0,1-1.93,2.59,3,3,0,0,1-2.22,1.06,1.24,1.24,0,0,1-1-.36,1.22,1.22,0,0,1-.34-.85,4.74,4.74,0,0,1,.25-1.26l.89-2.9a2.6,2.6,0,0,0,.17-.75.49.49,0,0,0-.06-.22.26.26,0,0,0-.23-.11c-.34,0-.78.41-1.31,1.23h-.8a8.64,8.64,0,0,1,1.33-1.68,2.51,2.51,0,0,1,1.83-.72,1.68,1.68,0,0,1,.92.27,1.09,1.09,0,0,1,.42,1,2.3,2.3,0,0,1-.12.77l-.72,2.34a4.74,4.74,0,0,0-.24,1.17.64.64,0,0,0,.11.37.37.37,0,0,0,.33.17,1.6,1.6,0,0,0,1-.62,9.21,9.21,0,0,0,1.33-2,23.73,23.73,0,0,0,1.4-3.34h2.09l-1.64,5.36a3.78,3.78,0,0,0-.16.69.37.37,0,0,0,.08.21.23.23,0,0,0,.18.11.8.8,0,0,0,.63-.44,7.81,7.81,0,0,0,.53-1Z"/><path class="cls-7" d="M365.39,537.24a5.6,5.6,0,0,1-.58,1,3.87,3.87,0,0,1-.7.75,3.1,3.1,0,0,1-.78.5,2.05,2.05,0,0,1-.81.16c-.61,0-1-.18-1.18-.55a3.23,3.23,0,0,1-.26-1.34,8.9,8.9,0,0,1-1.39,1.37,2.51,2.51,0,0,1-1.56.52,1.32,1.32,0,0,1-.87-.28,1.75,1.75,0,0,1-.5-.77,3.19,3.19,0,0,1-.16-1,6,6,0,0,1,.6-2.5,6.58,6.58,0,0,1,1.65-2.22,3.37,3.37,0,0,1,2.25-.89,1.47,1.47,0,0,1,.87.22,1.16,1.16,0,0,1,.43.49,4.2,4.2,0,0,1,.21.6l.32-1.09h1.95l-1.64,5.36a3.37,3.37,0,0,0-.17.7.25.25,0,0,0,.07.19.21.21,0,0,0,.17.08c.38,0,.79-.4,1.22-1.21Zm-3.28-3.51a1.58,1.58,0,0,0-.17-.74.6.6,0,0,0-.59-.3,1.71,1.71,0,0,0-1.28.76,6.27,6.27,0,0,0-1,1.83,5.79,5.79,0,0,0-.38,1.82c0,.71.22,1.06.67,1.06a1.48,1.48,0,0,0,.95-.42,4.45,4.45,0,0,0,.9-1.14,6.6,6.6,0,0,0,.66-1.5A4.55,4.55,0,0,0,362.11,533.73Z"/><path class="cls-7" d="M371.59,527.22l-3.08,10.08a5.07,5.07,0,0,0-.23.93.36.36,0,0,0,.07.24.21.21,0,0,0,.18.09c.15,0,.37-.14.64-.42a3.26,3.26,0,0,0,.64-.94h.82a7.27,7.27,0,0,1-1.15,1.61,2.32,2.32,0,0,1-1.8.79,1.53,1.53,0,0,1-1.06-.36,1.14,1.14,0,0,1-.4-.88,5.43,5.43,0,0,1,.27-1.33l2.25-7.33a4,4,0,0,0,.22-1,.38.38,0,0,0-.25-.4,2.77,2.77,0,0,0-.93-.1l.21-.81h.94c.4,0,.77,0,1.11,0a5.71,5.71,0,0,0,.95-.17Z"/><path class="cls-7" d="M320.86,551.43l-.25.81a3.8,3.8,0,0,0-.88.08.86.86,0,0,0-.48.36,3,3,0,0,0-.37.88l-2.25,7.36a2.69,2.69,0,0,0-.16.76.68.68,0,0,0,.38.67,1.68,1.68,0,0,0,.77.19l-.24.81h-5.32l.25-.81a3.19,3.19,0,0,0,.95-.11.88.88,0,0,0,.5-.38,3.45,3.45,0,0,0,.35-.85l1.13-3.67h-5.07l-1.05,3.39a3.77,3.77,0,0,0-.16.76.68.68,0,0,0,.4.68,1.68,1.68,0,0,0,.69.18l-.26.81h-4.88l.26-.81a1.42,1.42,0,0,0,.77-.18,1,1,0,0,0,.41-.45,4.88,4.88,0,0,0,.27-.71l2.25-7.35a3.16,3.16,0,0,0,.16-.74.72.72,0,0,0-.31-.67,1.24,1.24,0,0,0-.66-.2l.25-.81h5.14l-.26.81a4.39,4.39,0,0,0-.95.08.87.87,0,0,0-.5.36,3.71,3.71,0,0,0-.37.88l-.93,3h5.07l.85-2.75a3.28,3.28,0,0,0,.16-.72.78.78,0,0,0-.3-.68,1.33,1.33,0,0,0-.76-.21l.25-.81Z"/><path class="cls-7" d="M324.41,561.24a5.94,5.94,0,0,1-1.08,1.56,2.33,2.33,0,0,1-1.82.8,1.53,1.53,0,0,1-1.11-.36,1.16,1.16,0,0,1-.37-.87,4.65,4.65,0,0,1,.32-1.41l1.14-3.1a2.18,2.18,0,0,0,.17-.58.25.25,0,0,0-.08-.17.27.27,0,0,0-.18-.08c-.2,0-.42.15-.65.47a4.79,4.79,0,0,0-.54.83h-.77a4.69,4.69,0,0,1,1.35-1.8,2.74,2.74,0,0,1,1.66-.63,1.58,1.58,0,0,1,1,.28.92.92,0,0,1,.38.76,2.78,2.78,0,0,1-.19,1l-1.37,3.69a1.67,1.67,0,0,0-.14.61.31.31,0,0,0,.08.21.28.28,0,0,0,.18.1.83.83,0,0,0,.55-.28,5.63,5.63,0,0,0,.7-1Zm.65-8.89a1.15,1.15,0,0,1-.34.82,1.12,1.12,0,0,1-.8.34,1.14,1.14,0,0,1-1.15-1.16,1.14,1.14,0,0,1,1.15-1.13,1.14,1.14,0,0,1,.58.15,1.24,1.24,0,0,1,.41.41A1.1,1.1,0,0,1,325.06,552.35Z"/><path class="cls-7" d="M333,557.35a2,2,0,0,1-.22.84,3.18,3.18,0,0,1-.8,1,5.09,5.09,0,0,1-1.67.93,10.62,10.62,0,0,1-2.73.56l-.21,0a3.07,3.07,0,0,0-.07.65,1.2,1.2,0,0,0,.31.93,1.31,1.31,0,0,0,.91.29,3.36,3.36,0,0,0,2.52-1.43H332a6.84,6.84,0,0,1-1.66,1.66,4.32,4.32,0,0,1-2.62.81,3,3,0,0,1-1.81-.56,2,2,0,0,1-.75-1.67,5.15,5.15,0,0,1,.74-2.61,5.94,5.94,0,0,1,2-2.07,5.27,5.27,0,0,1,2.82-.79,2.82,2.82,0,0,1,1.74.41A1.26,1.26,0,0,1,333,557.35Zm-1.85,0a.83.83,0,0,0-.2-.53.7.7,0,0,0-.56-.24,1.76,1.76,0,0,0-1.13.42,4,4,0,0,0-.86,1,6.78,6.78,0,0,0-.58,1.18l-.27.73a5.8,5.8,0,0,0,2.69-1A2,2,0,0,0,331.14,557.32Z"/><path class="cls-7" d="M341.44,557.05a1.61,1.61,0,0,1-.31,1,.91.91,0,0,1-.77.42,1,1,0,0,1-.77-.46c-.15-.18-.28-.27-.42-.27s-.37.14-.65.44a7,7,0,0,0-.85,1.18,16.58,16.58,0,0,0-.85,1.69,17.08,17.08,0,0,0-.73,2l-.11.36h-2.06l1.38-4.93a4.53,4.53,0,0,0,.22-1,.33.33,0,0,0-.07-.21.2.2,0,0,0-.19-.1q-.35,0-.69.48a4.83,4.83,0,0,0-.53.87h-.81a6.85,6.85,0,0,1,1-1.58,3.32,3.32,0,0,1,1-.77,2.19,2.19,0,0,1,.9-.22c.47,0,.77.14.91.44a2,2,0,0,1,.21.86,9.79,9.79,0,0,1-.49,2.4c.33-.57.6-1,.82-1.37a10.78,10.78,0,0,1,.76-1.08,4.65,4.65,0,0,1,.94-.9,1.65,1.65,0,0,1,1-.35,1,1,0,0,1,.9.38A1.48,1.48,0,0,1,341.44,557.05Z"/><path class="cls-7" d="M350.44,561.24a6.29,6.29,0,0,1-.57,1,4.2,4.2,0,0,1-.7.75,3.1,3.1,0,0,1-.78.5,2.07,2.07,0,0,1-.82.16c-.61,0-1-.18-1.18-.55a3.23,3.23,0,0,1-.26-1.34,8.9,8.9,0,0,1-1.39,1.37,2.47,2.47,0,0,1-1.56.52,1.29,1.29,0,0,1-.86-.28,1.69,1.69,0,0,1-.51-.77,3.49,3.49,0,0,1-.16-1,5.91,5.91,0,0,1,.61-2.5,6.33,6.33,0,0,1,1.65-2.22,3.35,3.35,0,0,1,2.24-.89,1.47,1.47,0,0,1,.87.22,1.19,1.19,0,0,1,.44.49,4.22,4.22,0,0,1,.2.6l.33-1.09h1.94l-1.63,5.36a3.74,3.74,0,0,0-.18.7.25.25,0,0,0,.07.19.22.22,0,0,0,.18.08c.38,0,.78-.4,1.22-1.21Zm-3.28-3.51A1.58,1.58,0,0,0,347,557a.62.62,0,0,0-.59-.3,1.69,1.69,0,0,0-1.28.76,5.84,5.84,0,0,0-1,1.83,5.57,5.57,0,0,0-.39,1.82c0,.71.23,1.06.67,1.06a1.46,1.46,0,0,0,.95-.42,4.7,4.7,0,0,0,.91-1.14,7.61,7.61,0,0,0,.66-1.5A4.84,4.84,0,0,0,347.16,557.73Z"/><path class="cls-7" d="M358.88,557.05a1.68,1.68,0,0,1-.31,1,.93.93,0,0,1-.77.42A1,1,0,0,1,357,558a.57.57,0,0,0-.41-.27c-.16,0-.38.14-.65.44a6.45,6.45,0,0,0-.85,1.18,18.84,18.84,0,0,0-.86,1.69,19.18,19.18,0,0,0-.73,2l-.1.36h-2.07l1.38-4.93a4,4,0,0,0,.22-1,.39.39,0,0,0-.06-.21.2.2,0,0,0-.19-.1c-.23,0-.46.16-.7.48a4.72,4.72,0,0,0-.52.87h-.81a6.85,6.85,0,0,1,1-1.58,3.21,3.21,0,0,1,1-.77,2.19,2.19,0,0,1,.9-.22c.47,0,.77.14.91.44a2,2,0,0,1,.21.86,9.46,9.46,0,0,1-.5,2.4c.34-.57.61-1,.82-1.37a11,11,0,0,1,.77-1.08,4.65,4.65,0,0,1,.94-.9,1.63,1.63,0,0,1,1-.35,1,1,0,0,1,.9.38A1.58,1.58,0,0,1,358.88,557.05Z"/><path class="cls-7" d="M366.58,557.73a1.32,1.32,0,0,1-.32.9,1,1,0,0,1-.82.36.89.89,0,0,1-.61-.21.72.72,0,0,1-.23-.55,1.72,1.72,0,0,1,.07-.46,1.46,1.46,0,0,0,.08-.43.57.57,0,0,0-.28-.56,1.1,1.1,0,0,0-.54-.15,1.88,1.88,0,0,0-1.44.84,6.46,6.46,0,0,0-1.06,2,6,6,0,0,0-.39,1.87c0,.53.13.87.38,1a1.65,1.65,0,0,0,.79.22,2.51,2.51,0,0,0,1.44-.43,4.73,4.73,0,0,0,1.1-1h.95a6.32,6.32,0,0,1-1.75,1.7,4.43,4.43,0,0,1-2.51.75,2.71,2.71,0,0,1-1.89-.6,2.11,2.11,0,0,1-.67-1.65,5.22,5.22,0,0,1,.7-2.51,6,6,0,0,1,1.95-2.11,4.82,4.82,0,0,1,2.76-.83,2.86,2.86,0,0,1,1,.15,2.1,2.1,0,0,1,.72.4,1.72,1.72,0,0,1,.45.6A1.64,1.64,0,0,1,366.58,557.73Z"/><path class="cls-7" d="M376.84,561a6.08,6.08,0,0,1-1.36,1.74,2.64,2.64,0,0,1-1.78.7,1.52,1.52,0,0,1-1.07-.32,1,1,0,0,1-.36-.79,1.68,1.68,0,0,1,.05-.4c0-.13.09-.34.18-.62l.67-2.24a4,4,0,0,0,.2-1.06.87.87,0,0,0-.06-.32.44.44,0,0,0-.17-.23.56.56,0,0,0-.3-.08c-.45,0-1,.36-1.55,1.09a8.76,8.76,0,0,0-1.25,2c-.49,1.21-.78,2-.85,2.23l-.16.6h-2.09l3-9.84a2.83,2.83,0,0,0,.21-.76.4.4,0,0,0-.26-.41,1.85,1.85,0,0,0-.7-.1h-.27l.27-.81a17.51,17.51,0,0,0,2.95-.21h.6l-2.29,7.47c.41-.56.76-1,1.06-1.36a5.06,5.06,0,0,1,1.17-1,3,3,0,0,1,1.6-.45,1.63,1.63,0,0,1,1.06.32,1,1,0,0,1,.42.81,5.86,5.86,0,0,1-.32,1.44l-.88,2.9a2.62,2.62,0,0,0-.15.64.37.37,0,0,0,0,.2.18.18,0,0,0,.17.09c.35,0,.79-.42,1.31-1.27Z"/><path class="cls-7" d="M385.74,557.56a6.68,6.68,0,0,1-1,3.31,15.3,15.3,0,0,1-2.65,3.36,16.06,16.06,0,0,1-3.37,2.56,6.51,6.51,0,0,1-3.06,1,1.93,1.93,0,0,1-1-.25.8.8,0,0,1-.42-.72.73.73,0,0,1,.31-.62,1.06,1.06,0,0,1,.7-.25,2.12,2.12,0,0,1,.54.06l.56.2a4.09,4.09,0,0,0,1.1.25,1.74,1.74,0,0,0,1.07-.37,3,3,0,0,0,.76-.87,7.32,7.32,0,0,0,.72-3.57c0-.38,0-.77,0-1.18s-.06-.84-.11-1.27a7.89,7.89,0,0,0-.2-1.2,1.33,1.33,0,0,0-.24-.51.48.48,0,0,0-.39-.23c-.46,0-.74.52-.84,1.55h-.73a3.4,3.4,0,0,1,.92-2.32,2.19,2.19,0,0,1,1.37-.56,1.81,1.81,0,0,1,1.81,1.43,10.58,10.58,0,0,1,.49,3.43,17.84,17.84,0,0,1-.17,2.69c1-1.21,1.6-1.89,1.68-2a7.71,7.71,0,0,0,.66-1.16,2.73,2.73,0,0,0,.26-1.12,3.46,3.46,0,0,0-.3-1.19,3.34,3.34,0,0,1-.31-1.12,1,1,0,0,1,.23-.69.68.68,0,0,1,.53-.26.9.9,0,0,1,.56.19,1.36,1.36,0,0,1,.44.57A2.22,2.22,0,0,1,385.74,557.56Z"/><path class="cls-7" d="M323.35,734.08a3,3,0,0,1-.17,1,2.87,2.87,0,0,1-.62,1,3.51,3.51,0,0,1-1.24.85,6.09,6.09,0,0,1-2,.45,2.75,2.75,0,0,1,.71.78,7.66,7.66,0,0,1,.59,1.48,8.24,8.24,0,0,0,.45,1.23,2.29,2.29,0,0,0,.64.82,2.42,2.42,0,0,0,1.17.48l-.24.8h-3.07a4.46,4.46,0,0,1-.46-.8c-.14-.33-.37-.92-.67-1.77l-.36-1a10.39,10.39,0,0,0-.44-1.13,1.05,1.05,0,0,0-.51-.51,2.36,2.36,0,0,0-1.09-.19h-.5l-.92,3a3,3,0,0,0-.16.75.67.67,0,0,0,.43.71,3.33,3.33,0,0,0,1.08.16l-.25.8h-5.4l.25-.8a1.91,1.91,0,0,0,.76-.12.93.93,0,0,0,.46-.4,3.14,3.14,0,0,0,.33-.82l2.27-7.45a3.08,3.08,0,0,0,.16-.7.65.65,0,0,0-.32-.62,1.31,1.31,0,0,0-.71-.2h-.34l.24-.8h5.65a10.7,10.7,0,0,1,1.54.09,4,4,0,0,1,1.17.4,3,3,0,0,1,1.15,1A2.56,2.56,0,0,1,323.35,734.08Zm-2.46-.31a1.45,1.45,0,0,0-.77-1.5,4.64,4.64,0,0,0-1.83-.32h-1.06l-1.44,4.74h.92a6,6,0,0,0,2.73-.43,2.71,2.71,0,0,0,1.07-1.08A2.9,2.9,0,0,0,320.89,733.77Z"/><path class="cls-7" d="M331.48,737a2.1,2.1,0,0,1-.22.83,3.41,3.41,0,0,1-.81,1,5.17,5.17,0,0,1-1.67.93,10.65,10.65,0,0,1-2.73.55l-.21,0a4,4,0,0,0-.07.65,1.26,1.26,0,0,0,.31.94,1.32,1.32,0,0,0,.91.28,3.38,3.38,0,0,0,2.53-1.42h.93a6.77,6.77,0,0,1-1.65,1.65,4.29,4.29,0,0,1-2.63.82,2.9,2.9,0,0,1-1.81-.57,2,2,0,0,1-.75-1.66,5.1,5.1,0,0,1,.75-2.62,5.83,5.83,0,0,1,2-2.06,5.24,5.24,0,0,1,2.81-.8A2.89,2.89,0,0,1,331,736,1.3,1.3,0,0,1,331.48,737Zm-1.86,0a.83.83,0,0,0-.2-.53.69.69,0,0,0-.55-.24,1.7,1.7,0,0,0-1.13.43,3.78,3.78,0,0,0-.87,1,7.57,7.57,0,0,0-.58,1.18l-.27.74a6,6,0,0,0,2.69-1A2,2,0,0,0,329.62,737Z"/><path class="cls-7" d="M337.69,730.87,334.61,741a4.71,4.71,0,0,0-.23.93.36.36,0,0,0,.07.24.23.23,0,0,0,.18.08c.15,0,.36-.13.63-.41a3.37,3.37,0,0,0,.65-.94h.82a8.15,8.15,0,0,1-1.15,1.61,2.32,2.32,0,0,1-1.8.79,1.49,1.49,0,0,1-1.06-.37,1.12,1.12,0,0,1-.4-.88,5.52,5.52,0,0,1,.27-1.33l2.25-7.33a4.11,4.11,0,0,0,.22-1,.39.39,0,0,0-.25-.41,3.12,3.12,0,0,0-.93-.1l.21-.8H335c.4,0,.77,0,1.1-.05a5.66,5.66,0,0,0,1-.16Z"/><path class="cls-7" d="M345.56,737a2.1,2.1,0,0,1-.22.83,3.41,3.41,0,0,1-.81,1,5.17,5.17,0,0,1-1.67.93,10.65,10.65,0,0,1-2.73.55l-.21,0a4,4,0,0,0-.07.65,1.26,1.26,0,0,0,.31.94,1.32,1.32,0,0,0,.91.28,3.38,3.38,0,0,0,2.53-1.42h.93a6.77,6.77,0,0,1-1.65,1.65,4.29,4.29,0,0,1-2.63.82,2.9,2.9,0,0,1-1.81-.57,2,2,0,0,1-.75-1.66,5.1,5.1,0,0,1,.75-2.62,5.91,5.91,0,0,1,2-2.06,5.24,5.24,0,0,1,2.81-.8A2.89,2.89,0,0,1,345,736,1.3,1.3,0,0,1,345.56,737Zm-1.86,0a.83.83,0,0,0-.2-.53.69.69,0,0,0-.55-.24,1.7,1.7,0,0,0-1.13.43,4,4,0,0,0-.87,1,6.72,6.72,0,0,0-.57,1.18l-.28.74a6,6,0,0,0,2.69-1A2,2,0,0,0,343.7,737Z"/><path class="cls-7" d="M354.83,736.89a5.25,5.25,0,0,1-.5,2.09,8.48,8.48,0,0,1-1.36,2.1,7.12,7.12,0,0,1-1.91,1.57,4.3,4.3,0,0,1-2.12.6,2.69,2.69,0,0,1-1-.18,1.78,1.78,0,0,1-.79-.6,1.72,1.72,0,0,1-.32-1.09,2.5,2.5,0,0,1,.42-1.43,7.3,7.3,0,0,1,1.23-1.32,10.49,10.49,0,0,0,1-.88,3.25,3.25,0,0,0,.55-.8,2.22,2.22,0,0,1-1.31.46,1.92,1.92,0,0,1-.92-.27,1.11,1.11,0,0,0-.45-.16c-.27,0-.45.18-.54.52h-.73c.39-1.31,1-2,1.79-2a2.07,2.07,0,0,1,1.28.58,1.83,1.83,0,0,0,.35.24.53.53,0,0,0,.24.06q.39,0,.51-.48c.06-.27.18-.4.36-.4a.39.39,0,0,1,.32.13.51.51,0,0,1,.11.34,2.26,2.26,0,0,1-.25,1,12.79,12.79,0,0,1-.67,1.16,13.87,13.87,0,0,0-1,1.76,2.92,2.92,0,0,0-.27,1.12.85.85,0,0,0,.34.76,1.34,1.34,0,0,0,.76.23,2.63,2.63,0,0,0,1.65-.63,5.41,5.41,0,0,0,1.27-1.51,3.27,3.27,0,0,0,.48-1.53,4,4,0,0,0-.14-1,2.83,2.83,0,0,1-.13-.81,1,1,0,0,1,.26-.81.8.8,0,0,1,.55-.24.76.76,0,0,1,.66.37A1.7,1.7,0,0,1,354.83,736.89Z"/><path class="cls-7" d="M364.67,740.88a5.83,5.83,0,0,1-.57,1,4.24,4.24,0,0,1-.7.76,3,3,0,0,1-.78.49,2.06,2.06,0,0,1-.81.17c-.62,0-1-.19-1.18-.56a3,3,0,0,1-.26-1.33,9.25,9.25,0,0,1-1.39,1.36,2.52,2.52,0,0,1-1.57.53,1.31,1.31,0,0,1-.86-.29,1.55,1.55,0,0,1-.5-.77,3.13,3.13,0,0,1-.17-1,6.11,6.11,0,0,1,.61-2.51,6.29,6.29,0,0,1,1.65-2.21,3.36,3.36,0,0,1,2.24-.9,1.47,1.47,0,0,1,.87.22,1.25,1.25,0,0,1,.44.49,4.34,4.34,0,0,1,.21.61l.32-1.1h1.94l-1.63,5.36a3.76,3.76,0,0,0-.18.71.27.27,0,0,0,.08.19.23.23,0,0,0,.17.08c.38,0,.79-.41,1.22-1.22Zm-3.28-3.5a1.53,1.53,0,0,0-.16-.74.6.6,0,0,0-.59-.31,1.72,1.72,0,0,0-1.28.76,6.11,6.11,0,0,0-1,1.84,5.47,5.47,0,0,0-.38,1.81c0,.71.22,1.07.66,1.07a1.47,1.47,0,0,0,1-.43,4.54,4.54,0,0,0,.9-1.14,7.22,7.22,0,0,0,.66-1.49A4.51,4.51,0,0,0,361.39,737.38Z"/><path class="cls-7" d="M375.19,740.69a6.67,6.67,0,0,1-.68,1,4.44,4.44,0,0,1-1.08,1,2.48,2.48,0,0,1-1.4.43,1.57,1.57,0,0,1-1-.32,1,1,0,0,1-.38-.83,4.13,4.13,0,0,1,.22-1.1l.64-2.12a4.6,4.6,0,0,0,.28-1.19.57.57,0,0,0-.12-.35.41.41,0,0,0-.33-.16c-.32,0-.71.27-1.16.8a12.27,12.27,0,0,0-1.4,2.16,19.13,19.13,0,0,0-1.22,3h-2.09l1.59-5.15a6.43,6.43,0,0,0,.21-.89.63.63,0,0,0-.05-.22.22.22,0,0,0-.21-.11.88.88,0,0,0-.65.43,4.55,4.55,0,0,0-.53.94h-.74a4.78,4.78,0,0,1,1-1.69,2.27,2.27,0,0,1,1.76-.76,1.32,1.32,0,0,1,1,.37,1.19,1.19,0,0,1,.34.78,4.4,4.4,0,0,1-.1.7c-.06.31-.14.6-.22.87l-.31.9a17.17,17.17,0,0,1,2.05-2.65,2.93,2.93,0,0,1,2.13-1,1.16,1.16,0,0,1,1,.39,1.33,1.33,0,0,1,.31.85,5,5,0,0,1-.21,1.06l-.92,3.06a3.37,3.37,0,0,0-.16.8.34.34,0,0,0,.05.17.19.19,0,0,0,.16.08,1.12,1.12,0,0,0,.63-.35,3.58,3.58,0,0,0,.7-.91Z"/><path class="cls-7" d="M381.6,735.8l-.25.8H379.6L378.28,741a2.5,2.5,0,0,0-.15.67.52.52,0,0,0,.12.34.4.4,0,0,0,.31.16,1.14,1.14,0,0,0,.9-.5,8.3,8.3,0,0,0,.69-1.08H381a5.39,5.39,0,0,1-1.12,1.7,3.32,3.32,0,0,1-1.16.81,3,3,0,0,1-1,.2,1.56,1.56,0,0,1-1.18-.44,1.61,1.61,0,0,1-.42-1.17,4.77,4.77,0,0,1,.26-1.36l1.14-3.68h-1.64l.25-.8h1.64l.81-2.68h2.09l-.81,2.68Z"/><path class="cls-7" d="M327.51,755.15l-.88,4.07h-.84V759a3.77,3.77,0,0,0-.51-2.13,2.43,2.43,0,0,0-1.11-1,3.41,3.41,0,0,0-1.08-.21,3,3,0,0,0-1.92.73,6.46,6.46,0,0,0-1.56,1.9,11,11,0,0,0-1,2.55,9.74,9.74,0,0,0-.37,2.54,4,4,0,0,0,.25,1.45,2.28,2.28,0,0,0,.76,1.06,2,2,0,0,0,1.27.41,3.61,3.61,0,0,0,1.56-.4,5.42,5.42,0,0,0,1.56-1.15,5.56,5.56,0,0,0,1.15-1.8h.84l-1.17,3.95h-.74a4.55,4.55,0,0,0,.05-.61,4.28,4.28,0,0,0-.05-.6,5,5,0,0,1-1.5,1.08,4.39,4.39,0,0,1-1.93.43,4.45,4.45,0,0,1-2.34-.62,4.39,4.39,0,0,1-1.65-1.69,4.69,4.69,0,0,1-.6-2.34,7.19,7.19,0,0,1,.63-3,8.23,8.23,0,0,1,1.66-2.48,7.79,7.79,0,0,1,2.3-1.66,5.67,5.67,0,0,1,2.48-.59,3.9,3.9,0,0,1,1.55.28,3.8,3.8,0,0,1,1,.6,6.86,6.86,0,0,1,.65.68,3.49,3.49,0,0,0,.72-1.28Z"/><path class="cls-7" d="M335.36,762.63a4.53,4.53,0,0,1-1.36,3.21,4.81,4.81,0,0,1-1.54,1,5,5,0,0,1-1.93.37,3.89,3.89,0,0,1-1.81-.4,2.88,2.88,0,0,1-1.21-1.13,3.11,3.11,0,0,1-.43-1.64,4.16,4.16,0,0,1,.65-2.24,4.77,4.77,0,0,1,1.77-1.68,5,5,0,0,1,2.42-.62,3.76,3.76,0,0,1,1.86.43,2.82,2.82,0,0,1,1.18,1.14A3.11,3.11,0,0,1,335.36,762.63Zm-2.09-.6a2.09,2.09,0,0,0-.34-1.28,1.2,1.2,0,0,0-1-.47,1.67,1.67,0,0,0-1.18.49,4.08,4.08,0,0,0-.86,1.24,7.77,7.77,0,0,0-.52,1.49,6.19,6.19,0,0,0-.17,1.3,2.06,2.06,0,0,0,.34,1.23,1.12,1.12,0,0,0,1,.48,1.8,1.8,0,0,0,1.23-.48,3.76,3.76,0,0,0,.88-1.23,7.11,7.11,0,0,0,.52-1.51A6.16,6.16,0,0,0,333.27,762Z"/><path class="cls-7" d="M346.4,764.69a6.67,6.67,0,0,1-.68,1,4.44,4.44,0,0,1-1.08,1,2.48,2.48,0,0,1-1.4.43,1.57,1.57,0,0,1-1-.32,1,1,0,0,1-.38-.83,4.13,4.13,0,0,1,.22-1.1l.65-2.12a4.9,4.9,0,0,0,.27-1.19.57.57,0,0,0-.12-.35.41.41,0,0,0-.33-.16c-.32,0-.7.27-1.16.8A11.74,11.74,0,0,0,340,764a19.14,19.14,0,0,0-1.23,3h-2.09l1.59-5.15a6.43,6.43,0,0,0,.21-.89.63.63,0,0,0-.05-.22.22.22,0,0,0-.2-.11.88.88,0,0,0-.66.43,5.07,5.07,0,0,0-.53.94h-.74a4.93,4.93,0,0,1,1-1.69,2.27,2.27,0,0,1,1.77-.76,1.32,1.32,0,0,1,1,.37,1.19,1.19,0,0,1,.34.78,3.47,3.47,0,0,1-.1.7c-.06.31-.14.6-.22.87l-.31.9a17.17,17.17,0,0,1,2.05-2.65,2.93,2.93,0,0,1,2.13-1,1.16,1.16,0,0,1,1,.39,1.33,1.33,0,0,1,.31.85,5,5,0,0,1-.21,1.06l-.92,3.06a3.37,3.37,0,0,0-.16.8.27.27,0,0,0,.06.17.18.18,0,0,0,.15.08,1.12,1.12,0,0,0,.63-.35,3.84,3.84,0,0,0,.71-.91Z"/><path class="cls-7" d="M352.81,759.8l-.24.8h-1.75L349.49,765a2.5,2.5,0,0,0-.15.67.52.52,0,0,0,.12.34.4.4,0,0,0,.31.16,1.14,1.14,0,0,0,.9-.5,7.37,7.37,0,0,0,.69-1.08h.83a5.56,5.56,0,0,1-1.11,1.7,3.41,3.41,0,0,1-1.16.81,3,3,0,0,1-1,.2,1.56,1.56,0,0,1-1.18-.44,1.61,1.61,0,0,1-.42-1.17,5.16,5.16,0,0,1,.26-1.36l1.14-3.68h-1.64l.25-.8H349l.81-2.68h2.09l-.81,2.68Z"/><path class="cls-7" d="M360.81,761a1.94,1.94,0,0,1-.22.83,3.36,3.36,0,0,1-.8,1,5.28,5.28,0,0,1-1.67.93,10.84,10.84,0,0,1-2.73.55l-.21,0a3.14,3.14,0,0,0-.07.65,1.22,1.22,0,0,0,.31.94,1.31,1.31,0,0,0,.91.28,3.35,3.35,0,0,0,2.52-1.42h.93a6.43,6.43,0,0,1-1.65,1.65,4.29,4.29,0,0,1-2.63.82,2.94,2.94,0,0,1-1.81-.57,2,2,0,0,1-.75-1.66,5.1,5.1,0,0,1,.75-2.62,6,6,0,0,1,2-2.06,5.27,5.27,0,0,1,2.81-.8,2.9,2.9,0,0,1,1.75.41A1.29,1.29,0,0,1,360.81,761ZM359,761a.79.79,0,0,0-.21-.53.68.68,0,0,0-.55-.24,1.7,1.7,0,0,0-1.13.43,4.18,4.18,0,0,0-.87,1,7.51,7.51,0,0,0-.57,1.18l-.28.74a6.08,6.08,0,0,0,2.7-1A2,2,0,0,0,359,761Z"/><path class="cls-7" d="M371.34,764.69a7.5,7.5,0,0,1-.68,1,4.31,4.31,0,0,1-1.09,1,2.46,2.46,0,0,1-1.4.43,1.54,1.54,0,0,1-1-.32,1,1,0,0,1-.38-.83,3.76,3.76,0,0,1,.22-1.1l.64-2.12a4.9,4.9,0,0,0,.27-1.19.57.57,0,0,0-.12-.35.41.41,0,0,0-.33-.16c-.31,0-.7.27-1.16.8A12.29,12.29,0,0,0,364.9,764a20.17,20.17,0,0,0-1.23,3h-2.09l1.59-5.15a6.43,6.43,0,0,0,.21-.89.47.47,0,0,0-.05-.22.2.2,0,0,0-.2-.11.85.85,0,0,0-.65.43,5.11,5.11,0,0,0-.54.94h-.73a4.91,4.91,0,0,1,1-1.69,2.3,2.3,0,0,1,1.77-.76,1.29,1.29,0,0,1,1,.37,1.14,1.14,0,0,1,.34.78,4.12,4.12,0,0,1-.09.7c-.07.31-.14.6-.22.87l-.31.9a16.58,16.58,0,0,1,2.05-2.65,2.89,2.89,0,0,1,2.12-1,1.2,1.2,0,0,1,1,.39,1.39,1.39,0,0,1,.31.85,5.26,5.26,0,0,1-.22,1.06l-.92,3.06a4,4,0,0,0-.16.8.27.27,0,0,0,.06.17.19.19,0,0,0,.15.08,1.06,1.06,0,0,0,.63-.35,3.6,3.6,0,0,0,.71-.91Z"/><path class="cls-7" d="M377.75,759.8l-.25.8h-1.75L374.42,765a2.5,2.5,0,0,0-.15.67.53.53,0,0,0,.13.34.38.38,0,0,0,.31.16,1.13,1.13,0,0,0,.89-.5,7.41,7.41,0,0,0,.7-1.08h.82a5.56,5.56,0,0,1-1.11,1.7,3.32,3.32,0,0,1-1.16.81,3,3,0,0,1-1,.2,1.58,1.58,0,0,1-1.18-.44,1.61,1.61,0,0,1-.42-1.17,4.86,4.86,0,0,1,.27-1.36l1.14-3.68H372l.26-.8h1.63l.81-2.68h2.09l-.8,2.68Z"/><polygon class="cls-10" points="360.7 265.45 337.17 246.85 336.32 276.83 344.87 268.99 349.44 278.77 353.76 276.75 349.2 266.98 360.7 265.45"/><path class="cls-10" d="M384.06,283.14A11.61,11.61,0,0,1,372.72,295H359.88l-14,20.31L331.79,295H319.1a11.61,11.61,0,0,1-11.35-11.86V236.61a11.61,11.61,0,0,1,11.35-11.85h53.62a11.61,11.61,0,0,1,11.34,11.85Z"/><rect class="cls-10" x="338.54" y="462.45" width="9.77" height="9.77" rx="3.09"/><rect class="cls-10" x="352.8" y="449.44" width="14" height="14" rx="3.09"/><rect class="cls-10" x="329.16" y="438.36" width="19.15" height="19.15" rx="3.09"/><path class="cls-10" d="M384.06,476a11.6,11.6,0,0,1-11.34,11.85H359.88l-14,20.31-14.12-20.31H319.1A11.6,11.6,0,0,1,307.75,476V429.45A11.6,11.6,0,0,1,319.1,417.6h53.62a11.6,11.6,0,0,1,11.34,11.85Z"/><circle class="cls-10" cx="346.34" cy="655.58" r="22.17"/><circle class="cls-10" cx="346.34" cy="655.58" r="13.22"/><line class="cls-11" x1="368.51" y1="677.75" x2="346.34" y2="655.58"/><polyline class="cls-12" points="352.07 655.58 346.34 655.58 346.34 661.48"/><path class="cls-10" d="M384.06,678.39a11.61,11.61,0,0,1-11.34,11.86H359.88l-14,20.31-14.12-20.31H319.1a11.61,11.61,0,0,1-11.35-11.86V631.86A11.61,11.61,0,0,1,319.1,620h53.62a11.61,11.61,0,0,1,11.34,11.85Z"/><path class="cls-7" d="M684.91,166.13a3.22,3.22,0,0,1-.19,1.1,3.29,3.29,0,0,1-.62,1,3.81,3.81,0,0,1-1.15.82,5.42,5.42,0,0,1-1.83.47c-.74.07-1.44.11-2.09.11h-1.15l-.9,3a3.12,3.12,0,0,0-.16.77.66.66,0,0,0,.37.66,1.66,1.66,0,0,0,.75.18h.24l-.24.81h-5.08l.25-.81a1.15,1.15,0,0,0,.86-.3,2.46,2.46,0,0,0,.51-1l2.27-7.46a3.29,3.29,0,0,0,.16-.69.65.65,0,0,0-.38-.68,2.62,2.62,0,0,0-.88-.14l.23-.81h4.88a9.73,9.73,0,0,1,1.46.1,3.4,3.4,0,0,1,1.16.45A2.77,2.77,0,0,1,684.91,166.13Zm-2.46-.45c0-.73-.2-1.2-.6-1.4a3,3,0,0,0-1.37-.31h-.86l-1.47,4.8h1.06a3.28,3.28,0,0,0,2.06-.53,3.54,3.54,0,0,0,.58-.67,4,4,0,0,0,.44-.88A3.18,3.18,0,0,0,682.45,165.68Z"/><path class="cls-7" d="M694.42,172.7a6.08,6.08,0,0,1-1.36,1.74,2.64,2.64,0,0,1-1.77.7,1.55,1.55,0,0,1-1.08-.32,1,1,0,0,1-.36-.79,1.68,1.68,0,0,1,0-.4c0-.13.09-.33.18-.62l.67-2.23a4.11,4.11,0,0,0,.2-1.07.81.81,0,0,0-.06-.31.46.46,0,0,0-.17-.24.56.56,0,0,0-.3-.08c-.45,0-1,.37-1.55,1.09a9.36,9.36,0,0,0-1.25,2c-.49,1.21-.78,1.95-.85,2.23l-.16.6h-2.09l3-9.84a2.83,2.83,0,0,0,.21-.76.41.41,0,0,0-.25-.41,2.19,2.19,0,0,0-.71-.1h-.27l.27-.81a15.57,15.57,0,0,0,3-.21h.6L688,170.36c.41-.55.76-1,1.06-1.36a5.06,5.06,0,0,1,1.17-1,3,3,0,0,1,1.61-.45,1.68,1.68,0,0,1,1,.32,1,1,0,0,1,.42.81,5.86,5.86,0,0,1-.32,1.44l-.88,2.9a2.57,2.57,0,0,0-.15.65.36.36,0,0,0,0,.19.18.18,0,0,0,.17.1c.35,0,.79-.43,1.31-1.28Z"/><path class="cls-7" d="M703.44,170.66a4.3,4.3,0,0,1-.35,1.72,4.6,4.6,0,0,1-1,1.49,4.79,4.79,0,0,1-1.54,1,4.89,4.89,0,0,1-1.93.38,4,4,0,0,1-1.81-.4,2.9,2.9,0,0,1-1.22-1.13,3.22,3.22,0,0,1-.43-1.65,4.21,4.21,0,0,1,.65-2.23,4.92,4.92,0,0,1,1.77-1.68,5,5,0,0,1,2.42-.62,3.77,3.77,0,0,1,1.87.43,2.93,2.93,0,0,1,1.18,1.13A3.17,3.17,0,0,1,703.44,170.66Zm-2.08-.6a2.13,2.13,0,0,0-.35-1.29,1.19,1.19,0,0,0-1-.46,1.67,1.67,0,0,0-1.18.49A4,4,0,0,0,698,170a8.1,8.1,0,0,0-.52,1.5,5.66,5.66,0,0,0-.18,1.29,2.07,2.07,0,0,0,.35,1.24,1.12,1.12,0,0,0,1,.48,1.76,1.76,0,0,0,1.23-.48,3.89,3.89,0,0,0,.89-1.23,7.26,7.26,0,0,0,.51-1.51A6.28,6.28,0,0,0,701.36,170.06Z"/><path class="cls-7" d="M710.4,167.82l-.24.81h-1.75L707.08,173a2.55,2.55,0,0,0-.15.68.54.54,0,0,0,.12.34.4.4,0,0,0,.31.15,1.12,1.12,0,0,0,.9-.49,6.62,6.62,0,0,0,.69-1.08h.83a5.69,5.69,0,0,1-1.11,1.7,3.41,3.41,0,0,1-1.16.81,3,3,0,0,1-1,.2,1.56,1.56,0,0,1-1.18-.44,1.65,1.65,0,0,1-.42-1.17,5.09,5.09,0,0,1,.26-1.36l1.14-3.68h-1.64l.26-.81h1.63l.81-2.68h2.09l-.81,2.68Z"/><path class="cls-7" d="M719,170.66a4.48,4.48,0,0,1-.35,1.72,4.6,4.6,0,0,1-1,1.49,4.87,4.87,0,0,1-3.48,1.41,4,4,0,0,1-1.81-.4,2.93,2.93,0,0,1-1.21-1.13,3.12,3.12,0,0,1-.43-1.65,4.21,4.21,0,0,1,.65-2.23,4.77,4.77,0,0,1,1.77-1.68,5,5,0,0,1,2.42-.62,3.83,3.83,0,0,1,1.87.43,2.84,2.84,0,0,1,1.17,1.13A3.07,3.07,0,0,1,719,170.66Zm-2.08-.6a2.13,2.13,0,0,0-.35-1.29,1.19,1.19,0,0,0-1-.46,1.65,1.65,0,0,0-1.18.49,3.82,3.82,0,0,0-.86,1.23,7.43,7.43,0,0,0-.52,1.5,5.66,5.66,0,0,0-.18,1.29,2.14,2.14,0,0,0,.34,1.24,1.13,1.13,0,0,0,1,.48,1.8,1.8,0,0,0,1.23-.48,3.87,3.87,0,0,0,.88-1.23,6.76,6.76,0,0,0,.52-1.51A6.28,6.28,0,0,0,716.91,170.06Z"/><path class="cls-7" d="M728.8,168.25a.47.47,0,0,1-.19.42.7.7,0,0,1-.37.12.75.75,0,0,1-.45-.16.45.45,0,0,0-.27-.1.38.38,0,0,0-.34.24,2.93,2.93,0,0,1,.28.56,2.19,2.19,0,0,1,.1.69,2.57,2.57,0,0,1-.73,1.73,3,3,0,0,1-1.18.74,5.4,5.4,0,0,1-1.93.3,3.64,3.64,0,0,0-1.47.19.62.62,0,0,0-.38.57.39.39,0,0,0,.13.28,1.32,1.32,0,0,0,.4.22c.18.06.5.16,1,.28l1.35.38c1.58.46,2.37,1.19,2.37,2.2a2,2,0,0,1-.44,1.22,3.16,3.16,0,0,1-1.51.93,8.47,8.47,0,0,1-2.77.37,11,11,0,0,1-1.6-.13,4.61,4.61,0,0,1-1.68-.59,1.42,1.42,0,0,1-.76-1.3,1.55,1.55,0,0,1,.19-.75,1.43,1.43,0,0,1,.48-.52,1.07,1.07,0,0,1,.55-.19.49.49,0,0,1,.28.07.18.18,0,0,1,.12.17.65.65,0,0,1-.18.34,1.24,1.24,0,0,0-.3.71,1.13,1.13,0,0,0,.95,1.13,6.89,6.89,0,0,0,2,.29,4.89,4.89,0,0,0,2-.33c.49-.23.73-.52.73-.88a.59.59,0,0,0-.15-.43,1.45,1.45,0,0,0-.57-.32c-.27-.11-.78-.29-1.53-.53a13.54,13.54,0,0,1-1.55-.57,2.28,2.28,0,0,1-.83-.6,1.31,1.31,0,0,1-.28-.86,1.43,1.43,0,0,1,.63-1.2,3.35,3.35,0,0,1,1.5-.6,2,2,0,0,1-1-.82,2,2,0,0,1-.34-1.12,2.38,2.38,0,0,1,.45-1.37,3.24,3.24,0,0,1,1.24-1.06,4,4,0,0,1,1.82-.4,3.21,3.21,0,0,1,2.25.7,3.83,3.83,0,0,1,.61-.51,1.31,1.31,0,0,1,.74-.19.81.81,0,0,1,.55.18A.63.63,0,0,1,728.8,168.25Zm-3.15,1.05a1.33,1.33,0,0,0-.11-.54,1,1,0,0,0-.35-.39,1,1,0,0,0-.53-.15,1.24,1.24,0,0,0-1,.48,3.16,3.16,0,0,0-.63,1.14,3.92,3.92,0,0,0-.21,1.17,1,1,0,0,0,.26.79.93.93,0,0,0,.69.25,1.49,1.49,0,0,0,1.37-1A4.12,4.12,0,0,0,725.65,169.3Z"/><path class="cls-7" d="M736.78,168.72a1.59,1.59,0,0,1-.31,1,.92.92,0,0,1-.77.43,1.06,1.06,0,0,1-.78-.47.55.55,0,0,0-.41-.27c-.16,0-.37.15-.65.44A6.82,6.82,0,0,0,733,171a16.8,16.8,0,0,0-.85,1.7,14.72,14.72,0,0,0-.73,1.95l-.11.36h-2.07l1.38-4.93a3.81,3.81,0,0,0,.22-1,.42.42,0,0,0-.06-.21.2.2,0,0,0-.19-.1q-.35,0-.69.48a4.83,4.83,0,0,0-.53.87h-.81a6.55,6.55,0,0,1,1-1.57,3.11,3.11,0,0,1,1-.78,2.19,2.19,0,0,1,.9-.22.91.91,0,0,1,.91.44,2,2,0,0,1,.21.86,9.59,9.59,0,0,1-.5,2.41c.34-.58.61-1,.83-1.38a8.5,8.5,0,0,1,.76-1.07,4.71,4.71,0,0,1,.94-.91,1.72,1.72,0,0,1,1-.35,1,1,0,0,1,.9.38A1.51,1.51,0,0,1,736.78,168.72Z"/><path class="cls-7" d="M745.78,172.91a6.29,6.29,0,0,1-.57,1,4.29,4.29,0,0,1-.71.76,3.11,3.11,0,0,1-.77.49,2.15,2.15,0,0,1-.82.17c-.61,0-1-.19-1.18-.56a3.19,3.19,0,0,1-.26-1.33,9.27,9.27,0,0,1-1.39,1.36,2.49,2.49,0,0,1-1.56.53,1.3,1.3,0,0,1-.86-.29,1.69,1.69,0,0,1-.51-.77,3.19,3.19,0,0,1-.16-1,5.91,5.91,0,0,1,.61-2.5,6.3,6.3,0,0,1,1.64-2.21,3.4,3.4,0,0,1,2.25-.9,1.47,1.47,0,0,1,.87.22,1.16,1.16,0,0,1,.43.49,3.94,3.94,0,0,1,.21.61l.33-1.1h1.94l-1.64,5.36a4.54,4.54,0,0,0-.17.7.29.29,0,0,0,.07.2.25.25,0,0,0,.17.08c.38,0,.79-.41,1.23-1.22Zm-3.28-3.5a1.53,1.53,0,0,0-.16-.74.61.61,0,0,0-.6-.31,1.71,1.71,0,0,0-1.28.76,6.33,6.33,0,0,0-1,1.84,5.69,5.69,0,0,0-.38,1.81c0,.71.22,1.07.67,1.07a1.48,1.48,0,0,0,1-.43,4.28,4.28,0,0,0,.9-1.14,7.27,7.27,0,0,0,.67-1.49A4.9,4.9,0,0,0,742.5,169.41Z"/><path class="cls-7" d="M755.69,170.18a5.17,5.17,0,0,1-.35,1.84,5.52,5.52,0,0,1-1,1.64,4.94,4.94,0,0,1-1.5,1.18,4,4,0,0,1-1.83.44,2.5,2.5,0,0,1-1.23-.26,3,3,0,0,1-.82-.68l-.94,3.07a2.52,2.52,0,0,0-.12.53.39.39,0,0,0,.3.4,3.32,3.32,0,0,0,1,.1h.43l-.23.77h-5.56l.24-.77h.34a3,3,0,0,0,.87-.09.69.69,0,0,0,.42-.32,5.7,5.7,0,0,0,.34-.92l2.29-7.48a2.26,2.26,0,0,0,.12-.64.4.4,0,0,0-.08-.26.23.23,0,0,0-.2-.12.87.87,0,0,0-.54.32,3.49,3.49,0,0,0-.67,1.13h-.85a9.52,9.52,0,0,1,.53-1.06,3.65,3.65,0,0,1,.87-1,2.22,2.22,0,0,1,1.42-.46,1.31,1.31,0,0,1,1.47,1.49,4,4,0,0,1,2.86-1.49,2.3,2.3,0,0,1,1.49.45,2.38,2.38,0,0,1,.76,1A3.58,3.58,0,0,1,755.69,170.18Zm-2.16-.21a1.74,1.74,0,0,0-.29-1,.93.93,0,0,0-.81-.43,1.67,1.67,0,0,0-1.17.54,5.25,5.25,0,0,0-1,1.37,7.49,7.49,0,0,0-.45,1.06,7.87,7.87,0,0,0-.28,1,4,4,0,0,0-.1.73,1.46,1.46,0,0,0,.35,1,1.1,1.1,0,0,0,.91.42,1.91,1.91,0,0,0,1.48-.8,6,6,0,0,0,1-1.91A6.72,6.72,0,0,0,753.53,170Z"/><path class="cls-7" d="M766.42,172.7a6.08,6.08,0,0,1-1.36,1.74,2.64,2.64,0,0,1-1.77.7,1.55,1.55,0,0,1-1.08-.32,1,1,0,0,1-.36-.79,1.68,1.68,0,0,1,0-.4c0-.13.09-.33.18-.62l.67-2.23a4.11,4.11,0,0,0,.2-1.07.81.81,0,0,0-.06-.31.46.46,0,0,0-.17-.24.56.56,0,0,0-.3-.08c-.45,0-1,.37-1.55,1.09a9.36,9.36,0,0,0-1.25,2c-.49,1.21-.78,1.95-.85,2.23l-.16.6h-2.09l3-9.84a2.83,2.83,0,0,0,.21-.76.41.41,0,0,0-.25-.41,2.19,2.19,0,0,0-.71-.1h-.27l.27-.81a15.57,15.57,0,0,0,3-.21h.6L760,170.36c.41-.55.76-1,1.06-1.36a5.06,5.06,0,0,1,1.17-1,3,3,0,0,1,1.61-.45,1.68,1.68,0,0,1,1,.32,1,1,0,0,1,.42.81,5.86,5.86,0,0,1-.32,1.44l-.88,2.9a2.57,2.57,0,0,0-.15.65.36.36,0,0,0,0,.19.18.18,0,0,0,.17.1c.35,0,.79-.43,1.31-1.28Z"/><path class="cls-7" d="M775.32,169.23a6.76,6.76,0,0,1-1,3.31,16.76,16.76,0,0,1-6,5.92,6.48,6.48,0,0,1-3.06,1,1.93,1.93,0,0,1-1-.25.79.79,0,0,1-.42-.72.74.74,0,0,1,.31-.62,1.1,1.1,0,0,1,.7-.24,2.76,2.76,0,0,1,.54.05c.14,0,.33.11.56.2a3.73,3.73,0,0,0,1.1.25,1.68,1.68,0,0,0,1.07-.37,3.05,3.05,0,0,0,.77-.87,7.27,7.27,0,0,0,.72-3.57c0-.37,0-.77,0-1.18s-.06-.84-.1-1.27a9.61,9.61,0,0,0-.21-1.2,1.32,1.32,0,0,0-.24-.51.48.48,0,0,0-.39-.23c-.46,0-.74.52-.84,1.55H767a3.43,3.43,0,0,1,.91-2.32,2.27,2.27,0,0,1,1.37-.56,1.83,1.83,0,0,1,1.82,1.44,10.77,10.77,0,0,1,.48,3.42,16.83,16.83,0,0,1-.17,2.7c1-1.22,1.6-1.89,1.69-2a7.25,7.25,0,0,0,.66-1.16,2.71,2.71,0,0,0,.25-1.12,3.52,3.52,0,0,0-.3-1.19,3.63,3.63,0,0,1-.31-1.11,1,1,0,0,1,.23-.69.66.66,0,0,1,.53-.27,1,1,0,0,1,.57.19,1.43,1.43,0,0,1,.43.57A2.22,2.22,0,0,1,775.32,169.23Z"/><path class="cls-7" d="M687.07,372.36a8.87,8.87,0,0,1-1,1.23,4.41,4.41,0,0,1-3.24,1.24,5.45,5.45,0,0,1-1.38-.16,6,6,0,0,1-1.17-.44c-.35-.18-.81-.42-1.36-.74a6.71,6.71,0,0,0-1.21-.58,3,3,0,0,0-1-.18,1.87,1.87,0,0,0-.91.19,2.35,2.35,0,0,0-.65.6,6.43,6.43,0,0,1-.5.57.57.57,0,0,1-.38.16.42.42,0,0,1-.3-.14.44.44,0,0,1-.13-.34.73.73,0,0,1,.17-.46,6,6,0,0,1,.71-.74l1.85-1.77a4.77,4.77,0,0,1-2.26-.79,4.29,4.29,0,0,1-1.48-1.71,5.09,5.09,0,0,1-.51-2.26,6.92,6.92,0,0,1,.55-2.62,8.21,8.21,0,0,1,1.58-2.45,7.76,7.76,0,0,1,2.48-1.8,7.46,7.46,0,0,1,3.18-.67,5.72,5.72,0,0,1,2.34.43,4.2,4.2,0,0,1,1.58,1.15,4.54,4.54,0,0,1,.85,1.57,6.06,6.06,0,0,1,.26,1.74,7,7,0,0,1-1,3.38,8,8,0,0,1-2.69,2.87,7.23,7.23,0,0,1-3.94,1.2l-1.11,1.1a6.07,6.07,0,0,1,1.46-.15,4.78,4.78,0,0,1,1.33.17,11.85,11.85,0,0,1,1.38.55,11.94,11.94,0,0,0,1.46.58,4.37,4.37,0,0,0,1.4.23,3.41,3.41,0,0,0,.92-.11,3.66,3.66,0,0,0,.75-.28,4.21,4.21,0,0,0,.53-.33l.59-.52Zm-4.4-10.16c0-1.93-.89-2.9-2.68-2.9a4,4,0,0,0-1.36.25,3.73,3.73,0,0,0-1.25.8,5.65,5.65,0,0,0-1.06,1.4,17.28,17.28,0,0,0-1.12,2.69,9.23,9.23,0,0,0-.48,2.78c0,1.85.87,2.77,2.61,2.77s3.27-1.14,4.25-3.42A11.61,11.61,0,0,0,682.67,362.2Z"/><path class="cls-7" d="M695.19,368.41a6.34,6.34,0,0,1-1,1.67,2.31,2.31,0,0,1-1.84.8,1.21,1.21,0,0,1-1-.39,1.46,1.46,0,0,1-.29-.89,3,3,0,0,1,.08-.58c.06-.24.13-.51.22-.8l.29-1a16.74,16.74,0,0,1-1.94,2.6,3,3,0,0,1-2.22,1.06,1.19,1.19,0,0,1-1.29-1.21,4.65,4.65,0,0,1,.24-1.26l.89-2.9a2.68,2.68,0,0,0,.18-.76.44.44,0,0,0-.07-.21.22.22,0,0,0-.22-.11c-.35,0-.78.41-1.31,1.23H685a9,9,0,0,1,1.33-1.68,2.51,2.51,0,0,1,1.83-.72,1.65,1.65,0,0,1,.92.27,1.09,1.09,0,0,1,.42,1,2.37,2.37,0,0,1-.12.78l-.72,2.34a4.66,4.66,0,0,0-.24,1.17.62.62,0,0,0,.12.36.38.38,0,0,0,.33.18,1.67,1.67,0,0,0,1-.63,9.35,9.35,0,0,0,1.32-2,22.9,22.9,0,0,0,1.4-3.33h2.09l-1.64,5.36a4,4,0,0,0-.16.68.4.4,0,0,0,.08.22.26.26,0,0,0,.18.11.82.82,0,0,0,.63-.44,5.81,5.81,0,0,0,.53-.95Z"/><path class="cls-7" d="M700.86,368.52a6.31,6.31,0,0,1-1.07,1.56,2.39,2.39,0,0,1-1.83.8,1.5,1.5,0,0,1-1.11-.37,1.19,1.19,0,0,1-.37-.86,4.54,4.54,0,0,1,.33-1.42l1.13-3.1a2.05,2.05,0,0,0,.17-.57.29.29,0,0,0-.08-.18.24.24,0,0,0-.18-.07c-.2,0-.41.15-.65.46a4.2,4.2,0,0,0-.53.84h-.78a4.54,4.54,0,0,1,1.35-1.8,2.72,2.72,0,0,1,1.66-.64,1.54,1.54,0,0,1,1,.29.88.88,0,0,1,.38.76,2.82,2.82,0,0,1-.19,1l-1.37,3.68a2,2,0,0,0-.14.62.34.34,0,0,0,.08.2.24.24,0,0,0,.18.1.79.79,0,0,0,.55-.28,5,5,0,0,0,.7-1Zm.65-8.89a1.07,1.07,0,0,1-.34.81,1.06,1.06,0,0,1-.79.34,1.15,1.15,0,0,1-.83-1.95,1.13,1.13,0,0,1,.83-.33,1.1,1.1,0,0,1,.57.15,1.21,1.21,0,0,1,.41.4A1.11,1.11,0,0,1,701.51,359.63Z"/><path class="cls-7" d="M709.31,365a1.29,1.29,0,0,1-.31.89,1,1,0,0,1-.82.37.88.88,0,0,1-.61-.22.68.68,0,0,1-.23-.54,1.84,1.84,0,0,1,.07-.47,1.41,1.41,0,0,0,.08-.43.59.59,0,0,0-.28-.56,1.27,1.27,0,0,0-.54-.14,1.85,1.85,0,0,0-1.44.84,6.46,6.46,0,0,0-1.06,2,6,6,0,0,0-.39,1.86c0,.54.12.88.38,1a1.52,1.52,0,0,0,.79.22,2.63,2.63,0,0,0,1.44-.42,5,5,0,0,0,1.1-1h1a6.3,6.3,0,0,1-1.75,1.69,4.38,4.38,0,0,1-2.52.76,2.7,2.7,0,0,1-1.89-.61,2.11,2.11,0,0,1-.66-1.64,5.19,5.19,0,0,1,.7-2.51,6,6,0,0,1,1.95-2.12,4.89,4.89,0,0,1,2.76-.83,2.86,2.86,0,0,1,1,.15,2.3,2.3,0,0,1,.72.41,1.69,1.69,0,0,1,.45.59A1.85,1.85,0,0,1,709.31,365Z"/><path class="cls-7" d="M719.51,364.16a.78.78,0,0,1-.28.61.92.92,0,0,1-.64.26,2.05,2.05,0,0,1-1-.29,1.86,1.86,0,0,0-.8-.23,2.3,2.3,0,0,0-1.17.38,11,11,0,0,0-1.5,1.22,3.05,3.05,0,0,1,1.41.32,1.61,1.61,0,0,1,.81.89,6.05,6.05,0,0,1,.24,1.47,2.78,2.78,0,0,0,.1.71.3.3,0,0,0,.33.21,1,1,0,0,0,.75-.43,3.63,3.63,0,0,0,.58-.92h.83a4.51,4.51,0,0,1-1.1,1.66,2.63,2.63,0,0,1-1.89.73,1.66,1.66,0,0,1-1.29-.45,1.41,1.41,0,0,1-.4-1,6.21,6.21,0,0,1,.05-.66,7.36,7.36,0,0,0,.06-.79c0-.74-.39-1.1-1.17-1.1l-.78.74-1,3.12h-2.09l3-9.72c.16-.55.24-.85.24-.88a.4.4,0,0,0-.27-.43,4.21,4.21,0,0,0-1-.07l.23-.81a15.09,15.09,0,0,0,3-.21h.6l-2.38,7.71c.86-.79,1.5-1.37,1.9-1.72a7.8,7.8,0,0,1,1.39-.92,3.53,3.53,0,0,1,1.65-.4,1.93,1.93,0,0,1,1.09.27A.85.85,0,0,1,719.51,364.16Z"/><path class="cls-7" d="M735.16,367.38l-1,3.24h-10l.25-.8a1.56,1.56,0,0,0,.8-.17,1.06,1.06,0,0,0,.42-.42,7,7,0,0,0,.28-.75l2.35-7.66a1.77,1.77,0,0,0,.06-.43q0-.87-1-.87h-.26l.26-.81h5.43l-.26.81a3.74,3.74,0,0,0-.94.08.89.89,0,0,0-.48.35,3.88,3.88,0,0,0-.38.88l-2.14,7a4.14,4.14,0,0,0-.23,1.13.6.6,0,0,0,.24.51,1.24,1.24,0,0,0,.6.23,5,5,0,0,0,.81.05,8.39,8.39,0,0,0,1.78-.16,3.2,3.2,0,0,0,1.39-.67,4.35,4.35,0,0,0,1.17-1.55Z"/><path class="cls-7" d="M740.07,368.52a6.31,6.31,0,0,1-1.07,1.56,2.39,2.39,0,0,1-1.83.8,1.49,1.49,0,0,1-1.11-.37,1.15,1.15,0,0,1-.37-.86,4.54,4.54,0,0,1,.33-1.42l1.13-3.1a2.05,2.05,0,0,0,.17-.57.29.29,0,0,0-.08-.18.26.26,0,0,0-.18-.07c-.2,0-.42.15-.65.46a4.2,4.2,0,0,0-.53.84h-.78a4.54,4.54,0,0,1,1.35-1.8,2.69,2.69,0,0,1,1.66-.64,1.59,1.59,0,0,1,1,.29.91.91,0,0,1,.38.76,2.82,2.82,0,0,1-.19,1l-1.37,3.68a1.72,1.72,0,0,0-.14.62.29.29,0,0,0,.08.2.24.24,0,0,0,.18.1.79.79,0,0,0,.55-.28,5.47,5.47,0,0,0,.7-1Zm.65-8.89a1.11,1.11,0,0,1-.34.81,1.08,1.08,0,0,1-.8.34,1.14,1.14,0,0,1-1.15-1.15,1.11,1.11,0,0,1,.33-.8,1.12,1.12,0,0,1,.82-.33,1.14,1.14,0,0,1,.58.15,1.21,1.21,0,0,1,.41.4A1.11,1.11,0,0,1,740.72,359.63Z"/><path class="cls-7" d="M750.74,368.32a7.5,7.5,0,0,1-.68,1,4.49,4.49,0,0,1-1.09,1,2.46,2.46,0,0,1-1.4.43,1.59,1.59,0,0,1-1-.32,1,1,0,0,1-.37-.83,3.76,3.76,0,0,1,.22-1.1l.64-2.12a4.8,4.8,0,0,0,.27-1.19.57.57,0,0,0-.12-.35.41.41,0,0,0-.33-.16c-.31,0-.7.27-1.16.8a12.29,12.29,0,0,0-1.39,2.16,20.17,20.17,0,0,0-1.23,3H741l1.59-5.15a6.43,6.43,0,0,0,.21-.89.47.47,0,0,0,0-.22.2.2,0,0,0-.2-.11.88.88,0,0,0-.66.43,5.71,5.71,0,0,0-.53.94h-.74a5.09,5.09,0,0,1,1-1.69,2.27,2.27,0,0,1,1.77-.76,1.29,1.29,0,0,1,1,.37,1.14,1.14,0,0,1,.34.78,3.38,3.38,0,0,1-.1.7,6.9,6.9,0,0,1-.22.87l-.3.9a17.19,17.19,0,0,1,2-2.65,3,3,0,0,1,2.13-1,1.2,1.2,0,0,1,1,.39,1.38,1.38,0,0,1,.3.85,5,5,0,0,1-.21,1.06l-.92,3.06a3.37,3.37,0,0,0-.16.8.27.27,0,0,0,.06.17.19.19,0,0,0,.15.08,1.06,1.06,0,0,0,.63-.35,3.6,3.6,0,0,0,.71-.91Z"/><path class="cls-7" d="M761,364.16a.78.78,0,0,1-.28.61.92.92,0,0,1-.65.26,2,2,0,0,1-.94-.29,1.86,1.86,0,0,0-.8-.23,2.27,2.27,0,0,0-1.17.38,11,11,0,0,0-1.5,1.22,3.05,3.05,0,0,1,1.41.32,1.61,1.61,0,0,1,.81.89,5.65,5.65,0,0,1,.23,1.47,3.17,3.17,0,0,0,.11.71.3.3,0,0,0,.33.21,1,1,0,0,0,.75-.43,3.63,3.63,0,0,0,.58-.92h.83a4.53,4.53,0,0,1-1.11,1.66,2.6,2.6,0,0,1-1.88.73,1.66,1.66,0,0,1-1.29-.45,1.42,1.42,0,0,1-.41-1q0-.15.06-.66a7.36,7.36,0,0,0,.06-.79c0-.74-.39-1.1-1.17-1.1l-.78.74-.95,3.12h-2.09l3-9.72c.15-.55.23-.85.23-.88a.4.4,0,0,0-.27-.43,4,4,0,0,0-.95-.07l.23-.81a15.09,15.09,0,0,0,3-.21h.6l-2.39,7.71c.87-.79,1.51-1.37,1.91-1.72a7.8,7.8,0,0,1,1.39-.92,3.52,3.52,0,0,1,1.64-.4,2,2,0,0,1,1.1.27A.87.87,0,0,1,761,364.16Z"/><path class="cls-7" d="M769.08,364.67a.92.92,0,0,1-.24.63.84.84,0,0,1-.66.27.87.87,0,0,1-.49-.12.76.76,0,0,1-.28-.35,4.49,4.49,0,0,1-.25-.65,1.06,1.06,0,0,0-.28-.46,1.1,1.1,0,0,0-.7-.17,1.46,1.46,0,0,0-.82.24.71.71,0,0,0-.37.62.89.89,0,0,0,.15.5,2.21,2.21,0,0,0,.37.45c.14.14.37.34.67.6a8.69,8.69,0,0,1,1.25,1.19,1.83,1.83,0,0,1,.39,1.19,2,2,0,0,1-.33,1.1,2.25,2.25,0,0,1-1.11.84,5,5,0,0,1-2,.33,3.59,3.59,0,0,1-2.43-.64,1.72,1.72,0,0,1-.7-1.23,1,1,0,0,1,.27-.7.92.92,0,0,1,.72-.3c.6,0,.94.39,1,1.16a1.63,1.63,0,0,0,.27.77,1.11,1.11,0,0,0,.9.29,1.49,1.49,0,0,0,1-.3.91.91,0,0,0,.38-.76,1,1,0,0,0-.13-.49,2.16,2.16,0,0,0-.53-.58q-.71-.6-1.17-1.05a4.26,4.26,0,0,1-.7-.88,1.78,1.78,0,0,1-.24-.89,1.83,1.83,0,0,1,.28-.9,2.22,2.22,0,0,1,1-.84,4.7,4.7,0,0,1,2-.37,5.16,5.16,0,0,1,1.34.15,2.35,2.35,0,0,1,.84.37,1.28,1.28,0,0,1,.41.47A1.34,1.34,0,0,1,769.08,364.67Z"/><path class="cls-7" d="M717.26,566.56a3,3,0,0,1-.17,1,2.87,2.87,0,0,1-.62,1,3.53,3.53,0,0,1-1.24.86,6.37,6.37,0,0,1-2,.44,3,3,0,0,1,.71.79,6.93,6.93,0,0,1,.58,1.48,9.37,9.37,0,0,0,.46,1.23,2.15,2.15,0,0,0,.64.81,2.33,2.33,0,0,0,1.17.48l-.24.81h-3.07a5,5,0,0,1-.46-.81c-.15-.32-.37-.91-.68-1.77l-.36-1a10.46,10.46,0,0,0-.43-1.13,1.05,1.05,0,0,0-.51-.51,2.53,2.53,0,0,0-1.09-.18h-.5l-.92,3a2.69,2.69,0,0,0-.16.76.68.68,0,0,0,.43.71,3.35,3.35,0,0,0,1.08.15l-.25.81h-5.4l.25-.81a2.14,2.14,0,0,0,.76-.11,1,1,0,0,0,.46-.4,3.39,3.39,0,0,0,.33-.83l2.27-7.45a2.93,2.93,0,0,0,.16-.69.69.69,0,0,0-.32-.63,1.33,1.33,0,0,0-.71-.19h-.34l.24-.81H713a9.35,9.35,0,0,1,1.54.1,3.67,3.67,0,0,1,1.17.39,3,3,0,0,1,1.15,1A2.68,2.68,0,0,1,717.26,566.56Zm-2.47-.31c0-.79-.25-1.29-.76-1.5a4.67,4.67,0,0,0-1.83-.33h-1.06l-1.44,4.75h.92a6.11,6.11,0,0,0,2.73-.43,2.78,2.78,0,0,0,1.07-1.08A2.91,2.91,0,0,0,714.79,566.25Z"/><path class="cls-7" d="M725.38,569.47a2.07,2.07,0,0,1-.21.83,3.29,3.29,0,0,1-.81,1,5.17,5.17,0,0,1-1.67.93,10.62,10.62,0,0,1-2.73.56l-.21,0a3.07,3.07,0,0,0-.07.65,1.24,1.24,0,0,0,.31.93,1.31,1.31,0,0,0,.91.29,3.36,3.36,0,0,0,2.52-1.43h.94a6.84,6.84,0,0,1-1.66,1.66,4.3,4.3,0,0,1-2.62.81,3,3,0,0,1-1.81-.56,2,2,0,0,1-.75-1.67,5,5,0,0,1,.75-2.61,5.83,5.83,0,0,1,2-2.07,5.29,5.29,0,0,1,2.82-.79,2.82,2.82,0,0,1,1.74.41A1.26,1.26,0,0,1,725.38,569.47Zm-1.85,0a.83.83,0,0,0-.2-.53.7.7,0,0,0-.56-.24,1.72,1.72,0,0,0-1.12.42,3.82,3.82,0,0,0-.87,1,6.45,6.45,0,0,0-.58,1.18c-.15.39-.24.64-.27.73a5.92,5.92,0,0,0,2.69-1A2,2,0,0,0,723.53,569.44Z"/><path class="cls-7" d="M736.48,563.34l-3.12,10.12a4.45,4.45,0,0,0-.2.87c0,.21.1.31.29.31a1,1,0,0,0,.62-.33,3.63,3.63,0,0,0,.64-.87h.84a4.82,4.82,0,0,1-.54.91,4.11,4.11,0,0,1-1,1,2.3,2.3,0,0,1-1.36.41c-1,0-1.52-.54-1.52-1.63a.49.49,0,0,1,0-.12v-.12a5.62,5.62,0,0,1-.83.88,4.87,4.87,0,0,1-1.12.72,3,3,0,0,1-1.24.27,1.76,1.76,0,0,1-1.44-.6,2.27,2.27,0,0,1-.5-1.52,5.38,5.38,0,0,1,.39-2,6.75,6.75,0,0,1,1.07-1.81,5.43,5.43,0,0,1,1.57-1.3,3.9,3.9,0,0,1,1.86-.48,1.88,1.88,0,0,1,1.11.26,2.37,2.37,0,0,1,.64.66l1-3.43a2.51,2.51,0,0,0,.18-.66.38.38,0,0,0-.15-.34.81.81,0,0,0-.38-.13l-.69,0,.21-.81,1.41,0c.34,0,.62,0,.83-.06a7.11,7.11,0,0,0,.75-.12ZM732.19,570a1.45,1.45,0,0,0-.3-.94,1,1,0,0,0-.78-.37,2,2,0,0,0-1.47.77,6,6,0,0,0-1.12,1.84,5.34,5.34,0,0,0-.42,1.91,1.12,1.12,0,0,0,.29.85,1,1,0,0,0,.69.26,1.92,1.92,0,0,0,1.15-.42,4.66,4.66,0,0,0,1-1.12,7,7,0,0,0,.68-1.41A4.53,4.53,0,0,0,732.19,570Z"/><path class="cls-10" d="M682.34,236.5a11.61,11.61,0,0,1,11.35-11.85h12.84l14-20.31,14.11,20.31h12.7a11.61,11.61,0,0,1,11.35,11.85V283a11.6,11.6,0,0,1-11.35,11.85H693.69A11.6,11.6,0,0,1,682.34,283Z"/><circle class="cls-10" cx="720.14" cy="260.58" r="9.59"/><circle class="cls-10" cx="720.14" cy="260.58" r="4.36"/><circle class="cls-10" cx="733.52" cy="247.71" r="2.05"/><rect class="cls-10" x="700.29" y="240.73" width="39.69" height="39.69" rx="4.82"/><path class="cls-10" d="M682,632a11.61,11.61,0,0,1,11.35-11.86h12.84l14-20.31,14.11,20.31H747A11.61,11.61,0,0,1,758.29,632v46.53A11.61,11.61,0,0,1,747,690.33H693.33A11.61,11.61,0,0,1,682,678.48Z"/><path class="cls-10" d="M732.23,648.76l4.43-4.44a3.85,3.85,0,0,0,0-5.44h0a3.85,3.85,0,0,0-5.44,0l-4.43,4.44-3.07-3.08-3.43,3.43,11.58,11.59,3.43-3.43Z"/><path class="cls-10" d="M710.19,669.9l-5,2.31a1.44,1.44,0,0,1-1.61-.28h0a1.44,1.44,0,0,1-.29-1.62l2.31-4.95a10.43,10.43,0,0,1,2.1-3l15.62-15.63,5.44,5.44-15.62,15.63A10.74,10.74,0,0,1,710.19,669.9Z"/><path class="cls-13" d="M703.62,671.93h0a1.44,1.44,0,0,0,1.61.28l5-2.31a10.74,10.74,0,0,0,3-2.09l9.75-9.75-10.56-.33-4.63,4.64a10.43,10.43,0,0,0-2.1,3l-2.31,4.95a1.44,1.44,0,0,0,.29,1.62"/><path class="cls-10" d="M682,428.34a11.6,11.6,0,0,1,11.35-11.85h12.84l14-20.31,14.11,20.31H747a11.6,11.6,0,0,1,11.34,11.85v46.53A11.61,11.61,0,0,1,747,486.72H693.33A11.61,11.61,0,0,1,682,474.87Z"/><path class="cls-12" d="M721.07,453.78a6.06,6.06,0,0,1-8.59,0l-9.36-9.35a6.08,6.08,0,0,1,0-8.59l1.91-1.91a6.07,6.07,0,0,1,8.6,0l7.14,7.14"/><path class="cls-12" d="M719.06,448a6.08,6.08,0,0,1,8.59,0l9.35,9.36a6.06,6.06,0,0,1,0,8.59l-1.9,1.91a6.09,6.09,0,0,1-8.6,0l-7.31-7.32"/></g></svg>