<svg id="Layer_1" data-name="Layer 1" xmlns="http://www.w3.org/2000/svg" viewBox="0 0 1065 718.81"><defs><style>.cls-1{fill:#2d2d2d;}.cls-2{fill:#80332a;}.cls-3{fill:#63332a;}.cls-4{fill:#fff;}.cls-5,.cls-6,.cls-7{fill:none;stroke:#fff;stroke-linecap:round;stroke-linejoin:round;stroke-width:3px;}.cls-5{stroke-dasharray:0.25 9.9;}.cls-7{stroke-dasharray:0.25 10;}</style></defs><title>CCSF</title><g id="Previous_bg" data-name="Previous bg"><polygon class="cls-1" points="305 397.23 301.6 498.02 131.41 498.02 56.41 435.13 305 397.23"/><path class="cls-2" d="M970,1100.81V-6.62H95V1519.52H970V1387.36l41,0V1100.81Z"/><path class="cls-3" d="M56.41,373.19v61.94h247.2c61.72,0,97-61.94,97-61.94Z"/><path class="cls-4" d="M986.81,373.19V311.25H498.17c-61.71,0-97,61.94-97,61.94Z"/><path class="cls-4" d="M560.58,135.24l-.25.81a4.13,4.13,0,0,0-1.54.58,2.84,2.84,0,0,0-.84.81,1.46,1.46,0,0,0-.24.64c0,.1,0,.17.07.2a.59.59,0,0,0,.27.05,1.17,1.17,0,0,1,.76,2,1.2,1.2,0,0,1-1.8-.22,2.06,2.06,0,0,1-.37-1.23,2.87,2.87,0,0,1,.25-1.14,3.78,3.78,0,0,1,.73-1.12,4,4,0,0,1,1.23-.91A4.84,4.84,0,0,1,560.58,135.24Zm4.6,0-.26.81a4.26,4.26,0,0,0-1.55.58,2.79,2.79,0,0,0-.83.81,1.51,1.51,0,0,0-.25.64.22.22,0,0,0,.08.2.56.56,0,0,0,.27.05,1.11,1.11,0,0,1,1.09,1.15,1.1,1.1,0,0,1-1.13,1.15,1.15,1.15,0,0,1-1-.53,2.12,2.12,0,0,1-.36-1.23,2.87,2.87,0,0,1,.25-1.14,3.78,3.78,0,0,1,.73-1.12,4,4,0,0,1,1.23-.91A4.84,4.84,0,0,1,565.18,135.24Z"/><path class="cls-4" d="M572.7,145.26a6.83,6.83,0,0,1-.57,1,4.6,4.6,0,0,1-.71.75,2.84,2.84,0,0,1-.77.49,1.91,1.91,0,0,1-.82.17,1.18,1.18,0,0,1-1.18-.56,3.15,3.15,0,0,1-.26-1.33,8.8,8.8,0,0,1-1.39,1.36,2.47,2.47,0,0,1-1.56.53,1.29,1.29,0,0,1-.86-.28,1.74,1.74,0,0,1-.51-.77,3.24,3.24,0,0,1-.16-1,6,6,0,0,1,.61-2.51,6.38,6.38,0,0,1,1.65-2.21,3.36,3.36,0,0,1,2.24-.9,1.55,1.55,0,0,1,.87.22,1.25,1.25,0,0,1,.44.49c.07.19.14.39.2.61l.33-1.1h1.94l-1.64,5.36a4.29,4.29,0,0,0-.17.71.26.26,0,0,0,.07.19.25.25,0,0,0,.18.08c.38,0,.78-.4,1.22-1.21Zm-3.28-3.51a1.55,1.55,0,0,0-.16-.74.62.62,0,0,0-.59-.31,1.72,1.72,0,0,0-1.28.76,6.12,6.12,0,0,0-1,1.84,5.74,5.74,0,0,0-.38,1.82c0,.7.22,1.06.67,1.06a1.43,1.43,0,0,0,1-.43,4.13,4.13,0,0,0,.9-1.14,7.27,7.27,0,0,0,.67-1.49A4.84,4.84,0,0,0,569.42,141.75Z"/><path class="cls-4" d="M581.37,136.53a1,1,0,0,1-.25.65.83.83,0,0,1-.63.27.67.67,0,0,1-.57-.24,3,3,0,0,1-.35-.77.87.87,0,0,0-.16-.32.4.4,0,0,0-.29-.11.38.38,0,0,0-.35.19,2,2,0,0,0-.21.5l-1.06,3.47H579l-.25.81h-1.48l-1.53,5a32.07,32.07,0,0,1-1.09,3.07,5.55,5.55,0,0,1-1.38,1.92,3.24,3.24,0,0,1-2.25.81,2.3,2.3,0,0,1-1.51-.43,1.19,1.19,0,0,1-.53-1,1,1,0,0,1,.28-.71,1,1,0,0,1,.73-.3.75.75,0,0,1,.7.28,1.85,1.85,0,0,1,.21.75c0,.4.21.59.51.59a.84.84,0,0,0,.74-.49,7.3,7.3,0,0,0,.59-1.53l2.45-8h-1.55l.25-.81h1.55l.16-.56a13.85,13.85,0,0,1,.76-2.09,4.44,4.44,0,0,1,1.23-1.59,3,3,0,0,1,2-.69,2.57,2.57,0,0,1,.87.15,1.51,1.51,0,0,1,.66.44A1.09,1.09,0,0,1,581.37,136.53Z"/><path class="cls-4" d="M586.15,136.53a1,1,0,0,1-.25.65.83.83,0,0,1-.63.27.63.63,0,0,1-.56-.24,2.65,2.65,0,0,1-.36-.77.87.87,0,0,0-.16-.32.38.38,0,0,0-.29-.11.38.38,0,0,0-.35.19,2,2,0,0,0-.21.5l-1.06,3.47h1.48l-.26.81H582l-1.52,5c-.41,1.3-.78,2.32-1.1,3.07A5.55,5.55,0,0,1,578,151a3.24,3.24,0,0,1-2.25.81,2.32,2.32,0,0,1-1.51-.43,1.22,1.22,0,0,1-.53-1,1,1,0,0,1,.28-.71,1,1,0,0,1,.73-.3c.36,0,.59.09.7.28a1.85,1.85,0,0,1,.21.75c0,.4.21.59.51.59a.84.84,0,0,0,.74-.49,7.3,7.3,0,0,0,.59-1.53l2.45-8h-1.55l.25-.81h1.55l.16-.56a13.85,13.85,0,0,1,.76-2.09,4.56,4.56,0,0,1,1.23-1.59,3,3,0,0,1,2-.69,2.49,2.49,0,0,1,.87.15,1.51,1.51,0,0,1,.66.44A1.09,1.09,0,0,1,586.15,136.53Z"/><path class="cls-4" d="M591.94,143a4.47,4.47,0,0,1-.35,1.71,4.42,4.42,0,0,1-1,1.49,4.77,4.77,0,0,1-1.53,1,4.9,4.9,0,0,1-1.94.37,3.89,3.89,0,0,1-1.81-.4,3,3,0,0,1-1.21-1.12,3.17,3.17,0,0,1-.43-1.65,4.19,4.19,0,0,1,.65-2.23,4.62,4.62,0,0,1,1.77-1.68,4.86,4.86,0,0,1,2.42-.63,3.83,3.83,0,0,1,1.87.43,2.8,2.8,0,0,1,1.17,1.14A3,3,0,0,1,591.94,143Zm-2.08-.61a2.11,2.11,0,0,0-.35-1.28,1.2,1.2,0,0,0-1-.47,1.67,1.67,0,0,0-1.17.49,3.76,3.76,0,0,0-.86,1.24,7.14,7.14,0,0,0-.52,1.49,5.73,5.73,0,0,0-.18,1.3,2.13,2.13,0,0,0,.34,1.23,1.12,1.12,0,0,0,1,.48,1.8,1.8,0,0,0,1.23-.48,3.66,3.66,0,0,0,.88-1.23,6.52,6.52,0,0,0,.52-1.5A6.36,6.36,0,0,0,589.86,142.4Z"/><path class="cls-4" d="M600.9,141.06a1.65,1.65,0,0,1-.3,1,.93.93,0,0,1-.78.43,1,1,0,0,1-.77-.47.57.57,0,0,0-.41-.27c-.16,0-.38.15-.65.45a6.45,6.45,0,0,0-.85,1.18,15.55,15.55,0,0,0-.86,1.69,19.18,19.18,0,0,0-.73,2l-.1.36h-2.07l1.38-4.93a4,4,0,0,0,.22-1,.36.36,0,0,0-.06-.2.22.22,0,0,0-.2-.11.94.94,0,0,0-.69.48,5.13,5.13,0,0,0-.53.88h-.81a6.35,6.35,0,0,1,1-1.58,3.39,3.39,0,0,1,1-.78,2.45,2.45,0,0,1,.91-.22.92.92,0,0,1,.91.44,2.15,2.15,0,0,1,.2.86,9.38,9.38,0,0,1-.49,2.41c.33-.57.61-1,.82-1.38a12.21,12.21,0,0,1,.77-1.07,4.72,4.72,0,0,1,.94-.91,1.7,1.7,0,0,1,1-.35.92.92,0,0,1,.89.39A1.47,1.47,0,0,1,600.9,141.06Z"/><path class="cls-4" d="M611.43,135.24l-3.12,10.11a4.19,4.19,0,0,0-.19.88c0,.21.1.31.29.31a.93.93,0,0,0,.61-.33,3.65,3.65,0,0,0,.65-.87h.84a4.45,4.45,0,0,1-.55.91,4.12,4.12,0,0,1-1,1,2.36,2.36,0,0,1-1.35.41c-1,0-1.52-.54-1.52-1.63v-.12a.41.41,0,0,0,0-.12,5.71,5.71,0,0,1-.84.88,4.29,4.29,0,0,1-1.11.71,2.91,2.91,0,0,1-1.24.28,1.79,1.79,0,0,1-1.45-.6,2.33,2.33,0,0,1-.5-1.53,5.19,5.19,0,0,1,.4-2,6.57,6.57,0,0,1,1.06-1.81,5.47,5.47,0,0,1,1.58-1.3,3.86,3.86,0,0,1,1.86-.49,1.89,1.89,0,0,1,1.11.27,2.52,2.52,0,0,1,.64.66l1-3.43a2.51,2.51,0,0,0,.18-.66.38.38,0,0,0-.15-.34.75.75,0,0,0-.38-.13,6.46,6.46,0,0,0-.69,0l.21-.81,1.41,0c.34,0,.61,0,.83,0a7.11,7.11,0,0,0,.75-.12Zm-4.29,6.67a1.43,1.43,0,0,0-.3-.94.93.93,0,0,0-.78-.37,2,2,0,0,0-1.46.77,5.74,5.74,0,0,0-1.12,1.84,5.3,5.3,0,0,0-.42,1.91,1.08,1.08,0,0,0,.29.85,1,1,0,0,0,.68.26,2,2,0,0,0,1.16-.42,4.43,4.43,0,0,0,1-1.12,6,6,0,0,0,.68-1.42A4.19,4.19,0,0,0,607.14,141.91Z"/><path class="cls-4" d="M620.22,145.26a6.83,6.83,0,0,1-.57,1,4.54,4.54,0,0,1-.7.75,3,3,0,0,1-.78.49,1.9,1.9,0,0,1-.81.17,1.18,1.18,0,0,1-1.19-.56,3.16,3.16,0,0,1-.25-1.33,9.25,9.25,0,0,1-1.39,1.36,2.52,2.52,0,0,1-1.57.53,1.31,1.31,0,0,1-.86-.28,1.64,1.64,0,0,1-.5-.77,3.24,3.24,0,0,1-.17-1A6,6,0,0,1,612,143a6.38,6.38,0,0,1,1.65-2.21,3.36,3.36,0,0,1,2.24-.9,1.55,1.55,0,0,1,.87.22,1.25,1.25,0,0,1,.44.49,3.63,3.63,0,0,1,.2.61l.33-1.1h1.94l-1.63,5.36a3.76,3.76,0,0,0-.18.71.27.27,0,0,0,.08.19.23.23,0,0,0,.17.08c.38,0,.79-.4,1.22-1.21Zm-3.28-3.51a1.55,1.55,0,0,0-.16-.74.62.62,0,0,0-.59-.31,1.72,1.72,0,0,0-1.28.76,6.11,6.11,0,0,0-1,1.84,5.52,5.52,0,0,0-.39,1.82c0,.7.23,1.06.67,1.06a1.47,1.47,0,0,0,1-.43,4.54,4.54,0,0,0,.9-1.14,7.22,7.22,0,0,0,.66-1.49A4.51,4.51,0,0,0,616.94,141.75Z"/><path class="cls-4" d="M629.57,142.47a4.45,4.45,0,0,1-.4,1.83,6,6,0,0,1-2.88,2.88,4.88,4.88,0,0,1-2,.44,3.14,3.14,0,0,1-2.2-.72,2.19,2.19,0,0,1-.78-1.68,6.24,6.24,0,0,1,.32-1.69l1.93-6.28a2.53,2.53,0,0,0,.1-.5.39.39,0,0,0-.27-.4,2.56,2.56,0,0,0-.75-.09h-.25l.25-.81a15.42,15.42,0,0,0,3-.21h.58l-1.81,5.91.43-.35a4,4,0,0,1,.58-.42,3.6,3.6,0,0,1,1.78-.47,2.48,2.48,0,0,1,1.18.29,2.21,2.21,0,0,1,.87.87A2.87,2.87,0,0,1,629.57,142.47Zm-2.16,0a1.72,1.72,0,0,0-.3-1,1,1,0,0,0-.89-.41c-1,0-1.76.71-2.39,2.14a8.75,8.75,0,0,0-.47,1.45,5.08,5.08,0,0,0-.18,1,1.27,1.27,0,0,0,.32.88,1.16,1.16,0,0,0,.91.35,2.1,2.1,0,0,0,1.63-.76,4.93,4.93,0,0,0,1-1.8A5.91,5.91,0,0,0,627.41,142.51Z"/><path class="cls-4" d="M636.18,135.24l-3.07,10.08a4.62,4.62,0,0,0-.24.93.36.36,0,0,0,.07.24.22.22,0,0,0,.18.08c.16,0,.37-.13.64-.41a3.2,3.2,0,0,0,.64-.94h.82a7.51,7.51,0,0,1-1.15,1.61,2.32,2.32,0,0,1-1.8.79,1.53,1.53,0,0,1-1.06-.36,1.19,1.19,0,0,1-.4-.89,5.38,5.38,0,0,1,.27-1.32l2.25-7.33a4,4,0,0,0,.22-1,.39.39,0,0,0-.25-.41,3.12,3.12,0,0,0-.93-.09l.21-.81h.94c.4,0,.77,0,1.11,0a5.71,5.71,0,0,0,1-.16Z"/><path class="cls-4" d="M644.05,141.37a1.94,1.94,0,0,1-.22.83,3.24,3.24,0,0,1-.8,1,5.28,5.28,0,0,1-1.67.93,10.8,10.8,0,0,1-2.73.56h-.21a3.2,3.2,0,0,0-.08.65,1.21,1.21,0,0,0,.32.94,1.31,1.31,0,0,0,.91.28,3.35,3.35,0,0,0,2.52-1.42H643a6.43,6.43,0,0,1-1.65,1.65,4.29,4.29,0,0,1-2.63.82,2.94,2.94,0,0,1-1.81-.57,1.94,1.94,0,0,1-.75-1.66,5.1,5.1,0,0,1,.75-2.62,6,6,0,0,1,2-2.06,5.27,5.27,0,0,1,2.81-.8,2.83,2.83,0,0,1,1.75.42A1.26,1.26,0,0,1,644.05,141.37Zm-1.86,0a.81.81,0,0,0-.2-.54.68.68,0,0,0-.55-.24,1.75,1.75,0,0,0-1.13.43,4,4,0,0,0-.87,1,7.41,7.41,0,0,0-.57,1.17c-.15.4-.24.65-.28.74a6,6,0,0,0,2.7-1A2,2,0,0,0,642.19,141.34Z"/><path class="cls-4" d="M650.16,137a3.15,3.15,0,0,1-.45,1.55,4,4,0,0,1-1.32,1.39,4.68,4.68,0,0,1-2.18.7l.26-.81a3.64,3.64,0,0,0,2-.94,1.87,1.87,0,0,0,.62-1.09c0-.1,0-.17-.07-.2a.56.56,0,0,0-.27-.05,1.17,1.17,0,0,1-.76-2,1.12,1.12,0,0,1,.8-.31,1.14,1.14,0,0,1,1,.53A2,2,0,0,1,650.16,137Zm4.59,0a3.15,3.15,0,0,1-.45,1.55,4,4,0,0,1-1.33,1.39,4.61,4.61,0,0,1-2.17.7l.25-.81a3.64,3.64,0,0,0,2-.94,1.81,1.81,0,0,0,.62-1.09c0-.1,0-.17-.08-.2a.54.54,0,0,0-.26-.05,1.13,1.13,0,0,1-1.1-1.15,1.11,1.11,0,0,1,.33-.84,1.13,1.13,0,0,1,.8-.31,1.15,1.15,0,0,1,1,.53A2.11,2.11,0,0,1,654.75,137Z"/><path class="cls-4" d="M561,165.24l-.24.81a4.19,4.19,0,0,0-1.55.58,2.79,2.79,0,0,0-.83.81,1.38,1.38,0,0,0-.25.64.22.22,0,0,0,.08.2.54.54,0,0,0,.26.05,1.13,1.13,0,0,1,.76.31,1.08,1.08,0,0,1,.34.84,1.1,1.1,0,0,1-1.13,1.15,1.15,1.15,0,0,1-1-.53,2.12,2.12,0,0,1-.36-1.23,3,3,0,0,1,.24-1.14,4,4,0,0,1,2-2A4.79,4.79,0,0,1,561,165.24Zm4.6,0-.25.81a4.19,4.19,0,0,0-1.55.58,3,3,0,0,0-.84.81,1.46,1.46,0,0,0-.24.64.22.22,0,0,0,.08.2.54.54,0,0,0,.26.05,1.13,1.13,0,0,1,1.1,1.15,1.11,1.11,0,0,1-.33.84,1.21,1.21,0,0,1-1.81-.22,2.12,2.12,0,0,1-.36-1.23,3,3,0,0,1,.24-1.14,4.22,4.22,0,0,1,.73-1.12,4.07,4.07,0,0,1,1.24-.91A4.84,4.84,0,0,1,565.64,165.24Z"/><path class="cls-4" d="M573.17,175.26a6.87,6.87,0,0,1-.58,1,4.54,4.54,0,0,1-.7.75,3,3,0,0,1-.78.49,1.9,1.9,0,0,1-.81.17c-.62,0-1-.19-1.18-.56a3.15,3.15,0,0,1-.26-1.33,8.8,8.8,0,0,1-1.39,1.36,2.51,2.51,0,0,1-1.56.53,1.32,1.32,0,0,1-.87-.28,1.81,1.81,0,0,1-.5-.77,3.24,3.24,0,0,1-.16-1A6.08,6.08,0,0,1,565,173a6.64,6.64,0,0,1,1.65-2.21,3.38,3.38,0,0,1,2.25-.9,1.55,1.55,0,0,1,.87.22,1.22,1.22,0,0,1,.43.49,4.84,4.84,0,0,1,.21.61l.32-1.1h1.95L571,175.49a3.76,3.76,0,0,0-.18.71.27.27,0,0,0,.08.19.25.25,0,0,0,.17.08c.38,0,.79-.4,1.22-1.21Zm-3.28-3.51a1.56,1.56,0,0,0-.17-.74.6.6,0,0,0-.59-.31,1.74,1.74,0,0,0-1.28.76,6.33,6.33,0,0,0-1,1.84,5.74,5.74,0,0,0-.38,1.82c0,.7.22,1.06.67,1.06a1.45,1.45,0,0,0,1-.43,4.32,4.32,0,0,0,.9-1.14,6.73,6.73,0,0,0,.66-1.49A4.55,4.55,0,0,0,569.89,171.75Z"/><path class="cls-4" d="M581.47,171.75a1.31,1.31,0,0,1-.31.9,1,1,0,0,1-.82.36.85.85,0,0,1-.61-.21.72.72,0,0,1-.24-.55,2.43,2.43,0,0,1,.07-.47,1.16,1.16,0,0,0,.08-.43.56.56,0,0,0-.27-.55,1.16,1.16,0,0,0-.54-.15,1.88,1.88,0,0,0-1.45.84,6.67,6.67,0,0,0-1,2,5.82,5.82,0,0,0-.4,1.87q0,.79.39,1a1.58,1.58,0,0,0,.78.21,2.58,2.58,0,0,0,1.44-.42,4.76,4.76,0,0,0,1.1-1h1a6,6,0,0,1-1.75,1.69,4.37,4.37,0,0,1-2.51.76,2.67,2.67,0,0,1-1.89-.61,2.08,2.08,0,0,1-.67-1.64,5.34,5.34,0,0,1,.7-2.51,5.93,5.93,0,0,1,2-2.12,4.89,4.89,0,0,1,2.76-.83,2.91,2.91,0,0,1,1,.15,2.24,2.24,0,0,1,.71.41,1.69,1.69,0,0,1,.45.59A1.72,1.72,0,0,1,581.47,171.75Z"/><path class="cls-4" d="M589.71,171.75a1.31,1.31,0,0,1-.31.9,1,1,0,0,1-.82.36.89.89,0,0,1-.61-.21.75.75,0,0,1-.23-.55,1.84,1.84,0,0,1,.07-.47,1.41,1.41,0,0,0,.08-.43.57.57,0,0,0-.28-.55,1.1,1.1,0,0,0-.54-.15,1.85,1.85,0,0,0-1.44.84,6.46,6.46,0,0,0-1.06,2,6,6,0,0,0-.39,1.87c0,.53.13.87.38,1a1.64,1.64,0,0,0,.79.21,2.63,2.63,0,0,0,1.44-.42,5,5,0,0,0,1.1-1h1a6.16,6.16,0,0,1-1.75,1.69,4.38,4.38,0,0,1-2.52.76,2.7,2.7,0,0,1-1.89-.61,2.11,2.11,0,0,1-.66-1.64,5.22,5.22,0,0,1,.7-2.51,6,6,0,0,1,1.95-2.12,4.89,4.89,0,0,1,2.76-.83,2.86,2.86,0,0,1,1,.15,2.3,2.3,0,0,1,.72.41,1.62,1.62,0,0,1,.59,1.28Z"/><path class="cls-4" d="M598.09,171.37a1.94,1.94,0,0,1-.22.83,3.24,3.24,0,0,1-.8,1,5.28,5.28,0,0,1-1.67.93,10.8,10.8,0,0,1-2.73.56h-.21a3.14,3.14,0,0,0-.07.65,1.21,1.21,0,0,0,.31.94,1.31,1.31,0,0,0,.91.28,3.35,3.35,0,0,0,2.52-1.42h.93a6.43,6.43,0,0,1-1.65,1.65,4.27,4.27,0,0,1-2.63.82,2.89,2.89,0,0,1-1.8-.57,2,2,0,0,1-.76-1.66,5.1,5.1,0,0,1,.75-2.62,6,6,0,0,1,2-2.06,5.27,5.27,0,0,1,2.81-.8,2.83,2.83,0,0,1,1.75.42A1.26,1.26,0,0,1,598.09,171.37Zm-1.85,0a.82.82,0,0,0-.21-.54.68.68,0,0,0-.55-.24,1.75,1.75,0,0,0-1.13.43,3.81,3.81,0,0,0-.86,1,6.7,6.7,0,0,0-.58,1.17c-.15.4-.24.65-.28.74a6,6,0,0,0,2.7-1A2,2,0,0,0,596.24,171.34Z"/><path class="cls-4" d="M606.33,171.41a.92.92,0,0,1-.24.63.83.83,0,0,1-.65.27.9.9,0,0,1-.5-.12.86.86,0,0,1-.28-.34c-.07-.15-.15-.37-.25-.65a1,1,0,0,0-.28-.47,1.08,1.08,0,0,0-.7-.17,1.48,1.48,0,0,0-.82.24.72.72,0,0,0-.36.62,1,1,0,0,0,.15.51,2.89,2.89,0,0,0,.36.44l.67.6a8.88,8.88,0,0,1,1.26,1.19,1.83,1.83,0,0,1,.39,1.19,1.93,1.93,0,0,1-.34,1.1,2.34,2.34,0,0,1-1.1.85,5.33,5.33,0,0,1-2,.32,3.61,3.61,0,0,1-2.44-.64,1.76,1.76,0,0,1-.7-1.23,1,1,0,0,1,.27-.7,1,1,0,0,1,.72-.29c.6,0,1,.38,1,1.15a1.59,1.59,0,0,0,.28.77c.14.2.44.29.89.29a1.52,1.52,0,0,0,1-.3.93.93,0,0,0,.38-.76,1.09,1.09,0,0,0-.13-.49,2.55,2.55,0,0,0-.53-.58c-.48-.4-.87-.75-1.18-1.05a4.18,4.18,0,0,1-.69-.88,1.78,1.78,0,0,1-.24-.89,1.85,1.85,0,0,1,.27-.89,2.15,2.15,0,0,1,1-.85,4.67,4.67,0,0,1,2-.37,5.08,5.08,0,0,1,1.33.15,2.2,2.2,0,0,1,.84.37,1.26,1.26,0,0,1,.41.47A1.17,1.17,0,0,1,606.33,171.41Z"/><path class="cls-4" d="M614.58,171.41a.92.92,0,0,1-.24.63.84.84,0,0,1-.66.27.87.87,0,0,1-.49-.12.78.78,0,0,1-.28-.34c-.07-.15-.16-.37-.26-.65a.94.94,0,0,0-.27-.47,1.1,1.1,0,0,0-.7-.17,1.44,1.44,0,0,0-.82.24.71.71,0,0,0-.37.62,1,1,0,0,0,.15.51,2.47,2.47,0,0,0,.37.44c.14.14.36.34.67.6a9.27,9.27,0,0,1,1.25,1.19,1.83,1.83,0,0,1,.39,1.19,2,2,0,0,1-.33,1.1,2.32,2.32,0,0,1-1.11.85,5.25,5.25,0,0,1-2,.32,3.59,3.59,0,0,1-2.43-.64,1.72,1.72,0,0,1-.7-1.23,1,1,0,0,1,.27-.7,1,1,0,0,1,.72-.29c.6,0,.94.38,1,1.15a1.59,1.59,0,0,0,.27.77,1.07,1.07,0,0,0,.9.29,1.49,1.49,0,0,0,1-.3.93.93,0,0,0,.38-.76,1,1,0,0,0-.13-.49,2.33,2.33,0,0,0-.53-.58q-.71-.6-1.17-1.05a4.26,4.26,0,0,1-.7-.88,1.78,1.78,0,0,1-.24-.89,1.85,1.85,0,0,1,.27-.89,2.26,2.26,0,0,1,1-.85,4.7,4.7,0,0,1,2-.37,5.16,5.16,0,0,1,1.34.15,2.35,2.35,0,0,1,.84.37,1.23,1.23,0,0,1,.4.47A1.19,1.19,0,0,1,614.58,171.41Z"/><path class="cls-4" d="M620.07,175.26a5.89,5.89,0,0,1-1.07,1.56,2.39,2.39,0,0,1-1.83.8,1.54,1.54,0,0,1-1.11-.36,1.22,1.22,0,0,1-.36-.87A4.36,4.36,0,0,1,616,175l1.13-3.11a1.74,1.74,0,0,0,.17-.57.25.25,0,0,0-.08-.17.21.21,0,0,0-.17-.08c-.2,0-.42.15-.66.46a4.71,4.71,0,0,0-.53.84h-.77a4.37,4.37,0,0,1,1.35-1.8,2.73,2.73,0,0,1,1.65-.64,1.6,1.6,0,0,1,1,.29.91.91,0,0,1,.38.76,2.84,2.84,0,0,1-.2,1l-1.37,3.68a2,2,0,0,0-.14.62.28.28,0,0,0,.09.2.21.21,0,0,0,.18.1.79.79,0,0,0,.54-.28,4.75,4.75,0,0,0,.7-1Zm.65-8.89a1.07,1.07,0,0,1-.34.81,1.06,1.06,0,0,1-.79.34,1.08,1.08,0,0,1-.82-.34,1.1,1.1,0,0,1-.33-.81,1.14,1.14,0,0,1,1.15-1.13,1.17,1.17,0,0,1,.58.15,1.12,1.12,0,0,1,.4.41A1.05,1.05,0,0,1,620.72,166.37Z"/><path class="cls-4" d="M629.57,172.47a4.45,4.45,0,0,1-.4,1.83,6,6,0,0,1-2.88,2.88,4.88,4.88,0,0,1-2,.44,3.14,3.14,0,0,1-2.2-.72,2.19,2.19,0,0,1-.78-1.68,6.24,6.24,0,0,1,.32-1.69l1.93-6.28a2.53,2.53,0,0,0,.1-.5.39.39,0,0,0-.27-.4,2.56,2.56,0,0,0-.75-.09h-.25l.25-.81a15.42,15.42,0,0,0,3-.21h.58l-1.81,5.91.43-.35a4,4,0,0,1,.58-.42,3.6,3.6,0,0,1,1.78-.47,2.48,2.48,0,0,1,1.18.29,2.21,2.21,0,0,1,.87.87A2.87,2.87,0,0,1,629.57,172.47Zm-2.16,0a1.72,1.72,0,0,0-.3-1,1,1,0,0,0-.89-.41c-1,0-1.76.71-2.39,2.14a8.75,8.75,0,0,0-.47,1.45,5.08,5.08,0,0,0-.18,1,1.27,1.27,0,0,0,.32.88,1.16,1.16,0,0,0,.91.35,2.1,2.1,0,0,0,1.63-.76,4.93,4.93,0,0,0,1-1.8A5.91,5.91,0,0,0,627.41,172.51Z"/><path class="cls-4" d="M636.18,165.24l-3.07,10.08a4.62,4.62,0,0,0-.24.93.36.36,0,0,0,.07.24.22.22,0,0,0,.18.08c.16,0,.37-.13.64-.41a3.2,3.2,0,0,0,.64-.94h.82a7.51,7.51,0,0,1-1.15,1.61,2.32,2.32,0,0,1-1.8.79,1.53,1.53,0,0,1-1.06-.36,1.19,1.19,0,0,1-.4-.89,5.38,5.38,0,0,1,.27-1.32l2.25-7.33a4,4,0,0,0,.22-1,.39.39,0,0,0-.25-.41,3.12,3.12,0,0,0-.93-.09l.21-.81h.94c.4,0,.77,0,1.11,0a5.71,5.71,0,0,0,1-.16Z"/><path class="cls-4" d="M644.05,171.37a1.94,1.94,0,0,1-.22.83,3.24,3.24,0,0,1-.8,1,5.28,5.28,0,0,1-1.67.93,10.8,10.8,0,0,1-2.73.56h-.21a3.2,3.2,0,0,0-.08.65,1.21,1.21,0,0,0,.32.94,1.31,1.31,0,0,0,.91.28,3.35,3.35,0,0,0,2.52-1.42H643a6.43,6.43,0,0,1-1.65,1.65,4.29,4.29,0,0,1-2.63.82,2.94,2.94,0,0,1-1.81-.57,1.94,1.94,0,0,1-.75-1.66,5.1,5.1,0,0,1,.75-2.62,6,6,0,0,1,2-2.06,5.27,5.27,0,0,1,2.81-.8,2.83,2.83,0,0,1,1.75.42A1.26,1.26,0,0,1,644.05,171.37Zm-1.86,0a.81.81,0,0,0-.2-.54.68.68,0,0,0-.55-.24,1.75,1.75,0,0,0-1.13.43,4,4,0,0,0-.87,1,7.41,7.41,0,0,0-.57,1.17c-.15.4-.24.65-.28.74a6,6,0,0,0,2.7-1A2,2,0,0,0,642.19,171.34Z"/><path class="cls-4" d="M650.16,167a3.15,3.15,0,0,1-.45,1.55,4,4,0,0,1-1.32,1.39,4.68,4.68,0,0,1-2.18.7l.26-.81a3.64,3.64,0,0,0,2-.94,1.87,1.87,0,0,0,.62-1.09c0-.1,0-.17-.07-.2a.56.56,0,0,0-.27-.05,1.17,1.17,0,0,1-.76-2,1.12,1.12,0,0,1,.8-.31,1.14,1.14,0,0,1,1,.53A2,2,0,0,1,650.16,167Zm4.59,0a3.15,3.15,0,0,1-.45,1.55,4,4,0,0,1-1.33,1.39,4.61,4.61,0,0,1-2.17.7l.25-.81a3.64,3.64,0,0,0,2-.94,1.81,1.81,0,0,0,.62-1.09c0-.1,0-.17-.08-.2a.54.54,0,0,0-.26-.05,1.13,1.13,0,0,1-1.1-1.15,1.11,1.11,0,0,1,.33-.84,1.13,1.13,0,0,1,.8-.31,1.15,1.15,0,0,1,1,.53A2.11,2.11,0,0,1,654.75,167Z"/><path class="cls-4" d="M583,195.24l-.24.81a4.19,4.19,0,0,0-1.55.58,2.79,2.79,0,0,0-.83.81,1.38,1.38,0,0,0-.25.64.22.22,0,0,0,.08.2.54.54,0,0,0,.26.05,1.13,1.13,0,0,1,.76.31,1.08,1.08,0,0,1,.34.84,1.1,1.1,0,0,1-1.13,1.15,1.15,1.15,0,0,1-1-.53,2.12,2.12,0,0,1-.36-1.23,3,3,0,0,1,.24-1.14,4,4,0,0,1,2-2A4.79,4.79,0,0,1,583,195.24Zm4.6,0-.25.81a4.19,4.19,0,0,0-1.55.58,3,3,0,0,0-.84.81,1.46,1.46,0,0,0-.24.64.22.22,0,0,0,.08.2.54.54,0,0,0,.26.05,1.13,1.13,0,0,1,1.1,1.15,1.11,1.11,0,0,1-.33.84,1.21,1.21,0,0,1-1.81-.22,2.12,2.12,0,0,1-.36-1.23,3,3,0,0,1,.24-1.14,4.22,4.22,0,0,1,.73-1.12,4.07,4.07,0,0,1,1.24-.91A4.84,4.84,0,0,1,587.56,195.24Z"/><path class="cls-4" d="M596.61,195.24l-3.12,10.11a5,5,0,0,0-.19.88c0,.21.1.31.29.31a1,1,0,0,0,.62-.33,3.92,3.92,0,0,0,.64-.87h.84a4.82,4.82,0,0,1-.54.91,4.36,4.36,0,0,1-1,1,2.36,2.36,0,0,1-1.35.41c-1,0-1.52-.54-1.52-1.63v-.12a.41.41,0,0,0,0-.12,5.27,5.27,0,0,1-.84.88,4.29,4.29,0,0,1-1.11.71,2.91,2.91,0,0,1-1.24.28,1.76,1.76,0,0,1-1.44-.6,2.27,2.27,0,0,1-.5-1.53,5.37,5.37,0,0,1,.39-2,6.57,6.57,0,0,1,1.06-1.81,5.6,5.6,0,0,1,1.58-1.3,3.92,3.92,0,0,1,1.86-.49,1.89,1.89,0,0,1,1.11.27,2.52,2.52,0,0,1,.64.66l1-3.43a2.51,2.51,0,0,0,.18-.66.38.38,0,0,0-.15-.34.72.72,0,0,0-.38-.13,6.46,6.46,0,0,0-.69,0l.21-.81,1.41,0c.34,0,.61,0,.83,0a7.11,7.11,0,0,0,.75-.12Zm-4.28,6.67a1.43,1.43,0,0,0-.3-.94,1,1,0,0,0-.79-.37,2,2,0,0,0-1.46.77,5.93,5.93,0,0,0-1.12,1.84,5.3,5.3,0,0,0-.42,1.91,1.08,1.08,0,0,0,.29.85,1,1,0,0,0,.68.26,1.93,1.93,0,0,0,1.16-.42,4.43,4.43,0,0,0,1-1.12,6.43,6.43,0,0,0,.69-1.42A4.47,4.47,0,0,0,592.33,201.91Z"/><path class="cls-4" d="M601.33,205.26a5.66,5.66,0,0,1-1.07,1.56,2.36,2.36,0,0,1-1.83.8,1.5,1.5,0,0,1-1.1-.36,1.19,1.19,0,0,1-.37-.87,4.65,4.65,0,0,1,.32-1.41l1.14-3.11a1.92,1.92,0,0,0,.16-.57.28.28,0,0,0-.25-.25c-.2,0-.42.15-.66.46a5.36,5.36,0,0,0-.53.84h-.77a4.37,4.37,0,0,1,1.35-1.8,2.73,2.73,0,0,1,1.65-.64,1.6,1.6,0,0,1,1,.29.91.91,0,0,1,.38.76,3.05,3.05,0,0,1-.19,1l-1.38,3.68a2,2,0,0,0-.14.62.28.28,0,0,0,.09.2.21.21,0,0,0,.18.1.79.79,0,0,0,.54-.28,5.08,5.08,0,0,0,.71-1Zm.65-8.89a1.1,1.1,0,0,1-.33.81,1.13,1.13,0,0,1-1.62,0,1.1,1.1,0,0,1-.33-.81,1.14,1.14,0,0,1,1.15-1.13,1.17,1.17,0,0,1,.58.15,1.14,1.14,0,0,1,.55,1Z"/><path class="cls-4" d="M610.75,201.27a5.24,5.24,0,0,1-.5,2.08,8.13,8.13,0,0,1-1.36,2.1A7.28,7.28,0,0,1,607,207a4.3,4.3,0,0,1-2.12.6,2.65,2.65,0,0,1-1-.18,1.7,1.7,0,0,1-1.11-1.69,2.53,2.53,0,0,1,.42-1.43,6.64,6.64,0,0,1,1.23-1.31,11.93,11.93,0,0,0,1-.89,3.54,3.54,0,0,0,.55-.8,2.22,2.22,0,0,1-1.31.46,1.92,1.92,0,0,1-.92-.27,1.11,1.11,0,0,0-.45-.16c-.27,0-.45.18-.54.52H602c.4-1.3,1-2,1.8-2a2.16,2.16,0,0,1,1.28.58,1.83,1.83,0,0,0,.35.24.53.53,0,0,0,.24.06q.39,0,.51-.48c.06-.27.18-.4.36-.4a.44.44,0,0,1,.32.13.53.53,0,0,1,.11.34,2.26,2.26,0,0,1-.25,1,11.56,11.56,0,0,1-.67,1.16,13.87,13.87,0,0,0-1,1.76,2.93,2.93,0,0,0-.27,1.13.85.85,0,0,0,.34.75,1.34,1.34,0,0,0,.76.23,2.63,2.63,0,0,0,1.65-.63,5.08,5.08,0,0,0,1.26-1.51,3.18,3.18,0,0,0,.49-1.52,4,4,0,0,0-.14-1A2.83,2.83,0,0,1,609,201a1,1,0,0,1,.26-.81.76.76,0,0,1,1.21.13A1.73,1.73,0,0,1,610.75,201.27Z"/><path class="cls-4" d="M619.47,201.37a1.94,1.94,0,0,1-.22.83,3.1,3.1,0,0,1-.8,1,5.28,5.28,0,0,1-1.67.93,10.62,10.62,0,0,1-2.73.56h-.21a3.14,3.14,0,0,0-.07.65,1.25,1.25,0,0,0,.31.94,1.31,1.31,0,0,0,.91.28,3.35,3.35,0,0,0,2.52-1.42h.94a6.65,6.65,0,0,1-1.66,1.65,4.24,4.24,0,0,1-2.62.82,2.9,2.9,0,0,1-1.81-.57,1.94,1.94,0,0,1-.75-1.66,5.1,5.1,0,0,1,.75-2.62,5.88,5.88,0,0,1,2-2.06,5.3,5.3,0,0,1,2.82-.8,2.81,2.81,0,0,1,1.74.42A1.26,1.26,0,0,1,619.47,201.37Zm-1.85,0a.86.86,0,0,0-.2-.54.7.7,0,0,0-.56-.24,1.73,1.73,0,0,0-1.12.43,3.67,3.67,0,0,0-.87,1,6.7,6.7,0,0,0-.58,1.17c-.15.4-.24.65-.27.74a5.92,5.92,0,0,0,2.69-1A2,2,0,0,0,617.62,201.34Z"/><path class="cls-4" d="M627.92,201.06a1.59,1.59,0,0,1-.31,1,.9.9,0,0,1-.77.43,1,1,0,0,1-.77-.47.57.57,0,0,0-.42-.27c-.15,0-.37.15-.65.45a7,7,0,0,0-.84,1.18,15.55,15.55,0,0,0-.86,1.69,17.08,17.08,0,0,0-.73,2l-.11.36H620.4l1.38-4.93a4.46,4.46,0,0,0,.22-1,.36.36,0,0,0-.06-.2.23.23,0,0,0-.2-.11q-.35,0-.69.48a4.56,4.56,0,0,0-.53.88h-.81a6.64,6.64,0,0,1,1-1.58,3.54,3.54,0,0,1,1-.78,2.36,2.36,0,0,1,.9-.22.9.9,0,0,1,.91.44,2,2,0,0,1,.21.86,9.84,9.84,0,0,1-.49,2.41c.33-.57.61-1,.82-1.38a12,12,0,0,1,.76-1.07,5,5,0,0,1,.94-.91,1.75,1.75,0,0,1,1-.35.94.94,0,0,1,.9.39A1.47,1.47,0,0,1,627.92,201.06Z"/><path class="cls-4" d="M635.6,201.41a.92.92,0,0,1-.24.63.83.83,0,0,1-.65.27.9.9,0,0,1-.5-.12.86.86,0,0,1-.28-.34c-.07-.15-.15-.37-.25-.65a1,1,0,0,0-.28-.47,1.08,1.08,0,0,0-.7-.17,1.46,1.46,0,0,0-.82.24.72.72,0,0,0-.36.62,1,1,0,0,0,.15.51,2.4,2.4,0,0,0,.36.44c.14.14.37.34.67.6a9.47,9.47,0,0,1,1.26,1.19,1.83,1.83,0,0,1,.39,1.19,2,2,0,0,1-.34,1.1,2.32,2.32,0,0,1-1.11.85,5.23,5.23,0,0,1-2,.32,3.61,3.61,0,0,1-2.44-.64,1.72,1.72,0,0,1-.7-1.23,1,1,0,0,1,.27-.7,1,1,0,0,1,.72-.29c.6,0,.94.38,1,1.15a1.5,1.5,0,0,0,.28.77c.14.2.44.29.89.29a1.54,1.54,0,0,0,1-.3.92.92,0,0,0,.37-.76,1.07,1.07,0,0,0-.12-.49,2.81,2.81,0,0,0-.53-.58c-.48-.4-.87-.75-1.18-1.05a4.26,4.26,0,0,1-.7-.88,1.76,1.76,0,0,1-.23-.89,1.85,1.85,0,0,1,.27-.89,2.15,2.15,0,0,1,1-.85,4.62,4.62,0,0,1,2-.37,5.11,5.11,0,0,1,1.34.15,2.35,2.35,0,0,1,.84.37,1.26,1.26,0,0,1,.41.47A1.34,1.34,0,0,1,635.6,201.41Z"/><path class="cls-4" d="M644.05,201.37a1.94,1.94,0,0,1-.22.83,3.24,3.24,0,0,1-.8,1,5.28,5.28,0,0,1-1.67.93,10.8,10.8,0,0,1-2.73.56h-.21a3.2,3.2,0,0,0-.08.65,1.21,1.21,0,0,0,.32.94,1.31,1.31,0,0,0,.91.28,3.35,3.35,0,0,0,2.52-1.42H643a6.43,6.43,0,0,1-1.65,1.65,4.29,4.29,0,0,1-2.63.82,2.94,2.94,0,0,1-1.81-.57,1.94,1.94,0,0,1-.75-1.66,5.1,5.1,0,0,1,.75-2.62,6,6,0,0,1,2-2.06,5.27,5.27,0,0,1,2.81-.8,2.83,2.83,0,0,1,1.75.42A1.26,1.26,0,0,1,644.05,201.37Zm-1.86,0a.81.81,0,0,0-.2-.54.68.68,0,0,0-.55-.24,1.75,1.75,0,0,0-1.13.43,4,4,0,0,0-.87,1,7.41,7.41,0,0,0-.57,1.17c-.15.4-.24.65-.28.74a6,6,0,0,0,2.7-1A2,2,0,0,0,642.19,201.34Z"/><path class="cls-4" d="M650.16,197a3.15,3.15,0,0,1-.45,1.55,4,4,0,0,1-1.32,1.39,4.68,4.68,0,0,1-2.18.7l.26-.81a3.64,3.64,0,0,0,2-.94,1.87,1.87,0,0,0,.62-1.09c0-.1,0-.17-.07-.2a.56.56,0,0,0-.27-.05,1.17,1.17,0,0,1-.76-2,1.12,1.12,0,0,1,.8-.31,1.14,1.14,0,0,1,1,.53A2,2,0,0,1,650.16,197Zm4.59,0a3.15,3.15,0,0,1-.45,1.55,4,4,0,0,1-1.33,1.39,4.61,4.61,0,0,1-2.17.7l.25-.81a3.64,3.64,0,0,0,2-.94,1.81,1.81,0,0,0,.62-1.09c0-.1,0-.17-.08-.2a.54.54,0,0,0-.26-.05,1.13,1.13,0,0,1-1.1-1.15,1.11,1.11,0,0,1,.33-.84,1.13,1.13,0,0,1,.8-.31,1.15,1.15,0,0,1,1,.53A2.11,2.11,0,0,1,654.75,197Z"/><path class="cls-4" d="M578.39,225.24l-.25.81a4.26,4.26,0,0,0-1.55.58,2.79,2.79,0,0,0-.83.81,1.38,1.38,0,0,0-.25.64.22.22,0,0,0,.08.2.54.54,0,0,0,.26.05,1.11,1.11,0,0,1,.76.31,1.08,1.08,0,0,1,.34.84,1.1,1.1,0,0,1-1.13,1.15,1.15,1.15,0,0,1-1-.53,2.12,2.12,0,0,1-.36-1.23,3,3,0,0,1,.24-1.14,4,4,0,0,1,2-2A4.84,4.84,0,0,1,578.39,225.24Zm4.59,0-.25.81a4.19,4.19,0,0,0-1.55.58,2.79,2.79,0,0,0-.83.81,1.38,1.38,0,0,0-.25.64.22.22,0,0,0,.08.2.54.54,0,0,0,.26.05,1.09,1.09,0,0,1,.75.31,1.05,1.05,0,0,1,.35.84,1.11,1.11,0,0,1-.33.84,1.21,1.21,0,0,1-1.81-.22,2.12,2.12,0,0,1-.36-1.23,3,3,0,0,1,.24-1.14,4.22,4.22,0,0,1,.73-1.12,4.07,4.07,0,0,1,1.24-.91A4.84,4.84,0,0,1,583,225.24Z"/><path class="cls-4" d="M589.39,231.37a1.94,1.94,0,0,1-.22.83,3.24,3.24,0,0,1-.8,1,5.28,5.28,0,0,1-1.67.93,10.8,10.8,0,0,1-2.73.56h-.21a3.14,3.14,0,0,0-.07.65,1.21,1.21,0,0,0,.31.94,1.31,1.31,0,0,0,.91.28,3.35,3.35,0,0,0,2.52-1.42h.93a6.43,6.43,0,0,1-1.65,1.65,4.29,4.29,0,0,1-2.63.82,2.89,2.89,0,0,1-1.8-.57,1.92,1.92,0,0,1-.76-1.66,5.1,5.1,0,0,1,.75-2.62,6,6,0,0,1,2-2.06,5.27,5.27,0,0,1,2.81-.8,2.83,2.83,0,0,1,1.75.42A1.26,1.26,0,0,1,589.39,231.37Zm-1.85,0a.82.82,0,0,0-.21-.54.68.68,0,0,0-.55-.24,1.75,1.75,0,0,0-1.13.43,4,4,0,0,0-.87,1,7.41,7.41,0,0,0-.57,1.17c-.15.4-.24.65-.28.74a6,6,0,0,0,2.7-1A2,2,0,0,0,587.54,231.34Z"/><path class="cls-4" d="M598.06,226.53a.91.91,0,0,1-.25.65.8.8,0,0,1-.62.27.67.67,0,0,1-.57-.24,3,3,0,0,1-.35-.77.87.87,0,0,0-.16-.32.41.41,0,0,0-.3-.11.37.37,0,0,0-.34.19,2,2,0,0,0-.21.5l-1.06,3.47h1.47l-.25.81h-1.48l-1.53,5a29.2,29.2,0,0,1-1.1,3.07,5.3,5.3,0,0,1-1.38,1.92,3.2,3.2,0,0,1-2.25.81,2.29,2.29,0,0,1-1.5-.43,1.19,1.19,0,0,1-.53-1,1,1,0,0,1,.28-.71.94.94,0,0,1,.73-.3.75.75,0,0,1,.7.28,1.85,1.85,0,0,1,.21.75c0,.4.21.59.51.59a.84.84,0,0,0,.74-.49,7.3,7.3,0,0,0,.59-1.53l2.45-8h-1.55l.25-.81h1.55l.16-.56a13.85,13.85,0,0,1,.76-2.09,4.53,4.53,0,0,1,1.22-1.59,3.05,3.05,0,0,1,2-.69,2.57,2.57,0,0,1,.87.15,1.63,1.63,0,0,1,.66.44A1.08,1.08,0,0,1,598.06,226.53Z"/><path class="cls-4" d="M602.85,226.53a1,1,0,0,1-.25.65.83.83,0,0,1-.63.27.67.67,0,0,1-.57-.24,3,3,0,0,1-.35-.77.87.87,0,0,0-.16-.32.4.4,0,0,0-.29-.11.38.38,0,0,0-.35.19,2,2,0,0,0-.21.5L599,230.17h1.48l-.26.81h-1.48l-1.53,5a32.07,32.07,0,0,1-1.09,3.07,5.55,5.55,0,0,1-1.38,1.92,3.24,3.24,0,0,1-2.25.81,2.32,2.32,0,0,1-1.51-.43,1.19,1.19,0,0,1-.53-1,1,1,0,0,1,.28-.71,1,1,0,0,1,.73-.3.75.75,0,0,1,.7.28,1.85,1.85,0,0,1,.21.75c0,.4.21.59.51.59a.84.84,0,0,0,.74-.49,7.3,7.3,0,0,0,.59-1.53l2.45-8h-1.55l.25-.81h1.55l.16-.56a13.85,13.85,0,0,1,.76-2.09,4.44,4.44,0,0,1,1.23-1.59,3,3,0,0,1,2-.69,2.49,2.49,0,0,1,.87.15,1.51,1.51,0,0,1,.66.44A1.09,1.09,0,0,1,602.85,226.53Z"/><path class="cls-4" d="M605.1,235.26a5.94,5.94,0,0,1-1.08,1.56,2.36,2.36,0,0,1-1.82.8,1.51,1.51,0,0,1-1.11-.36,1.19,1.19,0,0,1-.37-.87A4.65,4.65,0,0,1,601,235l1.14-3.11a1.92,1.92,0,0,0,.16-.57.23.23,0,0,0-.07-.17.24.24,0,0,0-.18-.08c-.2,0-.42.15-.65.46a4.83,4.83,0,0,0-.54.84h-.77a4.54,4.54,0,0,1,1.35-1.8,2.73,2.73,0,0,1,1.66-.64,1.59,1.59,0,0,1,1,.29.91.91,0,0,1,.38.76,2.82,2.82,0,0,1-.19,1l-1.37,3.68a1.72,1.72,0,0,0-.14.62.27.27,0,0,0,.08.2.22.22,0,0,0,.18.1.77.77,0,0,0,.54-.28,4.7,4.7,0,0,0,.71-1Zm.65-8.89a1.11,1.11,0,0,1-.34.81,1.13,1.13,0,0,1-1.62,0,1.1,1.1,0,0,1-.33-.81,1.14,1.14,0,0,1,1.15-1.13,1.12,1.12,0,0,1,1,.56A1.05,1.05,0,0,1,605.75,226.37Z"/><path class="cls-4" d="M613.55,231.75a1.31,1.31,0,0,1-.31.9,1,1,0,0,1-.82.36.87.87,0,0,1-.61-.21.72.72,0,0,1-.24-.55,2.43,2.43,0,0,1,.07-.47,1.16,1.16,0,0,0,.08-.43.56.56,0,0,0-.27-.55,1.16,1.16,0,0,0-.54-.15,1.88,1.88,0,0,0-1.45.84,6.67,6.67,0,0,0-1.05,2,5.82,5.82,0,0,0-.4,1.87q0,.79.39,1a1.58,1.58,0,0,0,.78.21,2.58,2.58,0,0,0,1.44-.42,4.76,4.76,0,0,0,1.1-1h.95a6,6,0,0,1-1.75,1.69,4.37,4.37,0,0,1-2.51.76,2.67,2.67,0,0,1-1.89-.61,2.08,2.08,0,0,1-.67-1.64,5.34,5.34,0,0,1,.7-2.51,5.93,5.93,0,0,1,2-2.12,4.89,4.89,0,0,1,2.76-.83,2.91,2.91,0,0,1,1,.15,2.24,2.24,0,0,1,.71.41,1.69,1.69,0,0,1,.45.59A1.72,1.72,0,0,1,613.55,231.75Z"/><path class="cls-4" d="M619,235.26a5.66,5.66,0,0,1-1.07,1.56,2.36,2.36,0,0,1-1.83.8,1.5,1.5,0,0,1-1.1-.36,1.19,1.19,0,0,1-.37-.87,4.65,4.65,0,0,1,.32-1.41l1.14-3.11a1.92,1.92,0,0,0,.16-.57.28.28,0,0,0-.25-.25c-.2,0-.42.15-.66.46a5.36,5.36,0,0,0-.53.84H614a4.37,4.37,0,0,1,1.35-1.8,2.73,2.73,0,0,1,1.65-.64,1.6,1.6,0,0,1,1,.29.91.91,0,0,1,.38.76,3.05,3.05,0,0,1-.19,1l-1.38,3.68a2,2,0,0,0-.14.62.28.28,0,0,0,.09.2.21.21,0,0,0,.18.1.79.79,0,0,0,.54-.28,5.08,5.08,0,0,0,.71-1Zm.65-8.89a1.14,1.14,0,0,1-1.13,1.15,1.08,1.08,0,0,1-.82-.34,1.1,1.1,0,0,1-.33-.81,1.14,1.14,0,0,1,1.15-1.13,1.17,1.17,0,0,1,.58.15,1.14,1.14,0,0,1,.55,1Z"/><path class="cls-4" d="M627.56,231.37a1.94,1.94,0,0,1-.22.83,3.24,3.24,0,0,1-.8,1,5.28,5.28,0,0,1-1.67.93,10.8,10.8,0,0,1-2.73.56h-.21a3.14,3.14,0,0,0-.07.65,1.21,1.21,0,0,0,.31.94,1.31,1.31,0,0,0,.91.28,3.35,3.35,0,0,0,2.52-1.42h.93a6.43,6.43,0,0,1-1.65,1.65,4.27,4.27,0,0,1-2.63.82,2.89,2.89,0,0,1-1.8-.57,2,2,0,0,1-.76-1.66,5.1,5.1,0,0,1,.75-2.62,6,6,0,0,1,2-2.06,5.27,5.27,0,0,1,2.81-.8,2.83,2.83,0,0,1,1.75.42A1.26,1.26,0,0,1,627.56,231.37Zm-1.85,0a.82.82,0,0,0-.21-.54.68.68,0,0,0-.55-.24,1.75,1.75,0,0,0-1.13.43,3.81,3.81,0,0,0-.86,1,6.7,6.7,0,0,0-.58,1.17c-.15.4-.24.65-.28.74a6,6,0,0,0,2.7-1A2,2,0,0,0,625.71,231.34Z"/><path class="cls-4" d="M638.09,235.06a6.67,6.67,0,0,1-.68,1,4.31,4.31,0,0,1-1.09,1,2.45,2.45,0,0,1-1.39.43,1.55,1.55,0,0,1-1-.32,1,1,0,0,1-.38-.83,3.76,3.76,0,0,1,.22-1.1l.64-2.12a4.8,4.8,0,0,0,.27-1.19.66.66,0,0,0-.11-.35.41.41,0,0,0-.33-.16c-.32,0-.71.27-1.17.8a12,12,0,0,0-1.39,2.17,18.36,18.36,0,0,0-1.22,3h-2.1l1.59-5.15a6,6,0,0,0,.22-.9.49.49,0,0,0-.06-.22.2.2,0,0,0-.2-.11.85.85,0,0,0-.65.43,5.46,5.46,0,0,0-.54.94H628a4.91,4.91,0,0,1,1-1.69,2.3,2.3,0,0,1,1.77-.76,1.36,1.36,0,0,1,1,.37,1.17,1.17,0,0,1,.33.78,4,4,0,0,1-.09.7c-.07.31-.14.6-.22.87l-.31.9a17.17,17.17,0,0,1,2-2.65,2.94,2.94,0,0,1,2.12-1,1.18,1.18,0,0,1,1,.39,1.39,1.39,0,0,1,.31.85,5.19,5.19,0,0,1-.21,1.07l-.93,3.05a4,4,0,0,0-.16.8.27.27,0,0,0,.06.17.19.19,0,0,0,.16.08,1.07,1.07,0,0,0,.62-.35,3.6,3.6,0,0,0,.71-.91Z"/><path class="cls-4" d="M644.5,230.17l-.25.81H642.5l-1.33,4.34a2.82,2.82,0,0,0-.14.67.52.52,0,0,0,.12.34.36.36,0,0,0,.31.16,1.12,1.12,0,0,0,.89-.5,7.41,7.41,0,0,0,.7-1.08h.82a5.56,5.56,0,0,1-1.11,1.7,3.32,3.32,0,0,1-1.16.81,3,3,0,0,1-1,.2,1.59,1.59,0,0,1-1.18-.44A1.61,1.61,0,0,1,639,236a4.86,4.86,0,0,1,.27-1.36l1.14-3.67h-1.64l.25-.81h1.64l.8-2.68h2.1l-.81,2.68Z"/><path class="cls-4" d="M650.16,227a3.15,3.15,0,0,1-.45,1.55,4,4,0,0,1-1.32,1.39,4.68,4.68,0,0,1-2.18.7l.26-.81a3.64,3.64,0,0,0,2-.94,1.87,1.87,0,0,0,.62-1.09c0-.1,0-.17-.07-.2a.56.56,0,0,0-.27-.05,1.17,1.17,0,0,1-.76-2,1.12,1.12,0,0,1,.8-.31,1.14,1.14,0,0,1,1,.53A2,2,0,0,1,650.16,227Zm4.59,0a3.15,3.15,0,0,1-.45,1.55,4,4,0,0,1-1.33,1.39,4.61,4.61,0,0,1-2.17.7l.25-.81a3.64,3.64,0,0,0,2-.94,1.81,1.81,0,0,0,.62-1.09c0-.1,0-.17-.08-.2a.54.54,0,0,0-.26-.05,1.13,1.13,0,0,1-1.1-1.15,1.11,1.11,0,0,1,.33-.84,1.13,1.13,0,0,1,.8-.31,1.15,1.15,0,0,1,1,.53A2.11,2.11,0,0,1,654.75,227Z"/><path class="cls-4" d="M580.54,255.24l-.25.81a4.13,4.13,0,0,0-1.54.58,2.84,2.84,0,0,0-.84.81,1.46,1.46,0,0,0-.24.64c0,.1,0,.17.07.2a.59.59,0,0,0,.27.05,1.17,1.17,0,0,1,.76,2,1.2,1.2,0,0,1-1.8-.22,2.06,2.06,0,0,1-.37-1.23,2.87,2.87,0,0,1,.25-1.14,3.78,3.78,0,0,1,.73-1.12,4,4,0,0,1,1.23-.91A4.84,4.84,0,0,1,580.54,255.24Zm4.6,0-.26.81a4.26,4.26,0,0,0-1.55.58,2.79,2.79,0,0,0-.83.81,1.38,1.38,0,0,0-.25.64.22.22,0,0,0,.08.2.56.56,0,0,0,.27.05,1.11,1.11,0,0,1,1.09,1.15,1.1,1.1,0,0,1-1.13,1.15,1.15,1.15,0,0,1-1-.53,2.12,2.12,0,0,1-.36-1.23,2.87,2.87,0,0,1,.25-1.14,3.78,3.78,0,0,1,.73-1.12,4,4,0,0,1,1.23-.91A4.84,4.84,0,0,1,585.14,255.24Z"/><path class="cls-4" d="M591.54,261.06a1.65,1.65,0,0,1-.3,1,.93.93,0,0,1-.78.43,1,1,0,0,1-.77-.47.57.57,0,0,0-.41-.27c-.16,0-.38.15-.65.45a6.45,6.45,0,0,0-.85,1.18,15.55,15.55,0,0,0-.86,1.69,19.18,19.18,0,0,0-.73,2l-.11.36H584l1.38-4.93a4,4,0,0,0,.22-1,.36.36,0,0,0-.06-.2.22.22,0,0,0-.2-.11.94.94,0,0,0-.69.48,5.13,5.13,0,0,0-.53.88h-.81a6.35,6.35,0,0,1,1-1.58,3.39,3.39,0,0,1,1-.78,2.45,2.45,0,0,1,.9-.22.9.9,0,0,1,.91.44,2,2,0,0,1,.21.86,9.38,9.38,0,0,1-.49,2.41c.33-.57.61-1,.82-1.38a10.42,10.42,0,0,1,.77-1.07,4.72,4.72,0,0,1,.94-.91,1.7,1.7,0,0,1,1-.35.92.92,0,0,1,.89.39A1.47,1.47,0,0,1,591.54,261.06Z"/><path class="cls-4" d="M599.39,261.37a1.94,1.94,0,0,1-.22.83,3.1,3.1,0,0,1-.8,1,5.28,5.28,0,0,1-1.67.93,10.8,10.8,0,0,1-2.73.56h-.21a3.14,3.14,0,0,0-.07.65,1.21,1.21,0,0,0,.31.94,1.31,1.31,0,0,0,.91.28,3.35,3.35,0,0,0,2.52-1.42h.93a6.43,6.43,0,0,1-1.65,1.65,4.27,4.27,0,0,1-2.63.82,2.89,2.89,0,0,1-1.8-.57,1.94,1.94,0,0,1-.75-1.66,5.08,5.08,0,0,1,.74-2.62,6,6,0,0,1,2-2.06,5.27,5.27,0,0,1,2.81-.8,2.83,2.83,0,0,1,1.75.42A1.26,1.26,0,0,1,599.39,261.37Zm-1.85,0a.82.82,0,0,0-.21-.54.66.66,0,0,0-.55-.24,1.77,1.77,0,0,0-1.13.43,3.81,3.81,0,0,0-.86,1,6.7,6.7,0,0,0-.58,1.17c-.15.4-.24.65-.28.74a6,6,0,0,0,2.7-1A2,2,0,0,0,597.54,261.34Z"/><path class="cls-4" d="M605.61,255.24l-3.08,10.08a4.62,4.62,0,0,0-.24.93.43.43,0,0,0,.07.24.22.22,0,0,0,.19.08c.15,0,.36-.13.63-.41a3.2,3.2,0,0,0,.64-.94h.83a7.87,7.87,0,0,1-1.15,1.61,2.33,2.33,0,0,1-1.81.79,1.49,1.49,0,0,1-1.05-.36,1.16,1.16,0,0,1-.4-.89,5.38,5.38,0,0,1,.27-1.32l2.25-7.33a4.65,4.65,0,0,0,.22-1,.41.41,0,0,0-.25-.41,3.25,3.25,0,0,0-.94-.09l.21-.81h.94c.41,0,.78,0,1.11,0a6,6,0,0,0,1-.16Z"/><path class="cls-4" d="M610.52,265.26a6.13,6.13,0,0,1-1.07,1.56,2.39,2.39,0,0,1-1.83.8,1.54,1.54,0,0,1-1.11-.36,1.19,1.19,0,0,1-.37-.87,4.43,4.43,0,0,1,.33-1.41l1.13-3.11a2.05,2.05,0,0,0,.17-.57.25.25,0,0,0-.08-.17.22.22,0,0,0-.18-.08c-.2,0-.41.15-.65.46a4.2,4.2,0,0,0-.53.84h-.78a4.54,4.54,0,0,1,1.35-1.8,2.78,2.78,0,0,1,1.66-.64,1.54,1.54,0,0,1,1,.29.88.88,0,0,1,.38.76,2.82,2.82,0,0,1-.19,1l-1.37,3.68a2,2,0,0,0-.14.62.32.32,0,0,0,.08.2.24.24,0,0,0,.18.1.79.79,0,0,0,.55-.28,5.14,5.14,0,0,0,.7-1Zm.65-8.89a1.07,1.07,0,0,1-.34.81,1.06,1.06,0,0,1-.79.34,1.14,1.14,0,0,1-1.16-1.15,1.09,1.09,0,0,1,.33-.79,1.17,1.17,0,0,1,1.4-.19,1.15,1.15,0,0,1,.41.41A1.05,1.05,0,0,1,611.17,256.37Z"/><path class="cls-4" d="M620.22,265.26a6.83,6.83,0,0,1-.57.95,4.54,4.54,0,0,1-.7.75,3,3,0,0,1-.78.49,1.9,1.9,0,0,1-.81.17,1.18,1.18,0,0,1-1.19-.56,3.16,3.16,0,0,1-.25-1.33,9.25,9.25,0,0,1-1.39,1.36,2.52,2.52,0,0,1-1.57.53,1.31,1.31,0,0,1-.86-.28,1.64,1.64,0,0,1-.5-.77,3.24,3.24,0,0,1-.17-1A6,6,0,0,1,612,263a6.38,6.38,0,0,1,1.65-2.21,3.36,3.36,0,0,1,2.24-.9,1.55,1.55,0,0,1,.87.22,1.25,1.25,0,0,1,.44.49,3.63,3.63,0,0,1,.2.61l.33-1.1h1.94l-1.63,5.36a3.76,3.76,0,0,0-.18.71.27.27,0,0,0,.08.19.23.23,0,0,0,.17.08c.38,0,.79-.4,1.22-1.21Zm-3.28-3.51a1.55,1.55,0,0,0-.16-.74.62.62,0,0,0-.59-.31,1.72,1.72,0,0,0-1.28.76,6.11,6.11,0,0,0-1,1.84,5.52,5.52,0,0,0-.39,1.82c0,.7.23,1.06.67,1.06a1.47,1.47,0,0,0,1-.43,4.54,4.54,0,0,0,.9-1.14,7.22,7.22,0,0,0,.66-1.49A4.51,4.51,0,0,0,616.94,261.75Z"/><path class="cls-4" d="M629.57,262.47a4.45,4.45,0,0,1-.4,1.83,6,6,0,0,1-2.88,2.88,4.88,4.88,0,0,1-2,.44,3.14,3.14,0,0,1-2.2-.72,2.19,2.19,0,0,1-.78-1.68,6.24,6.24,0,0,1,.32-1.69l1.93-6.28a2.53,2.53,0,0,0,.1-.5.39.39,0,0,0-.27-.4,2.56,2.56,0,0,0-.75-.09h-.25l.25-.81a15.42,15.42,0,0,0,3-.21h.58l-1.81,5.91.43-.35a4,4,0,0,1,.58-.42,3.6,3.6,0,0,1,1.78-.47,2.48,2.48,0,0,1,1.18.29,2.21,2.21,0,0,1,.87.87A2.87,2.87,0,0,1,629.57,262.47Zm-2.16,0a1.72,1.72,0,0,0-.3-1.05,1,1,0,0,0-.89-.41c-1,0-1.76.71-2.39,2.14a8.75,8.75,0,0,0-.47,1.45,5.08,5.08,0,0,0-.18,1,1.27,1.27,0,0,0,.32.88,1.16,1.16,0,0,0,.91.35,2.1,2.1,0,0,0,1.63-.76,4.93,4.93,0,0,0,1-1.8A5.91,5.91,0,0,0,627.41,262.51Z"/><path class="cls-4" d="M636.18,255.24l-3.07,10.08a4.62,4.62,0,0,0-.24.93.36.36,0,0,0,.07.24.22.22,0,0,0,.18.08c.16,0,.37-.13.64-.41a3.2,3.2,0,0,0,.64-.94h.82a7.51,7.51,0,0,1-1.15,1.61,2.32,2.32,0,0,1-1.8.79,1.53,1.53,0,0,1-1.06-.36,1.19,1.19,0,0,1-.4-.89,5.38,5.38,0,0,1,.27-1.32l2.25-7.33a4,4,0,0,0,.22-1,.39.39,0,0,0-.25-.41,3.12,3.12,0,0,0-.93-.09l.21-.81h.94c.4,0,.77,0,1.11,0a5.71,5.71,0,0,0,1-.16Z"/><path class="cls-4" d="M644.05,261.37a1.94,1.94,0,0,1-.22.83,3.24,3.24,0,0,1-.8,1,5.28,5.28,0,0,1-1.67.93,10.8,10.8,0,0,1-2.73.56h-.21a3.2,3.2,0,0,0-.08.65,1.21,1.21,0,0,0,.32.94,1.31,1.31,0,0,0,.91.28,3.35,3.35,0,0,0,2.52-1.42H643a6.43,6.43,0,0,1-1.65,1.65,4.29,4.29,0,0,1-2.63.82,2.94,2.94,0,0,1-1.81-.57,1.94,1.94,0,0,1-.75-1.66,5.1,5.1,0,0,1,.75-2.62,6,6,0,0,1,2-2.06,5.27,5.27,0,0,1,2.81-.8,2.83,2.83,0,0,1,1.75.42A1.26,1.26,0,0,1,644.05,261.37Zm-1.86,0a.81.81,0,0,0-.2-.54.68.68,0,0,0-.55-.24,1.75,1.75,0,0,0-1.13.43,4,4,0,0,0-.87,1,7.41,7.41,0,0,0-.57,1.17c-.15.4-.24.65-.28.74a6,6,0,0,0,2.7-1A2,2,0,0,0,642.19,261.34Z"/><path class="cls-4" d="M650.16,257a3.15,3.15,0,0,1-.45,1.55,4,4,0,0,1-1.32,1.39,4.68,4.68,0,0,1-2.18.7l.26-.81a3.64,3.64,0,0,0,2-.94,1.87,1.87,0,0,0,.62-1.09c0-.1,0-.17-.07-.2a.56.56,0,0,0-.27,0,1.17,1.17,0,0,1-.76-2,1.12,1.12,0,0,1,.8-.31,1.14,1.14,0,0,1,1,.53A2,2,0,0,1,650.16,257Zm4.59,0a3.15,3.15,0,0,1-.45,1.55,4,4,0,0,1-1.33,1.39,4.61,4.61,0,0,1-2.17.7l.25-.81a3.64,3.64,0,0,0,2-.94,1.81,1.81,0,0,0,.62-1.09c0-.1,0-.17-.08-.2a.54.54,0,0,0-.26,0,1.13,1.13,0,0,1-1.1-1.15,1.11,1.11,0,0,1,.33-.84,1.13,1.13,0,0,1,.8-.31,1.15,1.15,0,0,1,1,.53A2.11,2.11,0,0,1,654.75,257Z"/><path class="cls-4" d="M240.6,480.12l-.25.8a4.44,4.44,0,0,0-1.55.59,2.79,2.79,0,0,0-.83.81,1.4,1.4,0,0,0-.25.63.23.23,0,0,0,.08.21.54.54,0,0,0,.26,0,1.13,1.13,0,0,1,.76.31,1.08,1.08,0,0,1,.34.84,1.1,1.1,0,0,1-1.13,1.15,1.18,1.18,0,0,1-1-.53,2.14,2.14,0,0,1-.36-1.23,3,3,0,0,1,.24-1.14,4.06,4.06,0,0,1,.73-1.12,4.2,4.2,0,0,1,1.24-.91A4.64,4.64,0,0,1,240.6,480.12Zm4.59,0-.25.8a4.37,4.37,0,0,0-1.55.59,2.79,2.79,0,0,0-.83.81,1.4,1.4,0,0,0-.25.63.23.23,0,0,0,.08.21.54.54,0,0,0,.26,0,1.09,1.09,0,0,1,.75.31,1.05,1.05,0,0,1,.35.84,1.12,1.12,0,0,1-.33.84,1.13,1.13,0,0,1-.8.31,1.16,1.16,0,0,1-1-.53,2.14,2.14,0,0,1-.36-1.23,3,3,0,0,1,.24-1.14,4,4,0,0,1,2-2A4.64,4.64,0,0,1,245.19,480.12Z"/><path class="cls-4" d="M251.71,480.41l-2.85,9.35a5.24,5.24,0,0,0-.27,1.17.37.37,0,0,0,.18.33,1,1,0,0,0,.45.16c.19,0,.44,0,.77.05l-.23.77h-5.25l.25-.77h.57a2,2,0,0,0,.62-.07.74.74,0,0,0,.35-.35,6.08,6.08,0,0,0,.37-1l1.92-6.28.18-.59a2.56,2.56,0,0,0,.11-.55.46.46,0,0,0-.38-.48,3.33,3.33,0,0,0-.88-.1H247l.24-.76c.84-.08,1.47-.15,1.89-.22a5.1,5.1,0,0,0,1-.25,4.28,4.28,0,0,0,.84-.44Z"/><path class="cls-4" d="M261.51,483.1a9.73,9.73,0,0,1-.32,2.26,14.22,14.22,0,0,1-1,2.83,12.46,12.46,0,0,1-1.74,2.74,5.27,5.27,0,0,1-1.4,1.12,3.77,3.77,0,0,1-1.88.47,2.52,2.52,0,0,1-1.19-.26,1.81,1.81,0,0,1-.7-.63,1.4,1.4,0,0,1-.21-.68.79.79,0,0,1,.24-.61.83.83,0,0,1,.59-.22.63.63,0,0,1,.47.17,2.4,2.4,0,0,1,.42.7,3.28,3.28,0,0,0,.32.54.48.48,0,0,0,.4.16q.63,0,1.23-1a21.45,21.45,0,0,0,1.31-2.54,6.23,6.23,0,0,1-.72.27,2.09,2.09,0,0,1-.53.06,2.6,2.6,0,0,1-1.21-.29,2.22,2.22,0,0,1-.9-.94,3.41,3.41,0,0,1-.35-1.62,5.51,5.51,0,0,1,.3-1.71,5.81,5.81,0,0,1,.89-1.73,4.56,4.56,0,0,1,1.48-1.32,3.92,3.92,0,0,1,2-.5,2.89,2.89,0,0,1,1,.18,2.13,2.13,0,0,1,.8.5,2.16,2.16,0,0,1,.51.83A3.53,3.53,0,0,1,261.51,483.1Zm-1.6-1.08a.83.83,0,0,0-.25-.64.93.93,0,0,0-.69-.24,1.69,1.69,0,0,0-1.53,1.08,16.74,16.74,0,0,0-.93,2.5,9,9,0,0,0-.45,2.07,1,1,0,0,0,.26.73.91.91,0,0,0,.71.28,1.41,1.41,0,0,0,.7-.21,1.7,1.7,0,0,0,.58-.55,4.14,4.14,0,0,0,.35-.62,7,7,0,0,0,.29-.79c.1-.3.31-1,.64-2.1A6,6,0,0,0,259.91,482Z"/><path class="cls-4" d="M270.51,483.1a9.73,9.73,0,0,1-.32,2.26,14.22,14.22,0,0,1-1,2.83,12.46,12.46,0,0,1-1.74,2.74,5.27,5.27,0,0,1-1.4,1.12,3.77,3.77,0,0,1-1.88.47,2.52,2.52,0,0,1-1.19-.26,1.81,1.81,0,0,1-.7-.63,1.4,1.4,0,0,1-.21-.68.79.79,0,0,1,.24-.61.83.83,0,0,1,.59-.22.63.63,0,0,1,.47.17,2.4,2.4,0,0,1,.42.7,3.28,3.28,0,0,0,.32.54.48.48,0,0,0,.4.16q.63,0,1.23-1a21.45,21.45,0,0,0,1.31-2.54,6.23,6.23,0,0,1-.72.27,2.09,2.09,0,0,1-.53.06,2.6,2.6,0,0,1-1.21-.29,2.22,2.22,0,0,1-.9-.94,3.41,3.41,0,0,1-.35-1.62,5.51,5.51,0,0,1,.3-1.71,5.81,5.81,0,0,1,.89-1.73,4.56,4.56,0,0,1,1.48-1.32,3.92,3.92,0,0,1,2-.5,2.89,2.89,0,0,1,1,.18,2.13,2.13,0,0,1,.8.5,2.16,2.16,0,0,1,.51.83A3.53,3.53,0,0,1,270.51,483.1Zm-1.6-1.08a.83.83,0,0,0-.25-.64.93.93,0,0,0-.69-.24,1.69,1.69,0,0,0-1.53,1.08,16.74,16.74,0,0,0-.93,2.5,9,9,0,0,0-.45,2.07,1,1,0,0,0,.26.73.91.91,0,0,0,.71.28,1.41,1.41,0,0,0,.7-.21,1.7,1.7,0,0,0,.58-.55,4.14,4.14,0,0,0,.35-.62,7,7,0,0,0,.29-.79c.1-.3.31-1,.64-2.1A6,6,0,0,0,268.91,482Z"/><path class="cls-4" d="M279.36,483.33a13,13,0,0,1-.32,2.49,16.27,16.27,0,0,1-1,3.07,7.67,7.67,0,0,1-1.76,2.58,3.57,3.57,0,0,1-2.55,1,2.08,2.08,0,0,1-2.05-1,4.39,4.39,0,0,1-.51-2.06,13.14,13.14,0,0,1,.49-3.1,13.9,13.9,0,0,1,1.47-3.6,6.23,6.23,0,0,1,.83-1.1,4.49,4.49,0,0,1,1.21-.9,3.71,3.71,0,0,1,1.65-.37,2.44,2.44,0,0,1,1.34.34,2.23,2.23,0,0,1,.77.85,2.92,2.92,0,0,1,.33.95A5.91,5.91,0,0,1,279.36,483.33Zm-1.65-1.2a1,1,0,0,0-.23-.7.81.81,0,0,0-.65-.28,1.29,1.29,0,0,0-1,.49,3.33,3.33,0,0,0-.61.9,23.14,23.14,0,0,0-1,2.66c-.4,1.19-.74,2.32-1,3.38a10.12,10.12,0,0,0-.43,2.08,1.84,1.84,0,0,0,.19.72.77.77,0,0,0,.79.4c.65,0,1.19-.52,1.62-1.57.16-.38.37-1,.66-1.86s.55-1.72.8-2.57.47-1.62.64-2.3A7.16,7.16,0,0,0,277.71,482.13Z"/><path class="cls-4" d="M287.4,486.29a.92.92,0,0,1-.24.63.84.84,0,0,1-.66.27.93.93,0,0,1-.5-.12.86.86,0,0,1-.28-.34c-.06-.15-.15-.37-.25-.66a1,1,0,0,0-.27-.46,1.1,1.1,0,0,0-.7-.17,1.44,1.44,0,0,0-.82.24.71.71,0,0,0-.37.62.89.89,0,0,0,.15.5,2.21,2.21,0,0,0,.37.45c.14.14.36.34.67.6a8.69,8.69,0,0,1,1.25,1.19,1.83,1.83,0,0,1,.39,1.19,2,2,0,0,1-.33,1.1,2.29,2.29,0,0,1-1.11.84,5.12,5.12,0,0,1-2,.33,3.59,3.59,0,0,1-2.43-.64,1.74,1.74,0,0,1-.71-1.23,1,1,0,0,1,.28-.7.92.92,0,0,1,.72-.3c.6,0,.94.39,1,1.16a1.63,1.63,0,0,0,.27.77,1.09,1.09,0,0,0,.89.29,1.5,1.5,0,0,0,1-.3.93.93,0,0,0,.38-.76,1,1,0,0,0-.13-.49,2.16,2.16,0,0,0-.53-.58c-.47-.4-.87-.75-1.17-1.05a4.26,4.26,0,0,1-.7-.88,1.78,1.78,0,0,1-.24-.89,1.91,1.91,0,0,1,.27-.9,2.31,2.31,0,0,1,1-.84,4.7,4.7,0,0,1,2.05-.37,5.16,5.16,0,0,1,1.34.15,2.35,2.35,0,0,1,.84.37,1.16,1.16,0,0,1,.4.47A1.19,1.19,0,0,1,287.4,486.29Z"/><path class="cls-4" d="M293.51,481.87a3.15,3.15,0,0,1-.45,1.55,4,4,0,0,1-1.32,1.38,4.69,4.69,0,0,1-2.18.71l.25-.81a3.57,3.57,0,0,0,2-.94,1.83,1.83,0,0,0,.63-1.1c0-.1,0-.16-.07-.19a.46.46,0,0,0-.27-.05,1.13,1.13,0,0,1-.75-.31,1.2,1.2,0,0,1,0-1.68,1.1,1.1,0,0,1,.8-.31,1.14,1.14,0,0,1,1,.53A2.12,2.12,0,0,1,293.51,481.87Zm4.58,0a3.13,3.13,0,0,1-.44,1.55,4.05,4.05,0,0,1-1.33,1.38,4.65,4.65,0,0,1-2.17.71l.25-.81a3.64,3.64,0,0,0,2-.94,1.86,1.86,0,0,0,.62-1.1.2.2,0,0,0-.08-.19.44.44,0,0,0-.26-.05,1.13,1.13,0,0,1-.75-.31,1.09,1.09,0,0,1-.35-.84,1.11,1.11,0,0,1,.33-.84,1.13,1.13,0,0,1,.8-.31,1.15,1.15,0,0,1,1,.53A2.1,2.1,0,0,1,298.09,481.87Z"/><path class="cls-4" d="M240.6,510.12l-.25.8a4.44,4.44,0,0,0-1.55.59,2.79,2.79,0,0,0-.83.81,1.4,1.4,0,0,0-.25.63.23.23,0,0,0,.08.21.54.54,0,0,0,.26.05,1.13,1.13,0,0,1,.76.31,1.08,1.08,0,0,1,.34.84,1.1,1.1,0,0,1-1.13,1.15,1.18,1.18,0,0,1-1-.53,2.14,2.14,0,0,1-.36-1.23,3,3,0,0,1,.24-1.14,4.06,4.06,0,0,1,.73-1.12,4.2,4.2,0,0,1,1.24-.91A4.64,4.64,0,0,1,240.6,510.12Zm4.59,0-.25.8a4.37,4.37,0,0,0-1.55.59,2.79,2.79,0,0,0-.83.81,1.4,1.4,0,0,0-.25.63.23.23,0,0,0,.08.21.54.54,0,0,0,.26.05,1.09,1.09,0,0,1,.75.31,1.05,1.05,0,0,1,.35.84,1.12,1.12,0,0,1-.33.84,1.13,1.13,0,0,1-.8.31,1.16,1.16,0,0,1-1-.53,2.14,2.14,0,0,1-.36-1.23,3,3,0,0,1,.24-1.14,4,4,0,0,1,2-2A4.64,4.64,0,0,1,245.19,510.12Z"/><path class="cls-4" d="M251.47,516.63a1.34,1.34,0,0,1-.31.89,1,1,0,0,1-.83.37.89.89,0,0,1-.61-.22.71.71,0,0,1-.23-.54,1.84,1.84,0,0,1,.07-.47,1.41,1.41,0,0,0,.08-.43.57.57,0,0,0-.28-.56,1.21,1.21,0,0,0-.54-.14,1.88,1.88,0,0,0-1.44.84,6.68,6.68,0,0,0-1.06,2,6,6,0,0,0-.39,1.86c0,.54.13.88.38,1a1.55,1.55,0,0,0,.79.22,2.58,2.58,0,0,0,1.44-.42,4.76,4.76,0,0,0,1.1-1h1a6.3,6.3,0,0,1-1.75,1.69,4.37,4.37,0,0,1-2.51.76,2.67,2.67,0,0,1-1.89-.61,2.08,2.08,0,0,1-.67-1.64,5.19,5.19,0,0,1,.7-2.51,6,6,0,0,1,1.95-2.12,4.94,4.94,0,0,1,2.76-.83,2.82,2.82,0,0,1,1,.15,2.3,2.3,0,0,1,.72.41,1.67,1.67,0,0,1,.6,1.28Z"/><path class="cls-4" d="M260.43,517.89a4.46,4.46,0,0,1-.34,1.71,4.68,4.68,0,0,1-1,1.49,4.81,4.81,0,0,1-1.54,1,5,5,0,0,1-1.93.37,3.86,3.86,0,0,1-1.81-.4,3,3,0,0,1-1.22-1.13,3.21,3.21,0,0,1-.43-1.64,4.25,4.25,0,0,1,.65-2.24,4.77,4.77,0,0,1,1.78-1.67,4.83,4.83,0,0,1,2.42-.63,3.76,3.76,0,0,1,1.86.43,2.88,2.88,0,0,1,1.18,1.14A3.11,3.11,0,0,1,260.43,517.89Zm-2.08-.61A2.09,2.09,0,0,0,258,516a1.17,1.17,0,0,0-1-.47,1.67,1.67,0,0,0-1.18.49,4.08,4.08,0,0,0-.86,1.24,7.77,7.77,0,0,0-.52,1.49,5.59,5.59,0,0,0-.17,1.3,2.06,2.06,0,0,0,.34,1.23,1.12,1.12,0,0,0,1,.48,1.8,1.8,0,0,0,1.23-.48,3.8,3.8,0,0,0,.88-1.23,7.07,7.07,0,0,0,.51-1.51A6.28,6.28,0,0,0,258.35,517.28Z"/><path class="cls-4" d="M267.17,510.12l-3.08,10.08a4.46,4.46,0,0,0-.24.93.43.43,0,0,0,.07.24.26.26,0,0,0,.19.08c.15,0,.36-.13.63-.41a3.2,3.2,0,0,0,.64-.94h.83a8.15,8.15,0,0,1-1.15,1.61,2.33,2.33,0,0,1-1.81.79,1.45,1.45,0,0,1-1.05-.37,1.12,1.12,0,0,1-.4-.88,5.52,5.52,0,0,1,.27-1.33l2.25-7.33a4.75,4.75,0,0,0,.22-1,.41.41,0,0,0-.25-.41,3.25,3.25,0,0,0-.94-.09l.21-.81h.94c.41,0,.78,0,1.11-.05a6,6,0,0,0,1-.16Z"/><path class="cls-4" d="M277.68,510.12l-3.12,10.11a4.48,4.48,0,0,0-.2.88c0,.21.1.31.29.31a1,1,0,0,0,.62-.33,3.51,3.51,0,0,0,.64-.88h.84a4.55,4.55,0,0,1-.54.92,4.31,4.31,0,0,1-1,1,2.37,2.37,0,0,1-1.36.41c-1,0-1.52-.55-1.52-1.64a.41.41,0,0,1,0-.11v-.12a5.62,5.62,0,0,1-.83.88,4.52,4.52,0,0,1-1.12.71,2.87,2.87,0,0,1-1.24.28,1.76,1.76,0,0,1-1.44-.6,2.33,2.33,0,0,1-.5-1.53,5.37,5.37,0,0,1,.39-2,6.46,6.46,0,0,1,1.07-1.81,5.27,5.27,0,0,1,1.57-1.3,3.81,3.81,0,0,1,1.86-.49,1.85,1.85,0,0,1,1.11.27,2.47,2.47,0,0,1,.64.65l1-3.42a2.51,2.51,0,0,0,.18-.66.42.42,0,0,0-.14-.35.75.75,0,0,0-.39-.12,6.26,6.26,0,0,0-.69,0l.21-.81,1.41,0c.34,0,.62,0,.83-.05s.46-.07.75-.12Zm-4.29,6.67a1.43,1.43,0,0,0-.3-.94,1,1,0,0,0-.78-.37,2,2,0,0,0-1.47.77,5.93,5.93,0,0,0-1.12,1.84,5.29,5.29,0,0,0-.42,1.9,1.13,1.13,0,0,0,.29.86,1,1,0,0,0,.69.26,1.87,1.87,0,0,0,1.15-.43,4.31,4.31,0,0,0,1-1.12,6.55,6.55,0,0,0,.68-1.41A4.47,4.47,0,0,0,273.39,516.79Z"/><path class="cls-4" d="M283,511.87a3.24,3.24,0,0,1-.44,1.55,4.05,4.05,0,0,1-1.33,1.38,4.65,4.65,0,0,1-2.17.71l.25-.81a3.64,3.64,0,0,0,2-.94,1.83,1.83,0,0,0,.63-1.1.2.2,0,0,0-.08-.19.44.44,0,0,0-.26-.05,1.18,1.18,0,0,1-.76-.31,1.08,1.08,0,0,1-.34-.84,1.1,1.1,0,0,1,1.13-1.15,1.15,1.15,0,0,1,1,.53A2.11,2.11,0,0,1,283,511.87Zm4.59,0a3.24,3.24,0,0,1-.44,1.55,4.05,4.05,0,0,1-1.33,1.38,4.65,4.65,0,0,1-2.18.71l.26-.81a3.71,3.71,0,0,0,2-.94,1.86,1.86,0,0,0,.62-1.1.2.2,0,0,0-.08-.19.48.48,0,0,0-.27-.05,1.13,1.13,0,0,1-.75-.31,1.08,1.08,0,0,1-.34-.84,1.1,1.1,0,0,1,1.13-1.15,1.12,1.12,0,0,1,1,.53A2.11,2.11,0,0,1,287.6,511.87Z"/><path class="cls-4" d="M240.6,540.12l-.25.8a4.44,4.44,0,0,0-1.55.59,2.79,2.79,0,0,0-.83.81,1.4,1.4,0,0,0-.25.63.23.23,0,0,0,.08.21.54.54,0,0,0,.26.05,1.13,1.13,0,0,1,.76.31,1.08,1.08,0,0,1,.34.84,1.1,1.1,0,0,1-1.13,1.15,1.15,1.15,0,0,1-1-.53,2.14,2.14,0,0,1-.36-1.23,3,3,0,0,1,.24-1.14,4.06,4.06,0,0,1,.73-1.12,4.2,4.2,0,0,1,1.24-.91A4.64,4.64,0,0,1,240.6,540.12Zm4.59,0-.25.8a4.37,4.37,0,0,0-1.55.59,2.79,2.79,0,0,0-.83.81,1.4,1.4,0,0,0-.25.63.23.23,0,0,0,.08.21.54.54,0,0,0,.26.05,1.09,1.09,0,0,1,.75.31,1.05,1.05,0,0,1,.35.84,1.12,1.12,0,0,1-.33.84,1.21,1.21,0,0,1-1.81-.22,2.14,2.14,0,0,1-.36-1.23,3,3,0,0,1,.24-1.14,4,4,0,0,1,2-2A4.64,4.64,0,0,1,245.19,540.12Z"/><path class="cls-4" d="M248.65,550.13a6,6,0,0,1-1.08,1.57,2.36,2.36,0,0,1-1.82.8,1.49,1.49,0,0,1-1.11-.37,1.15,1.15,0,0,1-.37-.86,4.54,4.54,0,0,1,.33-1.42l1.13-3.1a2.05,2.05,0,0,0,.17-.57.29.29,0,0,0-.08-.18.27.27,0,0,0-.18-.08c-.2,0-.42.16-.65.47a4.83,4.83,0,0,0-.54.84h-.77a4.54,4.54,0,0,1,1.35-1.8,2.69,2.69,0,0,1,1.66-.64,1.59,1.59,0,0,1,1,.29.91.91,0,0,1,.38.76,2.82,2.82,0,0,1-.19,1l-1.37,3.68a1.72,1.72,0,0,0-.14.62.27.27,0,0,0,.08.2.24.24,0,0,0,.18.1.79.79,0,0,0,.55-.28,5.29,5.29,0,0,0,.7-1Zm.65-8.88a1.11,1.11,0,0,1-.34.81,1.08,1.08,0,0,1-.8.34,1.14,1.14,0,0,1-1.15-1.15,1.11,1.11,0,0,1,.33-.8,1.12,1.12,0,0,1,.82-.33,1.14,1.14,0,0,1,.58.15,1.21,1.21,0,0,1,.41.4A1.11,1.11,0,0,1,249.3,541.25Z"/><path class="cls-4" d="M265.94,549.92c-.88,1.63-2,2.45-3.22,2.45a1.43,1.43,0,0,1-1-.37,1.17,1.17,0,0,1-.38-.84,3.47,3.47,0,0,1,.2-1l.68-2.2a4.46,4.46,0,0,0,.24-1,.65.65,0,0,0-.7-.69,2.34,2.34,0,0,0-1.58.82,8.83,8.83,0,0,0-1.56,2.11,14.17,14.17,0,0,0-1.12,2.6l-.12.41h-2.09l1.35-4.41a3.19,3.19,0,0,0,.16-.84.79.79,0,0,0-.15-.49.58.58,0,0,0-.49-.2,2.06,2.06,0,0,0-1.25.52,6.75,6.75,0,0,0-1.22,1.35A14.59,14.59,0,0,0,252.6,550a15.63,15.63,0,0,0-.79,2l-.09.29h-2.09l1.54-5a6.47,6.47,0,0,0,.25-1,.29.29,0,0,0-.1-.22.26.26,0,0,0-.19-.09.64.64,0,0,0-.32.12,1.84,1.84,0,0,0-.43.42,5.2,5.2,0,0,0-.49.83h-.78a5.07,5.07,0,0,1,1.1-1.7,2.39,2.39,0,0,1,1.8-.75,2.11,2.11,0,0,1,.7.13,1.16,1.16,0,0,1,.53.42,1.3,1.3,0,0,1,.2.73,6.36,6.36,0,0,1-.29,1.5l-.26.84a13.08,13.08,0,0,1,1.06-1.52,7.53,7.53,0,0,1,1.17-1.16,4.48,4.48,0,0,1,1.16-.71,2.88,2.88,0,0,1,1.09-.23,1.82,1.82,0,0,1,1.2.38,1.24,1.24,0,0,1,.47,1,5.74,5.74,0,0,1-.28,1.39l-.23.77a11.75,11.75,0,0,1,1.2-1.69,6.36,6.36,0,0,1,1.52-1.32,3.38,3.38,0,0,1,1.81-.54,1.73,1.73,0,0,1,.93.23,1.46,1.46,0,0,1,.7,1.19,2.12,2.12,0,0,1-.05.47c0,.13-.1.4-.23.81l-.84,2.72a3.34,3.34,0,0,0-.17.7c0,.19.09.29.28.29a1.12,1.12,0,0,0,.6-.27,3.12,3.12,0,0,0,.8-1Z"/><path class="cls-4" d="M275.78,547.4a4.94,4.94,0,0,1-.36,1.84,5.54,5.54,0,0,1-1,1.65,4.91,4.91,0,0,1-1.51,1.17,4,4,0,0,1-1.83.44,2.55,2.55,0,0,1-1.23-.26,2.88,2.88,0,0,1-.81-.68l-.94,3.07a2.18,2.18,0,0,0-.13.53.4.4,0,0,0,.31.4,3.32,3.32,0,0,0,1,.1h.43l-.23.78H263.9l.23-.78h.35a3.59,3.59,0,0,0,.87-.08.68.68,0,0,0,.41-.33,5.26,5.26,0,0,0,.35-.91l2.29-7.49a2.26,2.26,0,0,0,.12-.64.5.5,0,0,0-.08-.26.24.24,0,0,0-.2-.11.87.87,0,0,0-.55.31,3.81,3.81,0,0,0-.67,1.13h-.84a9.5,9.5,0,0,1,.52-1.06,3.53,3.53,0,0,1,.88-1,2.2,2.2,0,0,1,1.41-.47,1.32,1.32,0,0,1,1.48,1.5,4,4,0,0,1,2.86-1.5,2.27,2.27,0,0,1,1.48.45,2.36,2.36,0,0,1,.76,1A3.39,3.39,0,0,1,275.78,547.4Zm-2.16-.21a1.76,1.76,0,0,0-.29-1,.93.93,0,0,0-.81-.43,1.71,1.71,0,0,0-1.18.54,5,5,0,0,0-1,1.37,6.94,6.94,0,0,0-.46,1.06,8.2,8.2,0,0,0-.27,1,3.29,3.29,0,0,0-.1.73,1.48,1.48,0,0,0,.34,1,1.16,1.16,0,0,0,.92.41,1.88,1.88,0,0,0,1.47-.8,5.7,5.7,0,0,0,1-1.91A6.72,6.72,0,0,0,273.62,547.19Z"/><path class="cls-4" d="M285.74,550.13a5.83,5.83,0,0,1-.57,1,4.69,4.69,0,0,1-.71.76,2.89,2.89,0,0,1-.78.49,2.06,2.06,0,0,1-.81.17c-.61,0-1-.19-1.18-.56a3.15,3.15,0,0,1-.26-1.33A8.8,8.8,0,0,1,280,552a2.51,2.51,0,0,1-1.56.53,1.28,1.28,0,0,1-.86-.29,1.63,1.63,0,0,1-.51-.77,3.13,3.13,0,0,1-.16-1,6.08,6.08,0,0,1,.6-2.51,6.54,6.54,0,0,1,1.65-2.21,3.4,3.4,0,0,1,2.25-.9,1.47,1.47,0,0,1,.87.22,1.22,1.22,0,0,1,.43.49,4.34,4.34,0,0,1,.21.61l.32-1.1h2l-1.64,5.36a4.29,4.29,0,0,0-.17.71.26.26,0,0,0,.07.19.25.25,0,0,0,.17.08c.38,0,.79-.41,1.22-1.22Zm-3.28-3.5a1.65,1.65,0,0,0-.16-.74.61.61,0,0,0-.6-.31,1.74,1.74,0,0,0-1.28.76,6.33,6.33,0,0,0-1,1.84A5.74,5.74,0,0,0,279,550c0,.71.22,1.07.67,1.07a1.43,1.43,0,0,0,1-.43,4.13,4.13,0,0,0,.9-1.14,7.27,7.27,0,0,0,.67-1.49A4.84,4.84,0,0,0,282.46,546.63Z"/><path class="cls-4" d="M294,546.63a1.29,1.29,0,0,1-.31.89,1,1,0,0,1-.82.36.87.87,0,0,1-.61-.21.68.68,0,0,1-.24-.54,1.84,1.84,0,0,1,.08-.47,1.38,1.38,0,0,0,.07-.43.59.59,0,0,0-.27-.56,1.27,1.27,0,0,0-.54-.14,1.85,1.85,0,0,0-1.44.84,6.46,6.46,0,0,0-1.06,2,6,6,0,0,0-.39,1.86c0,.54.12.88.38,1a1.49,1.49,0,0,0,.78.22,2.64,2.64,0,0,0,1.45-.42,4.7,4.7,0,0,0,1.09-1h1a6.16,6.16,0,0,1-1.75,1.69,4.34,4.34,0,0,1-2.51.76,2.7,2.7,0,0,1-1.89-.61,2.12,2.12,0,0,1-.67-1.64,5.21,5.21,0,0,1,.71-2.51,6,6,0,0,1,1.95-2.12,4.89,4.89,0,0,1,2.76-.83,2.86,2.86,0,0,1,1,.15,2.14,2.14,0,0,1,.71.41,1.67,1.67,0,0,1,.6,1.28Z"/><path class="cls-4" d="M300.41,545.05l-.24.8h-1.75l-1.33,4.35a2.5,2.5,0,0,0-.15.67.48.48,0,0,0,.13.34.38.38,0,0,0,.3.16,1.14,1.14,0,0,0,.9-.5,6.62,6.62,0,0,0,.69-1.08h.83a5.56,5.56,0,0,1-1.11,1.7,3.32,3.32,0,0,1-1.16.81,3,3,0,0,1-1,.2,1.58,1.58,0,0,1-1.18-.44,1.61,1.61,0,0,1-.42-1.17,5.16,5.16,0,0,1,.26-1.36l1.15-3.68h-1.65l.26-.8h1.63l.81-2.68h2.09l-.81,2.68Z"/><path class="cls-4" d="M308.41,546.25a1.94,1.94,0,0,1-.22.83,3.21,3.21,0,0,1-.8,1,5.28,5.28,0,0,1-1.67.93,10.65,10.65,0,0,1-2.73.55l-.21,0a3.14,3.14,0,0,0-.07.65,1.21,1.21,0,0,0,.31.94,1.31,1.31,0,0,0,.91.28,3.35,3.35,0,0,0,2.52-1.42h.93a6.43,6.43,0,0,1-1.65,1.65,4.27,4.27,0,0,1-2.63.82,2.89,2.89,0,0,1-1.8-.57,2,2,0,0,1-.75-1.66,5.18,5.18,0,0,1,.74-2.62,6,6,0,0,1,2-2.06,5.28,5.28,0,0,1,2.82-.8,2.89,2.89,0,0,1,1.74.41A1.29,1.29,0,0,1,308.41,546.25Zm-1.85,0a.83.83,0,0,0-.2-.53.7.7,0,0,0-.56-.24,1.72,1.72,0,0,0-1.13.43,3.93,3.93,0,0,0-.86,1,6.78,6.78,0,0,0-.58,1.18l-.28.74a6.08,6.08,0,0,0,2.7-1A2,2,0,0,0,306.56,546.21Z"/><path class="cls-4" d="M319.5,540.12l-3.12,10.11a5,5,0,0,0-.19.88c0,.21.1.31.29.31a1,1,0,0,0,.62-.33,3.78,3.78,0,0,0,.64-.88h.84a4.84,4.84,0,0,1-.54.92,4.36,4.36,0,0,1-1,1,2.34,2.34,0,0,1-1.35.41c-1,0-1.52-.55-1.52-1.64v-.11a.49.49,0,0,0,0-.12,5.27,5.27,0,0,1-.84.88,4.29,4.29,0,0,1-1.11.71,2.91,2.91,0,0,1-1.24.28,1.76,1.76,0,0,1-1.44-.6,2.27,2.27,0,0,1-.5-1.53,5.37,5.37,0,0,1,.39-2,6.43,6.43,0,0,1,1.06-1.81,5.44,5.44,0,0,1,1.58-1.3,3.81,3.81,0,0,1,1.86-.49,2,2,0,0,1,1.11.26,2.87,2.87,0,0,1,.64.66l1-3.42a2.51,2.51,0,0,0,.18-.66.4.4,0,0,0-.15-.35.71.71,0,0,0-.38-.12,6,6,0,0,0-.69,0l.21-.8,1.41,0c.34,0,.61,0,.83,0l.75-.12Zm-4.28,6.67a1.43,1.43,0,0,0-.3-.94,1,1,0,0,0-.79-.37,2,2,0,0,0-1.46.77,5.93,5.93,0,0,0-1.12,1.84,5.29,5.29,0,0,0-.42,1.9,1.13,1.13,0,0,0,.29.86,1,1,0,0,0,.68.26,1.88,1.88,0,0,0,1.16-.43,4.12,4.12,0,0,0,1-1.12,5.73,5.73,0,0,0,.68-1.41A4.22,4.22,0,0,0,315.22,546.79Z"/><path class="cls-4" d="M324.84,541.87a3.24,3.24,0,0,1-.44,1.55,4,4,0,0,1-1.33,1.38,4.69,4.69,0,0,1-2.18.71l.26-.81a3.64,3.64,0,0,0,2-.94,1.83,1.83,0,0,0,.63-1.1.2.2,0,0,0-.08-.19.46.46,0,0,0-.27-.05,1.13,1.13,0,0,1-.75-.31,1.09,1.09,0,0,1-.35-.84,1.11,1.11,0,0,1,1.14-1.15,1.13,1.13,0,0,1,1,.53A2,2,0,0,1,324.84,541.87Zm4.59,0a3.15,3.15,0,0,1-.45,1.55,3.85,3.85,0,0,1-1.32,1.38,4.69,4.69,0,0,1-2.18.71l.26-.81a3.64,3.64,0,0,0,2-.94,1.81,1.81,0,0,0,.62-1.1c0-.1,0-.16-.08-.19a.44.44,0,0,0-.26-.05,1.13,1.13,0,0,1-.75-.31,1.2,1.2,0,0,1,0-1.68,1.12,1.12,0,0,1,.8-.31,1.13,1.13,0,0,1,1,.53A2.11,2.11,0,0,1,329.43,541.87Z"/><path class="cls-4" d="M240.6,570.12l-.25.8a4.44,4.44,0,0,0-1.55.59,2.79,2.79,0,0,0-.83.81,1.4,1.4,0,0,0-.25.63.23.23,0,0,0,.08.21.54.54,0,0,0,.26.05,1.13,1.13,0,0,1,.76.31,1.08,1.08,0,0,1,.34.84,1.1,1.1,0,0,1-1.13,1.15,1.15,1.15,0,0,1-1-.53,2.14,2.14,0,0,1-.36-1.23,3,3,0,0,1,.24-1.14,4.06,4.06,0,0,1,.73-1.12,4.2,4.2,0,0,1,1.24-.91A4.64,4.64,0,0,1,240.6,570.12Zm4.59,0-.25.8a4.37,4.37,0,0,0-1.55.59,2.79,2.79,0,0,0-.83.81,1.4,1.4,0,0,0-.25.63.23.23,0,0,0,.08.21.54.54,0,0,0,.26.05,1.09,1.09,0,0,1,.75.31,1.05,1.05,0,0,1,.35.84,1.12,1.12,0,0,1-.33.84,1.21,1.21,0,0,1-1.81-.22,2.14,2.14,0,0,1-.36-1.23,3,3,0,0,1,.24-1.14,4,4,0,0,1,2-2A4.64,4.64,0,0,1,245.19,570.12Z"/><path class="cls-4" d="M249.37,570.12l-3.08,10.08a4.46,4.46,0,0,0-.24.93.43.43,0,0,0,.07.24.26.26,0,0,0,.19.08c.15,0,.36-.13.63-.41a3.14,3.14,0,0,0,.64-.94h.83a8.15,8.15,0,0,1-1.15,1.61,2.32,2.32,0,0,1-1.8.79,1.47,1.47,0,0,1-1.06-.37,1.12,1.12,0,0,1-.4-.88,5.52,5.52,0,0,1,.27-1.33l2.25-7.33a4.11,4.11,0,0,0,.22-1,.39.39,0,0,0-.25-.41,3.15,3.15,0,0,0-.94-.1l.21-.8h.94c.41,0,.78,0,1.11-.05a5.66,5.66,0,0,0,1-.16Z"/><path class="cls-4" d="M257.82,577.88a4.47,4.47,0,0,1-.34,1.72,4.68,4.68,0,0,1-1,1.49,4.81,4.81,0,0,1-1.54,1,5,5,0,0,1-1.93.37,3.86,3.86,0,0,1-1.81-.4A3,3,0,0,1,250,581a3.21,3.21,0,0,1-.43-1.64,4.25,4.25,0,0,1,.65-2.24,4.81,4.81,0,0,1,1.77-1.67,4.89,4.89,0,0,1,2.43-.63,3.76,3.76,0,0,1,1.86.43,2.88,2.88,0,0,1,1.18,1.14A3.1,3.1,0,0,1,257.82,577.88Zm-2.08-.6a2.09,2.09,0,0,0-.35-1.28,1.17,1.17,0,0,0-1-.47,1.67,1.67,0,0,0-1.18.49,4.08,4.08,0,0,0-.86,1.24,7.77,7.77,0,0,0-.52,1.49,5.59,5.59,0,0,0-.17,1.3,2.06,2.06,0,0,0,.34,1.23,1.12,1.12,0,0,0,1,.48,1.81,1.81,0,0,0,1.24-.48,3.8,3.8,0,0,0,.88-1.23,7.07,7.07,0,0,0,.51-1.51A6.28,6.28,0,0,0,255.74,577.28Z"/><path class="cls-4" d="M272.6,576.29a5.54,5.54,0,0,1-.42,2,9.1,9.1,0,0,1-1.17,2,6.62,6.62,0,0,1-1.71,1.56,3.75,3.75,0,0,1-2,.59,2.1,2.1,0,0,1-2-1.44,14,14,0,0,1-1.74,1,4.45,4.45,0,0,1-1.92.47,2.07,2.07,0,0,1-1.38-.5,1.68,1.68,0,0,1-.59-1.37,2.24,2.24,0,0,1,.23-1,3.37,3.37,0,0,1,.59-.86c.24-.25.57-.56,1-.93.15-.13.32-.3.51-.5a3.4,3.4,0,0,0,.35-.39c.05-.06.11-.16.2-.3s.15-.25.19-.34l-.59.3a1.41,1.41,0,0,1-.54.11,1.81,1.81,0,0,1-.86-.25,1.45,1.45,0,0,0-.56-.2c-.24,0-.42.18-.54.52h-.74c.43-1.31,1-2,1.8-2a2.25,2.25,0,0,1,1.31.63.93.93,0,0,0,.55.23.38.38,0,0,0,.32-.13,1.37,1.37,0,0,0,.2-.42.36.36,0,0,1,.37-.31.32.32,0,0,1,.36.36,3,3,0,0,1-.38,1.21,9,9,0,0,1-.61,1.13l-.56,1c-.13.24-.24.45-.33.65a4.23,4.23,0,0,0-.19.57,2.22,2.22,0,0,0-.07.57.93.93,0,0,0,.31.77,1.11,1.11,0,0,0,.72.25,4.22,4.22,0,0,0,2.41-.93,6,6,0,0,1-.11-.93,6.29,6.29,0,0,1,.19-1.37,8.05,8.05,0,0,1,.56-1.53,4.51,4.51,0,0,1,.88-1.24,1.6,1.6,0,0,1,1.12-.48,1,1,0,0,1,.83.46,1.79,1.79,0,0,1,.31,1,5,5,0,0,1-2,3.52c.33.93.85,1.39,1.55,1.39a2,2,0,0,0,1.38-.56,4,4,0,0,0,1-1.39,3.9,3.9,0,0,0,.36-1.55,6.82,6.82,0,0,0-.24-1.39,1.59,1.59,0,0,1-.06-.43,1.11,1.11,0,0,1,.26-.78.74.74,0,0,1,.57-.27.76.76,0,0,1,.65.41A2.09,2.09,0,0,1,272.6,576.29Zm-4.39,0a1,1,0,0,0-.14-.5.44.44,0,0,0-.4-.22c-.32,0-.58.23-.79.69a4.2,4.2,0,0,0-.31,1.74,5.31,5.31,0,0,0,.1,1,9.39,9.39,0,0,0,1.06-1.27A2.58,2.58,0,0,0,268.21,576.27Z"/><path class="cls-4" d="M281.42,576.25a1.94,1.94,0,0,1-.22.83,3.21,3.21,0,0,1-.8,1,5.28,5.28,0,0,1-1.67.93,10.84,10.84,0,0,1-2.73.55l-.21,0a3.14,3.14,0,0,0-.07.65,1.21,1.21,0,0,0,.31.94,1.31,1.31,0,0,0,.91.28,3.35,3.35,0,0,0,2.52-1.42h.93a6.43,6.43,0,0,1-1.65,1.65,4.27,4.27,0,0,1-2.63.82,2.89,2.89,0,0,1-1.8-.57,2,2,0,0,1-.75-1.66,5.08,5.08,0,0,1,.74-2.62,6,6,0,0,1,2-2.06,5.27,5.27,0,0,1,2.81-.8,2.9,2.9,0,0,1,1.75.41A1.29,1.29,0,0,1,281.42,576.25Zm-1.85,0a.79.79,0,0,0-.21-.53.66.66,0,0,0-.55-.24,1.7,1.7,0,0,0-1.13.43,3.93,3.93,0,0,0-.86,1,6.78,6.78,0,0,0-.58,1.18l-.28.74a6.08,6.08,0,0,0,2.7-1A2,2,0,0,0,279.57,576.21Z"/><path class="cls-4" d="M289.87,575.94a1.59,1.59,0,0,1-.31,1,.91.91,0,0,1-.77.43,1.06,1.06,0,0,1-.78-.47.57.57,0,0,0-.41-.27c-.16,0-.37.15-.65.44a6.57,6.57,0,0,0-.85,1.19,17.58,17.58,0,0,0-.86,1.69,16.87,16.87,0,0,0-.72,2l-.11.36h-2.07l1.38-4.93a3.81,3.81,0,0,0,.22-1,.42.42,0,0,0-.06-.21.21.21,0,0,0-.19-.1c-.23,0-.46.16-.7.48a4.46,4.46,0,0,0-.52.88h-.81a6.64,6.64,0,0,1,1-1.58,3.41,3.41,0,0,1,1-.78,2.19,2.19,0,0,1,.9-.22.91.91,0,0,1,.91.44,2,2,0,0,1,.21.86,9.59,9.59,0,0,1-.5,2.41c.34-.57.61-1,.83-1.38a9.29,9.29,0,0,1,.76-1.07,5,5,0,0,1,.94-.91,1.72,1.72,0,0,1,1-.35,1,1,0,0,1,.9.38A1.61,1.61,0,0,1,289.87,575.94Z"/><path class="cls-4" d="M302.12,576.63a1.29,1.29,0,0,1-.31.89,1,1,0,0,1-.82.36.85.85,0,0,1-.61-.21.68.68,0,0,1-.24-.54,2.33,2.33,0,0,1,.07-.47,1.16,1.16,0,0,0,.08-.43.57.57,0,0,0-.28-.56,1.21,1.21,0,0,0-.54-.14,1.88,1.88,0,0,0-1.44.84,6.68,6.68,0,0,0-1.06,2,6,6,0,0,0-.39,1.86c0,.54.13.88.38,1a1.55,1.55,0,0,0,.79.22,2.58,2.58,0,0,0,1.44-.42,4.76,4.76,0,0,0,1.1-1h.95a6.3,6.3,0,0,1-1.75,1.69,4.37,4.37,0,0,1-2.51.76,2.67,2.67,0,0,1-1.89-.61,2.08,2.08,0,0,1-.67-1.64,5.19,5.19,0,0,1,.7-2.51,6,6,0,0,1,1.95-2.12,4.94,4.94,0,0,1,2.76-.83,2.93,2.93,0,0,1,1,.15,2.36,2.36,0,0,1,.71.41,1.67,1.67,0,0,1,.6,1.28Z"/><path class="cls-4" d="M308.26,570.12l-3.07,10.08a4.46,4.46,0,0,0-.24.93.36.36,0,0,0,.07.24.25.25,0,0,0,.18.08c.16,0,.37-.13.64-.41a3.33,3.33,0,0,0,.64-.94h.83a8.22,8.22,0,0,1-1.16,1.61,2.32,2.32,0,0,1-1.8.79,1.49,1.49,0,0,1-1.06-.37,1.16,1.16,0,0,1-.4-.88,5.19,5.19,0,0,1,.28-1.33l2.25-7.33a4.75,4.75,0,0,0,.22-1,.4.4,0,0,0-.26-.41,3,3,0,0,0-.93-.1l.21-.8h.94c.4,0,.77,0,1.11-.05a6,6,0,0,0,1-.16Z"/><path class="cls-4" d="M317.25,580.13a5.23,5.23,0,0,1-.58,1,4.24,4.24,0,0,1-.7.76,3,3,0,0,1-.78.49,2.06,2.06,0,0,1-.81.17c-.61,0-1-.19-1.18-.56a3.15,3.15,0,0,1-.26-1.33,8.8,8.8,0,0,1-1.39,1.36,2.51,2.51,0,0,1-1.56.53,1.32,1.32,0,0,1-.87-.29,1.7,1.7,0,0,1-.5-.77,3.13,3.13,0,0,1-.16-1,6.08,6.08,0,0,1,.6-2.51,6.54,6.54,0,0,1,1.65-2.21,3.38,3.38,0,0,1,2.25-.9,1.47,1.47,0,0,1,.87.22,1.22,1.22,0,0,1,.43.49,4.34,4.34,0,0,1,.21.61l.32-1.1h1.95l-1.64,5.36a3.39,3.39,0,0,0-.17.71.26.26,0,0,0,.07.19.25.25,0,0,0,.17.08c.38,0,.79-.41,1.22-1.22Zm-3.28-3.5a1.53,1.53,0,0,0-.17-.74.59.59,0,0,0-.59-.31,1.74,1.74,0,0,0-1.28.76,6.33,6.33,0,0,0-1,1.84,5.74,5.74,0,0,0-.38,1.81c0,.71.22,1.07.67,1.07a1.45,1.45,0,0,0,.95-.43,4.13,4.13,0,0,0,.9-1.14,6.73,6.73,0,0,0,.66-1.49A4.55,4.55,0,0,0,314,576.63Z"/><path class="cls-4" d="M325.48,576.29a.92.92,0,0,1-.24.63.84.84,0,0,1-.66.27.87.87,0,0,1-.49-.12.76.76,0,0,1-.28-.35,6.1,6.1,0,0,1-.25-.65,1,1,0,0,0-.28-.46,1.1,1.1,0,0,0-.7-.17,1.46,1.46,0,0,0-.82.24.73.73,0,0,0-.37.62.89.89,0,0,0,.15.5,2.21,2.21,0,0,0,.37.45c.14.14.37.34.67.6a8.69,8.69,0,0,1,1.25,1.19,1.83,1.83,0,0,1,.39,1.19,2,2,0,0,1-.33,1.1,2.25,2.25,0,0,1-1.11.84,5,5,0,0,1-2,.33,3.61,3.61,0,0,1-2.44-.64,1.72,1.72,0,0,1-.7-1.23,1,1,0,0,1,.27-.7.92.92,0,0,1,.72-.3c.6,0,.94.39,1,1.16a1.53,1.53,0,0,0,.28.77,1.07,1.07,0,0,0,.89.29,1.49,1.49,0,0,0,1-.3.91.91,0,0,0,.38-.76,1.07,1.07,0,0,0-.12-.49,2.44,2.44,0,0,0-.54-.58q-.71-.6-1.17-1.05a4.26,4.26,0,0,1-.7-.88,1.78,1.78,0,0,1-.24-.89,1.83,1.83,0,0,1,.28-.9,2.22,2.22,0,0,1,1-.84,4.7,4.7,0,0,1,2-.37,5.11,5.11,0,0,1,1.34.15,2.55,2.55,0,0,1,.84.36,1.48,1.48,0,0,1,.41.48A1.34,1.34,0,0,1,325.48,576.29Z"/><path class="cls-4" d="M333.73,576.29a.93.93,0,0,1-.25.63.83.83,0,0,1-.65.27.9.9,0,0,1-.5-.12.82.82,0,0,1-.28-.35,6.1,6.1,0,0,1-.25-.65,1,1,0,0,0-.28-.46,1.08,1.08,0,0,0-.7-.17,1.48,1.48,0,0,0-.82.24.72.72,0,0,0-.36.62.89.89,0,0,0,.15.5,2.54,2.54,0,0,0,.36.45l.67.6a8.34,8.34,0,0,1,1.26,1.19,1.83,1.83,0,0,1,.39,1.19,2,2,0,0,1-.34,1.1,2.26,2.26,0,0,1-1.1.84,5.12,5.12,0,0,1-2,.33,3.62,3.62,0,0,1-2.44-.64,1.76,1.76,0,0,1-.7-1.23,1,1,0,0,1,.27-.7,1,1,0,0,1,.72-.3c.6,0,1,.39,1,1.16a1.63,1.63,0,0,0,.28.77,1.07,1.07,0,0,0,.89.29,1.52,1.52,0,0,0,1-.3.93.93,0,0,0,.38-.76,1.09,1.09,0,0,0-.13-.49,2.35,2.35,0,0,0-.53-.58c-.48-.4-.87-.75-1.18-1.05a4.18,4.18,0,0,1-.69-.88,1.78,1.78,0,0,1-.24-.89,1.91,1.91,0,0,1,.27-.9,2.25,2.25,0,0,1,1-.84,4.67,4.67,0,0,1,2-.37,5.08,5.08,0,0,1,1.33.15,2.37,2.37,0,0,1,.84.36,1.37,1.37,0,0,1,.41.48A1.19,1.19,0,0,1,333.73,576.29Z"/><path class="cls-4" d="M339.83,571.87a3.13,3.13,0,0,1-.44,1.55,4,4,0,0,1-1.33,1.38,4.65,4.65,0,0,1-2.17.71l.25-.81a3.6,3.6,0,0,0,2-.94,1.83,1.83,0,0,0,.63-1.1c0-.1,0-.16-.07-.19a.46.46,0,0,0-.27-.05,1.13,1.13,0,0,1-.75-.31,1.05,1.05,0,0,1-.35-.84,1.11,1.11,0,0,1,.33-.84,1.21,1.21,0,0,1,1.81.22A2.11,2.11,0,0,1,339.83,571.87Zm4.59,0a3.24,3.24,0,0,1-.44,1.55,4,4,0,0,1-1.33,1.38,4.65,4.65,0,0,1-2.17.71l.25-.81a3.64,3.64,0,0,0,2-.94,1.86,1.86,0,0,0,.62-1.1.2.2,0,0,0-.08-.19.44.44,0,0,0-.26-.05,1.18,1.18,0,0,1-.76-.31,1.08,1.08,0,0,1-.34-.84,1.1,1.1,0,0,1,1.13-1.15,1.15,1.15,0,0,1,1,.53A2.18,2.18,0,0,1,344.42,571.87Z"/><path class="cls-4" d="M240.6,600.12l-.25.8a4.44,4.44,0,0,0-1.55.59,2.79,2.79,0,0,0-.83.81,1.4,1.4,0,0,0-.25.63.23.23,0,0,0,.08.21.54.54,0,0,0,.26.05,1.13,1.13,0,0,1,.76.31,1.08,1.08,0,0,1,.34.84,1.1,1.1,0,0,1-1.13,1.15,1.15,1.15,0,0,1-1-.53,2.14,2.14,0,0,1-.36-1.23,3,3,0,0,1,.24-1.14,4.06,4.06,0,0,1,.73-1.12,4.2,4.2,0,0,1,1.24-.91A4.64,4.64,0,0,1,240.6,600.12Zm4.59,0-.25.8a4.37,4.37,0,0,0-1.55.59,2.79,2.79,0,0,0-.83.81,1.4,1.4,0,0,0-.25.63.23.23,0,0,0,.08.21.54.54,0,0,0,.26.05,1.09,1.09,0,0,1,.75.31,1.05,1.05,0,0,1,.35.84,1.12,1.12,0,0,1-.33.84,1.21,1.21,0,0,1-1.81-.22,2.14,2.14,0,0,1-.36-1.23,3,3,0,0,1,.24-1.14,4,4,0,0,1,2-2A4.64,4.64,0,0,1,245.19,600.12Z"/><path class="cls-4" d="M252.19,607.88a4.48,4.48,0,0,1-.35,1.72,4.65,4.65,0,0,1-1,1.49,4.93,4.93,0,0,1-1.54,1,5.08,5.08,0,0,1-1.94.37,3.89,3.89,0,0,1-1.81-.4,2.93,2.93,0,0,1-1.21-1.13,3.11,3.11,0,0,1-.43-1.64,4.25,4.25,0,0,1,.65-2.24,4.67,4.67,0,0,1,1.77-1.67,4.88,4.88,0,0,1,2.42-.63,3.83,3.83,0,0,1,1.87.43,2.8,2.8,0,0,1,1.17,1.14A3,3,0,0,1,252.19,607.88Zm-2.08-.6a2.09,2.09,0,0,0-.35-1.28,1.18,1.18,0,0,0-1-.47,1.64,1.64,0,0,0-1.17.49,3.76,3.76,0,0,0-.86,1.24,7.14,7.14,0,0,0-.52,1.49,5.66,5.66,0,0,0-.18,1.3,2.13,2.13,0,0,0,.34,1.23,1.13,1.13,0,0,0,1,.48,1.8,1.8,0,0,0,1.23-.48,3.66,3.66,0,0,0,.88-1.23,6.59,6.59,0,0,0,.52-1.51A6.28,6.28,0,0,0,250.11,607.28Z"/><path class="cls-4" d="M258.92,600.12l-3.07,10.08a4.46,4.46,0,0,0-.24.93.36.36,0,0,0,.07.24.25.25,0,0,0,.18.08c.16,0,.37-.13.64-.41a3.33,3.33,0,0,0,.64-.94H258a7.76,7.76,0,0,1-1.15,1.61,2.32,2.32,0,0,1-1.8.79,1.49,1.49,0,0,1-1.06-.37,1.12,1.12,0,0,1-.4-.88,5.52,5.52,0,0,1,.27-1.33l2.25-7.33a4.11,4.11,0,0,0,.22-1,.39.39,0,0,0-.25-.41,3.07,3.07,0,0,0-.93-.1l.21-.8h.94c.4,0,.77,0,1.11-.05a5.71,5.71,0,0,0,.95-.16Z"/><path class="cls-4" d="M269.43,600.12l-3.12,10.11a4.19,4.19,0,0,0-.19.88c0,.21.1.31.29.31a.93.93,0,0,0,.61-.33,3.53,3.53,0,0,0,.65-.88h.84a4.84,4.84,0,0,1-.54.92,4.36,4.36,0,0,1-1,1,2.36,2.36,0,0,1-1.35.41c-1,0-1.52-.55-1.52-1.64v-.11a.49.49,0,0,0,0-.12,5.71,5.71,0,0,1-.84.88,4.29,4.29,0,0,1-1.11.71,2.91,2.91,0,0,1-1.24.28,1.76,1.76,0,0,1-1.44-.6,2.28,2.28,0,0,1-.51-1.53,5.19,5.19,0,0,1,.4-2,6.43,6.43,0,0,1,1.06-1.81,5.31,5.31,0,0,1,1.58-1.3,3.78,3.78,0,0,1,1.86-.49,2,2,0,0,1,1.11.26,2.87,2.87,0,0,1,.64.66l1-3.42a2.51,2.51,0,0,0,.18-.66.4.4,0,0,0-.15-.35.74.74,0,0,0-.38-.12,6,6,0,0,0-.69,0l.21-.8,1.41,0c.34,0,.61,0,.83,0l.75-.12Zm-4.29,6.67a1.48,1.48,0,0,0-.29-.94,1,1,0,0,0-.79-.37,2,2,0,0,0-1.46.77,5.74,5.74,0,0,0-1.12,1.84,5.29,5.29,0,0,0-.42,1.9,1.09,1.09,0,0,0,.29.86,1,1,0,0,0,.68.26,1.88,1.88,0,0,0,1.16-.43,4.12,4.12,0,0,0,1-1.12,5.73,5.73,0,0,0,.68-1.41A4.19,4.19,0,0,0,265.14,606.79Z"/><path class="cls-4" d="M274.77,601.87a3.15,3.15,0,0,1-.45,1.55A3.85,3.85,0,0,1,273,604.8a4.69,4.69,0,0,1-2.18.71l.26-.81a3.64,3.64,0,0,0,2-.94,1.81,1.81,0,0,0,.62-1.1c0-.1,0-.16-.07-.19a.46.46,0,0,0-.27-.05,1.13,1.13,0,0,1-.75-.31,1.2,1.2,0,0,1,0-1.68,1.12,1.12,0,0,1,.8-.31,1.14,1.14,0,0,1,1,.53A2,2,0,0,1,274.77,601.87Zm4.59,0a3.15,3.15,0,0,1-.45,1.55,3.88,3.88,0,0,1-1.33,1.38,4.61,4.61,0,0,1-2.17.71l.25-.81a3.64,3.64,0,0,0,2-.94,1.81,1.81,0,0,0,.62-1.1c0-.1,0-.16-.08-.19a.44.44,0,0,0-.26-.05,1.13,1.13,0,0,1-.75-.31,1.15,1.15,0,0,1,.78-2,1.15,1.15,0,0,1,1,.53A2.11,2.11,0,0,1,279.36,601.87Z"/><line class="cls-5" x1="680.09" y1="-51.29" x2="680.09" y2="309.17"/><line class="cls-6" x1="680.09" y1="314.12" x2="680.09" y2="314.25"/><line class="cls-7" x1="210" y1="-300.05" x2="210" y2="157.69"/><line class="cls-7" x1="205.38" y1="426.13" x2="205.38" y2="798.15"/><line class="cls-7" x1="532.5" y1="658.46" x2="532.5" y2="1523.69"/><path class="cls-2" d="M685.2,345.81v17H675v-17H660.16v-9.26H675V320.24H685.2v16.31H700v9.26Z"/><path class="cls-4" d="M210.5,408.79H185.45v-9.26h39.87v9.26Z"/><path class="cls-4" d="M209.73,327.7h-5.62l-.06,2.18a3.71,3.71,0,0,1,1.26-.16c2.86,0,4.9,1.78,4.9,4.68,0,3.2-2.3,5.06-5.4,5.06a4.56,4.56,0,0,1-4.79-3.62l3.15-.72a1.9,1.9,0,0,0,1.94,1.7,2,2,0,0,0,2.1-2.12c0-1.86-1.7-2.34-3.26-2.34a9.29,9.29,0,0,0-2.94.52l.16-7.83h8.56Z"/><path class="cls-4" d="M217.1,325.05h3.4l2.27,9.09h0l3-9.09h2.9l2.94,9.33h0l2.38-9.33h3.16l-4.14,14.17h-2.78l-3.12-9.8h0l-3.12,9.8h-2.68Z"/><path class="cls-4" d="M245.47,324.69c4.42,0,7.64,2.91,7.64,7.45s-3.22,7.44-7.64,7.44-7.65-2.9-7.65-7.44S241,324.69,245.47,324.69Zm0,12a4.56,4.56,0,1,0-4.41-4.56A4.27,4.27,0,0,0,245.47,336.7Z"/><path class="cls-4" d="M255.22,325.05h5.49c2.9,0,5.34,1,5.34,4.31a3.65,3.65,0,0,1-3.06,3.88l3.6,6h-3.74l-3-5.66h-1.55v5.66h-3.12Zm3.12,5.87h1.85c1.14,0,2.62,0,2.62-1.58s-1.29-1.64-2.42-1.64h-2.05Z"/><path class="cls-4" d="M268.18,325.05h4.68c4.57,0,8.39,1.95,8.39,7.13,0,4.58-3.74,7-8,7h-5.1Zm3.12,11.29h1.63c2.9,0,5.08-1.1,5.08-4.32,0-2.78-2.22-4.08-4.86-4.08H271.3Z"/><path class="cls-4" d="M290.37,328.52a3,3,0,0,0-2.26-.94c-.88,0-2.1.4-2.1,1.46,0,2.58,6.52.92,6.52,5.88,0,3.16-2.54,4.66-5.47,4.66a6.74,6.74,0,0,1-4.76-1.78l2.22-2.44a3.49,3.49,0,0,0,2.73,1.34c1,0,2.16-.48,2.16-1.48,0-2.6-6.65-1.2-6.65-5.92,0-3,2.63-4.61,5.41-4.61a6.45,6.45,0,0,1,4.34,1.48Z"/><line class="cls-7" x1="70.4" y1="872.46" x2="995.49" y2="427.59"/><line class="cls-7" x1="70.4" y1="231.88" x2="995.49" y2="-212.99"/></g></svg>