<svg id="Layer_1" data-name="Layer 1" xmlns="http://www.w3.org/2000/svg" viewBox="0 0 1065 1049.23"><defs><style>.cls-1{fill:#80332a;}.cls-2{fill:#fff;}.cls-3{fill:#3c3c3c;}.cls-4,.cls-5,.cls-6{fill:none;stroke:#fff;stroke-linecap:round;stroke-linejoin:round;stroke-width:3px;}.cls-5{stroke-dasharray:0.25 9.89;}.cls-6{stroke-dasharray:0.25 10;}.cls-7{fill:#c10000;}.cls-8{fill:#e5dbdb;}</style></defs><title>CCSF</title><path class="cls-1" d="M95-18.35V503H350.17A104.18,104.18,0,0,1,454.35,607.21v53.31A104.18,104.18,0,0,1,350.17,764.7H95v284.53H970V-18.35Z"/><g id="Previous_bg" data-name="Previous bg"><path class="cls-2" d="M813.86,591.24a2,2,0,0,1-.68,1.48,6.64,6.64,0,0,1-1.48,1.09c-.53.28-1.05.54-1.56.77a2.7,2.7,0,0,1,1.51.5,2.15,2.15,0,0,1,.7,1.9,4,4,0,0,1-.41,1.8,4.29,4.29,0,0,1-1.12,1.38,5.4,5.4,0,0,1-3.42,1.2,3.51,3.51,0,0,1-1.36-.25,2.33,2.33,0,0,1-.93-.64,1.29,1.29,0,0,1-.33-.82A1,1,0,0,1,805,599a.8.8,0,0,1,.63-.27.88.88,0,0,1,.69.26,2,2,0,0,1,.37.69,2.24,2.24,0,0,0,.36.65.81.81,0,0,0,.64.26,1.62,1.62,0,0,0,1.17-.52,4.23,4.23,0,0,0,.87-1.3,8.34,8.34,0,0,0,.54-1.54,5.39,5.39,0,0,0,.18-1.16,1.42,1.42,0,0,0-.18-.65.62.62,0,0,0-.59-.34,1.73,1.73,0,0,0-.87.39l-.27.22a.48.48,0,0,1-.25.11.42.42,0,0,1-.22-.1.43.43,0,0,1,.07-.66,4.49,4.49,0,0,1,.77-.48,15.41,15.41,0,0,0,2.47-1.69,2.05,2.05,0,0,0,.74-1.59,1.21,1.21,0,0,0-.35-.85,1.24,1.24,0,0,0-1-.39,1.46,1.46,0,0,0-1,.39,1.24,1.24,0,0,0-.36,1.27,1,1,0,0,1,0,.23c0,.06-.15.19-.45.4a2.33,2.33,0,0,1-.53.31c-.08,0-.19-.12-.32-.37a1.66,1.66,0,0,1-.19-.78,2,2,0,0,1,.76-1.56,3.29,3.29,0,0,1,2.24-.67,3.5,3.5,0,0,1,2.13.57A1.68,1.68,0,0,1,813.86,591.24Z"/><path class="cls-2" d="M823.28,589.53l-.2.53a2,2,0,0,1-.6,1,2.09,2.09,0,0,1-1,.18h-3.19l-.82,2.39a2.39,2.39,0,0,1,1.58-.62,2.35,2.35,0,0,1,1.22.38,3,3,0,0,1,1,1.13,3.82,3.82,0,0,1,.4,1.79,4.75,4.75,0,0,1-.42,2,5,5,0,0,1-1.16,1.65,5.44,5.44,0,0,1-1.67,1.08,4.93,4.93,0,0,1-1.89.37,3.35,3.35,0,0,1-1.79-.49,1.38,1.38,0,0,1-.8-1.15.81.81,0,0,1,.26-.62.85.85,0,0,1,.6-.24c.45,0,.81.3,1.07.91a2.22,2.22,0,0,0,.39.62.78.78,0,0,0,.58.2,2,2,0,0,0,1.6-1.07,10.26,10.26,0,0,0,1.48-4.63,1.1,1.1,0,0,0-.32-.85,1.15,1.15,0,0,0-.78-.28q-1.05,0-1.92,1.47h-.8l1.93-5.7Z"/><path class="cls-2" d="M825.83,600.19a1.16,1.16,0,0,1-1.15,1.15,1.08,1.08,0,0,1-.8-.34,1.13,1.13,0,0,1-.33-.81,1.1,1.1,0,0,1,.15-.57,1.08,1.08,0,0,1,.41-.41,1.1,1.1,0,0,1,.57-.15,1.14,1.14,0,0,1,.82.33A1.08,1.08,0,0,1,825.83,600.19Z"/><path class="cls-2" d="M836.52,595.74l-.53,1.88h-2.08l-.39,1.32a5.2,5.2,0,0,0-.18.81.44.44,0,0,0,.33.44,2.81,2.81,0,0,0,.92.12h.17l-.22.78h-5.23l.22-.78h.37a2.81,2.81,0,0,0,.76-.07.7.7,0,0,0,.4-.35,4.21,4.21,0,0,0,.37-1l.38-1.29h-3.62l.17-1.14,6.49-7.22h1.64l-2.22,7.22h.4a1.43,1.43,0,0,0,.7-.11,1.35,1.35,0,0,0,.38-.63Zm-2.85-4-4.33,4.77h2.83Z"/><path class="cls-2" d="M843.78,590.8a5.56,5.56,0,0,1-.19,1.27,6.77,6.77,0,0,1-.59,1.58,4,4,0,0,1-1.06,1.32,2.44,2.44,0,0,1-1.58.54,1.38,1.38,0,0,1-1.29-.52,2,2,0,0,1-.32-1,7.12,7.12,0,0,1,.33-1.72,5.47,5.47,0,0,1,1.11-2.05,2.47,2.47,0,0,1,2-.91,1.43,1.43,0,0,1,1.29.51A1.94,1.94,0,0,1,843.78,590.8Zm6.36-1.67-9.84,12h-.95l9.76-12Zm-7.53,1.09c0-.3-.12-.45-.37-.45a1,1,0,0,0-.89.67,11.36,11.36,0,0,0-.55,1.22c-.22.55-.42,1.1-.6,1.66a4.38,4.38,0,0,0-.28,1.16.56.56,0,0,0,.14.38.42.42,0,0,0,.32.15.69.69,0,0,0,.41-.13,1.18,1.18,0,0,0,.29-.3,2.82,2.82,0,0,0,.23-.42c.07-.15.13-.29.19-.4s.34-.86.65-1.8A8.23,8.23,0,0,0,842.61,590.22Zm7.92,6.3a5.56,5.56,0,0,1-.19,1.27,6.61,6.61,0,0,1-.59,1.58,4,4,0,0,1-1.06,1.32,2.44,2.44,0,0,1-1.58.54,1.38,1.38,0,0,1-1.29-.52,2,2,0,0,1-.32-1.05,7.06,7.06,0,0,1,.33-1.71,5.5,5.5,0,0,1,1.11-2,2.45,2.45,0,0,1,2-.92,1.45,1.45,0,0,1,1.29.5A1.94,1.94,0,0,1,850.53,596.52Zm-1.17-.58c0-.3-.12-.45-.37-.45a1.06,1.06,0,0,0-.89.67,10.64,10.64,0,0,0-.54,1.21c-.23.56-.43,1.12-.61,1.67a4.34,4.34,0,0,0-.28,1.17.51.51,0,0,0,.14.37.42.42,0,0,0,.32.15.7.7,0,0,0,.52-.22,1.8,1.8,0,0,0,.35-.5c.09-.19.18-.36.25-.52s.34-.9.65-1.82A8.05,8.05,0,0,0,849.36,595.94Z"/><path class="cls-1" d="M970,2247.88V1043H95V2666.6H970V2534.44h41V2247.88Z"/><path class="cls-2" d="M921.26,198.21h-7.82c-1.58,0-3.64.79-3.64,3.2s2.06,3.21,3.64,3.21h7.82v1.73h-8.09a4.94,4.94,0,1,1,0-9.87h8.09Z"/><path class="cls-2" d="M914.9,213.51a2.17,2.17,0,0,0,.85-1.75c0-.76-.35-1.42-1-1.42-1,0-1.17,1.46-1.33,2.18-.34,1.4-.88,2.48-2.49,2.48-1.92,0-2.68-1.76-2.68-3.45a3.67,3.67,0,0,1,1.51-3.3l1,1.22a2.87,2.87,0,0,0-1,2.08c0,.82.35,1.72,1.08,1.72,1,0,1.16-1.35,1.32-2.05.34-1.39.79-2.61,2.43-2.61s2.63,1.64,2.63,3.24a3.29,3.29,0,0,1-1.41,2.92Z"/><path class="cls-2" d="M912.18,218.19a2.68,2.68,0,0,0-2.48,2.88,2.94,2.94,0,0,0,1.27,2.34l-.93,1.22a4.47,4.47,0,0,1-1.75-3.78,4.24,4.24,0,0,1,4.49-4.39,4.32,4.32,0,0,1,4.48,4.41c0,3-2.31,4.16-4.5,4.16h-.58Zm1.3,5.11a2.31,2.31,0,0,0,2.48-2.47,2.63,2.63,0,0,0-2.48-2.64Z"/><path class="cls-2" d="M917,227v1.62h-1.31v0a2.87,2.87,0,0,1,1.53,2.55,2.31,2.31,0,0,1-.11.72l-1.75-.07a2.83,2.83,0,0,0,.13-.79c0-1.59-.86-2.45-2.74-2.45h-4.28V227Z"/><path class="cls-2" d="M921.26,239.05v4.48c0,3.26-2,4.09-3.57,4.09a3.43,3.43,0,0,1-3.37-3.13l-5.81,3.61v-2.16l5.62-3.24v-1.92h-5.62v-1.73Zm-5.62,1.73V243c0,1.37.32,2.74,2.05,2.74s2-1.37,2-2.74v-2.26Z"/><path class="cls-2" d="M912.18,250.86a2.68,2.68,0,0,0-2.48,2.88,2.94,2.94,0,0,0,1.27,2.34L910,257.3a4.47,4.47,0,0,1-1.75-3.78,4.24,4.24,0,0,1,4.49-4.39,4.32,4.32,0,0,1,4.48,4.41c0,3-2.31,4.16-4.5,4.16h-.58Zm1.3,5.11A2.31,2.31,0,0,0,916,253.5a2.63,2.63,0,0,0-2.48-2.64Z"/><path class="cls-2" d="M914.9,264.18a2.17,2.17,0,0,0,.85-1.75c0-.76-.35-1.42-1-1.42-1,0-1.17,1.46-1.33,2.18-.34,1.4-.88,2.48-2.49,2.48-1.92,0-2.68-1.76-2.68-3.46a3.67,3.67,0,0,1,1.51-3.29l1,1.22a2.87,2.87,0,0,0-1,2.07c0,.83.35,1.73,1.08,1.73,1,0,1.16-1.35,1.32-2.05.34-1.39.79-2.61,2.43-2.61s2.63,1.64,2.63,3.24a3.3,3.3,0,0,1-1.41,2.92Z"/><path class="cls-2" d="M912.18,268.86a2.68,2.68,0,0,0-2.48,2.88,2.94,2.94,0,0,0,1.27,2.34L910,275.3a4.47,4.47,0,0,1-1.75-3.78,4.24,4.24,0,0,1,4.49-4.39,4.32,4.32,0,0,1,4.48,4.41c0,3-2.31,4.16-4.5,4.16h-.58Zm1.3,5.11A2.31,2.31,0,0,0,916,271.5a2.63,2.63,0,0,0-2.48-2.64Z"/><path class="cls-2" d="M916,277.67a5.09,5.09,0,0,1,1.26,3.39c0,2.52-1.37,3.56-2.85,3.56h-4.35a11.82,11.82,0,0,0-1.55.08v-1.44q.65-.06,1.29-.06v0a3.27,3.27,0,0,1-1.51-3c0-1.59.9-3,2.56-3,2.19,0,2.95,2.11,2.95,4.7v1.19h.36a1.84,1.84,0,0,0,1.8-2,3.54,3.54,0,0,0-1-2.43Zm-3.39,4.58c0-1.53-.27-3.4-1.64-3.4-1,0-1.38.72-1.38,1.83a2.3,2.3,0,0,0,2.48,2.43h.54Z"/><path class="cls-2" d="M917,287v1.62h-1.31v0a2.87,2.87,0,0,1,1.53,2.55,2.31,2.31,0,0,1-.11.72l-1.75-.07a2.83,2.83,0,0,0,.13-.79c0-1.58-.86-2.45-2.74-2.45h-4.28V287Z"/><path class="cls-2" d="M914.77,299.42a2.7,2.7,0,0,0,1-2.12c0-1.77-1.42-2.67-3-2.67a2.74,2.74,0,0,0-2.9,2.76,2.54,2.54,0,0,0,1,2.07l-1.15,1.15a4.2,4.2,0,0,1-1.32-3.24,4.48,4.48,0,0,1,9,0,4.35,4.35,0,0,1-1.35,3.27Z"/><path class="cls-2" d="M922.12,302v1.62h-6.39v0a3,3,0,0,1,1.53,2.81,2.94,2.94,0,0,1-3.26,3.09h-5.49v-1.62h5c1.6,0,2.2-.91,2.2-1.94,0-1.35-.87-2.38-2.85-2.38h-4.39V302Z"/><path class="cls-3" d="M231.56,558h-3.21a14.52,14.52,0,0,1-2.61-3.13c-.38-.54-.77-1.06-1.17-1.55a5.86,5.86,0,0,0-.84-.91,1.22,1.22,0,0,0-.71-.16h-.47v2.64a17.43,17.43,0,0,0,.06,1.85.94.94,0,0,0,.35.64,2,2,0,0,0,1.1.21h.57V558h-5.7v-.41h.38a2.07,2.07,0,0,0,1.06-.19.86.86,0,0,0,.37-.6,12.47,12.47,0,0,0,.08-1.91v-5.84a11.78,11.78,0,0,0-.08-1.84.8.8,0,0,0-.35-.57,2.82,2.82,0,0,0-1.17-.16H219v-.4l1.71-.09c1.13,0,2-.08,2.71-.08a10,10,0,0,1,2.77.32,3.72,3.72,0,0,1,1.73,1,2.53,2.53,0,0,1,.65,1.73,2.63,2.63,0,0,1-.86,2,4.25,4.25,0,0,1-2.53,1,9.67,9.67,0,0,1,2.41,2.6,11.52,11.52,0,0,0,2.13,2.38,3.13,3.13,0,0,0,1.83.6Zm-9-6.16,1.36-.05a5.21,5.21,0,0,0,1.22-.19,2.11,2.11,0,0,0,.84-.46,2.29,2.29,0,0,0,.51-.8,3.55,3.55,0,0,0,.18-1.21,3,3,0,0,0-.63-2c-.42-.51-1.33-.76-2.74-.76l-.74,0Z"/><path class="cls-3" d="M238,553.24h-5c0,.35,0,.61,0,.78a5.56,5.56,0,0,0,.59,2.85,2,2,0,0,0,1.77,1,2.32,2.32,0,0,0,2.27-1.43H238a2.44,2.44,0,0,1-1.11,1.4,3.46,3.46,0,0,1-3.55,0,3.68,3.68,0,0,1-1.33-1.3,3.81,3.81,0,0,1-.52-2,4.1,4.1,0,0,1,1-2.83,3.2,3.2,0,0,1,2.51-1.13,2.82,2.82,0,0,1,2.19.86A2.94,2.94,0,0,1,238,553.24Zm-1.53-.35c0-.13,0-.25,0-.36a1.59,1.59,0,0,0-.45-1.2,1.57,1.57,0,0,0-1.11-.43c-1.07,0-1.7.67-1.91,2Z"/><path class="cls-3" d="M244.81,551.44a2.08,2.08,0,0,1,1.51-.84.89.89,0,0,1,.66.23.69.69,0,0,1,.23.5c0,.38-.18.58-.53.58a.6.6,0,0,1-.5-.36c-.13-.23-.26-.34-.4-.34a1.06,1.06,0,0,0-.74.46,2.84,2.84,0,0,1,.45,1.53,2.66,2.66,0,0,1-.75,1.86,3.5,3.5,0,0,1-2.55.88c-1.24,0-1.86.29-1.86.76,0,.21.14.37.42.45a7.16,7.16,0,0,0,1.74.21,12.36,12.36,0,0,1,2.23.27,2.22,2.22,0,0,1,1.25.8,2.25,2.25,0,0,1,.47,1.42,2.22,2.22,0,0,1-.95,1.87,4.49,4.49,0,0,1-2.74.72,4.73,4.73,0,0,1-2.62-.64,1.86,1.86,0,0,1-1-1.6,1.35,1.35,0,0,1,.28-.88,1,1,0,0,1,.8-.34.66.66,0,0,1,.25,0,1.85,1.85,0,0,0-.54,1.26,1.5,1.5,0,0,0,.73,1.28,3.74,3.74,0,0,0,2.16.51,3.4,3.4,0,0,0,2-.52,1.55,1.55,0,0,0,.72-1.31,1.31,1.31,0,0,0-.64-1.24,5.52,5.52,0,0,0-2.29-.42,5.41,5.41,0,0,1-2.45-.47,1.12,1.12,0,0,1-.56-1c0-.76.53-1.25,1.6-1.45a3.72,3.72,0,0,1-1.25-1.12,2.49,2.49,0,0,1-.42-1.42,2.38,2.38,0,0,1,.86-1.86,3,3,0,0,1,2-.77A3.14,3.14,0,0,1,244.81,551.44Zm-4,1.92a2.47,2.47,0,0,0,.47,1.66,1.53,1.53,0,0,0,1.19.53,1.5,1.5,0,0,0,1.14-.53,2.67,2.67,0,0,0,.48-1.81,2.48,2.48,0,0,0-.51-1.8,1.64,1.64,0,0,0-1.15-.49,1.35,1.35,0,0,0-1.21.61A3.3,3.3,0,0,0,240.85,553.36Z"/><path class="cls-3" d="M250,550.52v5c0,.76,0,1.25,0,1.45a.61.61,0,0,0,.26.45,1.33,1.33,0,0,0,.78.16h.18V558h-3.87v-.41h.3a1.26,1.26,0,0,0,.81-.18.67.67,0,0,0,.22-.43c0-.17,0-.65,0-1.45v-2.18a5.58,5.58,0,0,0-.12-1.55.58.58,0,0,0-.31-.35,2.29,2.29,0,0,0-.69-.07h-.24V551a10.71,10.71,0,0,0,2.42-.46Zm-1.7-3.68a.91.91,0,0,1,.27-.65.91.91,0,0,1,1.29,0,.94.94,0,0,1,.26.65.93.93,0,0,1-.26.66.88.88,0,0,1-1.29,0A.9.9,0,0,1,248.28,546.84Z"/><path class="cls-3" d="M252.31,558.23v-2.36h.34c.4,1.37,1.11,2,2.13,2a1.21,1.21,0,0,0,1-.41,1.36,1.36,0,0,0,.33-.88,1.29,1.29,0,0,0-.35-.93,5.73,5.73,0,0,0-1.4-.87,5.28,5.28,0,0,1-1.56-1.05,1.77,1.77,0,0,1-.48-1.26,2.17,2.17,0,0,1,.51-1.36,1.73,1.73,0,0,1,1.44-.64,1.91,1.91,0,0,1,1.55.76,2.26,2.26,0,0,0,.34-.64h.33v2.22h-.33a2.91,2.91,0,0,0-.68-1.37,1.54,1.54,0,0,0-1.19-.58,1.15,1.15,0,0,0-.85.33,1,1,0,0,0-.33.75,1.07,1.07,0,0,0,.37.82,4.66,4.66,0,0,0,1.34.8,3.77,3.77,0,0,1,1.83,1.32,2.75,2.75,0,0,1,.33,1.25,2,2,0,0,1-.62,1.53,2.18,2.18,0,0,1-1.56.59,2.37,2.37,0,0,1-1.76-.82,2,2,0,0,0-.39.75Z"/><path class="cls-3" d="M262.52,551.21h-2.17v4.35a6.47,6.47,0,0,0,.09,1.35.93.93,0,0,0,.37.56,1,1,0,0,0,.61.21,1.32,1.32,0,0,0,1.1-.72l.28.17a1.88,1.88,0,0,1-.8.87,2.21,2.21,0,0,1-1.08.3,1.76,1.76,0,0,1-1.11-.38,1.57,1.57,0,0,1-.6-.87,8.74,8.74,0,0,1-.12-1.76v-4.08h-1v-.4a1.83,1.83,0,0,0,1.29-.61,2.94,2.94,0,0,0,.73-1.65h.28v2.26h2.17Z"/><path class="cls-3" d="M265.82,552.35a3,3,0,0,1,1-1.3,2.11,2.11,0,0,1,1.32-.53,1.17,1.17,0,0,1,.91.36,1.05,1.05,0,0,1,.34.74.66.66,0,0,1-.17.44.58.58,0,0,1-.42.18c-.29,0-.52-.22-.67-.65s-.26-.44-.47-.44a1.42,1.42,0,0,0-.91.52,2.37,2.37,0,0,0-.68,1.06,6.09,6.09,0,0,0-.15,1.52v1.29c0,.76,0,1.25,0,1.45a.61.61,0,0,0,.26.45,1.33,1.33,0,0,0,.78.16h.24V558h-3.82v-.41h.18a1.54,1.54,0,0,0,.76-.14.56.56,0,0,0,.26-.41,13.26,13.26,0,0,0,.05-1.51v-2c0-.78,0-1.26,0-1.46a.66.66,0,0,0-.25-.46,1.48,1.48,0,0,0-.79-.16h-.18V551a13,13,0,0,0,2.16-.52A5.58,5.58,0,0,1,265.82,552.35Z"/><path class="cls-3" d="M277.32,556.69h.33c-.06,1-.55,1.5-1.48,1.5a1.33,1.33,0,0,1-.95-.32,1.57,1.57,0,0,1-.45-.94,8.77,8.77,0,0,1-1.6.94,3.2,3.2,0,0,1-1.3.32,2,2,0,0,1-1.26-.42,1.35,1.35,0,0,1-.52-1.12,2,2,0,0,1,.88-1.58,11,11,0,0,1,2.44-1.32l1.36-.55v-.35a4,4,0,0,0-.1-1.08,1,1,0,0,0-.5-.6,1.87,1.87,0,0,0-1.06-.27c-.88,0-1.37.3-1.47.88s-.34.9-.74.9a.46.46,0,0,1-.53-.51,1.54,1.54,0,0,1,.71-1.08,3.5,3.5,0,0,1,2.21-.57,3.59,3.59,0,0,1,1.74.35,1.78,1.78,0,0,1,.81.8A3.63,3.63,0,0,1,276,553V556a5,5,0,0,0,.1,1.31.44.44,0,0,0,.46.29C277,557.55,277.23,557.26,277.32,556.69Zm-2.55-3.08-1,.39c-1.51.61-2.26,1.39-2.26,2.32a1.27,1.27,0,0,0,.29.89.92.92,0,0,0,.75.34,2.2,2.2,0,0,0,1-.27,7.22,7.22,0,0,0,1.22-.82Z"/><path class="cls-3" d="M282.59,551.21h-2.17v4.35a6.47,6.47,0,0,0,.09,1.35,1,1,0,0,0,.37.56,1,1,0,0,0,.61.21,1.31,1.31,0,0,0,1.1-.72l.28.17a1.88,1.88,0,0,1-.8.87,2.15,2.15,0,0,1-1.08.3,1.76,1.76,0,0,1-1.11-.38,1.57,1.57,0,0,1-.6-.87,9.82,9.82,0,0,1-.11-1.76v-4.08h-1.05v-.4a1.83,1.83,0,0,0,1.29-.61,2.87,2.87,0,0,0,.73-1.65h.28v2.26h2.17Z"/><path class="cls-3" d="M285.8,550.52v5a14.16,14.16,0,0,0,0,1.45.57.57,0,0,0,.25.45,1.37,1.37,0,0,0,.78.16h.19V558h-3.88v-.41h.3a1.22,1.22,0,0,0,.81-.18.67.67,0,0,0,.22-.43c0-.17,0-.65,0-1.45v-2.18a6.25,6.25,0,0,0-.11-1.55.59.59,0,0,0-.32-.35,2.21,2.21,0,0,0-.69-.07h-.24V551a10.82,10.82,0,0,0,2.43-.46Zm-1.7-3.68a.91.91,0,0,1,.27-.65.89.89,0,0,1,.65-.27.87.87,0,0,1,.64.27,1,1,0,0,1,0,1.31.84.84,0,0,1-.64.28.86.86,0,0,1-.65-.28A.9.9,0,0,1,284.1,546.84Z"/><path class="cls-3" d="M288.07,554.39a3.75,3.75,0,0,1,1.11-2.76,3.9,3.9,0,0,1,5.45,0,3.78,3.78,0,0,1,1.11,2.76,3.68,3.68,0,0,1-1.12,2.86,4,4,0,0,1-5.43,0A3.74,3.74,0,0,1,288.07,554.39Zm1.46.05a4.37,4.37,0,0,0,.62,2.68,2.11,2.11,0,0,0,1.75.77,2.08,2.08,0,0,0,1.76-.77,4.38,4.38,0,0,0,.61-2.68,4.66,4.66,0,0,0-.6-2.71,2.33,2.33,0,0,0-3.53,0A4.55,4.55,0,0,0,289.53,554.44Z"/><path class="cls-3" d="M298.88,550.52h.24a5,5,0,0,1,.23,1.48,4.59,4.59,0,0,1,1.32-1.11,3,3,0,0,1,1.45-.37,2.5,2.5,0,0,1,1.41.36,1.57,1.57,0,0,1,.71.88,5.43,5.43,0,0,1,.16,1.53v2.25a14.7,14.7,0,0,0,0,1.52.57.57,0,0,0,.28.41,1.91,1.91,0,0,0,.86.13V558h-3.69v-.41h.17a1.31,1.31,0,0,0,.83-.18.72.72,0,0,0,.22-.43c0-.17,0-.65,0-1.45v-2.32a5.89,5.89,0,0,0-.08-1.22,1.21,1.21,0,0,0-.45-.65,1.51,1.51,0,0,0-.93-.28,2.24,2.24,0,0,0-1.22.38,4.06,4.06,0,0,0-1.1,1.15v2.94a14.7,14.7,0,0,0,0,1.52.63.63,0,0,0,.28.41,2,2,0,0,0,.87.13V558H296.9v-.41a2.08,2.08,0,0,0,.85-.12.57.57,0,0,0,.29-.37,10.88,10.88,0,0,0,.06-1.57v-2.15a13.36,13.36,0,0,0-.05-1.52.58.58,0,0,0-.28-.41,2,2,0,0,0-.87-.13v-.41A11,11,0,0,0,298.88,550.52Z"/><path class="cls-3" d="M226.76,599.13V595.3h.44q.74,3.75,3.54,3.75a2.55,2.55,0,0,0,1.94-.72,2.26,2.26,0,0,0,.69-1.6,2.07,2.07,0,0,0-.6-1.51,7.55,7.55,0,0,0-2.22-1.28,16.41,16.41,0,0,1-2.16-1.08,3.36,3.36,0,0,1-1.14-1.2,3.2,3.2,0,0,1-.41-1.57,2.81,2.81,0,0,1,.89-2.12,3.07,3.07,0,0,1,2.23-.85,4.21,4.21,0,0,1,1.43.24,3.83,3.83,0,0,1,1.37,1,1.91,1.91,0,0,0,.46-1h.38v3.12h-.38a4.26,4.26,0,0,0-1.19-2.15,2.8,2.8,0,0,0-2-.78,1.93,1.93,0,0,0-1.56.58,1.88,1.88,0,0,0-.5,1.26,1.82,1.82,0,0,0,.63,1.4,8.68,8.68,0,0,0,2.22,1.3,21.38,21.38,0,0,1,2.24,1.1,3.12,3.12,0,0,1,1.12,1.16,3.37,3.37,0,0,1,.42,1.7,3.26,3.26,0,0,1-1,2.49,3.81,3.81,0,0,1-2.72,1,4.13,4.13,0,0,1-3.27-1.51,2.9,2.9,0,0,0-.43,1.16Z"/><path class="cls-3" d="M242.35,597.5h.38a2.76,2.76,0,0,1-3,2,3.51,3.51,0,0,1-2.59-1,3.74,3.74,0,0,1-1-2.77,3.81,3.81,0,0,1,1.13-2.86,3.7,3.7,0,0,1,2.68-1.1,3.61,3.61,0,0,1,1.72.41q.78.41.78,1a.68.68,0,0,1-.15.42.47.47,0,0,1-.41.19c-.39,0-.63-.22-.72-.68a1.31,1.31,0,0,0-.32-.71,1.43,1.43,0,0,0-.89-.2,2,2,0,0,0-1.77.82,4.13,4.13,0,0,0-.59,2.46,4.79,4.79,0,0,0,.63,2.65,2.17,2.17,0,0,0,1.93,1A2.09,2.09,0,0,0,242.35,597.5Z"/><path class="cls-3" d="M245.89,593.24a3.69,3.69,0,0,1,1.18-1.1,2.86,2.86,0,0,1,1.44-.37,2.67,2.67,0,0,1,1.47.37,1.7,1.7,0,0,1,.76.91,6.06,6.06,0,0,1,.18,1.75v2a11.39,11.39,0,0,0,.05,1.53.5.5,0,0,0,.28.4,2,2,0,0,0,.88.13v.41h-3.72v-.41h.17a1.29,1.29,0,0,0,.83-.18.72.72,0,0,0,.22-.44c0-.16,0-.65,0-1.44v-2.17a6.1,6.1,0,0,0-.1-1.32,1.23,1.23,0,0,0-.5-.71,1.63,1.63,0,0,0-1-.29,2.06,2.06,0,0,0-1.23.4,3.41,3.41,0,0,0-1,1.2v2.89a14.35,14.35,0,0,0,0,1.49.6.6,0,0,0,.27.43,1.76,1.76,0,0,0,.83.14v.41h-3.65v-.41h.18a1.26,1.26,0,0,0,.82-.18.67.67,0,0,0,.22-.43c0-.17,0-.65,0-1.45v-7.18a3,3,0,0,0-.2-1.38c-.14-.19-.47-.29-1-.29v-.4a6,6,0,0,0,2.27-.37h.18Z"/><path class="cls-3" d="M259.71,594.49h-5c0,.35,0,.61,0,.78a5.45,5.45,0,0,0,.6,2.85,2,2,0,0,0,1.77,1,2.31,2.31,0,0,0,2.26-1.43h.43a2.46,2.46,0,0,1-1.12,1.4,3.46,3.46,0,0,1-3.55,0,3.68,3.68,0,0,1-1.33-1.3,3.9,3.9,0,0,1-.52-2,4.1,4.1,0,0,1,1-2.83,3.17,3.17,0,0,1,2.5-1.13,2.82,2.82,0,0,1,2.19.86A3,3,0,0,1,259.71,594.49Zm-1.54-.35a2.3,2.3,0,0,0,0-.36,1.59,1.59,0,0,0-.45-1.2,1.57,1.57,0,0,0-1.11-.43c-1.07,0-1.7.67-1.91,2Z"/><path class="cls-3" d="M267.15,592.82V590c0-.77,0-1.25,0-1.45a.61.61,0,0,0-.25-.46,1.46,1.46,0,0,0-.78-.16h-.19v-.4a9.93,9.93,0,0,0,2.33-.37h.19v9.68a14.82,14.82,0,0,0,0,1.53.53.53,0,0,0,.28.4,1.88,1.88,0,0,0,.86.13v.41a12.39,12.39,0,0,0-2.26.23,5.76,5.76,0,0,1-.11-1.3,4.89,4.89,0,0,1-1.34,1,3.29,3.29,0,0,1-1.43.33,3.15,3.15,0,0,1-2.41-1.13,3.91,3.91,0,0,1-1-2.72,4,4,0,0,1,1-2.85,3.31,3.31,0,0,1,2.47-1.08,3.72,3.72,0,0,1,1.38.26A4.35,4.35,0,0,1,267.15,592.82Zm0,.51a4.75,4.75,0,0,0-1.16-.75,2.91,2.91,0,0,0-1.18-.25,2.09,2.09,0,0,0-1.65.77,3.71,3.71,0,0,0-.67,2.49,4.07,4.07,0,0,0,.68,2.59,2.11,2.11,0,0,0,1.69.84,2.54,2.54,0,0,0,1.24-.32,3.31,3.31,0,0,0,1-1Z"/><path class="cls-3" d="M277.59,592.06v4.72a14.26,14.26,0,0,0,0,1.47.58.58,0,0,0,.26.45,1.52,1.52,0,0,0,.8.15v.41a5.36,5.36,0,0,0-1.95.28h-.11a3.77,3.77,0,0,1-.29-1.67,4,4,0,0,1-1.23,1.25,2.81,2.81,0,0,1-1.53.43,2.43,2.43,0,0,1-1.27-.33,1.78,1.78,0,0,1-.76-.81,3.68,3.68,0,0,1-.21-1.43v-2.45a15.09,15.09,0,0,0,0-1.53.55.55,0,0,0-.28-.41,2,2,0,0,0-.85-.13v-.4h2.44v5a4.52,4.52,0,0,0,.09,1.07,1,1,0,0,0,.45.59,1.45,1.45,0,0,0,.83.25,2.15,2.15,0,0,0,1.29-.45,2.43,2.43,0,0,0,.84-.94,3.52,3.52,0,0,0,.23-1.42v-1.62c0-.79,0-1.26,0-1.43a.7.7,0,0,0-.23-.45,1.27,1.27,0,0,0-.82-.19h-.18v-.4Z"/><path class="cls-3" d="M281.91,587.17v9.62c0,.76,0,1.25,0,1.45a.57.57,0,0,0,.25.45,1.37,1.37,0,0,0,.78.16h.21v.41h-3.85v-.41h.25a1.53,1.53,0,0,0,.75-.14.61.61,0,0,0,.27-.41,14.45,14.45,0,0,0,0-1.51v-7.12a3.15,3.15,0,0,0-.2-1.43c-.13-.2-.46-.3-1-.3v-.4a8,8,0,0,0,1.26-.12,4.53,4.53,0,0,0,1-.25Z"/><path class="cls-3" d="M286.36,591.77v5c0,.76,0,1.25,0,1.45a.6.6,0,0,0,.25.45,1.39,1.39,0,0,0,.79.16h.18v.41h-3.88v-.41h.3a1.28,1.28,0,0,0,.82-.18.72.72,0,0,0,.22-.43c0-.17,0-.65,0-1.45v-2.18a5.58,5.58,0,0,0-.12-1.55.59.59,0,0,0-.32-.35,2.21,2.21,0,0,0-.69-.07h-.24v-.41a10.7,10.7,0,0,0,2.43-.46Zm-1.69-3.68a.91.91,0,0,1,.27-.65.89.89,0,0,1,1.28,0,.91.91,0,0,1,.27.65.9.9,0,0,1-.27.66.87.87,0,0,1-1.28,0A.9.9,0,0,1,284.67,588.09Z"/><path class="cls-3" d="M290.44,591.77h.24a5,5,0,0,1,.23,1.48,4.59,4.59,0,0,1,1.32-1.11,3,3,0,0,1,1.46-.37,2.54,2.54,0,0,1,1.41.36,1.6,1.6,0,0,1,.7.88,5.43,5.43,0,0,1,.16,1.53v2.25a13.49,13.49,0,0,0,.05,1.52.56.56,0,0,0,.27.41,1.91,1.91,0,0,0,.86.13v.41h-3.68v-.41h.16a1.29,1.29,0,0,0,.83-.18.72.72,0,0,0,.22-.43c0-.17,0-.65,0-1.45v-2.32a5.71,5.71,0,0,0-.09-1.22,1.11,1.11,0,0,0-.45-.65,1.5,1.5,0,0,0-.92-.28,2.25,2.25,0,0,0-1.23.38,4.06,4.06,0,0,0-1.1,1.15v2.94a11.3,11.3,0,0,0,0,1.52.57.57,0,0,0,.28.41,1.88,1.88,0,0,0,.86.13v.41h-3.64v-.41a2.08,2.08,0,0,0,.85-.12.54.54,0,0,0,.29-.37,10.88,10.88,0,0,0,.06-1.57v-2.15a13.36,13.36,0,0,0-.05-1.52.55.55,0,0,0-.28-.41,1.93,1.93,0,0,0-.87-.13v-.41A11,11,0,0,0,290.44,591.77Z"/><path class="cls-3" d="M303.7,592.69a2.07,2.07,0,0,1,1.51-.84.85.85,0,0,1,.65.23.66.66,0,0,1,.24.5c0,.38-.18.58-.53.58a.59.59,0,0,1-.5-.36c-.13-.23-.27-.34-.41-.34a1.08,1.08,0,0,0-.74.46,2.77,2.77,0,0,1,.46,1.53,2.66,2.66,0,0,1-.75,1.86,3.52,3.52,0,0,1-2.55.88c-1.25,0-1.87.29-1.87.76,0,.21.14.37.43.45a7.16,7.16,0,0,0,1.74.21,12.48,12.48,0,0,1,2.23.27,2.21,2.21,0,0,1,1.71,2.22,2.2,2.2,0,0,1-.95,1.87,4.44,4.44,0,0,1-2.73.72,4.73,4.73,0,0,1-2.62-.64,1.84,1.84,0,0,1-1-1.6,1.35,1.35,0,0,1,.28-.88,1,1,0,0,1,.8-.34.66.66,0,0,1,.25,0,1.85,1.85,0,0,0-.54,1.26,1.51,1.51,0,0,0,.72,1.28,3.8,3.8,0,0,0,2.17.51,3.42,3.42,0,0,0,2-.52,1.54,1.54,0,0,0,.71-1.31,1.29,1.29,0,0,0-.64-1.24,5.51,5.51,0,0,0-2.28-.42,5.41,5.41,0,0,1-2.45-.47,1.13,1.13,0,0,1-.57-1c0-.76.54-1.25,1.61-1.45a3.76,3.76,0,0,1-1.26-1.12,2.49,2.49,0,0,1-.42-1.42,2.39,2.39,0,0,1,.87-1.86,3,3,0,0,1,2-.77A3.16,3.16,0,0,1,303.7,592.69Zm-4,1.92a2.47,2.47,0,0,0,.47,1.66,1.55,1.55,0,0,0,2.33,0,2.67,2.67,0,0,0,.48-1.81,2.48,2.48,0,0,0-.51-1.8,1.64,1.64,0,0,0-1.15-.49,1.33,1.33,0,0,0-1.21.61A3.3,3.3,0,0,0,299.74,594.61Z"/><path class="cls-3" d="M276.58,640.8h-.39L272.56,631l-3.18,9.83H269l-2.87-9.28c-.26-.85-.45-1.41-.56-1.69a1.27,1.27,0,0,0-.45-.61,1.68,1.68,0,0,0-.92-.23v-.4h4.48v.4a2.18,2.18,0,0,0-1,.24.6.6,0,0,0-.23.5,7.4,7.4,0,0,0,.37,1.49l2.13,6.94,3.11-9.57h.49l3.5,9.57,1.82-6.33a8.09,8.09,0,0,0,.36-1.68c0-.77-.42-1.16-1.24-1.16v-.4h3.25v.4a1.41,1.41,0,0,0-1.07.53,9,9,0,0,0-.89,2.3Z"/><path class="cls-3" d="M286.9,635.74h-5q0,.53,0,.78a5.46,5.46,0,0,0,.59,2.85,2,2,0,0,0,1.77,1,2.33,2.33,0,0,0,2.27-1.43h.42a2.46,2.46,0,0,1-1.12,1.4,3.44,3.44,0,0,1-3.54,0,3.6,3.6,0,0,1-1.33-1.3,3.81,3.81,0,0,1-.52-2,4.1,4.1,0,0,1,1-2.83,3.18,3.18,0,0,1,2.5-1.13,2.79,2.79,0,0,1,2.19.86A2.91,2.91,0,0,1,286.9,635.74Zm-1.54-.35a2.38,2.38,0,0,0,0-.36,1.59,1.59,0,0,0-.45-1.2,1.62,1.62,0,0,0-1.12-.43c-1.06,0-1.7.67-1.9,2Z"/><path class="cls-3" d="M289.32,640.8H289v-9.64a9.89,9.89,0,0,0-.05-1.36.7.7,0,0,0-.29-.46,1.63,1.63,0,0,0-.82-.15v-.4a7.78,7.78,0,0,0,1.25-.12,4.5,4.5,0,0,0,1-.25h.18v5.7a4.6,4.6,0,0,1,1.25-.83,3.23,3.23,0,0,1,1.28-.27,3.3,3.3,0,0,1,2.55,1.08,3.93,3.93,0,0,1,1,2.76,4,4,0,0,1-1,2.81,3.4,3.4,0,0,1-2.64,1.13,2.74,2.74,0,0,1-1.4-.34,2.66,2.66,0,0,1-1-1A4.45,4.45,0,0,0,289.32,640.8Zm.92-6.16v2.82a6.41,6.41,0,0,0,.14,1.57,2,2,0,0,0,.7.91,2,2,0,0,0,1.3.44,2.12,2.12,0,0,0,1.8-.93,4.51,4.51,0,0,0,.67-2.68,4.12,4.12,0,0,0-.62-2.45,2,2,0,0,0-1.68-.84,2.59,2.59,0,0,0-1.17.29A4,4,0,0,0,290.24,634.64Z"/><path class="cls-3" d="M301.88,636.54h-4.33V636l5-7.32h.56V636h.81a2.37,2.37,0,0,0,.89-.09,2.06,2.06,0,0,0,.39-.75h.38l-.2,1.36h-2.27V638a13.69,13.69,0,0,0,.05,1.54.51.51,0,0,0,.29.39,2,2,0,0,0,.88.13v.41h-3.84v-.41h.3a1.5,1.5,0,0,0,.75-.14.61.61,0,0,0,.27-.41,13.26,13.26,0,0,0,.05-1.51Zm0-.52v-5.59L298,636Z"/><path class="cls-3" d="M264.38,677.28h.38v4.18h-.38a3,3,0,0,0-.57-1.26,5.15,5.15,0,0,1-4,1.78,5.72,5.72,0,0,1-4.22-1.64,5.84,5.84,0,0,1-1.64-4.32,7.46,7.46,0,0,1,.76-3.33,5.14,5.14,0,0,1,2.11-2.32,6,6,0,0,1,3-.75,5.22,5.22,0,0,1,2.42.55,4.77,4.77,0,0,1,1.62,1.22,4.39,4.39,0,0,0,.46-1.55h.38l.11,4.52h-.38a5.07,5.07,0,0,0-1.61-3.35,4.36,4.36,0,0,0-2.75-.94,3.46,3.46,0,0,0-3,1.52,7.28,7.28,0,0,0-1.11,4.35,6.24,6.24,0,0,0,1.21,4.11,3.77,3.77,0,0,0,3,1.43,4.68,4.68,0,0,0,2-.47,3.45,3.45,0,0,0,1.58-1.58A5.91,5.91,0,0,0,264.38,677.28Z"/><path class="cls-3" d="M273.87,680.44h.33c-.05,1-.55,1.5-1.48,1.5a1.29,1.29,0,0,1-.94-.32,1.57,1.57,0,0,1-.45-.94,8.82,8.82,0,0,1-1.61.94,3.12,3.12,0,0,1-1.29.32,2,2,0,0,1-1.26-.42,1.36,1.36,0,0,1-.53-1.12,2,2,0,0,1,.88-1.58A11.23,11.23,0,0,1,270,677.5l1.37-.55v-.35a4.44,4.44,0,0,0-.1-1.08,1.09,1.09,0,0,0-.5-.6,1.91,1.91,0,0,0-1.07-.27c-.87,0-1.36.3-1.46.88s-.34.9-.74.9-.54-.17-.54-.51a1.57,1.57,0,0,1,.71-1.08,4.54,4.54,0,0,1,3.95-.22,1.78,1.78,0,0,1,.81.8,3.44,3.44,0,0,1,.2,1.37v2.91a4.83,4.83,0,0,0,.11,1.31.43.43,0,0,0,.45.29C273.54,681.3,273.78,681,273.87,680.44Zm-2.54-3.08-1,.39c-1.51.61-2.27,1.39-2.27,2.32a1.32,1.32,0,0,0,.29.89.94.94,0,0,0,.76.34,2.19,2.19,0,0,0,1-.27,7.26,7.26,0,0,0,1.23-.82Z"/><path class="cls-3" d="M276.86,674.27h.24a5,5,0,0,1,.23,1.48,4.5,4.5,0,0,1,1.33-1.11,3,3,0,0,1,1.45-.37,2.54,2.54,0,0,1,1.41.36,1.6,1.6,0,0,1,.7.88,5.43,5.43,0,0,1,.16,1.53v2.25a13.49,13.49,0,0,0,.05,1.52.58.58,0,0,0,.27.41,1.91,1.91,0,0,0,.86.13v.41h-3.68v-.41H280a1.29,1.29,0,0,0,.83-.18.72.72,0,0,0,.22-.43c0-.17,0-.65,0-1.45V677a5.71,5.71,0,0,0-.09-1.22,1.11,1.11,0,0,0-.45-.65,1.5,1.5,0,0,0-.92-.28,2.25,2.25,0,0,0-1.23.38,4.06,4.06,0,0,0-1.1,1.15v2.94a11.3,11.3,0,0,0,.05,1.52.57.57,0,0,0,.28.41,1.88,1.88,0,0,0,.86.13v.41h-3.63v-.41a2.06,2.06,0,0,0,.84-.12.51.51,0,0,0,.29-.37,10.88,10.88,0,0,0,.06-1.57v-2.15a13.36,13.36,0,0,0-.05-1.52.55.55,0,0,0-.28-.41,1.88,1.88,0,0,0-.86-.13v-.41A11.11,11.11,0,0,0,276.86,674.27Z"/><path class="cls-3" d="M287.81,682.05h-.51l-2.55-5.78a4.6,4.6,0,0,0-.6-1.06,1,1,0,0,0-.72-.25v-.4h3.25v.4a2,2,0,0,0-.73.09.32.32,0,0,0-.2.33,3.39,3.39,0,0,0,.35.94l1.94,4.37,1.75-3.89a4,4,0,0,0,.41-1.21c0-.4-.29-.6-.87-.63v-.4h2.42v.4a1,1,0,0,0-.75.38,7.72,7.72,0,0,0-.85,1.56Z"/><path class="cls-3" d="M299.45,680.44h.33c-.06,1-.55,1.5-1.48,1.5a1.33,1.33,0,0,1-.95-.32,1.57,1.57,0,0,1-.45-.94,8.77,8.77,0,0,1-1.6.94,3.2,3.2,0,0,1-1.3.32,2,2,0,0,1-1.26-.42,1.35,1.35,0,0,1-.52-1.12,2,2,0,0,1,.88-1.58,11,11,0,0,1,2.44-1.32l1.36-.55v-.35a4.56,4.56,0,0,0-.09-1.08,1.11,1.11,0,0,0-.51-.6,1.87,1.87,0,0,0-1.06-.27c-.88,0-1.37.3-1.47.88s-.34.9-.74.9a.46.46,0,0,1-.53-.51,1.57,1.57,0,0,1,.71-1.08,3.53,3.53,0,0,1,2.22-.57,3.58,3.58,0,0,1,1.73.35,1.78,1.78,0,0,1,.81.8,3.63,3.63,0,0,1,.2,1.37v2.91a5,5,0,0,0,.1,1.31.45.45,0,0,0,.46.29C299.12,681.3,299.36,681,299.45,680.44Zm-2.55-3.08-1,.39c-1.51.61-2.26,1.39-2.26,2.32a1.27,1.27,0,0,0,.29.89.92.92,0,0,0,.75.34,2.2,2.2,0,0,0,1-.27,7.22,7.22,0,0,0,1.22-.82Z"/><path class="cls-3" d="M300.69,682v-2.36H301c.4,1.37,1.11,2,2.14,2a1.23,1.23,0,0,0,1-.41,1.36,1.36,0,0,0,.33-.88,1.26,1.26,0,0,0-.36-.93,5.62,5.62,0,0,0-1.39-.87,5.35,5.35,0,0,1-1.57-1.05,1.8,1.8,0,0,1-.47-1.26,2.17,2.17,0,0,1,.51-1.36,1.71,1.71,0,0,1,1.43-.64,1.91,1.91,0,0,1,1.56.76,2.56,2.56,0,0,0,.34-.64h.32v2.22h-.32a3.11,3.11,0,0,0-.68-1.37,1.57,1.57,0,0,0-1.19-.58,1.15,1.15,0,0,0-.86.33,1.06,1.06,0,0,0-.32.75,1.09,1.09,0,0,0,.36.82,4.66,4.66,0,0,0,1.34.8,3.77,3.77,0,0,1,1.83,1.32,2.77,2.77,0,0,1,.34,1.25,2,2,0,0,1-.62,1.53,2.21,2.21,0,0,1-1.56.59,2.39,2.39,0,0,1-1.77-.82,2,2,0,0,0-.39.75Z"/><path class="cls-3" d="M285.37,711.09l.1,3h-.42a3.57,3.57,0,0,0-.55-1.61,1.87,1.87,0,0,0-.89-.8,5.6,5.6,0,0,0-1.57-.16h-2.33v5.06h1.12a2,2,0,0,0,1.43-.37,2.13,2.13,0,0,0,.36-1.46h.44v4.2h-.44a3.93,3.93,0,0,0-.15-1.21,1.11,1.11,0,0,0-.46-.61,3,3,0,0,0-1.18-.16h-1.12v3a14.29,14.29,0,0,0,.07,1.85,1,1,0,0,0,.36.64,2,2,0,0,0,1.1.21h.4V723h-5.53v-.41h.37a2.07,2.07,0,0,0,1.06-.19.89.89,0,0,0,.37-.6,12,12,0,0,0,.09-1.91v-5.84a11.33,11.33,0,0,0-.09-1.84.8.8,0,0,0-.35-.57,2.82,2.82,0,0,0-1.17-.16h-.21v-.4Z"/><path class="cls-3" d="M291.4,718.24h-5q0,.53,0,.78a5.46,5.46,0,0,0,.59,2.85,2,2,0,0,0,1.77,1,2.33,2.33,0,0,0,2.27-1.43h.42a2.46,2.46,0,0,1-1.12,1.4,3.44,3.44,0,0,1-3.54,0,3.6,3.6,0,0,1-1.33-1.3,3.81,3.81,0,0,1-.52-2,4.1,4.1,0,0,1,1-2.83,3.18,3.18,0,0,1,2.5-1.13,2.79,2.79,0,0,1,2.19.86A2.91,2.91,0,0,1,291.4,718.24Zm-1.54-.35a2.38,2.38,0,0,0,0-.36,1.59,1.59,0,0,0-.45-1.2,1.62,1.62,0,0,0-1.12-.43c-1.06,0-1.7.67-1.9,2Z"/><path class="cls-3" d="M299.27,718.24h-5c0,.35,0,.61,0,.78a5.56,5.56,0,0,0,.59,2.85,2,2,0,0,0,1.78,1,2.31,2.31,0,0,0,2.26-1.43h.42a2.4,2.4,0,0,1-1.11,1.4,3.46,3.46,0,0,1-3.55,0,3.68,3.68,0,0,1-1.33-1.3,3.9,3.9,0,0,1-.52-2,4.15,4.15,0,0,1,1-2.83,3.2,3.2,0,0,1,2.51-1.13,2.82,2.82,0,0,1,2.19.86A2.89,2.89,0,0,1,299.27,718.24Zm-1.53-.35c0-.13,0-.25,0-.36a1.59,1.59,0,0,0-.45-1.2,1.57,1.57,0,0,0-1.11-.43c-1.07,0-1.7.67-1.91,2Z"/><path class="cls-3" d="M300.69,723.23v-2.36H301c.4,1.37,1.11,2,2.14,2a1.23,1.23,0,0,0,1-.41,1.36,1.36,0,0,0,.33-.88,1.26,1.26,0,0,0-.36-.93,5.62,5.62,0,0,0-1.39-.87,5.35,5.35,0,0,1-1.57-1.05,1.8,1.8,0,0,1-.47-1.26,2.17,2.17,0,0,1,.51-1.36,1.71,1.71,0,0,1,1.43-.64,1.91,1.91,0,0,1,1.56.76,2.56,2.56,0,0,0,.34-.64h.32v2.22h-.32a3.11,3.11,0,0,0-.68-1.37,1.57,1.57,0,0,0-1.19-.58,1.15,1.15,0,0,0-.86.33,1.06,1.06,0,0,0-.32.75,1.09,1.09,0,0,0,.36.82,4.66,4.66,0,0,0,1.34.8,3.77,3.77,0,0,1,1.83,1.32,2.77,2.77,0,0,1,.34,1.25,2,2,0,0,1-.62,1.53,2.21,2.21,0,0,1-1.56.59,2.39,2.39,0,0,1-1.77-.82,2,2,0,0,0-.39.75Z"/><line class="cls-4" x1="680.09" y1="987.92" x2="680.09" y2="988.04"/><line class="cls-5" x1="680.09" y1="997.93" x2="680.09" y2="1449.32"/><line class="cls-6" x1="210" y1="749.18" x2="210" y2="1206.92"/><path class="cls-2" d="M209.57,453h-4v-2.76h11.21V453h-4v11.4h-3.12Z"/><path class="cls-2" d="M225.19,449.87c4.42,0,7.64,2.9,7.64,7.44s-3.22,7.44-7.64,7.44-7.65-2.9-7.65-7.44S220.77,449.87,225.19,449.87Zm0,12a4.56,4.56,0,1,0-4.4-4.56A4.27,4.27,0,0,0,225.19,461.87Z"/><path class="cls-2" d="M234.94,450.23h5.27c2.94,0,5.38.94,5.38,4.3s-2.26,4.34-5.24,4.34h-2.29v5.52h-3.12Zm3.12,6h2.09c1.1,0,2.2-.38,2.2-1.7s-1.48-1.66-2.68-1.66h-1.61Z"/><path class="cls-2" d="M265.41,458.93c0,3.34-2,5.82-6,5.82s-6-2.48-6-5.82v-8.7h3.12v8.58a2.86,2.86,0,1,0,5.71,0v-8.58h3.12Z"/><path class="cls-2" d="M275.29,453.69a3,3,0,0,0-2.26-.94c-.88,0-2.1.4-2.1,1.46,0,2.58,6.52.92,6.52,5.88,0,3.16-2.54,4.66-5.47,4.66a6.72,6.72,0,0,1-4.76-1.78l2.22-2.44a3.49,3.49,0,0,0,2.73,1.34c1,0,2.16-.48,2.16-1.48,0-2.6-6.65-1.2-6.65-5.92,0-3,2.63-4.6,5.41-4.6a6.4,6.4,0,0,1,4.34,1.48Z"/><path class="cls-2" d="M279.88,450.23h9.63v2.88H283v2.64h6.15v2.88H283v2.88h6.87v2.88h-10Z"/><path class="cls-2" d="M299.36,453.69a3,3,0,0,0-2.26-.94c-.88,0-2.1.4-2.1,1.46,0,2.58,6.53.92,6.53,5.88,0,3.16-2.55,4.66-5.47,4.66A6.72,6.72,0,0,1,291.3,463l2.22-2.44a3.47,3.47,0,0,0,2.72,1.34c1,0,2.16-.48,2.16-1.48,0-2.6-6.64-1.2-6.64-5.92,0-3,2.62-4.6,5.4-4.6a6.41,6.41,0,0,1,4.35,1.48Z"/><path class="cls-7" d="M345.19,711.42H379a6.7,6.7,0,0,1,6.7,6.7v.61a6.7,6.7,0,0,1-6.7,6.7H345.19Z"/><path class="cls-7" d="M345.19,670.07H621.8a6.7,6.7,0,0,1,6.7,6.7v.61a6.7,6.7,0,0,1-6.7,6.7H345.19Z"/><path class="cls-7" d="M345.19,628.88h155.1a6.7,6.7,0,0,1,6.7,6.7v.3a6.7,6.7,0,0,1-6.7,6.7H345.19Z"/><path class="cls-8" d="M345.19,587.68h438.4a6.7,6.7,0,0,1,6.7,6.7h0a6.71,6.71,0,0,1-6.7,6.71H345.19Z"/><path class="cls-7" d="M345.19,546.18H662.08a6.7,6.7,0,0,1,6.7,6.7v.31a6.7,6.7,0,0,1-6.7,6.7H345.19Z"/><line class="cls-6" x1="70.4" y1="1281.11" x2="995.49" y2="836.24"/><line class="cls-6" x1="70.4" y1="443.91" x2="995.49" y2="-0.96"/></g></svg>