<svg id="Layer_1" data-name="Layer 1" xmlns="http://www.w3.org/2000/svg" xmlns:xlink="http://www.w3.org/1999/xlink" viewBox="0 0 1065 1184.69"><defs><style>.cls-1,.cls-10,.cls-18,.cls-7,.cls-9{fill:none;}.cls-1{clip-rule:evenodd;}.cls-2{fill:#3c3c3c;}.cls-3{fill:#2d2d2d;}.cls-4{font-size:18px;font-family:AvenirLTStd-Medium, Avenir LT Std;font-weight:500;}.cls-4,.cls-8{fill:#fff;}.cls-5{letter-spacing:-0.02em;}.cls-6{letter-spacing:0em;}.cls-7{stroke:#fff;stroke-linecap:round;stroke-linejoin:round;stroke-width:3px;stroke-dasharray:0.25 10;}.cls-10,.cls-8{stroke:#3c3c3c;}.cls-10,.cls-18,.cls-8,.cls-9{stroke-miterlimit:10;}.cls-18,.cls-9{stroke:#000;}.cls-11,.cls-15{font-size:9.45px;}.cls-11,.cls-12,.cls-13,.cls-14,.cls-15,.cls-20,.cls-21,.cls-22,.cls-23,.cls-24{font-family:AvenirLTStd-Black, Avenir LT Std;font-weight:800;}.cls-12{font-size:19.52px;}.cls-13,.cls-14{font-size:13.23px;}.cls-13{letter-spacing:-0.05em;}.cls-14{letter-spacing:-0.05em;}.cls-15{letter-spacing:-0.03em;}.cls-16,.cls-17{font-size:7.56px;}.cls-16,.cls-17,.cls-25,.cls-26,.cls-27{font-family:AvenirLTStd-Roman, Avenir LT Std;}.cls-16{letter-spacing:-0.03em;}.cls-18{stroke-linecap:square;}.cls-19{clip-path:url(#clip-path);}.cls-20,.cls-21,.cls-22,.cls-23,.cls-24,.cls-25,.cls-26,.cls-27{font-size:8.19px;}.cls-20,.cls-25{letter-spacing:-0.01em;}.cls-22,.cls-26{letter-spacing:-0.01em;}.cls-23{letter-spacing:-0.04em;}.cls-24{letter-spacing:-0.09em;}</style><clipPath id="clip-path"><polygon class="cls-1" points="834.41 231.75 837.25 226.08 831.58 226.08 834.41 231.75 834.41 231.75"/></clipPath></defs><title>CCSF</title><g id="Previous_bg" data-name="Previous bg"><rect class="cls-2" x="95.92" y="-12.23" width="875" height="1211.69"/><path class="cls-3" d="M970.92,491.83H908.81c-343.85,0-463-326.43-812.89-362.09V-14.69h875Z"/><text class="cls-4" transform="translate(908.51 214.92) rotate(90)">Wi<tspan class="cls-5" x="21.64" y="0">r</tspan><tspan class="cls-6" x="27.97" y="0">eframing Round 1</tspan></text><line class="cls-7" x1="295" y1="1130.11" x2="295" y2="1415.33"/><line class="cls-7" x1="390" y1="1130.11" x2="390" y2="1415.33"/><line class="cls-7" x1="485" y1="1130.11" x2="485" y2="1415.33"/><line class="cls-7" x1="580" y1="1130.11" x2="580" y2="1415.33"/><line class="cls-7" x1="675" y1="1130.11" x2="675" y2="1415.33"/><line class="cls-7" x1="770" y1="1130.11" x2="770" y2="1415.33"/></g><g id="homepage"><polygon class="cls-8" points="210 217.27 854.88 217.27 854.88 1112.79 210 1112.79 210 217.27 210 217.27"/><polygon class="cls-9" points="223.22 299.45 841.65 299.45 841.65 319.29 223.22 319.29 223.22 299.45 223.22 299.45"/><polygon class="cls-9" points="223.22 319.29 841.65 319.29 841.65 486.18 223.22 486.18 223.22 319.29 223.22 319.29"/><polygon class="cls-10" points="223.22 525.22 841.65 525.22 841.65 960.39 223.22 960.39 223.22 525.22 223.22 525.22"/><polygon class="cls-10" points="223.22 525.22 429.37 525.22 429.37 960.39 223.22 960.39 223.22 525.22 223.22 525.22"/><polygon class="cls-10" points="429.16 525.22 635.3 525.22 635.3 960.39 429.16 960.39 429.16 525.22 429.16 525.22"/><polygon class="cls-10" points="223.22 960.39 841.65 960.39 841.65 1095.16 223.22 1095.16 223.22 960.39 223.22 960.39"/><polygon class="cls-9" points="532.44 486.18 841.65 486.18 841.65 525.22 532.44 525.22 532.44 486.18 532.44 486.18"/><polygon class="cls-9" points="223.22 486.18 532.44 486.18 532.44 525.22 223.22 525.22 223.22 486.18 223.22 486.18"/><polygon class="cls-10" points="694.29 239.94 791.9 239.94 791.9 261.98 788.88 261.98 694.29 261.98 694.29 239.94 694.29 239.94"/><polygon class="cls-10" points="796.31 239.94 841.65 239.94 841.65 261.98 796.31 261.98 796.31 239.94 796.31 239.94"/><text class="cls-11" transform="translate(241.49 312.73)">Student Services</text><text class="cls-12" transform="translate(286.76 261.28)">City College of San Francisco</text><text class="cls-13" transform="translate(289.98 510.74)">NEW STUDENTS APPLY NOW</text><text class="cls-14" transform="translate(591.01 510.74)">REGISTER FOR CLASSES (Web4)</text><text class="cls-11" transform="translate(392 312.73)">Educational Programs</text><text class="cls-11" transform="translate(545.04 312.73)">Our Locations</text><text class="cls-15" transform="translate(722 287.8)">Employee Services</text><text class="cls-15" transform="translate(672.25 287.8)">Contact</text><text class="cls-11" transform="translate(815.2 287.8)">L</text><text class="cls-15" transform="translate(819.73 287.8)">og In</text><text class="cls-16" transform="translate(807.02 253.79)">Search</text><text class="cls-17" transform="translate(767.34 231.75)">Select Language</text><text class="cls-16" transform="translate(701.84 253.79)">Enter Keyword</text><text class="cls-11" transform="translate(701.21 312.73)">About City College</text><path class="cls-18" d="M378.46,299.45V319M223.54,299.45V319m309.21-19.52V319m154.93-19.52V319m153.66,0,0-19.52"/><g class="cls-19"><rect class="cls-2" x="828.43" y="222.94" width="11.97" height="11.97"/></g><text class="cls-20" transform="translate(249.04 578.12)">Accreditation Information</text><text class="cls-20" transform="translate(249.04 594.5)">Board Agendas</text><text class="cls-21" transform="translate(249.04 610.87)">L</text><text class="cls-22" transform="translate(253.21 610.87)">abor Negotiations Status</text><text class="cls-20" transform="translate(249.04 627.24)">Chancellor Lamb</text><text class="cls-23" transform="translate(310.52 627.24)">&apos;s</text><text class="cls-20" transform="translate(315.9 627.24)"><tspan xml:space="preserve"> T</tspan></text><text class="cls-20" transform="translate(321.82 627.24)">own Halls</text><text class="cls-20" transform="translate(249.04 643.62)">Suggestions to the Chancellor</text><text class="cls-20" transform="translate(249.04 659.99)">CCSF P</text><text class="cls-22" transform="translate(276.54 659.99)">arcel </text><text class="cls-24" transform="translate(296.34 659.99)">Ta</text><text class="cls-21" transform="translate(304.78 659.99)">x</text><text class="cls-20" transform="translate(249.04 676.36)">Facilities Master Plan</text><text class="cls-20" transform="translate(249.04 692.74)">Citizen</text><text class="cls-23" transform="translate(274.23 692.74)">&apos;s</text><text class="cls-20" transform="translate(279.6 692.74)"><tspan xml:space="preserve"> Bond Oversight Committee</tspan></text><text class="cls-20" transform="translate(249.04 709.11)">City College Police Department</text><text class="cls-20" transform="translate(249.04 761.38)">CCSF R</text><text class="cls-20" transform="translate(276.62 761.38)">eceives $1M Grant from the K</text><text class="cls-22" transform="translate(383.7 761.38)">oret </text><text class="cls-20" transform="translate(249.04 770.2)">Foundation</text><text class="cls-20" transform="translate(249.04 786.58)">CCSF and AFT Sign Tentative Agreement</text><text class="cls-20" transform="translate(249.04 802.95)">NOTICE OF PUBLIC HEARING, 2016-17 </text><text class="cls-20" transform="translate(249.04 811.77)">Adopted Budget</text><text class="cls-20" transform="translate(249.04 828.14)">San Francisco Adult Education Consortium </text><text class="cls-20" transform="translate(249.04 836.96)">will be holding a public meeting about</text><text class="cls-20" transform="translate(249.04 845.77)">2016-17 plans on October 4, 2016 </text><text class="cls-22" transform="translate(249.04 863.73)">More </text><text class="cls-21" transform="translate(270 863.73)">&gt;</text><text class="cls-25" transform="translate(454.35 631.02)">City College of San Francisco is an urban </text><text class="cls-25" transform="translate(454.35 642.36)">community college serving about 70,000</text><text class="cls-26" transform="translate(454.35 653.7)">students annually at several centers and sites </text><text class="cls-25" transform="translate(454.35 665.03)">throughout San Francisco. CCSF DONATE. We</text><text class="cls-27" transform="translate(615.78 665.03)"> </text><text class="cls-25" transform="translate(454.35 676.36)">offer an affordable opportunity to earn </text><text class="cls-25" transform="translate(454.35 687.7)">associate degrees, prepare for transfer, and </text><text class="cls-25" transform="translate(454.35 699.04)">pursue career and technical education. City </text><text class="cls-25" transform="translate(454.35 710.37)">College also offers distance learning and free </text><text class="cls-25" transform="translate(454.35 721.71)">noncredit courses in many ﬁelds.</text><text class="cls-20" transform="translate(299.43 1005.1)">50 Phelan A</text><text class="cls-20" transform="translate(344.06 1005.1)">venue, </text><text class="cls-20" transform="translate(299.43 1013.27)">San Francisco, CA. </text><text class="cls-20" transform="translate(299.43 1021.45)">94112 (415) 239-3000</text><text class="cls-20" transform="translate(660.28 1005.1)">Employee Directory</text><text class="cls-20" transform="translate(660.28 1039.74)">Site Index</text><text class="cls-20" transform="translate(660.28 1022.11)">Jobs at CCSF</text><text class="cls-20" transform="translate(660.28 1056.74)">Privacy Statement</text><text class="cls-20" transform="translate(299.43 1036.59)">Support CCSF</text><text class="cls-25" transform="translate(245.9 1057.37)">Accredited by the Accrediting Commission for Community and Junior </text><text class="cls-25" transform="translate(245.9 1068.71)">Colleges of the Western Association of Schools and Colleges</text><text class="cls-21" transform="translate(454.35 578.12)">S</text><text class="cls-20" transform="translate(459.08 578.12)">tudent Success Scorecard</text><text class="cls-20" transform="translate(660.28 578.12)">Online Application</text><text class="cls-20" transform="translate(660.28 594.5)">Online Registration</text><text class="cls-20" transform="translate(660.28 610.87)">Financial Aid</text><text class="cls-20" transform="translate(660.28 627.24)">Class Schedule</text><text class="cls-20" transform="translate(660.28 643.62)">College Catalog</text><text class="cls-21" transform="translate(660.28 659.99)">A</text><text class="cls-20" transform="translate(665.63 659.99)">thletics Rams</text><text class="cls-20" transform="translate(660.28 676.36)">International Students</text><text class="cls-14" transform="translate(249.04 559.86)">Public Information</text><text class="cls-14" transform="translate(454.35 559.86)">Quality Education</text><text class="cls-14" transform="translate(454.35 609.61)">Donate</text><text class="cls-13" transform="translate(249.04 741.23)">News &amp; Announcements</text><text class="cls-14" transform="translate(660.28 559.86)">Quick Links</text><path class="cls-9" d="M248.42,277.65a22,22,0,1,0-22-22,22,22,0,0,0,22,22Z"/><path class="cls-9" d="M267.31,1036.59a22,22,0,1,0-22-22,22,22,0,0,0,22,22Z"/></g></svg>