<svg id="Layer_1" data-name="Layer 1" xmlns="http://www.w3.org/2000/svg" viewBox="0 0 1065 1371.09"><defs><style>.cls-1{fill:#80332a;}.cls-2{fill:#3c3c3c;}.cls-3{fill:#c10000;}.cls-4{fill:#2d2d2d;}.cls-5{fill:#fff;}.cls-6{fill:#e5dbdb;}.cls-7,.cls-8{fill:none;stroke:#a8a8a8;stroke-linecap:round;stroke-linejoin:round;stroke-width:3px;}.cls-8{stroke-dasharray:0.25 9.87;}</style></defs><title>CCSF</title><polygon class="cls-1" points="115.07 389.13 81.04 358.92 20.07 389.13 96.07 433.84 115.07 433.84 115.07 389.13"/><path class="cls-1" d="M677.74,805.12H567.19a202.34,202.34,0,0,0-9.59,61.71V868h43.2Z"/><path class="cls-2" d="M803.58,664.45H970.92V-748.31l-875-1V1381.15l875,1V1301H803.58c-111.78,0-202.39-90.61-202.39-202.38v-60L677,975.76H601.19V866.83C601.19,755.06,691.8,664.45,803.58,664.45Z"/><g id="Previous_bg" data-name="Previous bg"><rect class="cls-3" x="95.92" y="742.22" width="581.29" height="62.89"/><rect class="cls-4" x="95.92" y="912.87" width="581.07" height="62.89"/><path class="cls-3" d="M677.21,742.22v62.9H503.58c-62.67,0-98.46-62.9-98.46-62.9Z"/><path class="cls-4" d="M676.47,912.87v62.89H403.21c-62.67,0-98.45-62.89-98.45-62.89Z"/><path class="cls-5" d="M675.1,1083.51v62.9H95.92v-62.9Z"/><path class="cls-2" d="M856,777.82h-2.77l-.72,3.42h-1.46l.72-3.42h-3.3l-.72,3.42h-1.46l.72-3.42h-1.58v-1.46h1.89l.59-2.86h-2.48v-1.45h2.79l.72-3.45h1.46l-.72,3.45H853l.72-3.45h1.46l-.72,3.45H856v1.45h-1.88l-.59,2.86H856Zm-3.33-4.32h-3.3l-.59,2.86h3.29Z"/><path class="cls-2" d="M864.42,775.23a1.31,1.31,0,0,1-.32.89,1,1,0,0,1-.82.36.89.89,0,0,1-.61-.21.71.71,0,0,1-.23-.54,1.78,1.78,0,0,1,.07-.47,1.46,1.46,0,0,0,.08-.43.57.57,0,0,0-.28-.56,1.21,1.21,0,0,0-.54-.14,1.85,1.85,0,0,0-1.44.84,6.53,6.53,0,0,0-1.06,2,6.1,6.1,0,0,0-.39,1.87c0,.54.13.88.38,1a1.55,1.55,0,0,0,.79.22,2.58,2.58,0,0,0,1.44-.42,5.24,5.24,0,0,0,1.1-1h.95a6.3,6.3,0,0,1-1.75,1.69,4.38,4.38,0,0,1-2.52.76,2.7,2.7,0,0,1-1.89-.61,2.11,2.11,0,0,1-.66-1.64,5.19,5.19,0,0,1,.7-2.51,5.91,5.91,0,0,1,2-2.12,4.89,4.89,0,0,1,2.76-.83,2.86,2.86,0,0,1,1,.15,2.3,2.3,0,0,1,.72.41,1.69,1.69,0,0,1,.45.59A1.65,1.65,0,0,1,864.42,775.23Z"/><path class="cls-2" d="M872.66,775.23a1.31,1.31,0,0,1-.31.89,1,1,0,0,1-.82.36.85.85,0,0,1-.61-.21.68.68,0,0,1-.24-.54,2.33,2.33,0,0,1,.07-.47,1.2,1.2,0,0,0,.08-.43.59.59,0,0,0-.27-.56,1.28,1.28,0,0,0-.55-.14,1.88,1.88,0,0,0-1.44.84,6.75,6.75,0,0,0-1.06,2,6.1,6.1,0,0,0-.39,1.87c0,.54.13.88.38,1a1.55,1.55,0,0,0,.79.22,2.58,2.58,0,0,0,1.44-.42,5,5,0,0,0,1.1-1h.95a6.16,6.16,0,0,1-1.75,1.69,4.37,4.37,0,0,1-2.51.76,2.67,2.67,0,0,1-1.89-.61,2.08,2.08,0,0,1-.67-1.64,5.31,5.31,0,0,1,.7-2.51,5.85,5.85,0,0,1,2-2.12,4.89,4.89,0,0,1,2.76-.83,2.91,2.91,0,0,1,1,.15,2.36,2.36,0,0,1,.71.41,1.69,1.69,0,0,1,.45.59A1.65,1.65,0,0,1,872.66,775.23Z"/><path class="cls-2" d="M881.79,771.93a13,13,0,0,1-.31,2.49,16.32,16.32,0,0,1-1,3.07,7.65,7.65,0,0,1-1.75,2.58,3.58,3.58,0,0,1-2.56,1,2.09,2.09,0,0,1-2.05-1,4.39,4.39,0,0,1-.5-2.07,13.15,13.15,0,0,1,.49-3.09,13.9,13.9,0,0,1,1.47-3.6,5.73,5.73,0,0,1,.83-1.11,4.52,4.52,0,0,1,1.21-.89,3.64,3.64,0,0,1,1.65-.37,2.46,2.46,0,0,1,1.34.34,2.23,2.23,0,0,1,.77.85,3.43,3.43,0,0,1,.33.94A5.91,5.91,0,0,1,881.79,771.93Zm-1.64-1.2a1.09,1.09,0,0,0-.23-.7.78.78,0,0,0-.65-.28,1.3,1.3,0,0,0-1,.48,3.87,3.87,0,0,0-.62.91,27.68,27.68,0,0,0-1,2.66c-.4,1.19-.74,2.32-1,3.37a10.77,10.77,0,0,0-.42,2.09,1.81,1.81,0,0,0,.18.72.8.8,0,0,0,.8.4c.65,0,1.19-.52,1.61-1.57.16-.38.38-1,.66-1.87s.55-1.71.81-2.56.46-1.62.63-2.3A7.67,7.67,0,0,0,880.15,770.73Z"/><path class="cls-2" d="M890.79,771.93a13,13,0,0,1-.31,2.49,16.32,16.32,0,0,1-1,3.07,7.65,7.65,0,0,1-1.75,2.58,3.58,3.58,0,0,1-2.56,1,2.09,2.09,0,0,1-2.05-1,4.39,4.39,0,0,1-.5-2.07,13.15,13.15,0,0,1,.49-3.09,13.9,13.9,0,0,1,1.47-3.6,5.73,5.73,0,0,1,.83-1.11,4.52,4.52,0,0,1,1.21-.89,3.64,3.64,0,0,1,1.65-.37,2.46,2.46,0,0,1,1.34.34,2.23,2.23,0,0,1,.77.85,3.43,3.43,0,0,1,.33.94A5.91,5.91,0,0,1,890.79,771.93Zm-1.64-1.2a1.09,1.09,0,0,0-.23-.7.78.78,0,0,0-.65-.28,1.3,1.3,0,0,0-1,.48,3.87,3.87,0,0,0-.62.91,27.68,27.68,0,0,0-1,2.66c-.4,1.19-.74,2.32-1,3.37a10.77,10.77,0,0,0-.42,2.09,1.81,1.81,0,0,0,.18.72.8.8,0,0,0,.8.4c.65,0,1.19-.52,1.61-1.57.16-.38.38-1,.66-1.87s.55-1.71.81-2.56.46-1.62.63-2.3A7.67,7.67,0,0,0,889.15,770.73Z"/><path class="cls-2" d="M899.79,771.93a13,13,0,0,1-.31,2.49,16.32,16.32,0,0,1-1,3.07,7.65,7.65,0,0,1-1.75,2.58,3.58,3.58,0,0,1-2.56,1,2.09,2.09,0,0,1-2.05-1,4.39,4.39,0,0,1-.5-2.07,13.15,13.15,0,0,1,.49-3.09,13.9,13.9,0,0,1,1.47-3.6,5.73,5.73,0,0,1,.83-1.11,4.52,4.52,0,0,1,1.21-.89,3.64,3.64,0,0,1,1.65-.37,2.46,2.46,0,0,1,1.34.34,2.23,2.23,0,0,1,.77.85,3.43,3.43,0,0,1,.33.94A5.91,5.91,0,0,1,899.79,771.93Zm-1.64-1.2a1.09,1.09,0,0,0-.23-.7.78.78,0,0,0-.65-.28,1.3,1.3,0,0,0-1,.48,3.87,3.87,0,0,0-.62.91,27.68,27.68,0,0,0-1,2.66c-.4,1.19-.74,2.32-1,3.37a10.77,10.77,0,0,0-.42,2.09,1.81,1.81,0,0,0,.18.72.8.8,0,0,0,.8.4c.65,0,1.19-.52,1.61-1.57.16-.38.38-1,.66-1.87s.55-1.71.81-2.56.46-1.62.63-2.3A7.67,7.67,0,0,0,898.15,770.73Z"/><path class="cls-2" d="M908.79,771.93a13,13,0,0,1-.31,2.49,16.32,16.32,0,0,1-1,3.07,7.65,7.65,0,0,1-1.75,2.58,3.58,3.58,0,0,1-2.56,1,2.09,2.09,0,0,1-2.05-1,4.39,4.39,0,0,1-.5-2.07,13.15,13.15,0,0,1,.49-3.09,13.9,13.9,0,0,1,1.47-3.6,5.73,5.73,0,0,1,.83-1.11,4.52,4.52,0,0,1,1.21-.89,3.64,3.64,0,0,1,1.65-.37,2.46,2.46,0,0,1,1.34.34,2.23,2.23,0,0,1,.77.85,3.43,3.43,0,0,1,.33.94A5.91,5.91,0,0,1,908.79,771.93Zm-1.64-1.2a1.09,1.09,0,0,0-.23-.7.78.78,0,0,0-.65-.28,1.3,1.3,0,0,0-1,.48,3.87,3.87,0,0,0-.62.91,27.68,27.68,0,0,0-1,2.66c-.4,1.19-.74,2.32-1,3.37a10.77,10.77,0,0,0-.42,2.09,1.81,1.81,0,0,0,.18.72.8.8,0,0,0,.8.4c.65,0,1.19-.52,1.61-1.57.16-.38.38-1,.66-1.87s.55-1.71.81-2.56.46-1.62.63-2.3A7.67,7.67,0,0,0,907.15,770.73Z"/><path class="cls-2" d="M856,847.05h-2.77l-.72,3.42h-1.46l.72-3.42h-3.3l-.72,3.42h-1.46l.72-3.42h-1.58v-1.46h1.89l.59-2.86h-2.48v-1.45h2.79l.72-3.45h1.46l-.72,3.45H853l.72-3.45h1.46l-.72,3.45H856v1.45h-1.88l-.59,2.86H856Zm-3.33-4.32h-3.3l-.59,2.86h3.29Z"/><path class="cls-2" d="M865.25,840.8A3.61,3.61,0,0,1,865,842a3,3,0,0,1-1,1.23,4.39,4.39,0,0,1-2.15.79,3.06,3.06,0,0,1,1.47.82,2.42,2.42,0,0,1,.59,1.76,3.72,3.72,0,0,1-.47,1.72,4,4,0,0,1-1.38,1.47,3.73,3.73,0,0,1-2.08.59,3.45,3.45,0,0,1-1.52-.34,2.66,2.66,0,0,1-1.14-1,2.62,2.62,0,0,1-.43-1.5,3.45,3.45,0,0,1,1.32-2.76,3.9,3.9,0,0,1,2.57-.78,2,2,0,0,1-1.94-2.16,3.65,3.65,0,0,1,.23-1.23,4.1,4.1,0,0,1,.69-1.17,3.6,3.6,0,0,1,1.13-.87,3.64,3.64,0,0,1,1.55-.32,2.61,2.61,0,0,1,2.12.82A2.66,2.66,0,0,1,865.25,840.8Zm-3.14,4.63c0-.71-.34-1.06-1-1.06a1.49,1.49,0,0,0-1.4.91c-.09.2-.25.71-.49,1.51a7.1,7.1,0,0,0-.36,1.72,1.07,1.07,0,0,0,.29.79,1.1,1.1,0,0,0,.77.27,1.5,1.5,0,0,0,1.4-1.06,10,10,0,0,0,.58-1.68A6.67,6.67,0,0,0,862.11,845.43Zm1.32-5.56a1,1,0,0,0-.07-.35.76.76,0,0,0-.26-.34.79.79,0,0,0-.51-.15,1.07,1.07,0,0,0-.89.35,4.07,4.07,0,0,0-.59,1.44c-.21.81-.33,1.3-.37,1.45a2.41,2.41,0,0,0,0,.5,1,1,0,0,0,.19.58.72.72,0,0,0,.63.26c.58,0,1-.36,1.29-1.09.06-.15.14-.41.24-.77s.19-.74.27-1.11A4.4,4.4,0,0,0,863.43,839.87Z"/><path class="cls-2" d="M874.66,848a6.18,6.18,0,0,1-.57.94,4.24,4.24,0,0,1-.7.76,3,3,0,0,1-.78.49,2.06,2.06,0,0,1-.81.17c-.62,0-1-.19-1.18-.56a3,3,0,0,1-.26-1.33A8.8,8.8,0,0,1,869,849.8a2.52,2.52,0,0,1-1.57.53,1.31,1.31,0,0,1-.86-.29,1.62,1.62,0,0,1-.5-.77,3.13,3.13,0,0,1-.16-1,6.08,6.08,0,0,1,.6-2.51,6.41,6.41,0,0,1,1.65-2.21,3.36,3.36,0,0,1,2.25-.9,1.52,1.52,0,0,1,.87.22,1.22,1.22,0,0,1,.43.49,4.34,4.34,0,0,1,.21.61l.32-1.1h1.94l-1.63,5.36a3.76,3.76,0,0,0-.18.71.27.27,0,0,0,.08.19.25.25,0,0,0,.17.08c.38,0,.79-.41,1.22-1.21Zm-3.27-3.51a1.56,1.56,0,0,0-.17-.74.6.6,0,0,0-.59-.31,1.72,1.72,0,0,0-1.28.76,6.11,6.11,0,0,0-1,1.84,5.47,5.47,0,0,0-.38,1.81c0,.71.22,1.07.66,1.07a1.45,1.45,0,0,0,1-.43,4.54,4.54,0,0,0,.9-1.14,6.73,6.73,0,0,0,.66-1.49A4.55,4.55,0,0,0,871.39,844.46Z"/><path class="cls-2" d="M883.91,840.23a2,2,0,0,1-.69,1.47,6.14,6.14,0,0,1-1.47,1.1c-.53.28-1,.53-1.57.76a2.82,2.82,0,0,1,1.52.51,2.15,2.15,0,0,1,.7,1.9,3.93,3.93,0,0,1-.41,1.79,4.43,4.43,0,0,1-1.12,1.39,5.39,5.39,0,0,1-1.59.89,5.67,5.67,0,0,1-1.83.31,3.66,3.66,0,0,1-1.36-.25,2.3,2.3,0,0,1-.94-.64,1.31,1.31,0,0,1-.33-.83,1,1,0,0,1,.24-.65.82.82,0,0,1,.62-.26.88.88,0,0,1,.69.26,2,2,0,0,1,.38.69,1.88,1.88,0,0,0,.36.64.76.76,0,0,0,.64.26,1.61,1.61,0,0,0,1.17-.52,4.35,4.35,0,0,0,.87-1.3,9,9,0,0,0,.53-1.53,5,5,0,0,0,.19-1.16,1.42,1.42,0,0,0-.18-.65.62.62,0,0,0-.59-.35,1.68,1.68,0,0,0-.87.4l-.28.21a.37.37,0,0,1-.24.11.33.33,0,0,1-.22-.1.37.37,0,0,1-.13-.33.48.48,0,0,1,.19-.33,8.56,8.56,0,0,1,.77-.48,15,15,0,0,0,2.48-1.68,2.1,2.1,0,0,0,.74-1.59,1.27,1.27,0,0,0-1.33-1.24,1.47,1.47,0,0,0-1,.38,1.28,1.28,0,0,0-.41,1,1.22,1.22,0,0,0,0,.32,1.21,1.21,0,0,1,0,.23c0,.05-.15.19-.46.4a2.31,2.31,0,0,1-.53.31c-.08,0-.18-.13-.31-.38a1.61,1.61,0,0,1-.2-.77,2,2,0,0,1,.77-1.57,3.35,3.35,0,0,1,2.24-.67,3.47,3.47,0,0,1,2.13.58A1.71,1.71,0,0,1,883.91,840.23Z"/><path class="cls-2" d="M892.91,840.23a2,2,0,0,1-.69,1.47,6.14,6.14,0,0,1-1.47,1.1c-.53.28-1,.53-1.57.76a2.82,2.82,0,0,1,1.52.51,2.15,2.15,0,0,1,.7,1.9,3.93,3.93,0,0,1-.41,1.79,4.43,4.43,0,0,1-1.12,1.39,5.39,5.39,0,0,1-1.59.89,5.67,5.67,0,0,1-1.83.31,3.66,3.66,0,0,1-1.36-.25,2.3,2.3,0,0,1-.94-.64,1.31,1.31,0,0,1-.33-.83,1,1,0,0,1,.24-.65.82.82,0,0,1,.62-.26.88.88,0,0,1,.69.26,2,2,0,0,1,.38.69,1.88,1.88,0,0,0,.36.64.76.76,0,0,0,.64.26,1.61,1.61,0,0,0,1.17-.52,4.35,4.35,0,0,0,.87-1.3,9,9,0,0,0,.53-1.53,5,5,0,0,0,.19-1.16,1.42,1.42,0,0,0-.18-.65.62.62,0,0,0-.59-.35,1.68,1.68,0,0,0-.87.4l-.28.21a.37.37,0,0,1-.24.11.33.33,0,0,1-.22-.1.37.37,0,0,1-.13-.33.48.48,0,0,1,.19-.33,8.56,8.56,0,0,1,.77-.48,15,15,0,0,0,2.48-1.68,2.1,2.1,0,0,0,.74-1.59,1.27,1.27,0,0,0-1.33-1.24,1.47,1.47,0,0,0-1,.38,1.28,1.28,0,0,0-.41,1,1.22,1.22,0,0,0,0,.32,1.21,1.21,0,0,1,0,.23c0,.05-.15.19-.46.4a2.31,2.31,0,0,1-.53.31c-.08,0-.18-.13-.31-.38a1.61,1.61,0,0,1-.2-.77,2,2,0,0,1,.77-1.57,3.35,3.35,0,0,1,2.24-.67,3.47,3.47,0,0,1,2.13.58A1.71,1.71,0,0,1,892.91,840.23Z"/><path class="cls-2" d="M901.73,840.85a4.16,4.16,0,0,1-.43,1.85,6.47,6.47,0,0,1-1.26,1.68,17,17,0,0,1-1.71,1.5q-.89.68-3.48,2.52h4.83l-.71,2.23h-.8a.77.77,0,0,0,.07-.27c0-.19-.15-.29-.43-.29H893l.36-1.18,1-.92,1-.93,1.22-1.16c.4-.39.78-.77,1.13-1.15a8.43,8.43,0,0,0,1.36-2,4.43,4.43,0,0,0,.55-2,2.05,2.05,0,0,0-.18-.87,1.39,1.39,0,0,0-.54-.63,1.62,1.62,0,0,0-.88-.22,1.59,1.59,0,0,0-1.16.37,1.09,1.09,0,0,0-.37.81,1.45,1.45,0,0,0,.52,1l.13.15s.07.08.07.11-.09.14-.26.23l-.59.35a.7.7,0,0,1-.36.1c-.16,0-.36-.15-.59-.47a1.72,1.72,0,0,1-.34-1.06,2,2,0,0,1,.37-1.15,2.66,2.66,0,0,1,1.11-.9,4,4,0,0,1,1.75-.35,3.74,3.74,0,0,1,2.51.74A2.37,2.37,0,0,1,901.73,840.85Z"/><path class="cls-2" d="M911.22,848a6.18,6.18,0,0,1-.57.94,4.29,4.29,0,0,1-.71.76,2.84,2.84,0,0,1-.77.49,2.15,2.15,0,0,1-.82.17c-.61,0-1-.19-1.18-.56a3.15,3.15,0,0,1-.26-1.33,8.8,8.8,0,0,1-1.39,1.36,2.49,2.49,0,0,1-1.56.53,1.3,1.3,0,0,1-.86-.29,1.63,1.63,0,0,1-.51-.77,3.13,3.13,0,0,1-.16-1,6,6,0,0,1,.61-2.51,6.39,6.39,0,0,1,1.64-2.21,3.4,3.4,0,0,1,2.25-.9,1.47,1.47,0,0,1,.87.22,1.22,1.22,0,0,1,.43.49,4.34,4.34,0,0,1,.21.61l.33-1.1h1.94l-1.64,5.36a4.29,4.29,0,0,0-.17.71.26.26,0,0,0,.07.19.25.25,0,0,0,.17.08c.38,0,.79-.41,1.23-1.21Zm-3.28-3.51a1.68,1.68,0,0,0-.16-.74.61.61,0,0,0-.6-.31,1.74,1.74,0,0,0-1.28.76,6.33,6.33,0,0,0-1,1.84,5.74,5.74,0,0,0-.38,1.81c0,.71.22,1.07.67,1.07a1.43,1.43,0,0,0,.95-.43,4.13,4.13,0,0,0,.9-1.14,7.27,7.27,0,0,0,.67-1.49A4.84,4.84,0,0,0,907.94,844.46Z"/><path class="cls-2" d="M856,945.48h-2.77l-.72,3.42h-1.46l.72-3.42h-3.3l-.72,3.42h-1.46l.72-3.42h-1.58V944h1.89l.59-2.86h-2.48v-1.45h2.79l.72-3.45h1.46l-.72,3.45H853l.72-3.45h1.46l-.72,3.45H856v1.45h-1.88l-.59,2.86H856Zm-3.33-4.32h-3.3l-.59,2.86h3.29Z"/><path class="cls-2" d="M865.17,939.29a4.14,4.14,0,0,1-.42,1.84,6.71,6.71,0,0,1-1.26,1.68,18.27,18.27,0,0,1-1.72,1.5c-.58.45-1.74,1.29-3.47,2.53h4.82l-.7,2.22h-.81a.57.57,0,0,0,.07-.27c0-.19-.14-.28-.43-.28h-4.82l.36-1.19,1.05-.92,1-.93c.42-.38.83-.76,1.23-1.16s.78-.77,1.13-1.15a8.75,8.75,0,0,0,1.36-1.95,4.54,4.54,0,0,0,.54-2,2.05,2.05,0,0,0-.18-.87,1.37,1.37,0,0,0-.53-.63,1.63,1.63,0,0,0-.89-.22,1.56,1.56,0,0,0-1.15.37,1.09,1.09,0,0,0-.37.81,1.47,1.47,0,0,0,.51,1l.14.15c0,.05.07.08.07.11s-.09.14-.26.24l-.6.34a.65.65,0,0,1-.36.1c-.16,0-.35-.15-.58-.47a1.73,1.73,0,0,1-.35-1.06,2.12,2.12,0,0,1,.37-1.15,2.66,2.66,0,0,1,1.11-.9,4.12,4.12,0,0,1,1.76-.34,3.76,3.76,0,0,1,2.51.73A2.38,2.38,0,0,1,865.17,939.29Z"/><path class="cls-2" d="M876.19,936.38l-3.12,10.11a4.19,4.19,0,0,0-.19.88c0,.21.1.31.29.31a1,1,0,0,0,.62-.33,3.78,3.78,0,0,0,.64-.88h.84a4.55,4.55,0,0,1-.54.92,4.36,4.36,0,0,1-1,1,2.36,2.36,0,0,1-1.35.41c-1,0-1.52-.54-1.52-1.63V947a.45.45,0,0,0,0-.12,5.71,5.71,0,0,1-.84.88,4.29,4.29,0,0,1-1.11.71,2.91,2.91,0,0,1-1.24.28,1.76,1.76,0,0,1-1.44-.6,2.28,2.28,0,0,1-.51-1.53,5.19,5.19,0,0,1,.4-2,6.43,6.43,0,0,1,1.06-1.81,5.31,5.31,0,0,1,1.58-1.3,3.78,3.78,0,0,1,1.86-.49,1.89,1.89,0,0,1,1.11.27,2.64,2.64,0,0,1,.64.65l1-3.42a2.51,2.51,0,0,0,.18-.66.38.38,0,0,0-.15-.34.67.67,0,0,0-.38-.13,6.46,6.46,0,0,0-.69,0l.21-.81,1.41,0c.34,0,.61,0,.83,0s.46-.07.75-.12Zm-4.29,6.67a1.48,1.48,0,0,0-.29-.94,1,1,0,0,0-.79-.37,2,2,0,0,0-1.46.77,5.74,5.74,0,0,0-1.12,1.84,5.3,5.3,0,0,0-.42,1.91,1.08,1.08,0,0,0,.29.85,1,1,0,0,0,.68.26,1.88,1.88,0,0,0,1.16-.43,4.12,4.12,0,0,0,1-1.12,5.73,5.73,0,0,0,.68-1.41A4.19,4.19,0,0,0,871.9,943.05Z"/><path class="cls-2" d="M884.49,939.29a4,4,0,0,1-.43,1.84,6.42,6.42,0,0,1-1.25,1.68,18.27,18.27,0,0,1-1.72,1.5c-.59.45-1.74,1.29-3.47,2.53h4.82l-.7,2.22h-.81a.57.57,0,0,0,.07-.27c0-.19-.14-.28-.43-.28h-4.82l.36-1.19,1-.92,1-.93c.42-.38.82-.76,1.23-1.16s.77-.77,1.13-1.15a9.09,9.09,0,0,0,1.36-1.95,4.54,4.54,0,0,0,.54-2,2.05,2.05,0,0,0-.18-.87,1.43,1.43,0,0,0-.53-.63,1.66,1.66,0,0,0-.89-.22,1.56,1.56,0,0,0-1.15.37,1.11,1.11,0,0,0-.38.81,1.49,1.49,0,0,0,.52,1l.14.15c0,.05.06.08.06.11s-.08.14-.25.24l-.6.34a.7.7,0,0,1-.36.1c-.16,0-.35-.15-.58-.47a1.67,1.67,0,0,1-.35-1.06,2,2,0,0,1,.37-1.15,2.66,2.66,0,0,1,1.11-.9,4.08,4.08,0,0,1,1.75-.34,3.77,3.77,0,0,1,2.52.73A2.38,2.38,0,0,1,884.49,939.29Z"/><path class="cls-2" d="M895.51,936.38l-3.12,10.11a4.19,4.19,0,0,0-.19.88c0,.21.09.31.29.31a.93.93,0,0,0,.61-.33,3.53,3.53,0,0,0,.65-.88h.84a4.23,4.23,0,0,1-.55.92,4.12,4.12,0,0,1-1,1,2.36,2.36,0,0,1-1.35.41c-1,0-1.52-.54-1.52-1.63V947s0-.08,0-.12a6.23,6.23,0,0,1-.84.88,4.29,4.29,0,0,1-1.11.71,2.91,2.91,0,0,1-1.24.28,1.79,1.79,0,0,1-1.45-.6,2.33,2.33,0,0,1-.5-1.53,5.37,5.37,0,0,1,.39-2,6.46,6.46,0,0,1,1.07-1.81,5.4,5.4,0,0,1,1.57-1.3,3.81,3.81,0,0,1,1.87-.49,1.89,1.89,0,0,1,1.11.27,2.64,2.64,0,0,1,.64.65l1-3.42a2.29,2.29,0,0,0,.19-.66.38.38,0,0,0-.15-.34.67.67,0,0,0-.38-.13,6.46,6.46,0,0,0-.69,0l.21-.81,1.4,0c.34,0,.62,0,.84,0s.46-.07.75-.12Zm-4.29,6.67a1.43,1.43,0,0,0-.3-.94,1,1,0,0,0-.78-.37,2,2,0,0,0-1.46.77,5.74,5.74,0,0,0-1.12,1.84,5.3,5.3,0,0,0-.42,1.91,1.08,1.08,0,0,0,.29.85,1,1,0,0,0,.68.26,1.9,1.9,0,0,0,1.16-.43,4.12,4.12,0,0,0,1-1.12,5.73,5.73,0,0,0,.68-1.41A4.19,4.19,0,0,0,891.22,943.05Z"/><path class="cls-2" d="M903.81,939.29a4,4,0,0,1-.43,1.84,6.42,6.42,0,0,1-1.25,1.68,18.27,18.27,0,0,1-1.72,1.5c-.59.45-1.75,1.29-3.47,2.53h4.82l-.7,2.22h-.81a.57.57,0,0,0,.07-.27c0-.19-.14-.28-.43-.28h-4.83l.36-1.19c.44-.37.79-.68,1.05-.92l1-.93c.41-.38.82-.76,1.22-1.16s.78-.77,1.13-1.15a8.79,8.79,0,0,0,1.37-1.95,4.54,4.54,0,0,0,.54-2,2.05,2.05,0,0,0-.18-.87,1.39,1.39,0,0,0-.54-.63,1.94,1.94,0,0,0-2,.15,1.13,1.13,0,0,0-.37.81,1.45,1.45,0,0,0,.52,1l.14.15c0,.05.06.08.06.11s-.08.14-.25.24l-.6.34a.7.7,0,0,1-.36.1c-.16,0-.35-.15-.58-.47a1.67,1.67,0,0,1-.35-1.06,2,2,0,0,1,.37-1.15,2.66,2.66,0,0,1,1.11-.9,4.08,4.08,0,0,1,1.75-.34,3.77,3.77,0,0,1,2.52.73A2.41,2.41,0,0,1,903.81,939.29Z"/><path class="cls-2" d="M914.83,936.38l-3.12,10.11a4.19,4.19,0,0,0-.19.88c0,.21.09.31.29.31a1,1,0,0,0,.61-.33,3.51,3.51,0,0,0,.64-.88h.85a4.23,4.23,0,0,1-.55.92,4.12,4.12,0,0,1-1,1,2.36,2.36,0,0,1-1.35.41c-1,0-1.52-.54-1.52-1.63v-.24a5.62,5.62,0,0,1-.83.88,4.65,4.65,0,0,1-1.11.71,2.92,2.92,0,0,1-1.25.28,1.79,1.79,0,0,1-1.44-.6,2.33,2.33,0,0,1-.5-1.53,5.37,5.37,0,0,1,.39-2,6.46,6.46,0,0,1,1.07-1.81,5.4,5.4,0,0,1,1.57-1.3,3.81,3.81,0,0,1,1.87-.49,1.84,1.84,0,0,1,1.1.27,2.67,2.67,0,0,1,.65.65l1-3.42a2.29,2.29,0,0,0,.19-.66.38.38,0,0,0-.15-.34.67.67,0,0,0-.38-.13,6.46,6.46,0,0,0-.69,0l.21-.81,1.4,0c.34,0,.62,0,.83,0s.47-.07.75-.12Zm-4.29,6.67a1.43,1.43,0,0,0-.3-.94,1,1,0,0,0-.78-.37,2,2,0,0,0-1.46.77,5.74,5.74,0,0,0-1.12,1.84,5.13,5.13,0,0,0-.43,1.91,1.12,1.12,0,0,0,.29.85,1,1,0,0,0,.69.26,1.85,1.85,0,0,0,1.15-.43,4.31,4.31,0,0,0,1-1.12,6.11,6.11,0,0,0,.68-1.41A4.19,4.19,0,0,0,910.54,943.05Z"/><path class="cls-2" d="M856,1014.71h-2.77l-.72,3.42h-1.46l.72-3.42h-3.3l-.72,3.42h-1.46l.72-3.42h-1.58v-1.46h1.89l.59-2.86h-2.48v-1.45h2.79l.72-3.45h1.46l-.72,3.45H853l.72-3.45h1.46l-.72,3.45H856v1.45h-1.88l-.59,2.86H856Zm-3.33-4.32h-3.3l-.59,2.86h3.29Z"/><path class="cls-2" d="M865.36,1007.89a2,2,0,0,1-.69,1.48,6.64,6.64,0,0,1-1.48,1.09c-.52.28-1,.54-1.56.76a2.85,2.85,0,0,1,1.52.51,2.18,2.18,0,0,1,.69,1.9,3.85,3.85,0,0,1-.41,1.8,4.36,4.36,0,0,1-1.11,1.38,5.32,5.32,0,0,1-1.6.89,5.66,5.66,0,0,1-1.82.31,3.52,3.52,0,0,1-1.37-.25,2.33,2.33,0,0,1-.93-.64,1.29,1.29,0,0,1-.33-.82,1,1,0,0,1,.24-.66.79.79,0,0,1,.62-.26.88.88,0,0,1,.69.26,2,2,0,0,1,.37.69,2.5,2.5,0,0,0,.36.65.81.81,0,0,0,.65.26,1.62,1.62,0,0,0,1.16-.52,4.23,4.23,0,0,0,.87-1.3,8.6,8.6,0,0,0,.54-1.54,5.54,5.54,0,0,0,.19-1.16,1.45,1.45,0,0,0-.19-.65.61.61,0,0,0-.59-.35,1.84,1.84,0,0,0-.87.4l-.27.22a.45.45,0,0,1-.25.11.41.41,0,0,1-.22-.11.39.39,0,0,1-.12-.33.41.41,0,0,1,.19-.32,4.49,4.49,0,0,1,.77-.48,16.1,16.1,0,0,0,2.48-1.69,2.1,2.1,0,0,0,.74-1.59,1.28,1.28,0,0,0-1.33-1.24,1.46,1.46,0,0,0-1,.39,1.24,1.24,0,0,0-.4.95,1.22,1.22,0,0,0,0,.32,1,1,0,0,1,0,.23c0,.06-.15.19-.45.4a2.12,2.12,0,0,1-.53.31c-.08,0-.19-.12-.32-.37a1.66,1.66,0,0,1-.19-.78,2.06,2.06,0,0,1,.76-1.57,3.36,3.36,0,0,1,2.25-.66,3.49,3.49,0,0,1,2.12.57A1.7,1.7,0,0,1,865.36,1007.89Z"/><path class="cls-2" d="M873.42,1012.12a1.32,1.32,0,0,1-.32.9,1,1,0,0,1-.82.36.89.89,0,0,1-.61-.21.73.73,0,0,1-.23-.55,1.72,1.72,0,0,1,.07-.46,1.52,1.52,0,0,0,.08-.44.55.55,0,0,0-.28-.55,1.1,1.1,0,0,0-.54-.15,1.85,1.85,0,0,0-1.44.84,6.46,6.46,0,0,0-1.06,2,6,6,0,0,0-.39,1.87c0,.53.13.87.38,1a1.65,1.65,0,0,0,.79.22,2.59,2.59,0,0,0,1.44-.43,4.73,4.73,0,0,0,1.1-1h.95a6.32,6.32,0,0,1-1.75,1.7,4.44,4.44,0,0,1-2.52.75,2.7,2.7,0,0,1-1.89-.61,2.11,2.11,0,0,1-.66-1.64,5.22,5.22,0,0,1,.7-2.51,6,6,0,0,1,2-2.12,4.89,4.89,0,0,1,2.76-.83,2.86,2.86,0,0,1,1,.15,2.3,2.3,0,0,1,.72.41,1.69,1.69,0,0,1,.45.59A1.72,1.72,0,0,1,873.42,1012.12Z"/><path class="cls-2" d="M882.6,1007.89a2.06,2.06,0,0,1-.68,1.48,6.64,6.64,0,0,1-1.48,1.09c-.53.28-1.05.54-1.57.76a2.82,2.82,0,0,1,1.52.51,2.15,2.15,0,0,1,.7,1.9,4,4,0,0,1-.41,1.8,4.4,4.4,0,0,1-1.12,1.38,5.39,5.39,0,0,1-1.59.89,5.67,5.67,0,0,1-1.83.31,3.47,3.47,0,0,1-1.36-.25,2.3,2.3,0,0,1-.94-.64,1.29,1.29,0,0,1-.33-.82,1,1,0,0,1,.24-.66.82.82,0,0,1,.62-.26.86.86,0,0,1,.69.26,2,2,0,0,1,.38.69,2,2,0,0,0,.36.65.79.79,0,0,0,.64.26,1.65,1.65,0,0,0,1.17-.52,4.62,4.62,0,0,0,.87-1.3,9.39,9.39,0,0,0,.53-1.54,5,5,0,0,0,.19-1.16,1.42,1.42,0,0,0-.18-.65.62.62,0,0,0-.59-.35,1.77,1.77,0,0,0-.87.4l-.28.22a.42.42,0,0,1-.24.11.35.35,0,0,1-.22-.11.39.39,0,0,1-.13-.33.44.44,0,0,1,.19-.32,5.52,5.52,0,0,1,.77-.48,15.6,15.6,0,0,0,2.48-1.69,2.1,2.1,0,0,0,.74-1.59,1.27,1.27,0,0,0-1.33-1.24,1.44,1.44,0,0,0-1,.39,1.25,1.25,0,0,0-.41.95,1.87,1.87,0,0,0,0,.32,1.21,1.21,0,0,1,.05.23c0,.06-.15.19-.46.4a1.94,1.94,0,0,1-.53.31c-.08,0-.18-.12-.31-.37a1.68,1.68,0,0,1-.2-.78,2,2,0,0,1,.77-1.57,3.35,3.35,0,0,1,2.24-.66,3.54,3.54,0,0,1,2.13.57A1.71,1.71,0,0,1,882.6,1007.89Z"/><path class="cls-2" d="M890.66,1012.12a1.31,1.31,0,0,1-.31.9,1,1,0,0,1-.82.36.85.85,0,0,1-.61-.21.71.71,0,0,1-.24-.55,2.24,2.24,0,0,1,.07-.46,1.25,1.25,0,0,0,.08-.44.56.56,0,0,0-.27-.55,1.17,1.17,0,0,0-.55-.15,1.88,1.88,0,0,0-1.44.84,6.68,6.68,0,0,0-1.06,2,6,6,0,0,0-.39,1.87c0,.53.13.87.38,1a1.65,1.65,0,0,0,.79.22,2.59,2.59,0,0,0,1.44-.43,4.54,4.54,0,0,0,1.1-1h.95a6.19,6.19,0,0,1-1.75,1.7,4.43,4.43,0,0,1-2.51.75,2.67,2.67,0,0,1-1.89-.61,2.08,2.08,0,0,1-.67-1.64,5.34,5.34,0,0,1,.7-2.51,5.93,5.93,0,0,1,2-2.12,4.89,4.89,0,0,1,2.76-.83,2.91,2.91,0,0,1,1,.15,2.36,2.36,0,0,1,.71.41,1.69,1.69,0,0,1,.45.59A1.72,1.72,0,0,1,890.66,1012.12Z"/><path class="cls-2" d="M899.84,1007.89a2,2,0,0,1-.68,1.48,6.64,6.64,0,0,1-1.48,1.09c-.52.28-1,.54-1.56.76a2.79,2.79,0,0,1,1.51.51,2.15,2.15,0,0,1,.7,1.9,3.85,3.85,0,0,1-.41,1.8,4.4,4.4,0,0,1-1.12,1.38,5.39,5.39,0,0,1-1.59.89,5.67,5.67,0,0,1-1.83.31,3.51,3.51,0,0,1-1.36-.25,2.33,2.33,0,0,1-.93-.64,1.29,1.29,0,0,1-.33-.82,1,1,0,0,1,.23-.66.83.83,0,0,1,.63-.26.88.88,0,0,1,.69.26,2,2,0,0,1,.37.69,2.5,2.5,0,0,0,.36.65.81.81,0,0,0,.64.26,1.62,1.62,0,0,0,1.17-.52,4.23,4.23,0,0,0,.87-1.3,8.6,8.6,0,0,0,.54-1.54,5.39,5.39,0,0,0,.18-1.16,1.42,1.42,0,0,0-.18-.65.61.61,0,0,0-.59-.35,1.77,1.77,0,0,0-.87.4l-.27.22a.48.48,0,0,1-.25.11.38.38,0,0,1-.22-.11.39.39,0,0,1-.12-.33.41.41,0,0,1,.19-.32,4.49,4.49,0,0,1,.77-.48,16.1,16.1,0,0,0,2.48-1.69,2.09,2.09,0,0,0,.73-1.59,1.21,1.21,0,0,0-.35-.85,1.24,1.24,0,0,0-1-.39,1.46,1.46,0,0,0-1,.39,1.24,1.24,0,0,0-.36,1.27,1,1,0,0,1,0,.23c0,.06-.15.19-.45.4a2.12,2.12,0,0,1-.53.31c-.08,0-.19-.12-.32-.37a1.66,1.66,0,0,1-.19-.78,2,2,0,0,1,.76-1.57,3.35,3.35,0,0,1,2.24-.66,3.5,3.5,0,0,1,2.13.57A1.68,1.68,0,0,1,899.84,1007.89Z"/><path class="cls-2" d="M907.9,1012.12a1.31,1.31,0,0,1-.31.9,1,1,0,0,1-.82.36.87.87,0,0,1-.61-.21.7.7,0,0,1-.23-.55,1.72,1.72,0,0,1,.07-.46,1.52,1.52,0,0,0,.08-.44.57.57,0,0,0-.28-.55,1.16,1.16,0,0,0-.54-.15,1.85,1.85,0,0,0-1.44.84,6.46,6.46,0,0,0-1.06,2,6,6,0,0,0-.39,1.87c0,.53.13.87.38,1a1.62,1.62,0,0,0,.79.22,2.64,2.64,0,0,0,1.44-.43,4.73,4.73,0,0,0,1.1-1H907a6.32,6.32,0,0,1-1.75,1.7,4.44,4.44,0,0,1-2.52.75,2.7,2.7,0,0,1-1.89-.61,2.11,2.11,0,0,1-.66-1.64,5.22,5.22,0,0,1,.7-2.51,6,6,0,0,1,2-2.12,4.89,4.89,0,0,1,2.76-.83,2.86,2.86,0,0,1,1,.15,2.3,2.3,0,0,1,.72.41,1.55,1.55,0,0,1,.44.59A1.72,1.72,0,0,1,907.9,1012.12Z"/><path class="cls-2" d="M856,1111.93h-2.77l-.72,3.42h-1.46l.72-3.42h-3.3l-.72,3.42h-1.46l.72-3.42h-1.58v-1.45h1.89l.59-2.87h-2.48v-1.45h2.79l.72-3.44h1.46l-.72,3.44H853l.72-3.44h1.46l-.72,3.44H856v1.45h-1.88l-.59,2.87H856Zm-3.33-4.32h-3.3l-.59,2.87h3.29Z"/><path class="cls-2" d="M865.17,1104.12a.91.91,0,0,1-.25.65.82.82,0,0,1-.63.27.65.65,0,0,1-.56-.23,2.92,2.92,0,0,1-.35-.78.9.9,0,0,0-.16-.31.38.38,0,0,0-.3-.12.39.39,0,0,0-.34.19,2,2,0,0,0-.21.5l-1.06,3.47h1.47l-.25.81h-1.48l-1.53,5a29.2,29.2,0,0,1-1.1,3.07,5.69,5.69,0,0,1-1.38,1.93,3.24,3.24,0,0,1-2.25.8,2.29,2.29,0,0,1-1.5-.43,1.21,1.21,0,0,1-.54-1,1,1,0,0,1,.29-.71.94.94,0,0,1,.72-.3.76.76,0,0,1,.71.29,1.8,1.8,0,0,1,.21.74q0,.6.51.6a.86.86,0,0,0,.74-.5,7.4,7.4,0,0,0,.59-1.52l2.45-8h-1.55l.25-.81h1.54l.17-.56a14.27,14.27,0,0,1,.76-2.09,4.71,4.71,0,0,1,1.22-1.59,3,3,0,0,1,2-.69,2.57,2.57,0,0,1,.87.15,1.65,1.65,0,0,1,.66.45A1,1,0,0,1,865.17,1104.12Z"/><path class="cls-2" d="M872.65,1104.12a.91.91,0,0,1-.25.65.8.8,0,0,1-.63.27.65.65,0,0,1-.56-.23,2.92,2.92,0,0,1-.35-.78.9.9,0,0,0-.16-.31.38.38,0,0,0-.3-.12.39.39,0,0,0-.34.19,2,2,0,0,0-.21.5l-1.06,3.47h1.47l-.25.81h-1.48l-1.53,5a29.2,29.2,0,0,1-1.1,3.07,5.43,5.43,0,0,1-1.38,1.93,3.24,3.24,0,0,1-2.25.8,2.29,2.29,0,0,1-1.5-.43,1.21,1.21,0,0,1-.54-1,1,1,0,0,1,.29-.71.94.94,0,0,1,.73-.3.75.75,0,0,1,.7.29,1.8,1.8,0,0,1,.21.74q0,.6.51.6a.86.86,0,0,0,.74-.5,7.4,7.4,0,0,0,.59-1.52l2.45-8H864.9l.25-.81h1.54l.17-.56a14.27,14.27,0,0,1,.76-2.09,4.71,4.71,0,0,1,1.22-1.59,3,3,0,0,1,2-.69,2.57,2.57,0,0,1,.87.15,1.65,1.65,0,0,1,.66.45A1,1,0,0,1,872.65,1104.12Z"/><path class="cls-2" d="M880.13,1104.12a.91.91,0,0,1-.25.65.8.8,0,0,1-.62.27.66.66,0,0,1-.57-.23,3.27,3.27,0,0,1-.35-.78.75.75,0,0,0-.16-.31.38.38,0,0,0-.3-.12.39.39,0,0,0-.34.19,2,2,0,0,0-.21.5l-1.06,3.47h1.47l-.25.81H876l-1.53,5a29.2,29.2,0,0,1-1.1,3.07,5.43,5.43,0,0,1-1.38,1.93,3.24,3.24,0,0,1-2.25.8,2.29,2.29,0,0,1-1.5-.43,1.19,1.19,0,0,1-.53-1,1,1,0,0,1,.28-.71.94.94,0,0,1,.73-.3.75.75,0,0,1,.7.29,1.8,1.8,0,0,1,.21.74q.06.6.51.6a.85.85,0,0,0,.74-.5,7.4,7.4,0,0,0,.59-1.52l2.45-8h-1.55l.25-.81h1.55l.16-.56a14.27,14.27,0,0,1,.76-2.09,4.71,4.71,0,0,1,1.22-1.59,3.05,3.05,0,0,1,2-.69,2.57,2.57,0,0,1,.87.15,1.65,1.65,0,0,1,.66.45A1,1,0,0,1,880.13,1104.12Z"/><path class="cls-2" d="M887.62,1104.12a1,1,0,0,1-.25.65.83.83,0,0,1-.63.27.66.66,0,0,1-.57-.23,3.27,3.27,0,0,1-.35-.78.75.75,0,0,0-.16-.31.36.36,0,0,0-.29-.12.39.39,0,0,0-.35.19,2,2,0,0,0-.21.5l-1.06,3.47h1.48l-.26.81h-1.48l-1.53,5a32.07,32.07,0,0,1-1.09,3.07,5.69,5.69,0,0,1-1.38,1.93,3.28,3.28,0,0,1-2.25.8,2.32,2.32,0,0,1-1.51-.43,1.22,1.22,0,0,1-.53-1,1,1,0,0,1,.28-.71,1,1,0,0,1,.73-.3.74.74,0,0,1,.7.29,1.8,1.8,0,0,1,.21.74q.06.6.51.6a.85.85,0,0,0,.74-.5,7.4,7.4,0,0,0,.59-1.52l2.45-8h-1.55l.25-.81h1.55l.16-.56a14.27,14.27,0,0,1,.76-2.09,4.74,4.74,0,0,1,1.23-1.59,3,3,0,0,1,2-.69,2.49,2.49,0,0,1,.87.15,1.52,1.52,0,0,1,.66.45A1,1,0,0,1,887.62,1104.12Z"/><path class="cls-2" d="M895.1,1104.12a1,1,0,0,1-.25.65.83.83,0,0,1-.63.27.63.63,0,0,1-.56-.23,2.88,2.88,0,0,1-.36-.78.75.75,0,0,0-.16-.31.36.36,0,0,0-.29-.12.41.41,0,0,0-.35.19,2,2,0,0,0-.21.5l-1.06,3.47h1.48l-.26.81H891l-1.53,5a31.68,31.68,0,0,1-1.1,3.07,5.69,5.69,0,0,1-1.38,1.93,3.24,3.24,0,0,1-2.25.8,2.34,2.34,0,0,1-1.51-.43,1.22,1.22,0,0,1-.53-1,1,1,0,0,1,.28-.71,1,1,0,0,1,.73-.3.74.74,0,0,1,.7.29,1.8,1.8,0,0,1,.21.74q.06.6.51.6a.85.85,0,0,0,.74-.5,7.4,7.4,0,0,0,.59-1.52l2.45-8h-1.54l.24-.81h1.55l.17-.56a14.31,14.31,0,0,1,.75-2.09,4.88,4.88,0,0,1,1.23-1.59,3,3,0,0,1,2-.69,2.49,2.49,0,0,1,.87.15,1.52,1.52,0,0,1,.66.45A1,1,0,0,1,895.1,1104.12Z"/><path class="cls-2" d="M902.58,1104.12a.91.91,0,0,1-.25.65.83.83,0,0,1-.63.27.63.63,0,0,1-.56-.23,2.63,2.63,0,0,1-.35-.78.76.76,0,0,0-.17-.31.34.34,0,0,0-.29-.12.41.41,0,0,0-.35.19,1.68,1.68,0,0,0-.2.5l-1.07,3.47h1.48l-.26.81h-1.47l-1.53,5a31.68,31.68,0,0,1-1.1,3.07,5.69,5.69,0,0,1-1.38,1.93,3.24,3.24,0,0,1-2.25.8,2.34,2.34,0,0,1-1.51-.43,1.22,1.22,0,0,1-.53-1,1,1,0,0,1,.28-.71,1,1,0,0,1,.73-.3.74.74,0,0,1,.7.29,1.54,1.54,0,0,1,.21.74q.06.6.51.6a.85.85,0,0,0,.74-.5,6.86,6.86,0,0,0,.59-1.52l2.45-8h-1.54l.24-.81h1.55l.17-.56a15.59,15.59,0,0,1,.75-2.09,4.88,4.88,0,0,1,1.23-1.59,3,3,0,0,1,2-.69,2.49,2.49,0,0,1,.87.15,1.52,1.52,0,0,1,.66.45A1,1,0,0,1,902.58,1104.12Z"/><path class="cls-2" d="M856,1181.17h-2.77l-.72,3.41h-1.46l.72-3.41h-3.3l-.72,3.41h-1.46l.72-3.41h-1.58v-1.46h1.89l.59-2.87h-2.48v-1.45h2.79l.72-3.44h1.46l-.72,3.44H853l.72-3.44h1.46l-.72,3.44H856v1.45h-1.88l-.59,2.87H856Zm-3.33-4.33h-3.3l-.59,2.87h3.29Z"/><path class="cls-2" d="M864.78,1173.35a1,1,0,0,1-.25.65.83.83,0,0,1-.63.27.66.66,0,0,1-.57-.23,3.27,3.27,0,0,1-.35-.78.75.75,0,0,0-.16-.31.36.36,0,0,0-.29-.12.39.39,0,0,0-.35.19,2,2,0,0,0-.21.5l-1.06,3.47h1.48l-.26.81h-1.48l-1.52,5c-.41,1.3-.78,2.32-1.1,3.07a5.69,5.69,0,0,1-1.38,1.93,3.28,3.28,0,0,1-2.25.8,2.38,2.38,0,0,1-1.51-.42,1.25,1.25,0,0,1-.53-1,1,1,0,0,1,.28-.7.93.93,0,0,1,.73-.31.74.74,0,0,1,.7.29,1.85,1.85,0,0,1,.21.74q.06.6.51.6a.85.85,0,0,0,.74-.5,7.4,7.4,0,0,0,.59-1.52l2.45-8H857l.25-.81h1.55l.16-.56a14.27,14.27,0,0,1,.76-2.09,4.74,4.74,0,0,1,1.23-1.59,3,3,0,0,1,2-.69,2.49,2.49,0,0,1,.87.15,1.52,1.52,0,0,1,.66.45A1,1,0,0,1,864.78,1173.35Z"/><path class="cls-2" d="M870.74,1175.28a13.17,13.17,0,0,1-.32,2.49,16.27,16.27,0,0,1-1,3.07,7.73,7.73,0,0,1-1.76,2.57,3.57,3.57,0,0,1-2.55,1,2.1,2.1,0,0,1-2.06-1,4.52,4.52,0,0,1-.5-2.07,13.15,13.15,0,0,1,.49-3.09,14.12,14.12,0,0,1,1.47-3.61,6.48,6.48,0,0,1,.83-1.1,4.13,4.13,0,0,1,1.21-.89,3.58,3.58,0,0,1,1.65-.37,2.36,2.36,0,0,1,1.34.34,2.16,2.16,0,0,1,.77.85,2.8,2.8,0,0,1,.33.94A5.91,5.91,0,0,1,870.74,1175.28Zm-1.65-1.21a1,1,0,0,0-.23-.69.78.78,0,0,0-.65-.28,1.31,1.31,0,0,0-1,.48,3.22,3.22,0,0,0-.61.91,24.45,24.45,0,0,0-1,2.65c-.39,1.2-.73,2.32-1,3.38a10.17,10.17,0,0,0-.43,2.09,1.76,1.76,0,0,0,.19.71.76.76,0,0,0,.79.4q1,0,1.62-1.56c.15-.39.37-1,.66-1.87s.54-1.71.8-2.57.47-1.62.64-2.3A7,7,0,0,0,869.09,1174.07Z"/><path class="cls-2" d="M879,1178.19a1.94,1.94,0,0,1-.22.83,3.4,3.4,0,0,1-.8,1,5.28,5.28,0,0,1-1.67.93,10.8,10.8,0,0,1-2.73.56l-.21,0a3.07,3.07,0,0,0-.07.65,1.2,1.2,0,0,0,.31.93,1.29,1.29,0,0,0,.91.29A3.36,3.36,0,0,0,877,1182H878a6.61,6.61,0,0,1-1.65,1.66,4.35,4.35,0,0,1-2.63.81,2.93,2.93,0,0,1-1.81-.56,2,2,0,0,1-.75-1.67,5,5,0,0,1,.75-2.61,5.94,5.94,0,0,1,2-2.07,5.26,5.26,0,0,1,2.81-.79,2.83,2.83,0,0,1,1.75.41A1.28,1.28,0,0,1,879,1178.19Zm-1.85,0a.79.79,0,0,0-.21-.53.68.68,0,0,0-.55-.24,1.74,1.74,0,0,0-1.13.42,4.23,4.23,0,0,0-.87,1,7.51,7.51,0,0,0-.57,1.18c-.15.39-.24.64-.28.73a5.85,5.85,0,0,0,2.7-1A2,2,0,0,0,877.13,1178.16Z"/><path class="cls-2" d="M889,1173.75a.77.77,0,0,1-.18.52.63.63,0,0,1-.51.2.7.7,0,0,1-.42-.13,1.84,1.84,0,0,1-.44-.49,2.85,2.85,0,0,0-.48-.6.69.69,0,0,0-.47-.14,1.7,1.7,0,0,0-1.24.79,13.56,13.56,0,0,0-1.48,2.69,3.46,3.46,0,0,1,1.32-.3,2.25,2.25,0,0,1,1,.2,2.14,2.14,0,0,1,.76.58,2.73,2.73,0,0,1,.49.87,3.48,3.48,0,0,1,.17,1.1,6.24,6.24,0,0,1-1.18,3.57,4.6,4.6,0,0,1-1.47,1.34,4,4,0,0,1-2,.51,2.28,2.28,0,0,1-2.3-1.51,3.62,3.62,0,0,1-.25-1.34,10.61,10.61,0,0,1,.38-2.33,13.87,13.87,0,0,1,1.22-3.18,9,9,0,0,1,2-2.66,4.49,4.49,0,0,1,3.12-1.08,2.1,2.1,0,0,1,1.58.46A1.43,1.43,0,0,1,889,1173.75Zm-3.24,4.22a1.12,1.12,0,0,0-.24-.66.92.92,0,0,0-.78-.32,1.28,1.28,0,0,0-1,.49,5.16,5.16,0,0,0-.8,1.45,12.38,12.38,0,0,0-1,3.64,1.26,1.26,0,0,0,.26.84.89.89,0,0,0,.72.3,1.18,1.18,0,0,0,.89-.35,2,2,0,0,0,.44-.58c.11-.22.29-.67.55-1.34s.49-1.35.71-2A5.9,5.9,0,0,0,885.75,1178Z"/><path class="cls-2" d="M896.43,1178.19a2.1,2.1,0,0,1-.22.83,3.29,3.29,0,0,1-.81,1,5.17,5.17,0,0,1-1.67.93,10.62,10.62,0,0,1-2.73.56l-.21,0a3.9,3.9,0,0,0-.07.65,1.24,1.24,0,0,0,.31.93,1.31,1.31,0,0,0,.91.29,3.4,3.4,0,0,0,2.53-1.43h.93a7,7,0,0,1-1.65,1.66,4.35,4.35,0,0,1-2.63.81,2.89,2.89,0,0,1-1.81-.56,2,2,0,0,1-.75-1.67,5,5,0,0,1,.75-2.61,5.78,5.78,0,0,1,2-2.07,5.23,5.23,0,0,1,2.81-.79,2.82,2.82,0,0,1,1.74.41A1.27,1.27,0,0,1,896.43,1178.19Zm-1.86,0a.83.83,0,0,0-.2-.53.69.69,0,0,0-.55-.24,1.74,1.74,0,0,0-1.13.42,3.82,3.82,0,0,0-.87,1,7.57,7.57,0,0,0-.58,1.18c-.14.39-.24.64-.27.73a5.8,5.8,0,0,0,2.69-1A2,2,0,0,0,894.57,1178.16Z"/><path class="cls-2" d="M906.44,1173.75a.77.77,0,0,1-.18.52.66.66,0,0,1-.51.2.68.68,0,0,1-.42-.13,1.68,1.68,0,0,1-.44-.49,2.85,2.85,0,0,0-.48-.6.74.74,0,0,0-.48-.14,1.71,1.71,0,0,0-1.24.79,13.64,13.64,0,0,0-1.47,2.69,3.46,3.46,0,0,1,1.31-.3,2.23,2.23,0,0,1,1.74.78,2.53,2.53,0,0,1,.48.87,3.21,3.21,0,0,1,.17,1.1,5.83,5.83,0,0,1-.29,1.8,6.1,6.1,0,0,1-.88,1.77,4.64,4.64,0,0,1-1.48,1.34,3.93,3.93,0,0,1-2,.51A2.28,2.28,0,0,1,898,1183a3.62,3.62,0,0,1-.25-1.34,10.47,10.47,0,0,1,.37-2.33,14.4,14.4,0,0,1,1.23-3.18,9.19,9.19,0,0,1,2-2.66,4.49,4.49,0,0,1,3.12-1.08,2.07,2.07,0,0,1,1.58.46A1.4,1.4,0,0,1,906.44,1173.75Zm-3.25,4.22a1.17,1.17,0,0,0-.23-.66.93.93,0,0,0-.79-.32,1.31,1.31,0,0,0-1,.49,5.17,5.17,0,0,0-.79,1.45,12.06,12.06,0,0,0-1,3.64,1.26,1.26,0,0,0,.25.84.89.89,0,0,0,.72.3,1.19,1.19,0,0,0,.9-.35,2,2,0,0,0,.43-.58c.11-.22.3-.67.56-1.34s.49-1.35.7-2A5.44,5.44,0,0,0,903.19,1178Z"/><path class="cls-5" d="M921.26,181.47v4.43c0,2.22-1,3.87-3.19,3.87a2.87,2.87,0,0,1-2.81-2.19h0a3.06,3.06,0,0,1-3.17,2.75c-2.28,0-3.54-2-3.54-4.48v-4.38ZM910,183.2v2.54c0,1,.36,2.76,2.16,2.76,1.51,0,2.27-1.07,2.27-2.74V183.2Zm5.94,0v2.36c0,1.31.52,2.38,1.91,2.38a1.81,1.81,0,0,0,1.87-2V183.2Z"/><path class="cls-5" d="M917,192.4V194h-1.31v0a2.9,2.9,0,0,1,1.53,2.56,2.36,2.36,0,0,1-.11.72l-1.75-.07a2.83,2.83,0,0,0,.13-.79c0-1.59-.86-2.45-2.74-2.45h-4.28V192.4Z"/><path class="cls-5" d="M916,199.09a5.07,5.07,0,0,1,1.26,3.39c0,2.52-1.37,3.56-2.85,3.56h-4.35a11.82,11.82,0,0,0-1.55.08v-1.44q.65-.06,1.29-.06v0a3.27,3.27,0,0,1-1.51-3c0-1.59.9-3,2.56-3,2.19,0,2.95,2.11,2.95,4.7v1.19h.36a1.84,1.84,0,0,0,1.8-2,3.54,3.54,0,0,0-1-2.43Zm-3.39,4.58c0-1.53-.27-3.41-1.64-3.41-1,0-1.38.72-1.38,1.84a2.3,2.3,0,0,0,2.48,2.43h.54Z"/><path class="cls-5" d="M917,208.4V210h-1.31v0a3,3,0,0,1,1.53,2.81A2.94,2.94,0,0,1,914,216h-5.49v-1.62h5c1.6,0,2.2-.92,2.2-1.94,0-1.35-.87-2.38-2.85-2.38h-4.39V208.4Z"/><path class="cls-5" d="M908.51,227v-1.62h1.22v0a3.63,3.63,0,0,1-1.44-3,4.49,4.49,0,0,1,9,0,3.56,3.56,0,0,1-1.44,3v0h6.3V227Zm4.27-1.62a2.81,2.81,0,1,0-3-2.81A2.74,2.74,0,0,0,912.78,225.34Z"/><path class="cls-5" d="M917,229.53v1.62h-8.53v-1.62Zm4.25.81a1.19,1.19,0,1,1-1.19-1.19A1.2,1.2,0,0,1,921.29,230.34Z"/><path class="cls-5" d="M917,233.73v1.62h-1.31v0a3,3,0,0,1,1.53,2.81,3,3,0,0,1-3.26,3.1h-5.49v-1.62h5c1.6,0,2.2-.92,2.2-1.95,0-1.35-.87-2.37-2.85-2.37h-4.39v-1.62Z"/><path class="cls-5" d="M908.58,252.29a4.32,4.32,0,0,1-4.39-4.67,5.72,5.72,0,0,1,1.53-4.17l1.37,1.09a4,4,0,0,0-1.39,3.05c0,2.41,1.51,3.08,2.95,3.08h1.26v-.06a3.37,3.37,0,0,1-1.51-3,4.43,4.43,0,0,1,8.86,0,3.64,3.64,0,0,1-1.44,3v0H917v1.62Zm4.2-7.24a2.81,2.81,0,1,0,0,5.62,2.81,2.81,0,1,0,0-5.62Z"/><path class="cls-2" d="M970.92,1874.63H908.81c-343.85,0-463-326.43-812.89-362.08V1379.3h875v495.33Z"/><g id="Logo"><path class="cls-5" d="M255.75,565.79a73.84,73.84,0,1,1,73.83,73.83,73.83,73.83,0,0,1-73.83-73.83m2.53,0a71.31,71.31,0,1,0,20.89-50.42,71.05,71.05,0,0,0-20.89,50.42"/><path class="cls-5" d="M276,565.92a53.71,53.71,0,1,1,53.71,53.7A53.71,53.71,0,0,1,276,565.92m2,0a51.69,51.69,0,1,0,15.14-36.55A51.52,51.52,0,0,0,278,565.92"/><path class="cls-5" d="M276.19,589.45a6.14,6.14,0,0,1-7.89,3,5.69,5.69,0,0,1-3-3.27,5.62,5.62,0,0,1,3.27-7.49,5.79,5.79,0,0,1,4.53,0,5.6,5.6,0,0,1,3.08,3.32,5.69,5.69,0,0,1,0,4.42m-7.4,1.14a11.06,11.06,0,0,0,3-.76,8,8,0,0,0,3.4-2.15,2.37,2.37,0,0,0,.48-2.45c-.45-1.16-1.44-1.69-3-1.59a10.81,10.81,0,0,0-3,.76,11,11,0,0,0-2.75,1.45c-1.19.95-1.57,2-1.13,3.16s1.43,1.67,3,1.58"/><path class="cls-5" d="M268.85,595.66a2.72,2.72,0,0,0,.67.77,1,1,0,0,0,1.06-.09l6.87-4a1,1,0,0,0,.6-.87,2.6,2.6,0,0,0-.33-1l.36-.2,4.65,8L279.86,600l-.19-.35a3.69,3.69,0,0,0,1.34-2,4.24,4.24,0,0,0-.8-2.61c-.24-.41-.44-.65-.6-.71a.77.77,0,0,0-.63.14l-3.28,1.89c.43.78.89,1.21,1.38,1.28a4.22,4.22,0,0,0,2-.32l.21.36-4.8,2.77-.21-.36a3.72,3.72,0,0,0,1.34-1.55,2.23,2.23,0,0,0-.39-1.89l-3.3,1.91c-.44.25-.64.54-.61.86a3.26,3.26,0,0,0,.51,1.27l-.36.21-2.94-5.11Z"/><path class="cls-5" d="M279.91,606.54l.32.35a5,5,0,0,0-1.14,2.72,2.74,2.74,0,0,0,.72,2,1.86,1.86,0,0,0,1.47.78,1.9,1.9,0,0,0,1.2-.47,1.6,1.6,0,0,0,.57-1.16,5.91,5.91,0,0,0-.27-1.49l-.31-1.13a7,7,0,0,1-.32-2.67,2.9,2.9,0,0,1,1-1.74,3.43,3.43,0,0,1,2.23-.87,3.12,3.12,0,0,1,2.51,1.23,5.55,5.55,0,0,1,.95,1.46,6.58,6.58,0,0,0,.43.89.38.38,0,0,0,.36.16,1,1,0,0,0,.42-.15l.32.36-2.65,2.39-.3-.34a4.94,4.94,0,0,0,.83-2.26,2.53,2.53,0,0,0-.65-2.06,1.75,1.75,0,0,0-1.2-.66,1.47,1.47,0,0,0-1.13.39,1.42,1.42,0,0,0-.57,1.1,10.64,10.64,0,0,0,.46,2.22l.35,1.31a4.74,4.74,0,0,1,.19,1.56,3.12,3.12,0,0,1-1.08,2.18,3.54,3.54,0,0,1-2.38.85,3.91,3.91,0,0,1-2.88-1.56,6,6,0,0,1-.6-.8,6.54,6.54,0,0,1-.45-.92l-.12-.31a1.86,1.86,0,0,0-.1-.2.56.56,0,0,0-.1-.14.38.38,0,0,0-.35-.16,1.36,1.36,0,0,0-.41.16l-.32-.35Z"/><path class="cls-5" d="M283,615.4a1.22,1.22,0,0,0,1.08.16,7.06,7.06,0,0,0,1.37-.67l8.39-4.83.36.28-2.42,9a11.17,11.17,0,0,0-.42,2,1,1,0,0,0,.43.85l-.26.33-4.17-3.27.25-.33a3.86,3.86,0,0,0,.91.54c.18.05.35,0,.52-.26a1.93,1.93,0,0,0,.26-.54c.06-.15.11-.34.18-.57l.28-1-2.9-2.26-1.15.71a4,4,0,0,0-.74.59.58.58,0,0,0,.06.7,3.34,3.34,0,0,0,.6.59l-.25.33-2.64-2.06Zm7,1.07,1.1-4-.11-.08-3.51,2.08Z"/><path class="cls-5" d="M292.53,622.84a1.63,1.63,0,0,0,1.2.25,1.51,1.51,0,0,0,.69-.72l3.64-6.86c-.18-.72-.3-1.16-.36-1.3a.86.86,0,0,0-.33-.39l.19-.37,3.07,1.63,1.76,8.69.07,0,2.26-4.26a1.78,1.78,0,0,0,.28-1.19,1.66,1.66,0,0,0-.86-.94l.19-.37,3.11,1.65-.19.37a2.36,2.36,0,0,0-1.07-.18c-.22.05-.45.29-.68.73L301,628.14l-.41-.21-2.25-11.12-.1,0-3,5.67a2.15,2.15,0,0,0-.32,1c0,.4.35.77.94,1.12l-.2.36-3.28-1.74Z"/><path class="cls-5" d="M310.13,631a2.34,2.34,0,0,0,1,0,1,1,0,0,0,.64-.84l1.65-7.76a1,1,0,0,0-.23-1,3.14,3.14,0,0,0-.95-.41l.08-.4,9.1,1.93-.7,3.23-.39-.08a3.69,3.69,0,0,0-.55-2.31,4.26,4.26,0,0,0-2.48-1.15,1.59,1.59,0,0,0-.92,0,.78.78,0,0,0-.32.56l-.79,3.71a2.14,2.14,0,0,0,1.87-.18,4.14,4.14,0,0,0,1.08-1.67l.41.08-1.15,5.42-.41-.09a3.86,3.86,0,0,0-.25-2,2.32,2.32,0,0,0-1.67-1l-.8,3.73c-.09.5,0,.85.24,1a3.1,3.1,0,0,0,1.29.46l-.09.41L310,631.37Z"/><path class="cls-5" d="M322.2,633.23a1.93,1.93,0,0,0,1.15-.29,1.66,1.66,0,0,0,.32-1.18l.13-7.25a1.64,1.64,0,0,0-.34-1.24,2.35,2.35,0,0,0-1.08-.28v-.42l5.27.1a8.27,8.27,0,0,1,2.65.38,2.55,2.55,0,0,1,1.93,2.54,2.49,2.49,0,0,1-1.07,2.09,4,4,0,0,1-1.68.7l3.4,4.73a.74.74,0,0,0,.28.26,1.2,1.2,0,0,0,.38.08v.39l-3.42-.06-3.73-5.18h0l-.05,3.2a1.77,1.77,0,0,0,.26,1.17,1.72,1.72,0,0,0,1.15.35v.42l-5.54-.1Zm6.5-5.58c.46-.27.71-.93.73-2a3.69,3.69,0,0,0-.24-1.51,1.69,1.69,0,0,0-1.64-1,1.55,1.55,0,0,0-.87.15.68.68,0,0,0-.22.54l-.06,4.17a4.66,4.66,0,0,0,2.3-.42"/><path class="cls-5" d="M334.67,633.37a1.22,1.22,0,0,0,.86-.67,8,8,0,0,0,.44-1.47l2.19-9.43.45-.07,5,7.93a12.9,12.9,0,0,0,1.2,1.71,1,1,0,0,0,.92.26l.06.41-5.24.83-.06-.41a3.89,3.89,0,0,0,1-.3c.16-.1.21-.28.17-.56a2,2,0,0,0-.22-.56c-.07-.14-.18-.31-.3-.52l-.57-.91-3.63.57c-.13.68-.22,1.13-.26,1.33a3.53,3.53,0,0,0-.07.94c0,.24.22.38.55.44a3.84,3.84,0,0,0,.85,0l.06.41-3.31.52Zm5.54-4.36-2.15-3.5-.14,0-.86,4Z"/><path class="cls-5" d="M346.91,631.31c.57-.21.9-.45,1-.71a1.51,1.51,0,0,0-.06-1l-2.53-7.34a11.79,11.79,0,0,0-1.2-.63.82.82,0,0,0-.52,0l-.13-.4,3.28-1.13,7.56,4.64.07,0-1.56-4.55a1.89,1.89,0,0,0-.68-1,1.75,1.75,0,0,0-1.28,0l-.13-.4,3.32-1.14.14.39a2.54,2.54,0,0,0-.87.66,1.3,1.3,0,0,0,.07,1l3.15,9.13-.43.16L346.44,623l-.11,0,2.09,6.08a2.08,2.08,0,0,0,.55.94,1.56,1.56,0,0,0,1.45.08l.13.39-3.5,1.21Z"/><path class="cls-5" d="M361,613.64a8.12,8.12,0,0,0,1.2-.26.56.56,0,0,0,.31-.45,1.16,1.16,0,0,0,0-.56l.39-.23,1.92,3.32-.36.21a9,9,0,0,0-2-1.1,3.38,3.38,0,0,0-2.92.15,2.39,2.39,0,0,0-1.31,2.4,8.72,8.72,0,0,0,1.31,3.65,8.54,8.54,0,0,0,1.79,2.3,2.82,2.82,0,0,0,3.51.43,4.19,4.19,0,0,0,1.68-1.78,8.74,8.74,0,0,0,.63-1.87l.61.11a8.81,8.81,0,0,1-.68,2.18,5.12,5.12,0,0,1-2.06,2.19,5.92,5.92,0,0,1-4.25.78,5.38,5.38,0,0,1-3.71-2.8,5.73,5.73,0,0,1-.66-4.62,5.57,5.57,0,0,1,2.68-3.34,5.9,5.9,0,0,1,2-.71"/><path class="cls-5" d="M370.85,619.31a2.53,2.53,0,0,0,.66-.77,1,1,0,0,0-.25-1.08l-5.1-6.08a1,1,0,0,0-1-.43,2.68,2.68,0,0,0-.9.51l-.27-.32,4.39-3.68.27.32a3.19,3.19,0,0,0-.7.81,1,1,0,0,0,.26,1.06l5.1,6.08a1,1,0,0,0,.89.46,2.41,2.41,0,0,0,1-.56l.27.32-4.39,3.68Z"/><path class="cls-5" d="M374.78,611.38l.31-.35a5.19,5.19,0,0,0,2.85.8,2.82,2.82,0,0,0,1.93-1,1.84,1.84,0,0,0,.59-1.55,1.92,1.92,0,0,0-.6-1.14,1.59,1.59,0,0,0-1.22-.42,5.86,5.86,0,0,0-1.45.46l-1.08.44a7,7,0,0,1-2.61.63,2.86,2.86,0,0,1-1.86-.76,3.5,3.5,0,0,1-1.13-2.11,3.13,3.13,0,0,1,.91-2.64,5.46,5.46,0,0,1,1.33-1.12,5.58,5.58,0,0,0,.83-.54.38.38,0,0,0,.12-.38,1.16,1.16,0,0,0-.19-.39l.31-.37,2.7,2.34-.3.34a5.09,5.09,0,0,0-2.35-.55,2.57,2.57,0,0,0-2,.9,1.77,1.77,0,0,0-.5,1.27,1.44,1.44,0,0,0,.52,1.08,1.47,1.47,0,0,0,1.16.43,10.5,10.5,0,0,0,2.15-.72l1.26-.51a4.51,4.51,0,0,1,1.52-.38,3.13,3.13,0,0,1,2.3.8,3.53,3.53,0,0,1,1.13,2.26,3.91,3.91,0,0,1-1.2,3,4.23,4.23,0,0,1-.72.68,4.86,4.86,0,0,1-.85.57l-.31.16-.17.12a.77.77,0,0,0-.13.12.4.4,0,0,0-.12.36,2.25,2.25,0,0,0,.21.4l-.31.36Z"/><path class="cls-5" d="M379.1,593.66a9.62,9.62,0,0,0,.91-.82.63.63,0,0,0,.05-.55,1.14,1.14,0,0,0-.33-.46l.24-.4,3.31,1.92-.2.36a8.53,8.53,0,0,0-2.31.06,3.41,3.41,0,0,0-2.46,1.59,2.41,2.41,0,0,0,.07,2.74,10.72,10.72,0,0,0,5.67,3.6,2.83,2.83,0,0,0,3.25-1.38,4.28,4.28,0,0,0,.57-2.39,10.13,10.13,0,0,0-.4-1.92l.59-.23a9.06,9.06,0,0,1,.5,2.24,5.16,5.16,0,0,1-.7,2.93,5.87,5.87,0,0,1-3.27,2.79,5.42,5.42,0,0,1-4.63-.57,5.72,5.72,0,0,1-2.88-3.66,5.66,5.66,0,0,1,.65-4.25,6,6,0,0,1,1.37-1.6"/><path class="cls-5" d="M385.39,582A5.91,5.91,0,1,1,386,592.8a5.78,5.78,0,0,1-3.42-3,6.12,6.12,0,0,1,2.77-7.86m6.33,4a10.67,10.67,0,0,0-2.78-1.4,7.86,7.86,0,0,0-4-.62,2.4,2.4,0,0,0-2,1.54c-.42,1.16,0,2.21,1.22,3.15A10.83,10.83,0,0,0,387,590a10.52,10.52,0,0,0,3,.7,2.56,2.56,0,0,0,1.74-4.76"/><path class="cls-5" d="M274.73,525.9a8.81,8.81,0,0,0,.95-.78.64.64,0,0,0,.07-.55,1.24,1.24,0,0,0-.31-.47l.24-.39,3.25,2-.22.35a8.9,8.9,0,0,0-2.31,0,3.33,3.33,0,0,0-2.5,1.5,2.39,2.39,0,0,0,0,2.74,10.67,10.67,0,0,0,5.54,3.79,2.82,2.82,0,0,0,3.3-1.27,4.22,4.22,0,0,0,.65-2.36,8.68,8.68,0,0,0-.33-1.94l.6-.2a9.41,9.41,0,0,1,.42,2.25,5,5,0,0,1-.8,2.9,6,6,0,0,1-3.38,2.69,5.45,5.45,0,0,1-4.6-.74,5.76,5.76,0,0,1-2.75-3.76,5.59,5.59,0,0,1,.81-4.22,6.28,6.28,0,0,1,1.41-1.56"/><path class="cls-5" d="M285.94,528.64a2.32,2.32,0,0,0,.56-.85,1,1,0,0,0-.38-1l-5.81-5.41a1,1,0,0,0-1-.32,2.63,2.63,0,0,0-.84.62l-.3-.28,3.9-4.19.3.29a2.91,2.91,0,0,0-.58.89,1,1,0,0,0,.38,1l5.81,5.41a1,1,0,0,0,.93.34,2.28,2.28,0,0,0,1-.68l.3.29-3.91,4.18Z"/><path class="cls-5" d="M283.72,515.68l7.78-6.07,2.05,2.59-.37.3a3,3,0,0,0-2.53-1.08,3.94,3.94,0,0,0-1.67.84l5.31,6.8c.36.48.7.73,1,.75a2,2,0,0,0,1.22-.57l.26.32-4.61,3.6-.25-.33c.5-.39.78-.73.82-1a1.63,1.63,0,0,0-.49-1.14l-5.31-6.8a4.28,4.28,0,0,0-1.22,1.43,2.8,2.8,0,0,0,.43,2.71l-.37.29Z"/><path class="cls-5" d="M297.59,506.23l.19.38a4.58,4.58,0,0,0-.91.61.31.31,0,0,0-.06.4,1.3,1.3,0,0,0,.15.2,4.06,4.06,0,0,0,.4.33l3.71,2.52h0l.25-3.37a5.55,5.55,0,0,0,0-.73,2.37,2.37,0,0,0-.14-.9.56.56,0,0,0-.57-.36,3.81,3.81,0,0,0-1,.33l-.19-.37,3.21-1.63.19.37a2.68,2.68,0,0,0-.48.43,1.24,1.24,0,0,0-.24.64l-.47,6,1.37,2.69c.28.55.56.86.83.93a2.08,2.08,0,0,0,1.2-.29l.18.38-5,2.57L300,517a1.87,1.87,0,0,0,.94-.83,1.64,1.64,0,0,0-.27-1.19l-1.09-2.14-5.13-3.49a1.76,1.76,0,0,0-1-.34,1.42,1.42,0,0,0-.59.13l-.19-.37Z"/><path class="cls-5" d="M318.6,499.33a8.41,8.41,0,0,0,1.23.13.61.61,0,0,0,.44-.34,1.18,1.18,0,0,0,.12-.54l.44-.09.81,3.74-.42.09a8.59,8.59,0,0,0-1.58-1.67,3.4,3.4,0,0,0-2.83-.76,2.4,2.4,0,0,0-2,1.87,8.93,8.93,0,0,0,.12,3.88,8.73,8.73,0,0,0,1,2.75,2.82,2.82,0,0,0,3.2,1.49,4.2,4.2,0,0,0,2.15-1.18,8.83,8.83,0,0,0,1.17-1.58l.56.29a8.92,8.92,0,0,1-1.33,1.87,5,5,0,0,1-2.64,1.43,6,6,0,0,1-4.28-.56,5.4,5.4,0,0,1-2.66-3.81,5.69,5.69,0,0,1,.8-4.6,5.57,5.57,0,0,1,3.59-2.35,6.12,6.12,0,0,1,2.1-.06"/><path class="cls-5" d="M333.59,499.56a5.91,5.91,0,1,1-9.87,4.48,5.79,5.79,0,0,1,1.55-4.26,5.58,5.58,0,0,1,4.17-1.75,5.66,5.66,0,0,1,4.15,1.53m-1.46,7.33a11.09,11.09,0,0,0,.32-3.09,8,8,0,0,0-.86-3.93,2.39,2.39,0,0,0-2.15-1.29c-1.23,0-2.07.78-2.5,2.26a13.15,13.15,0,0,0,.11,6.15,2.61,2.61,0,0,0,2.59,2.13c1.22,0,2.05-.76,2.49-2.23"/><path class="cls-5" d="M335.8,509.07a2.4,2.4,0,0,0,1,0,1,1,0,0,0,.67-.87l1.51-7.79a1,1,0,0,0-.27-1,2.5,2.5,0,0,0-.93-.37l.08-.42,5.62,1.1-.08.41a2.49,2.49,0,0,0-1.35,0c-.25.12-.44.49-.56,1.13l-1.48,7.6a.79.79,0,0,0,.14.76,2.25,2.25,0,0,0,1.06.39,4.44,4.44,0,0,0,2.56-.17,5.1,5.1,0,0,0,2.18-2.16l.47.09L345,511.29l-9.31-1.81Z"/><path class="cls-5" d="M346.61,511.28a2.32,2.32,0,0,0,1,.2,1,1,0,0,0,.81-.72l3-7.36a1,1,0,0,0-.07-1.07,2.57,2.57,0,0,0-.85-.54l.16-.39,5.31,2.15-.15.38a2.69,2.69,0,0,0-1.34-.24c-.26.07-.52.41-.77,1l-2.9,7.18a.79.79,0,0,0,0,.77,2.36,2.36,0,0,0,1,.58,4.49,4.49,0,0,0,2.55.33,5.09,5.09,0,0,0,2.55-1.71l.45.18-2,3.19-8.79-3.55Z"/><path class="cls-5" d="M356.49,515.86l.23-.34a2.25,2.25,0,0,0,.94.38,1,1,0,0,0,.9-.56l4.33-6.66a1,1,0,0,0,.12-1.06,2.79,2.79,0,0,0-.72-.7l.23-.34,7.92,5.14-1.8,2.77-.34-.22a3.58,3.58,0,0,0,.3-2.39,4.76,4.76,0,0,0-2-2,1.91,1.91,0,0,0-.89-.39.78.78,0,0,0-.51.41l-2.06,3.18a2.54,2.54,0,0,0,1.86.61,3.94,3.94,0,0,0,1.69-1.19l.34.22-3,4.65-.35-.23a3.55,3.55,0,0,0,.47-2,2.6,2.6,0,0,0-1.31-1.54l-2.17,3.33a.8.8,0,0,0-.15.74,2.2,2.2,0,0,0,.81.76,4.85,4.85,0,0,0,2.48.88,5,5,0,0,0,2.72-1l.38.25-2.41,2.5Z"/><path class="cls-5" d="M373.69,516.22a5.51,5.51,0,0,1,4.1,1.87,5.6,5.6,0,0,1,1.1,1.74,5.24,5.24,0,0,0,.58,1.18.55.55,0,0,0,.42.19,1.48,1.48,0,0,0,.59-.19l.31.33L378,524l-.28-.31a8.47,8.47,0,0,0,.61-2.23,3.35,3.35,0,0,0-.81-2.81,2.42,2.42,0,0,0-2.57-.75A8.34,8.34,0,0,0,371.6,520a9.5,9.5,0,0,0-2.21,3,2.59,2.59,0,0,0,.61,3,1.79,1.79,0,0,0,1.28.73,1.18,1.18,0,0,0,.7-.37l1.26-1.17a1,1,0,0,0,.4-1,3.35,3.35,0,0,0-.7-1l.31-.28,3.83,4.11-.31.28a1.55,1.55,0,0,0-1-.59,1.75,1.75,0,0,0-1,.59l-1.52,1.42a7,7,0,0,1-1.69-.83,10.12,10.12,0,0,1-2.1-1.76,5.68,5.68,0,0,1-1.72-4.36,5.61,5.61,0,0,1,1.91-3.86,5.73,5.73,0,0,1,4.09-1.66"/><path class="cls-5" d="M374.44,530.6l.35-.22a2.33,2.33,0,0,0,.69.75,1,1,0,0,0,1.06-.12l6.73-4.21a1,1,0,0,0,.56-.91,2.36,2.36,0,0,0-.35-.93l.35-.22,5,8-2.8,1.75-.21-.34a3.5,3.5,0,0,0,1.27-2,4.61,4.61,0,0,0-.95-2.62,1.72,1.72,0,0,0-.63-.72.77.77,0,0,0-.64.15l-3.21,2c.48.8,1,1.24,1.43,1.34a3.9,3.9,0,0,0,2-.37l.23.35-4.7,2.94-.23-.36a3.49,3.49,0,0,0,1.3-1.65,2.66,2.66,0,0,0-.54-1.95l-3.37,2.11q-.45.27-.45.6a2,2,0,0,0,.41,1,4.93,4.93,0,0,0,1.88,1.85,5,5,0,0,0,2.87.28l.23.39-3.24,1.25Z"/><polygon class="cls-5" points="288.96 542.14 289.75 542.54 289.19 543.63 293.09 545.63 292.59 546.61 288.69 544.61 288.13 545.7 287.36 545.3 288.96 542.14"/><polygon class="cls-5" points="292.64 540.23 290.87 539.09 291.47 538.17 295.88 541.02 295.29 541.94 293.32 540.67 292.63 541.73 294.6 543 294 543.92 289.59 541.07 290.18 540.15 291.95 541.29 292.64 540.23"/><polygon class="cls-5" points="296.55 540.12 292.45 536.84 294.24 534.6 294.87 535.1 293.76 536.48 294.78 537.29 295.8 536.02 296.43 536.52 295.41 537.8 296.61 538.76 297.75 537.33 298.38 537.83 296.55 540.12"/><polygon class="cls-5" points="298.83 529.91 299.44 530.54 298.55 531.38 301.58 534.56 300.78 535.31 297.75 532.14 296.87 532.99 296.27 532.35 298.83 529.91"/><path class="cls-5" d="M303.83,532.61l-.86.68-3.25-4.14,1.6-1.26a1.2,1.2,0,0,1,1.82.33,1.13,1.13,0,0,1,0,1.61v0a.92.92,0,0,1,1.38.22,7,7,0,0,0,1.06,1.14l-.85.67a2.31,2.31,0,0,1-.72-.74c-.39-.49-.67-.94-1.33-.42l-.23.17ZM302,530.26l.38-.3c.35-.27.17-.69,0-1s-.59-.41-.87-.2l-.38.3Z"/><path class="cls-5" d="M306.55,524.37l2,3.15a1.57,1.57,0,0,1-.66,2.32,1.55,1.55,0,0,1-2.38-.42l-2-3.15.93-.59,1.94,3.1c.35.55.72.62,1.06.41s.42-.65.11-1.14l-1.94-3.1Z"/><polygon class="cls-5" points="310.77 522.22 311.16 523 310.06 523.54 312 527.47 311.02 527.96 309.08 524.03 307.98 524.58 307.59 523.79 310.77 522.22"/><polygon class="cls-5" points="314.85 522.87 314.11 520.9 315.15 520.51 317 525.44 315.96 525.82 315.14 523.63 313.96 524.07 314.78 526.26 313.75 526.65 311.91 521.73 312.94 521.35 313.68 523.32 314.85 522.87"/><path class="cls-5" d="M321.21,524.42c-1.34.28-1.75-.45-1.89-1.35l1.08-.23c.1.49.22.9.81.77a.52.52,0,0,0,.41-.7c-.2-.92-2.37-.52-2.7-2-.17-.8.07-1.53,1.38-1.81,1.05-.22,1.67.14,1.83,1.23l-1.05.22c-.08-.38-.23-.76-.66-.67a.51.51,0,0,0-.44.67c.21,1,2.35.43,2.7,2,.28,1.33-.66,1.7-1.47,1.88"/><polygon class="cls-5" points="325.97 520.41 325.75 518.31 326.84 518.2 327.39 523.42 326.3 523.54 326.06 521.21 324.8 521.34 325.05 523.68 323.95 523.79 323.4 518.56 324.49 518.45 324.72 520.54 325.97 520.41"/><path class="cls-5" d="M328.12,523.36l1.49-5.25h1.45l1.4,5.27H331.3l-.28-1.17h-1.5l-.31,1.16Zm2.15-4.23h0l-.51,2.27h1.05Z"/><polygon class="cls-5" points="333.14 523.47 333.67 518.25 334.77 518.36 334.33 522.72 335.96 522.88 335.87 523.75 333.14 523.47"/><polygon class="cls-5" points="336.53 523.87 337.49 518.7 338.57 518.9 337.77 523.21 339.39 523.51 339.22 524.37 336.53 523.87"/><polygon class="cls-5" points="341.58 524.92 343.33 519.97 345.01 520.56 344.58 524.21 344.6 524.21 346.62 521.14 348.23 521.71 346.47 526.66 345.46 526.3 346.82 522.48 346.81 522.48 344.49 525.96 343.5 525.61 343.96 521.46 343.95 521.46 342.59 525.28 341.58 524.92"/><path class="cls-5" d="M347.07,527l3.68-4,1.29.66-1.11,5.33-1-.52.26-1.17-1.33-.68-.8.9Zm3.81-2.83h0l-1.48,1.8.93.47Z"/><polygon class="cls-5" points="356.33 526.15 357.34 526.8 354.83 527.98 354.49 531.21 353.45 530.54 353.86 527.6 353.85 527.59 352.38 529.85 351.46 529.25 354.32 524.84 355.24 525.43 354.01 527.33 354.03 527.33 356.33 526.15"/><polygon class="cls-5" points="355.02 531.64 358.3 527.52 360.54 529.31 360.04 529.94 358.66 528.84 357.85 529.86 359.12 530.87 358.62 531.5 357.34 530.49 356.39 531.69 357.82 532.83 357.31 533.46 355.02 531.64"/><polygon class="cls-5" points="361.25 534.71 362.81 531.34 363.63 532.21 362.56 534.31 364.75 533.39 365.53 534.2 362.02 535.5 360.69 536.76 359.94 535.96 361.25 534.71"/><path class="cls-5" d="M364.2,536.71c1.1-.85,2.16-1.65,3.26-.21s.05,2.25-1.06,3.09-2.16,1.66-3.26.21,0-2.25,1.06-3.09m1.52,2c1.07-.82,1.49-1.24,1.11-1.73s-.89-.2-1.95.62-1.49,1.23-1.12,1.72.89.21,2-.61"/><path class="cls-5" d="M371.24,542.39l-3.19,1.93a1.57,1.57,0,0,1-2.31-.7,1.54,1.54,0,0,1,.46-2.37l3.19-1.92.57.94-3.13,1.89c-.55.33-.63.7-.42,1s.63.44,1.13.14l3.13-1.89Z"/><polygon class="cls-5" points="367.99 547.63 372.82 545.56 373.9 548.07 373.15 548.39 372.51 546.89 371.27 547.42 371.88 548.85 371.14 549.17 370.53 547.74 368.42 548.64 367.99 547.63"/><path class="cls-5" d="M369.64,551.82l-.34-1.05,5-1.62.63,1.93a1.21,1.21,0,0,1-.93,1.6,1.14,1.14,0,0,1-1.53-.53h0a.94.94,0,0,1-.69,1.23,7.33,7.33,0,0,0-1.43.59l-.34-1a2.59,2.59,0,0,1,.94-.43c.59-.19,1.12-.3.86-1.11l-.09-.26Zm2.84-.92.15.46c.14.41.59.4.91.29.48-.15.59-.41.48-.74l-.15-.47Z"/><polygon class="cls-5" points="370.55 554.83 375.69 553.69 376.31 556.49 375.51 556.66 375.13 554.94 373.87 555.22 374.22 556.81 373.43 556.98 373.08 555.39 371.58 555.73 371.97 557.51 371.19 557.68 370.55 554.83"/><polygon class="cls-5" points="371.33 558.56 376.54 557.89 376.91 560.74 376.11 560.84 375.88 559.08 374.6 559.25 374.81 560.87 374 560.97 373.8 559.35 372.27 559.54 372.5 561.36 371.7 561.46 371.33 558.56"/><path class="cls-5" d="M348.88,548.23v-4.12h3.66v0H353v4.12Zm.91-.91h2.29V545h-2.29Z"/><path class="cls-5" d="M343.42,548.23v-4.12h3.65v0h.45v4.12Zm.9-.91h2.3V545h-2.3Z"/><path class="cls-5" d="M332.52,548.23v-4.12h3.66v0h.45v4.12Zm.9-.91h2.3V545h-2.3Z"/><path class="cls-5" d="M338,548.23v-4.12h3.66v0h.45v4.12Zm.91-.91h2.29V545h-2.29Z"/><path class="cls-5" d="M359.36,538.29H307.63l-12.18,17.87H281.29v4.73h1.42a49.25,49.25,0,0,0-.28,5.19A47.48,47.48,0,0,0,330,613.61h0A46.86,46.86,0,0,0,357.36,605l.24-.17V543h1.76Zm-72.05,46,18.84-27.6h44.79v1.33H307.32L290,583.39l.13.29A43.38,43.38,0,0,0,304,601l.16.11,30.09,0v1.7H301.69a46.71,46.71,0,0,1-14.38-18.54m44.18-33.23v1.47h-1v.57h0v-.57H312.6v.57h0v-.57h-1.15V551.1ZM313.84,550a8.38,8.38,0,0,1,15.46,0Zm-.68,3.75h16.73v1.88H313.16Zm35.28,54.68h-7.51v-2.68H338v-2.84h-2.68V600h-2.82v-2.85h-1.61v-32.6h1.71v-3.76h-22.3v3.76H312v32.6h-1.74V600h-5.8a42.08,42.08,0,0,1-13.19-16.49l16.63-24.31h40.52Zm-40.63-1.55h32v1.55H310.92c-1.06-.47-2.1-1-3.11-1.55M336.88,604v1.7H305.83c-.88-.54-1.74-1.11-2.58-1.7Zm-9.49-39.43h2.39v32.6h-2.39Zm-8.2,32.6h-2.5v-32.6h2.5Zm1.14-32.6h2.39v32.6h-2.39Zm3.53,0h2.39v32.6h-2.39ZM311.45,562h20v1.48h-20Zm4.1,35.22h-2.39v-32.6h2.39Zm15.83,1.14V600l-20,0v-1.69ZM330,612.48a46.24,46.24,0,0,1-16.28-3h32.66a46.4,46.4,0,0,1-16.38,3m26.5-8.28a45.77,45.77,0,0,1-6.89,4v-49h2.5v-3.61H331v-1.88h1.59V550h-2.1a9.51,9.51,0,0,0-17.89,0h-2.31v3.75H312v1.88h-6.47l-18.77,27.49a46.38,46.38,0,0,1-3.21-17,49.23,49.23,0,0,1,.29-5.19h13.77L310.05,543h46.42Zm1.76-62.38H309.45L297,559.75H282.42V557.3h13.63l12.17-17.87h50Z"/></g><path class="cls-3" d="M387.67,211.05H122.77s25.45-44.71,70-44.71H457.67S432.22,211.05,387.67,211.05Z"/><path class="cls-3" d="M477.12,300.48h-427s25.45-44.71,70-44.71h427S521.67,300.48,477.12,300.48Z"/><path class="cls-4" d="M972.85,344.41h-415s25.45,44.72,70,44.72H925.42S1017.4,344.41,972.85,344.41Z"/><path class="cls-3" d="M20.07,389.13H574.13s-25.45-44.72-70-44.72H20.07Z"/><path class="cls-3" d="M389.28,121.54H215.55s25.44-44.71,70-44.71H459.28S433.83,121.54,389.28,121.54Z"/><path class="cls-5" d="M557.57,389.13h147.5s-25.44-44.72-70-44.72H487.58S513,389.13,557.57,389.13Z"/><path class="cls-1" d="M425.07,344.41h62.51s-25.44-44.71-70-44.71H355.08S380.52,344.41,425.07,344.41Z"/><path class="cls-1" d="M360.07,255.77h97s-25.45-44.72-70-44.72h-97S315.53,255.77,360.07,255.77Z"/><path class="cls-1" d="M320.07,166.26H469.24s-25.45-44.71-70-44.71H250.08S275.52,166.26,320.07,166.26Z"/><path class="cls-4" d="M585.62,166.34H498.48s25.45,44.71,70,44.71h87.13S630.16,166.34,585.62,166.34Z"/><path class="cls-4" d="M662.56,255.77H478.15s25.45,44.71,70,44.71H732.56S707.11,255.77,662.56,255.77Z"/><path class="cls-4" d="M820.65,433.06H636.23s25.45,44.72,70,44.72H890.64S865.19,433.06,820.65,433.06Z"/><path class="cls-4" d="M799.29,522.49H691.76s25.45,44.71,70,44.71H869.28S843.84,522.49,799.29,522.49Z"/><path class="cls-4" d="M502.7,76.83h-115s25.44,44.71,70,44.71h115S547.24,76.83,502.7,76.83Z"/><path class="cls-5" d="M389.29,211.05h205.5s-25.44-44.71-70-44.71H319.3S344.74,211.05,389.29,211.05Z"/><path class="cls-5" d="M401.35,121.54H534s-25.44-44.71-70-44.71H331.36S356.8,121.54,401.35,121.54Z"/><path class="cls-5" d="M863.59,433.06h91.66s-25.44,44.72-70,44.72H793.6S819,433.06,863.59,433.06Z"/><path class="cls-6" d="M947.57,344.41h49.72s-25.45,44.72-70,44.72H877.58S903,344.41,947.57,344.41Z"/><path class="cls-5" d="M425.07,300.48H648.86s-25.45-44.71-70-44.71H355.08S380.52,300.48,425.07,300.48Z"/><path class="cls-5" d="M654.53,477.78h85.54s-25.44-44.72-70-44.72H584.54S610,477.78,654.53,477.78Z"/><path class="cls-4" d="M964.49,477.78H825.15c44.54,0,70,44.71,70,44.71h139.34S1009,477.78,964.49,477.78Z"/><path class="cls-6" d="M825.15,477.78H739.6s25.45,44.71,70,44.71h85.54S869.69,477.78,825.15,477.78Z"/><path class="cls-6" d="M606.88,1146.41a201.14,201.14,0,0,0,16.27,44l52.47-44Z"/><line class="cls-7" x1="691.76" y1="777.08" x2="691.89" y2="777.08"/><line class="cls-8" x1="701.76" y1="777.08" x2="818.28" y2="777.08"/><line class="cls-7" x1="823.22" y1="777.08" x2="823.34" y2="777.08"/><line class="cls-7" x1="691.76" y1="944.31" x2="691.89" y2="944.31"/><line class="cls-8" x1="701.76" y1="944.31" x2="818.28" y2="944.31"/><line class="cls-7" x1="823.22" y1="944.31" x2="823.34" y2="944.31"/><line class="cls-7" x1="691.76" y1="1111.55" x2="691.89" y2="1111.55"/><line class="cls-8" x1="701.76" y1="1111.55" x2="818.28" y2="1111.55"/><line class="cls-7" x1="823.22" y1="1111.55" x2="823.34" y2="1111.55"/></g></svg>