<svg id="Layer_1" data-name="Layer 1" xmlns="http://www.w3.org/2000/svg" viewBox="0 0 1065 816.65"><defs><style>.cls-1{fill:#2d2d2d;}.cls-2{fill:#80332a;}.cls-3{fill:#63332a;}.cls-4{fill:#fff;}.cls-5,.cls-6,.cls-7{fill:none;stroke:#fff;stroke-linecap:round;stroke-linejoin:round;stroke-width:3px;}.cls-5{stroke-dasharray:0.25 9.89;}.cls-7{stroke-dasharray:0.25 10;}</style></defs><title>CCSF</title><g id="Previous_bg" data-name="Previous bg"><polygon class="cls-1" points="305 488.15 301.6 588.94 131.41 588.94 56.41 526.04 305 488.15"/><path class="cls-2" d="M970,1198.65V-6.28H95V1617.37H970V1485.2l41,0V1198.65Z"/><path class="cls-3" d="M56.41,464.1V526h247.2c61.72,0,97-61.94,97-61.94Z"/><path class="cls-4" d="M986.81,464.1V402.16H498.17c-61.71,0-97,61.94-97,61.94Z"/><path class="cls-4" d="M560.58,226.15l-.25.81a4.31,4.31,0,0,0-1.54.59,2.62,2.62,0,0,0-.84.81,1.43,1.43,0,0,0-.24.63c0,.11,0,.18.07.21a.59.59,0,0,0,.27.05,1.13,1.13,0,0,1,1.1,1.15,1.07,1.07,0,0,1-.34.83,1.13,1.13,0,0,1-.8.32,1.15,1.15,0,0,1-1-.53,2.11,2.11,0,0,1-.37-1.24,2.82,2.82,0,0,1,.25-1.13,3.82,3.82,0,0,1,.73-1.13,4.19,4.19,0,0,1,1.23-.91A5.06,5.06,0,0,1,560.58,226.15Zm4.6,0-.26.81a4.44,4.44,0,0,0-1.55.59,2.57,2.57,0,0,0-.83.81,1.48,1.48,0,0,0-.25.63.23.23,0,0,0,.08.21.56.56,0,0,0,.27.05,1.11,1.11,0,0,1,1.09,1.15,1.1,1.1,0,0,1-.33.83,1.13,1.13,0,0,1-.8.32,1.18,1.18,0,0,1-1-.53,2.18,2.18,0,0,1-.36-1.24,2.82,2.82,0,0,1,.25-1.13,3.82,3.82,0,0,1,.73-1.13,4.19,4.19,0,0,1,1.23-.91A5.05,5.05,0,0,1,565.18,226.15Z"/><path class="cls-4" d="M572.7,236.17a6.29,6.29,0,0,1-.57,1,4.29,4.29,0,0,1-.71.76,3.11,3.11,0,0,1-.77.49,2.08,2.08,0,0,1-.82.17,1.18,1.18,0,0,1-1.18-.56,3.19,3.19,0,0,1-.26-1.33A9.27,9.27,0,0,1,567,238a2.47,2.47,0,0,1-1.56.53,1.3,1.3,0,0,1-.86-.29,1.69,1.69,0,0,1-.51-.77,3.19,3.19,0,0,1-.16-1,5.91,5.91,0,0,1,.61-2.5,6.2,6.2,0,0,1,1.65-2.21,3.36,3.36,0,0,1,2.24-.9,1.47,1.47,0,0,1,.87.22,1.19,1.19,0,0,1,.44.49,5.47,5.47,0,0,1,.2.61l.33-1.1h1.94l-1.64,5.36a4.54,4.54,0,0,0-.17.7.29.29,0,0,0,.07.2.25.25,0,0,0,.18.08c.38,0,.78-.41,1.22-1.22Zm-3.28-3.5a1.53,1.53,0,0,0-.16-.74.61.61,0,0,0-.59-.31,1.69,1.69,0,0,0-1.28.76,6.12,6.12,0,0,0-1,1.84A5.69,5.69,0,0,0,566,236c0,.71.22,1.07.67,1.07a1.48,1.48,0,0,0,1-.43,4.28,4.28,0,0,0,.9-1.14,7.27,7.27,0,0,0,.67-1.49A4.9,4.9,0,0,0,569.42,232.67Z"/><path class="cls-4" d="M581.37,227.44a1,1,0,0,1-.25.66.83.83,0,0,1-.63.27.67.67,0,0,1-.57-.24,3.36,3.36,0,0,1-.35-.77.8.8,0,0,0-.16-.32.36.36,0,0,0-.29-.11.38.38,0,0,0-.35.19,1.89,1.89,0,0,0-.21.49l-1.06,3.47H579l-.25.81h-1.48l-1.53,5a31.1,31.1,0,0,1-1.09,3.07,5.69,5.69,0,0,1-1.38,1.93,3.23,3.23,0,0,1-2.25.8,2.36,2.36,0,0,1-1.51-.42,1.22,1.22,0,0,1-.53-1,1,1,0,0,1,.28-.71,1,1,0,0,1,.73-.31.75.75,0,0,1,.7.29,1.85,1.85,0,0,1,.21.74q.06.6.51.6a.83.83,0,0,0,.74-.5,7.4,7.4,0,0,0,.59-1.52l2.45-8h-1.55l.25-.81h1.55l.16-.56a14.27,14.27,0,0,1,.76-2.09,4.5,4.5,0,0,1,1.23-1.58,3,3,0,0,1,2-.7,2.35,2.35,0,0,1,.87.16,1.51,1.51,0,0,1,.66.44A1.06,1.06,0,0,1,581.37,227.44Z"/><path class="cls-4" d="M586.15,227.44a1,1,0,0,1-.25.66.83.83,0,0,1-.63.27.63.63,0,0,1-.56-.24,2.94,2.94,0,0,1-.36-.77.8.8,0,0,0-.16-.32.35.35,0,0,0-.29-.11.38.38,0,0,0-.35.19,1.89,1.89,0,0,0-.21.49l-1.06,3.47h1.48l-.26.81H582l-1.52,5c-.41,1.3-.78,2.33-1.1,3.07a5.69,5.69,0,0,1-1.38,1.93,3.23,3.23,0,0,1-2.25.8,2.38,2.38,0,0,1-1.51-.42,1.25,1.25,0,0,1-.53-1,1,1,0,0,1,.28-.71,1,1,0,0,1,.73-.31.74.74,0,0,1,.7.29,1.85,1.85,0,0,1,.21.74q.06.6.51.6a.83.83,0,0,0,.74-.5,7.4,7.4,0,0,0,.59-1.52l2.45-8h-1.55l.25-.81h1.55l.16-.56a14.27,14.27,0,0,1,.76-2.09,4.62,4.62,0,0,1,1.23-1.58,3,3,0,0,1,2-.7,2.28,2.28,0,0,1,.87.16,1.51,1.51,0,0,1,.66.44A1.06,1.06,0,0,1,586.15,227.44Z"/><path class="cls-4" d="M591.94,233.92a4.48,4.48,0,0,1-.35,1.72,4.63,4.63,0,0,1-1,1.49,4.74,4.74,0,0,1-1.53,1,4.9,4.9,0,0,1-1.94.38,4,4,0,0,1-1.81-.4,2.93,2.93,0,0,1-1.21-1.13,3.12,3.12,0,0,1-.43-1.65,4.21,4.21,0,0,1,.65-2.23,4.77,4.77,0,0,1,1.77-1.68,5,5,0,0,1,2.42-.62,3.83,3.83,0,0,1,1.87.43,2.84,2.84,0,0,1,1.17,1.13A3.07,3.07,0,0,1,591.94,233.92Zm-2.08-.6a2.13,2.13,0,0,0-.35-1.29,1.19,1.19,0,0,0-1-.46,1.63,1.63,0,0,0-1.17.49,3.82,3.82,0,0,0-.86,1.23,7.43,7.43,0,0,0-.52,1.5,5.66,5.66,0,0,0-.18,1.29,2.14,2.14,0,0,0,.34,1.24,1.12,1.12,0,0,0,1,.48,1.8,1.8,0,0,0,1.23-.48,3.87,3.87,0,0,0,.88-1.23,6.76,6.76,0,0,0,.52-1.51A6.28,6.28,0,0,0,589.86,233.32Z"/><path class="cls-4" d="M600.9,232a1.65,1.65,0,0,1-.3,1,1,1,0,0,1-.78.43,1,1,0,0,1-.77-.47.57.57,0,0,0-.41-.27c-.16,0-.38.15-.65.44a6.82,6.82,0,0,0-.85,1.18,16.75,16.75,0,0,0-.86,1.7,18.17,18.17,0,0,0-.73,1.95l-.1.36h-2.07l1.38-4.93a3.81,3.81,0,0,0,.22-1,.42.42,0,0,0-.06-.21.21.21,0,0,0-.2-.1.94.94,0,0,0-.69.48,5.49,5.49,0,0,0-.53.87h-.81a6.27,6.27,0,0,1,1-1.57,3.09,3.09,0,0,1,1-.78,2.27,2.27,0,0,1,.91-.22.92.92,0,0,1,.91.44,2.11,2.11,0,0,1,.2.86,9.46,9.46,0,0,1-.49,2.41c.33-.58.61-1,.82-1.38a9.8,9.8,0,0,1,.77-1.07,4.46,4.46,0,0,1,.94-.91,1.7,1.7,0,0,1,1-.35.94.94,0,0,1,.89.38A1.51,1.51,0,0,1,600.9,232Z"/><path class="cls-4" d="M611.43,226.15l-3.12,10.12a4.06,4.06,0,0,0-.19.88c0,.2.1.31.29.31a.93.93,0,0,0,.61-.33,3.72,3.72,0,0,0,.65-.88h.84a4.48,4.48,0,0,1-.55.92,3.91,3.91,0,0,1-1,1,2.3,2.3,0,0,1-1.35.42c-1,0-1.52-.55-1.52-1.64v-.11a.53.53,0,0,0,0-.13,5.75,5.75,0,0,1-.84.89,4.29,4.29,0,0,1-1.11.71,3.06,3.06,0,0,1-1.24.28,1.77,1.77,0,0,1-1.45-.61,2.3,2.3,0,0,1-.5-1.52,5.27,5.27,0,0,1,.4-2,6.52,6.52,0,0,1,1.06-1.8,5.31,5.31,0,0,1,1.58-1.3,3.75,3.75,0,0,1,1.86-.49,2,2,0,0,1,1.11.26,2.87,2.87,0,0,1,.64.66l1-3.43a2.33,2.33,0,0,0,.18-.66.39.39,0,0,0-.15-.34.86.86,0,0,0-.38-.13l-.69,0,.21-.81,1.41,0c.34,0,.61,0,.83-.05l.75-.13Zm-4.29,6.67a1.45,1.45,0,0,0-.3-.94,1,1,0,0,0-.78-.37,2,2,0,0,0-1.46.77,6,6,0,0,0-1.12,1.84,5.38,5.38,0,0,0-.42,1.91,1.07,1.07,0,0,0,.29.85,1,1,0,0,0,.68.27,1.9,1.9,0,0,0,1.16-.43,4.27,4.27,0,0,0,1-1.12,5.73,5.73,0,0,0,.68-1.41A4.2,4.2,0,0,0,607.14,232.82Z"/><path class="cls-4" d="M620.22,236.17a6.29,6.29,0,0,1-.57,1,4.24,4.24,0,0,1-.7.76,3.35,3.35,0,0,1-.78.49,2.06,2.06,0,0,1-.81.17,1.18,1.18,0,0,1-1.19-.56,3.19,3.19,0,0,1-.25-1.33,9.76,9.76,0,0,1-1.39,1.36,2.52,2.52,0,0,1-1.57.53,1.31,1.31,0,0,1-.86-.29,1.59,1.59,0,0,1-.5-.77,3.19,3.19,0,0,1-.17-1,5.91,5.91,0,0,1,.61-2.5,6.2,6.2,0,0,1,1.65-2.21,3.36,3.36,0,0,1,2.24-.9,1.47,1.47,0,0,1,.87.22,1.19,1.19,0,0,1,.44.49,3.12,3.12,0,0,1,.2.61l.33-1.1h1.94l-1.63,5.36a4,4,0,0,0-.18.7.3.3,0,0,0,.08.2.23.23,0,0,0,.17.08c.38,0,.79-.41,1.22-1.22Zm-3.28-3.5a1.53,1.53,0,0,0-.16-.74.61.61,0,0,0-.59-.31,1.69,1.69,0,0,0-1.28.76,6.11,6.11,0,0,0-1,1.84,5.47,5.47,0,0,0-.39,1.81c0,.71.23,1.07.67,1.07a1.52,1.52,0,0,0,1-.43,4.72,4.72,0,0,0,.9-1.14,7.22,7.22,0,0,0,.66-1.49A4.56,4.56,0,0,0,616.94,232.67Z"/><path class="cls-4" d="M629.57,233.39a4.4,4.4,0,0,1-.4,1.82,6,6,0,0,1-2.88,2.88,4.74,4.74,0,0,1-2,.45,3.14,3.14,0,0,1-2.2-.72,2.22,2.22,0,0,1-.78-1.68,6.24,6.24,0,0,1,.32-1.69l1.93-6.28a2.45,2.45,0,0,0,.1-.51.38.38,0,0,0-.27-.39,2.23,2.23,0,0,0-.75-.1h-.25l.25-.81a15.42,15.42,0,0,0,3-.21h.58l-1.81,5.92.43-.35a5.08,5.08,0,0,1,.58-.43,3.47,3.47,0,0,1,.75-.31,3.42,3.42,0,0,1,1-.15,2.48,2.48,0,0,1,1.18.29,2.18,2.18,0,0,1,.87.86A2.94,2.94,0,0,1,629.57,233.39Zm-2.16,0a1.72,1.72,0,0,0-.3-1,1,1,0,0,0-.89-.41c-1,0-1.76.72-2.39,2.15a8.75,8.75,0,0,0-.47,1.45,5,5,0,0,0-.18,1,1.29,1.29,0,0,0,.32.88,1.2,1.2,0,0,0,.91.35A2.1,2.1,0,0,0,626,237a5,5,0,0,0,1-1.81A5.91,5.91,0,0,0,627.41,233.42Z"/><path class="cls-4" d="M636.18,226.15l-3.07,10.08a4.49,4.49,0,0,0-.24.94.33.33,0,0,0,.07.23.23.23,0,0,0,.18.09c.16,0,.37-.14.64-.41a3.33,3.33,0,0,0,.64-.94h.82a7.76,7.76,0,0,1-1.15,1.61,2.36,2.36,0,0,1-1.8.79,1.49,1.49,0,0,1-1.06-.37,1.17,1.17,0,0,1-.4-.88,5.52,5.52,0,0,1,.27-1.33l2.25-7.33a4,4,0,0,0,.22-1,.38.38,0,0,0-.25-.4,2.73,2.73,0,0,0-.93-.1l.21-.81h.94c.4,0,.77,0,1.11,0a4.84,4.84,0,0,0,1-.17Z"/><path class="cls-4" d="M644.05,232.29a2,2,0,0,1-.22.83,3.49,3.49,0,0,1-.8,1,5.28,5.28,0,0,1-1.67.93,10.84,10.84,0,0,1-2.73.55l-.21,0a3.11,3.11,0,0,0-.08.65,1.24,1.24,0,0,0,.32.94,1.31,1.31,0,0,0,.91.28,3.35,3.35,0,0,0,2.52-1.42H643a6.76,6.76,0,0,1-1.65,1.65,4.35,4.35,0,0,1-2.63.82,2.94,2.94,0,0,1-1.81-.57,2,2,0,0,1-.75-1.67,5.09,5.09,0,0,1,.75-2.61,5.94,5.94,0,0,1,2-2.07,5.26,5.26,0,0,1,2.81-.79,2.9,2.9,0,0,1,1.75.41A1.29,1.29,0,0,1,644.05,232.29Zm-1.86,0a.78.78,0,0,0-.2-.53.68.68,0,0,0-.55-.24,1.7,1.7,0,0,0-1.13.43,4.18,4.18,0,0,0-.87,1,7.51,7.51,0,0,0-.57,1.18l-.28.74a6.08,6.08,0,0,0,2.7-1A2,2,0,0,0,642.19,232.25Z"/><path class="cls-4" d="M650.16,227.91a3.18,3.18,0,0,1-.45,1.55,3.93,3.93,0,0,1-1.32,1.38,4.69,4.69,0,0,1-2.18.71l.26-.81a3.64,3.64,0,0,0,2-.94,1.86,1.86,0,0,0,.62-1.1.23.23,0,0,0-.07-.2.58.58,0,0,0-.27,0,1.1,1.1,0,0,1-.75-.32,1.06,1.06,0,0,1-.35-.84,1.07,1.07,0,0,1,.34-.83,1.13,1.13,0,0,1,.8-.32,1.16,1.16,0,0,1,1,.53A2.1,2.1,0,0,1,650.16,227.91Zm4.59,0a3.18,3.18,0,0,1-.45,1.55,4,4,0,0,1-1.33,1.38,4.61,4.61,0,0,1-2.17.71l.25-.81a3.7,3.7,0,0,0,2-.94,1.83,1.83,0,0,0,.62-1.1.21.21,0,0,0-.08-.2.56.56,0,0,0-.26,0,1.1,1.1,0,0,1-.75-.32,1.06,1.06,0,0,1-.35-.84,1.1,1.1,0,0,1,.33-.83,1.14,1.14,0,0,1,.8-.32,1.17,1.17,0,0,1,1,.53A2.17,2.17,0,0,1,654.75,227.91Z"/><path class="cls-4" d="M561,256.15l-.24.81a4.37,4.37,0,0,0-1.55.59,2.57,2.57,0,0,0-.83.81,1.36,1.36,0,0,0-.25.63.23.23,0,0,0,.08.21.54.54,0,0,0,.26.05,1.13,1.13,0,0,1,.76.31,1.08,1.08,0,0,1,.34.84,1.1,1.1,0,0,1-.33.83,1.13,1.13,0,0,1-.8.32,1.18,1.18,0,0,1-1-.53,2.18,2.18,0,0,1-.36-1.24,3,3,0,0,1,.24-1.13,4.26,4.26,0,0,1,.73-1.13,4.38,4.38,0,0,1,1.24-.91A5,5,0,0,1,561,256.15Zm4.6,0-.25.81a4.37,4.37,0,0,0-1.55.59,2.72,2.72,0,0,0-.84.81,1.43,1.43,0,0,0-.24.63.23.23,0,0,0,.08.21.54.54,0,0,0,.26.05,1.13,1.13,0,0,1,1.1,1.15,1.1,1.1,0,0,1-.33.83,1.14,1.14,0,0,1-.8.32,1.16,1.16,0,0,1-1-.53,2.18,2.18,0,0,1-.36-1.24,3,3,0,0,1,.24-1.13,4,4,0,0,1,2-2A5.06,5.06,0,0,1,565.64,256.15Z"/><path class="cls-4" d="M573.17,266.17a6.32,6.32,0,0,1-.58.95,4.24,4.24,0,0,1-.7.76,3.35,3.35,0,0,1-.78.49,2.06,2.06,0,0,1-.81.17c-.62,0-1-.19-1.18-.56a3.19,3.19,0,0,1-.26-1.33,9.27,9.27,0,0,1-1.39,1.36,2.51,2.51,0,0,1-1.56.53,1.32,1.32,0,0,1-.87-.29,1.75,1.75,0,0,1-.5-.77,3.19,3.19,0,0,1-.16-1,6,6,0,0,1,.6-2.5,6.45,6.45,0,0,1,1.65-2.21,3.38,3.38,0,0,1,2.25-.9,1.47,1.47,0,0,1,.87.22,1.16,1.16,0,0,1,.43.49,3.94,3.94,0,0,1,.21.61l.32-1.1h1.95L571,266.41a4,4,0,0,0-.18.7.3.3,0,0,0,.08.2.25.25,0,0,0,.17.08c.38,0,.79-.41,1.22-1.22Zm-3.28-3.5a1.53,1.53,0,0,0-.17-.74.59.59,0,0,0-.59-.31,1.71,1.71,0,0,0-1.28.76,6.33,6.33,0,0,0-1,1.84,5.69,5.69,0,0,0-.38,1.81c0,.71.22,1.07.67,1.07a1.5,1.5,0,0,0,1-.43,4.49,4.49,0,0,0,.9-1.14,6.73,6.73,0,0,0,.66-1.49A4.6,4.6,0,0,0,569.89,262.67Z"/><path class="cls-4" d="M581.47,262.67a1.31,1.31,0,0,1-.31.89,1,1,0,0,1-.82.36.85.85,0,0,1-.61-.21.68.68,0,0,1-.24-.54,2.33,2.33,0,0,1,.07-.47,1.2,1.2,0,0,0,.08-.43.58.58,0,0,0-.27-.56,1.27,1.27,0,0,0-.54-.14,1.88,1.88,0,0,0-1.45.84,6.73,6.73,0,0,0-1,2,5.87,5.87,0,0,0-.4,1.87q0,.79.39,1a1.49,1.49,0,0,0,.78.22,2.51,2.51,0,0,0,1.44-.43,4.54,4.54,0,0,0,1.1-1h1a6.06,6.06,0,0,1-1.75,1.7,4.44,4.44,0,0,1-2.51.76,2.72,2.72,0,0,1-1.89-.61,2.08,2.08,0,0,1-.67-1.64,5.31,5.31,0,0,1,.7-2.51,5.85,5.85,0,0,1,2-2.12,4.89,4.89,0,0,1,2.76-.83,2.91,2.91,0,0,1,1,.15,2.07,2.07,0,0,1,.71.41,1.69,1.69,0,0,1,.45.59A1.65,1.65,0,0,1,581.47,262.67Z"/><path class="cls-4" d="M589.71,262.67a1.31,1.31,0,0,1-.31.89,1,1,0,0,1-.82.36.89.89,0,0,1-.61-.21.71.71,0,0,1-.23-.54,1.78,1.78,0,0,1,.07-.47,1.46,1.46,0,0,0,.08-.43.58.58,0,0,0-.28-.56,1.21,1.21,0,0,0-.54-.14,1.85,1.85,0,0,0-1.44.84,6.53,6.53,0,0,0-1.06,2,6.1,6.1,0,0,0-.39,1.87c0,.53.13.87.38,1a1.55,1.55,0,0,0,.79.22,2.56,2.56,0,0,0,1.44-.43,4.73,4.73,0,0,0,1.1-1h1a6.19,6.19,0,0,1-1.75,1.7,4.45,4.45,0,0,1-2.52.76,2.75,2.75,0,0,1-1.89-.61,2.11,2.11,0,0,1-.66-1.64,5.19,5.19,0,0,1,.7-2.51,5.91,5.91,0,0,1,1.95-2.12,4.89,4.89,0,0,1,2.76-.83,2.86,2.86,0,0,1,1,.15,2.12,2.12,0,0,1,.72.41,1.69,1.69,0,0,1,.45.59A1.64,1.64,0,0,1,589.71,262.67Z"/><path class="cls-4" d="M598.09,262.29a2,2,0,0,1-.22.83,3.49,3.49,0,0,1-.8,1,5.28,5.28,0,0,1-1.67.93,10.84,10.84,0,0,1-2.73.55l-.21,0a3.07,3.07,0,0,0-.07.65,1.24,1.24,0,0,0,.31.94,1.31,1.31,0,0,0,.91.28,3.35,3.35,0,0,0,2.52-1.42h.93a6.76,6.76,0,0,1-1.65,1.65,4.33,4.33,0,0,1-2.63.82A2.89,2.89,0,0,1,591,268a2,2,0,0,1-.76-1.67,5.09,5.09,0,0,1,.75-2.61,5.94,5.94,0,0,1,2-2.07,5.26,5.26,0,0,1,2.81-.79,2.9,2.9,0,0,1,1.75.41A1.29,1.29,0,0,1,598.09,262.29Zm-1.85,0a.79.79,0,0,0-.21-.53.68.68,0,0,0-.55-.24,1.7,1.7,0,0,0-1.13.43,3.93,3.93,0,0,0-.86,1,6.78,6.78,0,0,0-.58,1.18l-.28.74a6.08,6.08,0,0,0,2.7-1A2,2,0,0,0,596.24,262.25Z"/><path class="cls-4" d="M606.33,262.32a1,1,0,0,1-.24.64.83.83,0,0,1-.65.27.9.9,0,0,1-.5-.12.89.89,0,0,1-.28-.35,6.1,6.1,0,0,1-.25-.65.92.92,0,0,0-.28-.46,1,1,0,0,0-.7-.17,1.48,1.48,0,0,0-.82.24.7.7,0,0,0-.36.62.91.91,0,0,0,.15.5,2.54,2.54,0,0,0,.36.45l.67.6a8.92,8.92,0,0,1,1.26,1.18,1.86,1.86,0,0,1,.39,1.2,2,2,0,0,1-.34,1.1,2.39,2.39,0,0,1-1.1.84,5.12,5.12,0,0,1-2,.33,3.66,3.66,0,0,1-2.44-.64,1.8,1.8,0,0,1-.7-1.24,1,1,0,0,1,.27-.69,1,1,0,0,1,.72-.3c.6,0,1,.39,1,1.15a1.63,1.63,0,0,0,.28.78,1.07,1.07,0,0,0,.89.29,1.52,1.52,0,0,0,1-.3,1,1,0,0,0,.38-.77,1.08,1.08,0,0,0-.13-.48,2.35,2.35,0,0,0-.53-.58c-.48-.4-.87-.75-1.18-1.06a3.91,3.91,0,0,1-.69-.87,1.8,1.8,0,0,1-.24-.89,1.85,1.85,0,0,1,.27-.9,2.27,2.27,0,0,1,1-.85,4.83,4.83,0,0,1,2-.36A5.59,5.59,0,0,1,605,261a2.36,2.36,0,0,1,.84.37,1.29,1.29,0,0,1,.41.48A1.1,1.1,0,0,1,606.33,262.32Z"/><path class="cls-4" d="M614.58,262.32a1,1,0,0,1-.24.64.84.84,0,0,1-.66.27.87.87,0,0,1-.49-.12.81.81,0,0,1-.28-.35,5.72,5.72,0,0,1-.26-.65.91.91,0,0,0-.27-.46,1,1,0,0,0-.7-.17,1.44,1.44,0,0,0-.82.24.69.69,0,0,0-.37.62.91.91,0,0,0,.15.5,2.21,2.21,0,0,0,.37.45c.14.14.36.34.67.6a9.32,9.32,0,0,1,1.25,1.18,1.86,1.86,0,0,1,.39,1.2,2,2,0,0,1-.33,1.1,2.37,2.37,0,0,1-1.11.84,5,5,0,0,1-2,.33,3.65,3.65,0,0,1-2.43-.64,1.76,1.76,0,0,1-.7-1.24A1,1,0,0,1,607,266a.92.92,0,0,1,.72-.3c.6,0,.94.39,1,1.15a1.63,1.63,0,0,0,.27.78,1.1,1.1,0,0,0,.9.29,1.49,1.49,0,0,0,1-.3,1,1,0,0,0,.38-.77,1,1,0,0,0-.13-.48,2.16,2.16,0,0,0-.53-.58c-.47-.4-.86-.75-1.17-1.06a4,4,0,0,1-.7-.87,1.8,1.8,0,0,1-.24-.89,1.85,1.85,0,0,1,.27-.9,2.39,2.39,0,0,1,1-.85,4.86,4.86,0,0,1,2-.36,5.68,5.68,0,0,1,1.34.14,2.54,2.54,0,0,1,.84.37,1.25,1.25,0,0,1,.4.48A1.11,1.11,0,0,1,614.58,262.32Z"/><path class="cls-4" d="M620.07,266.17a6.09,6.09,0,0,1-1.07,1.57,2.39,2.39,0,0,1-1.83.8,1.5,1.5,0,0,1-1.11-.37,1.18,1.18,0,0,1-.36-.86,4.41,4.41,0,0,1,.32-1.42l1.13-3.1a1.74,1.74,0,0,0,.17-.57.25.25,0,0,0-.08-.18.25.25,0,0,0-.17-.08c-.2,0-.42.16-.66.47a5.06,5.06,0,0,0-.53.83h-.77a4.4,4.4,0,0,1,1.35-1.79,2.67,2.67,0,0,1,1.65-.64,1.59,1.59,0,0,1,1,.28.92.92,0,0,1,.38.76,2.85,2.85,0,0,1-.2,1l-1.37,3.68a2,2,0,0,0-.14.61.32.32,0,0,0,.09.21.21.21,0,0,0,.18.1.79.79,0,0,0,.54-.28,4.88,4.88,0,0,0,.7-1Zm.65-8.88a1.1,1.1,0,0,1-.34.81,1.06,1.06,0,0,1-.79.34,1.08,1.08,0,0,1-.82-.34,1.13,1.13,0,0,1-.33-.81,1.14,1.14,0,0,1,1.15-1.14,1.08,1.08,0,0,1,.58.16,1.1,1.1,0,0,1,.4.4A1.11,1.11,0,0,1,620.72,257.29Z"/><path class="cls-4" d="M629.57,263.39a4.4,4.4,0,0,1-.4,1.82,6,6,0,0,1-2.88,2.88,4.74,4.74,0,0,1-2,.45,3.14,3.14,0,0,1-2.2-.72,2.22,2.22,0,0,1-.78-1.68,6.24,6.24,0,0,1,.32-1.69l1.93-6.28a2.45,2.45,0,0,0,.1-.51.38.38,0,0,0-.27-.39,2.23,2.23,0,0,0-.75-.1h-.25l.25-.81a15.42,15.42,0,0,0,3-.21h.58l-1.81,5.92.43-.35a5.08,5.08,0,0,1,.58-.43,3.47,3.47,0,0,1,.75-.31,3.42,3.42,0,0,1,1-.15,2.48,2.48,0,0,1,1.18.29,2.18,2.18,0,0,1,.87.86A2.94,2.94,0,0,1,629.57,263.39Zm-2.16,0a1.72,1.72,0,0,0-.3-1.05,1,1,0,0,0-.89-.41c-1,0-1.76.72-2.39,2.15a8.75,8.75,0,0,0-.47,1.45,5,5,0,0,0-.18,1,1.29,1.29,0,0,0,.32.88,1.2,1.2,0,0,0,.91.35A2.1,2.1,0,0,0,626,267a5,5,0,0,0,1-1.81A5.91,5.91,0,0,0,627.41,263.42Z"/><path class="cls-4" d="M636.18,256.15l-3.07,10.08a4.49,4.49,0,0,0-.24.94.33.33,0,0,0,.07.23.23.23,0,0,0,.18.09c.16,0,.37-.14.64-.41a3.33,3.33,0,0,0,.64-.94h.82a7.76,7.76,0,0,1-1.15,1.61,2.36,2.36,0,0,1-1.8.79,1.49,1.49,0,0,1-1.06-.37,1.17,1.17,0,0,1-.4-.88,5.52,5.52,0,0,1,.27-1.33l2.25-7.33a4,4,0,0,0,.22-1,.38.38,0,0,0-.25-.4,2.73,2.73,0,0,0-.93-.1l.21-.81h.94c.4,0,.77,0,1.11,0a4.84,4.84,0,0,0,1-.17Z"/><path class="cls-4" d="M644.05,262.29a2,2,0,0,1-.22.83,3.49,3.49,0,0,1-.8,1,5.28,5.28,0,0,1-1.67.93,10.84,10.84,0,0,1-2.73.55l-.21,0a3.11,3.11,0,0,0-.08.65,1.24,1.24,0,0,0,.32.94,1.31,1.31,0,0,0,.91.28,3.35,3.35,0,0,0,2.52-1.42H643a6.76,6.76,0,0,1-1.65,1.65,4.35,4.35,0,0,1-2.63.82,2.94,2.94,0,0,1-1.81-.57,2,2,0,0,1-.75-1.67,5.09,5.09,0,0,1,.75-2.61,5.94,5.94,0,0,1,2-2.07,5.26,5.26,0,0,1,2.81-.79,2.9,2.9,0,0,1,1.75.41A1.29,1.29,0,0,1,644.05,262.29Zm-1.86,0a.78.78,0,0,0-.2-.53.68.68,0,0,0-.55-.24,1.7,1.7,0,0,0-1.13.43,4.18,4.18,0,0,0-.87,1,7.51,7.51,0,0,0-.57,1.18l-.28.74a6.08,6.08,0,0,0,2.7-1A2,2,0,0,0,642.19,262.25Z"/><path class="cls-4" d="M650.16,257.91a3.18,3.18,0,0,1-.45,1.55,3.93,3.93,0,0,1-1.32,1.38,4.69,4.69,0,0,1-2.18.71l.26-.81a3.64,3.64,0,0,0,2-.94,1.86,1.86,0,0,0,.62-1.1.23.23,0,0,0-.07-.2.58.58,0,0,0-.27,0,1.1,1.1,0,0,1-.75-.32,1.06,1.06,0,0,1-.35-.84,1.07,1.07,0,0,1,.34-.83,1.13,1.13,0,0,1,.8-.32,1.16,1.16,0,0,1,1,.53A2.1,2.1,0,0,1,650.16,257.91Zm4.59,0a3.18,3.18,0,0,1-.45,1.55,4,4,0,0,1-1.33,1.38,4.61,4.61,0,0,1-2.17.71l.25-.81a3.7,3.7,0,0,0,2-.94,1.83,1.83,0,0,0,.62-1.1.21.21,0,0,0-.08-.2.56.56,0,0,0-.26,0,1.1,1.1,0,0,1-.75-.32,1.06,1.06,0,0,1-.35-.84,1.1,1.1,0,0,1,.33-.83,1.14,1.14,0,0,1,.8-.32,1.17,1.17,0,0,1,1,.53A2.17,2.17,0,0,1,654.75,257.91Z"/><path class="cls-4" d="M583,286.15l-.24.81a4.37,4.37,0,0,0-1.55.59,2.57,2.57,0,0,0-.83.81,1.36,1.36,0,0,0-.25.63.23.23,0,0,0,.08.21.54.54,0,0,0,.26.05,1.13,1.13,0,0,1,.76.31,1.08,1.08,0,0,1,.34.84,1.1,1.1,0,0,1-.33.83,1.13,1.13,0,0,1-.8.32,1.18,1.18,0,0,1-1-.53,2.18,2.18,0,0,1-.36-1.24,3,3,0,0,1,.24-1.13,4.26,4.26,0,0,1,.73-1.13,4.38,4.38,0,0,1,1.24-.91A5,5,0,0,1,583,286.15Zm4.6,0-.25.81a4.37,4.37,0,0,0-1.55.59,2.72,2.72,0,0,0-.84.81,1.43,1.43,0,0,0-.24.63.23.23,0,0,0,.08.21.54.54,0,0,0,.26.05,1.13,1.13,0,0,1,1.1,1.15,1.1,1.1,0,0,1-.33.83,1.14,1.14,0,0,1-.8.32,1.16,1.16,0,0,1-1-.53,2.18,2.18,0,0,1-.36-1.24,3,3,0,0,1,.24-1.13,4,4,0,0,1,2-2A5.06,5.06,0,0,1,587.56,286.15Z"/><path class="cls-4" d="M596.61,286.15l-3.12,10.12a4.83,4.83,0,0,0-.19.88c0,.2.1.31.29.31a1,1,0,0,0,.62-.33,4,4,0,0,0,.64-.88h.84a4.84,4.84,0,0,1-.54.92,4.12,4.12,0,0,1-1,.95,2.3,2.3,0,0,1-1.35.42c-1,0-1.52-.55-1.52-1.64v-.11a.53.53,0,0,0,0-.13,5.31,5.31,0,0,1-.84.89,4.29,4.29,0,0,1-1.11.71,3.06,3.06,0,0,1-1.24.28,1.74,1.74,0,0,1-1.44-.61,2.25,2.25,0,0,1-.5-1.52,5.46,5.46,0,0,1,.39-2,6.52,6.52,0,0,1,1.06-1.8,5.44,5.44,0,0,1,1.58-1.3,3.81,3.81,0,0,1,1.86-.49,2,2,0,0,1,1.11.26,2.87,2.87,0,0,1,.64.66l1-3.43a2.33,2.33,0,0,0,.18-.66.39.39,0,0,0-.15-.34.81.81,0,0,0-.38-.13l-.69,0,.21-.81,1.41,0c.34,0,.61,0,.83-.05l.75-.13Zm-4.28,6.67a1.45,1.45,0,0,0-.3-.94,1,1,0,0,0-.79-.37,2,2,0,0,0-1.46.77,6.17,6.17,0,0,0-1.12,1.84,5.38,5.38,0,0,0-.42,1.91,1.07,1.07,0,0,0,.29.85,1,1,0,0,0,.68.27,1.88,1.88,0,0,0,1.16-.43,4.27,4.27,0,0,0,1-1.12,6.15,6.15,0,0,0,.69-1.41A4.48,4.48,0,0,0,592.33,292.82Z"/><path class="cls-4" d="M601.33,296.17a5.85,5.85,0,0,1-1.07,1.57,2.36,2.36,0,0,1-1.83.8,1.46,1.46,0,0,1-1.1-.37,1.15,1.15,0,0,1-.37-.86,4.7,4.7,0,0,1,.32-1.42l1.14-3.1a1.92,1.92,0,0,0,.16-.57.22.22,0,0,0-.08-.18.25.25,0,0,0-.17-.08c-.2,0-.42.16-.66.47a5.84,5.84,0,0,0-.53.83h-.77a4.4,4.4,0,0,1,1.35-1.79,2.67,2.67,0,0,1,1.65-.64,1.59,1.59,0,0,1,1,.28.92.92,0,0,1,.38.76,3.06,3.06,0,0,1-.19,1l-1.38,3.68a2,2,0,0,0-.14.61.32.32,0,0,0,.09.21.21.21,0,0,0,.18.1.79.79,0,0,0,.54-.28,5.23,5.23,0,0,0,.71-1Zm.65-8.88a1.13,1.13,0,0,1-.33.81,1.13,1.13,0,0,1-1.62,0,1.13,1.13,0,0,1-.33-.81,1.14,1.14,0,0,1,1.15-1.14,1.08,1.08,0,0,1,.58.16,1,1,0,0,1,.4.4A1.11,1.11,0,0,1,602,287.29Z"/><path class="cls-4" d="M610.75,292.18a5.25,5.25,0,0,1-.5,2.09,8.48,8.48,0,0,1-1.36,2.1,7.28,7.28,0,0,1-1.91,1.57,4.3,4.3,0,0,1-2.12.6,2.65,2.65,0,0,1-1-.18,1.68,1.68,0,0,1-.79-.61,1.7,1.7,0,0,1-.32-1.09,2.49,2.49,0,0,1,.42-1.42,7,7,0,0,1,1.23-1.32,10.33,10.33,0,0,0,1-.89,3.27,3.27,0,0,0,.55-.79,2.22,2.22,0,0,1-1.31.46,1.92,1.92,0,0,1-.92-.27,1,1,0,0,0-.45-.16c-.27,0-.45.17-.54.52H602c.4-1.31,1-2,1.8-2a2.1,2.1,0,0,1,1.28.58,1.83,1.83,0,0,0,.35.24.53.53,0,0,0,.24.06c.26,0,.43-.16.51-.49s.18-.39.36-.39a.41.41,0,0,1,.32.13.49.49,0,0,1,.11.33,2.19,2.19,0,0,1-.25,1,12.84,12.84,0,0,1-.67,1.17,13.87,13.87,0,0,0-1,1.76,2.88,2.88,0,0,0-.27,1.12.82.82,0,0,0,.34.75,1.27,1.27,0,0,0,.76.24,2.59,2.59,0,0,0,1.65-.64,5,5,0,0,0,1.26-1.5,3.25,3.25,0,0,0,.49-1.53,4.19,4.19,0,0,0-.14-1,2.83,2.83,0,0,1-.13-.81,1,1,0,0,1,.26-.8.78.78,0,0,1,.55-.24.76.76,0,0,1,.66.37A1.67,1.67,0,0,1,610.75,292.18Z"/><path class="cls-4" d="M619.47,292.29a2,2,0,0,1-.22.83,3.32,3.32,0,0,1-.8,1,5.28,5.28,0,0,1-1.67.93,10.65,10.65,0,0,1-2.73.55l-.21,0a3.07,3.07,0,0,0-.07.65,1.28,1.28,0,0,0,.31.94,1.31,1.31,0,0,0,.91.28,3.35,3.35,0,0,0,2.52-1.42h.94a7,7,0,0,1-1.66,1.65,4.3,4.3,0,0,1-2.62.82,2.9,2.9,0,0,1-1.81-.57,2,2,0,0,1-.75-1.67,5.09,5.09,0,0,1,.75-2.61,5.83,5.83,0,0,1,2-2.07,5.29,5.29,0,0,1,2.82-.79,2.89,2.89,0,0,1,1.74.41A1.29,1.29,0,0,1,619.47,292.29Zm-1.85,0a.83.83,0,0,0-.2-.53.7.7,0,0,0-.56-.24,1.68,1.68,0,0,0-1.12.43,3.78,3.78,0,0,0-.87,1,6.78,6.78,0,0,0-.58,1.18c-.15.4-.24.64-.27.74a6,6,0,0,0,2.69-1A2,2,0,0,0,617.62,292.25Z"/><path class="cls-4" d="M627.92,292a1.59,1.59,0,0,1-.31,1,.92.92,0,0,1-.77.43,1,1,0,0,1-.77-.47.57.57,0,0,0-.42-.27c-.15,0-.37.15-.65.44a7.41,7.41,0,0,0-.84,1.18,16.75,16.75,0,0,0-.86,1.7,16.26,16.26,0,0,0-.73,1.95l-.11.36H620.4l1.38-4.93a4.3,4.3,0,0,0,.22-1,.42.42,0,0,0-.06-.21.22.22,0,0,0-.2-.1q-.35,0-.69.48a4.83,4.83,0,0,0-.53.87h-.81a6.55,6.55,0,0,1,1-1.57,3.21,3.21,0,0,1,1-.78,2.19,2.19,0,0,1,.9-.22.9.9,0,0,1,.91.44,2,2,0,0,1,.21.86,9.93,9.93,0,0,1-.49,2.41c.33-.58.61-1,.82-1.38a9.66,9.66,0,0,1,.76-1.07,4.71,4.71,0,0,1,.94-.91,1.75,1.75,0,0,1,1-.35,1,1,0,0,1,.9.38A1.51,1.51,0,0,1,627.92,292Z"/><path class="cls-4" d="M635.6,292.32a1,1,0,0,1-.24.64.83.83,0,0,1-.65.27.9.9,0,0,1-.5-.12.89.89,0,0,1-.28-.35,6.1,6.1,0,0,1-.25-.65.92.92,0,0,0-.28-.46,1,1,0,0,0-.7-.17,1.46,1.46,0,0,0-.82.24.7.7,0,0,0-.36.62.91.91,0,0,0,.15.5,2.16,2.16,0,0,0,.36.45c.14.14.37.34.67.6a9.52,9.52,0,0,1,1.26,1.18,1.86,1.86,0,0,1,.39,1.2,2,2,0,0,1-.34,1.1,2.37,2.37,0,0,1-1.11.84,5,5,0,0,1-2,.33,3.66,3.66,0,0,1-2.44-.64,1.76,1.76,0,0,1-.7-1.24,1,1,0,0,1,.27-.69.92.92,0,0,1,.72-.3c.6,0,.94.39,1,1.15a1.54,1.54,0,0,0,.28.78,1.07,1.07,0,0,0,.89.29,1.54,1.54,0,0,0,1-.3.94.94,0,0,0,.37-.77,1.07,1.07,0,0,0-.12-.48,2.58,2.58,0,0,0-.53-.58c-.48-.4-.87-.75-1.18-1.06a4,4,0,0,1-.7-.87,1.79,1.79,0,0,1-.23-.89,1.85,1.85,0,0,1,.27-.9,2.27,2.27,0,0,1,1-.85,4.78,4.78,0,0,1,2-.36,5.62,5.62,0,0,1,1.34.14,2.54,2.54,0,0,1,.84.37,1.29,1.29,0,0,1,.41.48A1.25,1.25,0,0,1,635.6,292.32Z"/><path class="cls-4" d="M644.05,292.29a2,2,0,0,1-.22.83,3.49,3.49,0,0,1-.8,1,5.28,5.28,0,0,1-1.67.93,10.84,10.84,0,0,1-2.73.55l-.21,0a3.11,3.11,0,0,0-.08.65,1.24,1.24,0,0,0,.32.94,1.31,1.31,0,0,0,.91.28,3.35,3.35,0,0,0,2.52-1.42H643a6.76,6.76,0,0,1-1.65,1.65,4.35,4.35,0,0,1-2.63.82,2.94,2.94,0,0,1-1.81-.57,2,2,0,0,1-.75-1.67,5.09,5.09,0,0,1,.75-2.61,5.94,5.94,0,0,1,2-2.07,5.26,5.26,0,0,1,2.81-.79,2.9,2.9,0,0,1,1.75.41A1.29,1.29,0,0,1,644.05,292.29Zm-1.86,0a.78.78,0,0,0-.2-.53.68.68,0,0,0-.55-.24,1.7,1.7,0,0,0-1.13.43,4.18,4.18,0,0,0-.87,1,7.51,7.51,0,0,0-.57,1.18l-.28.74a6.08,6.08,0,0,0,2.7-1A2,2,0,0,0,642.19,292.25Z"/><path class="cls-4" d="M650.16,287.91a3.18,3.18,0,0,1-.45,1.55,3.93,3.93,0,0,1-1.32,1.38,4.69,4.69,0,0,1-2.18.71l.26-.81a3.64,3.64,0,0,0,2-.94,1.86,1.86,0,0,0,.62-1.1.23.23,0,0,0-.07-.2.58.58,0,0,0-.27,0,1.1,1.1,0,0,1-.75-.32,1.06,1.06,0,0,1-.35-.84,1.07,1.07,0,0,1,.34-.83,1.13,1.13,0,0,1,.8-.32,1.16,1.16,0,0,1,1,.53A2.1,2.1,0,0,1,650.16,287.91Zm4.59,0a3.18,3.18,0,0,1-.45,1.55,4,4,0,0,1-1.33,1.38,4.61,4.61,0,0,1-2.17.71l.25-.81a3.7,3.7,0,0,0,2-.94,1.83,1.83,0,0,0,.62-1.1.21.21,0,0,0-.08-.2.56.56,0,0,0-.26,0,1.1,1.1,0,0,1-.75-.32,1.06,1.06,0,0,1-.35-.84,1.1,1.1,0,0,1,.33-.83,1.14,1.14,0,0,1,.8-.32,1.17,1.17,0,0,1,1,.53A2.17,2.17,0,0,1,654.75,287.91Z"/><path class="cls-4" d="M578.39,316.15l-.25.81a4.44,4.44,0,0,0-1.55.59,2.57,2.57,0,0,0-.83.81,1.36,1.36,0,0,0-.25.63.23.23,0,0,0,.08.21.54.54,0,0,0,.26.05,1.11,1.11,0,0,1,.76.31,1.08,1.08,0,0,1,.34.84,1.1,1.1,0,0,1-.33.83,1.13,1.13,0,0,1-.8.32,1.18,1.18,0,0,1-1-.53,2.18,2.18,0,0,1-.36-1.24,3,3,0,0,1,.24-1.13,4.26,4.26,0,0,1,.73-1.13,4.38,4.38,0,0,1,1.24-.91A5.06,5.06,0,0,1,578.39,316.15Zm4.59,0-.25.81a4.37,4.37,0,0,0-1.55.59,2.57,2.57,0,0,0-.83.81,1.36,1.36,0,0,0-.25.63.23.23,0,0,0,.08.21.54.54,0,0,0,.26.05,1.09,1.09,0,0,1,.75.31,1.05,1.05,0,0,1,.35.84,1.1,1.1,0,0,1-.33.83,1.14,1.14,0,0,1-.8.32,1.16,1.16,0,0,1-1-.53,2.18,2.18,0,0,1-.36-1.24,3,3,0,0,1,.24-1.13,4,4,0,0,1,2-2A5.06,5.06,0,0,1,583,316.15Z"/><path class="cls-4" d="M589.39,322.29a2,2,0,0,1-.22.83,3.49,3.49,0,0,1-.8,1,5.28,5.28,0,0,1-1.67.93,10.84,10.84,0,0,1-2.73.55l-.21,0a3.07,3.07,0,0,0-.07.65,1.24,1.24,0,0,0,.31.94,1.31,1.31,0,0,0,.91.28,3.35,3.35,0,0,0,2.52-1.42h.93a6.76,6.76,0,0,1-1.65,1.65,4.35,4.35,0,0,1-2.63.82,2.89,2.89,0,0,1-1.8-.57,1.94,1.94,0,0,1-.76-1.67,5.09,5.09,0,0,1,.75-2.61,5.94,5.94,0,0,1,2-2.07,5.26,5.26,0,0,1,2.81-.79,2.9,2.9,0,0,1,1.75.41A1.29,1.29,0,0,1,589.39,322.29Zm-1.85,0a.79.79,0,0,0-.21-.53.68.68,0,0,0-.55-.24,1.7,1.7,0,0,0-1.13.43,4.18,4.18,0,0,0-.87,1,7.51,7.51,0,0,0-.57,1.18l-.28.74a6.08,6.08,0,0,0,2.7-1A2,2,0,0,0,587.54,322.25Z"/><path class="cls-4" d="M598.06,317.44a.94.94,0,0,1-.25.66.8.8,0,0,1-.62.27.67.67,0,0,1-.57-.24,3.36,3.36,0,0,1-.35-.77.8.8,0,0,0-.16-.32.43.43,0,0,0-.64.08,1.89,1.89,0,0,0-.21.49l-1.06,3.47h1.47l-.25.81h-1.48l-1.53,5a28.38,28.38,0,0,1-1.1,3.07,5.43,5.43,0,0,1-1.38,1.93,3.2,3.2,0,0,1-2.25.8,2.35,2.35,0,0,1-1.5-.42,1.22,1.22,0,0,1-.53-1,1,1,0,0,1,.28-.71,1,1,0,0,1,.73-.31.75.75,0,0,1,.7.29,1.85,1.85,0,0,1,.21.74q.06.6.51.6a.83.83,0,0,0,.74-.5,7.4,7.4,0,0,0,.59-1.52l2.45-8h-1.55l.25-.81h1.55l.16-.56a14.27,14.27,0,0,1,.76-2.09,4.58,4.58,0,0,1,1.22-1.58,3,3,0,0,1,2-.7,2.35,2.35,0,0,1,.87.16,1.63,1.63,0,0,1,.66.44A1.05,1.05,0,0,1,598.06,317.44Z"/><path class="cls-4" d="M602.85,317.44a1,1,0,0,1-.25.66.83.83,0,0,1-.63.27.67.67,0,0,1-.57-.24,3.36,3.36,0,0,1-.35-.77.8.8,0,0,0-.16-.32.36.36,0,0,0-.29-.11.38.38,0,0,0-.35.19,1.89,1.89,0,0,0-.21.49L599,321.08h1.48l-.26.81h-1.48l-1.53,5A31.1,31.1,0,0,1,596.1,330a5.69,5.69,0,0,1-1.38,1.93,3.23,3.23,0,0,1-2.25.8,2.38,2.38,0,0,1-1.51-.42,1.22,1.22,0,0,1-.53-1,1,1,0,0,1,.28-.71,1,1,0,0,1,.73-.31.75.75,0,0,1,.7.29,1.85,1.85,0,0,1,.21.74q.06.6.51.6a.83.83,0,0,0,.74-.5,7.4,7.4,0,0,0,.59-1.52l2.45-8h-1.55l.25-.81h1.55l.16-.56a14.27,14.27,0,0,1,.76-2.09,4.5,4.5,0,0,1,1.23-1.58,3,3,0,0,1,2-.7,2.28,2.28,0,0,1,.87.16,1.51,1.51,0,0,1,.66.44A1.06,1.06,0,0,1,602.85,317.44Z"/><path class="cls-4" d="M605.1,326.17a6.15,6.15,0,0,1-1.08,1.57,2.36,2.36,0,0,1-1.82.8,1.47,1.47,0,0,1-1.11-.37,1.15,1.15,0,0,1-.37-.86,4.7,4.7,0,0,1,.32-1.42l1.14-3.1a1.92,1.92,0,0,0,.16-.57.24.24,0,0,0-.07-.18.29.29,0,0,0-.18-.08c-.2,0-.42.16-.65.47a5.2,5.2,0,0,0-.54.83h-.77a4.58,4.58,0,0,1,1.35-1.79,2.67,2.67,0,0,1,1.66-.64,1.58,1.58,0,0,1,1,.28.92.92,0,0,1,.38.76,2.83,2.83,0,0,1-.19,1l-1.37,3.68a1.72,1.72,0,0,0-.14.61.31.31,0,0,0,.08.21.22.22,0,0,0,.18.1.77.77,0,0,0,.54-.28,4.83,4.83,0,0,0,.71-1Zm.65-8.88a1.14,1.14,0,0,1-.34.81,1.13,1.13,0,0,1-1.62,0,1.13,1.13,0,0,1-.33-.81,1.14,1.14,0,0,1,1.15-1.14,1.06,1.06,0,0,1,.58.16,1.09,1.09,0,0,1,.56,1Z"/><path class="cls-4" d="M613.55,322.67a1.31,1.31,0,0,1-.31.89,1,1,0,0,1-.82.36.87.87,0,0,1-.61-.21.68.68,0,0,1-.24-.54,2.33,2.33,0,0,1,.07-.47,1.2,1.2,0,0,0,.08-.43.58.58,0,0,0-.27-.56,1.27,1.27,0,0,0-.54-.14,1.88,1.88,0,0,0-1.45.84,6.73,6.73,0,0,0-1.05,2,5.87,5.87,0,0,0-.4,1.87q0,.79.39,1a1.49,1.49,0,0,0,.78.22,2.51,2.51,0,0,0,1.44-.43,4.54,4.54,0,0,0,1.1-1h.95a6.06,6.06,0,0,1-1.75,1.7,4.44,4.44,0,0,1-2.51.76,2.72,2.72,0,0,1-1.89-.61,2.08,2.08,0,0,1-.67-1.64,5.31,5.31,0,0,1,.7-2.51,5.85,5.85,0,0,1,2-2.12,4.89,4.89,0,0,1,2.76-.83,2.91,2.91,0,0,1,1,.15,2.07,2.07,0,0,1,.71.41,1.69,1.69,0,0,1,.45.59A1.65,1.65,0,0,1,613.55,322.67Z"/><path class="cls-4" d="M619,326.17a5.85,5.85,0,0,1-1.07,1.57,2.36,2.36,0,0,1-1.83.8,1.46,1.46,0,0,1-1.1-.37,1.15,1.15,0,0,1-.37-.86,4.7,4.7,0,0,1,.32-1.42l1.14-3.1a1.92,1.92,0,0,0,.16-.57.22.22,0,0,0-.08-.18A.25.25,0,0,0,616,322c-.2,0-.42.16-.66.47a5.84,5.84,0,0,0-.53.83H614a4.4,4.4,0,0,1,1.35-1.79,2.67,2.67,0,0,1,1.65-.64,1.59,1.59,0,0,1,1,.28.92.92,0,0,1,.38.76,3.06,3.06,0,0,1-.19,1l-1.38,3.68a2,2,0,0,0-.14.61.32.32,0,0,0,.09.21.21.21,0,0,0,.18.1.79.79,0,0,0,.54-.28,5.23,5.23,0,0,0,.71-1Zm.65-8.88a1.13,1.13,0,0,1-.33.81,1.1,1.1,0,0,1-.8.34,1.08,1.08,0,0,1-.82-.34,1.13,1.13,0,0,1-.33-.81,1.14,1.14,0,0,1,1.15-1.14,1.08,1.08,0,0,1,.58.16,1,1,0,0,1,.4.4A1.11,1.11,0,0,1,619.62,317.29Z"/><path class="cls-4" d="M627.56,322.29a2,2,0,0,1-.22.83,3.49,3.49,0,0,1-.8,1,5.28,5.28,0,0,1-1.67.93,10.84,10.84,0,0,1-2.73.55l-.21,0a3.07,3.07,0,0,0-.07.65,1.24,1.24,0,0,0,.31.94,1.31,1.31,0,0,0,.91.28,3.35,3.35,0,0,0,2.52-1.42h.93a6.76,6.76,0,0,1-1.65,1.65,4.33,4.33,0,0,1-2.63.82,2.89,2.89,0,0,1-1.8-.57,2,2,0,0,1-.76-1.67,5.09,5.09,0,0,1,.75-2.61,5.94,5.94,0,0,1,2-2.07,5.26,5.26,0,0,1,2.81-.79,2.9,2.9,0,0,1,1.75.41A1.29,1.29,0,0,1,627.56,322.29Zm-1.85,0a.79.79,0,0,0-.21-.53.68.68,0,0,0-.55-.24,1.7,1.7,0,0,0-1.13.43,3.93,3.93,0,0,0-.86,1,6.78,6.78,0,0,0-.58,1.18l-.28.74a6.08,6.08,0,0,0,2.7-1A2,2,0,0,0,625.71,322.25Z"/><path class="cls-4" d="M638.09,326a6.67,6.67,0,0,1-.68,1,4.51,4.51,0,0,1-1.09,1,2.52,2.52,0,0,1-1.39.42,1.55,1.55,0,0,1-1-.31,1,1,0,0,1-.38-.84,3.82,3.82,0,0,1,.22-1.1l.64-2.11a4.9,4.9,0,0,0,.27-1.19.61.61,0,0,0-.11-.35.38.38,0,0,0-.33-.16c-.32,0-.71.27-1.17.8a11.57,11.57,0,0,0-1.39,2.16,18.73,18.73,0,0,0-1.22,3h-2.1l1.59-5.15a5.7,5.7,0,0,0,.22-.89.43.43,0,0,0-.06-.22.2.2,0,0,0-.2-.11.82.82,0,0,0-.65.43,5.11,5.11,0,0,0-.54.94H628a5,5,0,0,1,1-1.7,2.33,2.33,0,0,1,1.77-.75,1.32,1.32,0,0,1,1,.37,1.13,1.13,0,0,1,.33.78,4,4,0,0,1-.09.69c-.07.32-.14.61-.22.87l-.31.91a17.17,17.17,0,0,1,2-2.65,2.91,2.91,0,0,1,2.12-1,1.18,1.18,0,0,1,1,.39,1.37,1.37,0,0,1,.31.85,5,5,0,0,1-.21,1.06l-.93,3.06a4,4,0,0,0-.16.8.29.29,0,0,0,.06.17.19.19,0,0,0,.16.08,1.07,1.07,0,0,0,.62-.35,3.78,3.78,0,0,0,.71-.91Z"/><path class="cls-4" d="M644.5,321.08l-.25.81H642.5l-1.33,4.34a2.87,2.87,0,0,0-.14.68.54.54,0,0,0,.12.34.37.37,0,0,0,.31.15,1.11,1.11,0,0,0,.89-.49,7.41,7.41,0,0,0,.7-1.08h.82a5.69,5.69,0,0,1-1.11,1.7,3.32,3.32,0,0,1-1.16.81,3,3,0,0,1-1,.2,1.59,1.59,0,0,1-1.18-.44,1.65,1.65,0,0,1-.42-1.17,4.79,4.79,0,0,1,.27-1.36l1.14-3.68h-1.64l.25-.81h1.64l.8-2.68h2.1l-.81,2.68Z"/><path class="cls-4" d="M650.16,317.91a3.18,3.18,0,0,1-.45,1.55,3.93,3.93,0,0,1-1.32,1.38,4.69,4.69,0,0,1-2.18.71l.26-.81a3.64,3.64,0,0,0,2-.94,1.86,1.86,0,0,0,.62-1.1.23.23,0,0,0-.07-.2.58.58,0,0,0-.27,0,1.1,1.1,0,0,1-.75-.32,1.06,1.06,0,0,1-.35-.84,1.07,1.07,0,0,1,.34-.83,1.13,1.13,0,0,1,.8-.32,1.16,1.16,0,0,1,1,.53A2.1,2.1,0,0,1,650.16,317.91Zm4.59,0a3.18,3.18,0,0,1-.45,1.55,4,4,0,0,1-1.33,1.38,4.61,4.61,0,0,1-2.17.71l.25-.81a3.7,3.7,0,0,0,2-.94,1.83,1.83,0,0,0,.62-1.1.21.21,0,0,0-.08-.2.56.56,0,0,0-.26,0,1.1,1.1,0,0,1-.75-.32,1.06,1.06,0,0,1-.35-.84,1.1,1.1,0,0,1,.33-.83,1.14,1.14,0,0,1,.8-.32,1.17,1.17,0,0,1,1,.53A2.17,2.17,0,0,1,654.75,317.91Z"/><path class="cls-4" d="M580.54,346.15l-.25.81a4.31,4.31,0,0,0-1.54.59,2.62,2.62,0,0,0-.84.81,1.43,1.43,0,0,0-.24.63c0,.11,0,.18.07.21a.59.59,0,0,0,.27.05,1.13,1.13,0,0,1,1.1,1.15,1.07,1.07,0,0,1-.34.83,1.13,1.13,0,0,1-.8.32,1.15,1.15,0,0,1-1-.53,2.11,2.11,0,0,1-.37-1.24,2.82,2.82,0,0,1,.25-1.13,3.82,3.82,0,0,1,.73-1.13,4.19,4.19,0,0,1,1.23-.91A5.06,5.06,0,0,1,580.54,346.15Zm4.6,0-.26.81a4.44,4.44,0,0,0-1.55.59,2.57,2.57,0,0,0-.83.81,1.36,1.36,0,0,0-.25.63.23.23,0,0,0,.08.21.56.56,0,0,0,.27.05,1.11,1.11,0,0,1,1.09,1.15,1.1,1.1,0,0,1-.33.83,1.13,1.13,0,0,1-.8.32,1.18,1.18,0,0,1-1-.53,2.18,2.18,0,0,1-.36-1.24,2.82,2.82,0,0,1,.25-1.13,3.82,3.82,0,0,1,.73-1.13,4.19,4.19,0,0,1,1.23-.91A5.05,5.05,0,0,1,585.14,346.15Z"/><path class="cls-4" d="M591.54,352a1.65,1.65,0,0,1-.3,1,1,1,0,0,1-.78.43,1,1,0,0,1-.77-.47.57.57,0,0,0-.41-.27c-.16,0-.38.15-.65.44a6.82,6.82,0,0,0-.85,1.18,16.75,16.75,0,0,0-.86,1.7,18.17,18.17,0,0,0-.73,1.95l-.11.36H584l1.38-4.93a3.81,3.81,0,0,0,.22-1,.42.42,0,0,0-.06-.21.21.21,0,0,0-.2-.1.94.94,0,0,0-.69.48,5.49,5.49,0,0,0-.53.87h-.81a6.27,6.27,0,0,1,1-1.57,3.09,3.09,0,0,1,1-.78,2.26,2.26,0,0,1,.9-.22.9.9,0,0,1,.91.44,2,2,0,0,1,.21.86,9.46,9.46,0,0,1-.49,2.41c.33-.58.61-1,.82-1.38a8.62,8.62,0,0,1,.77-1.07,4.46,4.46,0,0,1,.94-.91,1.7,1.7,0,0,1,1-.35.94.94,0,0,1,.89.38A1.51,1.51,0,0,1,591.54,352Z"/><path class="cls-4" d="M599.39,352.29a2,2,0,0,1-.22.83,3.32,3.32,0,0,1-.8,1,5.28,5.28,0,0,1-1.67.93,10.84,10.84,0,0,1-2.73.55l-.21,0a3.07,3.07,0,0,0-.07.65,1.24,1.24,0,0,0,.31.94,1.31,1.31,0,0,0,.91.28,3.35,3.35,0,0,0,2.52-1.42h.93a6.76,6.76,0,0,1-1.65,1.65,4.33,4.33,0,0,1-2.63.82,2.89,2.89,0,0,1-1.8-.57,2,2,0,0,1-.75-1.67,5.08,5.08,0,0,1,.74-2.61,5.94,5.94,0,0,1,2-2.07,5.26,5.26,0,0,1,2.81-.79,2.9,2.9,0,0,1,1.75.41A1.29,1.29,0,0,1,599.39,352.29Zm-1.85,0a.79.79,0,0,0-.21-.53.66.66,0,0,0-.55-.24,1.72,1.72,0,0,0-1.13.43,3.93,3.93,0,0,0-.86,1,6.78,6.78,0,0,0-.58,1.18l-.28.74a6.08,6.08,0,0,0,2.7-1A2,2,0,0,0,597.54,352.25Z"/><path class="cls-4" d="M605.61,346.15l-3.08,10.08a4.49,4.49,0,0,0-.24.94.39.39,0,0,0,.07.23.23.23,0,0,0,.19.09c.15,0,.36-.14.63-.41a3.33,3.33,0,0,0,.64-.94h.83a8.15,8.15,0,0,1-1.15,1.61,2.36,2.36,0,0,1-1.81.79,1.45,1.45,0,0,1-1.05-.37,1.14,1.14,0,0,1-.4-.88,5.52,5.52,0,0,1,.27-1.33l2.25-7.33a4.65,4.65,0,0,0,.22-1,.39.39,0,0,0-.25-.4,2.84,2.84,0,0,0-.94-.1l.21-.81h.94c.41,0,.78,0,1.11,0a5.08,5.08,0,0,0,1-.17Z"/><path class="cls-4" d="M610.52,356.17a6.35,6.35,0,0,1-1.07,1.57,2.39,2.39,0,0,1-1.83.8,1.5,1.5,0,0,1-1.11-.37,1.15,1.15,0,0,1-.37-.86,4.48,4.48,0,0,1,.33-1.42l1.13-3.1a2.05,2.05,0,0,0,.17-.57.27.27,0,0,0-.26-.26c-.2,0-.41.16-.65.47a4.47,4.47,0,0,0-.53.83h-.78a4.58,4.58,0,0,1,1.35-1.79,2.72,2.72,0,0,1,1.66-.64,1.54,1.54,0,0,1,1,.28.89.89,0,0,1,.38.76,2.83,2.83,0,0,1-.19,1l-1.37,3.68a2,2,0,0,0-.14.61.37.37,0,0,0,.08.21.24.24,0,0,0,.18.1.79.79,0,0,0,.55-.28,5.29,5.29,0,0,0,.7-1Zm.65-8.88a1.1,1.1,0,0,1-.34.81,1.06,1.06,0,0,1-.79.34,1.1,1.1,0,0,1-.83-.34,1.13,1.13,0,0,1-.33-.81,1.11,1.11,0,0,1,.33-.8,1.14,1.14,0,0,1,.83-.34,1,1,0,0,1,.57.16,1.09,1.09,0,0,1,.56,1Z"/><path class="cls-4" d="M620.22,356.17a6.29,6.29,0,0,1-.57.95,4.24,4.24,0,0,1-.7.76,3.35,3.35,0,0,1-.78.49,2.06,2.06,0,0,1-.81.17,1.18,1.18,0,0,1-1.19-.56,3.19,3.19,0,0,1-.25-1.33,9.76,9.76,0,0,1-1.39,1.36,2.52,2.52,0,0,1-1.57.53,1.31,1.31,0,0,1-.86-.29,1.59,1.59,0,0,1-.5-.77,3.19,3.19,0,0,1-.17-1,5.91,5.91,0,0,1,.61-2.5,6.2,6.2,0,0,1,1.65-2.21,3.36,3.36,0,0,1,2.24-.9,1.47,1.47,0,0,1,.87.22,1.19,1.19,0,0,1,.44.49,3.12,3.12,0,0,1,.2.61l.33-1.1h1.94l-1.63,5.36a4,4,0,0,0-.18.7.3.3,0,0,0,.08.2.23.23,0,0,0,.17.08c.38,0,.79-.41,1.22-1.22Zm-3.28-3.5a1.53,1.53,0,0,0-.16-.74.61.61,0,0,0-.59-.31,1.69,1.69,0,0,0-1.28.76,6.11,6.11,0,0,0-1,1.84,5.47,5.47,0,0,0-.39,1.81c0,.71.23,1.07.67,1.07a1.52,1.52,0,0,0,1-.43,4.72,4.72,0,0,0,.9-1.14,7.22,7.22,0,0,0,.66-1.49A4.56,4.56,0,0,0,616.94,352.67Z"/><path class="cls-4" d="M629.57,353.39a4.4,4.4,0,0,1-.4,1.82,6,6,0,0,1-2.88,2.88,4.74,4.74,0,0,1-2,.45,3.14,3.14,0,0,1-2.2-.72,2.22,2.22,0,0,1-.78-1.68,6.24,6.24,0,0,1,.32-1.69l1.93-6.28a2.45,2.45,0,0,0,.1-.51.38.38,0,0,0-.27-.39,2.23,2.23,0,0,0-.75-.1h-.25l.25-.81a15.42,15.42,0,0,0,3-.21h.58l-1.81,5.92.43-.35a5.08,5.08,0,0,1,.58-.43,3.47,3.47,0,0,1,.75-.31,3.42,3.42,0,0,1,1-.15,2.48,2.48,0,0,1,1.18.29,2.18,2.18,0,0,1,.87.86A2.94,2.94,0,0,1,629.57,353.39Zm-2.16,0a1.72,1.72,0,0,0-.3-1.05,1,1,0,0,0-.89-.41c-1,0-1.76.72-2.39,2.15a8.75,8.75,0,0,0-.47,1.45,5,5,0,0,0-.18,1,1.29,1.29,0,0,0,.32.88,1.2,1.2,0,0,0,.91.35A2.1,2.1,0,0,0,626,357a5,5,0,0,0,1-1.81A5.91,5.91,0,0,0,627.41,353.42Z"/><path class="cls-4" d="M636.18,346.15l-3.07,10.08a4.49,4.49,0,0,0-.24.94.33.33,0,0,0,.07.23.23.23,0,0,0,.18.09c.16,0,.37-.14.64-.41a3.33,3.33,0,0,0,.64-.94h.82a7.76,7.76,0,0,1-1.15,1.61,2.36,2.36,0,0,1-1.8.79,1.49,1.49,0,0,1-1.06-.37,1.17,1.17,0,0,1-.4-.88,5.52,5.52,0,0,1,.27-1.33l2.25-7.33a4,4,0,0,0,.22-1,.38.38,0,0,0-.25-.4,2.73,2.73,0,0,0-.93-.1l.21-.81h.94c.4,0,.77,0,1.11,0a4.84,4.84,0,0,0,1-.17Z"/><path class="cls-4" d="M644.05,352.29a2,2,0,0,1-.22.83,3.49,3.49,0,0,1-.8,1,5.28,5.28,0,0,1-1.67.93,10.84,10.84,0,0,1-2.73.55l-.21,0a3.11,3.11,0,0,0-.08.65,1.24,1.24,0,0,0,.32.94,1.31,1.31,0,0,0,.91.28,3.35,3.35,0,0,0,2.52-1.42H643a6.76,6.76,0,0,1-1.65,1.65,4.35,4.35,0,0,1-2.63.82,2.94,2.94,0,0,1-1.81-.57,2,2,0,0,1-.75-1.67,5.09,5.09,0,0,1,.75-2.61,5.94,5.94,0,0,1,2-2.07,5.26,5.26,0,0,1,2.81-.79,2.9,2.9,0,0,1,1.75.41A1.29,1.29,0,0,1,644.05,352.29Zm-1.86,0a.78.78,0,0,0-.2-.53.68.68,0,0,0-.55-.24,1.7,1.7,0,0,0-1.13.43,4.18,4.18,0,0,0-.87,1,7.51,7.51,0,0,0-.57,1.18l-.28.74a6.08,6.08,0,0,0,2.7-1A2,2,0,0,0,642.19,352.25Z"/><path class="cls-4" d="M650.16,347.91a3.18,3.18,0,0,1-.45,1.55,3.93,3.93,0,0,1-1.32,1.38,4.69,4.69,0,0,1-2.18.71l.26-.81a3.64,3.64,0,0,0,2-.94,1.86,1.86,0,0,0,.62-1.1.23.23,0,0,0-.07-.2.58.58,0,0,0-.27,0,1.1,1.1,0,0,1-.75-.32,1.06,1.06,0,0,1-.35-.84,1.07,1.07,0,0,1,.34-.83,1.13,1.13,0,0,1,.8-.32,1.16,1.16,0,0,1,1,.53A2.1,2.1,0,0,1,650.16,347.91Zm4.59,0a3.18,3.18,0,0,1-.45,1.55,4,4,0,0,1-1.33,1.38,4.61,4.61,0,0,1-2.17.71l.25-.81a3.7,3.7,0,0,0,2-.94,1.83,1.83,0,0,0,.62-1.1.21.21,0,0,0-.08-.2.56.56,0,0,0-.26,0,1.1,1.1,0,0,1-.75-.32,1.06,1.06,0,0,1-.35-.84,1.1,1.1,0,0,1,.33-.83,1.14,1.14,0,0,1,.8-.32,1.17,1.17,0,0,1,1,.53A2.17,2.17,0,0,1,654.75,347.91Z"/><path class="cls-4" d="M240.6,571l-.25.81a4.44,4.44,0,0,0-1.55.59,2.57,2.57,0,0,0-.83.81,1.32,1.32,0,0,0-.25.63.23.23,0,0,0,.08.21.54.54,0,0,0,.26,0,1.13,1.13,0,0,1,.76.31,1.06,1.06,0,0,1,.34.84,1.1,1.1,0,0,1-.33.83,1.13,1.13,0,0,1-.8.32,1.18,1.18,0,0,1-1-.53,2.18,2.18,0,0,1-.36-1.24,3,3,0,0,1,.24-1.13,4.11,4.11,0,0,1,.73-1.13,4.38,4.38,0,0,1,1.24-.91A4.84,4.84,0,0,1,240.6,571Zm4.59,0-.25.81a4.37,4.37,0,0,0-1.55.59,2.57,2.57,0,0,0-.83.81,1.32,1.32,0,0,0-.25.63.23.23,0,0,0,.08.21.54.54,0,0,0,.26,0,1.09,1.09,0,0,1,.75.31,1,1,0,0,1,.35.84,1.1,1.1,0,0,1-.33.83,1.14,1.14,0,0,1-.8.32,1.16,1.16,0,0,1-1-.53,2.18,2.18,0,0,1-.36-1.24,3,3,0,0,1,.24-1.13,4.11,4.11,0,0,1,.73-1.13,4.24,4.24,0,0,1,1.24-.91A4.84,4.84,0,0,1,245.19,571Z"/><path class="cls-4" d="M251.71,571.33l-2.85,9.34a5.24,5.24,0,0,0-.27,1.17.38.38,0,0,0,.18.34.92.92,0,0,0,.45.15,6.34,6.34,0,0,0,.77.06l-.23.77h-5.25l.25-.77h.57a1.89,1.89,0,0,0,.62-.08.69.69,0,0,0,.35-.35,6.27,6.27,0,0,0,.37-1l1.92-6.29.18-.58a2.56,2.56,0,0,0,.11-.55.46.46,0,0,0-.38-.48,3.31,3.31,0,0,0-.88-.11H247l.24-.75c.84-.08,1.47-.15,1.89-.22a5.92,5.92,0,0,0,1-.25,4.89,4.89,0,0,0,.84-.44Z"/><path class="cls-4" d="M261.51,574a9.8,9.8,0,0,1-.32,2.26,14.68,14.68,0,0,1-1,2.83,12.64,12.64,0,0,1-1.74,2.73A4.9,4.9,0,0,1,257,583a3.67,3.67,0,0,1-1.88.47,2.41,2.41,0,0,1-1.19-.26,1.79,1.79,0,0,1-.7-.62,1.43,1.43,0,0,1-.21-.68.79.79,0,0,1,.24-.61.84.84,0,0,1,.59-.23.64.64,0,0,1,.47.18,2.31,2.31,0,0,1,.42.69,4.06,4.06,0,0,0,.32.55.51.51,0,0,0,.4.16c.42,0,.83-.32,1.23-1a21.2,21.2,0,0,0,1.31-2.53c-.33.13-.57.22-.72.26a2.09,2.09,0,0,1-.53.06,2.49,2.49,0,0,1-1.21-.29,2.13,2.13,0,0,1-.9-.93,3.41,3.41,0,0,1-.35-1.62,5.51,5.51,0,0,1,.3-1.71,5.86,5.86,0,0,1,.89-1.74,4.65,4.65,0,0,1,1.48-1.31,3.92,3.92,0,0,1,2-.5,3.12,3.12,0,0,1,1,.17,2.26,2.26,0,0,1,.8.5,2.2,2.2,0,0,1,.51.84A3.49,3.49,0,0,1,261.51,574Zm-1.6-1.08a.85.85,0,0,0-.25-.65.93.93,0,0,0-.69-.24,1.69,1.69,0,0,0-1.53,1.08,16.91,16.91,0,0,0-.93,2.51,8.83,8.83,0,0,0-.45,2.06,1,1,0,0,0,.26.74.93.93,0,0,0,.71.27,1.41,1.41,0,0,0,.7-.21,1.68,1.68,0,0,0,.58-.54,4.25,4.25,0,0,0,.35-.63,6.18,6.18,0,0,0,.29-.78c.1-.3.31-1,.64-2.1A6,6,0,0,0,259.91,572.94Z"/><path class="cls-4" d="M270.51,574a9.8,9.8,0,0,1-.32,2.26,14.68,14.68,0,0,1-1,2.83,12.64,12.64,0,0,1-1.74,2.73A4.9,4.9,0,0,1,266,583a3.67,3.67,0,0,1-1.88.47,2.41,2.41,0,0,1-1.19-.26,1.79,1.79,0,0,1-.7-.62,1.43,1.43,0,0,1-.21-.68.79.79,0,0,1,.24-.61.84.84,0,0,1,.59-.23.64.64,0,0,1,.47.18,2.31,2.31,0,0,1,.42.69,4.06,4.06,0,0,0,.32.55.51.51,0,0,0,.4.16c.42,0,.83-.32,1.23-1a21.2,21.2,0,0,0,1.31-2.53c-.33.13-.57.22-.72.26a2.09,2.09,0,0,1-.53.06,2.49,2.49,0,0,1-1.21-.29,2.13,2.13,0,0,1-.9-.93,3.41,3.41,0,0,1-.35-1.62,5.51,5.51,0,0,1,.3-1.71,5.86,5.86,0,0,1,.89-1.74,4.65,4.65,0,0,1,1.48-1.31,3.92,3.92,0,0,1,2-.5,3.12,3.12,0,0,1,1,.17,2.26,2.26,0,0,1,.8.5,2.2,2.2,0,0,1,.51.84A3.49,3.49,0,0,1,270.51,574Zm-1.6-1.08a.85.85,0,0,0-.25-.65.93.93,0,0,0-.69-.24,1.69,1.69,0,0,0-1.53,1.08,16.91,16.91,0,0,0-.93,2.51,8.83,8.83,0,0,0-.45,2.06,1,1,0,0,0,.26.74.93.93,0,0,0,.71.27,1.41,1.41,0,0,0,.7-.21,1.68,1.68,0,0,0,.58-.54,4.25,4.25,0,0,0,.35-.63,6.18,6.18,0,0,0,.29-.78c.1-.3.31-1,.64-2.1A6,6,0,0,0,268.91,572.94Z"/><path class="cls-4" d="M279.36,574.25a13.17,13.17,0,0,1-.32,2.49,16.27,16.27,0,0,1-1,3.07,7.73,7.73,0,0,1-1.76,2.57,3.57,3.57,0,0,1-2.55,1,2.08,2.08,0,0,1-2.05-1,4.4,4.4,0,0,1-.51-2.07,13.15,13.15,0,0,1,.49-3.09,14.12,14.12,0,0,1,1.47-3.61,7.05,7.05,0,0,1,.83-1.1,4.47,4.47,0,0,1,1.21-.89,3.58,3.58,0,0,1,1.65-.37,2.36,2.36,0,0,1,1.34.34,2.16,2.16,0,0,1,.77.85,2.87,2.87,0,0,1,.33.94A5.91,5.91,0,0,1,279.36,574.25ZM277.71,573a1,1,0,0,0-.23-.69.78.78,0,0,0-.65-.28,1.31,1.31,0,0,0-1,.48,3.36,3.36,0,0,0-.61.91,22.43,22.43,0,0,0-1,2.66c-.4,1.19-.74,2.31-1,3.37a10.17,10.17,0,0,0-.43,2.09,1.84,1.84,0,0,0,.19.72.78.78,0,0,0,.79.39q1,0,1.62-1.56c.16-.39.37-1,.66-1.87s.55-1.71.8-2.56.47-1.62.64-2.31A7,7,0,0,0,277.71,573Z"/><path class="cls-4" d="M287.4,577.2a.92.92,0,0,1-.24.63.81.81,0,0,1-.66.28.84.84,0,0,1-.5-.13.79.79,0,0,1-.28-.34c-.06-.15-.15-.36-.25-.65a1.08,1.08,0,0,0-.27-.47,1.11,1.11,0,0,0-.7-.16,1.51,1.51,0,0,0-.82.23.72.72,0,0,0-.37.63.94.94,0,0,0,.15.5,2.21,2.21,0,0,0,.37.45c.14.14.36.34.67.6a8.72,8.72,0,0,1,1.25,1.18,1.84,1.84,0,0,1,.39,1.2,2,2,0,0,1-.33,1.1,2.42,2.42,0,0,1-1.11.84,5.12,5.12,0,0,1-2,.33,3.65,3.65,0,0,1-2.43-.64,1.78,1.78,0,0,1-.71-1.24,1,1,0,0,1,.28-.69.92.92,0,0,1,.72-.3c.6,0,.94.38,1,1.15a1.63,1.63,0,0,0,.27.78,1.09,1.09,0,0,0,.89.28,1.49,1.49,0,0,0,1-.29,1,1,0,0,0,.38-.77,1,1,0,0,0-.13-.48,2.16,2.16,0,0,0-.53-.58c-.47-.4-.87-.75-1.17-1.06a3.8,3.8,0,0,1-.7-.88,1.74,1.74,0,0,1-.24-.88,1.85,1.85,0,0,1,.27-.9,2.39,2.39,0,0,1,1-.85,4.86,4.86,0,0,1,2.05-.36,5.68,5.68,0,0,1,1.34.14,2.54,2.54,0,0,1,.84.37,1.25,1.25,0,0,1,.4.48A1.11,1.11,0,0,1,287.4,577.2Z"/><path class="cls-4" d="M293.51,572.79a3.18,3.18,0,0,1-.45,1.55,4,4,0,0,1-1.32,1.38,4.69,4.69,0,0,1-2.18.71l.25-.81a3.64,3.64,0,0,0,2-.94,1.86,1.86,0,0,0,.63-1.1.23.23,0,0,0-.07-.2.56.56,0,0,0-.27,0,1.13,1.13,0,0,1-1.1-1.15,1.07,1.07,0,0,1,.34-.83,1.11,1.11,0,0,1,.8-.32,1.16,1.16,0,0,1,1,.53A2.17,2.17,0,0,1,293.51,572.79Zm4.58,0a3.16,3.16,0,0,1-.44,1.55,4.05,4.05,0,0,1-1.33,1.38,4.65,4.65,0,0,1-2.17.71l.25-.81a3.64,3.64,0,0,0,2-1,1.84,1.84,0,0,0,.62-1.09.23.23,0,0,0-.08-.2.54.54,0,0,0-.26,0,1.13,1.13,0,0,1-1.1-1.15,1.1,1.1,0,0,1,.33-.83,1.14,1.14,0,0,1,.8-.32,1.17,1.17,0,0,1,1,.53A2.16,2.16,0,0,1,298.09,572.79Z"/><path class="cls-4" d="M240.6,601l-.25.81a4.44,4.44,0,0,0-1.55.59,2.57,2.57,0,0,0-.83.81,1.32,1.32,0,0,0-.25.63.23.23,0,0,0,.08.21.54.54,0,0,0,.26,0,1.13,1.13,0,0,1,.76.31,1.06,1.06,0,0,1,.34.84,1.1,1.1,0,0,1-.33.83,1.13,1.13,0,0,1-.8.32,1.18,1.18,0,0,1-1-.53,2.18,2.18,0,0,1-.36-1.24,3,3,0,0,1,.24-1.13,4.11,4.11,0,0,1,.73-1.13,4.38,4.38,0,0,1,1.24-.91A4.84,4.84,0,0,1,240.6,601Zm4.59,0-.25.81a4.37,4.37,0,0,0-1.55.59,2.57,2.57,0,0,0-.83.81,1.32,1.32,0,0,0-.25.63.23.23,0,0,0,.08.21.54.54,0,0,0,.26,0,1.09,1.09,0,0,1,.75.31,1,1,0,0,1,.35.84,1.1,1.1,0,0,1-.33.83,1.14,1.14,0,0,1-.8.32,1.16,1.16,0,0,1-1-.53,2.18,2.18,0,0,1-.36-1.24,3,3,0,0,1,.24-1.13,4.11,4.11,0,0,1,.73-1.13,4.24,4.24,0,0,1,1.24-.91A4.84,4.84,0,0,1,245.19,601Z"/><path class="cls-4" d="M251.47,607.54a1.36,1.36,0,0,1-.31.9,1.05,1.05,0,0,1-.83.36.89.89,0,0,1-.61-.21.71.71,0,0,1-.23-.54,1.78,1.78,0,0,1,.07-.47,1.46,1.46,0,0,0,.08-.43.57.57,0,0,0-.28-.56,1.09,1.09,0,0,0-.54-.14,1.88,1.88,0,0,0-1.44.84,6.51,6.51,0,0,0-1.06,2,6,6,0,0,0-.39,1.87c0,.53.13.87.38,1a1.55,1.55,0,0,0,.79.22,2.51,2.51,0,0,0,1.44-.43,4.54,4.54,0,0,0,1.1-1h1a6.19,6.19,0,0,1-1.75,1.7,4.44,4.44,0,0,1-2.51.76,2.72,2.72,0,0,1-1.89-.61,2.1,2.1,0,0,1-.67-1.64,5.16,5.16,0,0,1,.7-2.51,5.91,5.91,0,0,1,1.95-2.12,4.86,4.86,0,0,1,2.76-.83,2.82,2.82,0,0,1,1,.15,2.12,2.12,0,0,1,.72.41,1.69,1.69,0,0,1,.45.59A1.64,1.64,0,0,1,251.47,607.54Z"/><path class="cls-4" d="M260.43,608.8a4.39,4.39,0,0,1-.34,1.71,4.72,4.72,0,0,1-1,1.5,4.79,4.79,0,0,1-1.54,1,4.85,4.85,0,0,1-1.93.38,4,4,0,0,1-1.81-.4,3,3,0,0,1-1.22-1.13,3.22,3.22,0,0,1-.43-1.65,4.21,4.21,0,0,1,.65-2.23,4.87,4.87,0,0,1,1.78-1.68,4.92,4.92,0,0,1,2.42-.62,3.87,3.87,0,0,1,1.86.42,3,3,0,0,1,1.18,1.14A3.17,3.17,0,0,1,260.43,608.8Zm-2.08-.61a2.11,2.11,0,0,0-.35-1.28,1.19,1.19,0,0,0-1-.46,1.67,1.67,0,0,0-1.18.49,4.16,4.16,0,0,0-.86,1.23,8.1,8.1,0,0,0-.52,1.5,5.58,5.58,0,0,0-.17,1.29,2.07,2.07,0,0,0,.34,1.24,1.12,1.12,0,0,0,1,.48,1.76,1.76,0,0,0,1.23-.49,3.87,3.87,0,0,0,.88-1.22,7.26,7.26,0,0,0,.51-1.51A6.27,6.27,0,0,0,258.35,608.19Z"/><path class="cls-4" d="M267.17,601l-3.08,10.08a4.62,4.62,0,0,0-.24.93.43.43,0,0,0,.07.24.23.23,0,0,0,.19.09c.15,0,.36-.14.63-.41a3.33,3.33,0,0,0,.64-.94h.83a7.82,7.82,0,0,1-1.15,1.6,2.34,2.34,0,0,1-1.81.8,1.49,1.49,0,0,1-1.05-.37,1.14,1.14,0,0,1-.4-.88,5.52,5.52,0,0,1,.27-1.33l2.25-7.33a4.65,4.65,0,0,0,.22-1,.39.39,0,0,0-.25-.4,2.84,2.84,0,0,0-.94-.1l.21-.81h.94c.41,0,.78,0,1.11,0a6,6,0,0,0,1-.17Z"/><path class="cls-4" d="M277.68,601l-3.12,10.12a4.33,4.33,0,0,0-.2.88.26.26,0,0,0,.29.3,1,1,0,0,0,.62-.32,3.71,3.71,0,0,0,.64-.88h.84a4.53,4.53,0,0,1-.54.91,3.94,3.94,0,0,1-1,1,2.31,2.31,0,0,1-1.36.42c-1,0-1.52-.55-1.52-1.64a.37.37,0,0,1,0-.11v-.13a5.66,5.66,0,0,1-.83.89,4.83,4.83,0,0,1-1.12.71,3,3,0,0,1-1.24.28,1.77,1.77,0,0,1-1.44-.61,2.32,2.32,0,0,1-.5-1.52,5.42,5.42,0,0,1,.39-2,6.55,6.55,0,0,1,1.07-1.8,5.13,5.13,0,0,1,1.57-1.3,3.81,3.81,0,0,1,1.86-.49,1.93,1.93,0,0,1,1.11.26,2.68,2.68,0,0,1,.64.66l1-3.43a2.51,2.51,0,0,0,.18-.66.4.4,0,0,0-.14-.34.86.86,0,0,0-.39-.13l-.69,0,.21-.81,1.41,0a7.77,7.77,0,0,0,.83-.06,7.11,7.11,0,0,0,.75-.12Zm-4.29,6.67a1.45,1.45,0,0,0-.3-.94,1,1,0,0,0-.78-.37,2,2,0,0,0-1.47.77,6,6,0,0,0-1.12,1.84,5.34,5.34,0,0,0-.42,1.91,1.1,1.1,0,0,0,.29.85,1,1,0,0,0,.69.27,1.94,1.94,0,0,0,1.15-.43,4.48,4.48,0,0,0,1-1.12,7,7,0,0,0,.68-1.41A4.53,4.53,0,0,0,273.39,607.7Z"/><path class="cls-4" d="M283,602.79a3.27,3.27,0,0,1-.44,1.55,4.05,4.05,0,0,1-1.33,1.38,4.65,4.65,0,0,1-2.17.71l.25-.81a3.71,3.71,0,0,0,2-.94,1.86,1.86,0,0,0,.63-1.1.23.23,0,0,0-.08-.2.54.54,0,0,0-.26,0,1.13,1.13,0,0,1-.76-.31,1.08,1.08,0,0,1-.34-.84,1.1,1.1,0,0,1,.33-.83,1.13,1.13,0,0,1,.8-.32,1.18,1.18,0,0,1,1,.53A2.17,2.17,0,0,1,283,602.79Zm4.59,0a3.27,3.27,0,0,1-.44,1.55,4.05,4.05,0,0,1-1.33,1.38,4.65,4.65,0,0,1-2.18.71l.26-.81a3.71,3.71,0,0,0,2-1,1.84,1.84,0,0,0,.62-1.09.23.23,0,0,0-.08-.2.59.59,0,0,0-.27,0,1.11,1.11,0,0,1-1.09-1.15,1.1,1.1,0,0,1,.33-.83,1.13,1.13,0,0,1,.8-.32,1.14,1.14,0,0,1,1,.53A2.17,2.17,0,0,1,287.6,602.79Z"/><path class="cls-4" d="M240.6,631l-.25.81a4.44,4.44,0,0,0-1.55.59,2.57,2.57,0,0,0-.83.81,1.32,1.32,0,0,0-.25.63.23.23,0,0,0,.08.21.54.54,0,0,0,.26,0,1.13,1.13,0,0,1,.76.31,1.06,1.06,0,0,1,.34.84,1.1,1.1,0,0,1-.33.83,1.13,1.13,0,0,1-.8.32,1.18,1.18,0,0,1-1-.53,2.18,2.18,0,0,1-.36-1.24,3,3,0,0,1,.24-1.13,4.11,4.11,0,0,1,.73-1.13,4.38,4.38,0,0,1,1.24-.91A4.84,4.84,0,0,1,240.6,631Zm4.59,0-.25.81a4.37,4.37,0,0,0-1.55.59,2.57,2.57,0,0,0-.83.81,1.32,1.32,0,0,0-.25.63.23.23,0,0,0,.08.21.54.54,0,0,0,.26,0,1.09,1.09,0,0,1,.75.31,1,1,0,0,1,.35.84,1.1,1.1,0,0,1-.33.83,1.14,1.14,0,0,1-.8.32,1.16,1.16,0,0,1-1-.53,2.18,2.18,0,0,1-.36-1.24,3,3,0,0,1,.24-1.13,4.11,4.11,0,0,1,.73-1.13,4.24,4.24,0,0,1,1.24-.91A4.84,4.84,0,0,1,245.19,631Z"/><path class="cls-4" d="M248.65,641.05a6.15,6.15,0,0,1-1.08,1.57,2.36,2.36,0,0,1-1.82.8,1.53,1.53,0,0,1-1.11-.37,1.16,1.16,0,0,1-.37-.87,4.43,4.43,0,0,1,.33-1.41l1.13-3.1a2.05,2.05,0,0,0,.17-.57.25.25,0,0,0-.08-.18.27.27,0,0,0-.18-.08c-.2,0-.42.16-.65.47a5.2,5.2,0,0,0-.54.83h-.77a4.69,4.69,0,0,1,1.35-1.8,2.74,2.74,0,0,1,1.66-.63,1.58,1.58,0,0,1,1,.28.92.92,0,0,1,.38.76,2.78,2.78,0,0,1-.19,1l-1.37,3.69a1.67,1.67,0,0,0-.14.61.31.31,0,0,0,.08.21.24.24,0,0,0,.18.1.79.79,0,0,0,.55-.28,5.63,5.63,0,0,0,.7-1Zm.65-8.88a1.14,1.14,0,0,1-.34.81,1.12,1.12,0,0,1-.8.34,1.14,1.14,0,0,1-1.15-1.15,1.11,1.11,0,0,1,.33-.8,1.09,1.09,0,0,1,.82-.34,1.06,1.06,0,0,1,.58.16,1.09,1.09,0,0,1,.56,1Z"/><path class="cls-4" d="M265.94,640.84c-.88,1.63-2,2.44-3.22,2.44a1.39,1.39,0,0,1-1-.37,1.13,1.13,0,0,1-.38-.83,3.6,3.6,0,0,1,.2-1l.68-2.19a4.39,4.39,0,0,0,.24-1,.7.7,0,0,0-.19-.5.72.72,0,0,0-.51-.18,2.37,2.37,0,0,0-1.58.81,8.9,8.9,0,0,0-1.56,2.12,14.17,14.17,0,0,0-1.12,2.6l-.12.41h-2.09l1.35-4.41a3.18,3.18,0,0,0,.16-.85.76.76,0,0,0-.15-.48.58.58,0,0,0-.49-.2,2,2,0,0,0-1.25.52,6.24,6.24,0,0,0-1.22,1.35,14.59,14.59,0,0,0-1.05,1.83,15,15,0,0,0-.79,2l-.09.29h-2.09l1.54-5a6.47,6.47,0,0,0,.25-1,.31.31,0,0,0-.1-.23.29.29,0,0,0-.19-.08.64.64,0,0,0-.32.12,2,2,0,0,0-.43.41,4.92,4.92,0,0,0-.49.84h-.78a5.07,5.07,0,0,1,1.1-1.7,2.39,2.39,0,0,1,1.8-.75,1.89,1.89,0,0,1,.7.13,1.16,1.16,0,0,1,.53.42,1.28,1.28,0,0,1,.2.73,6.31,6.31,0,0,1-.29,1.49l-.26.85a13.08,13.08,0,0,1,1.06-1.52,8.08,8.08,0,0,1,1.17-1.17,4.77,4.77,0,0,1,1.16-.71,2.87,2.87,0,0,1,1.09-.22,1.76,1.76,0,0,1,1.2.38,1.23,1.23,0,0,1,.47,1,5.68,5.68,0,0,1-.28,1.38l-.23.78a11.75,11.75,0,0,1,1.2-1.69,6.41,6.41,0,0,1,1.52-1.33,3.45,3.45,0,0,1,1.81-.53,1.65,1.65,0,0,1,.93.23,1.39,1.39,0,0,1,.53.55,1.46,1.46,0,0,1,.17.64,2,2,0,0,1-.05.46c0,.13-.1.41-.23.82l-.84,2.72a3.16,3.16,0,0,0-.17.69c0,.2.09.29.28.29a1.09,1.09,0,0,0,.6-.26,3.23,3.23,0,0,0,.8-1Z"/><path class="cls-4" d="M275.78,638.32a5,5,0,0,1-.36,1.84,5.49,5.49,0,0,1-1,1.64,5.1,5.1,0,0,1-1.51,1.18,4,4,0,0,1-1.83.44,2.55,2.55,0,0,1-1.23-.26,2.92,2.92,0,0,1-.81-.69l-.94,3.08a2.18,2.18,0,0,0-.13.53.4.4,0,0,0,.31.4,3.32,3.32,0,0,0,1,.1h.43l-.23.77H263.9l.23-.77h.35a3.06,3.06,0,0,0,.87-.09.7.7,0,0,0,.41-.32,5.46,5.46,0,0,0,.35-.92l2.29-7.49a2.14,2.14,0,0,0,.12-.63.45.45,0,0,0-.08-.26.23.23,0,0,0-.2-.12.89.89,0,0,0-.55.32,3.73,3.73,0,0,0-.67,1.12h-.84a10.26,10.26,0,0,1,.52-1.05,3.42,3.42,0,0,1,.88-1,2.19,2.19,0,0,1,1.41-.46,1.31,1.31,0,0,1,1.48,1.49,4,4,0,0,1,2.86-1.49,2.24,2.24,0,0,1,2.24,1.49A3.34,3.34,0,0,1,275.78,638.32Zm-2.16-.21a1.74,1.74,0,0,0-.29-1,.91.91,0,0,0-.81-.43,1.71,1.71,0,0,0-1.18.54,4.86,4.86,0,0,0-1,1.37,6.54,6.54,0,0,0-.46,1.06,7.72,7.72,0,0,0-.27,1,3.29,3.29,0,0,0-.1.73,1.45,1.45,0,0,0,.34,1,1.13,1.13,0,0,0,.92.41,1.85,1.85,0,0,0,1.47-.8,5.65,5.65,0,0,0,1-1.9A6.72,6.72,0,0,0,273.62,638.11Z"/><path class="cls-4" d="M285.74,641.05a6.29,6.29,0,0,1-.57,1,4.69,4.69,0,0,1-.71.76,3.16,3.16,0,0,1-.78.49,2.06,2.06,0,0,1-.81.17c-.61,0-1-.19-1.18-.56a3.19,3.19,0,0,1-.26-1.33,9.27,9.27,0,0,1-1.39,1.36,2.51,2.51,0,0,1-1.56.53,1.28,1.28,0,0,1-.86-.29,1.69,1.69,0,0,1-.51-.77,3.19,3.19,0,0,1-.16-1,6,6,0,0,1,.6-2.5,6.58,6.58,0,0,1,1.65-2.22,3.44,3.44,0,0,1,2.25-.89,1.47,1.47,0,0,1,.87.22,1.16,1.16,0,0,1,.43.49,3.94,3.94,0,0,1,.21.61l.32-1.1h2l-1.64,5.36a4.28,4.28,0,0,0-.17.7.25.25,0,0,0,.07.19.21.21,0,0,0,.17.08c.38,0,.79-.4,1.22-1.21Zm-3.28-3.51a1.64,1.64,0,0,0-.16-.73.61.61,0,0,0-.6-.31,1.71,1.71,0,0,0-1.28.76,6.33,6.33,0,0,0-1,1.84,5.69,5.69,0,0,0-.38,1.81c0,.71.22,1.06.67,1.06a1.46,1.46,0,0,0,1-.42,4.45,4.45,0,0,0,.9-1.14,7.27,7.27,0,0,0,.67-1.49A5,5,0,0,0,282.46,637.54Z"/><path class="cls-4" d="M294,637.54a1.31,1.31,0,0,1-.31.9,1,1,0,0,1-.82.36.87.87,0,0,1-.61-.21.68.68,0,0,1-.24-.54,1.84,1.84,0,0,1,.08-.47,1.42,1.42,0,0,0,.07-.43.58.58,0,0,0-.27-.56,1.14,1.14,0,0,0-.54-.14,1.85,1.85,0,0,0-1.44.84,6.3,6.3,0,0,0-1.06,2,6,6,0,0,0-.39,1.87c0,.53.12.87.38,1a1.49,1.49,0,0,0,.78.22,2.57,2.57,0,0,0,1.45-.43,4.49,4.49,0,0,0,1.09-1h1a6.06,6.06,0,0,1-1.75,1.7,4.42,4.42,0,0,1-2.51.76,2.75,2.75,0,0,1-1.89-.61,2.13,2.13,0,0,1-.67-1.64,5.18,5.18,0,0,1,.71-2.51,5.91,5.91,0,0,1,1.95-2.12,4.82,4.82,0,0,1,2.76-.83,2.86,2.86,0,0,1,1,.15,2,2,0,0,1,.71.41,1.69,1.69,0,0,1,.45.59A1.64,1.64,0,0,1,294,637.54Z"/><path class="cls-4" d="M300.41,636l-.24.81h-1.75l-1.33,4.34a2.55,2.55,0,0,0-.15.68.5.5,0,0,0,.13.34.37.37,0,0,0,.3.15,1.12,1.12,0,0,0,.9-.49,7.61,7.61,0,0,0,.69-1.08h.83a5.82,5.82,0,0,1-1.11,1.7,3.32,3.32,0,0,1-1.16.81,3,3,0,0,1-1,.2,1.58,1.58,0,0,1-1.18-.44,1.65,1.65,0,0,1-.42-1.17,5.22,5.22,0,0,1,.26-1.37l1.15-3.67h-1.65L295,636h1.63l.81-2.68h2.09l-.81,2.68Z"/><path class="cls-4" d="M308.41,637.17a2,2,0,0,1-.22.83,3.18,3.18,0,0,1-.8,1,5.09,5.09,0,0,1-1.67.94,10.65,10.65,0,0,1-2.73.55l-.21,0a3.07,3.07,0,0,0-.07.65,1.2,1.2,0,0,0,.31.93,1.31,1.31,0,0,0,.91.29,3.38,3.38,0,0,0,2.52-1.42h.93a6.76,6.76,0,0,1-1.65,1.65,4.33,4.33,0,0,1-2.63.82,2.89,2.89,0,0,1-1.8-.57,2,2,0,0,1-.75-1.67,5.17,5.17,0,0,1,.74-2.61,5.94,5.94,0,0,1,2-2.07,5.27,5.27,0,0,1,2.82-.79,2.82,2.82,0,0,1,1.74.41A1.27,1.27,0,0,1,308.41,637.17Zm-1.85,0a.83.83,0,0,0-.2-.53.7.7,0,0,0-.56-.24,1.76,1.76,0,0,0-1.13.42,4,4,0,0,0-.86,1,6.78,6.78,0,0,0-.58,1.18l-.28.74a6.08,6.08,0,0,0,2.7-1A2,2,0,0,0,306.56,637.13Z"/><path class="cls-4" d="M319.5,631l-3.12,10.12a4.83,4.83,0,0,0-.19.88.26.26,0,0,0,.29.3,1,1,0,0,0,.62-.32,4,4,0,0,0,.64-.88h.84a4.53,4.53,0,0,1-.54.91,4,4,0,0,1-1,1,2.28,2.28,0,0,1-1.35.42c-1,0-1.52-.55-1.52-1.64v-.11a.53.53,0,0,0,0-.13,5.31,5.31,0,0,1-.84.89,4.57,4.57,0,0,1-1.11.71,3.06,3.06,0,0,1-1.24.28,1.77,1.77,0,0,1-1.44-.61,2.27,2.27,0,0,1-.5-1.52,5.42,5.42,0,0,1,.39-2,6.52,6.52,0,0,1,1.06-1.8,5.28,5.28,0,0,1,1.58-1.3,3.81,3.81,0,0,1,1.86-.49,2,2,0,0,1,1.11.26,2.87,2.87,0,0,1,.64.66l1-3.43a2.51,2.51,0,0,0,.18-.66.38.38,0,0,0-.15-.34.81.81,0,0,0-.38-.13l-.69,0,.21-.81,1.41,0a8,8,0,0,0,.83-.06,7.11,7.11,0,0,0,.75-.12Zm-4.28,6.67a1.45,1.45,0,0,0-.3-.94,1,1,0,0,0-.79-.37,2,2,0,0,0-1.46.77,6,6,0,0,0-1.12,1.84,5.34,5.34,0,0,0-.42,1.91,1.1,1.1,0,0,0,.29.85,1,1,0,0,0,.68.27,1.94,1.94,0,0,0,1.16-.43,4.27,4.27,0,0,0,1-1.12,6.1,6.1,0,0,0,.68-1.41A4.28,4.28,0,0,0,315.22,637.7Z"/><path class="cls-4" d="M324.84,632.79a3.27,3.27,0,0,1-.44,1.55,4.05,4.05,0,0,1-1.33,1.38,4.69,4.69,0,0,1-2.18.71l.26-.81a3.71,3.71,0,0,0,2-.94,1.86,1.86,0,0,0,.63-1.1.23.23,0,0,0-.08-.2.56.56,0,0,0-.27,0,1.13,1.13,0,0,1-1.1-1.15,1.11,1.11,0,0,1,.34-.83,1.13,1.13,0,0,1,.8-.32,1.15,1.15,0,0,1,1,.53A2.1,2.1,0,0,1,324.84,632.79Zm4.59,0a3.18,3.18,0,0,1-.45,1.55,3.93,3.93,0,0,1-1.32,1.38,4.69,4.69,0,0,1-2.18.71l.26-.81a3.64,3.64,0,0,0,2-1,1.79,1.79,0,0,0,.62-1.09.21.21,0,0,0-.08-.2.54.54,0,0,0-.26,0,1.13,1.13,0,0,1-1.1-1.15,1.07,1.07,0,0,1,.34-.83,1.13,1.13,0,0,1,.8-.32,1.15,1.15,0,0,1,1,.53A2.17,2.17,0,0,1,329.43,632.79Z"/><path class="cls-4" d="M240.6,661l-.25.81a4.44,4.44,0,0,0-1.55.59,2.57,2.57,0,0,0-.83.81,1.32,1.32,0,0,0-.25.63.23.23,0,0,0,.08.21.54.54,0,0,0,.26,0,1.13,1.13,0,0,1,.76.31,1.06,1.06,0,0,1,.34.84,1.1,1.1,0,0,1-.33.83,1.13,1.13,0,0,1-.8.32,1.18,1.18,0,0,1-1-.53,2.18,2.18,0,0,1-.36-1.24,3,3,0,0,1,.24-1.13,4.11,4.11,0,0,1,.73-1.13,4.38,4.38,0,0,1,1.24-.91A4.84,4.84,0,0,1,240.6,661Zm4.59,0-.25.81a4.37,4.37,0,0,0-1.55.59,2.57,2.57,0,0,0-.83.81,1.32,1.32,0,0,0-.25.63.23.23,0,0,0,.08.21.54.54,0,0,0,.26,0,1.09,1.09,0,0,1,.75.31,1,1,0,0,1,.35.84,1.1,1.1,0,0,1-.33.83,1.14,1.14,0,0,1-.8.32,1.16,1.16,0,0,1-1-.53,2.18,2.18,0,0,1-.36-1.24,3,3,0,0,1,.24-1.13,4.11,4.11,0,0,1,.73-1.13,4.24,4.24,0,0,1,1.24-.91A4.84,4.84,0,0,1,245.19,661Z"/><path class="cls-4" d="M249.37,661l-3.08,10.08a4.62,4.62,0,0,0-.24.93.43.43,0,0,0,.07.24.23.23,0,0,0,.19.09c.15,0,.36-.14.63-.41a3.14,3.14,0,0,0,.64-.94h.83a7.82,7.82,0,0,1-1.15,1.6,2.33,2.33,0,0,1-1.8.8,1.52,1.52,0,0,1-1.06-.37,1.14,1.14,0,0,1-.4-.88,5.52,5.52,0,0,1,.27-1.33l2.25-7.33a4,4,0,0,0,.22-1,.38.38,0,0,0-.25-.4,2.84,2.84,0,0,0-.94-.1l.21-.81h.94c.41,0,.78,0,1.11,0a5.64,5.64,0,0,0,1-.17Z"/><path class="cls-4" d="M257.82,668.8a4.39,4.39,0,0,1-.34,1.71,4.72,4.72,0,0,1-1,1.5,4.79,4.79,0,0,1-1.54,1,4.85,4.85,0,0,1-1.93.38,4,4,0,0,1-1.81-.4,3,3,0,0,1-1.22-1.13,3.22,3.22,0,0,1-.43-1.65,4.21,4.21,0,0,1,.65-2.23,4.92,4.92,0,0,1,1.77-1.68,5,5,0,0,1,2.43-.62,3.87,3.87,0,0,1,1.86.42,3,3,0,0,1,1.18,1.14A3.17,3.17,0,0,1,257.82,668.8Zm-2.08-.61a2.11,2.11,0,0,0-.35-1.28,1.19,1.19,0,0,0-1-.46,1.67,1.67,0,0,0-1.18.49,4.16,4.16,0,0,0-.86,1.23,8.1,8.1,0,0,0-.52,1.5,5.58,5.58,0,0,0-.17,1.29,2.07,2.07,0,0,0,.34,1.24,1.12,1.12,0,0,0,1,.48,1.77,1.77,0,0,0,1.24-.49,3.87,3.87,0,0,0,.88-1.22,7.26,7.26,0,0,0,.51-1.51A6.27,6.27,0,0,0,255.74,668.19Z"/><path class="cls-4" d="M272.6,667.2a5.55,5.55,0,0,1-.42,2,8.83,8.83,0,0,1-1.17,2,6.29,6.29,0,0,1-1.71,1.56,3.67,3.67,0,0,1-2,.6,2.11,2.11,0,0,1-2-1.45,14,14,0,0,1-1.74,1,4.45,4.45,0,0,1-1.92.47,2.07,2.07,0,0,1-1.38-.5,1.68,1.68,0,0,1-.59-1.38,2.27,2.27,0,0,1,.23-1,3.32,3.32,0,0,1,.59-.85,12.4,12.4,0,0,1,1-.94c.15-.13.32-.29.51-.49a4.62,4.62,0,0,0,.35-.39c.05-.06.11-.16.2-.3s.15-.26.19-.35a4.71,4.71,0,0,1-.59.3,1.25,1.25,0,0,1-.54.12,1.83,1.83,0,0,1-.86-.26,1.39,1.39,0,0,0-.56-.19c-.24,0-.42.17-.54.52h-.74c.43-1.31,1-2,1.8-2a2.25,2.25,0,0,1,1.31.63,1,1,0,0,0,.55.23.39.39,0,0,0,.32-.14,1.37,1.37,0,0,0,.2-.42.36.36,0,0,1,.37-.3.32.32,0,0,1,.36.36,3,3,0,0,1-.38,1.21,9.76,9.76,0,0,1-.61,1.13l-.56,1c-.13.24-.24.46-.33.65a4.89,4.89,0,0,0-.19.58,2.22,2.22,0,0,0-.07.57.9.9,0,0,0,.31.76,1.11,1.11,0,0,0,.72.25,4.22,4.22,0,0,0,2.41-.93,6,6,0,0,1-.11-.92,6.29,6.29,0,0,1,.19-1.37,8.05,8.05,0,0,1,.56-1.53,4.23,4.23,0,0,1,.88-1.24,1.6,1.6,0,0,1,1.12-.48,1,1,0,0,1,.83.45,1.82,1.82,0,0,1,.31,1,5,5,0,0,1-2,3.52c.33.93.85,1.39,1.55,1.39a2.05,2.05,0,0,0,1.38-.56,4.14,4.14,0,0,0,1-1.39,3.91,3.91,0,0,0,.36-1.56,6.93,6.93,0,0,0-.24-1.39,1.54,1.54,0,0,1-.06-.43,1.09,1.09,0,0,1,.26-.77.74.74,0,0,1,.57-.27.75.75,0,0,1,.65.4A2.12,2.12,0,0,1,272.6,667.2Zm-4.39,0a.93.93,0,0,0-.14-.49.45.45,0,0,0-.4-.23c-.32,0-.58.23-.79.69a4.22,4.22,0,0,0-.31,1.75,5.21,5.21,0,0,0,.1,1,8.81,8.81,0,0,0,1.06-1.27A2.54,2.54,0,0,0,268.21,667.18Z"/><path class="cls-4" d="M281.42,667.17a2,2,0,0,1-.22.83,3.18,3.18,0,0,1-.8,1,5.09,5.09,0,0,1-1.67.94,10.84,10.84,0,0,1-2.73.55l-.21,0a3.07,3.07,0,0,0-.07.65,1.2,1.2,0,0,0,.31.93,1.31,1.31,0,0,0,.91.29,3.38,3.38,0,0,0,2.52-1.42h.93a6.76,6.76,0,0,1-1.65,1.65,4.33,4.33,0,0,1-2.63.82,2.89,2.89,0,0,1-1.8-.57,2,2,0,0,1-.75-1.67,5.08,5.08,0,0,1,.74-2.61,5.94,5.94,0,0,1,2-2.07,5.26,5.26,0,0,1,2.81-.79,2.83,2.83,0,0,1,1.75.41A1.27,1.27,0,0,1,281.42,667.17Zm-1.85,0a.79.79,0,0,0-.21-.53.66.66,0,0,0-.55-.24,1.74,1.74,0,0,0-1.13.42,4,4,0,0,0-.86,1,6.78,6.78,0,0,0-.58,1.18l-.28.74a6.08,6.08,0,0,0,2.7-1A2,2,0,0,0,279.57,667.13Z"/><path class="cls-4" d="M289.87,666.86a1.61,1.61,0,0,1-.31,1,.93.93,0,0,1-.77.42,1,1,0,0,1-.78-.46.57.57,0,0,0-.41-.27c-.16,0-.37.14-.65.44a6.82,6.82,0,0,0-.85,1.18,18.84,18.84,0,0,0-.86,1.69,17,17,0,0,0-.72,2l-.11.36h-2.07l1.38-4.93a3.9,3.9,0,0,0,.22-1,.42.42,0,0,0-.06-.21.2.2,0,0,0-.19-.1c-.23,0-.46.16-.7.48a4.72,4.72,0,0,0-.52.87h-.81a6.55,6.55,0,0,1,1-1.57,3.11,3.11,0,0,1,1-.78,2.19,2.19,0,0,1,.9-.22c.47,0,.77.14.91.44a2,2,0,0,1,.21.86,9.59,9.59,0,0,1-.5,2.41c.34-.58.61-1,.83-1.38a9.36,9.36,0,0,1,.76-1.08,4.65,4.65,0,0,1,.94-.9,1.65,1.65,0,0,1,1-.35,1,1,0,0,1,.9.38A1.58,1.58,0,0,1,289.87,666.86Z"/><path class="cls-4" d="M302.12,667.54a1.31,1.31,0,0,1-.31.9,1,1,0,0,1-.82.36.85.85,0,0,1-.61-.21.68.68,0,0,1-.24-.54,2.33,2.33,0,0,1,.07-.47,1.2,1.2,0,0,0,.08-.43.57.57,0,0,0-.28-.56,1.09,1.09,0,0,0-.54-.14,1.88,1.88,0,0,0-1.44.84,6.51,6.51,0,0,0-1.06,2,6,6,0,0,0-.39,1.87c0,.53.13.87.38,1a1.55,1.55,0,0,0,.79.22,2.51,2.51,0,0,0,1.44-.43,4.54,4.54,0,0,0,1.1-1h.95a6.19,6.19,0,0,1-1.75,1.7,4.44,4.44,0,0,1-2.51.76,2.72,2.72,0,0,1-1.89-.61,2.1,2.1,0,0,1-.67-1.64,5.16,5.16,0,0,1,.7-2.51,5.91,5.91,0,0,1,1.95-2.12,4.86,4.86,0,0,1,2.76-.83,2.93,2.93,0,0,1,1,.15,2.17,2.17,0,0,1,.71.41,1.69,1.69,0,0,1,.45.59A1.64,1.64,0,0,1,302.12,667.54Z"/><path class="cls-4" d="M308.26,661l-3.07,10.08a4.62,4.62,0,0,0-.24.93.36.36,0,0,0,.07.24.23.23,0,0,0,.18.09c.16,0,.37-.14.64-.41a3.33,3.33,0,0,0,.64-.94h.83a7.88,7.88,0,0,1-1.16,1.6,2.33,2.33,0,0,1-1.8.8,1.54,1.54,0,0,1-1.06-.37,1.17,1.17,0,0,1-.4-.88,5.19,5.19,0,0,1,.28-1.33l2.25-7.33a4.65,4.65,0,0,0,.22-1,.39.39,0,0,0-.26-.4,2.73,2.73,0,0,0-.93-.1l.21-.81h.94c.4,0,.77,0,1.11,0a6,6,0,0,0,1-.17Z"/><path class="cls-4" d="M317.25,671.05a5.6,5.6,0,0,1-.58,1,4.24,4.24,0,0,1-.7.76,3.35,3.35,0,0,1-.78.49,2.06,2.06,0,0,1-.81.17c-.61,0-1-.19-1.18-.56a3.19,3.19,0,0,1-.26-1.33,9.27,9.27,0,0,1-1.39,1.36,2.51,2.51,0,0,1-1.56.53,1.32,1.32,0,0,1-.87-.29,1.75,1.75,0,0,1-.5-.77,3.19,3.19,0,0,1-.16-1,6,6,0,0,1,.6-2.5,6.58,6.58,0,0,1,1.65-2.22,3.42,3.42,0,0,1,2.25-.89,1.47,1.47,0,0,1,.87.22,1.16,1.16,0,0,1,.43.49,3.94,3.94,0,0,1,.21.61l.32-1.1h1.95l-1.64,5.36a3.37,3.37,0,0,0-.17.7.25.25,0,0,0,.07.19.21.21,0,0,0,.17.08c.38,0,.79-.4,1.22-1.21ZM314,667.54a1.51,1.51,0,0,0-.17-.73.59.59,0,0,0-.59-.31,1.71,1.71,0,0,0-1.28.76,6.33,6.33,0,0,0-1,1.84,5.69,5.69,0,0,0-.38,1.81c0,.71.22,1.06.67,1.06a1.48,1.48,0,0,0,.95-.42,4.45,4.45,0,0,0,.9-1.14,6.73,6.73,0,0,0,.66-1.49A4.66,4.66,0,0,0,314,667.54Z"/><path class="cls-4" d="M325.48,667.2a.92.92,0,0,1-.24.63.81.81,0,0,1-.66.28.79.79,0,0,1-.49-.13.73.73,0,0,1-.28-.34c-.07-.15-.15-.36-.25-.65a1,1,0,0,0-.28-.47,1.11,1.11,0,0,0-.7-.16,1.53,1.53,0,0,0-.82.23.74.74,0,0,0-.37.63.94.94,0,0,0,.15.5,2.21,2.21,0,0,0,.37.45c.14.14.37.34.67.6a8.72,8.72,0,0,1,1.25,1.18,1.84,1.84,0,0,1,.39,1.2,2,2,0,0,1-.33,1.1,2.37,2.37,0,0,1-1.11.84,5,5,0,0,1-2,.33,3.66,3.66,0,0,1-2.44-.64,1.76,1.76,0,0,1-.7-1.24,1,1,0,0,1,.27-.69.92.92,0,0,1,.72-.3c.6,0,.94.38,1,1.15a1.54,1.54,0,0,0,.28.78,1.07,1.07,0,0,0,.89.28,1.48,1.48,0,0,0,1-.29.92.92,0,0,0,.38-.77,1.07,1.07,0,0,0-.12-.48,2.44,2.44,0,0,0-.54-.58c-.47-.4-.86-.75-1.17-1.06a3.8,3.8,0,0,1-.7-.88,1.74,1.74,0,0,1-.24-.88,1.77,1.77,0,0,1,.28-.9,2.29,2.29,0,0,1,1-.85,4.86,4.86,0,0,1,2-.36,5.62,5.62,0,0,1,1.34.14,2.54,2.54,0,0,1,.84.37,1.39,1.39,0,0,1,.41.48A1.25,1.25,0,0,1,325.48,667.2Z"/><path class="cls-4" d="M333.73,667.2a.93.93,0,0,1-.25.63.81.81,0,0,1-.65.28.82.82,0,0,1-.5-.13.79.79,0,0,1-.28-.34c-.07-.15-.15-.36-.25-.65a1,1,0,0,0-.28-.47,1.09,1.09,0,0,0-.7-.16,1.56,1.56,0,0,0-.82.23.73.73,0,0,0-.36.63.94.94,0,0,0,.15.5,2.54,2.54,0,0,0,.36.45l.67.6a8.37,8.37,0,0,1,1.26,1.18,1.84,1.84,0,0,1,.39,1.2,2,2,0,0,1-.34,1.1,2.39,2.39,0,0,1-1.1.84,5.12,5.12,0,0,1-2,.33,3.68,3.68,0,0,1-2.44-.64,1.8,1.8,0,0,1-.7-1.24,1,1,0,0,1,.27-.69,1,1,0,0,1,.72-.3c.6,0,1,.38,1,1.15a1.63,1.63,0,0,0,.28.78,1.07,1.07,0,0,0,.89.28,1.51,1.51,0,0,0,1-.29,1,1,0,0,0,.38-.77,1.08,1.08,0,0,0-.13-.48,2.35,2.35,0,0,0-.53-.58c-.48-.4-.87-.75-1.18-1.06a3.73,3.73,0,0,1-.69-.88,1.74,1.74,0,0,1-.24-.88,1.85,1.85,0,0,1,.27-.9,2.33,2.33,0,0,1,1-.85,4.83,4.83,0,0,1,2-.36,5.59,5.59,0,0,1,1.33.14,2.36,2.36,0,0,1,.84.37,1.29,1.29,0,0,1,.41.48A1.11,1.11,0,0,1,333.73,667.2Z"/><path class="cls-4" d="M339.83,662.79a3.16,3.16,0,0,1-.44,1.55,4.05,4.05,0,0,1-1.33,1.38,4.65,4.65,0,0,1-2.17.71l.25-.81a3.67,3.67,0,0,0,2-.94,1.86,1.86,0,0,0,.63-1.1.23.23,0,0,0-.07-.2.56.56,0,0,0-.27,0,1.09,1.09,0,0,1-.75-.31,1.05,1.05,0,0,1-.35-.84,1.1,1.1,0,0,1,.33-.83,1.14,1.14,0,0,1,.8-.32,1.16,1.16,0,0,1,1,.53A2.17,2.17,0,0,1,339.83,662.79Zm4.59,0a3.27,3.27,0,0,1-.44,1.55,4.05,4.05,0,0,1-1.33,1.38,4.65,4.65,0,0,1-2.17.71l.25-.81a3.64,3.64,0,0,0,2-1,1.84,1.84,0,0,0,.62-1.09.23.23,0,0,0-.08-.2.54.54,0,0,0-.26,0,1.13,1.13,0,0,1-.76-.31,1.08,1.08,0,0,1-.34-.84,1.1,1.1,0,0,1,.33-.83,1.13,1.13,0,0,1,.8-.32,1.17,1.17,0,0,1,1,.53A2.24,2.24,0,0,1,344.42,662.79Z"/><path class="cls-4" d="M240.6,691l-.25.81a4.44,4.44,0,0,0-1.55.59,2.57,2.57,0,0,0-.83.81,1.32,1.32,0,0,0-.25.63.23.23,0,0,0,.08.21.54.54,0,0,0,.26,0,1.13,1.13,0,0,1,.76.31,1.06,1.06,0,0,1,.34.84,1.1,1.1,0,0,1-.33.83,1.13,1.13,0,0,1-.8.32,1.18,1.18,0,0,1-1-.53,2.18,2.18,0,0,1-.36-1.24,3,3,0,0,1,.24-1.13,4.11,4.11,0,0,1,.73-1.13,4.38,4.38,0,0,1,1.24-.91A4.84,4.84,0,0,1,240.6,691Zm4.59,0-.25.81a4.37,4.37,0,0,0-1.55.59,2.57,2.57,0,0,0-.83.81,1.32,1.32,0,0,0-.25.63.23.23,0,0,0,.08.21.54.54,0,0,0,.26,0,1.09,1.09,0,0,1,.75.31,1,1,0,0,1,.35.84,1.1,1.1,0,0,1-.33.83,1.14,1.14,0,0,1-.8.32,1.16,1.16,0,0,1-1-.53,2.18,2.18,0,0,1-.36-1.24,3,3,0,0,1,.24-1.13,4.11,4.11,0,0,1,.73-1.13,4.24,4.24,0,0,1,1.24-.91A4.84,4.84,0,0,1,245.19,691Z"/><path class="cls-4" d="M252.19,698.8a4.4,4.4,0,0,1-.35,1.71,4.69,4.69,0,0,1-1,1.5,4.87,4.87,0,0,1-3.48,1.41,4,4,0,0,1-1.81-.4,3,3,0,0,1-1.21-1.13,3.12,3.12,0,0,1-.43-1.65,4.21,4.21,0,0,1,.65-2.23,4.77,4.77,0,0,1,1.77-1.68,5,5,0,0,1,2.42-.62,3.94,3.94,0,0,1,1.87.42,2.92,2.92,0,0,1,1.17,1.14A3.07,3.07,0,0,1,252.19,698.8Zm-2.08-.61a2.11,2.11,0,0,0-.35-1.28,1.19,1.19,0,0,0-1-.46,1.64,1.64,0,0,0-1.17.49,3.82,3.82,0,0,0-.86,1.23,7.43,7.43,0,0,0-.52,1.5A5.66,5.66,0,0,0,246,701a2.14,2.14,0,0,0,.34,1.24,1.13,1.13,0,0,0,1,.48,1.76,1.76,0,0,0,1.23-.49,3.72,3.72,0,0,0,.88-1.22,6.76,6.76,0,0,0,.52-1.51A6.27,6.27,0,0,0,250.11,698.19Z"/><path class="cls-4" d="M258.92,691l-3.07,10.08a4.62,4.62,0,0,0-.24.93.36.36,0,0,0,.07.24.23.23,0,0,0,.18.09c.16,0,.37-.14.64-.41a3.33,3.33,0,0,0,.64-.94H258a7.46,7.46,0,0,1-1.15,1.6,2.33,2.33,0,0,1-1.8.8,1.54,1.54,0,0,1-1.06-.37,1.14,1.14,0,0,1-.4-.88,5.52,5.52,0,0,1,.27-1.33l2.25-7.33a4,4,0,0,0,.22-1,.38.38,0,0,0-.25-.4,2.77,2.77,0,0,0-.93-.1l.21-.81h.94c.4,0,.77,0,1.11,0a5.71,5.71,0,0,0,.95-.17Z"/><path class="cls-4" d="M269.43,691l-3.12,10.12a4.06,4.06,0,0,0-.19.88.26.26,0,0,0,.29.3A.93.93,0,0,0,267,702a3.46,3.46,0,0,0,.65-.87h.84a4.53,4.53,0,0,1-.54.91,4,4,0,0,1-1,1,2.3,2.3,0,0,1-1.35.42c-1,0-1.52-.55-1.52-1.64v-.11a.53.53,0,0,0,0-.13,5.75,5.75,0,0,1-.84.89,4.57,4.57,0,0,1-1.11.71,3.06,3.06,0,0,1-1.24.28,1.77,1.77,0,0,1-1.44-.61,2.27,2.27,0,0,1-.51-1.52,5.24,5.24,0,0,1,.4-2,6.52,6.52,0,0,1,1.06-1.8,5.16,5.16,0,0,1,1.58-1.3,3.78,3.78,0,0,1,1.86-.49A2,2,0,0,1,265,696a2.87,2.87,0,0,1,.64.66l1-3.43a2.51,2.51,0,0,0,.18-.66.38.38,0,0,0-.15-.34.86.86,0,0,0-.38-.13l-.69,0,.21-.81,1.41,0a8,8,0,0,0,.83-.06,7.11,7.11,0,0,0,.75-.12Zm-4.29,6.67a1.5,1.5,0,0,0-.29-.94,1,1,0,0,0-.79-.37,2,2,0,0,0-1.46.77,5.85,5.85,0,0,0-1.12,1.84,5.34,5.34,0,0,0-.42,1.91,1.07,1.07,0,0,0,.29.85,1,1,0,0,0,.68.27,1.94,1.94,0,0,0,1.16-.43,4.27,4.27,0,0,0,1-1.12,6.1,6.1,0,0,0,.68-1.41A4.24,4.24,0,0,0,265.14,697.7Z"/><path class="cls-4" d="M274.77,692.79a3.18,3.18,0,0,1-.45,1.55,3.93,3.93,0,0,1-1.32,1.38,4.69,4.69,0,0,1-2.18.71l.26-.81a3.71,3.71,0,0,0,2-.94,1.83,1.83,0,0,0,.62-1.1.23.23,0,0,0-.07-.2.56.56,0,0,0-.27,0,1.13,1.13,0,0,1-1.1-1.15,1.07,1.07,0,0,1,.34-.83,1.13,1.13,0,0,1,.8-.32,1.16,1.16,0,0,1,1,.53A2.1,2.1,0,0,1,274.77,692.79Zm4.59,0a3.18,3.18,0,0,1-.45,1.55,4,4,0,0,1-1.33,1.38,4.61,4.61,0,0,1-2.17.71l.25-.81a3.64,3.64,0,0,0,2-1,1.79,1.79,0,0,0,.62-1.09.21.21,0,0,0-.08-.2.54.54,0,0,0-.26,0,1.13,1.13,0,0,1-1.1-1.15,1.07,1.07,0,0,1,.34-.83A1.1,1.1,0,0,1,278,691a1.17,1.17,0,0,1,1,.53A2.17,2.17,0,0,1,279.36,692.79Z"/><line class="cls-5" x1="680.09" y1="-51.3" x2="680.09" y2="400.09"/><line class="cls-6" x1="680.09" y1="405.04" x2="680.09" y2="405.16"/><line class="cls-7" x1="210" y1="-300.05" x2="210" y2="157.69"/><line class="cls-7" x1="205.38" y1="523.97" x2="205.38" y2="896"/><line class="cls-7" x1="532.5" y1="756.31" x2="532.5" y2="1621.54"/><path class="cls-2" d="M685.2,436.73v17H675v-17H660.16v-9.26H675V411.15H685.2v16.32H700v9.26Z"/><path class="cls-4" d="M210.5,499.7H185.45v-9.26h39.87v9.26Z"/><path class="cls-4" d="M209.73,418.61h-5.62l-.06,2.18a3.71,3.71,0,0,1,1.26-.16c2.86,0,4.9,1.78,4.9,4.68,0,3.2-2.3,5.06-5.4,5.06a4.56,4.56,0,0,1-4.79-3.62l3.15-.72a1.9,1.9,0,0,0,1.94,1.7,2,2,0,0,0,2.1-2.12c0-1.86-1.7-2.34-3.26-2.34a9.29,9.29,0,0,0-2.94.52l.16-7.82h8.56Z"/><path class="cls-4" d="M217.1,416h3.4l2.27,9.08h0l3-9.08h2.9l2.94,9.32h0L234,416h3.16l-4.14,14.16h-2.78l-3.12-9.8h0l-3.12,9.8h-2.68Z"/><path class="cls-4" d="M245.47,415.61c4.42,0,7.64,2.9,7.64,7.44s-3.22,7.44-7.64,7.44-7.65-2.9-7.65-7.44S241,415.61,245.47,415.61Zm0,12a4.56,4.56,0,1,0-4.41-4.56A4.27,4.27,0,0,0,245.47,427.61Z"/><path class="cls-4" d="M255.22,416h5.49c2.9,0,5.34,1,5.34,4.3a3.65,3.65,0,0,1-3.06,3.88l3.6,6h-3.74l-3-5.66h-1.55v5.66h-3.12Zm3.12,5.86h1.85c1.14,0,2.62,0,2.62-1.58s-1.29-1.64-2.42-1.64h-2.05Z"/><path class="cls-4" d="M268.18,416h4.68c4.57,0,8.39,1.94,8.39,7.12,0,4.58-3.74,7-8,7h-5.1Zm3.12,11.28h1.63c2.9,0,5.08-1.1,5.08-4.32,0-2.78-2.22-4.08-4.86-4.08H271.3Z"/><path class="cls-4" d="M290.37,419.43a3,3,0,0,0-2.26-.94c-.88,0-2.1.4-2.1,1.46,0,2.58,6.52.92,6.52,5.88,0,3.16-2.54,4.66-5.47,4.66a6.74,6.74,0,0,1-4.76-1.78l2.22-2.44a3.49,3.49,0,0,0,2.73,1.34c1,0,2.16-.48,2.16-1.48,0-2.6-6.65-1.2-6.65-5.92,0-3,2.63-4.6,5.41-4.6a6.4,6.4,0,0,1,4.34,1.48Z"/><line class="cls-7" x1="70.4" y1="970.31" x2="995.49" y2="525.43"/><line class="cls-7" x1="70.4" y1="231.88" x2="995.49" y2="-212.99"/></g></svg>