<svg id="Layer_1" data-name="Layer 1" xmlns="http://www.w3.org/2000/svg" viewBox="0 0 1065 1666.97"><defs><style>.cls-1{fill:#80332a;}.cls-2{fill:#e5dbdb;}.cls-3{fill:#3c3c3c;}.cls-4{fill:#63332a;}.cls-5,.cls-9{fill:none;}.cls-5{stroke:#80332a;stroke-linecap:round;stroke-linejoin:round;stroke-width:3px;stroke-dasharray:0.25 10;}.cls-6,.cls-8{fill:#fff;}.cls-6,.cls-7,.cls-9{stroke:#000;}.cls-6,.cls-7,.cls-8,.cls-9{stroke-miterlimit:10;}.cls-7{fill:#ddd;}.cls-8{stroke:#231f20;}.cls-10{fill-rule:evenodd;}</style></defs><title>CCSF</title><g id="Previous_bg" data-name="Previous bg"><polygon class="cls-1" points="20 136.32 20 106.93 144.57 136.32 95.92 200 20 136.32"/><path class="cls-2" d="M970.92,20h-875V1467.8c349.86-35.66,469-362.09,812.89-362.09h62.11Z"/><path class="cls-3" d="M921.26,246.36v1.8L911.06,251v0l10.2,3v2l-10.2,3v0l10.2,2.81v1.8l-12.75-3.71v-1.82l10.41-3.1v0l-10.41-3.08v-1.82Z"/><path class="cls-3" d="M917,265v1.62h-8.53V265Zm4.25.81a1.19,1.19,0,1,1-1.19-1.19A1.2,1.2,0,0,1,921.29,265.82Z"/><path class="cls-3" d="M917,269.2v1.62h-1.31v0a2.9,2.9,0,0,1,1.53,2.56,2.41,2.41,0,0,1-.11.72l-1.75-.07a2.84,2.84,0,0,0,.13-.8c0-1.58-.86-2.45-2.74-2.45h-4.28V269.2Z"/><path class="cls-3" d="M912.18,276.77a2.68,2.68,0,0,0-2.48,2.88A2.94,2.94,0,0,0,911,282l-.93,1.22a4.47,4.47,0,0,1-1.75-3.78,4.24,4.24,0,0,1,4.49-4.39,4.32,4.32,0,0,1,4.48,4.41c0,3-2.31,4.16-4.5,4.16h-.58Zm1.3,5.11a2.31,2.31,0,0,0,2.48-2.47,2.63,2.63,0,0,0-2.48-2.64Z"/><path class="cls-3" d="M915.64,286.18v-1.84H917v1.84H919c2.27,0,3.39.79,3.39,2.92a4.87,4.87,0,0,1-.13,1.2l-1.44-.18a2.21,2.21,0,0,0,.16-.92c0-1.18-.74-1.38-1.93-1.38h-2v1.92h-1.4V287.8h-7.13v-1.62Z"/><path class="cls-3" d="M917,291.54v1.62h-1.31v0a2.88,2.88,0,0,1,1.53,2.56,2.41,2.41,0,0,1-.11.72l-1.75-.08a2.83,2.83,0,0,0,.13-.79c0-1.58-.86-2.45-2.74-2.45h-4.28v-1.62Z"/><path class="cls-3" d="M916,298.24a5.07,5.07,0,0,1,1.26,3.38c0,2.52-1.37,3.57-2.85,3.57h-4.35a14.09,14.09,0,0,0-1.55.07v-1.44c.43,0,.86-.05,1.29-.05v0a3.26,3.26,0,0,1-1.51-3c0-1.58.9-2.95,2.56-2.95,2.19,0,2.95,2.1,2.95,4.7v1.19h.36a1.84,1.84,0,0,0,1.8-2,3.54,3.54,0,0,0-1-2.43Zm-3.39,4.57c0-1.53-.27-3.4-1.64-3.4-1,0-1.38.72-1.38,1.83a2.31,2.31,0,0,0,2.48,2.44h.54Z"/><path class="cls-3" d="M917,307.54v1.52h-1.33v0a3.05,3.05,0,0,1,1.55,2.74,2.76,2.76,0,0,1-1.59,2.66,3.09,3.09,0,0,1,1.59,2.71c0,2.62-1.87,3.24-3.78,3.24h-5v-1.62h4.75c1.3,0,2.49-.28,2.49-1.84s-1.07-2.18-2.58-2.18h-4.66v-1.62H913c1.62,0,2.78-.23,2.78-1.8,0-1.17-.89-2.22-2.81-2.22h-4.43v-1.62Z"/><path class="cls-3" d="M912.18,324.1A2.69,2.69,0,0,0,909.7,327a2.94,2.94,0,0,0,1.27,2.34l-.93,1.22a4.47,4.47,0,0,1-1.75-3.78,4.24,4.24,0,0,1,4.49-4.39,4.32,4.32,0,0,1,4.48,4.41c0,3-2.31,4.16-4.5,4.16h-.58Zm1.3,5.12a2.31,2.31,0,0,0,2.48-2.47,2.64,2.64,0,0,0-2.48-2.65Z"/><path class="cls-3" d="M921.26,338.31v4.48c0,3.26-2,4.09-3.57,4.09a3.43,3.43,0,0,1-3.37-3.14l-5.81,3.62V345.2l5.62-3.24V340h-5.62v-1.72ZM915.64,340v2.27c0,1.37.32,2.74,2.05,2.74s2-1.37,2-2.74V340Z"/><path class="cls-3" d="M917.26,353a4.49,4.49,0,1,1-4.48-4.53A4.49,4.49,0,0,1,917.26,353Zm-7.46,0a3,3,0,1,0,3-2.81A2.74,2.74,0,0,0,909.8,353Z"/><path class="cls-3" d="M908.51,367.14v-1.62h1.31v0a3,3,0,0,1-1.53-2.81,3,3,0,0,1,3.26-3.1H917v1.62h-5c-1.6,0-2.2.92-2.2,1.95,0,1.35.87,2.37,2.85,2.37H917v1.62Z"/><path class="cls-3" d="M917,369.59v1.62h-1.31v0a3,3,0,0,1,1.53,2.8,3,3,0,0,1-3.26,3.1h-5.49v-1.62h5c1.6,0,2.2-.92,2.2-1.94,0-1.35-.87-2.38-2.85-2.38h-4.39v-1.62Z"/><path class="cls-3" d="M908.51,388.15v-1.62h1.22v0a3.64,3.64,0,0,1-1.44-3,4.49,4.49,0,0,1,9,0,3.56,3.56,0,0,1-1.44,3v0h6.3v1.62Zm4.27-1.62a2.81,2.81,0,1,0-3-2.81A2.74,2.74,0,0,0,912.78,386.53Z"/><path class="cls-3" d="M910.34,395.2l5.08,5.12a3.88,3.88,0,0,0,2.61,1.4,2,2,0,0,0,2-2.2,2.25,2.25,0,0,0-2-2.32l.17-1.87c2.25.34,3.31,2,3.31,4.21s-1.19,4-3.53,4c-1.67,0-2.88-1.08-4-2.22L910,397.15v6.41h-1.51V395.2Z"/><path class="cls-2" d="M970.92-647.7H908.81c-343.85,0-463,326.44-812.89,362.09l-.92.1.92,367.63h875V-647.7Z"/><path class="cls-4" d="M970,73.43V10.54H843.4C780.74,10.54,745,73.43,745,73.43Z"/><path class="cls-4" d="M20,73.43v62.9H646.49c62.67,0,98.46-62.9,98.46-62.9Z"/></g><g id="Competitor"><g id="Competitor_1" data-name="Competitor 1"><line class="cls-5" x1="295" y1="1427.05" x2="295" y2="1664.28"/><line class="cls-5" x1="390" y1="1427.05" x2="390" y2="1664.28"/><line class="cls-5" x1="485" y1="1427.05" x2="485" y2="1664.28"/><line class="cls-5" x1="580" y1="1427.05" x2="580" y2="1664.28"/><line class="cls-5" x1="675" y1="1427.05" x2="675" y2="1664.28"/><line class="cls-5" x1="770" y1="1427.05" x2="770" y2="1664.28"/></g></g><g id="homepage"><rect class="cls-6" x="210.03" y="248.23" width="644.94" height="1246.26"/><rect class="cls-6" x="241.76" y="942.27" width="172.96" height="135.99"/><rect class="cls-7" x="272.42" y="995.94" width="111.63" height="8.58"/><rect class="cls-7" x="272.42" y="1012.67" width="111.63" height="8.58"/><path d="M288.77,970.08h2.1c1.17,0,2.14.37,2.14,1.71s-.9,1.73-2.08,1.73H290v2.2h-1.25Zm1.25,2.39h.83c.43,0,.87-.15.87-.68s-.59-.66-1.07-.66H290Z"/><path d="M293.64,971.85h1.2v.62h0a1.19,1.19,0,0,1,1.12-.72,1.75,1.75,0,0,1,.4,0v1.09a1.81,1.81,0,0,0-.51-.08c-.91,0-1,.53-1,1.3v1.62h-1.2Z"/><path d="M298.89,971.75a2,2,0,1,1-2.15,2A2,2,0,0,1,298.89,971.75Zm0,3a1,1,0,1,0-.95-1A.91.91,0,0,0,298.89,974.76Z"/><path d="M303.93,973a.85.85,0,0,0-.69-.32c-.2,0-.44.09-.44.32,0,.57,2,.08,2,1.56,0,1-1,1.27-1.79,1.27a2.12,2.12,0,0,1-1.52-.52l.73-.81a1,1,0,0,0,.84.42c.27,0,.54-.07.54-.27,0-.63-2-.1-2-1.57,0-.91.81-1.31,1.62-1.31a2,2,0,0,1,1.44.51Z"/><path d="M305.54,971.85h1.1v.51h0a1.48,1.48,0,0,1,1.18-.61,1.86,1.86,0,0,1,1.91,2,1.89,1.89,0,0,1-1.77,2.06,1.43,1.43,0,0,1-1.23-.51h0v2.23h-1.2Zm2.06,2.91a1,1,0,1,0-1-1A.91.91,0,0,0,307.6,974.76Z"/><path d="M314.11,975.05a2.11,2.11,0,0,1-1.63.76,2,2,0,1,1,0-4.06,1.81,1.81,0,0,1,1.82,2v.38h-2.78a.89.89,0,0,0,.9.74,1,1,0,0,0,.86-.47Zm-1-1.71a.72.72,0,0,0-.73-.73.81.81,0,0,0-.85.73Z"/><path d="M317.64,973.1a.73.73,0,0,0-.59-.3,1,1,0,0,0,0,2,.77.77,0,0,0,.59-.29l.79.82a1.93,1.93,0,0,1-1.38.52,2,2,0,1,1,0-4.06,2,2,0,0,1,1.38.52Z"/><path d="M321.5,972.8h-1.06v1.29c0,.42.05.72.57.72a.93.93,0,0,0,.49-.11v1a2.41,2.41,0,0,1-.84.12c-.8,0-1.41-.32-1.41-1.17V972.8h-.77v-.95h.77V970.7h1.19v1.15h1.06Z"/><path d="M322.71,969.93a.7.7,0,1,1-.69.7A.7.7,0,0,1,322.71,969.93Zm-.59,1.92h1.19v3.87h-1.19Z"/><path d="M323.77,971.85h1.29l1,2.62h0l.91-2.62h1.2l-1.53,3.87h-1.26Z"/><path d="M332.26,975.05a2.11,2.11,0,0,1-1.63.76,2,2,0,1,1,0-4.06,1.81,1.81,0,0,1,1.82,2v.38h-2.77a.88.88,0,0,0,.9.74,1,1,0,0,0,.85-.47Zm-1-1.71a.72.72,0,0,0-.73-.73.79.79,0,0,0-.84.73Z"/><path d="M338.47,971.45a1.22,1.22,0,0,0-.9-.37c-.35,0-.84.16-.84.58,0,1,2.6.37,2.6,2.34,0,1.26-1,1.86-2.18,1.86a2.64,2.64,0,0,1-1.89-.71l.88-1a1.4,1.4,0,0,0,1.09.53c.4,0,.86-.19.86-.59,0-1-2.65-.47-2.65-2.35a1.94,1.94,0,0,1,2.15-1.84,2.56,2.56,0,0,1,1.73.59Z"/><path d="M342.74,972.8h-1.05v1.29c0,.42,0,.72.56.72a.93.93,0,0,0,.49-.11v1a2.38,2.38,0,0,1-.84.12c-.8,0-1.41-.32-1.41-1.17V972.8h-.76v-.95h.76V970.7h1.2v1.15h1.05Z"/><path d="M347.07,975.72h-1.15v-.53h0a1.26,1.26,0,0,1-1.13.62c-1.21,0-1.44-.79-1.44-1.83v-2.13h1.2v1.89c0,.45,0,1,.62,1s.72-.48.72-1v-1.92h1.19Z"/><path d="M352,975.72h-1.1v-.51h0a1.48,1.48,0,0,1-1.18.6,1.86,1.86,0,0,1-1.91-2,1.89,1.89,0,0,1,1.77-2.06,1.47,1.47,0,0,1,1.23.51h0V969.7H352Zm-2.06-2.92a1,1,0,1,0,1,1A.9.9,0,0,0,349.92,972.8Z"/><path d="M356.6,975.05a2.13,2.13,0,0,1-1.64.76,2,2,0,1,1,0-4.06,1.81,1.81,0,0,1,1.82,2v.38H354a.89.89,0,0,0,.9.74,1,1,0,0,0,.85-.47Zm-1-1.71a.73.73,0,0,0-.74-.73.8.8,0,0,0-.84.73Z"/><path d="M357.5,971.85h1.15v.52h0a1.26,1.26,0,0,1,1.13-.62c1.21,0,1.43.8,1.43,1.83v2.14H360v-1.9c0-.45,0-1-.62-1s-.72.49-.72,1v1.93h-1.2Z"/><path d="M364.71,972.8h-1v1.29c0,.42,0,.72.57.72a.89.89,0,0,0,.48-.11v1a2.32,2.32,0,0,1-.83.12c-.8,0-1.41-.32-1.41-1.17V972.8h-.77v-.95h.77V970.7h1.19v1.15h1Z"/><path d="M367.51,973a.87.87,0,0,0-.69-.32c-.2,0-.44.09-.44.32,0,.57,2,.08,2,1.56,0,1-.95,1.27-1.78,1.27a2.12,2.12,0,0,1-1.52-.52l.72-.81a1.06,1.06,0,0,0,.85.42c.27,0,.54-.07.54-.27,0-.63-2-.1-2-1.57,0-.91.82-1.31,1.63-1.31a2,2,0,0,1,1.43.51Z"/><polygon class="cls-7" points="337.11 1046.54 328.24 1055.41 319.37 1046.54 337.11 1046.54"/><rect class="cls-6" x="656.5" y="942.27" width="172.96" height="135.99"/><rect class="cls-7" x="687.16" y="995.94" width="111.63" height="8.58"/><rect class="cls-7" x="687.16" y="1012.67" width="111.63" height="8.58"/><path d="M733.76,970.08h1l2.45,5.64h-1.4l-.49-1.2h-2.19l-.47,1.2h-1.37Zm.48,1.64-.69,1.75h1.38Z"/><path d="M737.77,969.7H739v2.56h0a1.45,1.45,0,0,1,1.22-.51,1.89,1.89,0,0,1,1.77,2.06,1.86,1.86,0,0,1-1.9,2,1.5,1.5,0,0,1-1.19-.6h0v.51h-1.1Zm2.05,5.06a1,1,0,1,0-1-1A.91.91,0,0,0,739.82,974.76Z"/><path d="M744.68,971.75a2,2,0,1,1-2.15,2A2,2,0,0,1,744.68,971.75Zm0,3a1,1,0,1,0-1-1A.9.9,0,0,0,744.68,974.76Z"/><path d="M751.26,975.72h-1.15v-.53h0a1.27,1.27,0,0,1-1.14.62c-1.21,0-1.43-.79-1.43-1.83v-2.13h1.2v1.89c0,.45,0,1,.62,1s.71-.48.71-1v-1.92h1.2Z"/><path d="M754.74,972.8h-1v1.29c0,.42,0,.72.56.72a.91.91,0,0,0,.49-.11v1a2.38,2.38,0,0,1-.84.12c-.79,0-1.41-.32-1.41-1.17V972.8h-.76v-.95h.76V970.7h1.2v1.15h1Z"/><polygon class="cls-7" points="751.85 1046.54 742.98 1055.41 734.1 1046.54 751.85 1046.54"/><rect class="cls-6" x="449.13" y="942.27" width="172.96" height="135.99"/><rect class="cls-7" x="479.79" y="995.94" width="111.63" height="8.58"/><rect class="cls-7" x="479.79" y="1012.67" width="111.63" height="8.58"/><path d="M507.66,971.54a1.36,1.36,0,0,0-1.07-.46,1.83,1.83,0,0,0,0,3.63,1.34,1.34,0,0,0,1.16-.6l1,.77a2.46,2.46,0,0,1-2,1,3,3,0,1,1,0-5.93,2.43,2.43,0,0,1,1.9.83Z"/><path d="M513,975.72h-1.15v-.53h0a1.26,1.26,0,0,1-1.13.62c-1.21,0-1.44-.79-1.44-1.83v-2.13h1.2v1.89c0,.45,0,1,.62,1s.72-.48.72-1v-1.92H513Z"/><path d="M513.84,971.85H515v.62h0a1.17,1.17,0,0,1,1.11-.72,1.64,1.64,0,0,1,.4,0v1.09a1.81,1.81,0,0,0-.51-.08c-.91,0-1,.53-1,1.3v1.62h-1.2Z"/><path d="M517.09,971.85h1.19v.62h0a1.18,1.18,0,0,1,1.11-.72,1.64,1.64,0,0,1,.4,0v1.09a1.75,1.75,0,0,0-.51-.08c-.91,0-1,.53-1,1.3v1.62h-1.19Z"/><path d="M524,975.05a2.11,2.11,0,0,1-1.63.76,2,2,0,1,1,0-4.06,1.81,1.81,0,0,1,1.82,2v.38H521.4a.89.89,0,0,0,.9.74,1,1,0,0,0,.86-.47Zm-1-1.71a.72.72,0,0,0-.73-.73.81.81,0,0,0-.85.73Z"/><path d="M524.9,971.85h1.15v.52h0a1.26,1.26,0,0,1,1.13-.62c1.21,0,1.44.8,1.44,1.83v2.14h-1.2v-1.9c0-.45,0-1-.62-1s-.72.49-.72,1v1.93H524.9Z"/><path d="M532.11,972.8h-1.05v1.29c0,.42,0,.72.56.72a.93.93,0,0,0,.49-.11v1a2.38,2.38,0,0,1-.84.12c-.79,0-1.41-.32-1.41-1.17V972.8h-.76v-.95h.76V970.7h1.2v1.15h1.05Z"/><path d="M538,971.45a1.22,1.22,0,0,0-.9-.37c-.35,0-.84.16-.84.58,0,1,2.6.37,2.6,2.34,0,1.26-1,1.86-2.17,1.86a2.65,2.65,0,0,1-1.9-.71l.88-1a1.4,1.4,0,0,0,1.09.53c.4,0,.86-.19.86-.59,0-1-2.65-.47-2.65-2.35a1.94,1.94,0,0,1,2.15-1.84,2.56,2.56,0,0,1,1.73.59Z"/><path d="M542.28,972.8h-1v1.29c0,.42,0,.72.56.72a.93.93,0,0,0,.49-.11v1a2.38,2.38,0,0,1-.84.12c-.79,0-1.41-.32-1.41-1.17V972.8h-.76v-.95H540V970.7h1.2v1.15h1Z"/><path d="M546.61,975.72h-1.15v-.53h0a1.26,1.26,0,0,1-1.13.62c-1.21,0-1.44-.79-1.44-1.83v-2.13h1.2v1.89c0,.45,0,1,.62,1s.72-.48.72-1v-1.92h1.19Z"/><path d="M551.52,975.72h-1.1v-.51h0a1.48,1.48,0,0,1-1.18.6,1.86,1.86,0,0,1-1.91-2,1.89,1.89,0,0,1,1.77-2.06,1.47,1.47,0,0,1,1.23.51h0V969.7h1.2Zm-2.06-2.92a1,1,0,1,0,1,1A.91.91,0,0,0,549.46,972.8Z"/><path d="M556.14,975.05a2.13,2.13,0,0,1-1.64.76,2,2,0,1,1,0-4.06,1.81,1.81,0,0,1,1.82,2v.38h-2.77a.89.89,0,0,0,.9.74,1,1,0,0,0,.85-.47Zm-1-1.71a.73.73,0,0,0-.74-.73.8.8,0,0,0-.84.73Z"/><path d="M557.05,971.85h1.14v.52h0a1.26,1.26,0,0,1,1.13-.62c1.21,0,1.43.8,1.43,1.83v2.14h-1.19v-1.9c0-.45,0-1-.62-1s-.72.49-.72,1v1.93h-1.19Z"/><path d="M564.25,972.8h-1v1.29c0,.42,0,.72.57.72a.87.87,0,0,0,.48-.11v1a2.32,2.32,0,0,1-.83.12c-.8,0-1.41-.32-1.41-1.17V972.8h-.77v-.95H562V970.7h1.19v1.15h1Z"/><path d="M567.05,973a.87.87,0,0,0-.69-.32c-.2,0-.44.09-.44.32,0,.57,2,.08,2,1.56,0,1-.95,1.27-1.78,1.27a2.12,2.12,0,0,1-1.52-.52l.72-.81a1.06,1.06,0,0,0,.85.42c.27,0,.54-.07.54-.27,0-.63-2-.1-2-1.57,0-.91.82-1.31,1.63-1.31a2,2,0,0,1,1.43.51Z"/><polygon class="cls-7" points="544.48 1046.54 535.61 1055.41 526.74 1046.54 544.48 1046.54"/><rect class="cls-8" x="210.03" y="272.12" width="644.94" height="391.25"/><rect class="cls-6" x="690.98" y="481.92" width="163.99" height="405.48"/><rect class="cls-7" x="210.03" y="248.23" width="644.94" height="23.89"/><rect class="cls-9" x="829.19" y="248.23" width="25.78" height="23.89"/><circle class="cls-7" cx="268.17" cy="436.11" r="26.41"/><path d="M331.67,412.46a2.39,2.39,0,0,0-1.92-.83,3.28,3.28,0,0,0-.07,6.52,2.44,2.44,0,0,0,2.09-1.08l1.86,1.38a4.44,4.44,0,0,1-3.66,1.76,5.32,5.32,0,1,1,0-10.64,4.33,4.33,0,0,1,3.41,1.49Z"/><path d="M335.67,409.57a1.25,1.25,0,1,1-1.25,1.25A1.25,1.25,0,0,1,335.67,409.57ZM334.6,413h2.14V420H334.6Z"/><path d="M343,414.72h-1.89V417c0,.74.08,1.28,1,1.28a1.51,1.51,0,0,0,.88-.2v1.79a4.53,4.53,0,0,1-1.51.22c-1.43,0-2.53-.59-2.53-2.11v-3.3h-1.37V413H339V411h2.15V413H343Z"/><path d="M348.1,421.08c-.57,1.48-.9,2.31-2.94,2.31a5.11,5.11,0,0,1-1.6-.26l.28-1.76a2.49,2.49,0,0,0,1,.21c1,0,1.13-.41,1.43-1.17l.16-.4-3-7h2.31l1.79,4.58h0l1.53-4.58h2.2Z"/><path d="M363.17,412.46a2.39,2.39,0,0,0-1.92-.83,3.28,3.28,0,0,0-.07,6.52,2.44,2.44,0,0,0,2.09-1.08l1.86,1.38a4.44,4.44,0,0,1-3.66,1.76,5.32,5.32,0,1,1,0-10.64,4.33,4.33,0,0,1,3.41,1.49Z"/><path d="M369.67,412.83a3.66,3.66,0,1,1-3.86,3.65A3.63,3.63,0,0,1,369.67,412.83Zm0,5.41a1.76,1.76,0,1,0-1.72-1.76A1.63,1.63,0,0,0,369.67,418.24Z"/><path d="M374.81,409.15H377V420h-2.15Z"/><path d="M378.53,409.15h2.14V420h-2.14Z"/><path d="M388.79,418.75a3.77,3.77,0,0,1-2.93,1.38,3.66,3.66,0,1,1,0-7.3c2,0,3.26,1.43,3.26,3.65v.67h-5a1.6,1.6,0,0,0,1.61,1.35,1.82,1.82,0,0,0,1.53-.85ZM387,415.69a1.29,1.29,0,0,0-1.32-1.31,1.42,1.42,0,0,0-1.51,1.31Z"/><path d="M397.71,419.37c0,2.61-1.33,4-4,4a5.42,5.42,0,0,1-3.48-1l1.18-1.77a3.41,3.41,0,0,0,2.26.9c1.3,0,1.92-.72,1.92-1.7v-.68h0a2.42,2.42,0,0,1-2,.92,3.62,3.62,0,0,1-.24-7.21,2.84,2.84,0,0,1,2.37,1.09h0V413h2ZM394,418.15a1.72,1.72,0,1,0-1.71-1.71A1.72,1.72,0,0,0,394,418.15Z"/><path d="M406,418.75a3.79,3.79,0,0,1-2.93,1.38,3.66,3.66,0,1,1,0-7.3c2,0,3.26,1.43,3.26,3.65v.67h-5A1.61,1.61,0,0,0,403,418.5a1.83,1.83,0,0,0,1.53-.85Zm-1.81-3.06a1.29,1.29,0,0,0-1.32-1.31,1.44,1.44,0,0,0-1.52,1.31Z"/><path d="M415.46,412.83a3.66,3.66,0,1,1-3.86,3.65A3.62,3.62,0,0,1,415.46,412.83Zm0,5.41a1.76,1.76,0,1,0-1.71-1.76A1.63,1.63,0,0,0,415.46,418.24Z"/><path d="M421.32,414.72H419.9V413h1.42v-1.23c0-1.52.39-2.81,2.72-2.81a5.2,5.2,0,0,1,1.25.13l-.1,1.82a1.86,1.86,0,0,0-.7-.14c-.68,0-1,.21-1,1.12V413h1.59v1.71h-1.59V420h-2.14Z"/><path d="M435.37,412.3a2.19,2.19,0,0,0-1.62-.67c-.62,0-1.5.29-1.5,1.05,0,1.84,4.66.65,4.66,4.2,0,2.26-1.81,3.33-3.9,3.33a4.83,4.83,0,0,1-3.4-1.27l1.59-1.75a2.47,2.47,0,0,0,1.94,1c.73,0,1.54-.34,1.54-1.06,0-1.85-4.74-.85-4.74-4.23,0-2.16,1.87-3.29,3.86-3.29a4.57,4.57,0,0,1,3.1,1.06Z"/><path d="M442.66,419.08h0a2.51,2.51,0,0,1-2.2,1.05A2.23,2.23,0,0,1,438,418c0-2.4,2.91-2.44,4.7-2.44a1.28,1.28,0,0,0-1.37-1.25,2.32,2.32,0,0,0-1.75.83L438.4,414a4.49,4.49,0,0,1,3.06-1.12c2.5,0,3.17,1.28,3.17,3.59V420h-2Zm-.53-2.17c-.66,0-2.12.06-2.12,1,0,.51.55.76,1,.76.84,0,1.63-.45,1.63-1.3v-.46Z"/><path d="M446,413H448V414h0a2.27,2.27,0,0,1,2-1.12c2.17,0,2.57,1.43,2.57,3.29V420h-2.14v-3.4c0-.8,0-1.83-1.12-1.83s-1.28.87-1.28,1.77V420H446Z"/><path d="M458.76,409.83h6.8v2.06H461V414h4.21V416H461V420h-2.24Z"/><path d="M466.88,413H469v1.11h0a2.12,2.12,0,0,1,2-1.29,2.66,2.66,0,0,1,.71.08v1.95a3.52,3.52,0,0,0-.91-.14c-1.63,0-1.83.94-1.83,2.33V420h-2.15Z"/><path d="M477.06,419.08h0a2.51,2.51,0,0,1-2.2,1.05,2.23,2.23,0,0,1-2.47-2.15c0-2.4,2.91-2.44,4.7-2.44a1.28,1.28,0,0,0-1.37-1.25,2.32,2.32,0,0,0-1.75.83L472.8,414a4.51,4.51,0,0,1,3.06-1.12c2.5,0,3.17,1.28,3.17,3.59V420h-2Zm-.53-2.17c-.66,0-2.11.06-2.11,1,0,.51.54.76,1,.76.84,0,1.63-.45,1.63-1.3v-.46Z"/><path d="M480.37,413h2.06V414h0a2.27,2.27,0,0,1,2-1.12c2.18,0,2.58,1.43,2.58,3.29V420h-2.15v-3.4c0-.8,0-1.83-1.11-1.83s-1.29.87-1.29,1.77V420h-2.15Z"/><path d="M493.28,415.25a1.31,1.31,0,0,0-1.06-.53,1.76,1.76,0,0,0,0,3.52,1.37,1.37,0,0,0,1.06-.53l1.42,1.49a3.54,3.54,0,0,1-2.48.93,3.66,3.66,0,1,1,0-7.3,3.54,3.54,0,0,1,2.48.93Z"/><path d="M496.57,409.57a1.25,1.25,0,1,1-1.25,1.25A1.25,1.25,0,0,1,496.57,409.57ZM495.49,413h2.15V420h-2.15Z"/><path d="M503.11,415.05a1.52,1.52,0,0,0-1.24-.59c-.36,0-.79.16-.79.58,0,1,3.62.15,3.62,2.8,0,1.77-1.71,2.29-3.2,2.29a3.82,3.82,0,0,1-2.73-.95l1.3-1.44a1.88,1.88,0,0,0,1.51.76c.49,0,1-.13,1-.51,0-1.11-3.62-.17-3.62-2.81,0-1.63,1.46-2.35,2.92-2.35a3.49,3.49,0,0,1,2.57.92Z"/><path d="M510.5,415.25a1.31,1.31,0,0,0-1.05-.53,1.76,1.76,0,0,0,0,3.52,1.37,1.37,0,0,0,1.05-.53l1.42,1.49a3.51,3.51,0,0,1-2.47.93,3.66,3.66,0,1,1,0-7.3,3.51,3.51,0,0,1,2.47.93Z"/><path d="M516.29,412.83a3.66,3.66,0,1,1-3.86,3.65A3.62,3.62,0,0,1,516.29,412.83Zm0,5.41a1.76,1.76,0,1,0-1.71-1.76A1.63,1.63,0,0,0,516.29,418.24Z"/><path d="M712.39,501.4a1.19,1.19,0,0,0-.9-.38c-.35,0-.84.16-.84.58,0,1,2.6.37,2.6,2.35,0,1.25-1,1.85-2.18,1.85a2.64,2.64,0,0,1-1.89-.71l.88-1a1.4,1.4,0,0,0,1.09.53c.4,0,.86-.19.86-.58,0-1-2.65-.48-2.65-2.36a1.93,1.93,0,0,1,2.15-1.83,2.56,2.56,0,0,1,1.73.58Z"/><path d="M714.13,501.79h1.1v.51h0a1.48,1.48,0,0,1,1.18-.61,1.86,1.86,0,0,1,1.91,2,1.89,1.89,0,0,1-1.77,2.06,1.44,1.44,0,0,1-1.23-.51h0v2.23h-1.2Zm2.06,2.91a1,1,0,1,0-1-1A.9.9,0,0,0,716.19,504.7Z"/><path d="M719,501.79h1.19v.62h0a1.18,1.18,0,0,1,1.12-.72,1.61,1.61,0,0,1,.39,0v1.09a1.7,1.7,0,0,0-.51-.08c-.9,0-1,.53-1,1.3v1.62H719Z"/><path d="M722.89,499.88a.69.69,0,1,1-.69.69A.69.69,0,0,1,722.89,499.88Zm-.59,1.91h1.19v3.87H722.3Z"/><path d="M724.35,501.79h1.15v.52h0a1.27,1.27,0,0,1,1.14-.62c1.21,0,1.43.8,1.43,1.83v2.14h-1.2v-1.9c0-.44,0-1-.62-1s-.71.49-.71,1v1.93h-1.2Z"/><path d="M733,505.33a2,2,0,0,1-2.24,2.24,3,3,0,0,1-2-.57l.67-1a1.88,1.88,0,0,0,1.25.5c.73,0,1.07-.4,1.07-.95v-.37h0a1.39,1.39,0,0,1-1.1.51,1.86,1.86,0,0,1-1.9-2,1.88,1.88,0,0,1,1.77-2,1.57,1.57,0,0,1,1.32.61h0v-.51H733Zm-2.06-.68a1,1,0,1,0-.95-.95A1,1,0,0,0,730.93,504.65Z"/><path d="M738.17,501.36l-1.13,1-.68-.78L738.2,500h1.12v5.64h-1.15Z"/><path d="M743,503.64a1.67,1.67,0,0,1-.39.06,1.75,1.75,0,0,1-1.77-1.84,2.11,2.11,0,0,1,4.21,0,3.21,3.21,0,0,1-.68,1.87l-1.23,1.93H741.7Zm0-.85a.89.89,0,1,0,0-1.77.89.89,0,1,0,0,1.77Z"/><path d="M748.22,500h1.24v5.64h-1.24Z"/><path d="M750.44,501.79h1.15v.52h0a1.26,1.26,0,0,1,1.13-.62,1.2,1.2,0,0,1,1.19.69,1.27,1.27,0,0,1,1.23-.69c1.05,0,1.37.74,1.37,1.68v2.29h-1.2V503.4c0-.35-.13-.66-.52-.66-.55,0-.73.39-.73.87v2.05h-1.19v-2.05c0-.29,0-.87-.53-.87s-.72.49-.72,1v1.93h-1.2Z"/><path d="M757.48,501.79h1.1v.51h0a1.5,1.5,0,0,1,1.19-.61,1.86,1.86,0,0,1,1.9,2,1.89,1.89,0,0,1-1.77,2.06,1.42,1.42,0,0,1-1.22-.51h0v2.23h-1.2Zm2.06,2.91a1,1,0,1,0-1-1A.91.91,0,0,0,759.54,504.7Z"/><path d="M764.4,501.69a2,2,0,1,1-2.15,2A2,2,0,0,1,764.4,501.69Zm0,3a1,1,0,1,0-1-1A.9.9,0,0,0,764.4,504.7Z"/><path d="M767.25,501.79h1.19v.62h0a1.18,1.18,0,0,1,1.12-.72,1.61,1.61,0,0,1,.39,0v1.09a1.7,1.7,0,0,0-.51-.08c-.9,0-1,.53-1,1.3v1.62h-1.19Z"/><path d="M773.13,502.74h-1V504c0,.42,0,.72.56.72a.93.93,0,0,0,.49-.11v1a2.38,2.38,0,0,1-.84.12c-.79,0-1.41-.32-1.41-1.17v-1.84h-.76v-.95h.76v-1.15h1.2v1.15h1Z"/><path d="M776.16,505.17h0a1.39,1.39,0,0,1-1.23.58,1.24,1.24,0,0,1-1.38-1.19c0-1.34,1.63-1.36,2.62-1.36a.71.71,0,0,0-.76-.7,1.26,1.26,0,0,0-1,.47l-.64-.66a2.51,2.51,0,0,1,1.7-.62c1.4,0,1.77.71,1.77,2v2h-1.1Zm-.29-1.21c-.37,0-1.18,0-1.18.56,0,.29.3.42.56.42.47,0,.91-.25.91-.72V504Z"/><path d="M778,501.79h1.15v.52h0a1.26,1.26,0,0,1,1.13-.62c1.22,0,1.44.8,1.44,1.83v2.14h-1.2v-1.9c0-.44,0-1-.62-1s-.71.49-.71,1v1.93H778Z"/><path d="M785.22,502.74h-1.05V504c0,.42.05.72.56.72a.91.91,0,0,0,.49-.11v1a2.38,2.38,0,0,1-.84.12c-.79,0-1.41-.32-1.41-1.17v-1.84h-.76v-.95H783v-1.15h1.2v1.15h1.05Z"/><path d="M788.33,500h1.87c1.81,0,3.34.77,3.34,2.83a2.87,2.87,0,0,1-3.17,2.81h-2Zm1.25,4.49h.64c1.16,0,2-.44,2-1.72,0-1.11-.89-1.62-1.94-1.62h-.73Z"/><path d="M796.66,505.17h0a1.37,1.37,0,0,1-1.22.58,1.24,1.24,0,0,1-1.38-1.19c0-1.34,1.62-1.36,2.62-1.36a.71.71,0,0,0-.77-.7,1.28,1.28,0,0,0-1,.47l-.64-.66a2.53,2.53,0,0,1,1.71-.62c1.39,0,1.77.71,1.77,2v2h-1.1Zm-.3-1.21c-.36,0-1.18,0-1.18.56,0,.29.31.42.57.42.47,0,.91-.25.91-.72V504Z"/><path d="M801.14,502.74h-1V504c0,.42,0,.72.57.72a.89.89,0,0,0,.48-.11v1a2.35,2.35,0,0,1-.83.12c-.8,0-1.41-.32-1.41-1.17v-1.84h-.77v-.95h.77v-1.15h1.19v1.15h1Z"/><path d="M805.41,505a2.11,2.11,0,0,1-1.63.76,2,2,0,1,1,0-4.06,1.81,1.81,0,0,1,1.82,2v.38h-2.78a.9.9,0,0,0,.9.75,1,1,0,0,0,.86-.47Zm-1-1.71a.72.72,0,0,0-.73-.73.81.81,0,0,0-.85.73Z"/><path d="M808.51,502.93a.84.84,0,0,0-.69-.33c-.2,0-.44.09-.44.32,0,.57,2,.09,2,1.56,0,1-1,1.27-1.79,1.27a2.12,2.12,0,0,1-1.52-.52l.72-.81a1.07,1.07,0,0,0,.85.43c.27,0,.54-.08.54-.28,0-.62-2-.1-2-1.57,0-.91.81-1.31,1.62-1.31a1.94,1.94,0,0,1,1.43.51Z"/><path d="M705,257.65h3.83v1.14h-2.59v1h2.44V261h-2.44v1.15H709v1.15h-4Z"/><path d="M709.8,259.41H711v.53h0a1.26,1.26,0,0,1,1.13-.62,1.2,1.2,0,0,1,1.19.69,1.27,1.27,0,0,1,1.23-.69c1.05,0,1.37.74,1.37,1.68v2.29H714.7V261c0-.36-.14-.66-.53-.66-.55,0-.73.39-.73.87v2.05h-1.19v-2.05c0-.29,0-.87-.53-.87s-.72.49-.72,1v1.93h-1.2Z"/><path d="M716.84,259.41h1.1v.51h0a1.53,1.53,0,0,1,1.19-.6,1.86,1.86,0,0,1,1.9,2,1.89,1.89,0,0,1-1.77,2.06,1.42,1.42,0,0,1-1.22-.51h0v2.23h-1.2Zm2.06,2.92a1,1,0,1,0-1-1A.91.91,0,0,0,718.9,262.33Z"/><path d="M721.77,257.26H723v6h-1.19Z"/><path d="M725.83,259.32a2,2,0,1,1-2.15,2A2,2,0,0,1,725.83,259.32Zm0,3a1,1,0,1,0-1-1A.91.91,0,0,0,725.83,262.33Z"/><path d="M730.91,263.91c-.32.83-.5,1.29-1.64,1.29a2.73,2.73,0,0,1-.89-.15l.16-1a1.33,1.33,0,0,0,.55.12c.55,0,.63-.23.8-.65l.09-.22-1.7-3.91h1.29l1,2.56h0l.86-2.56h1.22Z"/><path d="M736.77,262.62a2.11,2.11,0,0,1-1.63.76,2,2,0,1,1,0-4.06,1.81,1.81,0,0,1,1.82,2v.37h-2.78a.89.89,0,0,0,.9.75,1,1,0,0,0,.86-.47Zm-1-1.71a.71.71,0,0,0-.73-.73.81.81,0,0,0-.85.73Z"/><path d="M741.35,262.62a2.15,2.15,0,0,1-1.64.76,2,2,0,1,1,0-4.06,1.81,1.81,0,0,1,1.82,2v.37h-2.77a.89.89,0,0,0,.9.75,1,1,0,0,0,.85-.47Zm-1-1.71a.71.71,0,0,0-.73-.73.8.8,0,0,0-.84.73Z"/><path d="M747.55,259a1.22,1.22,0,0,0-.9-.37c-.35,0-.84.16-.84.58,0,1,2.6.37,2.6,2.34,0,1.26-1,1.86-2.17,1.86a2.69,2.69,0,0,1-1.9-.71l.88-1a1.4,1.4,0,0,0,1.09.53c.4,0,.86-.19.86-.59,0-1-2.65-.48-2.65-2.36a1.94,1.94,0,0,1,2.15-1.83,2.56,2.56,0,0,1,1.73.59Z"/><path d="M752.85,262.62a2.12,2.12,0,0,1-1.64.76,2,2,0,1,1,0-4.06,1.81,1.81,0,0,1,1.82,2v.37h-2.77a.89.89,0,0,0,.9.75A1,1,0,0,0,752,262Zm-1-1.71a.72.72,0,0,0-.74-.73.8.8,0,0,0-.84.73Z"/><path d="M753.76,259.41H755V260h0a1.18,1.18,0,0,1,1.11-.72,1.64,1.64,0,0,1,.4,0v1.09a1.75,1.75,0,0,0-.51-.08c-.91,0-1,.53-1,1.3v1.62h-1.19Z"/><path d="M756.59,259.41h1.29l1,2.63h0l.91-2.63H761l-1.53,3.88h-1.27Z"/><path d="M762,257.5a.7.7,0,1,1-.69.7A.69.69,0,0,1,762,257.5Zm-.6,1.91h1.2v3.88h-1.2Z"/><path d="M766.12,260.67a.73.73,0,0,0-.59-.3,1,1,0,0,0,0,2,.75.75,0,0,0,.59-.3l.79.83a1.93,1.93,0,0,1-1.38.52,2,2,0,1,1,0-4.06,1.93,1.93,0,0,1,1.38.52Z"/><path d="M771,262.62a2.11,2.11,0,0,1-1.63.76,2,2,0,1,1,0-4.06,1.8,1.8,0,0,1,1.81,2v.37h-2.77a.89.89,0,0,0,.9.75,1,1,0,0,0,.86-.47Zm-1-1.71a.71.71,0,0,0-.73-.73.8.8,0,0,0-.85.73Z"/><path d="M774.1,260.55a.87.87,0,0,0-.69-.32c-.2,0-.44.09-.44.32,0,.57,2,.08,2,1.56,0,1-1,1.27-1.78,1.27a2.12,2.12,0,0,1-1.52-.52l.72-.81a1.06,1.06,0,0,0,.85.42c.27,0,.54-.07.54-.27,0-.63-2-.1-2-1.57,0-.91.82-1.31,1.63-1.31a2,2,0,0,1,1.43.51Z"/><path d="M600.78,257.65h1.36l.9,3.61h0l1.18-3.61h1.16l1.17,3.71h0l.95-3.71h1.26l-1.65,5.64H606l-1.24-3.91h0l-1.24,3.91h-1.06Z"/><path d="M612.85,262.62a2.11,2.11,0,0,1-1.63.76,2,2,0,1,1,0-4.06,1.8,1.8,0,0,1,1.81,2v.37h-2.77a.89.89,0,0,0,.9.75A1,1,0,0,0,612,262Zm-1-1.71a.71.71,0,0,0-.73-.73.8.8,0,0,0-.85.73Z"/><path d="M613.87,257.26h1.19v2.57h0a1.43,1.43,0,0,1,1.23-.51,1.88,1.88,0,0,1,1.76,2.06,1.85,1.85,0,0,1-1.9,2,1.54,1.54,0,0,1-1.19-.6h0v.51h-1.1Zm2,5.07a1,1,0,1,0-.95-1A.91.91,0,0,0,615.92,262.33Z"/><path d="M621,262.16h-2.47v-1l2.31-3.5h1.3v3.5h.73v1h-.73v1.13H621Zm0-3h0l-1.25,1.94H621Z"/><path d="M656.88,259.11a1.34,1.34,0,0,0-1.07-.46,1.83,1.83,0,0,0,0,3.63,1.36,1.36,0,0,0,1.17-.6l1,.77a2.45,2.45,0,0,1-2,1,3,3,0,1,1,0-5.93,2.45,2.45,0,0,1,1.91.83Z"/><path d="M660.93,262.8h0a1.4,1.4,0,0,1-1.22.58,1.24,1.24,0,0,1-1.38-1.19c0-1.34,1.62-1.37,2.62-1.37a.71.71,0,0,0-.77-.69,1.3,1.3,0,0,0-1,.46l-.64-.65a2.53,2.53,0,0,1,1.71-.62c1.39,0,1.77.71,1.77,2v2h-1.1Zm-.3-1.21c-.36,0-1.18,0-1.18.56,0,.28.31.42.57.42.47,0,.91-.25.91-.73v-.25Z"/><path d="M662.78,259.41h1.14v.53h0a1.26,1.26,0,0,1,1.13-.62c1.21,0,1.43.8,1.43,1.83v2.14h-1.19v-1.9c0-.45,0-1-.62-1s-.72.49-.72,1v1.93h-1.19Z"/><path d="M666.94,259.41h1.29l1,2.63h0l.91-2.63h1.2l-1.53,3.88h-1.27Z"/><path d="M674.21,262.8h0a1.4,1.4,0,0,1-1.23.58,1.24,1.24,0,0,1-1.38-1.19c0-1.34,1.63-1.37,2.63-1.37a.71.71,0,0,0-.77-.69,1.29,1.29,0,0,0-1,.46l-.64-.65a2.53,2.53,0,0,1,1.71-.62c1.39,0,1.76.71,1.76,2v2h-1.09Zm-.3-1.21c-.37,0-1.18,0-1.18.56,0,.28.31.42.57.42.47,0,.91-.25.91-.73v-.25Z"/><path d="M678.24,260.55a.85.85,0,0,0-.69-.32c-.2,0-.44.09-.44.32,0,.57,2,.08,2,1.56,0,1-1,1.27-1.79,1.27a2.14,2.14,0,0,1-1.52-.52l.73-.81a1,1,0,0,0,.84.42c.27,0,.54-.07.54-.27,0-.63-2-.1-2-1.57,0-.91.81-1.31,1.62-1.31a2,2,0,0,1,1.44.51Z"/><path d="M242.38,693h1.25v4.49h2.3v1.15h-3.55Z"/><path d="M248.89,698.14h0a1.41,1.41,0,0,1-1.23.58,1.24,1.24,0,0,1-1.38-1.19c0-1.34,1.63-1.37,2.62-1.37a.71.71,0,0,0-.76-.69,1.29,1.29,0,0,0-1,.46l-.64-.65a2.51,2.51,0,0,1,1.7-.62c1.4,0,1.77.71,1.77,2v2h-1.1Zm-.29-1.21c-.37,0-1.18,0-1.18.56,0,.28.3.42.56.42.47,0,.91-.25.91-.73v-.25Z"/><path d="M253.38,695.71h-1V697c0,.41,0,.72.56.72a.93.93,0,0,0,.49-.11v1a2.41,2.41,0,0,1-.84.12c-.8,0-1.41-.33-1.41-1.17v-1.84h-.76v-1h.76v-1.14h1.2v1.14h1Z"/><path d="M257.65,698a2.15,2.15,0,0,1-1.64.76,2,2,0,1,1,0-4.06,1.81,1.81,0,0,1,1.82,2v.37h-2.77a.89.89,0,0,0,.9.75,1,1,0,0,0,.85-.47Zm-1-1.71a.71.71,0,0,0-.73-.73.8.8,0,0,0-.84.73Z"/><path d="M260.74,695.89a.85.85,0,0,0-.69-.32c-.2,0-.44.09-.44.32,0,.57,2,.08,2,1.56,0,1-1,1.27-1.79,1.27a2.14,2.14,0,0,1-1.52-.52l.73-.81a1,1,0,0,0,.84.42c.27,0,.54-.07.54-.28,0-.62-2-.09-2-1.56,0-.91.81-1.31,1.62-1.31a2,2,0,0,1,1.44.51Z"/><path d="M264.88,695.71h-1.05V697c0,.41.05.72.56.72a.93.93,0,0,0,.49-.11v1a2.38,2.38,0,0,1-.84.12c-.79,0-1.41-.33-1.41-1.17v-1.84h-.76v-1h.76v-1.14h1.2v1.14h1.05Z"/><path d="M268,693h1.69l2.4,3.92h0V693h1.25v5.64h-1.63l-2.46-4h0v4H268Z"/><path d="M278,698a2.13,2.13,0,0,1-1.64.76,2,2,0,1,1,0-4.06,1.81,1.81,0,0,1,1.82,2v.37h-2.77a.89.89,0,0,0,.9.75,1,1,0,0,0,.85-.47Zm-1-1.71a.72.72,0,0,0-.74-.73.8.8,0,0,0-.84.73Z"/><path d="M278.44,694.75h1.28l.79,2.43h0l.66-2.43h1.31l.72,2.43h0l.73-2.43h1.21l-1.38,3.88H282.6l-.8-2.58h0l-.72,2.58h-1.2Z"/><path d="M287.73,695.89a.87.87,0,0,0-.69-.32c-.2,0-.44.09-.44.32,0,.57,2,.08,2,1.56,0,1-.95,1.27-1.78,1.27a2.12,2.12,0,0,1-1.52-.52l.72-.81a1.06,1.06,0,0,0,.85.42c.27,0,.54-.07.54-.28,0-.62-2-.09-2-1.56,0-.91.82-1.31,1.63-1.31a2,2,0,0,1,1.43.51Z"/><path class="cls-10" d="M848.24,264.7l-3.81-3a5.26,5.26,0,0,0,.91-2.88,4.86,4.86,0,1,0-4.86,4.85,4.82,4.82,0,0,0,2.9-1l3.43,3.44a1,1,0,0,0,1.43-1.42Zm-7.73-2.43A3.47,3.47,0,1,1,844,258.8,3.47,3.47,0,0,1,840.51,262.27Z"/><rect x="800.31" y="253.88" width="8.29" height="8.29"/><rect class="cls-6" x="805.57" y="259.14" width="8.29" height="8.29"/><rect class="cls-7" x="324.18" y="436.16" width="252.28" height="8.58"/><rect class="cls-7" x="324.18" y="452.81" width="252.28" height="8.58"/><rect class="cls-7" x="709.03" y="527.45" width="40.02" height="40.02"/><rect class="cls-7" x="761.63" y="527.45" width="69.18" height="8.58"/><rect class="cls-7" x="761.63" y="543.17" width="69.18" height="8.58"/><rect class="cls-7" x="709.03" y="595.7" width="40.02" height="40.02"/><rect class="cls-7" x="761.63" y="595.7" width="69.18" height="8.58"/><rect class="cls-7" x="761.63" y="611.42" width="69.18" height="8.58"/><rect class="cls-7" x="709.03" y="663.95" width="40.02" height="40.02"/><rect class="cls-7" x="761.63" y="663.95" width="69.18" height="8.58"/><rect class="cls-7" x="761.63" y="679.67" width="69.18" height="8.58"/><rect class="cls-7" x="709.03" y="734.87" width="40.02" height="40.02"/><rect class="cls-7" x="761.63" y="734.87" width="69.18" height="8.58"/><rect class="cls-7" x="761.63" y="750.59" width="69.18" height="8.58"/><rect class="cls-7" x="709.03" y="805.78" width="40.02" height="40.02"/><rect class="cls-7" x="761.63" y="805.78" width="69.18" height="8.58"/><rect class="cls-7" x="761.63" y="821.51" width="69.18" height="8.58"/><polygon class="cls-7" points="782.59 863.35 773.72 872.22 764.85 863.35 782.59 863.35"/><rect class="cls-7" x="241.76" y="723.03" width="380.32" height="164.37"/><polygon class="cls-7" points="640.21 796.91 649.09 805.78 640.21 814.66 640.21 796.91"/><rect class="cls-7" x="210.03" y="1136.95" width="644.94" height="357.54"/><path d="M242.34,1196.32h2.09c1.17,0,2.14.38,2.14,1.72s-.9,1.73-2.08,1.73h-.91V1202h-1.24Zm1.24,2.39h.83c.44,0,.87-.15.87-.67s-.59-.66-1.06-.66h-.64Z"/><path d="M250.93,1202h-1.15v-.52h0a1.26,1.26,0,0,1-1.13.62c-1.21,0-1.44-.8-1.44-1.83v-2.14h1.2v1.9c0,.45,0,1,.62,1s.72-.49.72-1v-1.93h1.19Z"/><path d="M251.89,1195.94h1.19v2.57h0a1.42,1.42,0,0,1,1.22-.51,1.89,1.89,0,0,1,1.77,2.06,1.85,1.85,0,0,1-1.9,2,1.52,1.52,0,0,1-1.19-.61h0v.51h-1.1Zm2.05,5.07a1,1,0,1,0-.95-1A.91.91,0,0,0,253.94,1201Z"/><path d="M256.81,1195.94H258v6h-1.19Z"/><path d="M259.48,1196.18a.7.7,0,0,1,0,1.39.7.7,0,1,1,0-1.39Zm-.6,1.91h1.2V1202h-1.2Z"/><path d="M263.56,1199.34a.77.77,0,0,0-.59-.29,1,1,0,0,0,0,2,.78.78,0,0,0,.59-.3l.78.83a1.94,1.94,0,0,1-1.37.52,2,2,0,1,1,0-4.06,1.89,1.89,0,0,1,1.37.52Z"/><path d="M267.27,1196.32h1.24V1202h-1.24Z"/><path d="M269.49,1198.09h1.15v.53h0a1.26,1.26,0,0,1,1.13-.62c1.21,0,1.44.79,1.44,1.83V1202H272v-1.89c0-.45,0-1-.62-1s-.72.48-.72,1V1202h-1.19Z"/><path d="M274.48,1199.05h-.79v-1h.79v-.68c0-.85.21-1.56,1.51-1.56a2.69,2.69,0,0,1,.7.07l-.06,1a1,1,0,0,0-.39-.08c-.38,0-.57.12-.57.63v.61h.88v1h-.88V1202h-1.19Z"/><path d="M279,1198a2,2,0,1,1-2.15,2A2,2,0,0,1,279,1198Zm0,3a1,1,0,1,0-1-1A.91.91,0,0,0,279,1201Z"/><path d="M281.87,1198.09h1.19v.62h0a1.17,1.17,0,0,1,1.11-.71,1.64,1.64,0,0,1,.4,0v1.09a1.75,1.75,0,0,0-.51-.08c-.91,0-1,.52-1,1.3V1202h-1.19Z"/><path d="M285.11,1198.09h1.15v.53h0a1.26,1.26,0,0,1,1.13-.62,1.22,1.22,0,0,1,1.2.69,1.26,1.26,0,0,1,1.22-.69c1.06,0,1.37.74,1.37,1.68V1202H290v-2.25c0-.36-.14-.66-.53-.66-.55,0-.72.39-.72.87v2h-1.2v-2c0-.29,0-.87-.53-.87s-.72.48-.72,1V1202h-1.19Z"/><path d="M294.47,1201.48h0a1.4,1.4,0,0,1-1.22.58,1.24,1.24,0,0,1-1.38-1.2c0-1.33,1.62-1.36,2.62-1.36a.71.71,0,0,0-.77-.69,1.3,1.3,0,0,0-1,.46l-.64-.65a2.49,2.49,0,0,1,1.71-.62c1.39,0,1.77.71,1.77,2v2h-1.1Zm-.3-1.21c-.36,0-1.18,0-1.18.56,0,.28.31.42.57.42.47,0,.91-.25.91-.73v-.25Z"/><path d="M299,1199.05H297.9v1.29c0,.41.05.72.57.72a.89.89,0,0,0,.48-.11v1a2.35,2.35,0,0,1-.83.12c-.8,0-1.41-.33-1.41-1.17v-1.84h-.77v-1h.77V1197h1.19v1.14H299Z"/><path d="M300.17,1196.18a.7.7,0,1,1-.69.69A.69.69,0,0,1,300.17,1196.18Zm-.6,1.91h1.2V1202h-1.2Z"/><path d="M303.64,1198a2,2,0,1,1-2.16,2A2,2,0,0,1,303.64,1198Zm0,3a1,1,0,1,0-1-1A.91.91,0,0,0,303.64,1201Z"/><path d="M306.49,1198.09h1.14v.53h0a1.26,1.26,0,0,1,1.13-.62c1.21,0,1.43.79,1.43,1.83V1202H309v-1.89c0-.45,0-1-.62-1s-.72.48-.72,1V1202h-1.19Z"/><rect class="cls-7" x="241.76" y="1229.49" width="111.63" height="8.58"/><path d="M562,1197.7a1.19,1.19,0,0,0-.9-.37c-.35,0-.83.16-.83.58,0,1,2.6.37,2.6,2.34,0,1.26-1,1.86-2.18,1.86a2.72,2.72,0,0,1-1.9-.71l.89-1a1.38,1.38,0,0,0,1.08.53c.41,0,.86-.19.86-.59,0-1-2.64-.48-2.64-2.36a1.93,1.93,0,0,1,2.15-1.83,2.56,2.56,0,0,1,1.73.59Z"/><path d="M567.38,1202h-1.15v-.52h0a1.26,1.26,0,0,1-1.13.62c-1.21,0-1.43-.8-1.43-1.83v-2.14h1.19v1.9c0,.45,0,1,.62,1s.72-.49.72-1v-1.93h1.2Z"/><path d="M568.33,1198.09h1.1v.51h0a1.48,1.48,0,0,1,1.18-.6,1.86,1.86,0,0,1,1.91,2,1.89,1.89,0,0,1-1.77,2.06,1.45,1.45,0,0,1-1.23-.51h0v2.23h-1.2Zm2.06,2.92a1,1,0,1,0-1-1A.91.91,0,0,0,570.39,1201Z"/><path d="M573.35,1198.09h1.1v.51h0a1.51,1.51,0,0,1,1.19-.6,1.85,1.85,0,0,1,1.9,2,1.89,1.89,0,0,1-1.76,2.06,1.45,1.45,0,0,1-1.23-.51h0v2.23h-1.19Zm2,2.92a1,1,0,1,0-.95-1A.91.91,0,0,0,575.4,1201Z"/><path d="M580.26,1198a2,2,0,1,1-2.15,2A2,2,0,0,1,580.26,1198Zm0,3a1,1,0,1,0-1-1A.91.91,0,0,0,580.26,1201Z"/><path d="M583.11,1198.09h1.2v.62h0a1.18,1.18,0,0,1,1.12-.71,1.7,1.7,0,0,1,.4,0v1.09a1.81,1.81,0,0,0-.51-.08c-.91,0-1,.52-1,1.3V1202h-1.2Z"/><path d="M589,1199.05h-1v1.29c0,.41,0,.72.57.72a.89.89,0,0,0,.48-.11v1a2.35,2.35,0,0,1-.83.12c-.8,0-1.41-.33-1.41-1.17v-1.84H586v-1h.77V1197h1.19v1.14h1Z"/><path d="M595.79,1197.79a1.32,1.32,0,0,0-1.06-.46,1.83,1.83,0,0,0,0,3.63,1.35,1.35,0,0,0,1.16-.6l1,.77a2.43,2.43,0,0,1-2,1,3,3,0,1,1,0-5.93,2.44,2.44,0,0,1,1.9.83Z"/><path d="M601.25,1197.79a1.36,1.36,0,0,0-1.07-.46,1.83,1.83,0,0,0,0,3.63,1.34,1.34,0,0,0,1.16-.6l1,.77a2.46,2.46,0,0,1-2,1,3,3,0,1,1,0-5.93,2.45,2.45,0,0,1,1.91.83Z"/><path d="M605.81,1197.7a1.22,1.22,0,0,0-.9-.37c-.36,0-.84.16-.84.58,0,1,2.6.37,2.6,2.34,0,1.26-1,1.86-2.18,1.86a2.68,2.68,0,0,1-1.89-.71l.88-1a1.38,1.38,0,0,0,1.08.53c.41,0,.86-.19.86-.59,0-1-2.64-.48-2.64-2.36a1.93,1.93,0,0,1,2.15-1.83,2.56,2.56,0,0,1,1.73.59Z"/><path d="M607.64,1196.32h3.78v1.15h-2.54v1.15h2.35v1.15h-2.35V1202h-1.24Z"/><rect class="cls-7" x="558.65" y="1229.49" width="270.8" height="8.58"/><rect class="cls-7" x="558.65" y="1249.21" width="270.8" height="8.58"/><rect class="cls-7" x="558.65" y="1277.51" width="67.7" height="19.73"/><rect class="cls-7" x="241.76" y="1249.21" width="111.63" height="8.58"/><rect class="cls-7" x="241.76" y="1268.94" width="111.63" height="8.58"/><rect class="cls-7" x="241.76" y="1288.66" width="111.63" height="8.58"/><rect class="cls-7" x="241.76" y="1308.39" width="111.63" height="8.58"/><rect class="cls-7" x="295.13" y="1398.39" width="58.27" height="8.58"/><rect class="cls-7" x="295.13" y="1414.1" width="58.27" height="8.58"/><rect class="cls-7" x="241.76" y="1442.19" width="184.82" height="8.58"/><rect class="cls-7" x="241.76" y="1457.9" width="184.82" height="8.58"/><rect class="cls-7" x="667.86" y="1457.9" width="46.21" height="8.58"/><rect class="cls-7" x="725.55" y="1457.9" width="46.21" height="8.58"/><rect class="cls-7" x="783.25" y="1457.9" width="46.21" height="8.58"/><rect class="cls-7" x="610.16" y="1457.9" width="46.21" height="8.58"/><rect class="cls-7" x="370.77" y="1229.49" width="111.63" height="8.58"/><rect class="cls-7" x="370.77" y="1308.39" width="111.63" height="8.58"/><rect class="cls-7" x="370.77" y="1249.21" width="111.63" height="8.58"/><rect class="cls-7" x="370.77" y="1268.94" width="111.63" height="8.58"/><rect class="cls-7" x="370.77" y="1288.66" width="111.63" height="8.58"/><path d="M588.8,1286.41a1.36,1.36,0,0,0-1.07-.46,1.83,1.83,0,0,0,0,3.63,1.34,1.34,0,0,0,1.16-.6l1,.77a2.46,2.46,0,0,1-2,1,3,3,0,1,1,0-5.93,2.41,2.41,0,0,1,1.9.83Z"/><path d="M591.66,1286h-1.61V1285h4.46V1286H592.9v4.54h-1.24Z"/><path d="M597,1285h1l2.46,5.63h-1.41l-.48-1.19H596.4l-.47,1.19h-1.37Zm.48,1.64-.68,1.75h1.38Z"/><circle class="cls-7" cx="259.28" cy="1410.53" r="17.52"/><circle class="cls-7" cx="820.7" cy="1436.81" r="8.76"/><circle class="cls-7" cx="791.9" cy="1436.81" r="8.76"/><circle class="cls-7" cx="763.11" cy="1436.81" r="8.76"/><circle class="cls-7" cx="734.31" cy="1436.81" r="8.76"/><rect class="cls-7" x="324.18" y="506.07" width="67.7" height="19.73"/><path d="M342.82,513.5H345c1.16,0,2.13.4,2.13,1.71a1.44,1.44,0,0,1-1.22,1.54l1.43,2.39h-1.48l-1.18-2.26h-.62v2.26h-1.24Zm1.24,2.33h.74c.45,0,1,0,1-.63s-.51-.65-1-.65h-.82Z"/><path d="M351.49,518.47a2.11,2.11,0,0,1-1.63.76,2,2,0,1,1,0-4.06,1.81,1.81,0,0,1,1.82,2v.37h-2.77a.88.88,0,0,0,.9.75,1,1,0,0,0,.85-.47Zm-1-1.71a.71.71,0,0,0-.73-.73.79.79,0,0,0-.84.73Z"/><path d="M356.46,518.81a2,2,0,0,1-2.23,2.24,3,3,0,0,1-2-.57l.66-1a1.89,1.89,0,0,0,1.26.51c.73,0,1.07-.4,1.07-1v-.38h0a1.33,1.33,0,0,1-1.09.51,1.85,1.85,0,0,1-1.9-2,1.88,1.88,0,0,1,1.77-2,1.58,1.58,0,0,1,1.32.61h0v-.51h1.09Zm-2-.68a1,1,0,1,0-1-1A1,1,0,0,0,354.41,518.13Z"/><path d="M358,513.35a.7.7,0,1,1-.69.7A.7.7,0,0,1,358,513.35Zm-.59,1.92h1.19v3.87h-1.19Z"/><path d="M361.68,516.4a.85.85,0,0,0-.69-.32c-.2,0-.44.09-.44.32,0,.57,2,.08,2,1.56,0,1-1,1.27-1.79,1.27a2.12,2.12,0,0,1-1.52-.52l.73-.81a1,1,0,0,0,.84.42c.27,0,.54-.07.54-.27,0-.63-2-.1-2-1.57,0-.91.81-1.31,1.62-1.31a1.94,1.94,0,0,1,1.43.51Z"/><path d="M365.82,516.22h-1.06v1.29c0,.42.05.72.57.72a.93.93,0,0,0,.49-.11v1a2.41,2.41,0,0,1-.84.12c-.8,0-1.41-.32-1.41-1.17v-1.84h-.76v-1h.76v-1.15h1.19v1.15h1.06Z"/><path d="M370.08,518.47a2.11,2.11,0,0,1-1.63.76,2,2,0,1,1,0-4.06,1.81,1.81,0,0,1,1.82,2v.37H367.5a.88.88,0,0,0,.9.75,1,1,0,0,0,.85-.47Zm-1-1.71a.71.71,0,0,0-.73-.73.79.79,0,0,0-.84.73Z"/><path d="M371,515.27h1.2v.62h0a1.19,1.19,0,0,1,1.12-.72,1.7,1.7,0,0,1,.4,0v1.09a1.81,1.81,0,0,0-.51-.08c-.91,0-1,.53-1,1.3v1.62H371Z"/><rect class="cls-7" x="412.23" y="506.07" width="93.03" height="19.73"/><path d="M434.49,515a1.32,1.32,0,0,0-1.06-.46,1.83,1.83,0,0,0,0,3.63,1.35,1.35,0,0,0,1.16-.6l1,.77a2.43,2.43,0,0,1-2,1,3,3,0,1,1,0-5.93,2.43,2.43,0,0,1,1.9.83Z"/><path d="M436.13,513.11h1.19v6h-1.19Z"/><path d="M440.61,518.65h0a1.37,1.37,0,0,1-1.22.58A1.24,1.24,0,0,1,438,518c0-1.34,1.63-1.36,2.62-1.36a.71.71,0,0,0-.76-.7,1.32,1.32,0,0,0-1,.46l-.63-.65a2.51,2.51,0,0,1,1.7-.62c1.4,0,1.77.71,1.77,2v2h-1.1Zm-.29-1.21c-.37,0-1.18,0-1.18.56,0,.28.3.42.56.42.47,0,.91-.25.91-.72v-.26Z"/><path d="M444.65,516.4a.87.87,0,0,0-.69-.32c-.2,0-.44.09-.44.32,0,.57,2,.08,2,1.56,0,1-.95,1.27-1.78,1.27a2.12,2.12,0,0,1-1.52-.52l.72-.81a1.06,1.06,0,0,0,.85.42c.27,0,.54-.07.54-.27,0-.63-2-.1-2-1.57,0-.91.82-1.31,1.63-1.31a2,2,0,0,1,1.43.51Z"/><path d="M448.34,516.4a.88.88,0,0,0-.7-.32c-.2,0-.43.09-.43.32,0,.57,2,.08,2,1.56,0,1-1,1.27-1.78,1.27a2.12,2.12,0,0,1-1.52-.52l.72-.81a1,1,0,0,0,.84.42c.28,0,.55-.07.55-.27,0-.63-2-.1-2-1.57,0-.91.81-1.31,1.63-1.31a2,2,0,0,1,1.43.51Z"/><path d="M455.13,514.87a1.22,1.22,0,0,0-.9-.37c-.35,0-.83.16-.83.58,0,1,2.59.37,2.59,2.34,0,1.26-1,1.86-2.17,1.86a2.66,2.66,0,0,1-1.9-.71l.89-1a1.37,1.37,0,0,0,1.08.53c.4,0,.86-.19.86-.59,0-1-2.65-.47-2.65-2.35a1.94,1.94,0,0,1,2.16-1.84,2.54,2.54,0,0,1,1.72.59Z"/><path d="M459.38,516.52a.72.72,0,0,0-.59-.3,1,1,0,0,0,0,2,.74.74,0,0,0,.59-.29l.79.82a1.9,1.9,0,0,1-1.38.52,2,2,0,1,1,0-4.06,1.94,1.94,0,0,1,1.38.52Z"/><path d="M461.8,513.11v2.68h0a1.14,1.14,0,0,1,1.09-.62c1.21,0,1.43.8,1.43,1.83v2.14h-1.19v-1.9c0-.45,0-1-.62-1s-.72.49-.72,1v1.93h-1.2v-6Z"/><path d="M468.84,518.47a2.11,2.11,0,0,1-1.63.76,2,2,0,1,1,0-4.06,1.8,1.8,0,0,1,1.81,2v.37h-2.77a.89.89,0,0,0,.9.75,1,1,0,0,0,.85-.47Zm-1-1.71a.72.72,0,0,0-.74-.73.8.8,0,0,0-.84.73Z"/><path d="M473.81,519.14h-1.1v-.51h0a1.48,1.48,0,0,1-1.18.6,1.86,1.86,0,0,1-1.91-2,1.89,1.89,0,0,1,1.77-2.06,1.45,1.45,0,0,1,1.23.51h0v-2.57h1.2Zm-2.06-2.92a1,1,0,1,0,1,1A.91.91,0,0,0,471.75,516.22Z"/><path d="M478.49,519.14h-1.14v-.53h0a1.26,1.26,0,0,1-1.13.62c-1.21,0-1.43-.79-1.43-1.83v-2.13H476v1.89c0,.45,0,1,.62,1s.72-.48.72-1v-1.92h1.19Z"/><path d="M479.35,513.11h1.2v6h-1.2Z"/><path d="M485.07,518.47a2.11,2.11,0,0,1-1.63.76,2,2,0,1,1,0-4.06,1.8,1.8,0,0,1,1.81,2v.37h-2.77a.89.89,0,0,0,.9.75,1,1,0,0,0,.85-.47Zm-1-1.71a.71.71,0,0,0-.73-.73.8.8,0,0,0-.85.73Z"/></g></svg>