<svg id="Layer_1" data-name="Layer 1" xmlns="http://www.w3.org/2000/svg" xmlns:xlink="http://www.w3.org/1999/xlink" viewBox="0 0 1065 2052"><defs><style>.cls-1,.cls-16,.cls-17,.cls-18,.cls-25,.cls-27{fill:none;}.cls-2,.cls-26{fill:#3c3c3c;}.cls-3{fill:#2d2d2d;}.cls-4{fill:#63332a;}.cls-12,.cls-5,.cls-6,.cls-7{font-size:18px;}.cls-11,.cls-12,.cls-19,.cls-28,.cls-5,.cls-7{fill:#fff;}.cls-5,.cls-6{font-family:Baskerville;}.cls-21,.cls-6{fill:#a8a8a8;}.cls-7{font-family:AvenirLTStd-Medium, Avenir LT Std;font-weight:500;}.cls-8{letter-spacing:-0.02em;}.cls-9{letter-spacing:0em;}.cls-10{fill:#80332a;}.cls-12{font-family:Baskerville-SemiBoldItalic, Baskerville;font-weight:600;font-style:italic;}.cls-13{letter-spacing:-0.04em;}.cls-14{letter-spacing:0em;}.cls-15{letter-spacing:-0.01em;}.cls-16,.cls-17,.cls-18,.cls-25,.cls-26,.cls-27,.cls-28{stroke:#fff;stroke-linejoin:round;}.cls-16,.cls-17,.cls-18,.cls-27{stroke-linecap:round;}.cls-16,.cls-17,.cls-18{stroke-width:3px;}.cls-17{stroke-dasharray:0.25 9.9;}.cls-18{stroke-dasharray:0.25 10;}.cls-19{font-size:20px;font-family:AvenirLTStd-Black, Avenir LT Std;font-weight:800;}.cls-20{letter-spacing:-0.02em;}.cls-22{clip-path:url(#clip-path);}.cls-23{fill:gray;}.cls-24{letter-spacing:0em;}.cls-25,.cls-26,.cls-27,.cls-28{stroke-width:2px;}</style><clipPath id="clip-path"><path class="cls-1" d="M908.81,3308.23h62.11V2046.81h-875L95,2764.7C445.57,2799.87,564.66,3308.23,908.81,3308.23Z"/></clipPath></defs><title>CCSF</title><g id="Previous_bg" data-name="Previous bg"><path class="cls-2" d="M908.81,3308.23h62.11V2046.81h-875L95,2764.7C445.57,2799.87,564.66,3308.23,908.81,3308.23Z"/><polygon class="cls-3" points="301.6 1654.43 301.6 1717.32 131.41 1717.32 56.41 1654.5 56.41 1646.87 301.6 1654.43"/><polygon class="cls-3" points="305 850.77 301.6 951.56 131.41 951.56 56.41 888.66 305 850.77"/><polygon class="cls-4" points="766.7 1660.12 766.7 1597.23 936.89 1597.23 1011.89 1660.12 1011.89 1672.62 766.7 1660.12"/><text class="cls-5" transform="translate(861.82 191.7)">35.4%</text><text class="cls-6" transform="translate(575.35 233.2)">12.9%</text><text class="cls-6" transform="translate(455.41 316.05)">3.2%</text><text class="cls-6" transform="translate(699.56 274.7)">22.5%</text><text class="cls-7" transform="translate(908.51 574.52) rotate(90)">User Resea<tspan class="cls-8" x="90.68" y="0">r</tspan><tspan class="cls-9" x="97.02" y="0">ch</tspan></text><path class="cls-10" d="M970.92,1660.12V-4.31h-875V1985.32h875v-97.27h41V1660.12Z"/><path class="cls-2" d="M118.52,1388.48H56.41v266H95.35V2052H970.92v-164C590,1888.05,475,1388.48,118.52,1388.48Z"/><path class="cls-4" d="M56.41,826.72v61.94h247.2c61.72,0,97-61.94,97-61.94Z"/><path class="cls-11" d="M986.81,826.72V764.79H498.17c-61.71,0-97,61.93-97,61.93Z"/><text class="cls-12" transform="translate(563.43 600.9)">a<tspan class="cls-13" x="9.55" y="0">f</tspan><tspan x="14.33" y="0">fordable</tspan><tspan x="0.47" y="30">accessible</tspan><tspan x="22.39" y="60">diverse</tspan><tspan x="17.81" y="90">e</tspan><tspan class="cls-13" x="26.25" y="90">f</tspan><tspan x="31.03" y="90">ficient</tspan><tspan class="cls-14" x="19.96" y="120">r</tspan><tspan x="27.81" y="120">eliable</tspan></text><text class="cls-12" transform="translate(263.68 148.56)">Registration<tspan x="10.86" y="41.25">Scheduling</tspan><tspan class="cls-15" x="55.63" y="82.5">W</tspan><tspan x="72" y="82.5">eb4</tspan><tspan x="39.42" y="123.75">Canvas</tspan><tspan x="64.13" y="165">Fees</tspan></text><text class="cls-12" transform="translate(243.44 945.78)">1990s<tspan x="0" y="30">cold</tspan><tspan x="0" y="60">impacted</tspan><tspan x="0" y="90">lower class</tspan><tspan x="0" y="120">old</tspan></text><line class="cls-16" x1="680.09" y1="392.22" x2="680.09" y2="392.35"/><line class="cls-17" x1="680.09" y1="402.25" x2="680.09" y2="762.71"/><line class="cls-16" x1="680.09" y1="767.66" x2="680.09" y2="767.79"/><line class="cls-18" x1="210" y1="100.31" x2="210" y2="611.23"/><line class="cls-18" x1="205.38" y1="879.66" x2="205.38" y2="1251.69"/><line class="cls-18" x1="532.5" y1="1112" x2="532.5" y2="1873.85"/><path class="cls-10" d="M685.2,799.35v17H675v-17H660.16v-9.26H675V773.78H685.2v16.31H700v9.26Z"/><path class="cls-11" d="M210.5,862.32H185.45v-9.26h39.87v9.26Z"/><text class="cls-19" transform="translate(288.35 1314.92)">AREAS FOR <tspan x="-16.48" y="26">IMPROVEMENT</tspan></text><text class="cls-19" transform="translate(205.38 73.68)">TOP USES</text><text class="cls-19" transform="translate(199.38 792.76)">5 WORDS</text><text class="cls-19" transform="translate(648.17 1703.71)">AREAS WO<tspan class="cls-20" x="109.24" y="0">R</tspan><tspan x="121.84" y="0">TH</tspan><tspan x="29.24" y="26">KEEPING</tspan></text><path class="cls-21" d="M402.11,302h33.8a6.71,6.71,0,0,1,6.7,6.71v.61a6.7,6.7,0,0,1-6.7,6.7h-33.8Z"/><path class="cls-21" d="M402.11,260.69h276.6a6.7,6.7,0,0,1,6.7,6.7V268a6.7,6.7,0,0,1-6.7,6.7H402.11Z"/><path class="cls-21" d="M402.11,219.49H557.2a6.7,6.7,0,0,1,6.7,6.71v.3a6.7,6.7,0,0,1-6.7,6.7H402.11Z"/><path class="cls-11" d="M402.11,178.3h438.4a6.7,6.7,0,0,1,6.7,6.7h0a6.7,6.7,0,0,1-6.7,6.7H402.11Z"/><path class="cls-21" d="M402.11,136.8H719a6.7,6.7,0,0,1,6.7,6.7v.31a6.7,6.7,0,0,1-6.7,6.7H402.11Z"/><text class="cls-6" transform="translate(741.66 150.55)">25.8%</text><g class="cls-22"><path class="cls-23" d="M545.46,2807.26H545v-3.87h-1.37V2803h3.24v.44h-1.37v3.87m3.31.07a1.51,1.51,0,0,1-1.14-.44,1.75,1.75,0,0,1-.41-1.22,1.89,1.89,0,0,1,.38-1.25,1.31,1.31,0,0,1,1-.46,1.22,1.22,0,0,1,1,.4,1.55,1.55,0,0,1,.36,1.06v.31h-2.23a1.26,1.26,0,0,0,.29.87,1,1,0,0,0,.76.29,2.51,2.51,0,0,0,1-.22v.45a2.54,2.54,0,0,1-.49.16,2.87,2.87,0,0,1-.55,0m-.13-2.95a.83.83,0,0,0-.63.25,1.09,1.09,0,0,0-.27.7h1.69a1.1,1.1,0,0,0-.2-.7.72.72,0,0,0-.59-.25m4.23,2a.83.83,0,0,1-.33.7,1.56,1.56,0,0,1-.95.25,2,2,0,0,1-1-.21v-.46a2,2,0,0,0,.5.19,2.31,2.31,0,0,0,.51.07,1.16,1.16,0,0,0,.59-.12.41.41,0,0,0,.21-.38.39.39,0,0,0-.16-.32,2.35,2.35,0,0,0-.64-.31,4.74,4.74,0,0,1-.65-.3,1,1,0,0,1-.28-.29.74.74,0,0,1-.09-.38.73.73,0,0,1,.32-.62,1.53,1.53,0,0,1,.88-.24,2.51,2.51,0,0,1,1,.22l-.18.4a2.41,2.41,0,0,0-.89-.2,1.17,1.17,0,0,0-.52.1.34.34,0,0,0-.18.31.36.36,0,0,0,.07.22,1,1,0,0,0,.21.17,3.69,3.69,0,0,0,.57.24,1.93,1.93,0,0,1,.78.43.76.76,0,0,1,.2.53m1.84.54a1,1,0,0,0,.25,0,.75.75,0,0,0,.19,0v.37a.7.7,0,0,1-.23.07l-.28,0c-.62,0-.93-.34-.93-1v-1.94h-.47v-.23l.47-.21.2-.68h.28v.75h.94v.37h-.94v1.91a.67.67,0,0,0,.14.45.46.46,0,0,0,.38.16m1.58.34h-.49V2804h.49v3.23m-.53-4.11a.37.37,0,0,1,.08-.25.31.31,0,0,1,.21-.07.24.24,0,0,1,.2.08.3.3,0,0,1,.09.24.33.33,0,0,1-.09.25.27.27,0,0,1-.2.07.31.31,0,0,1-.21-.07.37.37,0,0,1-.08-.25m3.78,4.11v-2.09a.85.85,0,0,0-.18-.59.72.72,0,0,0-.56-.2.92.92,0,0,0-.75.28,1.37,1.37,0,0,0-.23.9v1.7h-.49V2804h.4l.08.44h0a1,1,0,0,1,.42-.37,1.34,1.34,0,0,1,.61-.14,1.23,1.23,0,0,1,.88.29,1.18,1.18,0,0,1,.3.9v2.11h-.5m4.14-3.23v.3l-.6.07a.82.82,0,0,1,.15.28.9.9,0,0,1,.07.37.94.94,0,0,1-.33.76,1.29,1.29,0,0,1-.89.29,1.12,1.12,0,0,1-.27,0,.5.5,0,0,0-.31.42.22.22,0,0,0,.11.2.8.8,0,0,0,.37.06h.58a1.23,1.23,0,0,1,.8.22.77.77,0,0,1,.28.65.91.91,0,0,1-.43.82,2.34,2.34,0,0,1-1.25.28,1.69,1.69,0,0,1-1-.24.75.75,0,0,1-.35-.67.78.78,0,0,1,.19-.51,1,1,0,0,1,.53-.29.56.56,0,0,1-.21-.17.5.5,0,0,1-.08-.27.55.55,0,0,1,.09-.32,1.12,1.12,0,0,1,.3-.26.85.85,0,0,1-.41-.35,1,1,0,0,1-.15-.56,1,1,0,0,1,.32-.82,1.25,1.25,0,0,1,.9-.3,1.39,1.39,0,0,1,.46.07h1.11m-2.57,3.78a.45.45,0,0,0,.22.4,1.18,1.18,0,0,0,.63.13,1.82,1.82,0,0,0,.92-.18.57.57,0,0,0,.29-.5.42.42,0,0,0-.16-.37,1.37,1.37,0,0,0-.61-.1h-.59a.81.81,0,0,0-.52.16.56.56,0,0,0-.18.46m.26-2.75a.67.67,0,0,0,.19.52.76.76,0,0,0,.54.17.63.63,0,0,0,.72-.7.64.64,0,0,0-.73-.72.65.65,0,0,0-.72.73M467.58,1189.75a.65.65,0,0,0,.2.51.74.74,0,0,0,.53.18.63.63,0,0,0,.72-.7.64.64,0,0,0-.72-.73.66.66,0,0,0-.73.74M568,2806.38a.81.81,0,0,1-.33.7,1.54,1.54,0,0,1-.95.25,2,2,0,0,1-1-.21v-.46a2.34,2.34,0,0,0,.5.19,2.4,2.4,0,0,0,.52.07,1.18,1.18,0,0,0,.59-.12.41.41,0,0,0,.21-.38.4.4,0,0,0-.17-.32,2.08,2.08,0,0,0-.64-.31,4.49,4.49,0,0,1-.64-.3,1,1,0,0,1-.28-.29.74.74,0,0,1-.09-.38.71.71,0,0,1,.32-.62,1.51,1.51,0,0,1,.88-.24,2.51,2.51,0,0,1,1,.22l-.19.4a2.36,2.36,0,0,0-.88-.2,1.14,1.14,0,0,0-.52.1.34.34,0,0,0-.18.31.36.36,0,0,0,.07.22.64.64,0,0,0,.21.17,3.69,3.69,0,0,0,.57.24,2.08,2.08,0,0,1,.78.43.75.75,0,0,1,.19.53m2.17.95a1.51,1.51,0,0,1-1.13-.44,1.71,1.71,0,0,1-.42-1.22,1.89,1.89,0,0,1,.39-1.25,1.29,1.29,0,0,1,1-.46,1.25,1.25,0,0,1,1,.4,1.59,1.59,0,0,1,.35,1.06v.31h-2.23a1.31,1.31,0,0,0,.29.87,1,1,0,0,0,.77.29,2.51,2.51,0,0,0,1-.22v.45a2.78,2.78,0,0,1-.49.16,3,3,0,0,1-.56,0m-.13-2.95a.86.86,0,0,0-.63.25,1.2,1.2,0,0,0-.27.7h1.69a1,1,0,0,0-.2-.7.71.71,0,0,0-.59-.25m3.63-.42a2.34,2.34,0,0,1,.39,0l-.08.46a1.63,1.63,0,0,0-.35-.05.86.86,0,0,0-.67.32,1.14,1.14,0,0,0-.28.79v1.74h-.49V2804h.4l.06.6h0a1.29,1.29,0,0,1,.43-.49,1,1,0,0,1,.56-.18m1.69,3.3-1.23-3.23h.53l.69,1.92c.16.45.25.73.29.87h0c0-.1.09-.32.2-.64l.78-2.15h.53l-1.23,3.23h-.58m2.81,0h-.49V2804h.49v3.23m-.53-4.11a.37.37,0,0,1,.08-.25.3.3,0,0,1,.21-.07.26.26,0,0,1,.2.08.33.33,0,0,1,.08.24.37.37,0,0,1-.08.25.29.29,0,0,1-.2.07.3.3,0,0,1-.21-.07.37.37,0,0,1-.08-.25m2.86,4.18a1.39,1.39,0,0,1-1.09-.44,1.77,1.77,0,0,1-.39-1.22,1.85,1.85,0,0,1,.4-1.26,1.42,1.42,0,0,1,1.11-.45,2.59,2.59,0,0,1,.47.05,1.63,1.63,0,0,1,.36.13l-.15.41a1.79,1.79,0,0,0-.35-.1,1.55,1.55,0,0,0-.34,0c-.66,0-1,.42-1,1.25a1.51,1.51,0,0,0,.24.92.83.83,0,0,0,.71.32,2.37,2.37,0,0,0,.83-.17v.43a1.69,1.69,0,0,1-.82.18m3,0a1.51,1.51,0,0,1-1.14-.44,1.75,1.75,0,0,1-.41-1.22,1.89,1.89,0,0,1,.38-1.25,1.32,1.32,0,0,1,1-.46,1.22,1.22,0,0,1,1,.4,1.55,1.55,0,0,1,.36,1.06v.31H582.4a1.31,1.31,0,0,0,.29.87,1,1,0,0,0,.76.29,2.56,2.56,0,0,0,1-.22v.45a2.87,2.87,0,0,1-.5.16,2.79,2.79,0,0,1-.55,0m-.13-2.95a.84.84,0,0,0-.63.25,1.14,1.14,0,0,0-.27.7h1.69a1.1,1.1,0,0,0-.2-.7.72.72,0,0,0-.59-.25m4.23,2a.83.83,0,0,1-.33.7,1.56,1.56,0,0,1-1,.25,2,2,0,0,1-1-.21v-.46a2.15,2.15,0,0,0,.5.19,2.31,2.31,0,0,0,.51.07,1.16,1.16,0,0,0,.59-.12.41.41,0,0,0,.21-.38.42.42,0,0,0-.16-.32,2.35,2.35,0,0,0-.64-.31,4,4,0,0,1-.64-.3,1,1,0,0,1-.29-.29.74.74,0,0,1-.09-.38.73.73,0,0,1,.32-.62,1.54,1.54,0,0,1,.89-.24,2.5,2.5,0,0,1,1,.22l-.18.4a2.4,2.4,0,0,0-.88-.2,1.22,1.22,0,0,0-.53.1.34.34,0,0,0-.17.31.43.43,0,0,0,.06.22,1,1,0,0,0,.21.17,3.5,3.5,0,0,0,.58.24,2,2,0,0,1,.77.43.76.76,0,0,1,.2.53m3.82-2h-.82v2.86h-.49v-2.86h-.58v-.22l.58-.17v-.18c0-.8.34-1.2,1-1.2a2.13,2.13,0,0,1,.6.11l-.13.39a1.54,1.54,0,0,0-.47-.09.5.5,0,0,0-.42.19,1.1,1.1,0,0,0-.13.59v.21h.82v.37m3.39,1.24a1.83,1.83,0,0,1-.4,1.24,1.4,1.4,0,0,1-1.11.45,1.44,1.44,0,0,1-.77-.21,1.37,1.37,0,0,1-.52-.59,2,2,0,0,1-.18-.89,1.75,1.75,0,0,1,.4-1.23,1.42,1.42,0,0,1,1.1-.45,1.39,1.39,0,0,1,1.08.46,1.81,1.81,0,0,1,.4,1.22m-2.47,0a1.6,1.6,0,0,0,.25,1,1,1,0,0,0,1.46,0,1.91,1.91,0,0,0,0-1.89.88.88,0,0,0-.74-.32.83.83,0,0,0-.72.32,1.5,1.5,0,0,0-.25.94m4.8-1.68a2.11,2.11,0,0,1,.38,0l-.07.46a1.63,1.63,0,0,0-.35-.05.9.9,0,0,0-.68.32,1.18,1.18,0,0,0-.27.79v1.74h-.49V2804h.4l.06.6h0a1.29,1.29,0,0,1,.43-.49.91.91,0,0,1,.56-.18"/></g><line class="cls-18" x1="70.4" y1="1326" x2="995.49" y2="881.13"/><line class="cls-18" x1="70.4" y1="685.42" x2="995.49" y2="240.55"/></g><g id="Persona"><text class="cls-12" transform="translate(301.95 1521.26)">Navigation</text><text class="cls-12" transform="translate(320.32 1711.7)">Visual<tspan x="-15.37" y="24">Hiera</tspan><tspan class="cls-24" x="30.41" y="24">r</tspan><tspan x="38.24" y="24">chy</tspan></text><text class="cls-12" transform="translate(310.37 1915.34)">Relevant<tspan x="3.85" y="24">Content</tspan></text><polygon class="cls-25" points="360.7 1437.8 337.17 1419.2 336.32 1449.18 344.87 1441.34 349.44 1451.12 353.76 1449.1 349.2 1439.32 360.7 1437.8"/><path class="cls-25" d="M384.06,1455.49a11.61,11.61,0,0,1-11.34,11.85H359.88l-14,20.31-14.12-20.31H319.1a11.61,11.61,0,0,1-11.35-11.85V1409a11.6,11.6,0,0,1,11.35-11.85h53.62A11.6,11.6,0,0,1,384.06,1409Z"/><rect class="cls-25" x="338.54" y="1634.79" width="9.77" height="9.77" rx="3.09"/><rect class="cls-25" x="352.8" y="1621.78" width="14" height="14" rx="3.09"/><rect class="cls-25" x="329.16" y="1610.7" width="19.15" height="19.15" rx="3.09"/><path class="cls-25" d="M384.06,1648.33a11.61,11.61,0,0,1-11.34,11.85H359.88l-14,20.31-14.12-20.31H319.1a11.61,11.61,0,0,1-11.35-11.85v-46.54a11.61,11.61,0,0,1,11.35-11.85h53.62a11.61,11.61,0,0,1,11.34,11.85Z"/><circle class="cls-25" cx="346.34" cy="1827.92" r="22.17"/><circle class="cls-25" cx="346.34" cy="1827.92" r="13.22"/><line class="cls-26" x1="368.51" y1="1850.09" x2="346.34" y2="1827.92"/><polyline class="cls-27" points="352.07 1827.92 346.34 1827.92 346.34 1833.83"/><path class="cls-25" d="M384.06,1850.74a11.6,11.6,0,0,1-11.34,11.85H359.88l-14,20.31-14.12-20.31H319.1a11.6,11.6,0,0,1-11.35-11.85v-46.53a11.6,11.6,0,0,1,11.35-11.85h53.62a11.6,11.6,0,0,1,11.34,11.85Z"/><text class="cls-12" transform="translate(672.75 1143.03)">Photography</text><text class="cls-12" transform="translate(696.12 1327.33)">Quick<tspan x="1.78" y="24">Links</tspan></text><text class="cls-12" transform="translate(704.64 1526.65)">Red</text><path class="cls-25" d="M682.34,1204.51a11.6,11.6,0,0,1,11.35-11.85h12.84l14-20.31,14.11,20.31h12.7a11.6,11.6,0,0,1,11.35,11.85V1251a11.61,11.61,0,0,1-11.35,11.85H693.69A11.61,11.61,0,0,1,682.34,1251Z"/><circle class="cls-25" cx="720.14" cy="1228.59" r="9.59"/><circle class="cls-25" cx="720.14" cy="1228.59" r="4.36"/><circle class="cls-25" cx="733.52" cy="1215.71" r="2.05"/><rect class="cls-25" x="700.29" y="1208.74" width="39.69" height="39.69" rx="4.82"/><path class="cls-25" d="M682.34,1583.13a11.61,11.61,0,0,1,11.35-11.85h12.84l14-20.31,14.11,20.31h12.7a11.61,11.61,0,0,1,11.35,11.85v46.54a11.61,11.61,0,0,1-11.35,11.85H693.69a11.61,11.61,0,0,1-11.35-11.85Z"/><path class="cls-25" d="M732.59,1599.94l4.43-4.43a3.85,3.85,0,0,0,0-5.44h0a3.85,3.85,0,0,0-5.44,0l-4.43,4.43-3.07-3.07-3.43,3.42,11.59,11.59,3.42-3.43Z"/><path class="cls-25" d="M710.55,1621.08l-5,2.32a1.42,1.42,0,0,1-1.61-.29h0a1.42,1.42,0,0,1-.29-1.61l2.32-5a10.34,10.34,0,0,1,2.09-3l15.62-15.62,5.44,5.44L713.54,1619A10.34,10.34,0,0,1,710.55,1621.08Z"/><path class="cls-28" d="M704,1623.11h0a1.42,1.42,0,0,0,1.61.29l5-2.32a10.34,10.34,0,0,0,3-2.09l9.75-9.75-10.55-.33-4.64,4.64a10.34,10.34,0,0,0-2.09,3l-2.32,5a1.42,1.42,0,0,0,.29,1.61"/><path class="cls-25" d="M682.34,1407.2a11.61,11.61,0,0,1,11.35-11.85h12.84l14-20.31,14.11,20.31h12.7a11.61,11.61,0,0,1,11.35,11.85v46.53a11.61,11.61,0,0,1-11.35,11.86H693.69a11.61,11.61,0,0,1-11.35-11.86Z"/><path class="cls-27" d="M721.43,1432.65a6.08,6.08,0,0,1-8.59,0l-9.35-9.36a6.06,6.06,0,0,1,0-8.59l1.9-1.91a6.09,6.09,0,0,1,8.6,0l7.14,7.14"/><path class="cls-27" d="M719.42,1426.82a6.06,6.06,0,0,1,8.59,0l9.36,9.35a6.08,6.08,0,0,1,0,8.59l-1.91,1.91a6.07,6.07,0,0,1-8.6,0l-7.31-7.31"/></g></svg>