<svg id="Layer_1" data-name="Layer 1" xmlns="http://www.w3.org/2000/svg" viewBox="0 0 1065 1552.92"><defs><style>.cls-1{fill:#e5dbdb;}.cls-2{font-size:18px;fill:#3c3c3c;font-family:AvenirLTStd-Medium, Avenir LT Std;font-weight:500;}.cls-3{letter-spacing:-0.02em;}.cls-4,.cls-9{fill:none;}.cls-4{stroke:#80332a;stroke-linecap:round;stroke-linejoin:round;stroke-width:3px;stroke-dasharray:0.25 10;}.cls-5,.cls-8{fill:#fff;}.cls-5,.cls-6,.cls-9{stroke:#000;}.cls-5,.cls-6,.cls-8,.cls-9{stroke-miterlimit:10;}.cls-6{fill:#ddd;}.cls-7{font-size:7.97px;}.cls-10,.cls-7{font-family:AvenirLTStd-Black, Avenir LT Std;font-weight:800;}.cls-8{stroke:#231f20;}.cls-10{font-size:14.29px;}.cls-11{fill-rule:evenodd;}</style></defs><title>CCSF</title><g id="Previous_bg" data-name="Previous bg"><path class="cls-1" d="M970.92-12.23h-875v1366c349.86-35.65,469-362.08,812.89-362.08h62.11Z"/><text class="cls-2" transform="translate(908.51 132.3) rotate(90)">Wi<tspan class="cls-3" x="21.64" y="0">r</tspan><tspan x="27.97" y="0">eframe Round 2</tspan></text></g><g id="Competitor"><g id="Competitor_1" data-name="Competitor 1"><line class="cls-4" x1="295" y1="1313.01" x2="295" y2="1550.24"/><line class="cls-4" x1="390" y1="1313.01" x2="390" y2="1550.24"/><line class="cls-4" x1="485" y1="1313.01" x2="485" y2="1550.24"/><line class="cls-4" x1="580" y1="1313.01" x2="580" y2="1550.24"/><line class="cls-4" x1="675" y1="1313.01" x2="675" y2="1550.24"/><line class="cls-4" x1="770" y1="1313.01" x2="770" y2="1550.24"/></g></g><g id="homepage"><rect class="cls-5" x="210.03" y="134.19" width="644.94" height="1246.26"/><rect class="cls-5" x="241.76" y="828.22" width="172.96" height="135.99"/><rect class="cls-6" x="272.42" y="881.9" width="111.63" height="8.58"/><rect class="cls-6" x="272.42" y="898.62" width="111.63" height="8.58"/><text class="cls-7" transform="translate(288.2 861.67)">Prospective Students</text><polygon class="cls-6" points="337.11 932.49 328.24 941.37 319.37 932.49 337.11 932.49"/><rect class="cls-5" x="656.5" y="828.22" width="172.96" height="135.99"/><rect class="cls-6" x="687.16" y="881.9" width="111.63" height="8.58"/><rect class="cls-6" x="687.16" y="898.62" width="111.63" height="8.58"/><text class="cls-7" transform="translate(731.33 861.67)">About</text><polygon class="cls-6" points="751.85 932.49 742.98 941.37 734.1 932.49 751.85 932.49"/><rect class="cls-5" x="449.13" y="828.22" width="172.96" height="135.99"/><rect class="cls-6" x="479.79" y="881.9" width="111.63" height="8.58"/><rect class="cls-6" x="479.79" y="898.62" width="111.63" height="8.58"/><text class="cls-7" transform="translate(503.39 861.67)">Current Students</text><polygon class="cls-6" points="544.48 932.49 535.61 941.37 526.74 932.49 544.48 932.49"/><rect class="cls-8" x="210.03" y="158.08" width="644.94" height="391.25"/><rect class="cls-5" x="690.98" y="367.88" width="163.99" height="405.48"/><rect class="cls-6" x="210.03" y="134.19" width="644.94" height="23.89"/><rect class="cls-9" x="829.19" y="134.19" width="25.78" height="23.89"/><circle class="cls-6" cx="268.17" cy="322.06" r="26.41"/><text class="cls-10" transform="translate(324.02 305.91)">City College of San Francisco</text><text class="cls-7" transform="translate(709.03 391.61)">Spring 19 Important Dates</text><text class="cls-7" transform="translate(704.36 149.24)">Employee Services</text><text class="cls-7" transform="translate(600.8 149.24)">Web4</text><text class="cls-7" transform="translate(652.62 149.24)">Canvas</text><text class="cls-7" transform="translate(241.76 584.58)">Latest News</text><path class="cls-11" d="M848.24,150.65l-3.81-3a5.26,5.26,0,0,0,.91-2.88,4.86,4.86,0,1,0-4.86,4.86,4.82,4.82,0,0,0,2.9-1l3.43,3.44a1,1,0,1,0,1.43-1.43Zm-7.73-2.42a3.47,3.47,0,1,1,3.47-3.47A3.48,3.48,0,0,1,840.51,148.23Z"/><rect x="800.31" y="139.83" width="8.29" height="8.29"/><rect class="cls-5" x="805.57" y="145.1" width="8.29" height="8.29"/><rect class="cls-6" x="324.18" y="322.12" width="252.28" height="8.58"/><rect class="cls-6" x="324.18" y="338.76" width="252.28" height="8.58"/><rect class="cls-6" x="709.03" y="413.4" width="40.02" height="40.02"/><rect class="cls-6" x="761.63" y="413.4" width="69.18" height="8.58"/><rect class="cls-6" x="761.63" y="429.13" width="69.18" height="8.58"/><rect class="cls-6" x="709.03" y="481.65" width="40.02" height="40.02"/><rect class="cls-6" x="761.63" y="481.65" width="69.18" height="8.58"/><rect class="cls-6" x="761.63" y="497.38" width="69.18" height="8.58"/><rect class="cls-6" x="709.03" y="549.9" width="40.02" height="40.02"/><rect class="cls-6" x="761.63" y="549.9" width="69.18" height="8.58"/><rect class="cls-6" x="761.63" y="565.63" width="69.18" height="8.58"/><rect class="cls-6" x="709.03" y="620.82" width="40.02" height="40.02"/><rect class="cls-6" x="761.63" y="620.82" width="69.18" height="8.58"/><rect class="cls-6" x="761.63" y="636.54" width="69.18" height="8.58"/><rect class="cls-6" x="709.03" y="691.74" width="40.02" height="40.02"/><rect class="cls-6" x="761.63" y="691.74" width="69.18" height="8.58"/><rect class="cls-6" x="761.63" y="707.46" width="69.18" height="8.58"/><polygon class="cls-6" points="782.59 749.31 773.72 758.18 764.85 749.31 782.59 749.31"/><rect class="cls-6" x="241.76" y="608.98" width="380.32" height="164.37"/><polygon class="cls-6" points="640.21 682.87 649.09 691.74 640.21 700.61 640.21 682.87"/><rect class="cls-6" x="210.03" y="1022.91" width="644.94" height="357.54"/><text class="cls-7" transform="translate(241.76 1087.92)">Public Information</text><rect class="cls-6" x="241.76" y="1115.44" width="111.63" height="8.58"/><text class="cls-7" transform="translate(558.65 1087.92)">Support CCSF</text><rect class="cls-6" x="558.65" y="1115.44" width="270.8" height="8.58"/><rect class="cls-6" x="558.65" y="1135.17" width="270.8" height="8.58"/><rect class="cls-6" x="558.65" y="1163.47" width="67.7" height="19.73"/><rect class="cls-6" x="241.76" y="1135.17" width="111.63" height="8.58"/><rect class="cls-6" x="241.76" y="1154.89" width="111.63" height="8.58"/><rect class="cls-6" x="241.76" y="1174.62" width="111.63" height="8.58"/><rect class="cls-6" x="241.76" y="1194.34" width="111.63" height="8.58"/><rect class="cls-6" x="295.13" y="1284.34" width="58.27" height="8.58"/><rect class="cls-6" x="295.13" y="1300.06" width="58.27" height="8.58"/><rect class="cls-6" x="241.76" y="1328.14" width="184.82" height="8.58"/><rect class="cls-6" x="241.76" y="1343.86" width="184.82" height="8.58"/><rect class="cls-6" x="667.86" y="1343.86" width="46.21" height="8.58"/><rect class="cls-6" x="725.55" y="1343.86" width="46.21" height="8.58"/><rect class="cls-6" x="783.25" y="1343.86" width="46.21" height="8.58"/><rect class="cls-6" x="610.16" y="1343.86" width="46.21" height="8.58"/><rect class="cls-6" x="370.77" y="1115.44" width="111.63" height="8.58"/><rect class="cls-6" x="370.77" y="1194.34" width="111.63" height="8.58"/><rect class="cls-6" x="370.77" y="1135.17" width="111.63" height="8.58"/><rect class="cls-6" x="370.77" y="1154.89" width="111.63" height="8.58"/><rect class="cls-6" x="370.77" y="1174.62" width="111.63" height="8.58"/><text class="cls-7" transform="translate(584.54 1176.54)">CTA</text><circle class="cls-6" cx="259.28" cy="1296.49" r="17.52"/><circle class="cls-6" cx="820.7" cy="1322.77" r="8.76"/><circle class="cls-6" cx="791.9" cy="1322.77" r="8.76"/><circle class="cls-6" cx="763.11" cy="1322.77" r="8.76"/><circle class="cls-6" cx="734.31" cy="1322.77" r="8.76"/><rect class="cls-6" x="324.18" y="392.02" width="67.7" height="19.73"/><text class="cls-7" transform="translate(342.25 405.09)">Register</text><rect class="cls-6" x="412.23" y="392.02" width="93.03" height="19.73"/><text class="cls-7" transform="translate(430.23 405.09)">Class Schedule</text></g></svg>