<svg id="Layer_1" data-name="Layer 1" xmlns="http://www.w3.org/2000/svg" viewBox="0 0 1065 453.54"><defs><style>.cls-1{fill:#fff;}.cls-2{fill:#a8a8a8;}.cls-3{fill:#80332a;}.cls-4,.cls-5,.cls-6{fill:none;stroke:#fff;stroke-linecap:round;stroke-linejoin:round;stroke-width:3px;}.cls-5{stroke-dasharray:0.25 9.9;}.cls-6{stroke-dasharray:0.25 10;}</style></defs><title>CCSF</title><g id="Previous_bg" data-name="Previous bg"><path class="cls-1" d="M866.29,185.31a1.68,1.68,0,0,1,.54-.08,2.52,2.52,0,0,1,2,.88,3.36,3.36,0,0,1,.74,2.22,3.44,3.44,0,0,1-1.1,2.64,4,4,0,0,1-2.83,1,3.67,3.67,0,0,1-2-.52c-.56-.36-.84-.73-.84-1.14a.65.65,0,0,1,.16-.43.52.52,0,0,1,.41-.18c.31,0,.53.21.66.62a1.57,1.57,0,0,0,.7,1,1.86,1.86,0,0,0,.89.24,2.25,2.25,0,0,0,1.79-.81,3.82,3.82,0,0,0,.69-2.51,3.36,3.36,0,0,0-.51-2,1.51,1.51,0,0,0-1.22-.66,2,2,0,0,0-1.33.73.38.38,0,0,1-.26.14c-.17,0-.26-.1-.26-.29a.4.4,0,0,1,.13-.26,6.82,6.82,0,0,1,.77-.56,7.59,7.59,0,0,0,1.84-1.57,2.6,2.6,0,0,0,.45-1.57,2,2,0,0,0-.47-1.4,1.62,1.62,0,0,0-1.24-.5,2.14,2.14,0,0,0-1.4.51,1.57,1.57,0,0,0-.61,1.28,1.63,1.63,0,0,0,.54,1.17.17.17,0,0,1,.06.11c0,.08-.1.16-.29.25a1.49,1.49,0,0,1-.42.13q-.28,0-.51-.42a1.72,1.72,0,0,1-.24-.89,2.39,2.39,0,0,1,.84-1.77,3.78,3.78,0,0,1,4.45-.13,2,2,0,0,1,.75,1.48,2.06,2.06,0,0,1-.51,1.34,8,8,0,0,1-1.71,1.43Z"/><path class="cls-1" d="M873.18,185.66h-.46l.27-5.47h4.56a3.83,3.83,0,0,1-.55,1,1,1,0,0,1-.59.14h-3.09l-.14,3.64a2.67,2.67,0,0,1,2.18-1.14,3,3,0,0,1,2.34,1.1,4,4,0,0,1,1,2.73,4.47,4.47,0,0,1-1.09,3.09,3.91,3.91,0,0,1-3.06,1.21,3.27,3.27,0,0,1-2.14-.63c-.51-.43-.76-.81-.76-1.16a.56.56,0,0,1,.15-.39.51.51,0,0,1,.42-.17.57.57,0,0,1,.44.17,2.67,2.67,0,0,1,.35.71,1.54,1.54,0,0,0,1.57,1.09,2.4,2.4,0,0,0,1.9-.91,4.53,4.53,0,0,0,.76-2.94,4.16,4.16,0,0,0-.63-2.61,1.87,1.87,0,0,0-1.49-.78A2.11,2.11,0,0,0,873.18,185.66Z"/><path class="cls-1" d="M881.11,191a.93.93,0,0,1,.27-.66,1,1,0,0,1,.67-.28.93.93,0,0,1,.67.28.9.9,0,0,1,.28.66,1,1,0,0,1-.28.68.94.94,0,0,1-.67.27.89.89,0,0,1-.67-.28A.94.94,0,0,1,881.11,191Z"/><path class="cls-1" d="M889.23,187.74h-4.32v-.53l5-7.31h.57v7.31h.8a2.37,2.37,0,0,0,.89-.09c.1-.05.23-.3.39-.74H893l-.21,1.36h-2.26v1.49a15.19,15.19,0,0,0,0,1.55.55.55,0,0,0,.29.39,2,2,0,0,0,.88.13v.4h-3.84v-.4h.31a1.41,1.41,0,0,0,.75-.15.57.57,0,0,0,.27-.4c0-.18,0-.68,0-1.52Zm0-.53v-5.58l-3.83,5.58Z"/><path class="cls-1" d="M898.82,182.69a3.55,3.55,0,0,1-.69,2.25,2.09,2.09,0,0,1-3.42,0,4.06,4.06,0,0,1,0-4.44,2.1,2.1,0,0,1,3.43,0A3.62,3.62,0,0,1,898.82,182.69Zm-1.14,0c0-1.86-.42-2.8-1.24-2.8s-1.25.94-1.25,2.8.41,2.81,1.25,2.81S897.68,184.56,897.68,182.69Zm.73,9h-.54L904,180.19h.53Zm9.9-2.84a3.64,3.64,0,0,1-.67,2.23,2,2,0,0,1-1.71.9,2.06,2.06,0,0,1-1.73-.91,4.05,4.05,0,0,1,0-4.45,2.07,2.07,0,0,1,3.42,0A3.61,3.61,0,0,1,908.31,188.86Zm-1.14,0c0-1.87-.42-2.81-1.24-2.81s-1.25.94-1.25,2.81.42,2.8,1.25,2.8S907.17,190.72,907.17,188.85Z"/><path class="cls-2" d="M580.18,221.4h.39v9.33c0,.77,0,1.25,0,1.45a.59.59,0,0,0,.25.46,1.33,1.33,0,0,0,.78.16H582v.4h-4v-.4h.29a1.28,1.28,0,0,0,.82-.18.75.75,0,0,0,.22-.43c0-.17,0-.65,0-1.46v-6.25c0-.8,0-1.27,0-1.44a.65.65,0,0,0-.22-.44,1.22,1.22,0,0,0-.82-.19h-.38V222A3.71,3.71,0,0,0,580.18,221.4Z"/><path class="cls-2" d="M585.38,233.2v-.54a21.47,21.47,0,0,0,2.54-2.48,16.17,16.17,0,0,0,2.21-2.92,5.13,5.13,0,0,0,.68-2.49,3.08,3.08,0,0,0-.69-2.21,2.29,2.29,0,0,0-1.7-.7,1.92,1.92,0,0,0-1.56.65,2.13,2.13,0,0,0-.55,1.39,1.53,1.53,0,0,0,.72,1.33c.17.12.26.22.26.28s-.1.25-.3.43a.86.86,0,0,1-.49.28c-.18,0-.39-.18-.64-.54a2.3,2.3,0,0,1-.37-1.36,2.53,2.53,0,0,1,1-2.13,3.73,3.73,0,0,1,2.3-.79,3.78,3.78,0,0,1,2.38.82,2.87,2.87,0,0,1,1,2.42,4,4,0,0,1-.47,1.92,14.37,14.37,0,0,1-2.31,2.78c-1.22,1.25-2.2,2.18-3,2.81h5.59l-.5,2h-.41a1.19,1.19,0,0,1,0-.32.78.78,0,0,0,0-.24c0-.17,0-.28-.12-.31a2.21,2.21,0,0,0-.61-.05Z"/><path class="cls-2" d="M594.65,232.54a.91.91,0,0,1,.27-.66.94.94,0,0,1,1.34,0,.93.93,0,0,1,0,1.34.91.91,0,0,1-.66.27.88.88,0,0,1-.67-.28A.94.94,0,0,1,594.65,232.54Z"/><path class="cls-2" d="M604.53,227.65a3.79,3.79,0,0,1-1.15,1,2.62,2.62,0,0,1-1.27.33,3.29,3.29,0,0,1-2.46-1.08,3.71,3.71,0,0,1-1-2.68,3.86,3.86,0,0,1,1-2.66,3.28,3.28,0,0,1,2.56-1.13,3.17,3.17,0,0,1,2.22.83,4.45,4.45,0,0,1,1.27,2.09,9.1,9.1,0,0,1,.37,2.61,8.37,8.37,0,0,1-1.23,4.67,3.75,3.75,0,0,1-3.28,1.89,3.41,3.41,0,0,1-1.71-.42c-.49-.28-.74-.59-.74-.94s.17-.49.51-.49.54.19.74.59a1.48,1.48,0,0,0,1.44.82,2.25,2.25,0,0,0,2.08-1.23,7.79,7.79,0,0,0,.69-3.7C604.54,228,604.54,227.83,604.53,227.65Zm0-2.34a6.11,6.11,0,0,0-.24-1.69,2.59,2.59,0,0,0-.8-1.32,1.83,1.83,0,0,0-1.25-.49,1.8,1.8,0,0,0-1.65.88,5,5,0,0,0-.55,2.63,5.64,5.64,0,0,0,.21,1.73,2.13,2.13,0,0,0,.76,1,2,2,0,0,0,1.23.41,2.21,2.21,0,0,0,1.6-.69A3.5,3.5,0,0,0,604.57,225.31Z"/><path class="cls-2" d="M612.36,224.19a3.55,3.55,0,0,1-.69,2.25,2,2,0,0,1-1.7.87,2.08,2.08,0,0,1-1.73-.9,4,4,0,0,1,0-4.44,2.1,2.1,0,0,1,3.43,0A3.6,3.6,0,0,1,612.36,224.19Zm-1.15,0c0-1.86-.41-2.8-1.24-2.8s-1.24.94-1.24,2.8S609.14,227,610,227,611.21,226.06,611.21,224.19Zm.73,9h-.53l6.11-11.51h.54Zm9.91-2.84a3.64,3.64,0,0,1-.67,2.23,2.09,2.09,0,0,1-3.44,0,4.08,4.08,0,0,1,0-4.45,2.08,2.08,0,0,1,1.73-.91,2,2,0,0,1,1.69.89A3.55,3.55,0,0,1,621.85,230.36Zm-1.14,0c0-1.87-.42-2.81-1.24-2.81s-1.25.94-1.25,2.81.41,2.8,1.25,2.8S620.71,232.22,620.71,230.35Z"/><path class="cls-2" d="M459.89,309.65a2,2,0,0,1,.54-.08,2.56,2.56,0,0,1,2,.88,3.36,3.36,0,0,1,.74,2.22,3.45,3.45,0,0,1-1.1,2.64,4,4,0,0,1-2.83,1,3.71,3.71,0,0,1-2-.53c-.55-.35-.83-.73-.83-1.13a.63.63,0,0,1,.16-.44.51.51,0,0,1,.41-.18c.31,0,.52.21.65.63a1.67,1.67,0,0,0,.7,1,2,2,0,0,0,.89.23,2.25,2.25,0,0,0,1.8-.81,3.79,3.79,0,0,0,.69-2.5,3.31,3.31,0,0,0-.51-2,1.51,1.51,0,0,0-1.22-.67,2,2,0,0,0-1.34.74.33.33,0,0,1-.25.13c-.18,0-.27-.09-.27-.28a.4.4,0,0,1,.14-.26,7.83,7.83,0,0,1,.77-.57,7.59,7.59,0,0,0,1.84-1.56,2.69,2.69,0,0,0,.44-1.57,2,2,0,0,0-.46-1.41,1.63,1.63,0,0,0-1.24-.49,2.14,2.14,0,0,0-1.4.5,1.6,1.6,0,0,0-.61,1.29,1.62,1.62,0,0,0,.53,1.17.18.18,0,0,1,.06.1c0,.08-.09.16-.29.25a1.1,1.1,0,0,1-.42.13c-.18,0-.35-.14-.51-.41a1.76,1.76,0,0,1-.24-.9,2.37,2.37,0,0,1,.85-1.76,3.15,3.15,0,0,1,2.26-.79,3.2,3.2,0,0,1,2.19.66,1.94,1.94,0,0,1,.74,1.48,2.1,2.1,0,0,1-.5,1.34,8.33,8.33,0,0,1-1.71,1.43Z"/><path class="cls-2" d="M465.7,315.39a.95.95,0,0,1,1.62-.66.94.94,0,0,1,0,1.33.92.92,0,0,1-1.33,0A.94.94,0,0,1,465.7,315.39Z"/><path class="cls-2" d="M469.94,316.05v-.55a22,22,0,0,0,2.54-2.47,16.52,16.52,0,0,0,2.21-2.92,5.12,5.12,0,0,0,.67-2.49,3.06,3.06,0,0,0-.68-2.21,2.3,2.3,0,0,0-1.71-.71,1.94,1.94,0,0,0-1.55.65,2.17,2.17,0,0,0-.55,1.39,1.56,1.56,0,0,0,.71,1.34c.18.12.27.21.27.28s-.1.25-.3.43a.83.83,0,0,1-.49.27c-.18,0-.39-.18-.64-.53a2.31,2.31,0,0,1-.37-1.37,2.55,2.55,0,0,1,1-2.13,3.83,3.83,0,0,1,4.67,0,2.88,2.88,0,0,1,1.06,2.43,4.19,4.19,0,0,1-.47,1.92,14.68,14.68,0,0,1-2.31,2.78c-1.22,1.24-2.2,2.18-3,2.8h5.59l-.5,2h-.41a1.12,1.12,0,0,1,.05-.31.78.78,0,0,0,0-.24c0-.18,0-.28-.12-.31a2.21,2.21,0,0,0-.61-.05Z"/><path class="cls-2" d="M483.41,307a3.5,3.5,0,0,1-.68,2.24,2,2,0,0,1-1.7.88,2.07,2.07,0,0,1-1.73-.9,3.69,3.69,0,0,1-.66-2.22,3.59,3.59,0,0,1,.67-2.22,2,2,0,0,1,1.72-.91,2.07,2.07,0,0,1,1.71.89A3.59,3.59,0,0,1,483.41,307Zm-1.14,0c0-1.87-.41-2.8-1.24-2.8s-1.25.93-1.25,2.8.42,2.8,1.25,2.8S482.27,308.91,482.27,307Zm.73,9h-.53l6.11-11.51h.54Zm9.91-2.85a3.67,3.67,0,0,1-.67,2.23,2,2,0,0,1-1.72.91,2.09,2.09,0,0,1-1.73-.91,3.7,3.7,0,0,1-.66-2.23,3.66,3.66,0,0,1,.67-2.22,2.07,2.07,0,0,1,3.42,0A3.55,3.55,0,0,1,492.91,313.2Zm-1.15,0c0-1.87-.41-2.8-1.24-2.8s-1.24.93-1.24,2.8.41,2.81,1.24,2.81S491.76,315.06,491.76,313.19Z"/><path class="cls-2" d="M700.59,274.7v-.54a21.54,21.54,0,0,0,2.53-2.48,15.71,15.71,0,0,0,2.21-2.92,5,5,0,0,0,.68-2.49,3.11,3.11,0,0,0-.68-2.21,2.29,2.29,0,0,0-1.71-.7,1.9,1.9,0,0,0-1.55.65,2.08,2.08,0,0,0-.55,1.38,1.55,1.55,0,0,0,.71,1.34c.18.12.27.22.27.28s-.1.25-.3.43a.85.85,0,0,1-.5.27c-.17,0-.38-.17-.63-.53a2.3,2.3,0,0,1-.38-1.36,2.54,2.54,0,0,1,1-2.14,3.81,3.81,0,0,1,4.67,0,2.85,2.85,0,0,1,1.06,2.42,4.13,4.13,0,0,1-.47,1.92,14.68,14.68,0,0,1-2.31,2.78c-1.22,1.24-2.21,2.18-3,2.81h5.59l-.5,2h-.41a.89.89,0,0,1,.05-.32.82.82,0,0,0,0-.24c0-.17,0-.28-.11-.31a2.31,2.31,0,0,0-.62-.05Z"/><path class="cls-2" d="M709.59,274.7v-.54a21.54,21.54,0,0,0,2.53-2.48,15.71,15.71,0,0,0,2.21-2.92,5,5,0,0,0,.68-2.49,3.11,3.11,0,0,0-.68-2.21,2.29,2.29,0,0,0-1.71-.7,1.9,1.9,0,0,0-1.55.65,2.08,2.08,0,0,0-.55,1.38,1.55,1.55,0,0,0,.71,1.34c.18.12.27.22.27.28s-.1.25-.3.43a.85.85,0,0,1-.5.27c-.17,0-.38-.17-.63-.53a2.3,2.3,0,0,1-.38-1.36,2.54,2.54,0,0,1,1-2.14,3.81,3.81,0,0,1,4.67,0,2.85,2.85,0,0,1,1.06,2.42,4.13,4.13,0,0,1-.47,1.92,14.68,14.68,0,0,1-2.31,2.78c-1.22,1.24-2.21,2.18-3,2.81h5.59l-.5,2h-.41a.89.89,0,0,1,.05-.32.82.82,0,0,0,0-.24c0-.17,0-.28-.11-.31a2.31,2.31,0,0,0-.62-.05Z"/><path class="cls-2" d="M718.85,274a.88.88,0,0,1,.28-.66.93.93,0,0,1,1.33,0,.88.88,0,0,1,.28.66.91.91,0,0,1-.28.68.94.94,0,0,1-.67.27.91.91,0,0,1-.67-.28A1,1,0,0,1,718.85,274Z"/><path class="cls-2" d="M724.42,268.66H724l.26-5.47h4.56a3.55,3.55,0,0,1-.55,1,1,1,0,0,1-.59.14h-3.09l-.14,3.64a2.69,2.69,0,0,1,2.18-1.14A3,3,0,0,1,729,268a4,4,0,0,1,1,2.73,4.44,4.44,0,0,1-1.1,3.08,3.88,3.88,0,0,1-3.06,1.22,3.23,3.23,0,0,1-2.14-.64,1.68,1.68,0,0,1-.76-1.15.59.59,0,0,1,.15-.4.55.55,0,0,1,.42-.16.54.54,0,0,1,.44.17,2.39,2.39,0,0,1,.35.71,1.55,1.55,0,0,0,1.57,1.09,2.41,2.41,0,0,0,1.9-.91,4.52,4.52,0,0,0,.77-2.94,4.16,4.16,0,0,0-.63-2.61,1.89,1.89,0,0,0-1.5-.78A2.12,2.12,0,0,0,724.42,268.66Z"/><path class="cls-2" d="M736.56,265.69a3.56,3.56,0,0,1-.68,2.24,2.1,2.1,0,0,1-3.43,0,3.67,3.67,0,0,1-.66-2.22,3.59,3.59,0,0,1,.67-2.22,2.07,2.07,0,0,1,3.42,0A3.54,3.54,0,0,1,736.56,265.69Zm-1.14,0c0-1.87-.41-2.8-1.24-2.8s-1.25.93-1.25,2.8.42,2.81,1.25,2.81S735.42,267.56,735.42,265.69Zm.73,9h-.54l6.12-11.51h.54Zm9.9-2.85a3.71,3.71,0,0,1-.66,2.24,2.1,2.1,0,0,1-3.45,0,3.7,3.7,0,0,1-.66-2.23,3.61,3.61,0,0,1,.67-2.22,2.08,2.08,0,0,1,3.42,0A3.58,3.58,0,0,1,746.05,271.85Zm-1.14,0c0-1.87-.41-2.81-1.24-2.81s-1.25.94-1.25,2.81.42,2.8,1.25,2.8S744.91,273.71,744.91,271.85Z"/><path class="cls-3" d="M970.92,1660.12V-4.31h-875V1985.32h875v-97.27h41V1660.12Z"/><path class="cls-1" d="M276.66,139.65a3.15,3.15,0,0,1-.18,1,3,3,0,0,1-.61,1,3.56,3.56,0,0,1-1.25.85,6,6,0,0,1-2,.44,2.75,2.75,0,0,1,.7.79,6.83,6.83,0,0,1,.59,1.48,11.32,11.32,0,0,0,.45,1.23,2.21,2.21,0,0,0,1.82,1.29l-.25.81h-3.07a5,5,0,0,1-.45-.81c-.15-.32-.38-.91-.68-1.76l-.36-1c-.18-.54-.33-.92-.43-1.14a1.22,1.22,0,0,0-.52-.51,2.45,2.45,0,0,0-1.08-.18h-.5l-.92,3a2.69,2.69,0,0,0-.16.76.66.66,0,0,0,.43.71,3.31,3.31,0,0,0,1.08.15l-.26.81h-5.39l.24-.81a2.21,2.21,0,0,0,.77-.11,1,1,0,0,0,.45-.4,3.68,3.68,0,0,0,.34-.82l2.27-7.46a3.3,3.3,0,0,0,.15-.69.68.68,0,0,0-.31-.63,1.42,1.42,0,0,0-.71-.19h-.35l.24-.81h5.65a9.48,9.48,0,0,1,1.55.1,3.93,3.93,0,0,1,1.17.39,3.08,3.08,0,0,1,1.14,1A2.62,2.62,0,0,1,276.66,139.65Zm-2.47-.31a1.44,1.44,0,0,0-.77-1.5,4.59,4.59,0,0,0-1.82-.33h-1.07l-1.44,4.75H270a6,6,0,0,0,2.74-.43,2.69,2.69,0,0,0,1.06-1.08A2.93,2.93,0,0,0,274.19,139.34Z"/><path class="cls-1" d="M284.78,142.57a2,2,0,0,1-.22.83,3.34,3.34,0,0,1-.8,1,5.09,5.09,0,0,1-1.67.94,10.84,10.84,0,0,1-2.73.55l-.21,0a3.07,3.07,0,0,0-.07.65,1.2,1.2,0,0,0,.31.93,1.31,1.31,0,0,0,.91.29,3.38,3.38,0,0,0,2.52-1.42h.93A6.76,6.76,0,0,1,282.1,148a4.33,4.33,0,0,1-2.63.82,2.89,2.89,0,0,1-1.8-.57,1.94,1.94,0,0,1-.76-1.67,5.06,5.06,0,0,1,.75-2.61,5.94,5.94,0,0,1,2-2.07,5.26,5.26,0,0,1,2.81-.79,2.83,2.83,0,0,1,1.75.41A1.27,1.27,0,0,1,284.78,142.57Zm-1.85,0a.79.79,0,0,0-.21-.53.68.68,0,0,0-.55-.24,1.74,1.74,0,0,0-1.13.42,4.23,4.23,0,0,0-.87,1,7.51,7.51,0,0,0-.57,1.18l-.28.74a6.08,6.08,0,0,0,2.7-1A2,2,0,0,0,282.93,142.53Z"/><path class="cls-1" d="M294.07,141.79a.45.45,0,0,1-.19.42.67.67,0,0,1-.36.12.76.76,0,0,1-.46-.16.43.43,0,0,0-.26-.1.39.39,0,0,0-.35.24,2.93,2.93,0,0,1,.28.56,1.94,1.94,0,0,1,.1.69,2.47,2.47,0,0,1-.16.83,2.44,2.44,0,0,1-.56.9,3.24,3.24,0,0,1-1.19.74,5.4,5.4,0,0,1-1.93.3,3.68,3.68,0,0,0-1.47.19.62.62,0,0,0-.38.56.37.37,0,0,0,.14.29,1.05,1.05,0,0,0,.4.21c.17.07.49.16.95.29l1.35.38c1.59.45,2.38,1.19,2.38,2.2a1.9,1.9,0,0,1-.45,1.22,3.17,3.17,0,0,1-1.5.93,8.53,8.53,0,0,1-2.78.37,11,11,0,0,1-1.6-.13,4.61,4.61,0,0,1-1.68-.59,1.52,1.52,0,0,1-.08-2.57,1,1,0,0,1,.55-.19.61.61,0,0,1,.28.06.2.2,0,0,1,.11.18.7.7,0,0,1-.17.34,1.2,1.2,0,0,0-.31.71,1.14,1.14,0,0,0,1,1.13,6.79,6.79,0,0,0,2,.29,4.84,4.84,0,0,0,2-.33c.49-.23.73-.52.73-.88a.58.58,0,0,0-.15-.43,1.51,1.51,0,0,0-.56-.33c-.28-.1-.79-.28-1.54-.52a14.3,14.3,0,0,1-1.55-.57,2.37,2.37,0,0,1-.83-.6,1.31,1.31,0,0,1-.28-.86,1.43,1.43,0,0,1,.63-1.2,3.35,3.35,0,0,1,1.5-.6,2,2,0,0,1-1-.82,2.15,2.15,0,0,1-.34-1.12,2.38,2.38,0,0,1,.45-1.37,3.16,3.16,0,0,1,1.24-1.06,4,4,0,0,1,1.82-.4,3.18,3.18,0,0,1,2.25.7,4.33,4.33,0,0,1,.61-.51,1.34,1.34,0,0,1,.74-.19.79.79,0,0,1,.55.18A.63.63,0,0,1,294.07,141.79Zm-3.15,1.05a1.19,1.19,0,0,0-.11-.54,1,1,0,0,0-.88-.54,1.25,1.25,0,0,0-1,.48,3.5,3.5,0,0,0-.63,1.14,3.91,3.91,0,0,0-.21,1.16,1.07,1.07,0,0,0,.26.79.94.94,0,0,0,.7.26,1.48,1.48,0,0,0,1.36-1A4,4,0,0,0,290.92,142.84Z"/><path class="cls-1" d="M299.1,146.45A6.35,6.35,0,0,1,298,148a2.39,2.39,0,0,1-1.83.8,1.55,1.55,0,0,1-1.11-.37,1.16,1.16,0,0,1-.37-.87,4.43,4.43,0,0,1,.33-1.41l1.13-3.1a2.05,2.05,0,0,0,.17-.57.25.25,0,0,0-.08-.18.27.27,0,0,0-.18-.08c-.2,0-.42.16-.65.47a4.47,4.47,0,0,0-.53.83h-.78a4.69,4.69,0,0,1,1.35-1.8,2.74,2.74,0,0,1,1.66-.63,1.56,1.56,0,0,1,1,.28.92.92,0,0,1,.38.76,2.78,2.78,0,0,1-.19,1l-1.37,3.69a1.67,1.67,0,0,0-.14.61.37.37,0,0,0,.08.21.24.24,0,0,0,.18.1.79.79,0,0,0,.55-.28,5.63,5.63,0,0,0,.7-1Zm.65-8.88a1.1,1.1,0,0,1-.34.81,1.12,1.12,0,0,1-.8.34,1.14,1.14,0,0,1-1.15-1.15,1.11,1.11,0,0,1,.33-.8,1.09,1.09,0,0,1,.82-.34,1,1,0,0,1,.58.16,1.09,1.09,0,0,1,.56,1Z"/><path class="cls-1" d="M307.48,142.6a.92.92,0,0,1-.24.63.81.81,0,0,1-.65.28.82.82,0,0,1-.5-.13.79.79,0,0,1-.28-.34c-.07-.15-.15-.36-.25-.65a1,1,0,0,0-.28-.47,1.11,1.11,0,0,0-.7-.16,1.53,1.53,0,0,0-.82.23.73.73,0,0,0-.36.63,1,1,0,0,0,.14.5,2.6,2.6,0,0,0,.37.45c.14.14.37.34.67.6a8.21,8.21,0,0,1,1.25,1.18,1.79,1.79,0,0,1,.4,1.2,2.06,2.06,0,0,1-.34,1.1,2.37,2.37,0,0,1-1.11.84,5,5,0,0,1-2,.33,3.66,3.66,0,0,1-2.44-.64,1.76,1.76,0,0,1-.7-1.24,1,1,0,0,1,.27-.69.92.92,0,0,1,.72-.3c.6,0,.94.38,1,1.15a1.54,1.54,0,0,0,.28.78,1.07,1.07,0,0,0,.89.28,1.53,1.53,0,0,0,1-.29.94.94,0,0,0,.37-.77,1.07,1.07,0,0,0-.12-.48,2.44,2.44,0,0,0-.54-.58c-.47-.4-.86-.75-1.17-1.06a3.8,3.8,0,0,1-.7-.88,1.73,1.73,0,0,1-.23-.88,1.85,1.85,0,0,1,.27-.9,2.27,2.27,0,0,1,1-.85,4.78,4.78,0,0,1,2-.36,5.62,5.62,0,0,1,1.34.14,2.54,2.54,0,0,1,.84.37,1.29,1.29,0,0,1,.41.48A1.25,1.25,0,0,1,307.48,142.6Z"/><path class="cls-1" d="M313.92,141.36l-.24.81h-1.75l-1.33,4.34a2.55,2.55,0,0,0-.15.68.5.5,0,0,0,.13.34.37.37,0,0,0,.3.15,1.11,1.11,0,0,0,.9-.5,7,7,0,0,0,.69-1.07h.83a5.82,5.82,0,0,1-1.11,1.7,3.32,3.32,0,0,1-1.16.81,3,3,0,0,1-1,.2,1.58,1.58,0,0,1-1.18-.44,1.65,1.65,0,0,1-.42-1.17,5.22,5.22,0,0,1,.26-1.37l1.15-3.67H308.2l.26-.81h1.63l.81-2.68H313l-.81,2.68Z"/><path class="cls-1" d="M321.92,142.26a1.67,1.67,0,0,1-.3,1,.94.94,0,0,1-.78.42,1,1,0,0,1-.77-.46.57.57,0,0,0-.41-.27c-.16,0-.38.14-.66.44a7.41,7.41,0,0,0-.84,1.18,16.53,16.53,0,0,0-.86,1.69,19.18,19.18,0,0,0-.73,2l-.11.36H314.4l1.38-4.93a3.9,3.9,0,0,0,.22-1,.42.42,0,0,0-.06-.21.21.21,0,0,0-.2-.1.94.94,0,0,0-.69.48,5.49,5.49,0,0,0-.53.87h-.81a6.54,6.54,0,0,1,1.05-1.58,3.18,3.18,0,0,1,1-.77,2.23,2.23,0,0,1,.9-.22c.47,0,.78.14.91.44a2,2,0,0,1,.21.86,9.46,9.46,0,0,1-.49,2.41c.33-.58.61-1,.82-1.38a9.51,9.51,0,0,1,.77-1.08,4.18,4.18,0,0,1,.94-.9,1.63,1.63,0,0,1,1-.35c.45,0,.75.12.89.38A1.48,1.48,0,0,1,321.92,142.26Z"/><path class="cls-1" d="M330.92,146.45a6.29,6.29,0,0,1-.57,1,4.24,4.24,0,0,1-.7.76,3.35,3.35,0,0,1-.78.49,2.06,2.06,0,0,1-.81.17c-.62,0-1-.19-1.18-.56a3,3,0,0,1-.26-1.33,9.76,9.76,0,0,1-1.39,1.36,2.52,2.52,0,0,1-1.57.53,1.31,1.31,0,0,1-.86-.29,1.59,1.59,0,0,1-.5-.77,3.19,3.19,0,0,1-.17-1,6.06,6.06,0,0,1,.61-2.5,6.33,6.33,0,0,1,1.65-2.22,3.39,3.39,0,0,1,2.24-.89,1.47,1.47,0,0,1,.87.22,1.19,1.19,0,0,1,.44.49,3.94,3.94,0,0,1,.21.61l.32-1.1h1.94l-1.63,5.36a4,4,0,0,0-.18.7.26.26,0,0,0,.08.19.2.2,0,0,0,.17.08c.38,0,.79-.4,1.22-1.21Zm-3.28-3.51a1.51,1.51,0,0,0-.16-.73.6.6,0,0,0-.59-.31,1.69,1.69,0,0,0-1.28.76,6.11,6.11,0,0,0-1,1.84,5.42,5.42,0,0,0-.38,1.81c0,.71.22,1.06.66,1.06a1.51,1.51,0,0,0,1-.42,4.93,4.93,0,0,0,.9-1.14,6.73,6.73,0,0,0,.66-1.49A4.62,4.62,0,0,0,327.64,142.94Z"/><path class="cls-1" d="M337.36,141.36l-.25.81h-1.75L334,146.51a2.55,2.55,0,0,0-.15.68.55.55,0,0,0,.13.34.37.37,0,0,0,.31.15,1.09,1.09,0,0,0,.89-.5,7.89,7.89,0,0,0,.7-1.07h.82a5.82,5.82,0,0,1-1.11,1.7,3.32,3.32,0,0,1-1.16.81,3,3,0,0,1-1,.2,1.59,1.59,0,0,1-1.18-.44,1.65,1.65,0,0,1-.42-1.17,4.91,4.91,0,0,1,.27-1.37l1.14-3.67h-1.65l.26-.81h1.63l.81-2.68h2.09l-.8,2.68Z"/><path class="cls-1" d="M342.4,146.45a6.09,6.09,0,0,1-1.07,1.57,2.39,2.39,0,0,1-1.83.8,1.55,1.55,0,0,1-1.11-.37,1.19,1.19,0,0,1-.37-.87,4.43,4.43,0,0,1,.33-1.41l1.13-3.1a2.05,2.05,0,0,0,.17-.57.25.25,0,0,0-.08-.18.25.25,0,0,0-.17-.08c-.2,0-.42.16-.66.47a5.06,5.06,0,0,0-.53.83h-.77a4.58,4.58,0,0,1,1.34-1.8,2.76,2.76,0,0,1,1.66-.63,1.54,1.54,0,0,1,1,.28.9.9,0,0,1,.39.76,2.79,2.79,0,0,1-.2,1l-1.37,3.69a1.91,1.91,0,0,0-.14.61.37.37,0,0,0,.08.21.24.24,0,0,0,.18.1.79.79,0,0,0,.55-.28,5.16,5.16,0,0,0,.7-1Zm.65-8.88a1.16,1.16,0,0,1-1.13,1.15,1.12,1.12,0,0,1-.82-.34,1.13,1.13,0,0,1-.33-.81,1.11,1.11,0,0,1,.33-.8,1.08,1.08,0,0,1,.82-.34,1,1,0,0,1,.57.16,1.05,1.05,0,0,1,.41.4A1.11,1.11,0,0,1,343.05,137.57Z"/><path class="cls-1" d="M351.58,144.2a4.4,4.4,0,0,1-.35,1.71,4.56,4.56,0,0,1-1,1.5,4.82,4.82,0,0,1-3.47,1.41,4,4,0,0,1-1.81-.4,3,3,0,0,1-1.21-1.13,3.12,3.12,0,0,1-.43-1.65,4.13,4.13,0,0,1,.65-2.23,4.77,4.77,0,0,1,1.77-1.68,5,5,0,0,1,2.42-.62,3.87,3.87,0,0,1,1.86.42,2.89,2.89,0,0,1,1.18,1.14A3.07,3.07,0,0,1,351.58,144.2Zm-2.09-.61a2.11,2.11,0,0,0-.34-1.28,1.21,1.21,0,0,0-1-.46,1.63,1.63,0,0,0-1.17.49,4,4,0,0,0-.87,1.23,8.05,8.05,0,0,0-.51,1.5,5.66,5.66,0,0,0-.18,1.29,2.07,2.07,0,0,0,.34,1.24,1.12,1.12,0,0,0,1,.48,1.76,1.76,0,0,0,1.23-.49,3.72,3.72,0,0,0,.88-1.22,7.3,7.3,0,0,0,.52-1.51A6.16,6.16,0,0,0,349.49,143.59Z"/><path class="cls-1" d="M362.63,146.26a7.66,7.66,0,0,1-.69,1,4.65,4.65,0,0,1-1.08,1,2.55,2.55,0,0,1-1.4.42,1.56,1.56,0,0,1-1-.31,1,1,0,0,1-.38-.84,4.2,4.2,0,0,1,.22-1.1l.65-2.11a4.9,4.9,0,0,0,.27-1.19.55.55,0,0,0-.12-.35.38.38,0,0,0-.33-.16c-.32,0-.7.27-1.16.8a11.09,11.09,0,0,0-1.39,2.16,19.73,19.73,0,0,0-1.23,3h-2.09l1.59-5.15a6.39,6.39,0,0,0,.21-.9.54.54,0,0,0-.05-.21.19.19,0,0,0-.2-.11.85.85,0,0,0-.66.43,5.07,5.07,0,0,0-.53.94h-.74a5,5,0,0,1,1-1.7,2.3,2.3,0,0,1,1.77-.75,1.32,1.32,0,0,1,1,.37,1.1,1.1,0,0,1,.34.78,3.39,3.39,0,0,1-.1.69c-.06.31-.14.6-.22.87l-.31.91a17.17,17.17,0,0,1,2.05-2.65,2.93,2.93,0,0,1,2.13-1,1.16,1.16,0,0,1,1,.39,1.31,1.31,0,0,1,.31.85,5.14,5.14,0,0,1-.21,1.06l-.92,3.06a3.37,3.37,0,0,0-.16.8.29.29,0,0,0,.06.17.17.17,0,0,0,.15.07,1.09,1.09,0,0,0,.63-.34,4.05,4.05,0,0,0,.71-.91Z"/><path class="cls-1" d="M285.18,177.89l-.54,3.57h-.84a6.89,6.89,0,0,0-.3-1.25,2.82,2.82,0,0,0-.76-1.14,2.15,2.15,0,0,0-1.54-.53,2.05,2.05,0,0,0-1.32.43,1.46,1.46,0,0,0-.51,1.17,1.9,1.9,0,0,0,.24.93,4.17,4.17,0,0,0,.66.87c.28.28.62.59,1,.92A10.22,10.22,0,0,1,283,184.6a3.15,3.15,0,0,1,.57,1.86,3.43,3.43,0,0,1-.46,1.71,3.51,3.51,0,0,1-1.36,1.34,3.92,3.92,0,0,1-2,.52,4,4,0,0,1-1-.14,3.77,3.77,0,0,1-1-.41,5.1,5.1,0,0,1-.93-.75,3.86,3.86,0,0,0-.56,1h-.83l.56-4.15h.83a5.15,5.15,0,0,0,.31,1.69,3.2,3.2,0,0,0,.73,1.12,3.08,3.08,0,0,0,1,.6,2.86,2.86,0,0,0,1,.18,1.84,1.84,0,0,0,.93-.24,1.78,1.78,0,0,0,.64-.64,1.85,1.85,0,0,0,.23-.9,1.93,1.93,0,0,0-.18-.85,3.74,3.74,0,0,0-.54-.74c-.24-.26-.66-.66-1.25-1.22a9,9,0,0,1-1.57-1.8,3.07,3.07,0,0,1-.44-1.56,3.28,3.28,0,0,1,.5-1.74,3.8,3.8,0,0,1,1.36-1.31,3.57,3.57,0,0,1,1.8-.48,3.69,3.69,0,0,1,2.61,1.14,1.44,1.44,0,0,1,.15-.21l.19-.27c.06-.11.14-.25.23-.45Z"/><path class="cls-1" d="M292.5,184.19a1.36,1.36,0,0,1-.31.9,1.05,1.05,0,0,1-.83.36.89.89,0,0,1-.61-.21.71.71,0,0,1-.23-.54,1.78,1.78,0,0,1,.07-.47,1.46,1.46,0,0,0,.08-.43.57.57,0,0,0-.28-.56,1.09,1.09,0,0,0-.54-.14,1.9,1.9,0,0,0-1.44.83,6.46,6.46,0,0,0-1.06,2,6,6,0,0,0-.39,1.87c0,.53.13.87.38,1a1.55,1.55,0,0,0,.79.22,2.51,2.51,0,0,0,1.44-.43,4.73,4.73,0,0,0,1.1-1h.95a6.19,6.19,0,0,1-1.75,1.7,4.44,4.44,0,0,1-2.51.76,2.72,2.72,0,0,1-1.89-.61,2.1,2.1,0,0,1-.67-1.64,5.16,5.16,0,0,1,.7-2.51,5.91,5.91,0,0,1,1.95-2.12,4.82,4.82,0,0,1,2.76-.83,2.86,2.86,0,0,1,1,.15,2.12,2.12,0,0,1,.72.41,1.69,1.69,0,0,1,.45.59A1.64,1.64,0,0,1,292.5,184.19Z"/><path class="cls-1" d="M302.76,187.49a6.08,6.08,0,0,1-1.36,1.74,2.64,2.64,0,0,1-1.77.7,1.53,1.53,0,0,1-1.08-.32,1,1,0,0,1-.36-.79,1.68,1.68,0,0,1,.05-.4c0-.13.09-.34.18-.62l.67-2.23a4.11,4.11,0,0,0,.2-1.07.81.81,0,0,0-.06-.31.46.46,0,0,0-.17-.24.56.56,0,0,0-.3-.08c-.45,0-1,.36-1.55,1.09a9.36,9.36,0,0,0-1.25,2c-.49,1.21-.78,2-.85,2.23l-.16.6h-2.09l3-9.84a2.83,2.83,0,0,0,.21-.76.41.41,0,0,0-.26-.41,1.85,1.85,0,0,0-.7-.1h-.27l.27-.81a17.51,17.51,0,0,0,2.95-.21h.6l-2.29,7.47c.41-.55.76-1,1.06-1.36a5.06,5.06,0,0,1,1.17-1,3,3,0,0,1,1.61-.45,1.62,1.62,0,0,1,1.05.32,1,1,0,0,1,.42.81,5.86,5.86,0,0,1-.32,1.44l-.88,2.9a2.62,2.62,0,0,0-.15.64.37.37,0,0,0,.05.2.18.18,0,0,0,.17.09c.35,0,.79-.42,1.31-1.27Z"/><path class="cls-1" d="M311.19,183.82a2,2,0,0,1-.22.83,3.18,3.18,0,0,1-.8,1,5.09,5.09,0,0,1-1.67.94,10.84,10.84,0,0,1-2.73.55l-.21,0a3.07,3.07,0,0,0-.07.65,1.2,1.2,0,0,0,.31.93,1.31,1.31,0,0,0,.91.29,3.38,3.38,0,0,0,2.52-1.42h.93a6.76,6.76,0,0,1-1.65,1.65,4.33,4.33,0,0,1-2.63.82,2.89,2.89,0,0,1-1.8-.57,2,2,0,0,1-.75-1.67,5,5,0,0,1,.74-2.61,5.94,5.94,0,0,1,2-2.07,5.26,5.26,0,0,1,2.81-.79,2.83,2.83,0,0,1,1.75.41A1.27,1.27,0,0,1,311.19,183.82Zm-1.85,0a.79.79,0,0,0-.21-.53.66.66,0,0,0-.55-.24,1.74,1.74,0,0,0-1.13.42,4,4,0,0,0-.86,1,6.78,6.78,0,0,0-.58,1.18l-.28.74a6.08,6.08,0,0,0,2.7-1A2,2,0,0,0,309.34,183.78Z"/><path class="cls-1" d="M322.28,177.68l-3.12,10.12a4.06,4.06,0,0,0-.19.88.26.26,0,0,0,.29.3,1,1,0,0,0,.62-.33,3.92,3.92,0,0,0,.64-.87h.84a4.53,4.53,0,0,1-.54.91,4,4,0,0,1-1,1,2.3,2.3,0,0,1-1.35.42c-1,0-1.52-.55-1.52-1.64v-.11a.53.53,0,0,0,0-.13,5.75,5.75,0,0,1-.84.89,4.57,4.57,0,0,1-1.11.71,3.06,3.06,0,0,1-1.24.28,1.77,1.77,0,0,1-1.44-.61,2.27,2.27,0,0,1-.51-1.52,5.24,5.24,0,0,1,.4-2,6.52,6.52,0,0,1,1.06-1.8,5.16,5.16,0,0,1,1.58-1.3,3.78,3.78,0,0,1,1.86-.49,2,2,0,0,1,1.11.26,2.87,2.87,0,0,1,.64.66l1-3.43a2.51,2.51,0,0,0,.18-.66.39.39,0,0,0-.15-.34.86.86,0,0,0-.38-.13l-.69,0,.21-.81,1.41,0a8,8,0,0,0,.83-.06,7.11,7.11,0,0,0,.75-.12ZM318,184.35a1.5,1.5,0,0,0-.29-.94,1,1,0,0,0-.79-.37,2,2,0,0,0-1.46.77,5.85,5.85,0,0,0-1.12,1.84,5.34,5.34,0,0,0-.42,1.91,1.07,1.07,0,0,0,.29.85,1,1,0,0,0,.68.27,1.94,1.94,0,0,0,1.16-.43,4.27,4.27,0,0,0,1-1.12,6.1,6.1,0,0,0,.68-1.41A4.24,4.24,0,0,0,318,184.35Z"/><path class="cls-1" d="M331.83,187.6a6.5,6.5,0,0,1-1,1.67,2.31,2.31,0,0,1-1.84.8,1.2,1.2,0,0,1-1-.39,1.43,1.43,0,0,1-.29-.9,2.46,2.46,0,0,1,.08-.58c0-.24.13-.5.21-.8l.29-1a16,16,0,0,1-1.93,2.59,3,3,0,0,1-2.22,1.07,1.2,1.2,0,0,1-1.29-1.22,4.53,4.53,0,0,1,.24-1.25l.89-2.9a2.71,2.71,0,0,0,.17-.76.49.49,0,0,0-.06-.22.25.25,0,0,0-.23-.11c-.34,0-.78.41-1.3,1.23h-.81a9.3,9.3,0,0,1,1.33-1.67,2.51,2.51,0,0,1,1.83-.72,1.67,1.67,0,0,1,.92.26,1.09,1.09,0,0,1,.42,1,2.26,2.26,0,0,1-.12.77l-.72,2.34a4.74,4.74,0,0,0-.24,1.17.72.72,0,0,0,.11.37.38.38,0,0,0,.33.18,1.62,1.62,0,0,0,1-.63,9,9,0,0,0,1.33-2,23.73,23.73,0,0,0,1.4-3.34h2.09L329.74,188a3.78,3.78,0,0,0-.16.69.37.37,0,0,0,.08.21.23.23,0,0,0,.18.11.8.8,0,0,0,.63-.44,6.54,6.54,0,0,0,.53-.94Z"/><path class="cls-1" d="M338.22,177.68l-3.08,10.08a4.62,4.62,0,0,0-.24.93.43.43,0,0,0,.07.24.23.23,0,0,0,.19.09c.15,0,.36-.14.63-.41a3.14,3.14,0,0,0,.64-.94h.83a7.82,7.82,0,0,1-1.15,1.6,2.33,2.33,0,0,1-1.8.8,1.52,1.52,0,0,1-1.06-.37,1.14,1.14,0,0,1-.4-.88,5.52,5.52,0,0,1,.27-1.33l2.25-7.33a4,4,0,0,0,.22-1,.38.38,0,0,0-.25-.4,2.84,2.84,0,0,0-.94-.1l.21-.81h.94c.41,0,.78,0,1.11,0a5.64,5.64,0,0,0,1-.17Z"/><path class="cls-1" d="M343.13,187.7a6.35,6.35,0,0,1-1.07,1.57,2.39,2.39,0,0,1-1.83.8,1.55,1.55,0,0,1-1.11-.37,1.19,1.19,0,0,1-.37-.87,4.43,4.43,0,0,1,.33-1.41l1.13-3.1a2.05,2.05,0,0,0,.17-.57.25.25,0,0,0-.08-.18.25.25,0,0,0-.17-.08c-.2,0-.42.16-.66.47a5.06,5.06,0,0,0-.53.83h-.77a4.58,4.58,0,0,1,1.34-1.8,2.76,2.76,0,0,1,1.66-.63,1.54,1.54,0,0,1,1,.28.9.9,0,0,1,.39.76,2.79,2.79,0,0,1-.2,1L341,188.1a1.91,1.91,0,0,0-.14.61.37.37,0,0,0,.08.21.24.24,0,0,0,.18.1.79.79,0,0,0,.55-.28,5.16,5.16,0,0,0,.7-1Zm.65-8.88a1.16,1.16,0,0,1-1.13,1.15,1.12,1.12,0,0,1-.82-.34,1.13,1.13,0,0,1-.33-.81,1.11,1.11,0,0,1,.33-.8,1.08,1.08,0,0,1,.82-.34,1,1,0,0,1,.57.16,1.05,1.05,0,0,1,.41.4A1.11,1.11,0,0,1,343.78,178.82Z"/><path class="cls-1" d="M353.8,187.51a6.67,6.67,0,0,1-.68,1,4.51,4.51,0,0,1-1.09,1,2.52,2.52,0,0,1-1.39.42,1.55,1.55,0,0,1-1-.31,1,1,0,0,1-.38-.84,3.82,3.82,0,0,1,.22-1.1l.64-2.11a4.9,4.9,0,0,0,.27-1.19.61.61,0,0,0-.11-.35.38.38,0,0,0-.33-.16c-.32,0-.71.27-1.16.8a11.08,11.08,0,0,0-1.4,2.16,18.73,18.73,0,0,0-1.22,3H344l1.6-5.15a6.39,6.39,0,0,0,.21-.9.42.42,0,0,0-.06-.21c0-.08-.1-.11-.2-.11a.83.83,0,0,0-.65.43,4.55,4.55,0,0,0-.53.94h-.74a4.82,4.82,0,0,1,1-1.7,2.29,2.29,0,0,1,1.76-.75,1.32,1.32,0,0,1,1,.37,1.13,1.13,0,0,1,.33.78,4,4,0,0,1-.09.69c-.07.31-.14.6-.22.87l-.31.91a17.17,17.17,0,0,1,2.05-2.65,2.93,2.93,0,0,1,2.13-1,1.18,1.18,0,0,1,1,.39,1.37,1.37,0,0,1,.31.85,5.14,5.14,0,0,1-.21,1.06l-.93,3.06a3.76,3.76,0,0,0-.15.8.28.28,0,0,0,.05.17.19.19,0,0,0,.16.07,1,1,0,0,0,.62-.34,3.55,3.55,0,0,0,.71-.91Z"/><path class="cls-1" d="M363.06,183a.47.47,0,0,1-.19.42.7.7,0,0,1-.37.12.8.8,0,0,1-.46-.16.43.43,0,0,0-.26-.1.37.37,0,0,0-.34.24,2.93,2.93,0,0,1,.28.56,2.19,2.19,0,0,1,.1.69,2.75,2.75,0,0,1-.16.83,2.61,2.61,0,0,1-.57.9,3.16,3.16,0,0,1-1.19.74,5.34,5.34,0,0,1-1.92.3,3.7,3.7,0,0,0-1.48.19.61.61,0,0,0-.37.56.36.36,0,0,0,.13.29,1.14,1.14,0,0,0,.4.21c.18.07.5.16,1,.29l1.35.38c1.58.45,2.37,1.19,2.37,2.2a1.9,1.9,0,0,1-.45,1.22,3.17,3.17,0,0,1-1.5.93,8.49,8.49,0,0,1-2.78.37,11.14,11.14,0,0,1-1.6-.13,4.56,4.56,0,0,1-1.67-.59,1.42,1.42,0,0,1-.76-1.3,1.44,1.44,0,0,1,.19-.75,1.43,1.43,0,0,1,.48-.52,1,1,0,0,1,.55-.19.58.58,0,0,1,.28.06.19.19,0,0,1,.12.18.65.65,0,0,1-.18.34,1.27,1.27,0,0,0-.31.71,1.14,1.14,0,0,0,1,1.13,6.84,6.84,0,0,0,2,.29,4.89,4.89,0,0,0,2-.33c.48-.23.73-.52.73-.88a.58.58,0,0,0-.15-.43,1.57,1.57,0,0,0-.57-.33c-.28-.1-.79-.28-1.53-.52a12.85,12.85,0,0,1-1.55-.57,2.2,2.2,0,0,1-.83-.6,1.31,1.31,0,0,1-.28-.86,1.44,1.44,0,0,1,.62-1.2,3.35,3.35,0,0,1,1.5-.6,2,2,0,0,1-1-.82,2.14,2.14,0,0,1-.33-1.12,2.45,2.45,0,0,1,.44-1.37,3.19,3.19,0,0,1,1.25-1.06,4,4,0,0,1,1.82-.4,3.21,3.21,0,0,1,2.25.7,3.83,3.83,0,0,1,.61-.51,1.29,1.29,0,0,1,.74-.19.81.81,0,0,1,.55.18A.63.63,0,0,1,363.06,183Zm-3.15,1.05a1.19,1.19,0,0,0-.12-.54.91.91,0,0,0-.34-.39,1,1,0,0,0-.53-.15,1.22,1.22,0,0,0-1,.48,3.16,3.16,0,0,0-.63,1.14,4,4,0,0,0-.22,1.16,1.07,1.07,0,0,0,.26.79,1,1,0,0,0,.7.26,1.47,1.47,0,0,0,1.36-1A4,4,0,0,0,359.91,184.09Z"/><path class="cls-1" d="M338.16,219.14l-.25.81a2.51,2.51,0,0,0-1.05.66,8.67,8.67,0,0,0-1.08,1.5l-5.56,9.17h-1.35l.25-8.84-5.74,8.84H322l.58-10.32c0-.44-.09-.72-.26-.84a1.53,1.53,0,0,0-.81-.17l.26-.81h4.84l-.23.81a2.05,2.05,0,0,0-1.11.22,1,1,0,0,0-.37.88l-.4,6.93,5.69-8.84h1.26l-.23,8.84,3.78-6.32a2.52,2.52,0,0,0,.16-.29,1.66,1.66,0,0,0,.14-.31.7.7,0,0,0,.06-.27.67.67,0,0,0-.4-.66,2.19,2.19,0,0,0-.9-.18l.25-.81Z"/><path class="cls-1" d="M343.83,225.07a2,2,0,0,1-.22.83,3.18,3.18,0,0,1-.8,1,5.09,5.09,0,0,1-1.67.94,10.65,10.65,0,0,1-2.73.55l-.21,0a3.07,3.07,0,0,0-.07.65,1.2,1.2,0,0,0,.31.93,1.31,1.31,0,0,0,.91.29,3.38,3.38,0,0,0,2.52-1.42h.94a7,7,0,0,1-1.66,1.65,4.3,4.3,0,0,1-2.62.82,2.9,2.9,0,0,1-1.81-.57,2,2,0,0,1-.75-1.67,5.15,5.15,0,0,1,.74-2.61,5.94,5.94,0,0,1,2-2.07,5.29,5.29,0,0,1,2.82-.79,2.82,2.82,0,0,1,1.74.41A1.27,1.27,0,0,1,343.83,225.07ZM342,225a.83.83,0,0,0-.2-.53.7.7,0,0,0-.56-.24,1.76,1.76,0,0,0-1.13.42,4,4,0,0,0-.86,1,6.78,6.78,0,0,0-.58,1.18l-.27.74a6,6,0,0,0,2.69-1A2,2,0,0,0,342,225Z"/><path class="cls-1" d="M353.19,226.16a4.41,4.41,0,0,1-.4,1.83,5.93,5.93,0,0,1-2.88,2.88,4.72,4.72,0,0,1-2,.45,3.14,3.14,0,0,1-2.21-.72,2.22,2.22,0,0,1-.78-1.68,6.59,6.59,0,0,1,.32-1.69l1.93-6.29a2.29,2.29,0,0,0,.1-.5.37.37,0,0,0-.27-.39,2.23,2.23,0,0,0-.75-.1H346l.25-.81a15.35,15.35,0,0,0,3-.21h.59L348,224.85l.43-.36a5.93,5.93,0,0,1,.58-.42,3.47,3.47,0,0,1,.75-.31,3.42,3.42,0,0,1,1-.15,2.37,2.37,0,0,1,1.18.29,2.18,2.18,0,0,1,.87.86A2.79,2.79,0,0,1,353.19,226.16Zm-2.16,0a1.72,1.72,0,0,0-.3-1,1,1,0,0,0-.88-.41c-1,0-1.77.72-2.39,2.15a8,8,0,0,0-.48,1.45,5,5,0,0,0-.18,1,1.25,1.25,0,0,0,.33.88,1.16,1.16,0,0,0,.9.35,2.16,2.16,0,0,0,1.64-.76,5.1,5.1,0,0,0,1-1.81A5.91,5.91,0,0,0,351,226.2Z"/><path class="cls-1" d="M362.63,225.72l-.54,1.87H360l-.39,1.33a5.48,5.48,0,0,0-.18.8.44.44,0,0,0,.33.44,2.53,2.53,0,0,0,.92.13h.18l-.22.77h-5.24l.22-.77H356a3.25,3.25,0,0,0,.75-.07.78.78,0,0,0,.4-.35,4.44,4.44,0,0,0,.38-1l.37-1.29h-3.62l.17-1.14,6.5-7.22h1.63l-2.21,7.22h.39a1.57,1.57,0,0,0,.7-.1,1.38,1.38,0,0,0,.38-.63Zm-2.86-4-4.33,4.77h2.83Z"/><path class="cls-1" d="M316.38,260.46l-.88,4.07h-.85s0-.09,0-.12v-.13a3.72,3.72,0,0,0-.51-2.13,2.37,2.37,0,0,0-1.11-.95A3.41,3.41,0,0,0,312,261a3,3,0,0,0-1.92.73,6.34,6.34,0,0,0-1.56,1.9,10.64,10.64,0,0,0-1,2.55,9.68,9.68,0,0,0-.37,2.54,4.24,4.24,0,0,0,.24,1.45,2.43,2.43,0,0,0,.76,1.06,2,2,0,0,0,1.28.4,3.61,3.61,0,0,0,1.56-.4,5.24,5.24,0,0,0,1.56-1.15,5.79,5.79,0,0,0,1.15-1.79h.84l-1.17,3.94h-.74a4.41,4.41,0,0,0,.05-.6,4,4,0,0,0-.05-.6,5,5,0,0,1-1.5,1.08,4.39,4.39,0,0,1-1.93.43,4.55,4.55,0,0,1-2.34-.62,4.32,4.32,0,0,1-1.65-1.69,4.74,4.74,0,0,1-.6-2.34,7.27,7.27,0,0,1,.63-3,8.49,8.49,0,0,1,1.66-2.48,8,8,0,0,1,2.3-1.66,5.81,5.81,0,0,1,2.48-.59,4.12,4.12,0,0,1,1.55.28,3.8,3.8,0,0,1,1,.61,5.91,5.91,0,0,1,.65.68,3.54,3.54,0,0,0,.72-1.29Z"/><path class="cls-1" d="M324.75,270.2a6.29,6.29,0,0,1-.57.95,4.24,4.24,0,0,1-.7.76,3.35,3.35,0,0,1-.78.49,2.06,2.06,0,0,1-.81.17c-.62,0-1-.19-1.18-.56a3,3,0,0,1-.26-1.33,9.76,9.76,0,0,1-1.39,1.36,2.52,2.52,0,0,1-1.57.53,1.31,1.31,0,0,1-.86-.29,1.59,1.59,0,0,1-.5-.77,3.19,3.19,0,0,1-.17-1,6.06,6.06,0,0,1,.61-2.5,6.33,6.33,0,0,1,1.65-2.22,3.39,3.39,0,0,1,2.24-.89,1.47,1.47,0,0,1,.87.22,1.19,1.19,0,0,1,.44.49,3.94,3.94,0,0,1,.21.61l.32-1.1h1.94l-1.63,5.36a4,4,0,0,0-.18.7.26.26,0,0,0,.08.19.2.2,0,0,0,.17.08c.38,0,.79-.4,1.22-1.21Zm-3.28-3.51a1.51,1.51,0,0,0-.16-.73.6.6,0,0,0-.59-.31,1.69,1.69,0,0,0-1.28.76,6.11,6.11,0,0,0-1,1.84,5.42,5.42,0,0,0-.38,1.81c0,.71.22,1.06.66,1.06a1.51,1.51,0,0,0,1-.42,4.93,4.93,0,0,0,.9-1.14,6.73,6.73,0,0,0,.66-1.49A4.62,4.62,0,0,0,321.47,266.69Z"/><path class="cls-1" d="M335.27,270a6.67,6.67,0,0,1-.68,1,4.65,4.65,0,0,1-1.08,1,2.55,2.55,0,0,1-1.4.42,1.56,1.56,0,0,1-1-.31,1,1,0,0,1-.38-.84,4.2,4.2,0,0,1,.22-1.1l.64-2.11a4.6,4.6,0,0,0,.28-1.19.55.55,0,0,0-.12-.35.38.38,0,0,0-.33-.16c-.32,0-.7.27-1.16.8a11.09,11.09,0,0,0-1.39,2.16,18.75,18.75,0,0,0-1.23,3h-2.09l1.59-5.15a6.39,6.39,0,0,0,.21-.9.54.54,0,0,0-.05-.21.21.21,0,0,0-.21-.11.85.85,0,0,0-.65.43,4.55,4.55,0,0,0-.53.94h-.74a5,5,0,0,1,1-1.7,2.29,2.29,0,0,1,1.76-.75,1.32,1.32,0,0,1,1,.37,1.15,1.15,0,0,1,.34.78,4.31,4.31,0,0,1-.1.69c-.06.31-.14.6-.22.87l-.31.91a17.17,17.17,0,0,1,2.05-2.65,2.93,2.93,0,0,1,2.13-1,1.16,1.16,0,0,1,1,.39,1.31,1.31,0,0,1,.31.85,5.14,5.14,0,0,1-.21,1.06l-.92,3.06a3.37,3.37,0,0,0-.16.8.37.37,0,0,0,0,.17.19.19,0,0,0,.16.07,1.09,1.09,0,0,0,.63-.34,3.76,3.76,0,0,0,.7-.91Z"/><path class="cls-1" d="M344.51,266.21a5.25,5.25,0,0,1-.5,2.09,8.44,8.44,0,0,1-1.35,2.1,7.32,7.32,0,0,1-1.92,1.57,4.27,4.27,0,0,1-2.12.6,2.69,2.69,0,0,1-1-.18,1.88,1.88,0,0,1-.79-.61,1.76,1.76,0,0,1-.32-1.09,2.46,2.46,0,0,1,.43-1.43,7.15,7.15,0,0,1,1.22-1.31,10.33,10.33,0,0,0,1-.89,3.07,3.07,0,0,0,.55-.8,2.24,2.24,0,0,1-1.31.47,2,2,0,0,1-.92-.27,1,1,0,0,0-.45-.16c-.27,0-.45.17-.53.52h-.74c.39-1.31,1-2,1.79-2a2.05,2.05,0,0,1,1.28.58,2.83,2.83,0,0,0,.35.23.49.49,0,0,0,.24.07c.26,0,.43-.16.51-.49s.18-.39.36-.39a.42.42,0,0,1,.32.12.48.48,0,0,1,.11.34,2.22,2.22,0,0,1-.25,1,10.84,10.84,0,0,1-.67,1.17,13.21,13.21,0,0,0-1,1.76,2.88,2.88,0,0,0-.27,1.12.82.82,0,0,0,.34.75,1.29,1.29,0,0,0,.76.23,2.63,2.63,0,0,0,1.65-.63,5,5,0,0,0,1.27-1.51,3.27,3.27,0,0,0,.48-1.52,4.11,4.11,0,0,0-.14-1,2.83,2.83,0,0,1-.13-.81,1.08,1.08,0,0,1,.26-.81.84.84,0,0,1,.56-.23.76.76,0,0,1,.65.37A1.67,1.67,0,0,1,344.51,266.21Z"/><path class="cls-1" d="M354.35,270.2a6.29,6.29,0,0,1-.57.95,4.24,4.24,0,0,1-.7.76,3.35,3.35,0,0,1-.78.49,2.06,2.06,0,0,1-.81.17c-.62,0-1-.19-1.18-.56a3,3,0,0,1-.26-1.33,9.27,9.27,0,0,1-1.39,1.36,2.52,2.52,0,0,1-1.57.53,1.31,1.31,0,0,1-.86-.29,1.67,1.67,0,0,1-.5-.77,3.19,3.19,0,0,1-.16-1,6,6,0,0,1,.6-2.5,6.58,6.58,0,0,1,1.65-2.22,3.4,3.4,0,0,1,2.25-.89,1.52,1.52,0,0,1,.87.22,1.16,1.16,0,0,1,.43.49,3.94,3.94,0,0,1,.21.61l.32-1.1h1.94l-1.63,5.36a4,4,0,0,0-.18.7.26.26,0,0,0,.08.19.21.21,0,0,0,.17.08c.38,0,.79-.4,1.22-1.21Zm-3.27-3.51a1.51,1.51,0,0,0-.17-.73.59.59,0,0,0-.59-.31,1.69,1.69,0,0,0-1.28.76,6.11,6.11,0,0,0-1,1.84,5.42,5.42,0,0,0-.38,1.81c0,.71.22,1.06.67,1.06a1.48,1.48,0,0,0,.95-.42,4.93,4.93,0,0,0,.9-1.14,6.73,6.73,0,0,0,.66-1.49A4.66,4.66,0,0,0,351.08,266.69Z"/><path class="cls-1" d="M362.59,266.35a.92.92,0,0,1-.24.63.81.81,0,0,1-.66.28.79.79,0,0,1-.49-.13.73.73,0,0,1-.28-.34,5,5,0,0,1-.25-.65,1.09,1.09,0,0,0-.28-.47,1.11,1.11,0,0,0-.7-.16,1.51,1.51,0,0,0-.82.23.72.72,0,0,0-.37.63.94.94,0,0,0,.15.5,2.21,2.21,0,0,0,.37.45c.14.14.36.34.67.6a8.72,8.72,0,0,1,1.25,1.18,1.84,1.84,0,0,1,.39,1.2,2,2,0,0,1-.33,1.1,2.37,2.37,0,0,1-1.11.84,5,5,0,0,1-2,.33,3.65,3.65,0,0,1-2.43-.64,1.76,1.76,0,0,1-.7-1.24,1,1,0,0,1,.27-.69.92.92,0,0,1,.72-.3c.6,0,.94.38,1,1.15a1.63,1.63,0,0,0,.27.78,1.11,1.11,0,0,0,.9.28,1.48,1.48,0,0,0,1-.29.92.92,0,0,0,.38-.77,1,1,0,0,0-.13-.48,2.16,2.16,0,0,0-.53-.58c-.47-.4-.86-.75-1.17-1.06a3.8,3.8,0,0,1-.7-.88,1.74,1.74,0,0,1-.24-.88,1.77,1.77,0,0,1,.28-.9,2.29,2.29,0,0,1,1-.85,4.86,4.86,0,0,1,2.05-.36,5.68,5.68,0,0,1,1.34.14,2.54,2.54,0,0,1,.84.37,1.39,1.39,0,0,1,.41.48A1.25,1.25,0,0,1,362.59,266.35Z"/><path class="cls-1" d="M339.44,304.56h-.84a6.94,6.94,0,0,0-.52-1.16,1.87,1.87,0,0,0-.53-.6,1.46,1.46,0,0,0-.65-.24,10.56,10.56,0,0,0-1.17-.05h-1L333.36,307h.57a4.39,4.39,0,0,0,1.08-.1,1.49,1.49,0,0,0,1-.84,7.8,7.8,0,0,0,.32-.83h.86l-1.44,4.69h-.86a3.55,3.55,0,0,0,.24-1.08c0-.65-.45-1-1.35-1h-.73l-1,3.31a3.54,3.54,0,0,0-.15.78.69.69,0,0,0,.19.52,1.09,1.09,0,0,0,.46.25,1.72,1.72,0,0,0,.46.07h.42l-.26.81H328l.26-.81a1.13,1.13,0,0,0,.91-.35,2.89,2.89,0,0,0,.46-1l2.27-7.46a3.3,3.3,0,0,0,.15-.69.65.65,0,0,0-.36-.68,2.46,2.46,0,0,0-.86-.14l.21-.81h8.36Z"/><path class="cls-1" d="M345.9,307.57a2,2,0,0,1-.22.83,3.34,3.34,0,0,1-.8,1,5.09,5.09,0,0,1-1.67.94,10.84,10.84,0,0,1-2.73.55l-.21,0a3.07,3.07,0,0,0-.07.65,1.2,1.2,0,0,0,.31.93,1.31,1.31,0,0,0,.91.29,3.38,3.38,0,0,0,2.52-1.42h.93a6.76,6.76,0,0,1-1.65,1.65,4.35,4.35,0,0,1-2.63.82,2.94,2.94,0,0,1-1.81-.57,2,2,0,0,1-.75-1.67,5.06,5.06,0,0,1,.75-2.61,5.94,5.94,0,0,1,2-2.07,5.26,5.26,0,0,1,2.81-.79,2.83,2.83,0,0,1,1.75.41A1.27,1.27,0,0,1,345.9,307.57Zm-1.86,0a.78.78,0,0,0-.2-.53.68.68,0,0,0-.55-.24,1.74,1.74,0,0,0-1.13.42,4.23,4.23,0,0,0-.87,1,7.51,7.51,0,0,0-.57,1.18l-.28.74a6.08,6.08,0,0,0,2.7-1A2,2,0,0,0,344,307.53Z"/><path class="cls-1" d="M354.35,307.57a2.14,2.14,0,0,1-.22.83,3.39,3.39,0,0,1-.81,1,5,5,0,0,1-1.67.94,10.65,10.65,0,0,1-2.73.55l-.21,0a3.9,3.9,0,0,0-.07.65,1.24,1.24,0,0,0,.31.93,1.31,1.31,0,0,0,.91.29,3.41,3.41,0,0,0,2.53-1.42h.93a7.13,7.13,0,0,1-1.65,1.65,4.35,4.35,0,0,1-2.63.82,2.9,2.9,0,0,1-1.81-.57,2,2,0,0,1-.75-1.67,5.06,5.06,0,0,1,.75-2.61,5.78,5.78,0,0,1,2-2.07,5.23,5.23,0,0,1,2.81-.79,2.82,2.82,0,0,1,1.74.41A1.28,1.28,0,0,1,354.35,307.57Zm-1.86,0a.83.83,0,0,0-.2-.53.69.69,0,0,0-.55-.24,1.74,1.74,0,0,0-1.13.42,3.82,3.82,0,0,0-.87,1,7.57,7.57,0,0,0-.58,1.18l-.27.74a6,6,0,0,0,2.69-1A2,2,0,0,0,352.49,307.53Z"/><path class="cls-1" d="M362.59,307.6a.92.92,0,0,1-.24.63.81.81,0,0,1-.66.28.79.79,0,0,1-.49-.13.73.73,0,0,1-.28-.34,5,5,0,0,1-.25-.65,1.09,1.09,0,0,0-.28-.47,1.11,1.11,0,0,0-.7-.16,1.51,1.51,0,0,0-.82.23.72.72,0,0,0-.37.63.94.94,0,0,0,.15.5,2.21,2.21,0,0,0,.37.45c.14.14.36.34.67.6a8.72,8.72,0,0,1,1.25,1.18,1.84,1.84,0,0,1,.39,1.2,2,2,0,0,1-.33,1.1,2.37,2.37,0,0,1-1.11.84,5,5,0,0,1-2,.33,3.65,3.65,0,0,1-2.43-.64,1.76,1.76,0,0,1-.7-1.24,1,1,0,0,1,.27-.69.92.92,0,0,1,.72-.3c.6,0,.94.38,1,1.15a1.63,1.63,0,0,0,.27.78,1.11,1.11,0,0,0,.9.28,1.48,1.48,0,0,0,1-.29.92.92,0,0,0,.38-.77,1,1,0,0,0-.13-.48,2.16,2.16,0,0,0-.53-.58c-.47-.4-.86-.75-1.17-1.06a3.8,3.8,0,0,1-.7-.88,1.74,1.74,0,0,1-.24-.88,1.77,1.77,0,0,1,.28-.9,2.29,2.29,0,0,1,1-.85,4.86,4.86,0,0,1,2.05-.36,5.68,5.68,0,0,1,1.34.14,2.54,2.54,0,0,1,.84.37,1.39,1.39,0,0,1,.41.48A1.25,1.25,0,0,1,362.59,307.6Z"/><line class="cls-4" x1="680.09" y1="392.22" x2="680.09" y2="392.35"/><line class="cls-5" x1="680.09" y1="402.25" x2="680.09" y2="762.71"/><line class="cls-6" x1="210" y1="100.31" x2="210" y2="611.23"/><path class="cls-1" d="M209.57,62.27h-4V59.51h11.21v2.76h-4V73.68h-3.12Z"/><path class="cls-1" d="M225.19,59.15c4.42,0,7.64,2.9,7.64,7.44S229.61,74,225.19,74s-7.65-2.91-7.65-7.45S220.77,59.15,225.19,59.15Zm0,12a4.57,4.57,0,1,0-4.4-4.57A4.28,4.28,0,0,0,225.19,71.16Z"/><path class="cls-1" d="M234.94,59.51h5.27c2.94,0,5.38.94,5.38,4.3s-2.26,4.34-5.24,4.34h-2.29v5.53h-3.12Zm3.12,6h2.09c1.1,0,2.2-.38,2.2-1.7s-1.48-1.66-2.68-1.66h-1.61Z"/><path class="cls-1" d="M265.41,68.21c0,3.35-2,5.83-6,5.83s-6-2.48-6-5.83v-8.7h3.12v8.58a2.86,2.86,0,1,0,5.71,0V59.51h3.12Z"/><path class="cls-1" d="M275.29,63A3,3,0,0,0,273,62c-.88,0-2.1.4-2.1,1.46,0,2.58,6.52.92,6.52,5.88,0,3.17-2.54,4.67-5.47,4.67a6.72,6.72,0,0,1-4.76-1.78l2.22-2.44a3.49,3.49,0,0,0,2.73,1.34c1,0,2.16-.49,2.16-1.49,0-2.6-6.65-1.2-6.65-5.92,0-3,2.63-4.6,5.41-4.6a6.4,6.4,0,0,1,4.34,1.48Z"/><path class="cls-1" d="M279.88,59.51h9.63v2.88H283V65h6.15v2.88H283v2.88h6.87v2.89h-10Z"/><path class="cls-1" d="M299.36,63A3,3,0,0,0,297.1,62c-.88,0-2.1.4-2.1,1.46,0,2.58,6.53.92,6.53,5.88,0,3.17-2.55,4.67-5.47,4.67a6.72,6.72,0,0,1-4.76-1.78l2.22-2.44a3.47,3.47,0,0,0,2.72,1.34c1,0,2.16-.49,2.16-1.49,0-2.6-6.64-1.2-6.64-5.92,0-3,2.62-4.6,5.4-4.6a6.41,6.41,0,0,1,4.35,1.48Z"/><path class="cls-2" d="M402.11,302h33.8a6.71,6.71,0,0,1,6.7,6.71v.61a6.7,6.7,0,0,1-6.7,6.7h-33.8Z"/><path class="cls-2" d="M402.11,260.69h276.6a6.7,6.7,0,0,1,6.7,6.7V268a6.7,6.7,0,0,1-6.7,6.7H402.11Z"/><path class="cls-2" d="M402.11,219.49H557.2a6.7,6.7,0,0,1,6.7,6.71v.3a6.7,6.7,0,0,1-6.7,6.7H402.11Z"/><path class="cls-1" d="M402.11,178.3h438.4a6.7,6.7,0,0,1,6.7,6.7h0a6.7,6.7,0,0,1-6.7,6.7H402.11Z"/><path class="cls-2" d="M402.11,136.8H719a6.7,6.7,0,0,1,6.7,6.7v.31a6.7,6.7,0,0,1-6.7,6.7H402.11Z"/><path class="cls-2" d="M742.69,150.55V150a22,22,0,0,0,2.54-2.47,16.52,16.52,0,0,0,2.21-2.92,5.12,5.12,0,0,0,.67-2.49,3.11,3.11,0,0,0-.68-2.21,2.3,2.3,0,0,0-1.71-.71,1.93,1.93,0,0,0-1.55.65,2.1,2.1,0,0,0-.55,1.39,1.56,1.56,0,0,0,.71,1.34c.18.12.27.21.27.28s-.1.25-.3.43a.83.83,0,0,1-.49.27c-.18,0-.39-.18-.64-.53a2.33,2.33,0,0,1-.37-1.37,2.5,2.5,0,0,1,1-2.13,3.77,3.77,0,0,1,2.3-.79,3.81,3.81,0,0,1,2.37.82,2.87,2.87,0,0,1,1.06,2.43,4.19,4.19,0,0,1-.47,1.92,14.71,14.71,0,0,1-2.31,2.77c-1.22,1.25-2.2,2.19-2.95,2.81h5.59l-.5,2h-.41a1.25,1.25,0,0,1,.05-.32.67.67,0,0,0,0-.23c0-.18,0-.28-.12-.31a1.86,1.86,0,0,0-.61,0Z"/><path class="cls-2" d="M753,144.5h-.46l.26-5.47h4.56a3.4,3.4,0,0,1-.55,1,.9.9,0,0,1-.59.14h-3.08l-.14,3.64a2.65,2.65,0,0,1,2.18-1.13,3,3,0,0,1,2.34,1.1,3.94,3.94,0,0,1,1,2.72,4.44,4.44,0,0,1-1.1,3.09,3.9,3.9,0,0,1-3.06,1.22,3.26,3.26,0,0,1-2.13-.64c-.51-.43-.77-.81-.77-1.16a.53.53,0,0,1,.16-.39.53.53,0,0,1,.41-.17.56.56,0,0,1,.44.17,2.53,2.53,0,0,1,.35.71,1.54,1.54,0,0,0,1.58,1.09,2.37,2.37,0,0,0,1.89-.91,4.52,4.52,0,0,0,.77-2.94,4.2,4.2,0,0,0-.63-2.61,1.87,1.87,0,0,0-1.5-.77A2.1,2.1,0,0,0,753,144.5Z"/><path class="cls-2" d="M761,149.89a1,1,0,0,1,.28-.67.93.93,0,0,1,.66-.27.92.92,0,0,1,1,.94.89.89,0,0,1-.28.67.93.93,0,0,1-.67.28.88.88,0,0,1-.66-.29A.9.9,0,0,1,761,149.89Z"/><path class="cls-2" d="M769.42,144.55a3.42,3.42,0,0,1,2.05.93,3.08,3.08,0,0,1-.2,4.5,4.1,4.1,0,0,1-2.63.86,3.91,3.91,0,0,1-2.63-.91,2.87,2.87,0,0,1-1.06-2.27,2.93,2.93,0,0,1,.76-2,3.67,3.67,0,0,1,2.09-1.09A3.4,3.4,0,0,1,766,143.5a2.7,2.7,0,0,1-.69-1.84,2.63,2.63,0,0,1,.94-2.1,3.46,3.46,0,0,1,2.36-.82,3.71,3.71,0,0,1,2.34.8,2.57,2.57,0,0,1,1,2.12,2.73,2.73,0,0,1-.64,1.82A3.49,3.49,0,0,1,769.42,144.55Zm-3,3a5.08,5.08,0,0,0,.19,1.57,1.87,1.87,0,0,0,.7.95,2.11,2.11,0,0,0,1.3.38,2.45,2.45,0,0,0,1.64-.56,2.94,2.94,0,0,0,.65-2.23,3.09,3.09,0,0,0-.65-2.28,2.38,2.38,0,0,0-1.67-.6,1.87,1.87,0,0,0-1.62.74A3.42,3.42,0,0,0,766.41,147.54Zm.31-6a4,4,0,0,0,.46,2.14,1.54,1.54,0,0,0,1.39.72,1.77,1.77,0,0,0,1.51-.68,3.44,3.44,0,0,0,.5-2,2.89,2.89,0,0,0-.53-1.87,1.89,1.89,0,0,0-2.79,0A2.54,2.54,0,0,0,766.72,141.49Z"/><path class="cls-2" d="M778.66,141.54a3.52,3.52,0,0,1-.68,2.24,2.09,2.09,0,0,1-3.43,0,4,4,0,0,1,0-4.44,2.09,2.09,0,0,1,3.43,0A3.59,3.59,0,0,1,778.66,141.54Zm-1.14,0c0-1.87-.41-2.81-1.24-2.81s-1.25.94-1.25,2.81.42,2.8,1.25,2.8S777.52,143.41,777.52,141.54Zm.73,9h-.54L783.83,139h.54Zm9.91-2.85a3.69,3.69,0,0,1-.67,2.23,2,2,0,0,1-1.72.91,2.07,2.07,0,0,1-1.73-.92,4,4,0,0,1,0-4.44,2.07,2.07,0,0,1,3.42,0A3.55,3.55,0,0,1,788.16,147.7Zm-1.15,0c0-1.87-.41-2.8-1.24-2.8s-1.24.93-1.24,2.8.41,2.8,1.24,2.8S787,149.56,787,147.69Z"/><line class="cls-6" x1="70.4" y1="685.42" x2="995.49" y2="240.55"/></g></svg>