<svg id="Layer_1" data-name="Layer 1" xmlns="http://www.w3.org/2000/svg" xmlns:xlink="http://www.w3.org/1999/xlink" viewBox="0 0 1065 2000"><defs><style>.cls-1{fill:#e9dfdf;}.cls-2{fill:#c50000;}.cls-3{fill:#83332a;}.cls-4{font-size:18px;font-family:AvenirLTStd-Medium, Avenir LT Std;font-weight:500;}.cls-4,.cls-7,.cls-8{fill:#fff;}.cls-5{letter-spacing:-0.02em;}.cls-6{letter-spacing:0em;}.cls-8{font-size:22px;font-family:Baskerville-SemiBoldItalic, Baskerville;font-weight:600;font-style:italic;}.cls-9{letter-spacing:0.11em;}.cls-10{letter-spacing:0em;}.cls-11{letter-spacing:-0.02em;}.cls-12{letter-spacing:0em;}.cls-13{fill:#3c3c3c;}.cls-14{fill:#f4f4f4;}.cls-15{fill:#2d2d2d;}.cls-16{fill:#63332a;}.cls-17{fill:none;stroke:#fff;stroke-linecap:round;stroke-linejoin:round;stroke-width:3px;stroke-dasharray:0.25 10;}</style></defs><title>CCSF_Panel</title><g id="Previous_bg" data-name="Previous bg"><polygon class="cls-1" points="265.19 84.85 265.19 147.75 95 147.75 20 84.85 265.19 84.85"/><polygon class="cls-1" points="265.19 411.27 265.19 474.17 95 474.17 20 411.27 265.19 411.27"/><polygon class="cls-2" points="849.81 210.64 849.81 273.54 970 273.54 1045 210.64 849.81 210.64"/><rect class="cls-3" x="95" y="84.85" width="875" height="1921.99"/><text class="cls-4" transform="translate(908.51 1086.09) rotate(90)">Cur<tspan class="cls-5" x="29.34" y="0">r</tspan><tspan class="cls-6" x="35.68" y="0">ent site</tspan></text><path class="cls-7" d="M293.41,353.49h-3.49l3-8.85h2.95Zm6.37,0h-3.49l3-8.85h2.95Z"/><path class="cls-7" d="M308.71,344.64h3.46v25.48h-3.46Z"/><path class="cls-7" d="M327,355.87h-4.65v7.74c0,1.9,0,3.92,2.45,3.92a4.68,4.68,0,0,0,2.31-.5v3a7.42,7.42,0,0,1-2.92.57c-5,0-5.08-3.06-5.08-5.79v-8.89h-3.74v-2.81h3.74v-4.79h3.24v4.79H327Z"/><path class="cls-7" d="M333.73,353.49h-3l2.49-8.85h3.49Z"/><path class="cls-7" d="M347.63,357.34a4.34,4.34,0,0,0-3.49-1.69c-1.51,0-2.85.68-2.85,1.91,0,2.05,2.92,2.34,4.36,2.66,2.81.69,5,1.77,5,5,0,3.85-3.53,5.36-6.91,5.36-2.81,0-4.9-.72-6.59-3l2.45-2a5.63,5.63,0,0,0,4.14,2c1.65,0,3.45-.68,3.45-2.16,0-1.94-2.7-2.3-4.1-2.63-2.77-.68-5.22-1.58-5.22-4.86,0-3.56,3.27-5.25,6.48-5.25a6.6,6.6,0,0,1,5.83,2.8Z"/><path class="cls-7" d="M364.55,353.06h3.24v2.63h.07a6,6,0,0,1,5.62-3.06c3.31,0,6.19,2,6.19,6.51v11h-3.24V360c0-3.2-1.84-4.39-3.89-4.39-2.7,0-4.75,1.73-4.75,5.69v8.78h-3.24Z"/><path class="cls-7" d="M392.81,352.63a9,9,0,1,1-9.07,9A9,9,0,0,1,392.81,352.63Zm0,14.9c3.45,0,5.61-2.48,5.61-5.94s-2.16-5.94-5.61-5.94-5.62,2.48-5.62,5.94S389.35,367.53,392.81,367.53Z"/><path class="cls-7" d="M415.09,355.87h-4.64v7.74c0,1.9,0,3.92,2.45,3.92a4.67,4.67,0,0,0,2.3-.5v3a7.42,7.42,0,0,1-2.92.57c-5,0-5.07-3.06-5.07-5.79v-8.89h-3.74v-2.81h3.74v-4.79h3.24v4.79h4.64Z"/><path class="cls-7" d="M438.35,357.34a4.34,4.34,0,0,0-3.49-1.69c-1.52,0-2.85.68-2.85,1.91,0,2.05,2.92,2.34,4.36,2.66,2.81.69,5,1.77,5,5,0,3.85-3.53,5.36-6.92,5.36-2.8,0-4.89-.72-6.58-3l2.44-2a5.66,5.66,0,0,0,4.14,2c1.66,0,3.46-.68,3.46-2.16,0-1.94-2.7-2.3-4.1-2.63-2.78-.68-5.22-1.58-5.22-4.86,0-3.56,3.27-5.25,6.48-5.25a6.6,6.6,0,0,1,5.83,2.8Z"/><path class="cls-7" d="M453.5,352.63a9,9,0,1,1-9.07,9A9,9,0,0,1,453.5,352.63Zm0,14.9c3.46,0,5.62-2.48,5.62-5.94s-2.16-5.94-5.62-5.94-5.61,2.48-5.61,5.94S450.05,367.53,453.5,367.53Z"/><path class="cls-7" d="M476.65,353.06h3v2.66h.07c.32-1,2.41-3.09,5.47-3.09a5.54,5.54,0,0,1,5.33,3.16,6.16,6.16,0,0,1,5.4-3.16c5.25,0,6.47,3.74,6.47,7.56v9.93h-3.23v-9.5c0-2.59-.54-5-3.68-5s-4.35,2.12-4.35,5.15v9.32h-3.24v-8.93c0-3.24-.47-5.54-3.6-5.54-2.34,0-4.43,1.76-4.43,5.62v8.85h-3.24Z"/><path class="cls-7" d="M522.44,370.12H519.2v-2.63h-.07a6,6,0,0,1-5.62,3.06c-3.31,0-6.19-2-6.19-6.51v-11h3.24v10.08c0,3.2,1.84,4.39,3.89,4.39,2.7,0,4.75-1.73,4.75-5.69v-8.78h3.24Z"/><path class="cls-7" d="M539.54,357.59a5.43,5.43,0,0,0-4.25-1.9c-3.52,0-5.32,2.84-5.32,6a5.47,5.47,0,0,0,5.5,5.8,5.06,5.06,0,0,0,4.14-1.91l2.31,2.31a8.4,8.4,0,0,1-6.48,2.62,8.51,8.51,0,0,1-8.93-8.89c0-5.25,3.6-9,8.93-9a8.77,8.77,0,0,1,6.55,2.7Z"/><path class="cls-7" d="M544.69,342.91h3.24v12.78H548a6,6,0,0,1,5.62-3.06c3.31,0,6.19,2,6.19,6.51v11h-3.24V360c0-3.2-1.84-4.39-3.89-4.39-2.7,0-4.75,1.73-4.75,5.69v8.78h-3.24Z"/><path class="cls-7" d="M583.86,355.87h-4.65v7.74c0,1.9,0,3.92,2.45,3.92A4.68,4.68,0,0,0,584,367v3a7.42,7.42,0,0,1-2.92.57c-5,0-5.07-3.06-5.07-5.79v-8.89h-3.75v-2.81H576v-4.79h3.23v4.79h4.65Z"/><path class="cls-7" d="M588,342.91h3.24v12.78h.07a6,6,0,0,1,5.61-3.06c3.31,0,6.19,2,6.19,6.51v11h-3.24V360c0-3.2-1.83-4.39-3.88-4.39-2.7,0-4.75,1.73-4.75,5.69v8.78H588Z"/><path class="cls-7" d="M608.12,355.15a10,10,0,0,1,6.77-2.52c5,0,7.13,2.73,7.13,5.68V367a25.93,25.93,0,0,0,.14,3.09h-2.88c-.07-.86-.11-1.73-.11-2.59h-.07a6.5,6.5,0,0,1-6,3c-3.17,0-5.91-1.8-5.91-5.11,0-4.39,4.21-5.9,9.4-5.9H619v-.72c0-1.77-1.29-3.6-4.06-3.6a7.05,7.05,0,0,0-4.86,1.94Zm9.15,6.76c-3.06,0-6.81.54-6.81,3.28,0,1.94,1.44,2.77,3.67,2.77,3.6,0,4.86-2.66,4.86-5v-1.08Z"/><path class="cls-7" d="M635.88,355.87h-4.64v7.74c0,1.9,0,3.92,2.44,3.92A4.68,4.68,0,0,0,636,367v3a7.42,7.42,0,0,1-2.92.57c-5,0-5.07-3.06-5.07-5.79v-8.89h-3.75v-2.81H628v-4.79h3.24v4.79h4.64Z"/><path class="cls-7" d="M651.93,344.56a2.38,2.38,0,1,1-2.37,2.38A2.4,2.4,0,0,1,651.93,344.56Zm-1.61,8.5h3.23v17.06h-3.23Z"/><path class="cls-7" d="M667.85,355.87H663.2v7.74c0,1.9,0,3.92,2.45,3.92a4.62,4.62,0,0,0,2.3-.5v3a7.34,7.34,0,0,1-2.91.57c-5,0-5.08-3.06-5.08-5.79v-8.89h-3.74v-2.81H660v-4.79h3.24v4.79h4.65Z"/><path class="cls-7" d="M674.54,353.49h-2.95l2.48-8.85h3.5Z"/><path class="cls-7" d="M688.44,357.34a4.34,4.34,0,0,0-3.49-1.69c-1.52,0-2.85.68-2.85,1.91,0,2.05,2.92,2.34,4.36,2.66,2.81.69,5,1.77,5,5,0,3.85-3.52,5.36-6.91,5.36-2.8,0-4.89-.72-6.58-3l2.45-2a5.62,5.62,0,0,0,4.13,2c1.66,0,3.46-.68,3.46-2.16,0-1.94-2.7-2.3-4.1-2.63-2.78-.68-5.22-1.58-5.22-4.86,0-3.56,3.27-5.25,6.48-5.25a6.6,6.6,0,0,1,5.83,2.8Z"/><path class="cls-7" d="M325,410.12h-3.24v-2.45h-.07a7.27,7.27,0,0,1-5.94,2.88c-5.29,0-8.67-3.92-8.67-9s3.42-9,8.67-9a7.12,7.12,0,0,1,5.94,2.88h.07v-12.6H325Zm-3.24-8.53c0-3.46-2.16-5.94-5.61-5.94s-5.62,2.48-5.62,5.94,2.16,5.94,5.62,5.94S321.74,405.05,321.74,401.59Z"/><path class="cls-7" d="M331.75,384.56a2.38,2.38,0,1,1-2.37,2.38A2.4,2.4,0,0,1,331.75,384.56Zm-1.62,8.5h3.24v17.06h-3.24Z"/><path class="cls-7" d="M339.78,395.87h-3.67v-2.81h3.67v-3.82c0-4.53,1.59-6.76,5.83-6.76a9.77,9.77,0,0,1,2.41.25l-.36,2.88a4.6,4.6,0,0,0-1.83-.33c-2.38,0-2.77,1.48-2.77,3.86v3.92h3.85v2.81H343v14.25h-3.24Z"/><path class="cls-7" d="M351.12,395.87h-3.67v-2.81h3.67v-3.82c0-4.53,1.59-6.76,5.83-6.76a9.77,9.77,0,0,1,2.41.25l-.36,2.88a4.6,4.6,0,0,0-1.83-.33c-2.38,0-2.77,1.48-2.77,3.86v3.92h3.85v2.81h-3.89v14.25h-3.24Zm12-11.27a2.38,2.38,0,1,1-2.38,2.38A2.4,2.4,0,0,1,363.11,384.6Zm-1.66,8.46h3.24v17.06h-3.24Z"/><path class="cls-7" d="M382.08,397.59a5.43,5.43,0,0,0-4.25-1.9c-3.52,0-5.32,2.84-5.32,6a5.47,5.47,0,0,0,5.5,5.8,5.06,5.06,0,0,0,4.14-1.91l2.31,2.31a8.42,8.42,0,0,1-6.48,2.62,8.51,8.51,0,0,1-8.93-8.89c0-5.25,3.6-9,8.93-9a8.77,8.77,0,0,1,6.55,2.7Z"/><path class="cls-7" d="M402.35,410.12h-3.24v-2.63H399a6,6,0,0,1-5.62,3.06c-3.31,0-6.19-2-6.19-6.51v-11h3.24v10.08c0,3.2,1.84,4.39,3.89,4.39,2.7,0,4.75-1.73,4.75-5.69v-8.78h3.24Z"/><path class="cls-7" d="M407.5,382.91h3.24v27.21H407.5Z"/><path class="cls-7" d="M425,395.87h-4.64v7.74c0,1.9,0,3.92,2.44,3.92a4.68,4.68,0,0,0,2.31-.5v3a7.42,7.42,0,0,1-2.92.57c-5,0-5.07-3.06-5.07-5.79v-8.89H413.4v-2.81h3.75v-4.79h3.24v4.79H425Z"/><path class="cls-7" d="M448.36,395.87h-4.65v7.74c0,1.9,0,3.92,2.45,3.92a4.62,4.62,0,0,0,2.3-.5v3a7.34,7.34,0,0,1-2.91.57c-5,0-5.08-3.06-5.08-5.79v-8.89h-3.74v-2.81h3.74v-4.79h3.24v4.79h4.65Z"/><path class="cls-7" d="M460.78,392.63a9,9,0,1,1-9.07,9A9,9,0,0,1,460.78,392.63Zm0,14.9c3.45,0,5.61-2.48,5.61-5.94s-2.16-5.94-5.61-5.94-5.62,2.48-5.62,5.94S457.32,407.53,460.78,407.53Z"/><path class="cls-7" d="M483.92,393.06h3.24v2.63h.08a6,6,0,0,1,5.61-3.06c3.31,0,6.19,2,6.19,6.51v11H495.8V400c0-3.2-1.83-4.39-3.88-4.39-2.7,0-4.76,1.73-4.76,5.69v8.78h-3.24Z"/><path class="cls-7" d="M504,395.15a10,10,0,0,1,6.77-2.52c5,0,7.13,2.73,7.13,5.68V407a25.93,25.93,0,0,0,.14,3.09h-2.88c-.07-.86-.11-1.73-.11-2.59H515a6.5,6.5,0,0,1-6,3c-3.17,0-5.91-1.8-5.91-5.11,0-4.39,4.21-5.9,9.4-5.9h2.37v-.72c0-1.77-1.29-3.6-4.06-3.6a7.05,7.05,0,0,0-4.86,1.94Zm9.15,6.76c-3.06,0-6.81.54-6.81,3.28,0,1.94,1.44,2.77,3.67,2.77,3.6,0,4.86-2.66,4.86-5v-1.08Z"/><path class="cls-7" d="M520.57,393.06h3.75l5.11,13.07,4.89-13.07h3.46l-6.7,17.06h-3.56Z"/><path class="cls-7" d="M542.5,384.56a2.38,2.38,0,1,1-2.38,2.38A2.4,2.4,0,0,1,542.5,384.56Zm-1.62,8.5h3.24v17.06h-3.24Z"/><path class="cls-7" d="M566.36,410c0,5.14-3.74,8.78-9.32,8.78a11.53,11.53,0,0,1-8.35-3.06l2.19-2.74a8,8,0,0,0,6.09,2.78c4.82,0,6.15-3,6.15-5.91v-2.52H563a6.69,6.69,0,0,1-5.9,3,8.47,8.47,0,0,1-8.67-8.75c0-5,3.38-9,8.67-9a7.27,7.27,0,0,1,5.94,2.88h.07v-2.45h3.24Zm-14.47-8.39c0,3.46,2.16,5.72,5.62,5.72s5.61-2.26,5.61-5.72-2.16-5.94-5.61-5.94S551.89,398.13,551.89,401.59Z"/><path class="cls-7" d="M571.33,395.15a10,10,0,0,1,6.77-2.52c5,0,7.13,2.73,7.13,5.68V407a25.93,25.93,0,0,0,.14,3.09h-2.88c-.07-.86-.11-1.73-.11-2.59h-.07a6.5,6.5,0,0,1-6,3c-3.17,0-5.91-1.8-5.91-5.11,0-4.39,4.21-5.9,9.4-5.9h2.37v-.72c0-1.77-1.29-3.6-4.06-3.6a7.05,7.05,0,0,0-4.86,1.94Zm9.15,6.76c-3.06,0-6.81.54-6.81,3.28,0,1.94,1.44,2.77,3.67,2.77,3.6,0,4.86-2.66,4.86-5v-1.08Z"/><path class="cls-7" d="M599.09,395.87h-4.65v7.74c0,1.9,0,3.92,2.45,3.92a4.68,4.68,0,0,0,2.31-.5v3a7.42,7.42,0,0,1-2.92.57c-5,0-5.08-3.06-5.08-5.79v-8.89h-3.74v-2.81h3.74v-4.79h3.24v4.79h4.65Z"/><path class="cls-7" d="M605.71,402.78c0,3,2.77,5,5.76,5a5.88,5.88,0,0,0,4.68-2.56l2.45,1.87a8.93,8.93,0,0,1-7.56,3.49c-5.4,0-8.78-3.88-8.78-9a8.64,8.64,0,0,1,8.82-9c6,0,8.31,4.6,8.31,9v1.15Zm10.22-2.59c-.07-2.85-1.65-5-4.93-5a5.27,5.27,0,0,0-5.29,5Z"/><path class="cls-7" d="M633.29,393.06h3.24v2.45h.07a7.28,7.28,0,0,1,5.94-2.88c5.29,0,8.67,3.92,8.67,9s-3.42,9-8.67,9a7.12,7.12,0,0,1-5.94-2.88h-.07v12.6h-3.24Zm3.24,8.53c0,3.46,2.16,5.94,5.61,5.94s5.62-2.48,5.62-5.94-2.16-5.94-5.62-5.94S636.53,398.13,636.53,401.59Z"/><path class="cls-7" d="M657.73,402.78c0,3,2.77,5,5.76,5a5.88,5.88,0,0,0,4.68-2.56l2.45,1.87a8.94,8.94,0,0,1-7.56,3.49c-5.4,0-8.78-3.88-8.78-9a8.64,8.64,0,0,1,8.81-9c6,0,8.32,4.6,8.32,9v1.15ZM668,400.19c-.07-2.85-1.65-5-4.93-5a5.27,5.27,0,0,0-5.29,5Z"/><path class="cls-7" d="M675.3,393.06h3.24v2.63h.07a5.77,5.77,0,0,1,5.11-3.06,4.73,4.73,0,0,1,1.44.21l-.14,3.49a6.48,6.48,0,0,0-1.59-.25c-3.16,0-4.89,1.73-4.89,5.47v8.57H675.3Z"/><path class="cls-7" d="M707.7,397.34a4.34,4.34,0,0,0-3.49-1.69c-1.51,0-2.85.68-2.85,1.91,0,2.05,2.92,2.34,4.36,2.66,2.81.69,5,1.77,5,5,0,3.85-3.53,5.36-6.92,5.36-2.8,0-4.89-.72-6.58-3l2.45-2a5.62,5.62,0,0,0,4.13,2c1.66,0,3.46-.68,3.46-2.16,0-1.94-2.7-2.3-4.1-2.63-2.77-.68-5.22-1.58-5.22-4.86,0-3.56,3.27-5.25,6.48-5.25a6.6,6.6,0,0,1,5.83,2.8Z"/><path class="cls-7" d="M717.06,402.78c0,3,2.77,5,5.76,5a5.88,5.88,0,0,0,4.68-2.56l2.45,1.87a8.94,8.94,0,0,1-7.56,3.49c-5.4,0-8.79-3.88-8.79-9a8.65,8.65,0,0,1,8.82-9c6,0,8.32,4.6,8.32,9v1.15Zm10.22-2.59c-.07-2.85-1.65-5-4.93-5a5.27,5.27,0,0,0-5.29,5Z"/><path class="cls-7" d="M736.86,414.87h-3l2.48-8.85h3.49Z"/><path class="cls-7" d="M309.76,424.56a2.38,2.38,0,1,1-2.38,2.38A2.4,2.4,0,0,1,309.76,424.56Zm-1.62,8.5h3.24v17.06h-3.24Z"/><path class="cls-7" d="M325.67,435.87H321v7.74c0,1.9,0,3.92,2.44,3.92a4.68,4.68,0,0,0,2.31-.5v3a7.42,7.42,0,0,1-2.92.57c-5,0-5.07-3.06-5.07-5.79v-8.89H314v-2.81h3.75v-4.79H321v4.79h4.64Z"/><path class="cls-7" d="M332.37,433.49h-3l2.49-8.85h3.49Z"/><path class="cls-7" d="M346.26,437.34a4.34,4.34,0,0,0-3.49-1.69c-1.51,0-2.84.68-2.84,1.91,0,2.05,2.91,2.34,4.35,2.66,2.81.69,5,1.77,5,5,0,3.85-3.53,5.36-6.91,5.36-2.81,0-4.9-.72-6.59-3l2.45-2a5.64,5.64,0,0,0,4.14,2c1.65,0,3.45-.68,3.45-2.16,0-1.94-2.7-2.3-4.1-2.63-2.77-.68-5.22-1.58-5.22-4.86,0-3.56,3.28-5.25,6.48-5.25a6.58,6.58,0,0,1,5.83,2.8Z"/><path class="cls-7" d="M366.67,433.06v19.51c0,1.76,0,6.19-5.22,6.19a5.88,5.88,0,0,1-2.08-.32l.36-3a4.28,4.28,0,0,0,1.33.29c1.76,0,2.37-1.16,2.37-3.32V433.06Zm-1.62-8.5a2.38,2.38,0,1,1-2.37,2.38A2.4,2.4,0,0,1,365.05,424.56Z"/><path class="cls-7" d="M386.94,450.12H383.7v-2.63h-.07a6,6,0,0,1-5.62,3.06c-3.31,0-6.19-2-6.19-6.51v-11h3.24v10.08c0,3.2,1.84,4.39,3.89,4.39,2.7,0,4.75-1.73,4.75-5.69v-8.78h3.24Z"/><path class="cls-7" d="M400.91,437.34a4.34,4.34,0,0,0-3.49-1.69c-1.52,0-2.85.68-2.85,1.91,0,2.05,2.92,2.34,4.36,2.66,2.81.69,5,1.77,5,5,0,3.85-3.53,5.36-6.92,5.36-2.8,0-4.89-.72-6.58-3l2.44-2a5.66,5.66,0,0,0,4.14,2c1.66,0,3.46-.68,3.46-2.16,0-1.94-2.7-2.3-4.1-2.63-2.78-.68-5.22-1.58-5.22-4.86,0-3.56,3.27-5.25,6.48-5.25a6.6,6.6,0,0,1,5.83,2.8Z"/><path class="cls-7" d="M417,435.87h-4.64v7.74c0,1.9,0,3.92,2.45,3.92a4.67,4.67,0,0,0,2.3-.5v3a7.37,7.37,0,0,1-2.91.57c-5,0-5.08-3.06-5.08-5.79v-8.89h-3.74v-2.81h3.74v-4.79h3.24v4.79H417Z"/><path class="cls-7" d="M440.29,435.87h-4.64v7.74c0,1.9,0,3.92,2.45,3.92a4.67,4.67,0,0,0,2.3-.5v3a7.42,7.42,0,0,1-2.92.57c-5,0-5.07-3.06-5.07-5.79v-8.89h-3.75v-2.81h3.75v-4.79h3.24v4.79h4.64Z"/><path class="cls-7" d="M444.47,422.91h3.24v12.78h.07a6,6,0,0,1,5.61-3.06c3.32,0,6.2,2,6.2,6.51v11h-3.24V440c0-3.2-1.84-4.39-3.89-4.39-2.7,0-4.75,1.73-4.75,5.69v8.78h-3.24Z"/><path class="cls-7" d="M464.56,435.15a10,10,0,0,1,6.76-2.52c5,0,7.13,2.73,7.13,5.68V447a28.23,28.23,0,0,0,.14,3.09h-2.88c-.07-.86-.1-1.73-.1-2.59h-.08a6.5,6.5,0,0,1-6,3c-3.17,0-5.9-1.8-5.9-5.11,0-4.39,4.21-5.9,9.39-5.9h2.38v-.72c0-1.77-1.3-3.6-4.07-3.6a7.09,7.09,0,0,0-4.86,1.94Zm9.14,6.76c-3.06,0-6.8.54-6.8,3.28,0,1.94,1.44,2.77,3.67,2.77,3.6,0,4.86-2.66,4.86-5v-1.08Z"/><path class="cls-7" d="M492.31,435.87h-4.64v7.74c0,1.9,0,3.92,2.45,3.92a4.67,4.67,0,0,0,2.3-.5v3a7.42,7.42,0,0,1-2.92.57c-5,0-5.07-3.06-5.07-5.79v-8.89h-3.75v-2.81h3.75v-4.79h3.24v4.79h4.64Z"/><path class="cls-7" d="M515.64,435.87H511v7.74c0,1.9,0,3.92,2.44,3.92a4.68,4.68,0,0,0,2.31-.5v3a7.42,7.42,0,0,1-2.92.57c-5,0-5.07-3.06-5.07-5.79v-8.89H504v-2.81h3.75v-4.79H511v4.79h4.64Z"/><path class="cls-7" d="M519.82,422.91h3.24v12.78h.07a6,6,0,0,1,5.61-3.06c3.31,0,6.19,2,6.19,6.51v11h-3.24V440c0-3.2-1.83-4.39-3.88-4.39-2.7,0-4.75,1.73-4.75,5.69v8.78h-3.24Z"/><path class="cls-7" d="M542.28,442.78c0,3,2.77,5,5.76,5a5.88,5.88,0,0,0,4.68-2.56l2.45,1.87a8.94,8.94,0,0,1-7.56,3.49c-5.4,0-8.79-3.88-8.79-9a8.65,8.65,0,0,1,8.82-9c6,0,8.32,4.6,8.32,9v1.15Zm10.22-2.59c-.07-2.85-1.65-5-4.93-5a5.27,5.27,0,0,0-5.29,5Z"/><path class="cls-7" d="M559.85,433.06h3.24v2.63h.07a5.77,5.77,0,0,1,5.11-3.06,4.77,4.77,0,0,1,1.44.21l-.14,3.49a6.48,6.48,0,0,0-1.59-.25c-3.16,0-4.89,1.73-4.89,5.47v8.57h-3.24Z"/><path class="cls-7" d="M575,442.78c0,3,2.77,5,5.76,5a5.88,5.88,0,0,0,4.68-2.56l2.44,1.87a8.93,8.93,0,0,1-7.56,3.49c-5.39,0-8.78-3.88-8.78-9a8.65,8.65,0,0,1,8.82-9c6,0,8.32,4.6,8.32,9v1.15Zm10.22-2.59c-.07-2.85-1.65-5-4.93-5a5.27,5.27,0,0,0-5.29,5Z"/><path class="cls-7" d="M604.42,424.56a2.38,2.38,0,1,1-2.38,2.38A2.4,2.4,0,0,1,604.42,424.56Zm-1.62,8.5H606v17.06H602.8Z"/><path class="cls-7" d="M620.25,437.34a4.33,4.33,0,0,0-3.49-1.69c-1.51,0-2.84.68-2.84,1.91,0,2.05,2.91,2.34,4.35,2.66,2.81.69,5,1.77,5,5,0,3.85-3.53,5.36-6.91,5.36-2.81,0-4.89-.72-6.59-3l2.45-2a5.66,5.66,0,0,0,4.14,2c1.66,0,3.46-.68,3.46-2.16,0-1.94-2.7-2.3-4.11-2.63-2.77-.68-5.22-1.58-5.22-4.86,0-3.56,3.28-5.25,6.48-5.25a6.58,6.58,0,0,1,5.83,2.8Z"/><path class="cls-7" d="M635.12,433.06h3.64l3.85,12.74h.07l4.07-12.74h3.42l4.32,12.74h.07l3.67-12.74h3.42l-5.51,17.06h-3.27l-4.5-12.74h-.07l-4.07,12.74h-3.49Z"/><path class="cls-7" d="M664.57,435.15a10,10,0,0,1,6.77-2.52c5,0,7.12,2.73,7.12,5.68V447a25.75,25.75,0,0,0,.15,3.09h-2.88c-.07-.86-.11-1.73-.11-2.59h-.07a6.5,6.5,0,0,1-6,3c-3.16,0-5.9-1.8-5.9-5.11,0-4.39,4.21-5.9,9.4-5.9h2.37v-.72c0-1.77-1.29-3.6-4.07-3.6a7.09,7.09,0,0,0-4.86,1.94Zm9.14,6.76c-3.06,0-6.8.54-6.8,3.28,0,1.94,1.44,2.77,3.67,2.77,3.6,0,4.86-2.66,4.86-5v-1.08Z"/><path class="cls-7" d="M681.13,433.06h3.74L690,446.38H690l4.82-13.32h3.5l-8.1,20.73c-1.16,2.95-2.27,5-5.83,5a7.78,7.78,0,0,1-2.88-.47l.39-3a5.27,5.27,0,0,0,2,.4c2,0,2.66-1.12,3.31-2.81l1-2.7Z"/><path class="cls-7" d="M720.33,435.87h-4.64v7.74c0,1.9,0,3.92,2.45,3.92a4.67,4.67,0,0,0,2.3-.5v3a7.4,7.4,0,0,1-2.91.57c-5,0-5.08-3.06-5.08-5.79v-8.89h-3.74v-2.81h3.74v-4.79h3.24v4.79h4.64Z"/><path class="cls-7" d="M732.75,432.63a9,9,0,1,1-9.07,9A9,9,0,0,1,732.75,432.63Zm0,14.9c3.46,0,5.62-2.48,5.62-5.94s-2.16-5.94-5.62-5.94-5.61,2.48-5.61,5.94S729.3,447.53,732.75,447.53Z"/><path class="cls-7" d="M754.14,432.63a9,9,0,1,1-9.07,9A9,9,0,0,1,754.14,432.63Zm0,14.9c3.45,0,5.61-2.48,5.61-5.94s-2.16-5.94-5.61-5.94-5.62,2.48-5.62,5.94S750.68,447.53,754.14,447.53Z"/><path class="cls-7" d="M307.89,473.06h3v2.66H311c.33-1,2.41-3.09,5.47-3.09a5.54,5.54,0,0,1,5.33,3.16,6.18,6.18,0,0,1,5.4-3.16c5.26,0,6.48,3.74,6.48,7.56v9.93h-3.24v-9.5c0-2.59-.54-5-3.67-5s-4.36,2.12-4.36,5.15v9.32h-3.24v-8.93c0-3.24-.47-5.54-3.6-5.54-2.34,0-4.42,1.76-4.42,5.62v8.85h-3.24Z"/><path class="cls-7" d="M353.68,490.12h-3.24v-2.63h-.08a6,6,0,0,1-5.61,3.06c-3.31,0-6.19-2-6.19-6.51v-11h3.24v10.08c0,3.2,1.83,4.39,3.89,4.39,2.69,0,4.75-1.73,4.75-5.69v-8.78h3.24Z"/><path class="cls-7" d="M370.78,477.59a5.43,5.43,0,0,0-4.25-1.9c-3.53,0-5.33,2.84-5.33,6a5.47,5.47,0,0,0,5.51,5.8,5.06,5.06,0,0,0,4.14-1.91l2.3,2.31a8.39,8.39,0,0,1-6.48,2.62,8.51,8.51,0,0,1-8.92-8.89c0-5.25,3.6-9,8.92-9a8.75,8.75,0,0,1,6.55,2.7Z"/><path class="cls-7" d="M375.93,462.91h3.24v12.78h.07a6,6,0,0,1,5.61-3.06c3.31,0,6.19,2,6.19,6.51v11H387.8V480c0-3.2-1.83-4.39-3.88-4.39-2.7,0-4.75,1.73-4.75,5.69v8.78h-3.24Z"/><path class="cls-7" d="M407.82,464.56a2.38,2.38,0,1,1-2.37,2.38A2.4,2.4,0,0,1,407.82,464.56Zm-1.62,8.5h3.24v17.06H406.2Z"/><path class="cls-7" d="M414.59,473.06h3.24v2.63h.07a6,6,0,0,1,5.62-3.06c3.31,0,6.19,2,6.19,6.51v11h-3.24V480c0-3.2-1.84-4.39-3.89-4.39-2.7,0-4.75,1.73-4.75,5.69v8.78h-3.24Z"/><path class="cls-7" d="M435.87,475.87h-3.68v-2.81h3.68v-3.82c0-4.53,1.58-6.76,5.83-6.76a9.77,9.77,0,0,1,2.41.25l-.36,2.88a4.65,4.65,0,0,0-1.84-.33c-2.37,0-2.77,1.48-2.77,3.86v3.92H443v2.81h-3.88v14.25h-3.24Z"/><path class="cls-7" d="M454.84,472.63a9,9,0,1,1-9.07,9A9,9,0,0,1,454.84,472.63Zm0,14.9c3.45,0,5.61-2.48,5.61-5.94s-2.16-5.94-5.61-5.94-5.62,2.48-5.62,5.94S451.38,487.53,454.84,487.53Z"/><path class="cls-7" d="M468,473.06h3.24v2.63h.07a5.77,5.77,0,0,1,5.11-3.06,4.77,4.77,0,0,1,1.44.21l-.14,3.49a6.48,6.48,0,0,0-1.59-.25c-3.17,0-4.89,1.73-4.89,5.47v8.57H468Z"/><path class="cls-7" d="M481.3,473.06h3v2.66h.07c.33-1,2.41-3.09,5.47-3.09a5.54,5.54,0,0,1,5.33,3.16,6.18,6.18,0,0,1,5.4-3.16c5.26,0,6.48,3.74,6.48,7.56v9.93h-3.24v-9.5c0-2.59-.54-5-3.67-5s-4.36,2.12-4.36,5.15v9.32h-3.24v-8.93c0-3.24-.46-5.54-3.6-5.54-2.34,0-4.42,1.76-4.42,5.62v8.85H481.3Z"/><path class="cls-7" d="M512,475.15a10,10,0,0,1,6.77-2.52c5,0,7.13,2.73,7.13,5.68V487a25.93,25.93,0,0,0,.14,3.09H523.2c-.07-.86-.11-1.73-.11-2.59H523a6.5,6.5,0,0,1-6,3c-3.16,0-5.9-1.8-5.9-5.11,0-4.39,4.21-5.9,9.4-5.9h2.37v-.72c0-1.77-1.29-3.6-4.07-3.6a7.09,7.09,0,0,0-4.86,1.94Zm9.14,6.76c-3.06,0-6.8.54-6.8,3.28,0,1.94,1.44,2.77,3.67,2.77,3.6,0,4.86-2.66,4.86-5v-1.08Z"/><path class="cls-7" d="M539.8,475.87h-4.65v7.74c0,1.9,0,3.92,2.45,3.92a4.62,4.62,0,0,0,2.3-.5v3a7.34,7.34,0,0,1-2.91.57c-5,0-5.08-3.06-5.08-5.79v-8.89h-3.74v-2.81h3.74v-4.79h3.24v4.79h4.65Z"/><path class="cls-7" d="M545.84,464.56a2.38,2.38,0,1,1-2.37,2.38A2.4,2.4,0,0,1,545.84,464.56Zm-1.61,8.5h3.23v17.06h-3.23Z"/><path class="cls-7" d="M560.86,472.63a9,9,0,1,1-9.07,9A9,9,0,0,1,560.86,472.63Zm0,14.9c3.45,0,5.61-2.48,5.61-5.94s-2.16-5.94-5.61-5.94-5.62,2.48-5.62,5.94S557.4,487.53,560.86,487.53Z"/><path class="cls-7" d="M574,473.06h3.24v2.63h.07a6,6,0,0,1,5.61-3.06c3.32,0,6.2,2,6.2,6.51v11h-3.24V480c0-3.2-1.84-4.39-3.89-4.39-2.7,0-4.75,1.73-4.75,5.69v8.78H574Z"/><path class="cls-7" d="M604,473.06h3.24v2.45h.07a7.28,7.28,0,0,1,5.94-2.88c5.29,0,8.68,3.92,8.68,9s-3.42,9-8.68,9a7.12,7.12,0,0,1-5.94-2.88h-.07v12.6H604Zm3.24,8.53c0,3.46,2.16,5.94,5.62,5.94s5.61-2.48,5.61-5.94-2.16-5.94-5.61-5.94S607.26,478.13,607.26,481.59Z"/><path class="cls-7" d="M628.46,482.78c0,3,2.78,5,5.76,5a5.88,5.88,0,0,0,4.68-2.56l2.45,1.87a8.93,8.93,0,0,1-7.56,3.49c-5.4,0-8.78-3.88-8.78-9a8.65,8.65,0,0,1,8.82-9c6,0,8.31,4.6,8.31,9v1.15Zm10.23-2.59c-.08-2.85-1.66-5-4.94-5a5.27,5.27,0,0,0-5.29,5Z"/><path class="cls-7" d="M646,473.06h3.24v2.63h.07a5.77,5.77,0,0,1,5.12-3.06,4.82,4.82,0,0,1,1.44.21l-.15,3.49a6.48,6.48,0,0,0-1.58-.25c-3.17,0-4.9,1.73-4.9,5.47v8.57H646Z"/><path class="cls-7" d="M669.36,473.06h3.24v2.45h.07a7.28,7.28,0,0,1,5.94-2.88c5.29,0,8.68,3.92,8.68,9s-3.42,9-8.68,9a7.12,7.12,0,0,1-5.94-2.88h-.07v12.6h-3.24Zm3.24,8.53c0,3.46,2.16,5.94,5.61,5.94s5.62-2.48,5.62-5.94-2.16-5.94-5.62-5.94S672.6,478.13,672.6,481.59Z"/><path class="cls-7" d="M691.43,475.15a10,10,0,0,1,6.77-2.52c5,0,7.12,2.73,7.12,5.68V487a25.75,25.75,0,0,0,.15,3.09h-2.88c-.08-.86-.11-1.73-.11-2.59h-.07a6.51,6.51,0,0,1-6,3c-3.17,0-5.9-1.8-5.9-5.11,0-4.39,4.21-5.9,9.39-5.9h2.38v-.72c0-1.77-1.3-3.6-4.07-3.6a7.09,7.09,0,0,0-4.86,1.94Zm9.14,6.76c-3.06,0-6.8.54-6.8,3.28,0,1.94,1.44,2.77,3.67,2.77,3.6,0,4.86-2.66,4.86-5v-1.08Z"/><path class="cls-7" d="M727.14,490c0,5.14-3.75,8.78-9.33,8.78a11.56,11.56,0,0,1-8.35-3.06l2.2-2.74a8,8,0,0,0,6.08,2.78c4.83,0,6.16-3,6.16-5.91v-2.52h-.11a6.69,6.69,0,0,1-5.9,3,8.48,8.48,0,0,1-8.68-8.75c0-5,3.38-9,8.68-9a7.28,7.28,0,0,1,5.94,2.88h.07v-2.45h3.24Zm-14.47-8.39c0,3.46,2.16,5.72,5.61,5.72s5.62-2.26,5.62-5.72-2.16-5.94-5.62-5.94S712.67,478.13,712.67,481.59Z"/><path class="cls-7" d="M734.48,482.78c0,3,2.77,5,5.76,5a5.88,5.88,0,0,0,4.68-2.56l2.45,1.87a8.93,8.93,0,0,1-7.56,3.49c-5.4,0-8.78-3.88-8.78-9a8.65,8.65,0,0,1,8.82-9c6,0,8.31,4.6,8.31,9v1.15Zm10.23-2.59c-.08-2.85-1.66-5-4.94-5a5.27,5.27,0,0,0-5.29,5Z"/><path class="cls-7" d="M752.23,488a2.38,2.38,0,1,1,2.38,2.38A2.4,2.4,0,0,1,752.23,488Z"/><path class="cls-7" d="M765.73,473.49h-3l2.48-8.85h3.49Zm6.37,0h-3l2.48-8.85h3.5Z"/><text class="cls-8" transform="translate(300.44 556.78)"><tspan class="cls-9">—</tspan><tspan class="cls-10" x="24.38" y="0">K</tspan><tspan x="40.24" y="0">.</tspan><tspan class="cls-11" x="46.21" y="0">B</tspan><tspan x="59.82" y="0">., 26</tspan><tspan x="14" y="22">Cur</tspan><tspan class="cls-12" x="51.6" y="22">r</tspan><tspan x="61.19" y="22">ent Student</tspan></text><path class="cls-13" d="M95,84.85V22H310c62.66,0,98.45,62.89,98.45,62.89Z"/><path class="cls-14" d="M20,84.85V22H87.63c62.66,0,98.45,62.89,98.45,62.89Z"/><path class="cls-15" d="M970,210.65v62.89H819.23c-62.67,0-98.46-62.89-98.46-62.89Z"/><path class="cls-14" d="M997.5,273.54v62.9h-44c-62.67,0-98.46-62.9-98.46-62.9Z"/><path class="cls-16" d="M95,147.75V84.85H245.77c62.67,0,98.46,62.9,98.46,62.9Z"/><path class="cls-2" d="M95,273.54V210.65h4.18c62.66,0,98.45,62.89,98.45,62.89Z"/><path class="cls-16" d="M95,1060.69V997.8H245.77c62.67,0,98.46,62.89,98.46,62.89Z"/><path class="cls-16" d="M95,829.39v-62.9H221.6c62.66,0,98.45,62.9,98.45,62.9Z"/><path class="cls-16" d="M970,829.39v62.89H418.51c-62.67,0-98.46-62.89-98.46-62.89Z"/><path class="cls-2" d="M231.62,1060.69v62.9H120.08c-62.67,0-98.46-62.9-98.46-62.9Z"/><path class="cls-14" d="M20,348.37v62.9H134.79c62.67,0,98.46-62.9,98.46-62.9Z"/><path class="cls-13" d="M1045,147.75H506.94c-62.67,0-98.46-62.9-98.46-62.9H982.1A62.9,62.9,0,0,1,1045,147.75Z"/><path class="cls-7" d="M1005.05,892.25H520.62s35.79,62.89,98.45,62.89h386Z"/><path class="cls-14" d="M1045,147.75v62.89H652.32c-62.67,0-98.46-62.89-98.46-62.89Z"/><path class="cls-1" d="M1045,147.75v62.89H970c-62.67,0-98.46-62.89-98.46-62.89Z"/><path class="cls-1" d="M970,955.11V1018H873.29c-62.67,0-98.45-62.89-98.45-62.89Z"/></g><g id="previous"><image width="1280" height="1809" transform="translate(210 921.57) scale(0.5)" xlink:href="../screenshot.jpeg"/></g><g id="Competitor"><g id="Competitor_1" data-name="Competitor 1"><line class="cls-17" x1="320.05" y1="638.85" x2="320.05" y2="876.08"/></g></g></svg>