<svg id="Layer_1" data-name="Layer 1" xmlns="http://www.w3.org/2000/svg" viewBox="0 0 1065 2000"><defs><style>.cls-1,.cls-20,.cls-21{fill:#3c3c3c;}.cls-2{fill:#c50000;}.cls-3{fill:#2d2d2d;}.cls-4{fill:#fbfbfb;}.cls-20,.cls-21,.cls-5{font-size:18px;}.cls-12,.cls-14,.cls-19,.cls-5,.cls-7,.cls-8,.cls-9{fill:#fff;}.cls-5,.cls-7{font-family:AvenirLTStd-Medium, Avenir LT Std;font-weight:500;}.cls-6{letter-spacing:-0.11em;}.cls-7,.cls-8{font-size:42px;}.cls-14,.cls-8{font-family:AvenirLTStd-Black, Avenir LT Std;font-weight:800;}.cls-12,.cls-9{font-size:20px;}.cls-9{font-family:Baskerville;}.cls-10{letter-spacing:-0.01em;}.cls-11{letter-spacing:-0.02em;}.cls-12,.cls-20,.cls-21{font-family:Baskerville-SemiBoldItalic, Baskerville;font-weight:600;font-style:italic;}.cls-13{letter-spacing:0em;}.cls-14{font-size:16px;}.cls-15{letter-spacing:-0.06em;}.cls-16{letter-spacing:-0.09em;}.cls-17{letter-spacing:-0.09em;}.cls-18{letter-spacing:0em;}.cls-21{letter-spacing:0.02em;}.cls-22{letter-spacing:0.11em;}.cls-23{letter-spacing:0.15em;}.cls-24{fill:#83332a;}.cls-25{fill:#e9dfdf;}.cls-26,.cls-27,.cls-28{fill:none;}.cls-27,.cls-28{stroke:#acacac;stroke-linecap:round;stroke-linejoin:round;stroke-width:3px;}.cls-28{stroke-dasharray:0.25 9.87;}</style></defs><title>CCSF_Panel</title><path class="cls-1" d="M601.19,1762.87V1531.06c0-111.77,90.61-202.38,202.39-202.38H970.92V-25.44h-875V2012.38h875v-47.13H803.58C691.8,1965.25,601.19,1874.64,601.19,1762.87Z"/><g id="Previous_bg" data-name="Previous bg"><rect class="cls-2" x="95.07" y="1406.45" width="582.14" height="62.89"/><rect class="cls-3" x="95.92" y="1577.1" width="581.07" height="62.89"/><rect class="cls-4" x="95" y="1747.74" width="580.1" height="63.34"/><text class="cls-5" transform="translate(908.51 112.03) rotate(90)"><tspan class="cls-6">T</tspan><tspan x="8.33" y="0">ypography</tspan></text><text class="cls-7" transform="translate(185.02 186.99)">Lower your<tspan x="0" y="46">bolds and </tspan><tspan x="0" y="92">caps please.</tspan></text><text class="cls-8" transform="translate(525.94 186.99)">UP YOUR<tspan x="0" y="46">BOLDS AND </tspan><tspan x="0" y="92">CAPS PLEASE.</tspan></text><text class="cls-9" transform="translate(185.02 467.15)">Lo<tspan class="cls-10" x="22.08" y="0">r</tspan><tspan x="29.18" y="0">em ipsum dolor sit amet, </tspan><tspan x="0" y="26">consectetuer adipiscing elit, sed </tspan><tspan x="0" y="52">diam no</tspan><tspan class="cls-10" x="66.46" y="52">n</tspan><tspan x="76.89" y="52">um</tspan><tspan class="cls-11" x="103.36" y="52">m</tspan><tspan x="119.02" y="52">y nibh euismod </tspan><tspan x="0" y="78">tincidunt ut lao</tspan><tspan class="cls-10" x="122.71" y="78">r</tspan><tspan x="129.81" y="78">eet dolo</tspan><tspan class="cls-10" x="193.36" y="78">r</tspan><tspan x="200.46" y="78">e magna </tspan></text><text class="cls-12" transform="translate(526.85 467.2)">Lo<tspan class="cls-13" x="22.5" y="0">r</tspan><tspan x="31.22" y="0">em ipsum dolor sit amet, </tspan><tspan x="0" y="26">consectetuer adipiscing elit, sed </tspan><tspan x="0" y="52">diam nonummy nibh euismod </tspan><tspan x="0" y="78">tincidunt ut lao</tspan><tspan class="cls-13" x="137.26" y="78">r</tspan><tspan x="145.98" y="78">eet dolo</tspan><tspan class="cls-13" x="215.36" y="78">r</tspan><tspan x="224.08" y="78">e </tspan></text><text class="cls-14" transform="translate(184.35 121.24)">HEADLINE - <tspan class="cls-15" x="96.88" y="0">A</tspan><tspan x="107.74" y="0">VENIR </tspan><tspan class="cls-16" x="161.97" y="0">L</tspan><tspan x="169.08" y="0">T STD, 65 &amp; 95</tspan></text><text class="cls-14" transform="translate(184.35 413.4)">BODY - BASKERVILLE, REGULAR &amp; SEMIBOLD I<tspan class="cls-17" x="366.71" y="0">T</tspan><tspan class="cls-18" x="374.43" y="0">ALIC </tspan></text><path class="cls-2" d="M677.21,1406.45v62.9H503.58c-62.67,0-98.46-62.9-98.46-62.9Z"/><path class="cls-3" d="M676.47,1577.1V1640H403.21c-62.67,0-98.45-62.89-98.45-62.89Z"/><path class="cls-19" d="M675.1,1747.74v62.9H310.7c-62.67,0-98.46-62.9-98.46-62.9Z"/><text class="cls-20" transform="translate(844.39 1445.07)">#cc0000</text><text class="cls-20" transform="translate(844.39 1514.3)">#8a332a</text><text class="cls-20" transform="translate(844.39 1612.74)">#2d2d2d</text><text class="cls-20" transform="translate(844.39 1681.97)">#3c3c3c</text><text class="cls-21" transform="translate(844.39 1779.19)">#<tspan class="cls-22" x="12.4" y="0">fffff</tspan><tspan class="cls-23" x="49.81" y="0">f</tspan></text><text class="cls-20" transform="translate(844.39 1848.42)">#f0e6e6</text><text class="cls-5" transform="translate(908.51 844.06) rotate(90)">Branding</text><polygon class="cls-24" points="95.07 1052.58 20.07 1052.58 95.07 1097.29 95.07 1052.58"/><path class="cls-1" d="M970.92,2481.61H908.81c-343.85,0-463-326.43-812.89-362.09v-92h875v454.05Z"/><g id="Logo"><path class="cls-19" d="M255.75,1239.15A73.84,73.84,0,1,1,329.58,1313a73.85,73.85,0,0,1-73.83-73.83m2.53,0a71.32,71.32,0,1,0,20.89-50.42,71.07,71.07,0,0,0-20.89,50.42"/><path class="cls-19" d="M276,1239.27A53.71,53.71,0,1,1,329.69,1293,53.71,53.71,0,0,1,276,1239.27m2,0a51.67,51.67,0,1,0,15.14-36.55A51.54,51.54,0,0,0,278,1239.27"/><path class="cls-19" d="M276.19,1262.81a6.14,6.14,0,0,1-7.89,3,5.74,5.74,0,0,1-3-3.28,5.62,5.62,0,0,1,3.27-7.49,5.83,5.83,0,0,1,4.53,0,6.11,6.11,0,0,1,3.06,7.75m-7.4,1.13a10.37,10.37,0,0,0,3-.76,8.05,8.05,0,0,0,3.4-2.14,2.38,2.38,0,0,0,.48-2.46c-.45-1.15-1.44-1.68-3-1.58a10.46,10.46,0,0,0-3,.76,11,11,0,0,0-2.75,1.45c-1.19,1-1.57,2-1.13,3.15s1.43,1.68,3,1.58"/><path class="cls-19" d="M268.85,1269a2.46,2.46,0,0,0,.67.77,1,1,0,0,0,1.06-.08l6.87-4a1,1,0,0,0,.6-.87,2.57,2.57,0,0,0-.33-1l.36-.21,4.65,8-2.87,1.66-.19-.35a3.67,3.67,0,0,0,1.34-2,4.22,4.22,0,0,0-.8-2.61c-.24-.42-.44-.65-.6-.71a.76.76,0,0,0-.63.13l-3.28,1.9c.43.77.89,1.2,1.38,1.28a4.26,4.26,0,0,0,2-.33l.21.37-4.8,2.76-.21-.36a3.66,3.66,0,0,0,1.34-1.55,2.23,2.23,0,0,0-.39-1.89l-3.3,1.91c-.44.25-.64.54-.61.87a3.32,3.32,0,0,0,.51,1.27l-.36.21-2.94-5.11Z"/><path class="cls-19" d="M279.91,1279.89l.32.35a5,5,0,0,0-1.14,2.73,2.76,2.76,0,0,0,.72,2,1.79,1.79,0,0,0,2.67.31,1.62,1.62,0,0,0,.57-1.16,5.84,5.84,0,0,0-.27-1.49l-.31-1.13a7,7,0,0,1-.32-2.67,2.93,2.93,0,0,1,1-1.75,3.53,3.53,0,0,1,2.23-.87,3.17,3.17,0,0,1,2.51,1.24,5.5,5.5,0,0,1,.95,1.45,5.93,5.93,0,0,0,.43.89.41.41,0,0,0,.36.17,1.34,1.34,0,0,0,.42-.15l.32.36-2.65,2.39-.3-.34a5,5,0,0,0,.83-2.27,2.54,2.54,0,0,0-.65-2.06,1.83,1.83,0,0,0-1.2-.66,1.47,1.47,0,0,0-1.13.39,1.43,1.43,0,0,0-.57,1.11,10.76,10.76,0,0,0,.46,2.22l.35,1.3a4.83,4.83,0,0,1,.19,1.57,3.14,3.14,0,0,1-1.08,2.18,3.49,3.49,0,0,1-2.38.84,3.88,3.88,0,0,1-2.88-1.56,5.29,5.29,0,0,1-.6-.79,6.67,6.67,0,0,1-.45-.93l-.12-.31c0-.07-.07-.13-.1-.19a1,1,0,0,0-.1-.15.4.4,0,0,0-.35-.15,1.61,1.61,0,0,0-.41.15l-.32-.35Z"/><path class="cls-19" d="M283,1288.75a1.22,1.22,0,0,0,1.08.17,8,8,0,0,0,1.37-.68l8.39-4.82.36.28-2.42,9a11.5,11.5,0,0,0-.42,2,1,1,0,0,0,.43.85l-.26.33-4.17-3.27.25-.32a3.86,3.86,0,0,0,.91.54c.18,0,.35,0,.52-.26a2.08,2.08,0,0,0,.26-.54c.06-.16.11-.35.18-.58l.28-1-2.9-2.26-1.15.71a4,4,0,0,0-.74.6q-.21.27.06.69a3,3,0,0,0,.6.59l-.25.33-2.64-2.06Zm7,1.08,1.1-4-.11-.09-3.51,2.08Z"/><path class="cls-19" d="M292.53,1296.2a1.56,1.56,0,0,0,1.2.24,1.42,1.42,0,0,0,.69-.72l3.64-6.85a13.49,13.49,0,0,0-.36-1.31.91.91,0,0,0-.33-.39l.19-.37,3.07,1.63,1.76,8.69.07,0,2.26-4.25a1.8,1.8,0,0,0,.28-1.19c-.06-.31-.34-.62-.86-1l.19-.36,3.11,1.65-.19.37a2.41,2.41,0,0,0-1.07-.19c-.22,0-.45.29-.68.73L301,1301.5l-.41-.21-2.25-11.13-.1-.05-3,5.67a2.18,2.18,0,0,0-.32,1c0,.4.35.77.94,1.11l-.2.37-3.28-1.74Z"/><path class="cls-19" d="M310.13,1304.32a2.51,2.51,0,0,0,1,0,1,1,0,0,0,.64-.85l1.65-7.76a1,1,0,0,0-.23-1,2.94,2.94,0,0,0-.95-.4l.08-.41,9.1,1.93-.7,3.24-.39-.09a3.65,3.65,0,0,0-.55-2.3,4.26,4.26,0,0,0-2.48-1.16,1.59,1.59,0,0,0-.92,0,.78.78,0,0,0-.32.56l-.79,3.71a2.18,2.18,0,0,0,1.87-.17,4.27,4.27,0,0,0,1.08-1.68l.41.09-1.15,5.41-.41-.08a3.92,3.92,0,0,0-.25-2,2.34,2.34,0,0,0-1.67-1l-.8,3.73c-.09.5,0,.84.24,1a3.09,3.09,0,0,0,1.29.47l-.09.41-5.77-1.22Z"/><path class="cls-19" d="M322.2,1306.58a1.86,1.86,0,0,0,1.15-.29,1.66,1.66,0,0,0,.32-1.18l.13-7.25a1.64,1.64,0,0,0-.34-1.24,2.35,2.35,0,0,0-1.08-.28v-.41l5.27.09a8.53,8.53,0,0,1,2.65.39,2.54,2.54,0,0,1,1.93,2.54,2.48,2.48,0,0,1-1.07,2.08,4,4,0,0,1-1.68.71l3.4,4.73a.79.79,0,0,0,.28.25,1.2,1.2,0,0,0,.38.08v.4l-3.42-.07-3.73-5.18h0l-.05,3.21a1.8,1.8,0,0,0,.26,1.17,1.77,1.77,0,0,0,1.15.35v.42l-5.54-.1Zm6.5-5.57c.46-.28.71-.93.73-2a3.78,3.78,0,0,0-.24-1.52,1.66,1.66,0,0,0-1.64-1,1.47,1.47,0,0,0-.87.15.66.66,0,0,0-.22.53l-.06,4.17a4.68,4.68,0,0,0,2.3-.41"/><path class="cls-19" d="M334.67,1306.73a1.26,1.26,0,0,0,.86-.68,8.12,8.12,0,0,0,.44-1.46l2.19-9.43.45-.07,5,7.93a11.9,11.9,0,0,0,1.2,1.7,1,1,0,0,0,.92.26l.06.41-5.24.83-.06-.41a3.62,3.62,0,0,0,1-.29c.16-.1.21-.29.17-.57a2.12,2.12,0,0,0-.22-.56c-.07-.14-.18-.31-.3-.51l-.57-.92-3.63.58c-.13.68-.22,1.12-.26,1.33a3.51,3.51,0,0,0-.07.94c0,.23.22.37.55.43a2.9,2.9,0,0,0,.85,0l.06.41-3.31.53Zm5.54-4.37-2.15-3.5-.14,0-.86,4Z"/><path class="cls-19" d="M346.91,1304.66c.57-.21.9-.45,1-.71a1.51,1.51,0,0,0-.06-1l-2.53-7.34c-.65-.36-1.06-.57-1.2-.63a1,1,0,0,0-.52,0l-.13-.39,3.28-1.13,7.56,4.63.07,0-1.56-4.55a1.88,1.88,0,0,0-.68-1,1.8,1.8,0,0,0-1.28,0l-.13-.39,3.32-1.15.14.4a2.43,2.43,0,0,0-.87.65,1.33,1.33,0,0,0,.07,1l3.15,9.13-.43.15-9.67-5.94-.11,0,2.09,6.07a2.12,2.12,0,0,0,.55,1,1.62,1.62,0,0,0,1.45.08l.13.39-3.5,1.21Z"/><path class="cls-19" d="M361,1287a9,9,0,0,0,1.2-.25.58.58,0,0,0,.31-.46,1.11,1.11,0,0,0,0-.55l.39-.23,1.92,3.32-.36.2a9,9,0,0,0-2-1.1,3.38,3.38,0,0,0-2.92.16,2.37,2.37,0,0,0-1.31,2.39,10.85,10.85,0,0,0,3.1,6,2.83,2.83,0,0,0,3.51.43,4.21,4.21,0,0,0,1.68-1.79,8.82,8.82,0,0,0,.63-1.86l.61.1a9.05,9.05,0,0,1-.68,2.19,5.1,5.1,0,0,1-2.06,2.18,6,6,0,0,1-4.25.79,5.42,5.42,0,0,1-3.71-2.81,5.72,5.72,0,0,1-.66-4.62,5.6,5.6,0,0,1,2.68-3.34,6.12,6.12,0,0,1,2-.71"/><path class="cls-19" d="M370.85,1292.66a2.42,2.42,0,0,0,.66-.77,1,1,0,0,0-.25-1.07l-5.1-6.08a1,1,0,0,0-1-.44,2.76,2.76,0,0,0-.9.52l-.27-.32,4.39-3.68.27.32a2.89,2.89,0,0,0-.7.81,1,1,0,0,0,.26,1.06l5.1,6.08a1,1,0,0,0,.89.46,2.34,2.34,0,0,0,1-.57l.27.32-4.39,3.68Z"/><path class="cls-19" d="M374.78,1284.74l.31-.36a5.11,5.11,0,0,0,2.85.8,2.81,2.81,0,0,0,1.93-1,1.85,1.85,0,0,0,.59-1.55,1.92,1.92,0,0,0-.6-1.14,1.6,1.6,0,0,0-1.22-.43,5.86,5.86,0,0,0-1.45.46l-1.08.44a7.06,7.06,0,0,1-2.61.64,2.87,2.87,0,0,1-1.86-.77,3.45,3.45,0,0,1-1.13-2.1,3.14,3.14,0,0,1,.91-2.65,5.65,5.65,0,0,1,1.33-1.11,5.58,5.58,0,0,0,.83-.54.38.38,0,0,0,.12-.38,1.3,1.3,0,0,0-.19-.4l.31-.36,2.7,2.33-.3.35a5.09,5.09,0,0,0-2.35-.55,2.57,2.57,0,0,0-2,.9,1.77,1.77,0,0,0-.5,1.27,1.47,1.47,0,0,0,.52,1.08,1.46,1.46,0,0,0,1.16.42,10.27,10.27,0,0,0,2.15-.71l1.26-.52a4.76,4.76,0,0,1,1.52-.38,3.1,3.1,0,0,1,2.3.81,3.51,3.51,0,0,1,1.13,2.26,3.92,3.92,0,0,1-1.2,3.05,5.2,5.2,0,0,1-.72.68,5.43,5.43,0,0,1-.85.56l-.31.16a1.09,1.09,0,0,0-.17.13.77.77,0,0,0-.13.12.37.37,0,0,0-.12.35,2,2,0,0,0,.21.4l-.31.36Z"/><path class="cls-19" d="M379.1,1267a10.54,10.54,0,0,0,.91-.83.63.63,0,0,0,.05-.55,1.21,1.21,0,0,0-.33-.46l.24-.39,3.31,1.91-.2.36a9.43,9.43,0,0,0-2.31.06,3.45,3.45,0,0,0-2.46,1.6,2.39,2.39,0,0,0,.07,2.73,10.55,10.55,0,0,0,5.67,3.6,2.83,2.83,0,0,0,3.25-1.38,4.27,4.27,0,0,0,.57-2.38,10.05,10.05,0,0,0-.4-1.93l.59-.22a9.06,9.06,0,0,1,.5,2.24,5.13,5.13,0,0,1-.7,2.92,5.93,5.93,0,0,1-3.27,2.8,5.42,5.42,0,0,1-4.63-.57,5.76,5.76,0,0,1-2.88-3.67,5.64,5.64,0,0,1,.65-4.24,5.9,5.9,0,0,1,1.37-1.6"/><path class="cls-19" d="M385.39,1255.34a5.59,5.59,0,0,1,4.54-.15,5.82,5.82,0,1,1-3.89,11,5.8,5.8,0,0,1-3.42-3,5.56,5.56,0,0,1-.14-4.53,5.62,5.62,0,0,1,2.91-3.32m6.33,4a10.67,10.67,0,0,0-2.78-1.4,7.83,7.83,0,0,0-4-.61,2.39,2.39,0,0,0-2,1.53c-.42,1.17,0,2.22,1.22,3.15a10.51,10.51,0,0,0,2.74,1.39,10.94,10.94,0,0,0,3,.71c1.53.07,2.5-.47,2.93-1.64a2.63,2.63,0,0,0-1.19-3.13"/><path class="cls-19" d="M274.73,1199.26a8.2,8.2,0,0,0,.95-.79.63.63,0,0,0,.07-.55,1.33,1.33,0,0,0-.31-.47l.24-.39,3.25,2-.22.35a9,9,0,0,0-2.31,0,3.36,3.36,0,0,0-2.5,1.5,2.39,2.39,0,0,0,0,2.74,8.9,8.9,0,0,0,2.86,2.61,8.77,8.77,0,0,0,2.68,1.19,2.82,2.82,0,0,0,3.3-1.27,4.23,4.23,0,0,0,.65-2.37,8.61,8.61,0,0,0-.33-1.93l.6-.2A9.33,9.33,0,0,1,284,1204a5,5,0,0,1-.8,2.9,6,6,0,0,1-3.38,2.68,5.44,5.44,0,0,1-4.6-.73,5.78,5.78,0,0,1-2.75-3.77,5.56,5.56,0,0,1,.81-4.21,6.28,6.28,0,0,1,1.41-1.56"/><path class="cls-19" d="M285.94,1202a2.22,2.22,0,0,0,.56-.84,1,1,0,0,0-.38-1l-5.81-5.41a1,1,0,0,0-1-.32,2.88,2.88,0,0,0-.84.63l-.3-.28,3.9-4.19.3.28a3.17,3.17,0,0,0-.58.89,1,1,0,0,0,.38,1l5.81,5.41a1,1,0,0,0,.93.35,2.28,2.28,0,0,0,1-.68l.3.28-3.91,4.19Z"/><path class="cls-19" d="M283.72,1189l7.78-6.07,2.05,2.59-.37.29a3,3,0,0,0-2.53-1.07,4,4,0,0,0-1.67.83l5.31,6.81a1.68,1.68,0,0,0,1,.75,2.06,2.06,0,0,0,1.22-.58l.26.33-4.61,3.6-.25-.33c.5-.4.78-.74.82-1a1.63,1.63,0,0,0-.49-1.14l-5.31-6.81a4.28,4.28,0,0,0-1.22,1.43,2.8,2.8,0,0,0,.43,2.71l-.37.29Z"/><path class="cls-19" d="M297.59,1179.59l.19.37a5.72,5.72,0,0,0-.91.61.32.32,0,0,0-.06.41l.15.2.4.33,3.71,2.52h0l.25-3.36a5.71,5.71,0,0,0,0-.74,2.45,2.45,0,0,0-.14-.9.57.57,0,0,0-.57-.36,4.86,4.86,0,0,0-1,.33l-.19-.37,3.21-1.63.19.37a2.68,2.68,0,0,0-.48.43,1.28,1.28,0,0,0-.24.64l-.47,6,1.37,2.69c.28.56.56.87.83.93a2.05,2.05,0,0,0,1.2-.28l.18.37-5,2.58-.2-.37a1.87,1.87,0,0,0,.94-.83,1.63,1.63,0,0,0-.27-1.19l-1.09-2.15-5.13-3.49a1.76,1.76,0,0,0-1-.34,1.42,1.42,0,0,0-.59.14l-.19-.37Z"/><path class="cls-19" d="M318.6,1172.69a7.61,7.61,0,0,0,1.23.12.62.62,0,0,0,.44-.33,1.22,1.22,0,0,0,.12-.55l.44-.09.81,3.75-.42.09a8.68,8.68,0,0,0-1.58-1.68,3.4,3.4,0,0,0-2.83-.76,2.41,2.41,0,0,0-2,1.88,8.88,8.88,0,0,0,.12,3.87,8.73,8.73,0,0,0,1,2.75,2.82,2.82,0,0,0,3.2,1.49,4.12,4.12,0,0,0,2.15-1.17,8.83,8.83,0,0,0,1.17-1.58l.56.29a8.82,8.82,0,0,1-1.33,1.86,5.1,5.1,0,0,1-2.64,1.44,6,6,0,0,1-4.28-.56,5.42,5.42,0,0,1-2.66-3.82,5.7,5.7,0,0,1,.8-4.6,5.61,5.61,0,0,1,3.59-2.35,5.88,5.88,0,0,1,2.1,0"/><path class="cls-19" d="M333.59,1172.91a5.9,5.9,0,1,1-8.25,8.44,5.58,5.58,0,0,1-1.62-3.95,5.76,5.76,0,0,1,1.55-4.26,5.59,5.59,0,0,1,4.17-1.76,5.7,5.7,0,0,1,4.15,1.53m-1.46,7.34a11.09,11.09,0,0,0,.32-3.09,8,8,0,0,0-.86-3.93,2.38,2.38,0,0,0-2.15-1.3c-1.23,0-2.07.78-2.5,2.26a10.7,10.7,0,0,0-.31,3.07,10.53,10.53,0,0,0,.42,3.08,2.62,2.62,0,0,0,2.59,2.14c1.22,0,2.05-.77,2.49-2.23"/><path class="cls-19" d="M335.8,1182.42a2.4,2.4,0,0,0,1,0,1,1,0,0,0,.67-.86l1.51-7.79a1,1,0,0,0-.27-1,2.5,2.5,0,0,0-.93-.37l.08-.41,5.62,1.09-.08.41a2.6,2.6,0,0,0-1.35,0c-.25.12-.44.5-.56,1.13l-1.48,7.61a.8.8,0,0,0,.14.76,2.27,2.27,0,0,0,1.06.38,4.53,4.53,0,0,0,2.56-.16,5.14,5.14,0,0,0,2.18-2.17l.47.09-1.36,3.52-9.31-1.81Z"/><path class="cls-19" d="M346.61,1184.64a2.27,2.27,0,0,0,1,.19,1,1,0,0,0,.81-.72l3-7.36a1,1,0,0,0-.07-1.06,2.73,2.73,0,0,0-.85-.55l.16-.38,5.31,2.14-.15.39a2.58,2.58,0,0,0-1.34-.24c-.26.07-.52.4-.77,1l-2.9,7.18a.81.81,0,0,0,0,.78,2.36,2.36,0,0,0,1,.58,4.39,4.39,0,0,0,2.55.32,5.13,5.13,0,0,0,2.55-1.7l.45.18-2,3.19-8.79-3.56Z"/><path class="cls-19" d="M356.49,1189.22l.23-.35a2.25,2.25,0,0,0,.94.38,1,1,0,0,0,.9-.55l4.33-6.66A1,1,0,0,0,363,1181a2.5,2.5,0,0,0-.72-.7l.23-.35,7.92,5.15-1.8,2.76-.34-.21a3.6,3.6,0,0,0,.3-2.4,4.69,4.69,0,0,0-2-2,1.91,1.91,0,0,0-.89-.39c-.17,0-.34.15-.51.41l-2.06,3.18a2.54,2.54,0,0,0,1.86.61,4,4,0,0,0,1.69-1.2l.34.23-3,4.64-.35-.22a3.56,3.56,0,0,0,.47-2,2.63,2.63,0,0,0-1.31-1.54l-2.17,3.33a.8.8,0,0,0-.15.74,2.12,2.12,0,0,0,.81.76,4.87,4.87,0,0,0,2.48.89,5.12,5.12,0,0,0,2.72-1l.38.25-2.41,2.5Z"/><path class="cls-19" d="M373.69,1189.57a5.52,5.52,0,0,1,4.1,1.88,5.37,5.37,0,0,1,1.1,1.74,5.79,5.79,0,0,0,.58,1.18.54.54,0,0,0,.42.18,1.48,1.48,0,0,0,.59-.19l.31.34-2.8,2.61-.28-.31a8.31,8.31,0,0,0,.61-2.22,3.36,3.36,0,0,0-.81-2.82,2.42,2.42,0,0,0-2.57-.75,8.46,8.46,0,0,0-3.34,2.11,9.61,9.61,0,0,0-2.21,3,2.58,2.58,0,0,0,.61,3c.48.51.9.76,1.28.73a1.15,1.15,0,0,0,.7-.36l1.26-1.18a1,1,0,0,0,.4-1,3.22,3.22,0,0,0-.7-1l.31-.29,3.83,4.11-.31.28a1.55,1.55,0,0,0-1-.59,1.81,1.81,0,0,0-1,.59L373.2,1202a7,7,0,0,1-1.69-.83,9.82,9.82,0,0,1-2.1-1.76,5.54,5.54,0,0,1,.19-8.22,5.77,5.77,0,0,1,4.09-1.66"/><path class="cls-19" d="M374.44,1204l.35-.22a2.39,2.39,0,0,0,.69.74,1,1,0,0,0,1.06-.12l6.73-4.2a1,1,0,0,0,.56-.91,2.39,2.39,0,0,0-.35-.94l.35-.22,5,8-2.8,1.75-.21-.34a3.53,3.53,0,0,0,1.27-2,4.59,4.59,0,0,0-.95-2.62,1.7,1.7,0,0,0-.63-.73.75.75,0,0,0-.64.16l-3.21,2c.48.8,1,1.24,1.43,1.34a3.93,3.93,0,0,0,2-.38l.23.36-4.7,2.93-.23-.35a3.58,3.58,0,0,0,1.3-1.65,2.65,2.65,0,0,0-.54-2l-3.37,2.1c-.3.18-.45.39-.45.6a2,2,0,0,0,.41,1,5,5,0,0,0,1.88,1.85,5.09,5.09,0,0,0,2.87.28l.23.39-3.24,1.24Z"/><polygon class="cls-19" points="288.96 1215.5 289.75 1215.89 289.19 1216.98 293.09 1218.98 292.59 1219.96 288.69 1217.97 288.13 1219.06 287.36 1218.66 288.96 1215.5"/><polygon class="cls-19" points="292.64 1213.58 290.87 1212.44 291.47 1211.52 295.88 1214.37 295.29 1215.29 293.32 1214.02 292.63 1215.08 294.6 1216.35 294 1217.28 289.59 1214.42 290.18 1213.5 291.95 1214.64 292.64 1213.58"/><polygon class="cls-19" points="296.55 1213.47 292.45 1210.19 294.24 1207.95 294.87 1208.46 293.76 1209.84 294.78 1210.65 295.8 1209.37 296.43 1209.88 295.41 1211.15 296.61 1212.11 297.75 1210.68 298.38 1211.19 296.55 1213.47"/><polygon class="cls-19" points="298.83 1203.26 299.44 1203.89 298.55 1204.73 301.58 1207.91 300.78 1208.67 297.75 1205.49 296.87 1206.34 296.27 1205.71 298.83 1203.26"/><path class="cls-19" d="M303.83,1206l-.86.68-3.25-4.14,1.6-1.25a1.2,1.2,0,0,1,1.82.32,1.14,1.14,0,0,1,0,1.62h0a.93.93,0,0,1,1.38.23,7.38,7.38,0,0,0,1.06,1.14l-.85.66a2.28,2.28,0,0,1-.72-.73c-.39-.49-.67-1-1.33-.43l-.23.18Zm-1.84-2.35.38-.3c.35-.27.17-.69,0-1s-.59-.42-.87-.2l-.38.3Z"/><path class="cls-19" d="M306.55,1197.72l2,3.16a1.57,1.57,0,0,1-.66,2.32,1.55,1.55,0,0,1-2.38-.42l-2-3.16.93-.58,1.94,3.09c.35.55.72.62,1.06.41s.42-.64.11-1.14l-1.94-3.1Z"/><polygon class="cls-19" points="310.77 1195.57 311.16 1196.36 310.06 1196.9 312 1200.83 311.02 1201.32 309.08 1197.38 307.98 1197.93 307.59 1197.14 310.77 1195.57"/><polygon class="cls-19" points="314.85 1196.23 314.11 1194.26 315.15 1193.87 317 1198.79 315.96 1199.18 315.14 1196.98 313.96 1197.42 314.78 1199.62 313.75 1200.01 311.91 1195.09 312.94 1194.7 313.68 1196.67 314.85 1196.23"/><path class="cls-19" d="M321.21,1197.77c-1.34.29-1.75-.44-1.89-1.35l1.08-.23c.1.5.22.9.81.78a.53.53,0,0,0,.41-.7c-.2-.93-2.37-.52-2.7-2-.17-.81.07-1.53,1.38-1.81,1.05-.23,1.67.13,1.83,1.22l-1.05.23c-.08-.39-.23-.76-.66-.67a.51.51,0,0,0-.44.67c.21,1,2.35.42,2.7,2,.28,1.33-.66,1.7-1.47,1.87"/><polygon class="cls-19" points="325.97 1193.76 325.75 1191.67 326.84 1191.55 327.39 1196.78 326.3 1196.9 326.06 1194.57 324.8 1194.7 325.05 1197.03 323.95 1197.14 323.4 1191.92 324.49 1191.8 324.72 1193.89 325.97 1193.76"/><path class="cls-19" d="M328.12,1196.72l1.49-5.25h1.45l1.4,5.27H331.3l-.28-1.17h-1.5l-.31,1.16Zm2.15-4.23h0l-.51,2.27h1.05Z"/><polygon class="cls-19" points="333.14 1196.83 333.67 1191.6 334.77 1191.71 334.33 1196.07 335.96 1196.24 335.87 1197.11 333.14 1196.83"/><polygon class="cls-19" points="336.53 1197.22 337.49 1192.05 338.57 1192.25 337.77 1196.56 339.39 1196.87 339.22 1197.73 336.53 1197.22"/><polygon class="cls-19" points="341.58 1198.28 343.33 1193.32 345.01 1193.91 344.58 1197.56 344.6 1197.56 346.62 1194.49 348.23 1195.06 346.47 1200.02 345.46 1199.66 346.82 1195.84 346.81 1195.83 344.49 1199.31 343.5 1198.96 343.96 1194.82 343.95 1194.82 342.59 1198.64 341.58 1198.28"/><path class="cls-19" d="M347.07,1200.31l3.68-4,1.29.65-1.11,5.34-1-.53.26-1.16-1.33-.69-.8.91Zm3.81-2.83h0l-1.48,1.8.93.48Z"/><polygon class="cls-19" points="356.33 1199.5 357.34 1200.16 354.83 1201.34 354.49 1204.57 353.45 1203.9 353.86 1200.95 353.85 1200.94 352.38 1203.2 351.46 1202.6 354.32 1198.19 355.24 1198.79 354.01 1200.68 354.03 1200.68 356.33 1199.5"/><polygon class="cls-19" points="355.02 1204.99 358.3 1200.88 360.54 1202.66 360.04 1203.3 358.66 1202.2 357.85 1203.21 359.12 1204.22 358.62 1204.86 357.34 1203.84 356.39 1205.04 357.82 1206.18 357.31 1206.81 355.02 1204.99"/><polygon class="cls-19" points="361.25 1208.06 362.81 1204.69 363.63 1205.57 362.56 1207.66 364.75 1206.74 365.53 1207.56 362.02 1208.86 360.69 1210.11 359.94 1209.31 361.25 1208.06"/><path class="cls-19" d="M364.2,1210.07c1.1-.85,2.16-1.66,3.26-.21s.05,2.24-1.06,3.09-2.16,1.65-3.26.21,0-2.26,1.06-3.09m1.52,2c1.07-.82,1.49-1.24,1.11-1.73s-.89-.2-1.95.62-1.49,1.24-1.12,1.73.89.2,2-.62"/><path class="cls-19" d="M371.24,1215.75l-3.19,1.92a1.57,1.57,0,0,1-2.31-.69,1.54,1.54,0,0,1,.46-2.37l3.19-1.93.57,1-3.13,1.88c-.55.34-.63.7-.42,1s.63.43,1.13.13l3.13-1.88Z"/><polygon class="cls-19" points="367.99 1220.99 372.82 1218.91 373.9 1221.42 373.15 1221.75 372.51 1220.25 371.27 1220.78 371.88 1222.21 371.14 1222.53 370.53 1221.09 368.42 1222 367.99 1220.99"/><path class="cls-19" d="M369.64,1225.17l-.34-1,5-1.63.63,1.93a1.21,1.21,0,0,1-.93,1.6,1.14,1.14,0,0,1-1.53-.53h0a.94.94,0,0,1-.69,1.23,7.33,7.33,0,0,0-1.43.59l-.34-1a2.59,2.59,0,0,1,.94-.43c.59-.19,1.12-.3.86-1.1l-.09-.27Zm2.84-.92.15.46c.14.42.59.4.91.3.48-.16.59-.42.48-.75l-.15-.46Z"/><polygon class="cls-19" points="370.55 1228.18 375.69 1227.04 376.31 1229.84 375.51 1230.02 375.13 1228.29 373.87 1228.57 374.22 1230.16 373.43 1230.34 373.08 1228.75 371.58 1229.08 371.97 1230.86 371.19 1231.04 370.55 1228.18"/><polygon class="cls-19" points="371.33 1231.91 376.54 1231.24 376.91 1234.09 376.11 1234.19 375.88 1232.44 374.6 1232.6 374.81 1234.22 374 1234.32 373.8 1232.7 372.27 1232.9 372.5 1234.71 371.7 1234.82 371.33 1231.91"/><path class="cls-19" d="M348.88,1221.58v-4.11h3.66v0H353v4.11Zm.91-.91h2.29v-2.29h-2.29Z"/><path class="cls-19" d="M343.42,1221.58v-4.11h3.65v0h.45v4.11Zm.9-.91h2.3v-2.29h-2.3Z"/><path class="cls-19" d="M332.52,1221.58v-4.11h3.66v0h.45v4.11Zm.9-.91h2.3v-2.29h-2.3Z"/><path class="cls-19" d="M338,1221.58v-4.11h3.66v0h.45v4.11Zm.91-.91h2.29v-2.29h-2.29Z"/><path class="cls-19" d="M359.36,1211.65H307.63l-12.18,17.86H281.29v4.73h1.42a49.54,49.54,0,0,0-.28,5.19A47.48,47.48,0,0,0,330,1287h0a46.93,46.93,0,0,0,27.38-8.65l.24-.18v-61.83h1.76Zm-72.05,46,18.84-27.61h44.79v1.34H307.32L290,1256.75l.13.29A43.52,43.52,0,0,0,304,1274.39l.16.1,30.09,0v1.7H301.69a46.61,46.61,0,0,1-14.38-18.53m44.18-33.24v1.48h-1v.57h0v-.57H312.6v.57h0v-.57h-1.15v-1.48Zm-17.65-1.14a8.38,8.38,0,0,1,15.46,0Zm-.68,3.76h16.73v1.87H313.16Zm35.28,54.68h-7.51v-2.69H338v-2.84h-2.68v-2.83h-2.82v-2.85h-1.61v-32.6h1.71v-3.75h-22.3v3.75H312v32.6h-1.74v2.83h-5.8a42.18,42.18,0,0,1-13.19-16.5l16.63-24.3h40.52Zm-40.63-1.55h32v1.55H310.92c-1.06-.48-2.1-1-3.11-1.55m29.07-2.84v1.7H305.83c-.88-.54-1.74-1.1-2.58-1.7Zm-9.49-39.43h2.39v32.6h-2.39Zm-8.2,32.6h-2.5v-32.6h2.5Zm1.14-32.6h2.39v32.6h-2.39Zm3.53,0h2.39v32.6h-2.39Zm-12.41-2.61h20v1.48h-20Zm4.1,35.21h-2.39v-32.6h2.39Zm15.83,1.14v1.71l-20,0v-1.69ZM330,1285.83a46.24,46.24,0,0,1-16.28-2.95h32.66a46.4,46.4,0,0,1-16.38,2.95m26.5-8.27a46.64,46.64,0,0,1-6.89,4v-49h2.5v-3.62H331v-1.87h1.59v-3.76h-2.1a9.51,9.51,0,0,0-17.89,0h-2.31v3.76H312v1.87h-6.47l-18.77,27.49a46.34,46.34,0,0,1-3.21-17,49.38,49.38,0,0,1,.29-5.19h13.77l12.42-17.93h46.42Zm1.76-62.38H309.45L297,1233.1H282.42v-2.45h13.63l12.17-17.86h50Z"/></g><path class="cls-2" d="M387.67,875.28H122.77s25.45-44.71,70-44.71H457.67S432.22,875.28,387.67,875.28Z"/><path class="cls-2" d="M477.12,964.71h-427S75.52,920,120.07,920h427S521.67,964.71,477.12,964.71Z"/><path class="cls-3" d="M972.85,1008.65h-415s25.45,44.71,70,44.71H925.42S1017.4,1008.65,972.85,1008.65Z"/><path class="cls-2" d="M20.07,1053.36H574.13s-25.45-44.71-70-44.71H20.07Z"/><path class="cls-2" d="M389.28,785.77H215.55s25.44-44.71,70-44.71H459.28S433.83,785.77,389.28,785.77Z"/><path class="cls-19" d="M557.57,1053.36h147.5s-25.44-44.71-70-44.71H487.58S513,1053.36,557.57,1053.36Z"/><path class="cls-24" d="M425.07,1008.65h62.51s-25.44-44.72-70-44.72H355.08S380.52,1008.65,425.07,1008.65Z"/><path class="cls-24" d="M360.07,920h97s-25.45-44.72-70-44.72h-97S315.53,920,360.07,920Z"/><path class="cls-24" d="M320.07,830.49H469.24s-25.45-44.71-70-44.71H250.08S275.52,830.49,320.07,830.49Z"/><path class="cls-3" d="M585.62,830.57H498.48s25.45,44.71,70,44.71h87.13S630.16,830.57,585.62,830.57Z"/><path class="cls-3" d="M662.56,920H478.15s25.45,44.71,70,44.71H732.56S707.11,920,662.56,920Z"/><path class="cls-3" d="M820.65,1097.29H636.23s25.45,44.72,70,44.72H890.64S865.19,1097.29,820.65,1097.29Z"/><path class="cls-3" d="M799.29,1186.72H691.76s25.45,44.71,70,44.71H869.28S843.84,1186.72,799.29,1186.72Z"/><path class="cls-3" d="M502.7,741.06h-115s25.44,44.71,70,44.71h115S547.24,741.06,502.7,741.06Z"/><path class="cls-19" d="M389.29,875.28h205.5s-25.44-44.71-70-44.71H319.3S344.74,875.28,389.29,875.28Z"/><path class="cls-19" d="M401.35,785.77H534s-25.44-44.71-70-44.71H331.36S356.8,785.77,401.35,785.77Z"/><path class="cls-19" d="M863.59,1097.29h91.66s-25.44,44.72-70,44.72H793.6S819,1097.29,863.59,1097.29Z"/><path class="cls-25" d="M947.57,1008.65h49.72s-25.45,44.71-70,44.71H877.58S903,1008.65,947.57,1008.65Z"/><path class="cls-19" d="M425.07,964.71H648.86S623.41,920,578.87,920H355.08S380.52,964.71,425.07,964.71Z"/><path class="cls-19" d="M654.53,1142h85.54s-25.44-44.72-70-44.72H584.54S610,1142,654.53,1142Z"/><path class="cls-3" d="M964.49,1142H825.15c44.54,0,70,44.71,70,44.71h139.34S1009,1142,964.49,1142Z"/><path class="cls-25" d="M825.15,1142H739.6s25.45,44.71,70,44.71h85.54S869.69,1142,825.15,1142Z"/><path class="cls-26" d="M970.92,1328.68H803.58c-90.25,0-166.69,59.08-192.79,140.67h67l-75,62.89h-1.55V1640H677l-75,62.9h-.81v60a202.71,202.71,0,0,0,5.69,47.77h68.74l-52.47,44a202.37,202.37,0,0,0,180.43,110.61H984V1328.68Z"/><path class="cls-24" d="M677.74,1469.35h-67a202,202,0,0,0-9.6,61.71v1.18h1.55Z"/><polygon class="cls-1" points="677 1639.99 601.19 1639.99 601.19 1702.89 602 1702.89 677 1639.99"/><path class="cls-25" d="M606.88,1810.64a201.14,201.14,0,0,0,16.27,44l52.47-44Z"/><line class="cls-27" x1="691.76" y1="1441.31" x2="691.89" y2="1441.31"/><line class="cls-28" x1="701.76" y1="1441.31" x2="818.28" y2="1441.31"/><line class="cls-27" x1="823.22" y1="1441.31" x2="823.34" y2="1441.31"/><line class="cls-27" x1="691.76" y1="1608.54" x2="691.89" y2="1608.54"/><line class="cls-28" x1="701.76" y1="1608.54" x2="818.28" y2="1608.54"/><line class="cls-27" x1="823.22" y1="1608.54" x2="823.34" y2="1608.54"/><line class="cls-27" x1="691.76" y1="1775.78" x2="691.89" y2="1775.78"/><line class="cls-28" x1="701.76" y1="1775.78" x2="818.28" y2="1775.78"/><line class="cls-27" x1="823.22" y1="1775.78" x2="823.34" y2="1775.78"/></g></svg>