<svg id="Layer_1" data-name="Layer 1" xmlns="http://www.w3.org/2000/svg" viewBox="0 0 1065 2000"><defs><style>.cls-1{fill:#323031;}.cls-2{fill:#83332a;}.cls-3{fill:#3c3c3c;}.cls-4{font-size:18px;font-family:AvenirLTStd-Medium, Avenir LT Std;font-weight:500;}.cls-13,.cls-14,.cls-17,.cls-18,.cls-22,.cls-26,.cls-33,.cls-4,.cls-5,.cls-6,.cls-7,.cls-8{fill:#fff;}.cls-10,.cls-11,.cls-5,.cls-6,.cls-7,.cls-8{stroke:#323031;}.cls-23,.cls-24,.cls-5,.cls-8{stroke-miterlimit:10;}.cls-10,.cls-22,.cls-24,.cls-25,.cls-5,.cls-6,.cls-7,.cls-8,.cls-9{stroke-width:2px;}.cls-10,.cls-11,.cls-19,.cls-20,.cls-21,.cls-22,.cls-25,.cls-6,.cls-7,.cls-9{stroke-linejoin:round;}.cls-19,.cls-20,.cls-21,.cls-25,.cls-7,.cls-8{stroke-linecap:round;}.cls-11,.cls-19,.cls-20,.cls-21,.cls-23,.cls-24,.cls-25,.cls-9{fill:none;}.cls-22,.cls-23,.cls-9{stroke:#3c3c3c;}.cls-10{fill:#b6352e;}.cls-11{stroke-width:10.93px;}.cls-12{fill:#313131;}.cls-14{font-size:70px;}.cls-14,.cls-17{font-family:AvenirLTStd-Black, Avenir LT Std;}.cls-14,.cls-17,.cls-33{font-weight:800;}.cls-15{letter-spacing:-0.09em;}.cls-16{letter-spacing:0em;}.cls-17,.cls-18,.cls-26{font-size:20px;}.cls-18{font-family:Baskerville-SemiBoldItalic, Baskerville;font-weight:600;font-style:italic;}.cls-19,.cls-20,.cls-21{stroke:#fff;stroke-width:3px;}.cls-20{stroke-dasharray:0.25 9.91;}.cls-21{stroke-dasharray:0.25 10;}.cls-24,.cls-25{stroke:#1c1c1d;}.cls-26{font-family:Baskerville;}.cls-27{letter-spacing:0.03em;}.cls-28{letter-spacing:-0.01em;}.cls-29{letter-spacing:0.01em;}.cls-30{letter-spacing:-0.02em;}.cls-31{letter-spacing:-0.07em;}.cls-32{letter-spacing:-0.03em;}.cls-33{font-size:16px;font-family:AvenirLTStd-Heavy, Avenir LT Std;}.cls-34{letter-spacing:-0.03em;}.cls-35{letter-spacing:0em;}.cls-36{letter-spacing:0em;}</style></defs><title>CCSF_Panel</title><g id="Previous_bg" data-name="Previous bg"><path class="cls-1" d="M908.81,802.59h62.11v714h-875L95,1164.77C445.57,1129.61,564.66,802.59,908.81,802.59Z"/><path class="cls-2" d="M157.11,686.25H95V-12.11H970l.92,336.18C620.35,359.24,501.26,686.25,157.11,686.25Z"/><path class="cls-3" d="M157.11,1080.07H95v936H970l.92-573.82C620.35,1407.09,501.26,1080.07,157.11,1080.07Z"/><text class="cls-4" transform="translate(908.51 200.21) rotate(90)">Persona</text><path class="cls-5" d="M692,962.4c-3.59,6.89,10.31,29.18,2.45,44.16-2.15,4.08-12.66,4.21-19.05,4-.93-15.7-11.71-35.34-11.71-35.34C696.12,965.69,692,962.4,692,962.4Z"/><path class="cls-1" d="M759.12,907.19A152.62,152.62,0,0,0,777,916.85c2.35,1.06,14.43-17.46,10.66-19.6-9.9-5.61-20.89-17.76-26.58-31.78C757.1,855.73,759.12,900.88,759.12,907.19Z"/><path class="cls-1" d="M774.27,915.59s-2.44,7.55,3.39,9.34c1.86,19.85-32.1,38.32-6.31,51.8,27.91,14.59,58.89-7.37,37.68-61.87-3.55-9.14-15.2-20.12-24.11-19.29"/><path class="cls-6" d="M672.89,997.36s5.76,12.18,21.22,5.69c2.38-1,4.5-4.27,3.76-8.24,11.8,22.48,23.25,31.26-2.09,63.81-27.57,35.4-74.42,19.28-74.36,6.08.09-23.64,24.93-22.66,31.92-36.67C662.59,1009.45,665.2,990.13,672.89,997.36Z"/><path class="cls-7" d="M655.28,1066.77s-26.92,1.77-31.34-13.3"/><path class="cls-1" d="M627.68,607s-49,133,22.07,219.27c31.7,38.46,80.46,83.07,106.75,94.64,15.16-15,25.66-35.75,17.77-50.48-52.4-66.78-59.83-98.5-66.85-154.59C694.67,613.76,680.74,503.21,627.68,607Z"/><path class="cls-5" d="M774.27,632.54s9.57,24-12.48,59.51c-15.11,34.61-55.55,87.39-77.85,113.28-15.73,18.26,16.27,104.5,22.29,167.64-15.29,8.52-29.55,11.16-51-2.52-6.49-28.77-74.23-133.37-52.56-210.87,16.69-59.67,53.64-111.33,73.15-131.42C729,573.46,767.78,590.83,774.27,632.54Z"/><path class="cls-8" d="M724.48,690.07s-12.94,23.36-1.37,35.45"/><path class="cls-9" d="M771.86,543.22l17,22.09s20.75,80.44,14.44,100A223.08,223.08,0,0,0,797,693.1c-2.7,16.13,1.79,13,7.55,23.75,5.26,5.26,9.47,2.62,9.47-4,0,0-7.89-14.81,0-16.91s4,14.37,2.27,18.23-7.36,8.41-14.37,8.76c-3,.35-10.82,5.3-5.57,10.3s27.48-3.07,34.84-15c5.61-9.12,15.25-9.29,0-57.66-9-28.73-2.1-95.7-4.21-101s-20.62-98.73-43.11-79.4C783.84,480.23,756.72,511,771.86,543.22Z"/><path class="cls-6" d="M627.3,522.42l-5.37,36.24s-26.72,47.27-43.7,78.05c-4.67,8.48-3.89,22.17-12.16,30.45-1.17-4.93-5.93-4.89-8.52-2.3,1.19-1.19,7.62-3,8.52,2.3.34,2,1.08,8.92-2.59,12.13a7.5,7.5,0,0,1-5.32,1.62c3.59-6.72-1.54-12.92-4.46-13.48,2.92.56,7.51,6.09,6.27,10.12-.83,2.7-2.82,6.89-8.81,6.31-3-.29-7.22-.47-4.73-3.33,2.24-2.59,3-5.72,2.46-10,.18,4.21.92,5.81-2.46,10C542,686,530.68,690.33,527.9,683c-2.1-5.52,2-7,6.26-8.9.52-.23,2,3.94,1.92,2.44-.11-1.29,4.62-3,5.89-3.32,8.53-2.32,22-12.7,26.35-21.26-3.5,11.39-22.35,20-26.82,21.39-1.81.55-9.57-1.09-14,5.36-.79,10.25-5.18,9.35-8.25,8.52-4.53-1.23-.8-5.88-.64-12.7,2.68-5.56,3.83-6.48,6.89-8.7,4.83-3.51,10.38-14.66,8-11.7-1.18,1.42-4.9,8.21-6.51,9.72a40.73,40.73,0,0,0-5,5.12c.26-13.31,1.35-21.19,16.52-28.25,11.09-6.09,14.73-13.47,19.32-21.61,12.4-22,16.53-50.06,28.73-75.12,1.79-4.49,11.42-91.81,30.61-75.31C617.08,468.7,640.21,495,627.3,522.42Z"/><path class="cls-1" d="M622.58,422.68c-32.51,10.3-34.76,59.8-47.46,86.53-13.48,28.36,39,41.9,53.73,34.31,4.24-10.62,46.53-101.26,42.3-130C669,399.22,639.2,417.41,622.58,422.68Z"/><path class="cls-10" d="M663.75,407.68S622,430.13,626.47,499.1c1.82,28-21.18,145.36-17.73,173.23,20.69,22.21,146.13,33.62,173-9.82-5.74-39.13-14.24-91-14.91-112.57,0,0-5.33,1.41-14.53-.65,0,0-11.83-40.72-16.83-52.06-.7-1.61,19.4,52.64,16.83,52.06,39.13,6.63,72.39-28.32,69.74-38.93-1.91-7.63-14.39-46.89-37.95-78.8-8-10.87-50.06-21.64-69.07-29.49C684.4,389.44,663.75,407.68,663.75,407.68Z"/><path class="cls-11" d="M620.56,442.21s33.24,19.91,82.52,6.69c15.84-4.25,43.78-14.72,50.85-32.39"/><path class="cls-11" d="M620.56,473.86s31.14,14.68,80.81,3c36.52-8.57,68.24-30.85,80.81-47.37"/><path class="cls-11" d="M620.56,499.5s30.65,14.54,80.81,5.2a188.26,188.26,0,0,0,33.47-9.6c44.93-9.44,59.18-34.45,64.39-39.65"/><path class="cls-11" d="M620.56,526.18s30.52,13.76,80.81,5.2a201.69,201.69,0,0,0,40.36-11.6c46.62-11.95,65.82-35.47,70-38.4"/><path class="cls-11" d="M820.05,503.66c-3.62.58-11.33,25.52-70.52,41.95-14.64,6.63-29.21,11.31-44.7,13.5-41.65,5.91-82.42-3.71-82.42-3.71"/><path class="cls-11" d="M768.11,566.48c-3.16,0-39,17.08-66.22,19a310.53,310.53,0,0,1-83.3-5.65"/><path class="cls-11" d="M772,590.82c-2.06,0-42.17,18.53-69.39,20.48-45.27,3.25-88.17-6.94-88.17-6.94"/><path class="cls-11" d="M774.78,616.16c-2.07,0-40.38,21.75-75.37,23.71-45.32,2.53-88.18-6.94-88.18-6.94"/><path class="cls-11" d="M778.78,642.74c-2.06,0-33,24.9-91.38,26.85-45.36,1.52-78.65-11.82-78.65-11.82"/><path class="cls-5" d="M734.22,281.58c7.78,11.19,2.48,24.79,2.48,39.45,8.84-7.43,17.29,3.3,17.23,10.05,0,5.36-6.87,16.22-20.33,18.13-9.47,19.56-17.11,29.06-29,32.62-.07,23.35,15.66,20.77,15.55,29.95-5.3,12.81-86.21,37.57-58.37-.67,2.39-3.29,3.47-6.32,5-15.93-12.43,1.75-27.27-1.79-39.74-20.62-6.18-5.45-10.19-11-12.43-16.73-4-10.06-3.85-14.76-5.45-25.52-.57-3.83-19.06-50.54-12-70.54,8.26-23.34,53.78-9.86,80.26-9.86,17.71,0,28.27.61,40.51,11.55,0,0,19-28.61,25.38-27.54s13.54,8.93,7.23,22.46A87.06,87.06,0,0,1,734.22,281.58Z"/><path class="cls-12" d="M644.38,197.34c-45.76,9.39-51.13,66.31-50.5,81.9,1.11,27.18,15.22,52.63,15.22,52.63-2.26-14.65-8.21-37.06-1.46-47.18,1.23-1.84-8.31,2.13-8.31.62,0-1.23,2-5.85,12-8.92,46.55-14.33,105.74,6.34,118.68-10.91,2.28-3,15.1-25.73,15.1-25.73,3.79,3-4.24,18.93-15.52,39.78,7.57,12.06,4.82,34.39,4.82,46.25,10.88-13,21.76.85,19.52,7.08-1.95,5.42-4.16,10.9-17.62,17.14-11.37,19.3-18.74,30.05-31,32,0,0,9-4.32,12.75-8.37,6.65-7.14,11.74-14.16,15.54-24.4,17.41,1.24,25.87-24.66,12.38-30.63,7.82-14.76,33.93-71.84,5.14-88.14C734.48,199.66,716.58,182.51,644.38,197.34Z"/><path class="cls-12" d="M629,313.62c-6.67.38-9.85,8.86,0,9.72,5.93.53,8.5.34,8.46-3.83S632.9,313.39,629,313.62Z"/><path class="cls-12" d="M679.71,312.94c11.26,0,13.54,9.8,0,9.73-3.56,0-6.6.95-7.05-2.7C672.05,315,674.1,312.92,679.71,312.94Z"/><path class="cls-12" d="M619,299.1c-4.67,3.76,1.65,3,8.35,3,11.7-.08,13,1.39,11-3.8C637,294.73,623.67,295.33,619,299.1Z"/><path class="cls-12" d="M648.27,364.8c5.45-.39,6.48.62,9.36,2.36,1.76,1.06,4.07,1.27,6,1.63s3.68.49,3.72,1.12c.06,1-2.49.73-5.49-.06A41.72,41.72,0,0,0,648,368.17c-2.73.1-7.06,1.57-9.12,1.91-1.08.19-1.93-1.22-1.48-1.62.63-.54.79.21,2.52-.14C644.18,367.48,642.44,365.21,648.27,364.8Z"/><path class="cls-12" d="M659.63,372.59c-.35-.36-1.79.6-2.42.78a17.64,17.64,0,0,1-5.63.55,42,42,0,0,1-5.62-.4c-1-.14-1.4-.52-1.67-.26s.39.53,1.14,1.16c2,1.65,6.33,4,12.54-.5C658.51,373.53,660,372.94,659.63,372.59Z"/><path class="cls-8" d="M646.5,325.11s1.33,6.64-7.07,18.13c0,0-7.52,2.1-1.55,8.74"/><path class="cls-12" d="M646,352.85c0,1.09,5.95,2.69,5.95-.49,0-2.2-2.37-1.75-4.12-.83C647,351.94,646,351.48,646,352.85Z"/><path class="cls-13" d="M735.24,230.79c-8.64-15.3-26.32-30.41-60.45-24.39,0,0,37.58-7.51,58.36,27.86C737.51,234.26,735.24,230.79,735.24,230.79Z"/><path class="cls-12" d="M695.08,300.68c4.67,3.76-1.65,3-8.35,3-11.69-.09-17.1.14-15.15-5C672.91,295.06,690.38,296.9,695.08,300.68Z"/><text class="cls-14" transform="translate(184 368.65)"><tspan class="cls-15">TA<tspan class="cls-16" x="79.17" y="0">YLOR </tspan></tspan><tspan x="0" y="70">LEE</tspan></text><text class="cls-17" transform="translate(149.38 1364.55)">Goals</text><text class="cls-17" transform="translate(149.38 1688.78)">Schedule</text><text class="cls-18" transform="translate(190.65 492.78)">Full-time student<tspan x="0" y="24">Resident of San Francisco</tspan><tspan x="0" y="48">Age 21</tspan></text></g><g id="Competitor"><g id="Competitor_1" data-name="Competitor 1"><line class="cls-19" x1="145.67" y1="1234.02" x2="145.8" y2="1234.02"/><line class="cls-20" x1="155.71" y1="1234.02" x2="618.2" y2="1234.02"/><line class="cls-19" x1="623.16" y1="1234.02" x2="623.28" y2="1234.02"/><line class="cls-19" x1="145.67" y1="1490.15" x2="145.8" y2="1490.15"/><line class="cls-20" x1="155.71" y1="1490.15" x2="618.2" y2="1490.15"/><line class="cls-19" x1="623.16" y1="1490.15" x2="623.28" y2="1490.15"/><line class="cls-21" x1="390" y1="977.72" x2="390" y2="1890.54"/><line class="cls-21" x1="602.96" y1="1459.31" x2="602.96" y2="1992.31"/></g></g><g id="Persona"><path class="cls-9" d="M256.9,865.58a11.61,11.61,0,0,1-11.35,11.85H232.71l-14,20.31-14.11-20.31H191.94a11.61,11.61,0,0,1-11.35-11.85V819a11.61,11.61,0,0,1,11.35-11.85h53.61A11.61,11.61,0,0,1,256.9,819Z"/><path class="cls-9" d="M256.9,865.58a11.61,11.61,0,0,1-11.35,11.85H232.71l-14,20.31-14.11-20.31H191.94a11.61,11.61,0,0,1-11.35-11.85V819a11.61,11.61,0,0,1,11.35-11.85h53.61A11.61,11.61,0,0,1,256.9,819Z"/><path class="cls-9" d="M397,779a11.61,11.61,0,0,1-11.35,11.85H372.76l-14,20.31-14.11-20.31H332A11.61,11.61,0,0,1,320.64,779V732.49A11.61,11.61,0,0,1,332,720.64H385.6A11.61,11.61,0,0,1,397,732.49Z"/><path class="cls-9" d="M256.69,1031.61a11.61,11.61,0,0,1-11.34,11.86H232.51l-14,20.31-14.12-20.31H191.73a11.61,11.61,0,0,1-11.35-11.86V985.08a11.61,11.61,0,0,1,11.35-11.85h53.62a11.61,11.61,0,0,1,11.34,11.85Z"/><path class="cls-9" d="M362.56,754a16,16,0,1,1-10.79-20A16,16,0,0,1,362.56,754Z"/><path class="cls-22" d="M385.87,767.94a16.05,16.05,0,1,1-10.79-20A16.05,16.05,0,0,1,385.87,767.94Z"/><path class="cls-3" d="M368.52,761a2.32,2.32,0,1,1-2.33-2.32A2.32,2.32,0,0,1,368.52,761Z"/><path class="cls-3" d="M341.71,747.07a2.32,2.32,0,1,1-2.32-2.32A2.32,2.32,0,0,1,341.71,747.07Z"/><path class="cls-3" d="M379.53,761a2.32,2.32,0,1,1-2.32-2.32A2.32,2.32,0,0,1,379.53,761Z"/><path class="cls-3" d="M351.82,747.07a2.32,2.32,0,1,1-2.32-2.32A2.32,2.32,0,0,1,351.82,747.07Z"/><path class="cls-3" d="M341.71,754.5s.51,2.84,2.83,2.84,2.64-2.84,2.64-2.84"/><path class="cls-3" d="M374.89,770.78s-.51-2.84-2.83-2.84-2.64,2.84-2.64,2.84"/><path class="cls-9" d="M234.45,845.33a16,16,0,1,1-10.77-19.91A16,16,0,0,1,234.45,845.33Z"/><line class="cls-9" x1="237.11" y1="830.23" x2="241.48" y2="827.65"/><line class="cls-9" x1="219.04" y1="820.43" x2="219.04" y2="815.07"/><line class="cls-9" x1="201.63" y1="830.23" x2="196.58" y2="826.36"/><line class="cls-9" x1="201.87" y1="849.15" x2="195.73" y2="852.19"/><line class="cls-9" x1="236.42" y1="849" x2="242.58" y2="851.99"/><path class="cls-9" d="M228.73,859.77a9.62,9.62,0,1,1-19.24,0h0a21.5,21.5,0,0,0,19.24,0Z"/><polyline class="cls-9" points="219.02 856.77 219.02 845.53 213.62 840.13"/><line class="cls-9" x1="219.02" y1="845.53" x2="224.57" y2="839.99"/><path class="cls-9" d="M256.9,708.19A11.61,11.61,0,0,1,245.55,720H232.71l-14,20.31L204.63,720H191.94a11.61,11.61,0,0,1-11.35-11.85V661.65a11.61,11.61,0,0,1,11.35-11.85h53.61a11.61,11.61,0,0,1,11.35,11.85Z"/><path class="cls-9" d="M256.9,708.19A11.61,11.61,0,0,1,245.55,720H232.71l-14,20.31L204.63,720H191.94a11.61,11.61,0,0,1-11.35-11.85V661.65a11.61,11.61,0,0,1,11.35-11.85h53.61a11.61,11.61,0,0,1,11.35,11.85Z"/><path class="cls-23" d="M211,699.68H198.59l9.12-28.31h10.83Zm20.91,0H219.5l9.12-28.31h10.83Z"/><path class="cls-9" d="M211,699.68H198.59l9.12-28.31h10.83Zm20.91,0H219.5l9.12-28.31h10.83Z"/><path class="cls-9" d="M399.4,941.67a11.61,11.61,0,0,1-11.35,11.86H375.21l-14,20.31-14.11-20.31h-12.7a11.62,11.62,0,0,1-11.35-11.86V895.14a11.62,11.62,0,0,1,11.35-11.85h53.62a11.61,11.61,0,0,1,11.35,11.85Z"/><path class="cls-9" d="M399.4,941.67a11.61,11.61,0,0,1-11.35,11.86H375.21l-14,20.31-14.11-20.31h-12.7a11.62,11.62,0,0,1-11.35-11.86V895.14a11.62,11.62,0,0,1,11.35-11.85h53.62a11.61,11.61,0,0,1,11.35,11.85Z"/><path class="cls-24" d="M239.37,1009.94a20.83,20.83,0,1,1-20.83-20.83A20.83,20.83,0,0,1,239.37,1009.94Z"/><polyline class="cls-25" points="218.54 998.24 218.54 1009.94 228.93 1009.94"/><path class="cls-9" d="M239.37,1009.94a20.83,20.83,0,1,1-20.83-20.83A20.83,20.83,0,0,1,239.37,1009.94Z"/><polyline class="cls-9" points="218.54 998.24 218.54 1009.94 228.93 1009.94"/><text class="cls-26" transform="translate(493.72 1316.73)">+ Ea<tspan class="cls-27" x="40.21" y="0">r</tspan><tspan x="48.04" y="0">n enough c</tspan><tspan class="cls-28" x="137" y="0">r</tspan><tspan x="144.1" y="0">edits to transfer to a UC</tspan><tspan x="0" y="32.81">+ E</tspan><tspan class="cls-29" x="30.83" y="32.81">f</tspan><tspan x="36.45" y="32.81">ficiently b</tspan><tspan class="cls-30" x="115" y="32.81">r</tspan><tspan class="cls-28" x="121.91" y="32.81">o</tspan><tspan x="131.72" y="32.81">wse the cou</tspan><tspan class="cls-29" x="224.85" y="32.81">r</tspan><tspan x="232.34" y="32.81">se c</tspan><tspan class="cls-28" x="261.31" y="32.81">a</tspan><tspan x="270.49" y="32.81">talogue</tspan><tspan x="0" y="65.61">+ Successfully sign up </tspan><tspan class="cls-28" x="180.87" y="65.61">f</tspan><tspan x="186.09" y="65.61">or classes</tspan><tspan x="0" y="98.42">+ </tspan><tspan class="cls-31" x="18.33" y="98.42">T</tspan><tspan x="30.8" y="98.42">rack financial aid st</tspan><tspan class="cls-28" x="186.24" y="98.42">a</tspan><tspan x="195.42" y="98.42">tus and s</tspan><tspan class="cls-32" x="265.43" y="98.42">a</tspan><tspan class="cls-30" x="274.23" y="98.42">v</tspan><tspan x="283.02" y="98.42">e mon</tspan><tspan class="cls-30" x="333.44" y="98.42">e</tspan><tspan x="341.81" y="98.42">y</tspan></text><text class="cls-26" transform="translate(652.96 1590.04)"><tspan class="cls-31">W</tspan><tspan x="17.47" y="0">ake up</tspan><tspan x="0" y="59.81">Bus ride to campus</tspan><tspan x="0" y="119.61">Daily cou</tspan><tspan class="cls-29" x="77.51" y="119.61">r</tspan><tspan x="85" y="119.61">ses</tspan><tspan x="0" y="179.42">Bus ride home</tspan><tspan x="0" y="239.23">Home</tspan><tspan class="cls-28" x="50.84" y="239.23">w</tspan><tspan x="64.19" y="239.23">o</tspan><tspan class="cls-30" x="74.19" y="239.23">r</tspan><tspan x="81.1" y="239.23">k</tspan></text><text class="cls-33" transform="translate(492.75 1571.37)">8:00 AM<tspan x="-36.42" y="59">8:50–9:20AM</tspan><tspan x="-39.38" y="118">9:30–5:30 PM</tspan><tspan x="-39.38" y="177">5:30–6:05 PM </tspan><tspan x="-50.11" y="236">8:00</tspan><tspan class="cls-34" x="-16.96" y="236">–</tspan><tspan class="cls-35" x="-9.44" y="236">1</tspan><tspan class="cls-36" x="0" y="236">2:30 AM</tspan></text></g><path class="cls-9" d="M368.59,904.56,367,898.92a.7.7,0,0,0-.87-.48l-5.85,1.68a.71.71,0,0,0-.48.87l1.82,6.32h0a7.5,7.5,0,0,0,9.28,5.13h0l6.32-1.83a.7.7,0,0,0,.48-.86L376,903.89a.71.71,0,0,0-.87-.48L369.45,905A.69.69,0,0,1,368.59,904.56Z"/><path class="cls-9" d="M348.59,913.14l-5.65,1.63a.7.7,0,0,0-.48.86l1.69,5.86a.71.71,0,0,0,.87.48l6.32-1.83h0a7.47,7.47,0,0,0,5.12-9.27h0l-1.82-6.32a.7.7,0,0,0-.87-.48l-5.85,1.69a.69.69,0,0,0-.48.86l1.63,5.65A.71.71,0,0,1,348.59,913.14Z"/><path class="cls-9" d="M375.33,925.42l5.65-1.63a.71.71,0,0,0,.48-.87l-1.69-5.85a.71.71,0,0,0-.87-.48l-6.32,1.82h0a7.49,7.49,0,0,0-5.12,9.28h0l1.82,6.32a.7.7,0,0,0,.86.48L376,932.8a.71.71,0,0,0,.48-.87l-1.63-5.65A.69.69,0,0,1,375.33,925.42Z"/><path class="cls-9" d="M355.33,934l1.63,5.65a.7.7,0,0,0,.87.48l5.85-1.69a.69.69,0,0,0,.48-.86l-1.82-6.33h0a7.5,7.5,0,0,0-9.28-5.12h0l-6.32,1.82a.71.71,0,0,0-.48.87l1.69,5.85a.7.7,0,0,0,.87.48l5.64-1.63A.71.71,0,0,1,355.33,934Z"/></svg>