<svg id="Layer_1" data-name="Layer 1" xmlns="http://www.w3.org/2000/svg" viewBox="0 0 1065 829.39"><defs><style>.cls-1{fill:#e5dbdb;}.cls-2{fill:#3c3c3c;}.cls-3{fill:#f0f0f0;}.cls-4{fill:#2d2d2d;}.cls-5{fill:#80332a;}.cls-6{fill:#fff;}.cls-7{fill:#63332a;}.cls-8{fill:#c10000;}.cls-9{fill:none;stroke:#fff;stroke-linecap:round;stroke-linejoin:round;stroke-width:3px;stroke-dasharray:0.25 10;}</style></defs><title>CCSF</title><g id="Previous_bg" data-name="Previous bg"><polygon class="cls-1" points="265.19 84.85 265.19 147.75 95 147.75 20 84.85 265.19 84.85"/><path class="cls-2" d="M95,85l.08-62.9h215c62.67,0,98.46,62.9,98.46,62.9Z"/><path class="cls-3" d="M20.08,85V22.07H87.7c62.67,0,98.46,62.9,98.46,62.9Z"/><polygon class="cls-1" points="265.19 411.27 265.19 474.17 95 474.17 20 411.27 265.19 411.27"/><polygon class="cls-4" points="849.81 210.64 849.81 273.54 970 273.54 1045 210.64 849.81 210.64"/><rect class="cls-5" x="95" y="84.85" width="875" height="1921.99"/><path class="cls-6" d="M295.68,351.31v.91c-2.27.44-3.41,1.72-3.41,3.81,0,.74.23,1.11.67,1.11a1.82,1.82,0,0,0,.35-.05A2.57,2.57,0,0,1,294,357a1.8,1.8,0,0,1,1.37.54,1.74,1.74,0,0,1,.51,1.23,1.71,1.71,0,0,1-.52,1.22,1.8,1.8,0,0,1-1.35.54,2.44,2.44,0,0,1-2-1.06,4.43,4.43,0,0,1-.83-2.81,5.32,5.32,0,0,1,1.17-3.47A5.4,5.4,0,0,1,295.68,351.31Zm8,0v.91c-2.28.44-3.41,1.72-3.41,3.81,0,.74.21,1.11.65,1.11a1.82,1.82,0,0,0,.35-.05,2.62,2.62,0,0,1,.7-.12,1.8,1.8,0,0,1,1.37.54,1.74,1.74,0,0,1,.51,1.23,1.67,1.67,0,0,1-.52,1.22,1.76,1.76,0,0,1-1.34.54,2.46,2.46,0,0,1-2-1.06,4.47,4.47,0,0,1-.83-2.81,5.32,5.32,0,0,1,1.18-3.47A5.48,5.48,0,0,1,303.65,351.31Z"/><path class="cls-6" d="M306.37,352.25v-.8h10.9v.8h-.51a5.85,5.85,0,0,0-2.3.29,1.53,1.53,0,0,0-.73,1.09,21.32,21.32,0,0,0-.19,3.76v11.69a33.57,33.57,0,0,0,.13,3.68,1.88,1.88,0,0,0,.71,1.29,4,4,0,0,0,2.19.42h.7v.81h-10.9v-.81h.7a4.23,4.23,0,0,0,2.12-.38,1.8,1.8,0,0,0,.75-1.21,27.57,27.57,0,0,0,.16-3.8V357.39a26.42,26.42,0,0,0-.16-3.68,1.59,1.59,0,0,0-.7-1.14,5.58,5.58,0,0,0-2.36-.32Z"/><path class="cls-6" d="M328.06,361.69h-4.34v8.71a12.88,12.88,0,0,0,.18,2.69,1.88,1.88,0,0,0,.74,1.12,2,2,0,0,0,1.22.42,2.63,2.63,0,0,0,2.2-1.44l.56.33a3.74,3.74,0,0,1-1.6,1.75,4.34,4.34,0,0,1-2.16.59,3.56,3.56,0,0,1-2.22-.74,3.17,3.17,0,0,1-1.2-1.75,18.42,18.42,0,0,1-.23-3.52v-8.16h-2.1v-.8a3.66,3.66,0,0,0,2.59-1.22,5.81,5.81,0,0,0,1.46-3.3h.56v4.52h4.34Z"/><path class="cls-6" d="M331.17,360.66v-.93c2.28-.45,3.41-1.72,3.41-3.82,0-.74-.21-1.11-.65-1.11a1.34,1.34,0,0,0-.35.06,2.5,2.5,0,0,1-.7.12A1.81,1.81,0,0,1,331,353.2a1.71,1.71,0,0,1,.52-1.22,1.76,1.76,0,0,1,1.34-.53,2.46,2.46,0,0,1,2,1.05,4.42,4.42,0,0,1,.84,2.83,5.3,5.3,0,0,1-1.17,3.47A5.46,5.46,0,0,1,331.17,360.66Z"/><path class="cls-6" d="M337.8,375.74V371h.69c.79,2.73,2.22,4.1,4.27,4.1a2.41,2.41,0,0,0,2-.81,2.75,2.75,0,0,0,.66-1.78,2.51,2.51,0,0,0-.7-1.84,11.27,11.27,0,0,0-2.8-1.74,11,11,0,0,1-3.13-2.11,3.57,3.57,0,0,1-.95-2.52,4.3,4.3,0,0,1,1-2.71,3.45,3.45,0,0,1,2.87-1.29,3.85,3.85,0,0,1,3.11,1.52,4.31,4.31,0,0,0,.69-1.28h.65V365h-.65a6.06,6.06,0,0,0-1.37-2.75,3.05,3.05,0,0,0-2.38-1.15,2.27,2.27,0,0,0-1.7.65,2,2,0,0,0-.65,1.51,2.16,2.16,0,0,0,.72,1.63,9.41,9.41,0,0,0,2.69,1.6c2,.91,3.21,1.78,3.65,2.64a5.42,5.42,0,0,1,.67,2.5,4,4,0,0,1-1.24,3.05,4.31,4.31,0,0,1-3.12,1.18,4.74,4.74,0,0,1-3.53-1.63,3.75,3.75,0,0,0-.77,1.51Z"/><path class="cls-6" d="M362.3,360.31h.48a9.62,9.62,0,0,1,.46,3,9.18,9.18,0,0,1,2.65-2.24,6.12,6.12,0,0,1,2.9-.73,5,5,0,0,1,2.82.72,3.27,3.27,0,0,1,1.42,1.76,11.29,11.29,0,0,1,.31,3v4.5a28,28,0,0,0,.09,3,1.1,1.1,0,0,0,.55.82,3.79,3.79,0,0,0,1.72.27v.81h-7.37v-.81h.34a2.51,2.51,0,0,0,1.65-.37,1.36,1.36,0,0,0,.44-.86c0-.33.05-1.29.05-2.9V365.7a11.55,11.55,0,0,0-.17-2.43,2.26,2.26,0,0,0-.89-1.29,3,3,0,0,0-1.86-.57,4.42,4.42,0,0,0-2.45.77,8.07,8.07,0,0,0-2.2,2.29v5.87a28,28,0,0,0,.09,3,1.13,1.13,0,0,0,.56.82,3.86,3.86,0,0,0,1.74.27v.81h-7.28v-.81a4.14,4.14,0,0,0,1.69-.24,1.14,1.14,0,0,0,.59-.75,24.27,24.27,0,0,0,.11-3.14v-4.29a24.69,24.69,0,0,0-.1-3.05,1.11,1.11,0,0,0-.56-.8,3.65,3.65,0,0,0-1.73-.28v-.81A23.07,23.07,0,0,0,362.3,360.31Z"/><path class="cls-6" d="M377.81,368.06a7.53,7.53,0,0,1,2.21-5.53,7.81,7.81,0,0,1,10.92,0,7.52,7.52,0,0,1,2.21,5.52,7.42,7.42,0,0,1-2.25,5.72,7.7,7.7,0,0,1-5.43,2.08,7.57,7.57,0,0,1-5.42-2.12A7.41,7.41,0,0,1,377.81,368.06Zm2.92.09q0,3.83,1.24,5.37a4.8,4.8,0,0,0,7,0q1.22-1.54,1.22-5.37c0-2.54-.41-4.34-1.22-5.42a4.65,4.65,0,0,0-7.05,0C381.13,363.79,380.73,365.6,380.73,368.15Z"/><path class="cls-6" d="M404.35,361.69H400v8.71a13.9,13.9,0,0,0,.17,2.69,1.94,1.94,0,0,0,.75,1.12,2,2,0,0,0,1.22.42,2.63,2.63,0,0,0,2.2-1.44l.56.33a3.71,3.71,0,0,1-1.61,1.75,4.28,4.28,0,0,1-2.15.59,3.56,3.56,0,0,1-2.22-.74,3.17,3.17,0,0,1-1.2-1.75,17.61,17.61,0,0,1-.23-3.52v-8.16h-2.1v-.8a3.68,3.68,0,0,0,2.59-1.22,5.81,5.81,0,0,0,1.46-3.3H400v4.52h4.34Z"/><path class="cls-6" d="M415.42,375.74V371h.69q1.2,4.1,4.27,4.1a2.43,2.43,0,0,0,2-.81,2.75,2.75,0,0,0,.66-1.78,2.52,2.52,0,0,0-.71-1.84,11.36,11.36,0,0,0-2.79-1.74,10.69,10.69,0,0,1-3.13-2.11,3.57,3.57,0,0,1-1-2.52,4.3,4.3,0,0,1,1-2.71,3.43,3.43,0,0,1,2.86-1.29,3.85,3.85,0,0,1,3.12,1.52,4.63,4.63,0,0,0,.68-1.28h.65V365h-.65a6,6,0,0,0-1.36-2.75,3.07,3.07,0,0,0-2.38-1.15,2.29,2.29,0,0,0-1.71.65,2.07,2.07,0,0,0-.65,1.51,2.16,2.16,0,0,0,.72,1.63,9.57,9.57,0,0,0,2.69,1.6c2,.91,3.21,1.78,3.66,2.64a5.55,5.55,0,0,1,.67,2.5,4,4,0,0,1-1.24,3.05,4.34,4.34,0,0,1-3.12,1.18,4.76,4.76,0,0,1-3.54-1.63,4,4,0,0,0-.77,1.51Z"/><path class="cls-6" d="M427.31,368.06a7.53,7.53,0,0,1,2.21-5.53,7.81,7.81,0,0,1,10.92,0,7.52,7.52,0,0,1,2.21,5.52,7.42,7.42,0,0,1-2.25,5.72,7.7,7.7,0,0,1-5.43,2.08,7.57,7.57,0,0,1-5.42-2.12A7.41,7.41,0,0,1,427.31,368.06Zm2.92.09q0,3.83,1.24,5.37a4.8,4.8,0,0,0,7,0q1.22-1.54,1.22-5.37c0-2.54-.41-4.34-1.22-5.42a4.65,4.65,0,0,0-7.05,0C430.63,363.79,430.23,365.6,430.23,368.15Z"/><path class="cls-6" d="M458,360.31h.17a7.63,7.63,0,0,1,.51,3,8.6,8.6,0,0,1,2.54-2.27,6,6,0,0,1,2.93-.75,4.83,4.83,0,0,1,2.88.8,4.25,4.25,0,0,1,1.55,2.43,10.26,10.26,0,0,1,2.74-2.43,5.77,5.77,0,0,1,2.87-.8,5,5,0,0,1,2.83.77,3,3,0,0,1,1.4,1.76,14,14,0,0,1,.25,3.18v4.32a24.78,24.78,0,0,0,.1,3.06,1.11,1.11,0,0,0,.56.81,3.85,3.85,0,0,0,1.73.26v.81h-7.19v-.81a3.64,3.64,0,0,0,1.61-.25,1.1,1.1,0,0,0,.57-.77,25.15,25.15,0,0,0,.1-3.11v-4.8a10.85,10.85,0,0,0-.16-2.19,2.14,2.14,0,0,0-.87-1.27,3,3,0,0,0-1.83-.53,4,4,0,0,0-2.29.78,9.82,9.82,0,0,0-2.32,2.33v5.68c0,1.54,0,2.5.07,2.89a1.24,1.24,0,0,0,.49.92,2.63,2.63,0,0,0,1.54.32v.81h-7v-.81a4,4,0,0,0,1.65-.24,1.12,1.12,0,0,0,.58-.76,24.29,24.29,0,0,0,.11-3.13v-4a17.79,17.79,0,0,0-.15-2.75,2.39,2.39,0,0,0-.9-1.46,2.94,2.94,0,0,0-1.88-.6,4.21,4.21,0,0,0-2.23.7,10.19,10.19,0,0,0-2.31,2.11v6c0,1.58,0,2.57.07,3a1.17,1.17,0,0,0,.53.87,3.16,3.16,0,0,0,1.63.3v.81h-7v-.81a3.66,3.66,0,0,0,1.62-.25,1.1,1.1,0,0,0,.57-.77,24,24,0,0,0,.11-3.11V366c0-1.64,0-2.65-.08-3a1.06,1.06,0,0,0-.55-.83,3.47,3.47,0,0,0-1.67-.28v-.81A20,20,0,0,0,458,360.31Z"/><path class="cls-6" d="M496.81,360.89v9.44c0,1.57,0,2.55.07,2.95a1.16,1.16,0,0,0,.52.89,3.1,3.1,0,0,0,1.61.3v.81a11.17,11.17,0,0,0-3.9.56h-.21a7.18,7.18,0,0,1-.6-3.34,7.79,7.79,0,0,1-2.45,2.52,5.76,5.76,0,0,1-3.05.84,4.87,4.87,0,0,1-2.55-.66,3.49,3.49,0,0,1-1.52-1.61,7.39,7.39,0,0,1-.42-2.86v-4.9c0-1.67,0-2.69-.08-3.05a1.09,1.09,0,0,0-.56-.82,3.74,3.74,0,0,0-1.71-.27v-.8h4.88v10A9,9,0,0,0,487,373a2.09,2.09,0,0,0,.9,1.17,2.79,2.79,0,0,0,1.67.5,4.35,4.35,0,0,0,2.58-.88,5,5,0,0,0,1.68-1.88,7.13,7.13,0,0,0,.45-2.84v-3.25c0-1.58,0-2.53-.05-2.87a1.44,1.44,0,0,0-.45-.89,2.52,2.52,0,0,0-1.65-.38h-.37v-.8Z"/><path class="cls-6" d="M513.69,371.77h.77q-1.2,4.1-6,4.09a7.05,7.05,0,0,1-5.17-2.09,7.46,7.46,0,0,1-2.1-5.54,7.64,7.64,0,0,1,2.26-5.73,7.47,7.47,0,0,1,5.36-2.19,7.32,7.32,0,0,1,3.43.81c1,.55,1.57,1.21,1.57,2a1.35,1.35,0,0,1-.29.82,1,1,0,0,1-.84.39c-.77,0-1.25-.45-1.42-1.35a2.69,2.69,0,0,0-.65-1.43,2.82,2.82,0,0,0-1.78-.4,4.09,4.09,0,0,0-3.54,1.63,8.39,8.39,0,0,0-1.19,4.93,9.46,9.46,0,0,0,1.28,5.3,4.31,4.31,0,0,0,3.86,1.92A4.17,4.17,0,0,0,513.69,371.77Z"/><path class="cls-6" d="M520.77,363.26a7.46,7.46,0,0,1,2.36-2.22,5.82,5.82,0,0,1,2.88-.73A5.43,5.43,0,0,1,529,361a3.42,3.42,0,0,1,1.52,1.82,12.19,12.19,0,0,1,.36,3.51v4a28.7,28.7,0,0,0,.09,3.08,1.11,1.11,0,0,0,.57.8,4.19,4.19,0,0,0,1.76.25v.81h-7.43v-.81h.33a2.51,2.51,0,0,0,1.66-.37,1.41,1.41,0,0,0,.44-.87c0-.33.06-1.29.06-2.89V366a12.27,12.27,0,0,0-.21-2.66,2.45,2.45,0,0,0-1-1.42,3.31,3.31,0,0,0-2-.56,4,4,0,0,0-2.46.8,6.64,6.64,0,0,0-1.92,2.4v5.76c0,1.62,0,2.62.08,3a1.11,1.11,0,0,0,.54.85,3.28,3.28,0,0,0,1.67.29v.81h-7.32v-.81h.37a2.57,2.57,0,0,0,1.65-.36,1.43,1.43,0,0,0,.44-.86q.06-.5.06-2.91V356a5.61,5.61,0,0,0-.42-2.76c-.27-.39-.93-.58-2-.58v-.81a12.13,12.13,0,0,0,4.53-.74h.37Z"/><path class="cls-6" d="M552.9,361.69h-4.34v8.71a12.88,12.88,0,0,0,.18,2.69,1.88,1.88,0,0,0,.74,1.12,2.05,2.05,0,0,0,1.23.42,2.63,2.63,0,0,0,2.19-1.44l.57.33a3.76,3.76,0,0,1-1.61,1.75,4.34,4.34,0,0,1-2.16.59,3.56,3.56,0,0,1-2.22-.74,3.1,3.1,0,0,1-1.19-1.75,17.4,17.4,0,0,1-.24-3.52v-8.16H544v-.8a3.65,3.65,0,0,0,2.58-1.22,5.81,5.81,0,0,0,1.46-3.3h.56v4.52h4.34Z"/><path class="cls-6" d="M559.39,363.26a7.46,7.46,0,0,1,2.36-2.22,5.79,5.79,0,0,1,2.88-.73,5.43,5.43,0,0,1,2.94.73,3.42,3.42,0,0,1,1.52,1.82,12.27,12.27,0,0,1,.35,3.51v4a27.52,27.52,0,0,0,.1,3.08,1.11,1.11,0,0,0,.57.8,4.16,4.16,0,0,0,1.76.25v.81h-7.44v-.81h.34a2.51,2.51,0,0,0,1.66-.37,1.41,1.41,0,0,0,.44-.87c0-.33.06-1.29.06-2.89V366a12.27,12.27,0,0,0-.21-2.66,2.45,2.45,0,0,0-1-1.42,3.31,3.31,0,0,0-2-.56,4,4,0,0,0-2.46.8,6.64,6.64,0,0,0-1.92,2.4v5.76c0,1.62,0,2.62.08,3a1.13,1.13,0,0,0,.53.85,3.33,3.33,0,0,0,1.67.29v.81h-7.31v-.81h.37a2.57,2.57,0,0,0,1.65-.36,1.37,1.37,0,0,0,.43-.86c.05-.33.07-1.3.07-2.91V356a5.61,5.61,0,0,0-.42-2.76c-.27-.39-.93-.58-2-.58v-.81a12.13,12.13,0,0,0,4.53-.74h.37Z"/><path class="cls-6" d="M588.5,372.65h.65c-.11,2-1.09,3-2.95,3a2.7,2.7,0,0,1-1.89-.63,3.13,3.13,0,0,1-.91-1.88,18.19,18.19,0,0,1-3.21,1.88,6.59,6.59,0,0,1-2.59.63,3.9,3.9,0,0,1-2.51-.84,2.72,2.72,0,0,1-1.06-2.23,3.93,3.93,0,0,1,1.77-3.17,22,22,0,0,1,4.88-2.64l2.72-1.1V365a8.61,8.61,0,0,0-.19-2.16,2.22,2.22,0,0,0-1-1.19,3.78,3.78,0,0,0-2.13-.53c-1.76,0-2.74.58-2.94,1.76s-.68,1.79-1.47,1.79-1.08-.34-1.08-1a3.05,3.05,0,0,1,1.43-2.15,9,9,0,0,1,7.89-.45,3.69,3.69,0,0,1,1.63,1.6,7.26,7.26,0,0,1,.39,2.74v5.82a9.87,9.87,0,0,0,.21,2.62.88.88,0,0,0,.92.58C587.83,374.37,588.31,373.79,588.5,372.65Zm-5.1-6.16-1.91.78c-3,1.23-4.54,2.77-4.54,4.64a2.61,2.61,0,0,0,.58,1.78,1.91,1.91,0,0,0,1.51.68,4.36,4.36,0,0,0,1.92-.55,14.32,14.32,0,0,0,2.44-1.63Z"/><path class="cls-6" d="M599.05,361.69H594.7v8.71a12.88,12.88,0,0,0,.18,2.69,1.94,1.94,0,0,0,.75,1.12,2,2,0,0,0,1.22.42,2.66,2.66,0,0,0,2.2-1.44l.56.33a3.71,3.71,0,0,1-1.61,1.75,4.33,4.33,0,0,1-2.15.59,3.56,3.56,0,0,1-2.23-.74,3.15,3.15,0,0,1-1.19-1.75,17.4,17.4,0,0,1-.24-3.52v-8.16H590.1v-.8a3.65,3.65,0,0,0,2.58-1.22,5.81,5.81,0,0,0,1.46-3.3h.56v4.52h4.35Z"/><path class="cls-6" d="M614.46,360.31v10c0,1.54,0,2.5.07,2.9a1.28,1.28,0,0,0,.51.92,2.84,2.84,0,0,0,1.57.31H617v.81h-7.76v-.81h.6a2.52,2.52,0,0,0,1.63-.36,1.38,1.38,0,0,0,.44-.86q.06-.5.06-2.91V366a11.13,11.13,0,0,0-.24-3.09,1.14,1.14,0,0,0-.63-.7,4.5,4.5,0,0,0-1.38-.14h-.48v-.81a21.55,21.55,0,0,0,4.86-.93ZM611.07,353a1.77,1.77,0,0,1,.54-1.3,1.78,1.78,0,0,1,2.57,0,1.8,1.8,0,0,1,.53,1.3,1.86,1.86,0,0,1-.53,1.32,1.8,1.8,0,0,1-2.57,0A1.83,1.83,0,0,1,611.07,353Z"/><path class="cls-6" d="M627.54,361.69H623.2v8.71a13.9,13.9,0,0,0,.17,2.69,1.94,1.94,0,0,0,.75,1.12,2,2,0,0,0,1.22.42,2.63,2.63,0,0,0,2.2-1.44l.56.33a3.71,3.71,0,0,1-1.61,1.75,4.28,4.28,0,0,1-2.15.59,3.56,3.56,0,0,1-2.22-.74,3.17,3.17,0,0,1-1.2-1.75,17.4,17.4,0,0,1-.24-3.52v-8.16h-2.09v-.8a3.68,3.68,0,0,0,2.59-1.22,5.88,5.88,0,0,0,1.46-3.3h.56v4.52h4.34Z"/><path class="cls-6" d="M630.65,360.66v-.93q3.4-.68,3.41-3.82c0-.74-.22-1.11-.65-1.11a1.34,1.34,0,0,0-.35.06,2.5,2.5,0,0,1-.7.12,1.81,1.81,0,0,1-1.88-1.78A1.74,1.74,0,0,1,631,352a1.79,1.79,0,0,1,1.35-.53,2.46,2.46,0,0,1,2,1.05,4.41,4.41,0,0,1,.83,2.83A5.3,5.3,0,0,1,634,358.8,5.41,5.41,0,0,1,630.65,360.66Z"/><path class="cls-6" d="M637.28,375.74V371H638c.8,2.73,2.22,4.1,4.28,4.1a2.41,2.41,0,0,0,2-.81,2.75,2.75,0,0,0,.66-1.78,2.51,2.51,0,0,0-.7-1.84,11.47,11.47,0,0,0-2.8-1.74,11,11,0,0,1-3.13-2.11,3.57,3.57,0,0,1-1-2.52,4.3,4.3,0,0,1,1-2.71,3.45,3.45,0,0,1,2.87-1.29,3.85,3.85,0,0,1,3.11,1.52,4.56,4.56,0,0,0,.69-1.28h.65V365H645a6.06,6.06,0,0,0-1.37-2.75,3.05,3.05,0,0,0-2.38-1.15,2.27,2.27,0,0,0-1.7.65,2,2,0,0,0-.65,1.51,2.16,2.16,0,0,0,.72,1.63,9.27,9.27,0,0,0,2.69,1.6c2,.91,3.21,1.78,3.65,2.64a5.42,5.42,0,0,1,.67,2.5,4,4,0,0,1-1.24,3.05,4.34,4.34,0,0,1-3.12,1.18,4.74,4.74,0,0,1-3.53-1.63,3.88,3.88,0,0,0-.78,1.51Z"/><path class="cls-6" d="M319,402.41v-5.62c0-1.54,0-2.5-.07-2.9a1.18,1.18,0,0,0-.5-.91,2.71,2.71,0,0,0-1.56-.32h-.37v-.81a19.43,19.43,0,0,0,4.66-.74h.37v19.36a28.24,28.24,0,0,0,.09,3,1,1,0,0,0,.55.81,3.81,3.81,0,0,0,1.73.27v.81a25,25,0,0,0-4.53.45,10.89,10.89,0,0,1-.22-2.6,9.42,9.42,0,0,1-2.68,1.95,6.52,6.52,0,0,1-2.85.65,6.3,6.3,0,0,1-4.83-2.25,8.56,8.56,0,0,1,.05-11.13,6.59,6.59,0,0,1,4.94-2.17,7.32,7.32,0,0,1,2.76.52A8.49,8.49,0,0,1,319,402.41Zm0,1a9.54,9.54,0,0,0-2.33-1.5,6,6,0,0,0-2.35-.5A4.2,4.2,0,0,0,311,403q-1.34,1.53-1.33,5c0,2.35.45,4.07,1.36,5.19a4.2,4.2,0,0,0,3.37,1.67,5,5,0,0,0,2.48-.64,7,7,0,0,0,2.11-1.89Z"/><path class="cls-6" d="M330,400.31v10c0,1.54,0,2.5.07,2.9a1.21,1.21,0,0,0,.51.92,2.81,2.81,0,0,0,1.56.31h.37v.81h-7.75v-.81h.59a2.5,2.5,0,0,0,1.63-.36,1.38,1.38,0,0,0,.44-.86q.06-.5.06-2.91V406a11.13,11.13,0,0,0-.24-3.09,1.09,1.09,0,0,0-.63-.7,4.41,4.41,0,0,0-1.38-.14h-.47v-.81a21.56,21.56,0,0,0,4.85-.93ZM326.6,393a1.77,1.77,0,0,1,.54-1.3,1.73,1.73,0,0,1,1.29-.55,1.7,1.7,0,0,1,1.28.55,1.76,1.76,0,0,1,.53,1.3,1.82,1.82,0,0,1-.53,1.32,1.72,1.72,0,0,1-1.28.54,1.76,1.76,0,0,1-1.29-.54A1.83,1.83,0,0,1,326.6,393Z"/><path class="cls-6" d="M342,400.89v.8h-3v8.65c0,1.54,0,2.5.06,2.9a1.23,1.23,0,0,0,.5.92,2.87,2.87,0,0,0,1.57.31h.76v.81H334v-.81a4.05,4.05,0,0,0,1.68-.24,1.12,1.12,0,0,0,.58-.75,24.27,24.27,0,0,0,.11-3.14v-8.65h-2.69v-.8h2.69v-1.31a24.1,24.1,0,0,1,.18-3.37,6.25,6.25,0,0,1,1-2.47,5.75,5.75,0,0,1,2.06-2,5.92,5.92,0,0,1,2.94-.69,5.7,5.7,0,0,1,3.32.87c.84.57,1.25,1.16,1.25,1.75a1.16,1.16,0,0,1-1.18,1.18c-.62,0-1.19-.48-1.7-1.44a2.56,2.56,0,0,0-2.23-1.58,2.71,2.71,0,0,0-2,.8,3.33,3.33,0,0,0-1,2c-.1.8-.16,2.51-.16,5.14v1.09Z"/><path class="cls-6" d="M352.06,400.89v.8h-3v8.65c0,1.54,0,2.5.06,2.9a1.23,1.23,0,0,0,.5.92,2.87,2.87,0,0,0,1.57.31h.75v.81h-7.78v-.81a4,4,0,0,0,1.67-.24,1.1,1.1,0,0,0,.58-.75,21.66,21.66,0,0,0,.12-3.14v-8.65h-2.69v-.8h2.69v-1.31a26.1,26.1,0,0,1,.17-3.37,6.28,6.28,0,0,1,1-2.47,5.73,5.73,0,0,1,2.05-2,6,6,0,0,1,2.95-.69A5.7,5.7,0,0,1,356,392c.83.57,1.25,1.16,1.25,1.75a1.15,1.15,0,0,1-.35.85,1.18,1.18,0,0,1-.83.33c-.62,0-1.19-.48-1.7-1.44a2.56,2.56,0,0,0-2.24-1.58,2.71,2.71,0,0,0-1.94.8,3.22,3.22,0,0,0-1,2,49.11,49.11,0,0,0-.16,5.14v1.09Z"/><path class="cls-6" d="M358.86,400.31v10c0,1.54,0,2.5.07,2.9a1.28,1.28,0,0,0,.51.92,2.81,2.81,0,0,0,1.56.31h.37v.81h-7.75v-.81h.6a2.49,2.49,0,0,0,1.62-.36,1.33,1.33,0,0,0,.44-.86q.06-.5.06-2.91V406a11.3,11.3,0,0,0-.23-3.09,1.12,1.12,0,0,0-.64-.7,4.41,4.41,0,0,0-1.38-.14h-.47v-.81a21.45,21.45,0,0,0,4.85-.93ZM355.47,393a1.76,1.76,0,0,1,.53-1.3,1.73,1.73,0,0,1,1.29-.55,1.7,1.7,0,0,1,1.29.55,1.79,1.79,0,0,1,.52,1.3,1.85,1.85,0,0,1-.52,1.32,1.73,1.73,0,0,1-1.29.54,1.76,1.76,0,0,1-1.29-.54A1.82,1.82,0,0,1,355.47,393Z"/><path class="cls-6" d="M375.82,411.77h.77q-1.18,4.1-6,4.09a7.07,7.07,0,0,1-5.18-2.09,7.46,7.46,0,0,1-2.1-5.54,7.64,7.64,0,0,1,2.27-5.73,7.46,7.46,0,0,1,5.36-2.19,7.38,7.38,0,0,1,3.43.81c1,.55,1.56,1.21,1.56,2a1.29,1.29,0,0,1-.29.82,1,1,0,0,1-.83.39c-.78,0-1.25-.45-1.43-1.35a2.61,2.61,0,0,0-.65-1.43,2.76,2.76,0,0,0-1.77-.4,4.09,4.09,0,0,0-3.54,1.63,8.32,8.32,0,0,0-1.19,4.93,9.46,9.46,0,0,0,1.27,5.3,4.32,4.32,0,0,0,3.86,1.92A4.16,4.16,0,0,0,375.82,411.77Z"/><path class="cls-6" d="M393.08,400.89v9.44c0,1.57,0,2.55.07,2.95a1.16,1.16,0,0,0,.52.89,3.1,3.1,0,0,0,1.61.3v.81a11.17,11.17,0,0,0-3.9.56h-.21a7.18,7.18,0,0,1-.6-3.34,7.79,7.79,0,0,1-2.45,2.52,5.76,5.76,0,0,1-3.05.84,4.89,4.89,0,0,1-2.55-.66,3.49,3.49,0,0,1-1.52-1.61,7.39,7.39,0,0,1-.42-2.86v-4.9a29.52,29.52,0,0,0-.08-3.05,1.09,1.09,0,0,0-.56-.82,3.74,3.74,0,0,0-1.71-.27v-.8h4.89v10a9.17,9.17,0,0,0,.17,2.14,2.09,2.09,0,0,0,.9,1.17,2.82,2.82,0,0,0,1.67.5,4.35,4.35,0,0,0,2.58-.88,5,5,0,0,0,1.68-1.88,7.13,7.13,0,0,0,.45-2.84v-3.25c0-1.58,0-2.53-.05-2.87a1.44,1.44,0,0,0-.45-.89,2.52,2.52,0,0,0-1.65-.38h-.36v-.8Z"/><path class="cls-6" d="M401.71,391.11v19.23c0,1.54,0,2.5.07,2.9a1.2,1.2,0,0,0,.5.92,2.81,2.81,0,0,0,1.56.31h.42v.81h-7.7v-.81h.5a2.82,2.82,0,0,0,1.5-.29,1.11,1.11,0,0,0,.53-.81,27.76,27.76,0,0,0,.09-3V396.1a6.11,6.11,0,0,0-.4-2.85c-.27-.39-.93-.59-2-.59v-.81a14.73,14.73,0,0,0,2.52-.25,8.89,8.89,0,0,0,2-.49Z"/><path class="cls-6" d="M414.7,401.69h-4.34v8.71a12.88,12.88,0,0,0,.18,2.69,1.9,1.9,0,0,0,.75,1.12,2,2,0,0,0,1.22.42,2.63,2.63,0,0,0,2.19-1.44l.57.33a3.76,3.76,0,0,1-1.61,1.75,4.34,4.34,0,0,1-2.16.59,3.56,3.56,0,0,1-2.22-.74,3.1,3.1,0,0,1-1.19-1.75,17.4,17.4,0,0,1-.24-3.52v-8.16h-2.09v-.8a3.65,3.65,0,0,0,2.58-1.22,5.81,5.81,0,0,0,1.46-3.3h.56v4.52h4.34Z"/><path class="cls-6" d="M434.2,401.69h-4.34v8.71a13.9,13.9,0,0,0,.17,2.69,1.94,1.94,0,0,0,.75,1.12,2,2,0,0,0,1.22.42,2.65,2.65,0,0,0,2.2-1.44l.56.33a3.71,3.71,0,0,1-1.61,1.75,4.31,4.31,0,0,1-2.15.59,3.53,3.53,0,0,1-2.22-.74,3.17,3.17,0,0,1-1.2-1.75,17.4,17.4,0,0,1-.24-3.52v-8.16h-2.09v-.8a3.65,3.65,0,0,0,2.58-1.22,5.74,5.74,0,0,0,1.46-3.3h.57v4.52h4.34Z"/><path class="cls-6" d="M436.15,408.06a7.53,7.53,0,0,1,2.21-5.53,7.81,7.81,0,0,1,10.92,0,7.53,7.53,0,0,1,2.22,5.52,7.42,7.42,0,0,1-2.25,5.72,7.72,7.72,0,0,1-5.44,2.08,7.57,7.57,0,0,1-5.42-2.12A7.45,7.45,0,0,1,436.15,408.06Zm2.92.09c0,2.55.41,4.34,1.25,5.37a4.79,4.79,0,0,0,7,0q1.21-1.54,1.22-5.37c0-2.54-.4-4.34-1.21-5.42a4.67,4.67,0,0,0-7.06,0C439.47,403.79,439.07,405.6,439.07,408.15Z"/><path class="cls-6" d="M466.77,400.31h.48a9.66,9.66,0,0,1,.45,3,9.34,9.34,0,0,1,2.66-2.24,6.09,6.09,0,0,1,2.9-.73,5,5,0,0,1,2.82.72,3.25,3.25,0,0,1,1.41,1.76,11.22,11.22,0,0,1,.32,3v4.5a28,28,0,0,0,.09,3,1.1,1.1,0,0,0,.55.82,3.76,3.76,0,0,0,1.72.27v.81H472.8v-.81h.33a2.53,2.53,0,0,0,1.66-.37,1.41,1.41,0,0,0,.44-.86c0-.33,0-1.29,0-2.9V405.7a12.29,12.29,0,0,0-.17-2.43,2.23,2.23,0,0,0-.9-1.29,2.9,2.9,0,0,0-1.85-.57,4.4,4.4,0,0,0-2.45.77,8.1,8.1,0,0,0-2.21,2.29v5.87a24.48,24.48,0,0,0,.1,3,1.11,1.11,0,0,0,.56.82,3.81,3.81,0,0,0,1.73.27v.81h-7.27v-.81a4.09,4.09,0,0,0,1.68-.24,1.08,1.08,0,0,0,.59-.75,21.66,21.66,0,0,0,.12-3.14v-4.29a27.08,27.08,0,0,0-.1-3.05,1.14,1.14,0,0,0-.56-.8,3.65,3.65,0,0,0-1.73-.28v-.81A23.46,23.46,0,0,0,466.77,400.31Z"/><path class="cls-6" d="M496.79,412.65h.65c-.1,2-1.09,3-2.95,3a2.7,2.7,0,0,1-1.89-.63,3.18,3.18,0,0,1-.9-1.88,18.56,18.56,0,0,1-3.21,1.88,6.63,6.63,0,0,1-2.59.63,3.91,3.91,0,0,1-2.52-.84,2.73,2.73,0,0,1-1.05-2.23,3.94,3.94,0,0,1,1.76-3.17,22.22,22.22,0,0,1,4.88-2.64l2.73-1.1V405a8.5,8.5,0,0,0-.2-2.16,2.22,2.22,0,0,0-1-1.19,3.78,3.78,0,0,0-2.13-.53c-1.75,0-2.73.58-2.93,1.76s-.68,1.79-1.48,1.79-1.07-.34-1.07-1a3,3,0,0,1,1.42-2.15,9,9,0,0,1,7.9-.45,3.61,3.61,0,0,1,1.62,1.6,7,7,0,0,1,.4,2.74v5.82a9.87,9.87,0,0,0,.21,2.62.87.87,0,0,0,.91.58C496.13,414.37,496.61,413.79,496.79,412.65Zm-5.09-6.16-1.92.78c-3,1.23-4.53,2.77-4.53,4.64a2.61,2.61,0,0,0,.58,1.78,1.89,1.89,0,0,0,1.51.68,4.28,4.28,0,0,0,1.91-.55,14.35,14.35,0,0,0,2.45-1.63Z"/><path class="cls-6" d="M505.51,415.86h-1l-5.11-11.55a8.63,8.63,0,0,0-1.2-2.12,2,2,0,0,0-1.44-.5v-.8h6.51v.8a4,4,0,0,0-1.47.18.66.66,0,0,0-.4.67,7,7,0,0,0,.7,1.88l3.89,8.74,3.5-7.79a8.21,8.21,0,0,0,.82-2.43c0-.78-.58-1.2-1.75-1.25v-.8h4.85v.8a2.14,2.14,0,0,0-1.51.75,15.06,15.06,0,0,0-1.69,3.12Z"/><path class="cls-6" d="M519.08,400.31v10c0,1.54,0,2.5.07,2.9a1.28,1.28,0,0,0,.51.92,2.87,2.87,0,0,0,1.57.31h.37v.81h-7.76v-.81h.6a2.52,2.52,0,0,0,1.63-.36,1.38,1.38,0,0,0,.44-.86q.06-.5.06-2.91V406a11.13,11.13,0,0,0-.24-3.09,1.14,1.14,0,0,0-.63-.7,4.41,4.41,0,0,0-1.38-.14h-.48v-.81a21.55,21.55,0,0,0,4.86-.93ZM515.69,393a1.77,1.77,0,0,1,.54-1.3,1.78,1.78,0,0,1,2.57,0,1.8,1.8,0,0,1,.53,1.3,1.86,1.86,0,0,1-.53,1.32,1.8,1.8,0,0,1-2.57,0A1.83,1.83,0,0,1,515.69,393Z"/><path class="cls-6" d="M534.62,402.15a4.2,4.2,0,0,1,3-1.69,1.83,1.83,0,0,1,1.31.46,1.39,1.39,0,0,1,.46,1c0,.78-.35,1.16-1,1.16a1.21,1.21,0,0,1-1-.72c-.25-.44-.52-.67-.8-.67a2.18,2.18,0,0,0-1.48.92,5.6,5.6,0,0,1,.91,3.06,5.27,5.27,0,0,1-1.51,3.72q-1.51,1.64-5.1,1.76c-2.48.08-3.72.59-3.72,1.51,0,.44.28.74.84.92A16.29,16.29,0,0,0,530,414a24.23,24.23,0,0,1,4.47.53,4.62,4.62,0,0,1,1.53,8.19,9,9,0,0,1-5.47,1.42,9.61,9.61,0,0,1-5.24-1.26,3.74,3.74,0,0,1-2-3.2,2.71,2.71,0,0,1,.56-1.76,2,2,0,0,1,1.6-.69,1.36,1.36,0,0,1,.51.09,3.75,3.75,0,0,0-1.09,2.53,3,3,0,0,0,1.45,2.56,7.67,7.67,0,0,0,4.34,1,6.75,6.75,0,0,0,4-1,3.12,3.12,0,0,0,1.43-2.63,2.6,2.6,0,0,0-1.28-2.47,11.51,11.51,0,0,0-4.57-.85c-2.52-.1-4.16-.41-4.91-.93a2.25,2.25,0,0,1-1.12-1.95c0-1.54,1.07-2.5,3.21-2.9a7.62,7.62,0,0,1-2.51-2.25,5,5,0,0,1-.84-2.83,4.8,4.8,0,0,1,1.73-3.74,6,6,0,0,1,4.1-1.53A6.22,6.22,0,0,1,534.62,402.15ZM526.71,406a5,5,0,0,0,.93,3.33,3,3,0,0,0,2.38,1.05,3,3,0,0,0,2.29-1.05,5.34,5.34,0,0,0,1-3.63c0-1.73-.34-2.93-1-3.58a3.23,3.23,0,0,0-2.3-1,2.73,2.73,0,0,0-2.43,1.22A6.62,6.62,0,0,0,526.71,406Z"/><path class="cls-6" d="M555.36,412.65H556c-.1,2-1.09,3-3,3a2.7,2.7,0,0,1-1.89-.63,3.18,3.18,0,0,1-.9-1.88,18.56,18.56,0,0,1-3.21,1.88,6.63,6.63,0,0,1-2.59.63,3.93,3.93,0,0,1-2.52-.84,2.73,2.73,0,0,1-1.05-2.23,3.94,3.94,0,0,1,1.76-3.17,22.22,22.22,0,0,1,4.88-2.64l2.73-1.1V405a8.5,8.5,0,0,0-.2-2.16,2.22,2.22,0,0,0-1-1.19,3.78,3.78,0,0,0-2.13-.53c-1.75,0-2.73.58-2.93,1.76s-.68,1.79-1.48,1.79-1.07-.34-1.07-1a3,3,0,0,1,1.42-2.15,9,9,0,0,1,7.9-.45,3.61,3.61,0,0,1,1.62,1.6,7,7,0,0,1,.4,2.74v5.82a9.87,9.87,0,0,0,.21,2.62.87.87,0,0,0,.91.58C554.7,414.37,555.18,413.79,555.36,412.65Zm-5.09-6.16-1.92.78c-3,1.23-4.53,2.77-4.53,4.64a2.61,2.61,0,0,0,.58,1.78,1.89,1.89,0,0,0,1.51.68,4.28,4.28,0,0,0,1.91-.55,14.35,14.35,0,0,0,2.45-1.63Z"/><path class="cls-6" d="M565.91,401.69h-4.34v8.71a12.88,12.88,0,0,0,.18,2.69,1.88,1.88,0,0,0,.74,1.12,2,2,0,0,0,1.22.42,2.63,2.63,0,0,0,2.2-1.44l.56.33a3.74,3.74,0,0,1-1.6,1.75,4.34,4.34,0,0,1-2.16.59,3.56,3.56,0,0,1-2.22-.74,3.17,3.17,0,0,1-1.2-1.75,17.61,17.61,0,0,1-.23-3.52v-8.16H557v-.8a3.68,3.68,0,0,0,2.59-1.22,5.81,5.81,0,0,0,1.46-3.3h.56v4.52h4.34Z"/><path class="cls-6" d="M580.91,405.75h-10c0,.7-.07,1.21-.07,1.55A11,11,0,0,0,572,413a3.92,3.92,0,0,0,3.55,1.9,4.63,4.63,0,0,0,4.53-2.86h.85a4.92,4.92,0,0,1-2.24,2.8,6.82,6.82,0,0,1-3.64,1,6.94,6.94,0,0,1-3.45-.92,7.46,7.46,0,0,1-2.66-2.61,7.71,7.71,0,0,1-1-4.1,8.27,8.27,0,0,1,2-5.67,6.44,6.44,0,0,1,5-2.25,5.57,5.57,0,0,1,4.38,1.72A5.91,5.91,0,0,1,580.91,405.75Zm-3.08-.7a6.71,6.71,0,0,0,0-.72,3,3,0,0,0-3.13-3.25q-3.19,0-3.81,4Z"/><path class="cls-6" d="M595.72,400.31h.48a8.14,8.14,0,0,1,.3,2.37,7.83,7.83,0,0,1,2.41-1.79,6.87,6.87,0,0,1,7.71,1.52,7.71,7.71,0,0,1,2,5.54,8.23,8.23,0,0,1-2,5.64,6.62,6.62,0,0,1-5.24,2.27,6.41,6.41,0,0,1-2.56-.53,7.84,7.84,0,0,1-2.31-1.59v5.46a28,28,0,0,0,.09,3,1.13,1.13,0,0,0,.56.82,3.66,3.66,0,0,0,1.7.27v.81h-7.52v-.81h.53a2.49,2.49,0,0,0,1.62-.36,1.38,1.38,0,0,0,.44-.86q.06-.5.06-2.91V406.12c0-1.53,0-2.5-.06-2.9a1.23,1.23,0,0,0-.5-.91,2.79,2.79,0,0,0-1.56-.32h-.53v-.81A29.38,29.38,0,0,0,595.72,400.31Zm.78,12.27a7,7,0,0,0,2,1.74,4.43,4.43,0,0,0,5.7-1.11q1.49-1.71,1.48-5.43a7.1,7.1,0,0,0-1.42-4.84,4.42,4.42,0,0,0-3.4-1.6,4.64,4.64,0,0,0-2.3.62,7.1,7.1,0,0,0-2.07,1.86Z"/><path class="cls-6" d="M624.41,405.75h-10c0,.7-.07,1.21-.07,1.55a11,11,0,0,0,1.19,5.71,3.89,3.89,0,0,0,3.54,1.9,4.63,4.63,0,0,0,4.54-2.86h.84a4.9,4.9,0,0,1-2.23,2.8,7,7,0,0,1-7.09.09,7.41,7.41,0,0,1-2.67-2.61,7.7,7.7,0,0,1-1-4.1,8.22,8.22,0,0,1,2-5.67,6.44,6.44,0,0,1,5-2.25,5.57,5.57,0,0,1,4.38,1.72A5.89,5.89,0,0,1,624.41,405.75Zm-3.08-.7a5,5,0,0,0,.06-.72,3,3,0,0,0-3.13-3.25c-2.13,0-3.41,1.32-3.82,4Z"/><path class="cls-6" d="M631.78,404a5.9,5.9,0,0,1,1.94-2.62,4.3,4.3,0,0,1,2.63-1.05,2.35,2.35,0,0,1,1.82.72,2.15,2.15,0,0,1,.67,1.47,1.23,1.23,0,0,1-.34.88,1.09,1.09,0,0,1-.83.37c-.59,0-1-.43-1.34-1.3-.21-.59-.53-.88-1-.88a2.89,2.89,0,0,0-1.81,1,4.76,4.76,0,0,0-1.35,2.14,12.08,12.08,0,0,0-.3,3v2.56c0,1.54,0,2.5.06,2.9a1.23,1.23,0,0,0,.5.92,2.81,2.81,0,0,0,1.56.31h.5v.81h-7.65v-.81h.37a2.82,2.82,0,0,0,1.5-.29,1.15,1.15,0,0,0,.54-.81,27.76,27.76,0,0,0,.09-3v-4.06c0-1.54,0-2.51-.07-2.91a1.22,1.22,0,0,0-.5-.91,2.69,2.69,0,0,0-1.56-.33h-.37v-.79a24.86,24.86,0,0,0,4.32-1A11.76,11.76,0,0,1,631.78,404Z"/><path class="cls-6" d="M649.37,415.74V411h.69c.79,2.73,2.22,4.1,4.27,4.1a2.41,2.41,0,0,0,2-.81,2.75,2.75,0,0,0,.66-1.78,2.51,2.51,0,0,0-.7-1.84,11.36,11.36,0,0,0-2.79-1.74,10.69,10.69,0,0,1-3.13-2.11,3.53,3.53,0,0,1-1-2.52,4.3,4.3,0,0,1,1-2.71,3.43,3.43,0,0,1,2.86-1.29,3.84,3.84,0,0,1,3.11,1.52,4.31,4.31,0,0,0,.69-1.28h.65V405h-.65a6.15,6.15,0,0,0-1.36-2.75,3.09,3.09,0,0,0-2.39-1.15,2.27,2.27,0,0,0-1.7.65,2.07,2.07,0,0,0-.65,1.51,2.16,2.16,0,0,0,.72,1.63,9.57,9.57,0,0,0,2.69,1.6c2,.91,3.21,1.78,3.66,2.64a5.53,5.53,0,0,1,.66,2.5,4,4,0,0,1-1.24,3.05,4.31,4.31,0,0,1-3.12,1.18,4.74,4.74,0,0,1-3.53-1.63,3.88,3.88,0,0,0-.77,1.51Z"/><path class="cls-6" d="M674.3,405.75h-10c0,.7-.07,1.21-.07,1.55a11,11,0,0,0,1.19,5.71,3.89,3.89,0,0,0,3.54,1.9,4.63,4.63,0,0,0,4.53-2.86h.85a4.94,4.94,0,0,1-2.23,2.8,6.87,6.87,0,0,1-3.64,1,7,7,0,0,1-3.46-.92,7.46,7.46,0,0,1-2.66-2.61,7.71,7.71,0,0,1-1-4.1,8.23,8.23,0,0,1,2-5.67,6.41,6.41,0,0,1,5-2.25,5.56,5.56,0,0,1,4.37,1.72A5.91,5.91,0,0,1,674.3,405.75Zm-3.08-.7a4.84,4.84,0,0,0,0-.72,3.15,3.15,0,0,0-.9-2.4,3.11,3.11,0,0,0-2.22-.85q-3.21,0-3.82,4Z"/><path class="cls-6" d="M676.58,422.14v-.88a5.38,5.38,0,0,0,2.9-1.91,4.52,4.52,0,0,0,1-2.73c0-.78-.25-1.16-.74-1.16a1.91,1.91,0,0,0-.45.09,1.86,1.86,0,0,1-.5.08,2,2,0,0,1-1.32-.46A1.55,1.55,0,0,1,677,414a1.85,1.85,0,0,1,.51-1.34,1.76,1.76,0,0,1,1.32-.53,2.39,2.39,0,0,1,2,1.15,4.71,4.71,0,0,1,.78,2.7,6.09,6.09,0,0,1-1.36,3.92A6.74,6.74,0,0,1,676.58,422.14Z"/><path class="cls-6" d="M311.24,440.31v10c0,1.54,0,2.5.07,2.9a1.28,1.28,0,0,0,.51.92,2.81,2.81,0,0,0,1.56.31h.37v.81H306v-.81h.6a2.49,2.49,0,0,0,1.62-.36,1.33,1.33,0,0,0,.44-.86c0-.33.07-1.3.07-2.91V446a11.13,11.13,0,0,0-.24-3.09,1.14,1.14,0,0,0-.63-.7,4.5,4.5,0,0,0-1.38-.14H306v-.81a21.45,21.45,0,0,0,4.85-.93ZM307.85,433a1.8,1.8,0,0,1,.53-1.3,1.73,1.73,0,0,1,1.29-.55,1.7,1.7,0,0,1,1.29.55,1.8,1.8,0,0,1,.53,1.3,1.86,1.86,0,0,1-.53,1.32,1.73,1.73,0,0,1-1.29.54,1.76,1.76,0,0,1-1.29-.54A1.86,1.86,0,0,1,307.85,433Z"/><path class="cls-6" d="M324.32,441.69H320v8.71a13.11,13.11,0,0,0,.17,2.69,1.94,1.94,0,0,0,.75,1.12,2,2,0,0,0,1.22.42,2.65,2.65,0,0,0,2.2-1.44l.56.33a3.71,3.71,0,0,1-1.61,1.75,4.33,4.33,0,0,1-2.15.59,3.56,3.56,0,0,1-2.23-.74,3.2,3.2,0,0,1-1.19-1.75,17.4,17.4,0,0,1-.24-3.52v-8.16h-2.09v-.8a3.65,3.65,0,0,0,2.58-1.22,5.74,5.74,0,0,0,1.46-3.3H320v4.52h4.34Z"/><path class="cls-6" d="M327.43,440.66v-.93q3.4-.68,3.41-3.82c0-.74-.22-1.11-.65-1.11a1.28,1.28,0,0,0-.35.06,2.57,2.57,0,0,1-.71.12,1.77,1.77,0,0,1-1.37-.55,1.71,1.71,0,0,1,0-2.45,1.79,1.79,0,0,1,1.35-.53,2.46,2.46,0,0,1,2,1.05,4.47,4.47,0,0,1,.83,2.83,5.3,5.3,0,0,1-1.17,3.47A5.43,5.43,0,0,1,327.43,440.66Z"/><path class="cls-6" d="M334.06,455.74V451h.68q1.2,4.1,4.27,4.1a2.43,2.43,0,0,0,2-.81,2.75,2.75,0,0,0,.66-1.78,2.52,2.52,0,0,0-.71-1.84,11.36,11.36,0,0,0-2.79-1.74,10.83,10.83,0,0,1-3.13-2.11,3.57,3.57,0,0,1-1-2.52,4.3,4.3,0,0,1,1-2.71,3.45,3.45,0,0,1,2.87-1.29,3.85,3.85,0,0,1,3.11,1.52,4.63,4.63,0,0,0,.68-1.28h.65V445h-.65a6,6,0,0,0-1.36-2.75A3.07,3.07,0,0,0,338,441.1a2.31,2.31,0,0,0-1.71.65,2.07,2.07,0,0,0-.65,1.51,2.16,2.16,0,0,0,.72,1.63,9.57,9.57,0,0,0,2.69,1.6c2,.91,3.21,1.78,3.66,2.64a5.55,5.55,0,0,1,.67,2.5,4,4,0,0,1-1.24,3.05,4.34,4.34,0,0,1-3.12,1.18,4.76,4.76,0,0,1-3.54-1.63,4,4,0,0,0-.77,1.51Z"/><path class="cls-6" d="M359.67,440.31v15.46a24.35,24.35,0,0,1-.19,3.54,5.8,5.8,0,0,1-.92,2.35,5.25,5.25,0,0,1-2.08,1.8,6.57,6.57,0,0,1-3,.68,5.43,5.43,0,0,1-2.69-.61,1.81,1.81,0,0,1-1.08-1.57,1.08,1.08,0,0,1,.34-.86,1.13,1.13,0,0,1,.76-.3c.53,0,1,.38,1.3,1.13a2,2,0,0,0,1.88,1.44,2.94,2.94,0,0,0,2-.73,3.07,3.07,0,0,0,1-1.88,24.78,24.78,0,0,0,.19-3.68V446a16.3,16.3,0,0,0-.15-2.81,1.26,1.26,0,0,0-.56-.89,3.46,3.46,0,0,0-1.52-.22h-.44v-.81a21.15,21.15,0,0,0,4.8-.93ZM356.2,433a1.8,1.8,0,0,1,.53-1.3,1.8,1.8,0,0,1,2.59,0,1.79,1.79,0,0,1,.52,1.3,1.86,1.86,0,0,1-.53,1.32,1.75,1.75,0,0,1-1.28.54,1.72,1.72,0,0,1-1.31-.56A1.9,1.9,0,0,1,356.2,433Z"/><path class="cls-6" d="M378.25,440.89v9.44c0,1.57,0,2.55.07,2.95a1.13,1.13,0,0,0,.52.89,3,3,0,0,0,1.6.3v.81a11.17,11.17,0,0,0-3.9.56h-.21a7.45,7.45,0,0,1-.6-3.34,7.69,7.69,0,0,1-2.45,2.52,5.76,5.76,0,0,1-3,.84,4.89,4.89,0,0,1-2.55-.66,3.54,3.54,0,0,1-1.52-1.61,7.62,7.62,0,0,1-.41-2.86v-4.9a28.24,28.24,0,0,0-.09-3.05,1.08,1.08,0,0,0-.55-.82,3.76,3.76,0,0,0-1.72-.27v-.8h4.89v10a9,9,0,0,0,.18,2.14,2,2,0,0,0,.89,1.17,2.82,2.82,0,0,0,1.67.5,4.37,4.37,0,0,0,2.59-.88,5,5,0,0,0,1.68-1.88,7.34,7.34,0,0,0,.44-2.84v-3.25c0-1.58,0-2.53-.05-2.87a1.35,1.35,0,0,0-.45-.89,2.49,2.49,0,0,0-1.64-.38h-.37v-.8Z"/><path class="cls-6" d="M382.82,455.74V451h.68q1.2,4.1,4.27,4.1a2.42,2.42,0,0,0,2-.81,2.75,2.75,0,0,0,.66-1.78,2.55,2.55,0,0,0-.7-1.84,11.47,11.47,0,0,0-2.8-1.74,10.83,10.83,0,0,1-3.13-2.11,3.57,3.57,0,0,1-.95-2.52,4.3,4.3,0,0,1,1-2.71,3.45,3.45,0,0,1,2.87-1.29,3.85,3.85,0,0,1,3.11,1.52,4.63,4.63,0,0,0,.68-1.28h.65V445h-.65a6,6,0,0,0-1.36-2.75,3.07,3.07,0,0,0-2.38-1.15,2.31,2.31,0,0,0-1.71.65,2.07,2.07,0,0,0-.65,1.51,2.14,2.14,0,0,0,.73,1.63,9.33,9.33,0,0,0,2.68,1.6c2,.91,3.22,1.78,3.66,2.64a5.42,5.42,0,0,1,.67,2.5,4,4,0,0,1-1.24,3.05,4.34,4.34,0,0,1-3.12,1.18,4.74,4.74,0,0,1-3.53-1.63,3.88,3.88,0,0,0-.78,1.51Z"/><path class="cls-6" d="M403.24,441.69H398.9v8.71a12.88,12.88,0,0,0,.18,2.69,1.88,1.88,0,0,0,.74,1.12,2.05,2.05,0,0,0,1.23.42,2.63,2.63,0,0,0,2.19-1.44l.57.33a3.76,3.76,0,0,1-1.61,1.75,4.34,4.34,0,0,1-2.16.59,3.56,3.56,0,0,1-2.22-.74,3.1,3.1,0,0,1-1.19-1.75,17.4,17.4,0,0,1-.24-3.52v-8.16H394.3v-.8a3.65,3.65,0,0,0,2.58-1.22,5.81,5.81,0,0,0,1.46-3.3h.56v4.52h4.34Z"/><path class="cls-6" d="M422.74,441.69H418.4v8.71a13.11,13.11,0,0,0,.17,2.69,1.94,1.94,0,0,0,.75,1.12,2,2,0,0,0,1.22.42,2.65,2.65,0,0,0,2.2-1.44l.56.33a3.71,3.71,0,0,1-1.61,1.75,4.33,4.33,0,0,1-2.15.59,3.56,3.56,0,0,1-2.23-.74,3.2,3.2,0,0,1-1.19-1.75,17.4,17.4,0,0,1-.24-3.52v-8.16h-2.09v-.8a3.65,3.65,0,0,0,2.58-1.22,5.74,5.74,0,0,0,1.46-3.3h.57v4.52h4.34Z"/><path class="cls-6" d="M429.22,443.26a7.49,7.49,0,0,1,2.37-2.22,5.75,5.75,0,0,1,2.87-.73,5.44,5.44,0,0,1,3,.73,3.47,3.47,0,0,1,1.52,1.82,12.65,12.65,0,0,1,.35,3.51v4a25.09,25.09,0,0,0,.1,3.08,1.06,1.06,0,0,0,.57.8,4.11,4.11,0,0,0,1.75.25v.81h-7.43v-.81h.33a2.49,2.49,0,0,0,1.66-.37,1.36,1.36,0,0,0,.44-.87c0-.33.06-1.29.06-2.89V446a12.27,12.27,0,0,0-.21-2.66,2.45,2.45,0,0,0-1-1.42,3.29,3.29,0,0,0-2-.56,4,4,0,0,0-2.46.8,6.64,6.64,0,0,0-1.92,2.4v5.76c0,1.62,0,2.62.08,3a1.14,1.14,0,0,0,.54.85,3.28,3.28,0,0,0,1.67.29v.81H424.2v-.81h.37a2.54,2.54,0,0,0,1.64-.36,1.38,1.38,0,0,0,.44-.86q.06-.5.06-2.91V436a5.78,5.78,0,0,0-.41-2.76c-.28-.39-.94-.58-2-.58v-.81a12.05,12.05,0,0,0,4.53-.74h.37Z"/><path class="cls-6" d="M458.33,452.65H459c-.1,2-1.09,3-3,3a2.7,2.7,0,0,1-1.89-.63,3.18,3.18,0,0,1-.9-1.88A18.94,18.94,0,0,1,450,455a6.63,6.63,0,0,1-2.6.63,3.9,3.9,0,0,1-2.51-.84,2.73,2.73,0,0,1-1.05-2.23,3.94,3.94,0,0,1,1.76-3.17,22.22,22.22,0,0,1,4.88-2.64l2.73-1.1V445a8.5,8.5,0,0,0-.2-2.16,2.22,2.22,0,0,0-1-1.19,3.78,3.78,0,0,0-2.13-.53c-1.75,0-2.73.58-2.93,1.76s-.68,1.79-1.48,1.79-1.07-.34-1.07-1a3,3,0,0,1,1.42-2.15,7,7,0,0,1,4.43-1.15,7.08,7.08,0,0,1,3.47.7,3.61,3.61,0,0,1,1.62,1.6,7.22,7.22,0,0,1,.4,2.74v5.82a9.87,9.87,0,0,0,.21,2.62.87.87,0,0,0,.91.58C457.67,454.37,458.15,453.79,458.33,452.65Zm-5.09-6.16-1.92.78c-3,1.23-4.54,2.77-4.54,4.64a2.66,2.66,0,0,0,.58,1.78,1.91,1.91,0,0,0,1.52.68,4.28,4.28,0,0,0,1.91-.55,14.35,14.35,0,0,0,2.45-1.63Z"/><path class="cls-6" d="M468.88,441.69h-4.34v8.71a13.9,13.9,0,0,0,.17,2.69,1.94,1.94,0,0,0,.75,1.12,2,2,0,0,0,1.22.42,2.63,2.63,0,0,0,2.2-1.44l.56.33a3.71,3.71,0,0,1-1.61,1.75,4.28,4.28,0,0,1-2.15.59,3.56,3.56,0,0,1-2.22-.74,3.17,3.17,0,0,1-1.2-1.75,17.4,17.4,0,0,1-.24-3.52v-8.16h-2.09v-.8a3.69,3.69,0,0,0,2.59-1.22,5.88,5.88,0,0,0,1.46-3.3h.56v4.52h4.34Z"/><path class="cls-6" d="M488.37,441.69H484v8.71a12.88,12.88,0,0,0,.18,2.69,1.9,1.9,0,0,0,.75,1.12,2,2,0,0,0,1.22.42,2.63,2.63,0,0,0,2.19-1.44l.57.33a3.76,3.76,0,0,1-1.61,1.75,4.34,4.34,0,0,1-2.16.59,3.56,3.56,0,0,1-2.22-.74,3.1,3.1,0,0,1-1.19-1.75,17.4,17.4,0,0,1-.24-3.52v-8.16h-2.09v-.8a3.65,3.65,0,0,0,2.58-1.22,5.81,5.81,0,0,0,1.46-3.3H484v4.52h4.34Z"/><path class="cls-6" d="M494.86,443.26a7.46,7.46,0,0,1,2.36-2.22,5.82,5.82,0,0,1,2.88-.73A5.43,5.43,0,0,1,503,441a3.42,3.42,0,0,1,1.52,1.82,12.19,12.19,0,0,1,.36,3.51v4a28.7,28.7,0,0,0,.09,3.08,1.11,1.11,0,0,0,.57.8,4.19,4.19,0,0,0,1.76.25v.81h-7.43v-.81h.33a2.51,2.51,0,0,0,1.66-.37,1.41,1.41,0,0,0,.44-.87c0-.33.06-1.29.06-2.89V446a12.27,12.27,0,0,0-.21-2.66,2.45,2.45,0,0,0-1-1.42,3.31,3.31,0,0,0-2-.56,4,4,0,0,0-2.46.8,6.64,6.64,0,0,0-1.92,2.4v5.76c0,1.62,0,2.62.08,3a1.11,1.11,0,0,0,.54.85,3.28,3.28,0,0,0,1.67.29v.81h-7.32v-.81h.37a2.57,2.57,0,0,0,1.65-.36,1.43,1.43,0,0,0,.44-.86q.06-.5.06-2.91V436a5.61,5.61,0,0,0-.42-2.76c-.27-.39-.93-.58-2-.58v-.81a12.13,12.13,0,0,0,4.53-.74h.37Z"/><path class="cls-6" d="M522.49,445.75h-10c-.05.7-.07,1.21-.07,1.55a11,11,0,0,0,1.18,5.71,3.89,3.89,0,0,0,3.54,1.9,4.63,4.63,0,0,0,4.54-2.86h.84a4.9,4.9,0,0,1-2.23,2.8,7,7,0,0,1-7.09.09,7.49,7.49,0,0,1-2.67-2.61,7.7,7.7,0,0,1-1-4.1,8.27,8.27,0,0,1,2-5.67,6.44,6.44,0,0,1,5-2.25,5.57,5.57,0,0,1,4.38,1.72A5.89,5.89,0,0,1,522.49,445.75Zm-3.07-.7a6.71,6.71,0,0,0,.05-.72,3,3,0,0,0-3.13-3.25q-3.2,0-3.81,4Z"/><path class="cls-6" d="M529.86,444a6,6,0,0,1,1.94-2.62,4.3,4.3,0,0,1,2.63-1.05,2.39,2.39,0,0,1,1.83.72,2.18,2.18,0,0,1,.66,1.47,1.23,1.23,0,0,1-.34.88,1.07,1.07,0,0,1-.83.37c-.59,0-1-.43-1.34-1.3-.21-.59-.53-.88-.95-.88a2.89,2.89,0,0,0-1.81,1,4.76,4.76,0,0,0-1.35,2.14,12.08,12.08,0,0,0-.3,3v2.56c0,1.54,0,2.5.06,2.9a1.23,1.23,0,0,0,.5.92,2.84,2.84,0,0,0,1.57.31h.49v.81H525v-.81h.37a2.82,2.82,0,0,0,1.5-.29,1.15,1.15,0,0,0,.54-.81,27.76,27.76,0,0,0,.09-3v-4.06q0-2.31-.06-2.91a1.25,1.25,0,0,0-.5-.91,2.75,2.75,0,0,0-1.57-.33H525v-.79a25.15,25.15,0,0,0,4.33-1A11.8,11.8,0,0,1,529.86,444Z"/><path class="cls-6" d="M551,445.75H541c0,.7-.07,1.21-.07,1.55A11,11,0,0,0,542.1,453a3.89,3.89,0,0,0,3.54,1.9,4.63,4.63,0,0,0,4.54-2.86H551a4.9,4.9,0,0,1-2.23,2.8,7,7,0,0,1-7.09.09,7.49,7.49,0,0,1-2.67-2.61,7.7,7.7,0,0,1-1-4.1,8.27,8.27,0,0,1,2-5.67,6.44,6.44,0,0,1,5-2.25,5.57,5.57,0,0,1,4.38,1.72A5.89,5.89,0,0,1,551,445.75Zm-3.07-.7a6.71,6.71,0,0,0,0-.72,3,3,0,0,0-3.13-3.25q-3.2,0-3.81,4Z"/><path class="cls-6" d="M567.19,440.31v10c0,1.54,0,2.5.07,2.9a1.28,1.28,0,0,0,.51.92,2.87,2.87,0,0,0,1.57.31h.37v.81H562v-.81h.59a2.5,2.5,0,0,0,1.63-.36,1.38,1.38,0,0,0,.44-.86q.06-.5.06-2.91V446a11.13,11.13,0,0,0-.24-3.09,1.11,1.11,0,0,0-.63-.7,4.41,4.41,0,0,0-1.38-.14H562v-.81a21.56,21.56,0,0,0,4.85-.93ZM563.8,433a1.77,1.77,0,0,1,.54-1.3,1.73,1.73,0,0,1,1.29-.55,1.7,1.7,0,0,1,1.28.55,1.8,1.8,0,0,1,.53,1.3,1.86,1.86,0,0,1-.53,1.32,1.72,1.72,0,0,1-1.28.54,1.76,1.76,0,0,1-1.29-.54A1.83,1.83,0,0,1,563.8,433Z"/><path class="cls-6" d="M571.85,455.74V451h.69c.79,2.73,2.22,4.1,4.27,4.1a2.4,2.4,0,0,0,2-.81,2.75,2.75,0,0,0,.66-1.78,2.51,2.51,0,0,0-.7-1.84,11.36,11.36,0,0,0-2.79-1.74,10.69,10.69,0,0,1-3.13-2.11,3.53,3.53,0,0,1-1-2.52,4.3,4.3,0,0,1,1-2.71,3.43,3.43,0,0,1,2.86-1.29,3.84,3.84,0,0,1,3.11,1.52,4.31,4.31,0,0,0,.69-1.28h.65V445h-.65a6.15,6.15,0,0,0-1.36-2.75,3.08,3.08,0,0,0-2.38-1.15,2.28,2.28,0,0,0-1.71.65,2.07,2.07,0,0,0-.65,1.51,2.16,2.16,0,0,0,.72,1.63,9.57,9.57,0,0,0,2.69,1.6c2,.91,3.21,1.78,3.66,2.64a5.53,5.53,0,0,1,.66,2.5,4,4,0,0,1-1.24,3.05,4.31,4.31,0,0,1-3.12,1.18,4.74,4.74,0,0,1-3.53-1.63,4,4,0,0,0-.77,1.51Z"/><path class="cls-6" d="M608.68,455.84h-.79l-4.29-11.42-4.38,11.42h-.77l-4.4-11.42a9.54,9.54,0,0,0-1.12-2.34,2.07,2.07,0,0,0-1.48-.39v-.8H598v.8a3.72,3.72,0,0,0-1.52.21.71.71,0,0,0-.4.69,9.25,9.25,0,0,0,.69,2.06l2.91,7.71,4.47-11.47h.68l4.33,11.47,3.16-8.17a7.47,7.47,0,0,0,.51-1.56c0-.58-.59-.89-1.77-.94v-.8h4.67v.8a2.56,2.56,0,0,0-1.32.33,2.68,2.68,0,0,0-.89,1.38l-.39,1Z"/><path class="cls-6" d="M631.64,452.65h.65c-.11,2-1.09,3-3,3a2.73,2.73,0,0,1-1.89-.63,3.18,3.18,0,0,1-.9-1.88,18.19,18.19,0,0,1-3.21,1.88,6.63,6.63,0,0,1-2.59.63,3.93,3.93,0,0,1-2.52-.84,2.73,2.73,0,0,1-1.05-2.23,3.93,3.93,0,0,1,1.77-3.17,21.89,21.89,0,0,1,4.87-2.64l2.73-1.1V445a8.5,8.5,0,0,0-.2-2.16,2.17,2.17,0,0,0-1-1.19,3.77,3.77,0,0,0-2.12-.53c-1.76,0-2.74.58-2.94,1.76s-.68,1.79-1.48,1.79-1.07-.34-1.07-1a3.05,3.05,0,0,1,1.43-2.15,6.94,6.94,0,0,1,4.42-1.15,7.06,7.06,0,0,1,3.47.7,3.61,3.61,0,0,1,1.62,1.6,7,7,0,0,1,.4,2.74v5.82a9.87,9.87,0,0,0,.21,2.62.88.88,0,0,0,.91.58C631,454.37,631.45,453.79,631.64,452.65Zm-5.1-6.16-1.92.78c-3,1.23-4.53,2.77-4.53,4.64a2.61,2.61,0,0,0,.58,1.78,1.89,1.89,0,0,0,1.51.68,4.28,4.28,0,0,0,1.91-.55,14,14,0,0,0,2.45-1.63Z"/><path class="cls-6" d="M641.64,452.56l3.34-8a13.3,13.3,0,0,0,.72-1.95c0-.59-.65-.89-2-.92v-.8h5.06v.8a2.45,2.45,0,0,0-1.72.63,9.06,9.06,0,0,0-1.36,2.52l-6.41,15.49a11.69,11.69,0,0,1-1.62,3,2.05,2.05,0,0,1-1.55.8c-.76,0-1.14-.34-1.14-1s.61-1.47,1.83-2a5.36,5.36,0,0,0,1.43-.81,3.29,3.29,0,0,0,.71-1.21l1.37-3.43L634.94,444a6.54,6.54,0,0,0-1.19-1.93,2.52,2.52,0,0,0-1.62-.41v-.8h6.61v.8q-1.74.06-1.74.72a7.93,7.93,0,0,0,.68,1.73Z"/><path class="cls-6" d="M667.69,441.69h-4.34v8.71a13.9,13.9,0,0,0,.17,2.69,1.94,1.94,0,0,0,.75,1.12,2,2,0,0,0,1.22.42,2.65,2.65,0,0,0,2.2-1.44l.56.33a3.71,3.71,0,0,1-1.61,1.75,4.31,4.31,0,0,1-2.15.59,3.53,3.53,0,0,1-2.22-.74,3.17,3.17,0,0,1-1.2-1.75,17.4,17.4,0,0,1-.24-3.52v-8.16h-2.09v-.8a3.69,3.69,0,0,0,2.59-1.22,5.8,5.8,0,0,0,1.45-3.3h.57v4.52h4.34Z"/><path class="cls-6" d="M669.64,448.06a7.53,7.53,0,0,1,2.21-5.53,7.81,7.81,0,0,1,10.92,0,7.53,7.53,0,0,1,2.22,5.52,7.42,7.42,0,0,1-2.25,5.72,7.72,7.72,0,0,1-5.44,2.08,7.58,7.58,0,0,1-5.42-2.12A7.45,7.45,0,0,1,669.64,448.06Zm2.92.09c0,2.55.41,4.34,1.25,5.37a4.79,4.79,0,0,0,7,0q1.21-1.54,1.22-5.37c0-2.54-.4-4.34-1.21-5.42a4.67,4.67,0,0,0-7.06,0C673,443.79,672.56,445.6,672.56,448.15Z"/><path class="cls-6" d="M687.64,448.06a7.53,7.53,0,0,1,2.21-5.53,7.81,7.81,0,0,1,10.92,0,7.53,7.53,0,0,1,2.22,5.52,7.42,7.42,0,0,1-2.25,5.72,7.72,7.72,0,0,1-5.44,2.08,7.58,7.58,0,0,1-5.42-2.12A7.45,7.45,0,0,1,687.64,448.06Zm2.92.09c0,2.55.41,4.34,1.25,5.37a4.79,4.79,0,0,0,7,0q1.21-1.54,1.22-5.37c0-2.54-.4-4.34-1.21-5.42a4.67,4.67,0,0,0-7.06,0C691,443.79,690.56,445.6,690.56,448.15Z"/><path class="cls-6" d="M310.48,480.31h.18a7.63,7.63,0,0,1,.51,3,8.48,8.48,0,0,1,2.54-2.27,6,6,0,0,1,2.93-.75,4.83,4.83,0,0,1,2.88.8,4.3,4.3,0,0,1,1.55,2.43,10.26,10.26,0,0,1,2.74-2.43,5.76,5.76,0,0,1,2.86-.8,4.93,4.93,0,0,1,2.83.77,3,3,0,0,1,1.41,1.76,14.66,14.66,0,0,1,.25,3.18v4.32a28.35,28.35,0,0,0,.09,3.06,1.13,1.13,0,0,0,.56.81,3.9,3.9,0,0,0,1.74.26v.81h-7.19v-.81a3.59,3.59,0,0,0,1.6-.25,1.08,1.08,0,0,0,.58-.77,25.15,25.15,0,0,0,.1-3.11v-4.8a10,10,0,0,0-.17-2.19,2.14,2.14,0,0,0-.87-1.27,2.94,2.94,0,0,0-1.82-.53,4.07,4.07,0,0,0-2.3.78,9.62,9.62,0,0,0-2.31,2.33v5.68c0,1.54,0,2.5.06,2.89a1.28,1.28,0,0,0,.49.92,2.65,2.65,0,0,0,1.54.32v.81h-7v-.81a4,4,0,0,0,1.65-.24,1.12,1.12,0,0,0,.58-.76,24.29,24.29,0,0,0,.11-3.13v-4a17.79,17.79,0,0,0-.15-2.75,2.36,2.36,0,0,0-.91-1.46,2.92,2.92,0,0,0-1.88-.6,4.21,4.21,0,0,0-2.22.7,9.78,9.78,0,0,0-2.31,2.11v6c0,1.58,0,2.57.07,3a1.14,1.14,0,0,0,.53.87,3.16,3.16,0,0,0,1.63.3v.81h-7v-.81a3.69,3.69,0,0,0,1.63-.25,1.1,1.1,0,0,0,.57-.77,24,24,0,0,0,.11-3.11V486c0-1.64,0-2.65-.08-3a1.11,1.11,0,0,0-.55-.83,3.49,3.49,0,0,0-1.68-.28v-.81A19.81,19.81,0,0,0,310.48,480.31Z"/><path class="cls-6" d="M349.28,480.89v9.44c0,1.57,0,2.55.07,2.95a1.16,1.16,0,0,0,.52.89,3.07,3.07,0,0,0,1.61.3v.81a11.19,11.19,0,0,0-3.91.56h-.21a7.45,7.45,0,0,1-.6-3.34,7.69,7.69,0,0,1-2.45,2.52,5.74,5.74,0,0,1-3.05.84,4.89,4.89,0,0,1-2.55-.66,3.59,3.59,0,0,1-1.52-1.61,7.62,7.62,0,0,1-.41-2.86v-4.9a28.24,28.24,0,0,0-.09-3.05,1.08,1.08,0,0,0-.55-.82,3.76,3.76,0,0,0-1.72-.27v-.8h4.89v10a9,9,0,0,0,.18,2.14,2,2,0,0,0,.89,1.17,2.82,2.82,0,0,0,1.67.5,4.35,4.35,0,0,0,2.59-.88,5,5,0,0,0,1.68-1.88,7.15,7.15,0,0,0,.44-2.84v-3.25c0-1.58,0-2.53-.05-2.87a1.35,1.35,0,0,0-.45-.89,2.49,2.49,0,0,0-1.64-.38h-.37v-.8Z"/><path class="cls-6" d="M366.15,491.77h.78q-1.2,4.1-6,4.09a7.07,7.07,0,0,1-5.18-2.09,7.46,7.46,0,0,1-2.1-5.54,7.64,7.64,0,0,1,2.27-5.73,7.46,7.46,0,0,1,5.36-2.19,7.35,7.35,0,0,1,3.43.81c1,.55,1.56,1.21,1.56,2a1.29,1.29,0,0,1-.29.82,1,1,0,0,1-.83.39c-.77,0-1.25-.45-1.42-1.35a2.69,2.69,0,0,0-.66-1.43,2.76,2.76,0,0,0-1.77-.4,4.09,4.09,0,0,0-3.54,1.63,8.39,8.39,0,0,0-1.19,4.93,9.46,9.46,0,0,0,1.28,5.3,4.29,4.29,0,0,0,3.85,1.92A4.16,4.16,0,0,0,366.15,491.77Z"/><path class="cls-6" d="M373.24,483.26A7.46,7.46,0,0,1,375.6,481a5.76,5.76,0,0,1,2.88-.73,5.43,5.43,0,0,1,2.94.73,3.42,3.42,0,0,1,1.52,1.82,12.65,12.65,0,0,1,.35,3.51v4a25.09,25.09,0,0,0,.1,3.08,1.06,1.06,0,0,0,.57.8,4.16,4.16,0,0,0,1.76.25v.81h-7.44v-.81h.34a2.51,2.51,0,0,0,1.66-.37,1.41,1.41,0,0,0,.44-.87c0-.33.06-1.29.06-2.89V486a12.27,12.27,0,0,0-.21-2.66,2.43,2.43,0,0,0-1-1.42,3.29,3.29,0,0,0-2-.56,4,4,0,0,0-2.46.8,6.73,6.73,0,0,0-1.91,2.4v5.76a28.82,28.82,0,0,0,.08,3,1.13,1.13,0,0,0,.53.85,3.31,3.31,0,0,0,1.67.29v.81h-7.31v-.81h.37a2.54,2.54,0,0,0,1.64-.36,1.38,1.38,0,0,0,.44-.86q.06-.5.06-2.91V476a5.65,5.65,0,0,0-.41-2.76c-.27-.39-.93-.58-2-.58v-.81a12.15,12.15,0,0,0,4.54-.74h.37Z"/><path class="cls-6" d="M401.29,480.31v10c0,1.54,0,2.5.07,2.9a1.28,1.28,0,0,0,.51.92,2.87,2.87,0,0,0,1.57.31h.37v.81h-7.76v-.81h.6a2.52,2.52,0,0,0,1.63-.36,1.38,1.38,0,0,0,.44-.86q.06-.5.06-2.91V486a11.13,11.13,0,0,0-.24-3.09,1.14,1.14,0,0,0-.63-.7,4.5,4.5,0,0,0-1.38-.14h-.48v-.81a21.55,21.55,0,0,0,4.86-.93ZM397.9,473a1.77,1.77,0,0,1,.54-1.3,1.78,1.78,0,0,1,2.57,0,1.8,1.8,0,0,1,.53,1.3,1.86,1.86,0,0,1-.53,1.32,1.8,1.8,0,0,1-2.57,0A1.83,1.83,0,0,1,397.9,473Z"/><path class="cls-6" d="M409.45,480.31h.47a9.62,9.62,0,0,1,.46,3A9.31,9.31,0,0,1,413,481a6.15,6.15,0,0,1,2.9-.73,5.1,5.1,0,0,1,2.83.72,3.25,3.25,0,0,1,1.41,1.76,11.22,11.22,0,0,1,.32,3v4.5a28,28,0,0,0,.09,3,1.07,1.07,0,0,0,.55.82,3.74,3.74,0,0,0,1.71.27v.81h-7.36v-.81h.33a2.48,2.48,0,0,0,1.65-.37,1.31,1.31,0,0,0,.44-.86c0-.33.06-1.29.06-2.9V485.7a12.29,12.29,0,0,0-.17-2.43,2.23,2.23,0,0,0-.9-1.29,2.9,2.9,0,0,0-1.85-.57,4.4,4.4,0,0,0-2.45.77,8.1,8.1,0,0,0-2.21,2.29v5.87a24.48,24.48,0,0,0,.1,3,1.11,1.11,0,0,0,.56.82,3.81,3.81,0,0,0,1.73.27v.81h-7.28v-.81a4.14,4.14,0,0,0,1.69-.24,1.11,1.11,0,0,0,.59-.75,22.41,22.41,0,0,0,.11-3.14v-4.29a28.24,28.24,0,0,0-.09-3.05,1.12,1.12,0,0,0-.57-.8,3.62,3.62,0,0,0-1.73-.28v-.81A23.37,23.37,0,0,0,409.45,480.31Z"/><path class="cls-6" d="M432.37,480.89v.8h-3v8.65c0,1.54,0,2.5.07,2.9a1.2,1.2,0,0,0,.5.92,2.81,2.81,0,0,0,1.56.31h.76v.81h-7.79v-.81a4.05,4.05,0,0,0,1.68-.24,1.12,1.12,0,0,0,.58-.75,24.27,24.27,0,0,0,.11-3.14v-8.65h-2.69v-.8h2.69v-1.31a24.1,24.1,0,0,1,.18-3.37,6.41,6.41,0,0,1,1-2.47,5.75,5.75,0,0,1,2.06-2,5.94,5.94,0,0,1,2.94-.69,5.73,5.73,0,0,1,3.33.87c.83.57,1.24,1.16,1.24,1.75a1.12,1.12,0,0,1-.35.85,1.16,1.16,0,0,1-.82.33c-.63,0-1.19-.48-1.71-1.44a2.54,2.54,0,0,0-2.23-1.58,2.67,2.67,0,0,0-1.94.8,3.28,3.28,0,0,0-1,2c-.1.8-.16,2.51-.16,5.14v1.09Z"/><path class="cls-6" d="M434.36,488.06a7.49,7.49,0,0,1,2.21-5.53,7.81,7.81,0,0,1,10.92,0,7.56,7.56,0,0,1,2.21,5.52,7.42,7.42,0,0,1-2.25,5.72,7.7,7.7,0,0,1-5.43,2.08,7.57,7.57,0,0,1-5.42-2.12A7.41,7.41,0,0,1,434.36,488.06Zm2.91.09q0,3.83,1.25,5.37a4.79,4.79,0,0,0,7,0q1.23-1.54,1.23-5.37c0-2.54-.41-4.34-1.22-5.42a4.65,4.65,0,0,0-7.05,0Q437.27,484.33,437.27,488.15Z"/><path class="cls-6" d="M457,484a6,6,0,0,1,1.95-2.62,4.28,4.28,0,0,1,2.62-1.05,2.36,2.36,0,0,1,1.83.72,2.15,2.15,0,0,1,.67,1.47,1.23,1.23,0,0,1-.34.88,1.09,1.09,0,0,1-.84.37c-.58,0-1-.43-1.33-1.3-.21-.59-.53-.88-.95-.88a2.86,2.86,0,0,0-1.81,1,4.7,4.7,0,0,0-1.36,2.14,12.16,12.16,0,0,0-.29,3v2.56c0,1.54,0,2.5.06,2.9a1.2,1.2,0,0,0,.5.92,2.81,2.81,0,0,0,1.56.31h.49v.81h-7.64v-.81h.37a2.82,2.82,0,0,0,1.5-.29,1.15,1.15,0,0,0,.54-.81c0-.36.08-1.36.08-3v-4.06q0-2.31-.06-2.91a1.25,1.25,0,0,0-.5-.91,2.69,2.69,0,0,0-1.56-.33h-.37v-.79a24.86,24.86,0,0,0,4.32-1A11.51,11.51,0,0,1,457,484Z"/><path class="cls-6" d="M470.5,480.31h.17a7.63,7.63,0,0,1,.51,3,8.6,8.6,0,0,1,2.54-2.27,6,6,0,0,1,2.93-.75,4.83,4.83,0,0,1,2.88.8,4.25,4.25,0,0,1,1.55,2.43,10.26,10.26,0,0,1,2.74-2.43,5.77,5.77,0,0,1,2.87-.8,5,5,0,0,1,2.83.77,3,3,0,0,1,1.4,1.76,14,14,0,0,1,.25,3.18v4.32a24.78,24.78,0,0,0,.1,3.06,1.11,1.11,0,0,0,.56.81,3.85,3.85,0,0,0,1.73.26v.81h-7.19v-.81a3.64,3.64,0,0,0,1.61-.25,1.1,1.1,0,0,0,.57-.77,24.22,24.22,0,0,0,.11-3.11v-4.8a10.7,10.7,0,0,0-.17-2.19,2.14,2.14,0,0,0-.87-1.27,3,3,0,0,0-1.83-.53,4,4,0,0,0-2.29.78,9.82,9.82,0,0,0-2.32,2.33v5.68c0,1.54,0,2.5.07,2.89a1.24,1.24,0,0,0,.49.92,2.65,2.65,0,0,0,1.54.32v.81h-7v-.81a3.93,3.93,0,0,0,1.64-.24,1.12,1.12,0,0,0,.58-.76,22.42,22.42,0,0,0,.11-3.13v-4a17.79,17.79,0,0,0-.15-2.75,2.39,2.39,0,0,0-.9-1.46,2.94,2.94,0,0,0-1.88-.6,4.21,4.21,0,0,0-2.23.7,10.19,10.19,0,0,0-2.31,2.11v6c0,1.58,0,2.57.07,3a1.17,1.17,0,0,0,.53.87,3.18,3.18,0,0,0,1.64.3v.81h-7.05v-.81a3.66,3.66,0,0,0,1.62-.25,1.1,1.1,0,0,0,.57-.77,24,24,0,0,0,.11-3.11V486c0-1.64,0-2.65-.08-3a1.06,1.06,0,0,0-.55-.83,3.47,3.47,0,0,0-1.67-.28v-.81A20,20,0,0,0,470.5,480.31Z"/><path class="cls-6" d="M510.19,492.65h.65c-.11,2-1.09,3-2.95,3A2.7,2.7,0,0,1,506,495a3.13,3.13,0,0,1-.91-1.88,18.19,18.19,0,0,1-3.21,1.88,6.59,6.59,0,0,1-2.59.63,3.9,3.9,0,0,1-2.51-.84,2.72,2.72,0,0,1-1.06-2.23,3.93,3.93,0,0,1,1.77-3.17,22,22,0,0,1,4.88-2.64l2.72-1.1V485a8.61,8.61,0,0,0-.19-2.16,2.26,2.26,0,0,0-1-1.19,3.78,3.78,0,0,0-2.13-.53c-1.76,0-2.74.58-2.94,1.76s-.68,1.79-1.47,1.79-1.08-.34-1.08-1a3.05,3.05,0,0,1,1.43-2.15,9,9,0,0,1,7.89-.45,3.69,3.69,0,0,1,1.63,1.6,7.26,7.26,0,0,1,.39,2.74v5.82a9.87,9.87,0,0,0,.21,2.62.88.88,0,0,0,.92.58C509.52,494.37,510,493.79,510.19,492.65Zm-5.1-6.16-1.92.78c-3,1.23-4.53,2.77-4.53,4.64a2.61,2.61,0,0,0,.58,1.78,1.91,1.91,0,0,0,1.51.68,4.36,4.36,0,0,0,1.92-.55,14.32,14.32,0,0,0,2.44-1.63Z"/><path class="cls-6" d="M520.74,481.69h-4.35v8.71a12.88,12.88,0,0,0,.18,2.69,1.94,1.94,0,0,0,.75,1.12,2,2,0,0,0,1.22.42,2.66,2.66,0,0,0,2.2-1.44l.56.33a3.76,3.76,0,0,1-1.61,1.75,4.33,4.33,0,0,1-2.15.59,3.56,3.56,0,0,1-2.23-.74,3.15,3.15,0,0,1-1.19-1.75,17.4,17.4,0,0,1-.24-3.52v-8.16h-2.09v-.8a3.65,3.65,0,0,0,2.58-1.22,5.81,5.81,0,0,0,1.46-3.3h.56v4.52h4.35Z"/><path class="cls-6" d="M527.15,480.31v10c0,1.54,0,2.5.07,2.9a1.28,1.28,0,0,0,.51.92,2.84,2.84,0,0,0,1.57.31h.37v.81h-7.76v-.81h.6a2.54,2.54,0,0,0,1.63-.36,1.38,1.38,0,0,0,.44-.86q.06-.5.06-2.91V486a11.13,11.13,0,0,0-.24-3.09,1.14,1.14,0,0,0-.63-.7,4.5,4.5,0,0,0-1.38-.14h-.48v-.81a21.33,21.33,0,0,0,4.85-.93ZM523.76,473a1.8,1.8,0,0,1,.53-1.3,1.74,1.74,0,0,1,1.3-.55,1.7,1.7,0,0,1,1.28.55,1.8,1.8,0,0,1,.53,1.3,1.86,1.86,0,0,1-.53,1.32,1.72,1.72,0,0,1-1.28.54,1.77,1.77,0,0,1-1.3-.54A1.86,1.86,0,0,1,523.76,473Z"/><path class="cls-6" d="M531.69,488.06a7.49,7.49,0,0,1,2.21-5.53,7.81,7.81,0,0,1,10.92,0,7.56,7.56,0,0,1,2.21,5.52,7.42,7.42,0,0,1-2.25,5.72,7.7,7.7,0,0,1-5.43,2.08,7.57,7.57,0,0,1-5.42-2.12A7.41,7.41,0,0,1,531.69,488.06Zm2.91.09q0,3.83,1.25,5.37a4.8,4.8,0,0,0,7,0q1.22-1.54,1.22-5.37c0-2.54-.41-4.34-1.22-5.42a4.65,4.65,0,0,0-7,0Q534.6,484.33,534.6,488.15Z"/><path class="cls-6" d="M553.31,480.31h.47a9.62,9.62,0,0,1,.46,3,9.31,9.31,0,0,1,2.65-2.24,6.15,6.15,0,0,1,2.9-.73,5.1,5.1,0,0,1,2.83.72,3.25,3.25,0,0,1,1.41,1.76,11.22,11.22,0,0,1,.32,3v4.5c0,1.67,0,2.68.08,3a1.11,1.11,0,0,0,.56.82,3.74,3.74,0,0,0,1.71.27v.81h-7.36v-.81h.33a2.5,2.5,0,0,0,1.65-.37,1.31,1.31,0,0,0,.44-.86c0-.33.06-1.29.06-2.9V485.7a12.29,12.29,0,0,0-.17-2.43,2.23,2.23,0,0,0-.9-1.29,2.9,2.9,0,0,0-1.85-.57,4.38,4.38,0,0,0-2.45.77,8.1,8.1,0,0,0-2.21,2.29v5.87a24.48,24.48,0,0,0,.1,3,1.11,1.11,0,0,0,.56.82,3.81,3.81,0,0,0,1.73.27v.81h-7.28v-.81a4.14,4.14,0,0,0,1.69-.24,1.11,1.11,0,0,0,.59-.75,22.41,22.41,0,0,0,.11-3.14v-4.29a28.24,28.24,0,0,0-.09-3.05,1.15,1.15,0,0,0-.57-.8,3.62,3.62,0,0,0-1.73-.28v-.81A23.37,23.37,0,0,0,553.31,480.31Z"/><path class="cls-6" d="M580.92,480.31h.48a8.14,8.14,0,0,1,.3,2.37,7.83,7.83,0,0,1,2.41-1.79,6.87,6.87,0,0,1,7.71,1.52,7.71,7.71,0,0,1,2,5.54,8.23,8.23,0,0,1-2,5.64,6.62,6.62,0,0,1-5.24,2.27,6.38,6.38,0,0,1-2.56-.53,7.84,7.84,0,0,1-2.31-1.59v5.46a28,28,0,0,0,.09,3,1.13,1.13,0,0,0,.56.82,3.66,3.66,0,0,0,1.7.27v.81h-7.52v-.81h.53a2.49,2.49,0,0,0,1.62-.36,1.38,1.38,0,0,0,.44-.86q.06-.5.06-2.91V486.12c0-1.53,0-2.5-.06-2.9a1.23,1.23,0,0,0-.5-.91,2.79,2.79,0,0,0-1.56-.32h-.53v-.81A29.38,29.38,0,0,0,580.92,480.31Zm.78,12.27a7,7,0,0,0,2,1.74,4.43,4.43,0,0,0,5.7-1.11q1.49-1.71,1.48-5.43a7.1,7.1,0,0,0-1.42-4.84,4.42,4.42,0,0,0-3.4-1.6,4.62,4.62,0,0,0-2.3.62,7.1,7.1,0,0,0-2.07,1.86Z"/><path class="cls-6" d="M609.61,485.75h-10c0,.7-.07,1.21-.07,1.55a11,11,0,0,0,1.19,5.71,3.89,3.89,0,0,0,3.54,1.9,4.64,4.64,0,0,0,4.54-2.86h.84a4.9,4.9,0,0,1-2.23,2.8,7,7,0,0,1-7.09.09,7.41,7.41,0,0,1-2.67-2.61,7.71,7.71,0,0,1-1-4.1,8.23,8.23,0,0,1,2-5.67,6.41,6.41,0,0,1,5-2.25A5.59,5.59,0,0,1,608,482,5.89,5.89,0,0,1,609.61,485.75Zm-3.08-.7a5,5,0,0,0,.06-.72,3,3,0,0,0-3.13-3.25c-2.13,0-3.41,1.32-3.82,4Z"/><path class="cls-6" d="M617,484a5.9,5.9,0,0,1,1.94-2.62,4.28,4.28,0,0,1,2.63-1.05,2.35,2.35,0,0,1,1.82.72,2.15,2.15,0,0,1,.67,1.47,1.23,1.23,0,0,1-.34.88,1.09,1.09,0,0,1-.84.37c-.58,0-1-.43-1.33-1.3-.21-.59-.53-.88-.95-.88a2.89,2.89,0,0,0-1.81,1,4.67,4.67,0,0,0-1.35,2.14,12.08,12.08,0,0,0-.3,3v2.56c0,1.54,0,2.5.06,2.9a1.23,1.23,0,0,0,.5.92,2.81,2.81,0,0,0,1.56.31h.5v.81h-7.65v-.81h.37a2.82,2.82,0,0,0,1.5-.29,1.15,1.15,0,0,0,.54-.81,29,29,0,0,0,.08-3v-4.06q0-2.31-.06-2.91a1.22,1.22,0,0,0-.5-.91,2.69,2.69,0,0,0-1.56-.33h-.37v-.79a24.86,24.86,0,0,0,4.32-1A11.76,11.76,0,0,1,617,484Z"/><path class="cls-6" d="M637.56,480.31H638a8.14,8.14,0,0,1,.3,2.37,7.87,7.87,0,0,1,2.42-1.79,6.87,6.87,0,0,1,7.71,1.52,7.75,7.75,0,0,1,2,5.54,8.22,8.22,0,0,1-2,5.64,6.63,6.63,0,0,1-5.25,2.27,6.45,6.45,0,0,1-2.56-.53,8.11,8.11,0,0,1-2.31-1.59v5.46a26.84,26.84,0,0,0,.1,3,1.12,1.12,0,0,0,.55.82,3.74,3.74,0,0,0,1.71.27v.81h-7.52v-.81h.52a2.52,2.52,0,0,0,1.63-.36,1.38,1.38,0,0,0,.44-.86q.06-.5.06-2.91V486.12c0-1.53,0-2.5-.06-2.9a1.23,1.23,0,0,0-.5-.91,2.85,2.85,0,0,0-1.57-.32h-.52v-.81A29.38,29.38,0,0,0,637.56,480.31Zm.77,12.27a7.14,7.14,0,0,0,2,1.74,4.43,4.43,0,0,0,5.7-1.11c1-1.14,1.48-2.95,1.48-5.43a7.1,7.1,0,0,0-1.43-4.84,4.42,4.42,0,0,0-3.39-1.6,4.59,4.59,0,0,0-2.3.62,7.26,7.26,0,0,0-2.08,1.86Z"/><path class="cls-6" d="M667.72,492.65h.65c-.1,2-1.09,3-3,3a2.7,2.7,0,0,1-1.89-.63,3.18,3.18,0,0,1-.9-1.88,18.94,18.94,0,0,1-3.21,1.88,6.63,6.63,0,0,1-2.59.63,3.91,3.91,0,0,1-2.52-.84,2.73,2.73,0,0,1-1-2.23,3.94,3.94,0,0,1,1.76-3.17,22.22,22.22,0,0,1,4.88-2.64l2.73-1.1V485a8.5,8.5,0,0,0-.2-2.16,2.22,2.22,0,0,0-1-1.19,3.78,3.78,0,0,0-2.13-.53c-1.75,0-2.73.58-2.93,1.76s-.68,1.79-1.48,1.79-1.07-.34-1.07-1a3,3,0,0,1,1.42-2.15,9,9,0,0,1,7.9-.45,3.61,3.61,0,0,1,1.62,1.6,7,7,0,0,1,.4,2.74v5.82a9.87,9.87,0,0,0,.21,2.62.87.87,0,0,0,.91.58C667.06,494.37,667.54,493.79,667.72,492.65Zm-5.09-6.16-1.92.78c-3,1.23-4.54,2.77-4.54,4.64a2.66,2.66,0,0,0,.58,1.78,1.93,1.93,0,0,0,1.52.68,4.28,4.28,0,0,0,1.91-.55,14.35,14.35,0,0,0,2.45-1.63Z"/><path class="cls-6" d="M681.08,482.15a4.2,4.2,0,0,1,3-1.69,1.82,1.82,0,0,1,1.31.46,1.39,1.39,0,0,1,.46,1c0,.78-.35,1.16-1,1.16a1.19,1.19,0,0,1-1-.72c-.26-.44-.53-.67-.81-.67a2.18,2.18,0,0,0-1.48.92,5.6,5.6,0,0,1,.91,3.06,5.27,5.27,0,0,1-1.51,3.72c-1,1.09-2.7,1.68-5.1,1.76s-3.72.59-3.72,1.51c0,.44.28.74.84.92a16.29,16.29,0,0,0,3.48.42,24.23,24.23,0,0,1,4.47.53,4.62,4.62,0,0,1,1.53,8.19,9,9,0,0,1-5.47,1.42,9.61,9.61,0,0,1-5.24-1.26,3.74,3.74,0,0,1-2-3.2,2.66,2.66,0,0,1,.57-1.76,1.92,1.92,0,0,1,1.59-.69,1.36,1.36,0,0,1,.51.09,3.75,3.75,0,0,0-1.09,2.53,3,3,0,0,0,1.45,2.56,7.67,7.67,0,0,0,4.34,1,6.75,6.75,0,0,0,4-1,3.12,3.12,0,0,0,1.43-2.63,2.6,2.6,0,0,0-1.28-2.47,11.51,11.51,0,0,0-4.57-.85c-2.52-.1-4.16-.41-4.91-.93a2.25,2.25,0,0,1-1.12-1.95c0-1.54,1.07-2.5,3.21-2.9a7.62,7.62,0,0,1-2.51-2.25,5,5,0,0,1-.84-2.83,4.8,4.8,0,0,1,1.73-3.74,6,6,0,0,1,4.1-1.53A6.22,6.22,0,0,1,681.08,482.15ZM673.17,486a5,5,0,0,0,.93,3.33,3.06,3.06,0,0,0,2.38,1.05,3,3,0,0,0,2.29-1.05,5.34,5.34,0,0,0,1-3.63c0-1.73-.34-2.93-1-3.58a3.23,3.23,0,0,0-2.3-1,2.73,2.73,0,0,0-2.43,1.22A6.62,6.62,0,0,0,673.17,486Z"/><path class="cls-6" d="M700,485.75H690c-.05.7-.07,1.21-.07,1.55a11,11,0,0,0,1.19,5.71,3.89,3.89,0,0,0,3.54,1.9,4.63,4.63,0,0,0,4.53-2.86H700a4.92,4.92,0,0,1-2.24,2.8,6.81,6.81,0,0,1-3.63,1,7,7,0,0,1-3.46-.92,7.46,7.46,0,0,1-2.66-2.61,7.71,7.71,0,0,1-1-4.1,8.23,8.23,0,0,1,2-5.67,6.41,6.41,0,0,1,5-2.25,5.56,5.56,0,0,1,4.37,1.72A5.91,5.91,0,0,1,700,485.75Zm-3.08-.7a4.84,4.84,0,0,0,.05-.72,3,3,0,0,0-3.13-3.25q-3.2,0-3.81,4Z"/><path class="cls-6" d="M702.92,494a1.9,1.9,0,0,1,1.88-1.88,1.84,1.84,0,0,1,1.34.56,1.88,1.88,0,0,1,0,2.67,1.82,1.82,0,0,1-1.33.55,1.78,1.78,0,0,1-1.34-.57A1.87,1.87,0,0,1,702.92,494Z"/><path class="cls-6" d="M711.26,480.66v-.93c2.28-.45,3.41-1.72,3.41-3.82,0-.74-.21-1.11-.65-1.11a1.34,1.34,0,0,0-.35.06,2.5,2.5,0,0,1-.7.12,1.77,1.77,0,0,1-1.37-.55,1.74,1.74,0,0,1-.51-1.23,1.71,1.71,0,0,1,.52-1.22,1.76,1.76,0,0,1,1.34-.53,2.44,2.44,0,0,1,2,1.05,4.42,4.42,0,0,1,.84,2.83,5.3,5.3,0,0,1-1.17,3.47A5.46,5.46,0,0,1,711.26,480.66Zm8,0v-.93q3.4-.68,3.41-3.82c0-.74-.22-1.11-.67-1.11a1.49,1.49,0,0,0-.35.06,2.56,2.56,0,0,1-.7.12,1.79,1.79,0,0,1-1.37-.55,1.69,1.69,0,0,1,0-2.43,1.72,1.72,0,0,1,1.36-.55,2.46,2.46,0,0,1,2,1.05,4.47,4.47,0,0,1,.83,2.83,5.3,5.3,0,0,1-1.17,3.47A5.41,5.41,0,0,1,719.23,480.66Z"/><path class="cls-6" d="M310.52,551.83h16v1.92h-16Z"/><path class="cls-6" d="M329.49,545.44H332v4.71l4.4-4.71h3.27l-5.05,5.27,5.48,6.07H336.6L332,551.4v5.38h-2.5Z"/><path class="cls-6" d="M342.2,553.93a1.47,1.47,0,1,1-1.48,1.47A1.47,1.47,0,0,1,342.2,553.93Z"/><path class="cls-6" d="M345.72,545.44h4.22c2,0,4.15.42,4.15,2.89a2.55,2.55,0,0,1-2,2.49v0a2.73,2.73,0,0,1,2.49,2.77c0,2.37-2.25,3.16-4.26,3.16h-4.64Zm2.49,4.53H350c.77,0,1.57-.32,1.57-1.23s-.9-1.18-1.68-1.18h-1.7Zm0,4.69h2.24c.79,0,1.67-.33,1.67-1.33s-1.2-1.24-2-1.24h-1.89Z"/><path class="cls-6" d="M357,553.93a1.47,1.47,0,1,1-1.47,1.47A1.47,1.47,0,0,1,357,553.93Z"/><path class="cls-6" d="M360.87,554.18h2.3l-1.44,4.52h-2.05Z"/><path class="cls-6" d="M369.67,554.23l4.4-4a2.35,2.35,0,0,0,1-1.59,1.28,1.28,0,0,0-1.4-1.23,1.44,1.44,0,0,0-1.47,1.44l-2.4-.18c.15-2.33,1.78-3.47,4-3.47,2.07,0,3.67,1.14,3.67,3.41a3.72,3.72,0,0,1-1.49,3l-3.44,3h5v2.12h-7.9Z"/><path class="cls-6" d="M383,549.49a3.41,3.41,0,0,1,.78-.11,3.52,3.52,0,0,1,3.56,3.7,4.24,4.24,0,0,1-8.46,0,6.45,6.45,0,0,1,1.37-3.76l2.48-3.88h2.93Zm.11,1.72a1.78,1.78,0,1,0,1.83,1.77A1.73,1.73,0,0,0,383.06,551.21Z"/><path class="cls-6" d="M336.18,570.39a2.7,2.7,0,0,0-2.15-.93,3.68,3.68,0,0,0-.08,7.3,2.71,2.71,0,0,0,2.34-1.22l2.08,1.56a5,5,0,0,1-4.1,2,6,6,0,1,1,0-11.9,4.87,4.87,0,0,1,3.83,1.66Z"/><path class="cls-6" d="M349.28,574.41c0,2.67-1.63,4.65-4.77,4.65s-4.79-2-4.79-4.65v-7h2.5v6.87a2.29,2.29,0,1,0,4.56,0v-6.87h2.5Z"/><path class="cls-6" d="M351.58,567.44H356c2.32,0,4.27.8,4.27,3.44a2.92,2.92,0,0,1-2.45,3.11l2.88,4.79h-3l-2.37-4.53h-1.23v4.53h-2.5Zm2.5,4.69h1.47c.91,0,2.1,0,2.1-1.26s-1-1.31-1.94-1.31h-1.63Z"/><path class="cls-6" d="M362,567.44h4.38c2.33,0,4.28.8,4.28,3.44a2.92,2.92,0,0,1-2.45,3.11l2.88,4.79h-3l-2.37-4.53h-1.23v4.53H362Zm2.5,4.69h1.47c.91,0,2.09,0,2.09-1.26s-1-1.31-1.93-1.31h-1.63Z"/><path class="cls-6" d="M372.41,567.44h7.7v2.31h-5.2v2.11h4.91v2.31h-4.91v2.3h5.49v2.31h-8Z"/><path class="cls-6" d="M382.4,567.44h3.39l4.82,7.88h0v-7.88h2.5v11.34h-3.27l-4.94-8.07h0v8.07H382.4Z"/><path class="cls-6" d="M397.63,569.65H394.4v-2.21h9v2.21h-3.23v9.13h-2.5Z"/><path class="cls-6" d="M415,570.21a2.42,2.42,0,0,0-1.81-.75c-.7,0-1.68.32-1.68,1.17,0,2.06,5.22.74,5.22,4.7,0,2.53-2,3.73-4.37,3.73a5.38,5.38,0,0,1-3.81-1.42l1.78-1.95a2.77,2.77,0,0,0,2.17,1.07c.82,0,1.73-.39,1.73-1.18,0-2.09-5.31-1-5.31-4.74,0-2.42,2.09-3.68,4.32-3.68a5.1,5.1,0,0,1,3.47,1.18Z"/><path class="cls-6" d="M420.73,569.65H417.5v-2.21h9v2.21h-3.23v9.13h-2.5Z"/><path class="cls-6" d="M437.28,574.41c0,2.67-1.63,4.65-4.77,4.65s-4.79-2-4.79-4.65v-7h2.5v6.87a2.29,2.29,0,1,0,4.56,0v-6.87h2.5Z"/><path class="cls-6" d="M439.58,567.44h3.75c3.64,0,6.7,1.56,6.7,5.7,0,3.67-3,5.64-6.37,5.64h-4.08Zm2.5,9h1.29c2.32,0,4.07-.88,4.07-3.46,0-2.22-1.78-3.26-3.89-3.26h-1.47Z"/><path class="cls-6" d="M451.82,567.44h7.7v2.31h-5.2v2.11h4.91v2.31h-4.91v2.3h5.49v2.31h-8Z"/><path class="cls-6" d="M461.8,567.44h3.4l4.82,7.88h0v-7.88h2.49v11.34h-3.26l-4.95-8.07h0v8.07h-2.5Z"/><path class="cls-6" d="M477,569.65H473.8v-2.21h9v2.21h-3.24v9.13H477Z"/><path class="cls-4" d="M970,210.65v62.89H819.23c-62.67,0-98.46-62.89-98.46-62.89Z"/><path class="cls-6" d="M970,273.54v62.9H926c-62.67,0-98.46-62.9-98.46-62.9Z"/><path class="cls-7" d="M95,147.75V84.85H245.77c62.67,0,98.46,62.9,98.46,62.9Z"/><path class="cls-8" d="M95,348.37V285.48h4.18c62.66,0,98.45,62.89,98.45,62.89Z"/><path class="cls-7" d="M95,797.94V735.05H221.6c62.66,0,98.45,62.89,98.45,62.89Z"/><path class="cls-7" d="M970,797.94v62.89H418.51c-62.67,0-98.46-62.89-98.46-62.89Z"/><path class="cls-3" d="M20,348.37v62.9H134.79c62.67,0,98.46-62.9,98.46-62.9Z"/><path class="cls-2" d="M1045,147.75H506.94c-62.67,0-98.46-62.9-98.46-62.9H982.1A62.9,62.9,0,0,1,1045,147.75Z"/><path class="cls-3" d="M1045,147.75v62.89H652.32c-62.67,0-98.46-62.89-98.46-62.89Z"/><path class="cls-1" d="M1045,147.75v62.89H970c-62.67,0-98.46-62.89-98.46-62.89Z"/></g><g id="Competitor"><g id="Competitor_1" data-name="Competitor 1"><line class="cls-9" x1="320.05" y1="638.85" x2="320.05" y2="876.08"/></g></g></svg>